<?xml version="1.0" encoding="UTF-8" standalone="no"?>
<!DOCTYPE svg PUBLIC "-//W3C//DTD SVG 1.1//EN"
 "http://www.w3.org/Graphics/SVG/1.1/DTD/svg11.dtd">
<!-- Generated by graphviz version 14.1.5 (0)
 -->
<!-- Title: beforeafter Pages: 1 -->
<svg width="607pt" height="251pt"
 viewBox="0.00 0.00 607.00 251.00" xmlns="http://www.w3.org/2000/svg" xmlns:xlink="http://www.w3.org/1999/xlink">
<g id="graph0" class="graph" transform="scale(1 1) rotate(0) translate(4 247.16)">
<title>beforeafter</title>
<g id="clust1" class="cluster">
<title>cluster_before</title>
<path fill="#fee2e2" stroke="#b91c1c" d="M20,-152.16C20,-152.16 397.94,-152.16 397.94,-152.16 403.94,-152.16 409.94,-158.16 409.94,-164.16 409.94,-164.16 409.94,-223.16 409.94,-223.16 409.94,-229.16 403.94,-235.16 397.94,-235.16 397.94,-235.16 20,-235.16 20,-235.16 14,-235.16 8,-229.16 8,-223.16 8,-223.16 8,-164.16 8,-164.16 8,-158.16 14,-152.16 20,-152.16"/>
<text xml:space="preserve" text-anchor="middle" x="208.97" y="-218.81" font-family="Inter" font-size="13.00">BEFORE — coordination as code</text>
</g>
<g id="clust2" class="cluster">
<title>cluster_after</title>
<path fill="#e0e7ff" stroke="#3730a3" d="M65.38,-19.16C65.38,-19.16 354.22,-19.16 354.22,-19.16 360.22,-19.16 366.22,-25.16 366.22,-31.16 366.22,-31.16 366.22,-86.16 366.22,-86.16 366.22,-92.16 360.22,-98.16 354.22,-98.16 354.22,-98.16 65.38,-98.16 65.38,-98.16 59.38,-98.16 53.38,-92.16 53.38,-86.16 53.38,-86.16 53.38,-31.16 53.38,-31.16 53.38,-25.16 59.38,-19.16 65.38,-19.16"/>
<text xml:space="preserve" text-anchor="middle" x="209.8" y="-81.81" font-family="Inter" font-size="13.00">AFTER — coordination as a typed protocol</text>
</g>
<!-- b_loop -->
<g id="node1" class="node">
<title>b_loop</title>
<path fill="#fecaca" stroke="#b91c1c" d="M179.75,-199.91C179.75,-199.91 28,-199.91 28,-199.91 22,-199.91 16,-193.91 16,-187.91 16,-187.91 16,-172.41 16,-172.41 16,-166.41 22,-160.41 28,-160.41 28,-160.41 179.75,-160.41 179.75,-160.41 185.75,-160.41 191.75,-166.41 191.75,-172.41 191.75,-172.41 191.75,-187.91 191.75,-187.91 191.75,-193.91 185.75,-199.91 179.75,-199.91"/>
<text xml:space="preserve" text-anchor="middle" x="103.88" y="-185.46" font-family="Inter" font-size="11.00" fill="#7f1d1d">hardcoded async/await loop</text>
<text xml:space="preserve" text-anchor="middle" x="103.88" y="-169.71" font-family="Inter" font-size="11.00" fill="#7f1d1d">+ string sentinel &quot;CONVERGED&quot;</text>
</g>
<!-- b_op -->
<g id="node2" class="node">
<title>b_op</title>
<path fill="#fca5a5" stroke="#b91c1c" d="M401.94,-177.67C401.94,-177.67 401.94,-182.65 401.94,-182.65 401.94,-185.13 399.51,-188.12 397.08,-188.63 397.08,-188.63 356.08,-197.15 356.08,-197.15 353.65,-197.65 348.73,-198.16 346.25,-198.16 346.25,-198.16 284.45,-198.16 284.45,-198.16 281.96,-198.16 277.04,-197.65 274.61,-197.15 274.61,-197.15 233.62,-188.63 233.62,-188.63 231.18,-188.12 228.75,-185.13 228.75,-182.65 228.75,-182.65 228.75,-177.67 228.75,-177.67 228.75,-175.19 231.18,-172.2 233.62,-171.69 233.62,-171.69 274.61,-163.17 274.61,-163.17 277.04,-162.67 281.96,-162.16 284.45,-162.16 284.45,-162.16 346.25,-162.16 346.25,-162.16 348.73,-162.16 353.65,-162.67 356.08,-163.17 356.08,-163.17 397.08,-171.69 397.08,-171.69 399.51,-172.2 401.94,-175.19 401.94,-177.67"/>
<text xml:space="preserve" text-anchor="middle" x="315.35" y="-177.59" font-family="Inter" font-size="11.00" fill="#7f1d1d">opaque control flow</text>
</g>
<!-- b_loop&#45;&gt;b_op -->
<g id="edge1" class="edge">
<title>b_loop&#45;&gt;b_op</title>
<path fill="none" stroke="#475569" d="M192.19,-180.16C200.45,-180.16 208.86,-180.16 217.2,-180.16"/>
<polygon fill="#475569" stroke="#475569" points="217,-183.66 227,-180.16 217,-176.66 217,-183.66"/>
</g>
<!-- inspect -->
<g id="node5" class="node">
<title>inspect</title>
<path fill="#ccfbf1" stroke="#0f766e" d="M574.32,-234.91C574.32,-234.91 470.57,-234.91 470.57,-234.91 464.57,-234.91 458.57,-228.91 458.57,-222.91 458.57,-222.91 458.57,-207.41 458.57,-207.41 458.57,-201.41 464.57,-195.41 470.57,-195.41 470.57,-195.41 574.32,-195.41 574.32,-195.41 580.32,-195.41 586.32,-201.41 586.32,-207.41 586.32,-207.41 586.32,-222.91 586.32,-222.91 586.32,-228.91 580.32,-234.91 574.32,-234.91"/>
<text xml:space="preserve" text-anchor="middle" x="522.44" y="-220.46" font-family="Inter" font-size="11.00" fill="#134e4a">INSPECT</text>
<text xml:space="preserve" text-anchor="middle" x="522.44" y="-204.71" font-family="Inter" font-size="11.00" fill="#134e4a">csm_show_projection</text>
</g>
<!-- b_op&#45;&gt;inspect -->
<g id="edge3" class="edge">
<title>b_op&#45;&gt;inspect</title>
<path fill="none" stroke="#dc2626" d="M360.59,-196.71C378.72,-202.73 400.08,-208.86 419.94,-212.16 428.57,-213.59 437.65,-214.58 446.7,-215.25"/>
<polygon fill="#dc2626" stroke="#dc2626" points="446.41,-218.74 456.6,-215.83 446.83,-211.75 446.41,-218.74"/>
<text xml:space="preserve" text-anchor="middle" x="424.07" y="-216.62" font-family="Inter" font-size="10.00" fill="#dc2626">✗</text>
</g>
<!-- check -->
<g id="node6" class="node">
<title>check</title>
<path fill="#ccfbf1" stroke="#0f766e" d="M586.69,-55.91C586.69,-55.91 458.19,-55.91 458.19,-55.91 452.19,-55.91 446.19,-49.91 446.19,-43.91 446.19,-43.91 446.19,-28.41 446.19,-28.41 446.19,-22.41 452.19,-16.41 458.19,-16.41 458.19,-16.41 586.69,-16.41 586.69,-16.41 592.69,-16.41 598.69,-22.41 598.69,-28.41 598.69,-28.41 598.69,-43.91 598.69,-43.91 598.69,-49.91 592.69,-55.91 586.69,-55.91"/>
<text xml:space="preserve" text-anchor="middle" x="522.44" y="-41.46" font-family="Inter" font-size="11.00" fill="#134e4a">MODEL&#45;CHECK</text>
<text xml:space="preserve" text-anchor="middle" x="522.44" y="-25.71" font-family="Inter" font-size="11.00" fill="#134e4a">csm_protocol_to_tla → TLC</text>
</g>
<!-- b_op&#45;&gt;check -->
<g id="edge4" class="edge">
<title>b_op&#45;&gt;check</title>
<path fill="none" stroke="#dc2626" d="M338.97,-161.93C358.13,-146.35 386.18,-123.18 409.94,-102.16 426.49,-87.53 427.69,-80.22 446.19,-68.16 449.84,-65.79 453.68,-63.52 457.64,-61.38"/>
<polygon fill="#dc2626" stroke="#dc2626" points="458.95,-64.63 466.27,-56.97 455.77,-58.4 458.95,-64.63"/>
<text xml:space="preserve" text-anchor="middle" x="424.07" y="-95.27" font-family="Inter" font-size="10.00" fill="#dc2626">✗</text>
</g>
<!-- replay -->
<g id="node7" class="node">
<title>replay</title>
<path fill="#ccfbf1" stroke="#0f766e" d="M563.07,-116.91C563.07,-116.91 481.82,-116.91 481.82,-116.91 475.82,-116.91 469.82,-110.91 469.82,-104.91 469.82,-104.91 469.82,-89.41 469.82,-89.41 469.82,-83.41 475.82,-77.41 481.82,-77.41 481.82,-77.41 563.07,-77.41 563.07,-77.41 569.07,-77.41 575.07,-83.41 575.07,-89.41 575.07,-89.41 575.07,-104.91 575.07,-104.91 575.07,-110.91 569.07,-116.91 563.07,-116.91"/>
<text xml:space="preserve" text-anchor="middle" x="522.44" y="-102.46" font-family="Inter" font-size="11.00" fill="#134e4a">REPLAY</text>
<text xml:space="preserve" text-anchor="middle" x="522.44" y="-86.71" font-family="Inter" font-size="11.00" fill="#134e4a">csm_validate_run</text>
</g>
<!-- b_op&#45;&gt;replay -->
<g id="edge5" class="edge">
<title>b_op&#45;&gt;replay</title>
<path fill="none" stroke="#dc2626" d="M357.83,-163.13C383.31,-152.69 416.61,-139.09 446.19,-127.16 450.79,-125.3 455.55,-123.39 460.34,-121.47"/>
<polygon fill="#dc2626" stroke="#dc2626" points="461.44,-124.8 469.42,-117.84 458.84,-118.3 461.44,-124.8"/>
<text xml:space="preserve" text-anchor="middle" x="424.07" y="-140.48" font-family="Inter" font-size="10.00" fill="#dc2626">✗</text>
</g>
<!-- learn -->
<g id="node8" class="node">
<title>learn</title>
<path fill="#ccfbf1" stroke="#0f766e" d="M557.07,-175.91C557.07,-175.91 487.82,-175.91 487.82,-175.91 481.82,-175.91 475.82,-169.91 475.82,-163.91 475.82,-163.91 475.82,-148.41 475.82,-148.41 475.82,-142.41 481.82,-136.41 487.82,-136.41 487.82,-136.41 557.07,-136.41 557.07,-136.41 563.07,-136.41 569.07,-142.41 569.07,-148.41 569.07,-148.41 569.07,-163.91 569.07,-163.91 569.07,-169.91 563.07,-175.91 557.07,-175.91"/>
<text xml:space="preserve" text-anchor="middle" x="522.44" y="-161.46" font-family="Inter" font-size="11.00" fill="#134e4a">LEARN</text>
<text xml:space="preserve" text-anchor="middle" x="522.44" y="-145.71" font-family="Inter" font-size="11.00" fill="#134e4a">MSM trajectory</text>
</g>
<!-- b_op&#45;&gt;learn -->
<g id="edge6" class="edge">
<title>b_op&#45;&gt;learn</title>
<path fill="none" stroke="#dc2626" d="M371.55,-194.34C389.71,-197.08 409.91,-198.04 428.19,-194.16 436.76,-192.34 438.13,-189.56 446.19,-186.16 452.26,-183.61 458.61,-180.98 464.96,-178.4"/>
<polygon fill="#dc2626" stroke="#dc2626" points="466.2,-181.68 474.16,-174.69 463.58,-175.19 466.2,-181.68"/>
<text xml:space="preserve" text-anchor="middle" x="424.07" y="-198.49" font-family="Inter" font-size="10.00" fill="#dc2626">✗</text>
</g>
<!-- a_g -->
<g id="node3" class="node">
<title>a_g</title>
<polygon fill="#c7d2fe" stroke="#3730a3" points="146.38,-63.16 65.38,-63.16 61.38,-59.16 61.38,-27.16 142.38,-27.16 146.38,-31.16 146.38,-63.16"/>
<polyline fill="none" stroke="#3730a3" points="142.38,-59.16 61.38,-59.16"/>
<polyline fill="none" stroke="#3730a3" points="142.38,-59.16 142.38,-27.16"/>
<polyline fill="none" stroke="#3730a3" points="142.38,-59.16 146.38,-63.16"/>
<text xml:space="preserve" text-anchor="middle" x="103.88" y="-42.59" font-family="Inter" font-size="11.00" fill="#1e1b4b">GlobalType G</text>
</g>
<!-- a_proj -->
<g id="node4" class="node">
<title>a_proj</title>
<path fill="#c7d2fe" stroke="#3730a3" d="M346.22,-63.16C346.22,-63.16 284.47,-63.16 284.47,-63.16 278.47,-63.16 272.47,-57.16 272.47,-51.16 272.47,-51.16 272.47,-39.16 272.47,-39.16 272.47,-33.16 278.47,-27.16 284.47,-27.16 284.47,-27.16 346.22,-27.16 346.22,-27.16 352.22,-27.16 358.22,-33.16 358.22,-39.16 358.22,-39.16 358.22,-51.16 358.22,-51.16 358.22,-57.16 352.22,-63.16 346.22,-63.16"/>
<text xml:space="preserve" text-anchor="middle" x="315.35" y="-42.59" font-family="Inter" font-size="11.00" fill="#1e1b4b">project: G ↾ r</text>
</g>
<!-- a_g&#45;&gt;a_proj -->
<g id="edge2" class="edge">
<title>a_g&#45;&gt;a_proj</title>
<path fill="none" stroke="#475569" d="M146.76,-45.16C179.62,-45.16 225.58,-45.16 261.05,-45.16"/>
<polygon fill="#475569" stroke="#475569" points="260.66,-48.66 270.66,-45.16 260.66,-41.66 260.66,-48.66"/>
</g>
<!-- a_proj&#45;&gt;inspect -->
<g id="edge7" class="edge">
<title>a_proj&#45;&gt;inspect</title>
<path fill="none" stroke="#16a34a" d="M333.04,-63.59C366.57,-100.53 439.48,-180.55 446.19,-185.16 448.4,-186.67 450.69,-188.12 453.04,-189.51"/>
<polygon fill="#16a34a" stroke="#16a34a" points="451.2,-192.5 461.66,-194.19 454.54,-186.35 451.2,-192.5"/>
<text xml:space="preserve" text-anchor="middle" x="424.07" y="-168.65" font-family="Inter" font-size="10.00" fill="#16a34a">✓</text>
</g>
<!-- a_proj&#45;&gt;check -->
<g id="edge8" class="edge">
<title>a_proj&#45;&gt;check</title>
<path fill="none" stroke="#16a34a" d="M350.24,-26.78C369.96,-17.14 395.64,-6.33 419.94,-1.41 439.94,2.64 461.4,-3.14 479.41,-11.07"/>
<polygon fill="#16a34a" stroke="#16a34a" points="477.69,-14.12 488.22,-15.28 480.71,-7.81 477.69,-14.12"/>
<text xml:space="preserve" text-anchor="middle" x="424.07" y="-4.66" font-family="Inter" font-size="10.00" fill="#16a34a">✓</text>
</g>
<!-- a_proj&#45;&gt;replay -->
<g id="edge9" class="edge">
<title>a_proj&#45;&gt;replay</title>
<path fill="none" stroke="#16a34a" d="M358.51,-31.8C380.52,-27.32 407.16,-25.98 428.19,-37.41 441.11,-44.43 434.94,-55.7 446.19,-65.16 450.33,-68.63 454.89,-71.78 459.66,-74.62"/>
<polygon fill="#16a34a" stroke="#16a34a" points="457.9,-77.64 468.36,-79.3 461.22,-71.48 457.9,-77.64"/>
<text xml:space="preserve" text-anchor="middle" x="424.07" y="-40.66" font-family="Inter" font-size="10.00" fill="#16a34a">✓</text>
</g>
<!-- a_proj&#45;&gt;learn -->
<g id="edge10" class="edge">
<title>a_proj&#45;&gt;learn</title>
<path fill="none" stroke="#16a34a" d="M342.4,-63.35C368.06,-80.79 408.74,-107.2 446.19,-126.16 452.29,-129.24 458.78,-132.24 465.29,-135.06"/>
<polygon fill="#16a34a" stroke="#16a34a" points="463.53,-138.12 474.11,-138.77 466.25,-131.67 463.53,-138.12"/>
<text xml:space="preserve" text-anchor="middle" x="424.07" y="-119.68" font-family="Inter" font-size="10.00" fill="#16a34a">✓</text>
</g>
</g>
</svg>
