<?xml version="1.0" encoding="UTF-8" standalone="no"?>
<!DOCTYPE svg PUBLIC "-//W3C//DTD SVG 1.1//EN"
 "http://www.w3.org/Graphics/SVG/1.1/DTD/svg11.dtd">
<!-- Generated by graphviz version 14.1.5 (0)
 -->
<!-- Title: blackbox Pages: 1 -->
<svg width="793pt" height="153pt"
 viewBox="0.00 0.00 793.00 153.00" xmlns="http://www.w3.org/2000/svg" xmlns:xlink="http://www.w3.org/1999/xlink">
<g id="graph0" class="graph" transform="scale(1 1) rotate(0) translate(4 148.91)">
<title>blackbox</title>
<!-- bb -->
<g id="node1" class="node">
<title>bb</title>
<polygon fill="#e2e8f0" stroke="#334155" points="152.5,-144.91 39.25,-144.91 35.25,-140.91 35.25,-89.66 148.5,-89.66 152.5,-93.66 152.5,-144.91"/>
<polyline fill="none" stroke="#334155" points="148.5,-140.91 35.25,-140.91"/>
<polyline fill="none" stroke="#334155" points="148.5,-140.91 148.5,-89.66"/>
<polyline fill="none" stroke="#334155" points="148.5,-140.91 152.5,-144.91"/>
<text xml:space="preserve" text-anchor="middle" x="93.88" y="-130.46" font-family="Inter" font-size="11.00" fill="#0f172a">black&#45;box agent</text>
<text xml:space="preserve" text-anchor="middle" x="93.88" y="-114.71" font-family="Inter" font-size="11.00" fill="#0f172a">(Claude · Codex · pi)</text>
<text xml:space="preserve" text-anchor="middle" x="93.88" y="-98.96" font-family="Inter" font-size="11.00" fill="#0f172a">no hidden&#45;state API</text>
</g>
<!-- txt -->
<g id="node3" class="node">
<title>txt</title>
<path fill="#dcfce7" stroke="#15803d" d="M454.62,-142.04C454.62,-142.04 347.88,-142.04 347.88,-142.04 341.88,-142.04 335.88,-136.04 335.88,-130.04 335.88,-130.04 335.88,-114.54 335.88,-114.54 335.88,-108.54 341.88,-102.54 347.88,-102.54 347.88,-102.54 454.62,-102.54 454.62,-102.54 460.62,-102.54 466.62,-108.54 466.62,-114.54 466.62,-114.54 466.62,-130.04 466.62,-130.04 466.62,-136.04 460.62,-142.04 454.62,-142.04"/>
<text xml:space="preserve" text-anchor="middle" x="401.25" y="-127.59" font-family="Inter" font-size="11.00" fill="#14532d">Text edge</text>
<text xml:space="preserve" text-anchor="middle" x="401.25" y="-111.84" font-family="Inter" font-size="11.00" fill="#14532d">MessageMedium::Text</text>
</g>
<!-- bb&#45;&gt;txt -->
<g id="edge1" class="edge">
<title>bb&#45;&gt;txt</title>
<path fill="none" stroke="#16a34a" d="M152.67,-118.23C201.24,-119.03 271.03,-120.17 324.15,-121.04"/>
<polygon fill="#16a34a" stroke="#16a34a" points="323.98,-124.54 334.04,-121.2 324.1,-117.54 323.98,-124.54"/>
<text xml:space="preserve" text-anchor="middle" x="254.5" y="-125.42" font-family="Inter" font-size="10.00">legal</text>
</g>
<!-- lat -->
<g id="node4" class="node">
<title>lat</title>
<path fill="#fef3c7" stroke="#b45309" d="M469.25,-76.04C469.25,-76.04 333.25,-76.04 333.25,-76.04 327.25,-76.04 321.25,-70.04 321.25,-64.04 321.25,-64.04 321.25,-48.54 321.25,-48.54 321.25,-42.54 327.25,-36.54 333.25,-36.54 333.25,-36.54 469.25,-36.54 469.25,-36.54 475.25,-36.54 481.25,-42.54 481.25,-48.54 481.25,-48.54 481.25,-64.04 481.25,-64.04 481.25,-70.04 475.25,-76.04 469.25,-76.04"/>
<text xml:space="preserve" text-anchor="middle" x="401.25" y="-61.59" font-family="Inter" font-size="11.00" fill="#7c2d12">Latent edge</text>
<text xml:space="preserve" text-anchor="middle" x="401.25" y="-45.84" font-family="Inter" font-size="11.00" fill="#7c2d12">MessageMedium::Latent{…}</text>
</g>
<!-- bb&#45;&gt;lat -->
<g id="edge3" class="edge">
<title>bb&#45;&gt;lat</title>
<path fill="none" stroke="#dc2626" stroke-width="2" d="M152.67,-105.74C196.97,-96.89 258.93,-84.52 309.78,-74.36"/>
<polygon fill="#dc2626" stroke="#dc2626" stroke-width="2" points="308.69,-78.14 317.81,-72.75 307.32,-71.28 308.69,-78.14"/>
<text xml:space="preserve" text-anchor="middle" x="254.5" y="-98.79" font-family="Inter" font-size="10.00">ILLEGAL</text>
</g>
<!-- wb -->
<g id="node2" class="node">
<title>wb</title>
<polygon fill="#fef3c7" stroke="#b45309" points="187.75,-68.04 4,-68.04 0,-64.04 0,-28.54 183.75,-28.54 187.75,-32.54 187.75,-68.04"/>
<polyline fill="none" stroke="#b45309" points="183.75,-64.04 0,-64.04"/>
<polyline fill="none" stroke="#b45309" points="183.75,-64.04 183.75,-28.54"/>
<polyline fill="none" stroke="#b45309" points="183.75,-64.04 187.75,-68.04"/>
<text xml:space="preserve" text-anchor="middle" x="93.88" y="-53.59" font-family="Inter" font-size="11.00" fill="#7c2d12">white&#45;box backbone</text>
<text xml:space="preserve" text-anchor="middle" x="93.88" y="-37.84" font-family="Inter" font-size="11.00" fill="#7c2d12">(local Qwen3, logits/hidden&#45;state)</text>
</g>
<!-- wb&#45;&gt;lat -->
<g id="edge5" class="edge">
<title>wb&#45;&gt;lat</title>
<path fill="none" stroke="#d97706" d="M188,-47.21C224.02,-47.16 265.56,-47.56 303.25,-49.04 305.31,-49.12 307.4,-49.21 309.5,-49.3"/>
<polygon fill="#d97706" stroke="#d97706" points="309.19,-52.79 319.36,-49.81 309.55,-45.8 309.19,-52.79"/>
<text xml:space="preserve" text-anchor="middle" x="254.5" y="-53.79" font-family="Inter" font-size="10.00">legal (white&#45;box only)</text>
</g>
<!-- ok -->
<g id="node5" class="node">
<title>ok</title>
<path fill="#dcfce7" stroke="#15803d" d="M716.24,-142.04C716.24,-142.04 586.99,-142.04 586.99,-142.04 580.99,-142.04 574.99,-136.04 574.99,-130.04 574.99,-130.04 574.99,-114.54 574.99,-114.54 574.99,-108.54 580.99,-102.54 586.99,-102.54 586.99,-102.54 716.24,-102.54 716.24,-102.54 722.24,-102.54 728.24,-108.54 728.24,-114.54 728.24,-114.54 728.24,-130.04 728.24,-130.04 728.24,-136.04 722.24,-142.04 716.24,-142.04"/>
<text xml:space="preserve" text-anchor="middle" x="651.62" y="-127.59" font-family="Inter" font-size="11.00" fill="#14532d">✓ projects</text>
<text xml:space="preserve" text-anchor="middle" x="651.62" y="-111.84" font-family="Inter" font-size="11.00" fill="#14532d">(role bound, run proceeds)</text>
</g>
<!-- txt&#45;&gt;ok -->
<g id="edge2" class="edge">
<title>txt&#45;&gt;ok</title>
<path fill="none" stroke="#16a34a" d="M466.86,-122.29C496.43,-122.29 531.91,-122.29 563.77,-122.29"/>
<polygon fill="#16a34a" stroke="#16a34a" points="563.36,-125.79 573.36,-122.29 563.36,-118.79 563.36,-125.79"/>
</g>
<!-- lat&#45;&gt;ok -->
<g id="edge6" class="edge">
<title>lat&#45;&gt;ok</title>
<path fill="none" stroke="#d97706" stroke-dasharray="5,2" d="M461.84,-76.47C479.86,-82.25 499.77,-88.33 518.25,-93.29 532.88,-97.21 548.52,-101 563.74,-104.46"/>
<polygon fill="#d97706" stroke="#d97706" points="562.72,-107.82 573.25,-106.6 564.26,-100.99 562.72,-107.82"/>
</g>
<!-- bad -->
<g id="node6" class="node">
<title>bad</title>
<path fill="#fee2e2" stroke="#b91c1c" d="M784.98,-36.45C784.98,-36.45 784.98,-48.13 784.98,-48.13 784.98,-53.96 779.41,-61.57 773.85,-63.33 773.85,-63.33 717.99,-81.04 717.99,-81.04 712.42,-82.81 701.02,-84.57 695.18,-84.57 695.18,-84.57 608.05,-84.57 608.05,-84.57 602.21,-84.57 590.81,-82.81 585.24,-81.04 585.24,-81.04 529.38,-63.33 529.38,-63.33 523.82,-61.57 518.25,-53.96 518.25,-48.13 518.25,-48.13 518.25,-36.45 518.25,-36.45 518.25,-30.61 523.82,-23.01 529.38,-21.24 529.38,-21.24 585.24,-3.53 585.24,-3.53 590.81,-1.76 602.21,0 608.05,0 608.05,0 695.18,0 695.18,0 701.02,0 712.42,-1.76 717.99,-3.53 717.99,-3.53 773.85,-21.24 773.85,-21.24 779.41,-23.01 784.98,-30.61 784.98,-36.45"/>
<text xml:space="preserve" text-anchor="middle" x="651.62" y="-55.46" font-family="Inter" font-size="11.00" fill="#7f1d1d">✗ ProjectionError</text>
<text xml:space="preserve" text-anchor="middle" x="651.62" y="-39.71" font-family="Inter" font-size="11.00" fill="#7f1d1d">caught BEFORE any agent runs</text>
<text xml:space="preserve" text-anchor="middle" x="651.62" y="-23.96" font-family="Inter" font-size="11.00" fill="#7f1d1d">(CsmMedium.v)</text>
</g>
<!-- lat&#45;&gt;bad -->
<g id="edge4" class="edge">
<title>lat&#45;&gt;bad</title>
<path fill="none" stroke="#dc2626" stroke-width="2" d="M481.52,-51.82C489.61,-51.36 498,-50.89 506.52,-50.41"/>
<polygon fill="#dc2626" stroke="#dc2626" stroke-width="2" points="504.96,-54 514.75,-49.95 504.57,-47.01 504.96,-54"/>
</g>
</g>
</svg>
