<svg xmlns="http://www.w3.org/2000/svg" xmlns:xlink="http://www.w3.org/1999/xlink" contentStyleType="text/css" data-diagram-type="ACTIVITY" height="817px" preserveAspectRatio="none" style="width:798px;height:817px;" version="1.1" viewBox="0 0 798 817" width="798px" zoomAndPan="magnify"><?plantuml $version$?><defs/><g><rect fill="#FFFFCC" height="89.4799" rx="2.5" ry="2.5" style="stroke:#FFDD88;stroke-width:3;" width="767.7321" x="13" y="13"/><text fill="#000000" font-family="monospace" font-size="10" lengthAdjust="spacing" textLength="534" x="20" y="25.62">This&#160;syntax&#160;is&#160;deprecated,&#160;you&#160;must&#160;add&#160;&lt;&lt;#e0e7ff&gt;&gt;&#160;at&#160;the&#160;end&#160;of&#160;the&#160;line,&#160;after&#160;the&#160;';'</text><text fill="#000000" font-family="monospace" font-size="10" lengthAdjust="spacing" textLength="534" x="20" y="49.24">This&#160;syntax&#160;is&#160;deprecated,&#160;you&#160;must&#160;add&#160;&lt;&lt;#ccfbf1&gt;&gt;&#160;at&#160;the&#160;end&#160;of&#160;the&#160;line,&#160;after&#160;the&#160;';'</text><text fill="#000000" font-family="monospace" font-size="10" lengthAdjust="spacing" textLength="534" x="20" y="72.86">This&#160;syntax&#160;is&#160;deprecated,&#160;you&#160;must&#160;add&#160;&lt;&lt;#fee2e2&gt;&gt;&#160;at&#160;the&#160;end&#160;of&#160;the&#160;line,&#160;after&#160;the&#160;';'</text><text fill="#000000" font-family="monospace" font-size="10" lengthAdjust="spacing" textLength="534" x="20" y="96.4799">This&#160;syntax&#160;is&#160;deprecated,&#160;you&#160;must&#160;add&#160;&lt;&lt;#dcfce7&gt;&gt;&#160;at&#160;the&#160;end&#160;of&#160;the&#160;line,&#160;after&#160;the&#160;';'</text><ellipse cx="375.8416" cy="119.4799" fill="#222222" rx="10" ry="10" style="stroke:#222222;stroke-width:1;"/><rect fill="#CCFBF1" height="36.3441" rx="12.5" ry="12.5" style="stroke:#0F766E;stroke-width:0.5;" width="219.2014" x="266.2409" y="149.4799"/><text fill="#000000" font-family="Inter" font-size="12" lengthAdjust="spacing" textLength="199.2014" x="276.2409" y="172.308">GlobalType  G   (well-formed, ch.02)</text><rect fill="#CCFBF1" height="36.3441" rx="12.5" ry="12.5" style="stroke:#0F766E;stroke-width:0.5;" width="147.0195" x="302.3318" y="205.8241"/><text fill="#000000" font-family="Inter" font-size="12" lengthAdjust="spacing" textLength="127.0195" x="312.3318" y="228.6522">roles &#8592; participants(G)</text><rect fill="#CCFBF1" height="36.3441" rx="12.5" ry="12.5" style="stroke:#0F766E;stroke-width:0.5;" width="156.0436" x="297.8198" y="318.5123"/><text fill="#000000" font-family="Inter" font-size="12" lengthAdjust="spacing" textLength="136.0436" x="307.8198" y="341.3404">L &#8592; project(G, r)   (ch.02)</text><polygon fill="#FEF9C3" points="352.6922,374.8564,398.9909,374.8564,410.9909,386.8564,398.9909,398.8564,352.6922,398.8564,340.6922,386.8564,352.6922,374.8564" style="stroke:#A16207;stroke-width:0.5;stroke-linejoin:miter;stroke-miterlimit:10;"/><text fill="#000000" font-family="Inter" font-size="11" lengthAdjust="spacing" textLength="46.2987" x="352.6922" y="391.1244">projects?</text><text fill="#000000" font-family="Inter" font-size="11" lengthAdjust="spacing" textLength="17.0829" x="323.6094" y="383.6334">yes</text><text fill="#000000" font-family="Inter" font-size="11" lengthAdjust="spacing" textLength="13.4529" x="410.9909" y="383.6334">no</text><path d="M195.8543,408.8564 L195.8543,445.2684 L175.8543,449.2684 L195.8543,453.2684 L195.8543,489.6805 A0,0 0 0 0 195.8543,489.6805 L511.1225,489.6805 A0,0 0 0 0 511.1225,489.6805 L511.1225,418.8564 L501.1225,408.8564 L195.8543,408.8564 A0,0 0 0 0 195.8543,408.8564" fill="#FEFFDD" style="stroke:#181818;stroke-width:0.5;"/><path d="M501.1225,408.8564 L501.1225,418.8564 L511.1225,418.8564 L501.1225,408.8564" fill="#FEFFDD" style="stroke:#181818;stroke-width:0.5;"/><text fill="#000000" font-family="Inter" font-size="13" lengthAdjust="spacing" textLength="191.7487" x="201.8543" y="427.7534">Rec/Var &#8594; back-edge (self-loop)</text><text fill="#000000" font-family="Inter" font-size="13" lengthAdjust="spacing" textLength="252.7838" x="201.8543" y="445.4594">LocalCall/Box &#8594; Call{return_state}/Return</text><text fill="#000000" font-family="Inter" font-size="13" lengthAdjust="spacing" textLength="294.2682" x="201.8543" y="463.1655">recursive callee compiled ONCE (memoized box)</text><text fill="#000000" font-family="Inter" font-size="13" lengthAdjust="spacing" textLength="185.4307" x="201.8543" y="480.8715">call-free &#8658; Internal-only edges</text><rect fill="#CCFBF1" height="36.3441" rx="12.5" ry="12.5" style="stroke:#0F766E;stroke-width:0.5;" width="139.1968" x="36.6575" y="431.0964"/><text fill="#000000" font-family="Inter" font-size="12" lengthAdjust="spacing" textLength="119.1968" x="46.6575" y="453.9245">compile_in(r, L, penv)</text><rect fill="#CCFBF1" height="36.3441" rx="12.5" ry="12.5" style="stroke:#0F766E;stroke-width:0.5;" width="180.5117" x="16" y="522.2005"/><text fill="#000000" font-family="Inter" font-size="12" lengthAdjust="spacing" textLength="160.5117" x="26" y="545.0286">machines[r] &#8592; LocalMachine</text><rect fill="#CCFBF1" height="36.3441" rx="12.5" ry="12.5" style="stroke:#0F766E;stroke-width:0.5;" width="228.6095" x="521.1225" y="408.8564"/><text fill="#000000" font-family="Inter" font-size="12" lengthAdjust="spacing" textLength="208.6095" x="531.1225" y="431.6845">ProjectionError &#8212; refuse whole build</text><ellipse cx="635.4273" cy="491.2005" fill="none" rx="11" ry="11" style="stroke:#222222;stroke-width:1;"/><ellipse cx="635.4273" cy="491.2005" fill="#222222" rx="6" ry="6" style="stroke:#222222;stroke-width:1;"/><rect fill="#CCFBF1" height="36.3441" rx="12.5" ry="12.5" style="stroke:#0F766E;stroke-width:0.5;" width="103.9046" x="323.8893" y="262.1682"/><text fill="#000000" font-family="Inter" font-size="12" lengthAdjust="spacing" textLength="83.9046" x="333.8893" y="284.9963">pick next role r</text><polygon fill="#FEF9C3" points="345.4268,578.5446,406.2564,578.5446,418.2564,590.5446,406.2564,602.5446,345.4268,602.5446,333.4268,590.5446,345.4268,578.5446" style="stroke:#A16207;stroke-width:0.5;stroke-linejoin:miter;stroke-miterlimit:10;"/><text fill="#000000" font-family="Inter" font-size="11" lengthAdjust="spacing" textLength="60.8296" x="345.4268" y="594.8126">more roles?</text><text fill="#000000" font-family="Inter" font-size="11" lengthAdjust="spacing" textLength="17.0829" x="418.2564" y="587.3217">yes</text><rect fill="#CCFBF1" height="36.3441" rx="12.5" ry="12.5" style="stroke:#0F766E;stroke-width:0.5;" width="194.3358" x="278.6737" y="646.7495"/><text fill="#000000" font-family="Inter" font-size="12" lengthAdjust="spacing" textLength="174.3358" x="288.6737" y="669.5776">channels &#8592; collect_channels(G)</text><rect fill="#CCFBF1" height="52.6882" rx="12.5" ry="12.5" style="stroke:#0F766E;stroke-width:0.5;" width="208.4493" x="271.6169" y="703.0936"/><text fill="#000000" font-family="Inter" font-size="12" lengthAdjust="spacing" textLength="177.6013" x="281.6169" y="725.9217">Network { machines, channels }</text><text fill="#000000" font-family="Inter" font-size="12" lengthAdjust="spacing" textLength="188.4493" x="281.6169" y="742.2658">(drivable + checkable &#8212; ch.05/06)</text><ellipse cx="375.8416" cy="786.7818" fill="none" rx="11" ry="11" style="stroke:#222222;stroke-width:1;"/><ellipse cx="375.8416" cy="786.7818" fill="#222222" rx="6" ry="6" style="stroke:#222222;stroke-width:1;"/><line style="stroke:#181818;stroke-width:1;" x1="375.8416" x2="375.8416" y1="129.4799" y2="149.4799"/><polygon fill="#181818" points="371.8416,139.4799,375.8416,149.4799,379.8416,139.4799,375.8416,143.4799" style="stroke:#181818;stroke-width:1;stroke-linejoin:miter;stroke-miterlimit:10;"/><line style="stroke:#181818;stroke-width:1;" x1="375.8416" x2="375.8416" y1="185.8241" y2="205.8241"/><polygon fill="#181818" points="371.8416,195.8241,375.8416,205.8241,379.8416,195.8241,375.8416,199.8241" style="stroke:#181818;stroke-width:1;stroke-linejoin:miter;stroke-miterlimit:10;"/><line style="stroke:#181818;stroke-width:1;" x1="106.2559" x2="106.2559" y1="467.4405" y2="522.2005"/><polygon fill="#181818" points="102.2559,512.2005,106.2559,522.2005,110.2559,512.2005,106.2559,516.2005" style="stroke:#181818;stroke-width:1;stroke-linejoin:miter;stroke-miterlimit:10;"/><line style="stroke:#181818;stroke-width:1;" x1="635.4273" x2="635.4273" y1="445.2005" y2="480.2005"/><polygon fill="#181818" points="631.4273,470.2005,635.4273,480.2005,639.4273,470.2005,635.4273,474.2005" style="stroke:#181818;stroke-width:1;stroke-linejoin:miter;stroke-miterlimit:10;"/><line style="stroke:#181818;stroke-width:1;" x1="340.6922" x2="106.2559" y1="386.8564" y2="386.8564"/><line style="stroke:#181818;stroke-width:1;" x1="106.2559" x2="106.2559" y1="386.8564" y2="431.0964"/><polygon fill="#181818" points="102.2559,421.0964,106.2559,431.0964,110.2559,421.0964,106.2559,425.0964" style="stroke:#181818;stroke-width:1;stroke-linejoin:miter;stroke-miterlimit:10;"/><line style="stroke:#181818;stroke-width:1;" x1="410.9909" x2="635.4273" y1="386.8564" y2="386.8564"/><line style="stroke:#181818;stroke-width:1;" x1="635.4273" x2="635.4273" y1="386.8564" y2="408.8564"/><polygon fill="#181818" points="631.4273,398.8564,635.4273,408.8564,639.4273,398.8564,635.4273,402.8564" style="stroke:#181818;stroke-width:1;stroke-linejoin:miter;stroke-miterlimit:10;"/><line style="stroke:#181818;stroke-width:1;" x1="106.2559" x2="106.2559" y1="558.5446" y2="563.5446"/><line style="stroke:#181818;stroke-width:1;" x1="106.2559" x2="375.8416" y1="563.5446" y2="563.5446"/><line style="stroke:#181818;stroke-width:1;" x1="375.8416" x2="375.8416" y1="563.5446" y2="578.5446"/><polygon fill="#181818" points="371.8416,568.5446,375.8416,578.5446,379.8416,568.5446,375.8416,572.5446" style="stroke:#181818;stroke-width:1;stroke-linejoin:miter;stroke-miterlimit:10;"/><line style="stroke:#181818;stroke-width:1;" x1="375.8416" x2="375.8416" y1="354.8564" y2="374.8564"/><polygon fill="#181818" points="371.8416,364.8564,375.8416,374.8564,379.8416,364.8564,375.8416,368.8564" style="stroke:#181818;stroke-width:1;stroke-linejoin:miter;stroke-miterlimit:10;"/><line style="stroke:#181818;stroke-width:1;" x1="375.8416" x2="375.8416" y1="298.5123" y2="318.5123"/><polygon fill="#181818" points="371.8416,308.5123,375.8416,318.5123,379.8416,308.5123,375.8416,312.5123" style="stroke:#181818;stroke-width:1;stroke-linejoin:miter;stroke-miterlimit:10;"/><line style="stroke:#181818;stroke-width:1;" x1="418.2564" x2="763.7321" y1="590.5446" y2="590.5446"/><polygon fill="#181818" points="759.7321,442.1824,763.7321,432.1824,767.7321,442.1824,763.7321,438.1824" style="stroke:#181818;stroke-width:1;stroke-linejoin:miter;stroke-miterlimit:10;"/><line style="stroke:#181818;stroke-width:1;" x1="763.7321" x2="763.7321" y1="280.3402" y2="590.5446"/><line style="stroke:#181818;stroke-width:1;" x1="763.7321" x2="427.7939" y1="280.3402" y2="280.3402"/><polygon fill="#181818" points="437.7939,276.3402,427.7939,280.3402,437.7939,284.3402,433.7939,280.3402" style="stroke:#181818;stroke-width:1;stroke-linejoin:miter;stroke-miterlimit:10;"/><line style="stroke:#181818;stroke-width:1;" x1="375.8416" x2="375.8416" y1="242.1682" y2="262.1682"/><polygon fill="#181818" points="371.8416,252.1682,375.8416,262.1682,379.8416,252.1682,375.8416,256.1682" style="stroke:#181818;stroke-width:1;stroke-linejoin:miter;stroke-miterlimit:10;"/><line style="stroke:#181818;stroke-width:1;" x1="375.8416" x2="375.8416" y1="602.5446" y2="646.7495"/><polygon fill="#181818" points="371.8416,636.7495,375.8416,646.7495,379.8416,636.7495,375.8416,640.7495" style="stroke:#181818;stroke-width:1;stroke-linejoin:miter;stroke-miterlimit:10;"/><text fill="#000000" font-family="Inter" font-size="11" lengthAdjust="spacing" textLength="13.4529" x="379.8416" y="626.0265">no</text><line style="stroke:#181818;stroke-width:1;" x1="375.8416" x2="375.8416" y1="683.0936" y2="703.0936"/><polygon fill="#181818" points="371.8416,693.0936,375.8416,703.0936,379.8416,693.0936,375.8416,697.0936" style="stroke:#181818;stroke-width:1;stroke-linejoin:miter;stroke-miterlimit:10;"/><line style="stroke:#181818;stroke-width:1;" x1="375.8416" x2="375.8416" y1="755.7818" y2="775.7818"/><polygon fill="#181818" points="371.8416,765.7818,375.8416,775.7818,379.8416,765.7818,375.8416,769.7818" style="stroke:#181818;stroke-width:1;stroke-linejoin:miter;stroke-miterlimit:10;"/><?plantuml-src VLJ1RXCn4BtlLupKGpUYQT8W4h5LGRIKg58fLOMu85GvzZXhulMinaxIK5NY15TKyONz4hpEHWIekAqzR-RDp7lUNRZ0i2IU5SLaRgowDgu0pLI1WB6bYR3lLpL282278AcgZKK5voI5VIjaQU9jZGnC5lUpNRWK5aF00gOf-SWuPQRKLOZr7jHCdr66eu32xe5jQhJVRU7sn9XWZ6e_ypFZQi6YWecGiodJtAaJiiGGM3WVG-Z25agX5dCRtf0B5w92E7C1UIlkIw5eQTmKjB0UjoAlP30B4rR7V_7iIAad-k0n9B52Rb5zFHeE7wltseYAdFgdh4RzN3xzJy9sTN4m7FH7MUQ3u93jO1z7MXTR2i4O0F8bMjlLn1MgkDHolp_e76P58uw7Xsy_81858qqjNF3vECOOQnG1Yjh86JYy2Kb9uCCCDeCNv-lKjNZvEEhJQRWsvG6CXhmD-vST22Kwo5VeEp7skqohSNHOpdjm7ks0Rf7o0Ho5I6gcPKX7W2kKlG-28_Dz4hwBQegGUxIwQudgJejBHZmHrlQEwIQXcyCjOvYpkuxR2dZNkqgdDeDHpjcRHNHpHEAMgTzTd9n2Nc55vaiyJkXcmz8WkveZ-E7x_TfIJjWkERk2fZ6VSEXK6kIFgQlr8_4V-LDQu_RBQMR7Q4B87RMxqeW371INwsqQSgVCKV-7hpzZuteUiSko4IWzrlNkVA0wI-n6R_HSbd6YE0in9a4RMOnlHUc-S1HT8KlXNAHFRKcAkv3XUdEPpB6Zf9OuAjfV1Dp2Pfh6N6tsNPOhDWinYOHFuZNAMVfkMcuiygpN7yPQJPU_0000?></g></svg>