<svg xmlns="http://www.w3.org/2000/svg" xmlns:xlink="http://www.w3.org/1999/xlink" contentStyleType="text/css" data-diagram-type="ACTIVITY" height="412px" preserveAspectRatio="none" style="width:1082px;height:412px;" version="1.1" viewBox="0 0 1082 412" width="1082px" zoomAndPan="magnify"><?plantuml $version$?><defs/><g><rect fill="#FFFFCC" height="42.24" rx="2.5" ry="2.5" style="stroke:#FFDD88;stroke-width:3;" width="1051.5087" x="13" y="13"/><text fill="#000000" font-family="monospace" font-size="10" lengthAdjust="spacing" textLength="534" x="20" y="25.62">This&#160;syntax&#160;is&#160;deprecated,&#160;you&#160;must&#160;add&#160;&lt;&lt;#dcfce7&gt;&gt;&#160;at&#160;the&#160;end&#160;of&#160;the&#160;line,&#160;after&#160;the&#160;';'</text><text fill="#000000" font-family="monospace" font-size="10" lengthAdjust="spacing" textLength="534" x="20" y="49.24">This&#160;syntax&#160;is&#160;deprecated,&#160;you&#160;must&#160;add&#160;&lt;&lt;#fee2e2&gt;&gt;&#160;at&#160;the&#160;end&#160;of&#160;the&#160;line,&#160;after&#160;the&#160;';'</text><ellipse cx="711.9653" cy="72.24" fill="#222222" rx="10" ry="10" style="stroke:#222222;stroke-width:1;"/><rect fill="#DCFCE7" height="36.3441" rx="12.5" ry="12.5" style="stroke:#15803D;stroke-width:0.5;" width="178.6891" x="622.6208" y="102.24"/><text fill="#000000" font-family="Inter" font-size="12" lengthAdjust="spacing" textLength="158.6891" x="632.6208" y="125.0681">replay_to_configs(net, trace)</text><polygon fill="#FEF9C3" points="665.8537,158.5841,758.077,158.5841,770.077,170.5841,758.077,182.5841,665.8537,182.5841,653.8537,170.5841,665.8537,158.5841" style="stroke:#A16207;stroke-width:0.5;stroke-linejoin:miter;stroke-miterlimit:10;"/><text fill="#000000" font-family="Inter" font-size="11" lengthAdjust="spacing" textLength="92.2233" x="665.8537" y="174.8521">every event legal?</text><text fill="#000000" font-family="Inter" font-size="11" lengthAdjust="spacing" textLength="17.0829" x="636.7708" y="167.3611">yes</text><text fill="#000000" font-family="Inter" font-size="11" lengthAdjust="spacing" textLength="13.4529" x="770.077" y="167.3611">no</text><polygon fill="#FEF9C3" points="381.7547,198.5479,534.7746,198.5479,546.7746,210.5479,534.7746,222.5479,381.7547,222.5479,369.7547,210.5479,381.7547,198.5479" style="stroke:#A16207;stroke-width:0.5;stroke-linejoin:miter;stroke-miterlimit:10;"/><text fill="#000000" font-family="Inter" font-size="11" lengthAdjust="spacing" textLength="153.0199" x="381.7547" y="214.8158">every machine's stack empty?</text><text fill="#000000" font-family="Inter" font-size="11" lengthAdjust="spacing" textLength="17.0829" x="310.4762" y="192.343">yes</text><text fill="#000000" font-family="Inter" font-size="11" lengthAdjust="spacing" textLength="59.2786" x="310.4762" y="207.3249">well-nested</text><text fill="#000000" font-family="Inter" font-size="11" lengthAdjust="spacing" textLength="13.4529" x="546.7746" y="207.3249">no</text><polygon fill="#FEF9C3" points="179.2311,232.5479,305.8952,232.5479,317.8952,244.5479,305.8952,256.5479,179.2311,256.5479,167.2311,244.5479,179.2311,232.5479" style="stroke:#A16207;stroke-width:0.5;stroke-linejoin:miter;stroke-miterlimit:10;"/><text fill="#000000" font-family="Inter" font-size="11" lengthAdjust="spacing" textLength="126.6641" x="179.2311" y="248.8158">every machine terminal?</text><text fill="#000000" font-family="Inter" font-size="11" lengthAdjust="spacing" textLength="17.0829" x="150.1482" y="241.3249">yes</text><text fill="#000000" font-family="Inter" font-size="11" lengthAdjust="spacing" textLength="13.4529" x="317.8952" y="241.3249">no</text><rect fill="#DCFCE7" height="52.6882" rx="12.5" ry="12.5" style="stroke:#15803D;stroke-width:0.5;" width="201.5716" x="16" y="266.5479"/><text fill="#000000" font-family="Inter" font-size="12" font-weight="700" lengthAdjust="spacing" textLength="75.3952" x="26" y="289.376">CONFORM &#10003;</text><text fill="#000000" font-family="Inter" font-size="12" lengthAdjust="spacing" textLength="181.5716" x="26" y="305.7201">(legal &#8743; well-nested &#8743; complete)</text><ellipse cx="116.7858" cy="365.2361" fill="none" rx="11" ry="11" style="stroke:#222222;stroke-width:1;"/><ellipse cx="116.7858" cy="365.2361" fill="#222222" rx="6" ry="6" style="stroke:#222222;stroke-width:1;"/><rect fill="#DCFCE7" height="69.0323" rx="12.5" ry="12.5" style="stroke:#15803D;stroke-width:0.5;" width="261.5377" x="237.5716" y="266.5479"/><text fill="#000000" font-family="Inter" font-size="12" lengthAdjust="spacing" textLength="127.5969" x="247.5716" y="289.376">Incomplete(role, state)</text><text fill="#000000" font-family="Inter" font-size="12" lengthAdjust="spacing" textLength="142.681" x="247.5716" y="305.7201">&#8212; a prefix, not a full path</text><text fill="#000000" font-family="Inter" font-size="12" lengthAdjust="spacing" textLength="241.5377" x="247.5716" y="322.0642">(e.g. Deliberation convergence divergence)</text><ellipse cx="368.3404" cy="381.5802" fill="none" rx="11" ry="11" style="stroke:#222222;stroke-width:1;"/><ellipse cx="368.3404" cy="381.5802" fill="#222222" rx="6" ry="6" style="stroke:#222222;stroke-width:1;"/><rect fill="#DCFCE7" height="52.6882" rx="12.5" ry="12.5" style="stroke:#15803D;stroke-width:0.5;" width="289.7139" x="529.1093" y="232.5479"/><text fill="#000000" font-family="Inter" font-size="12" lengthAdjust="spacing" textLength="136.3449" x="539.1093" y="255.376">Unbalanced(role, depth)</text><text fill="#000000" font-family="Inter" font-size="12" lengthAdjust="spacing" textLength="269.7139" x="539.1093" y="271.7201">&#8212; unreturned call frames / popped empty stack</text><ellipse cx="673.9663" cy="331.2361" fill="none" rx="11" ry="11" style="stroke:#222222;stroke-width:1;"/><ellipse cx="673.9663" cy="331.2361" fill="#222222" rx="6" ry="6" style="stroke:#222222;stroke-width:1;"/><rect fill="#DCFCE7" height="52.6882" rx="12.5" ry="12.5" style="stroke:#15803D;stroke-width:0.5;" width="233.6855" x="828.8232" y="192.5841"/><text fill="#000000" font-family="Inter" font-size="12" lengthAdjust="spacing" textLength="213.6855" x="838.8232" y="215.4122">Step / UnknownRole / DepthExceeded</text><text fill="#000000" font-family="Inter" font-size="12" lengthAdjust="spacing" textLength="204.0375" x="838.8232" y="231.7563">&#8212; an illegal or out-of-protocol event</text><ellipse cx="945.666" cy="291.2723" fill="none" rx="11" ry="11" style="stroke:#222222;stroke-width:1;"/><ellipse cx="945.666" cy="291.2723" fill="#222222" rx="6" ry="6" style="stroke:#222222;stroke-width:1;"/><line style="stroke:#181818;stroke-width:1;" x1="711.9653" x2="711.9653" y1="82.24" y2="102.24"/><polygon fill="#181818" points="707.9653,92.24,711.9653,102.24,715.9653,92.24,711.9653,96.24" style="stroke:#181818;stroke-width:1;stroke-linejoin:miter;stroke-miterlimit:10;"/><line style="stroke:#181818;stroke-width:1;" x1="116.7858" x2="116.7858" y1="319.2361" y2="354.2361"/><polygon fill="#181818" points="112.7858,344.2361,116.7858,354.2361,120.7858,344.2361,116.7858,348.2361" style="stroke:#181818;stroke-width:1;stroke-linejoin:miter;stroke-miterlimit:10;"/><line style="stroke:#181818;stroke-width:1;" x1="368.3404" x2="368.3404" y1="335.5802" y2="370.5802"/><polygon fill="#181818" points="364.3404,360.5802,368.3404,370.5802,372.3404,360.5802,368.3404,364.5802" style="stroke:#181818;stroke-width:1;stroke-linejoin:miter;stroke-miterlimit:10;"/><line style="stroke:#181818;stroke-width:1;" x1="167.2311" x2="116.7858" y1="244.5479" y2="244.5479"/><line style="stroke:#181818;stroke-width:1;" x1="116.7858" x2="116.7858" y1="244.5479" y2="266.5479"/><polygon fill="#181818" points="112.7858,256.5479,116.7858,266.5479,120.7858,256.5479,116.7858,260.5479" style="stroke:#181818;stroke-width:1;stroke-linejoin:miter;stroke-miterlimit:10;"/><line style="stroke:#181818;stroke-width:1;" x1="317.8952" x2="368.3404" y1="244.5479" y2="244.5479"/><line style="stroke:#181818;stroke-width:1;" x1="368.3404" x2="368.3404" y1="244.5479" y2="266.5479"/><polygon fill="#181818" points="364.3404,256.5479,368.3404,266.5479,372.3404,256.5479,368.3404,260.5479" style="stroke:#181818;stroke-width:1;stroke-linejoin:miter;stroke-miterlimit:10;"/><line style="stroke:#181818;stroke-width:1;" x1="673.9663" x2="673.9663" y1="285.2361" y2="320.2361"/><polygon fill="#181818" points="669.9663,310.2361,673.9663,320.2361,677.9663,310.2361,673.9663,314.2361" style="stroke:#181818;stroke-width:1;stroke-linejoin:miter;stroke-miterlimit:10;"/><line style="stroke:#181818;stroke-width:1;" x1="369.7547" x2="242.5631" y1="210.5479" y2="210.5479"/><line style="stroke:#181818;stroke-width:1;" x1="242.5631" x2="242.5631" y1="210.5479" y2="232.5479"/><polygon fill="#181818" points="238.5631,222.5479,242.5631,232.5479,246.5631,222.5479,242.5631,226.5479" style="stroke:#181818;stroke-width:1;stroke-linejoin:miter;stroke-miterlimit:10;"/><line style="stroke:#181818;stroke-width:1;" x1="546.7746" x2="673.9663" y1="210.5479" y2="210.5479"/><line style="stroke:#181818;stroke-width:1;" x1="673.9663" x2="673.9663" y1="210.5479" y2="232.5479"/><polygon fill="#181818" points="669.9663,222.5479,673.9663,232.5479,677.9663,222.5479,673.9663,226.5479" style="stroke:#181818;stroke-width:1;stroke-linejoin:miter;stroke-miterlimit:10;"/><line style="stroke:#181818;stroke-width:1;" x1="945.666" x2="945.666" y1="245.2723" y2="280.2723"/><polygon fill="#181818" points="941.666,270.2723,945.666,280.2723,949.666,270.2723,945.666,274.2723" style="stroke:#181818;stroke-width:1;stroke-linejoin:miter;stroke-miterlimit:10;"/><line style="stroke:#181818;stroke-width:1;" x1="653.8537" x2="458.2647" y1="170.5841" y2="170.5841"/><line style="stroke:#181818;stroke-width:1;" x1="458.2647" x2="458.2647" y1="170.5841" y2="198.5479"/><polygon fill="#181818" points="454.2647,188.5479,458.2647,198.5479,462.2647,188.5479,458.2647,192.5479" style="stroke:#181818;stroke-width:1;stroke-linejoin:miter;stroke-miterlimit:10;"/><line style="stroke:#181818;stroke-width:1;" x1="770.077" x2="945.666" y1="170.5841" y2="170.5841"/><line style="stroke:#181818;stroke-width:1;" x1="945.666" x2="945.666" y1="170.5841" y2="192.5841"/><polygon fill="#181818" points="941.666,182.5841,945.666,192.5841,949.666,182.5841,945.666,186.5841" style="stroke:#181818;stroke-width:1;stroke-linejoin:miter;stroke-miterlimit:10;"/><line style="stroke:#181818;stroke-width:1;" x1="711.9653" x2="711.9653" y1="138.5841" y2="158.5841"/><polygon fill="#181818" points="707.9653,148.5841,711.9653,158.5841,715.9653,148.5841,711.9653,152.5841" style="stroke:#181818;stroke-width:1;stroke-linejoin:miter;stroke-miterlimit:10;"/><?plantuml-src VLDDRnCn4BtlhnY9GzCeIRy4XQ08GKkb7cXHKMz8bMEFDoRUiUMTjCsjH-vmvCx_wYzXlBk1LHknqgxidJVpdcUUTq0lK2zlT20RKgL8unHuWV8cn75KYK5fZP5p20Hc7Bj04_YiF38BscEf_5uBcfMIHQDY1n9-GyspX6RKKjIpCdWpAUgb8ochAfWhlInJM94v2JuauAIebX0Izr06hLfvFWl45wf2E2V6r8lN2sN2dQCIhF8rzYBlDRjRn-iFJtXU66qr7cz3XcGmTQY3bw_tZymMrAbJbVJXMLcBzeq--az2lxewU7MuVrmKDKkBYsd2wDNwXaCp2LVM0q8UvPPet7rRE0i3lCMq1laIjpr_jvidHJ1OOxrR0Fm3LKel7E5E3L9UBm6hoEi-_2lTeVTZmfhHvDmjsI1zhXmzvybFryFfS7XoUN5sUVK97d_z60wxwA3H1u_VVqEFfzdhK4KnJZvKYwqvn6Q9CZqOKFXBOH4FyN1wJfkSGGeUH_bCaj-X7Xz-WeAOqBhx4L0Gku9TUGzHyM8Z1oVb14xHkpacbUsRZIndBJ6RshZDSeieyRijdehRIBkckVBvOfXEcf4xi6WnMTYA4l8gaPnTAz5anHLOmnx44AFyRERIpgXbxdXRrZxdXl4BOvJyQrfIkACh8PNTQMRzUAyH3PgYwmc1y-qOn6vXnUDWnp453ZhuraMPiY5iwFu0?></g></svg>