<svg xmlns="http://www.w3.org/2000/svg" xmlns:xlink="http://www.w3.org/1999/xlink" contentStyleType="text/css" data-diagram-type="STATE" height="332px" preserveAspectRatio="none" style="width:900px;height:332px;" version="1.1" viewBox="0 0 900 332" width="900px" zoomAndPan="magnify"><?plantuml $version$?><defs/><g><g class="entity" data-qualified-name="Reflect" data-source-line="14" id="ent0001"><rect fill="#E0E7FF" height="50" rx="12.5" ry="12.5" style="stroke:#3730A3;stroke-width:0.5;" width="148.896" x="683.57" y="268.82"/><line style="stroke:#3730A3;stroke-width:0.5;" x1="683.57" x2="832.466" y1="297.8879" y2="297.8879"/><text fill="#1E1B4B" font-family="Inter" font-size="14" lengthAdjust="spacing" textLength="128.896" x="693.57" y="288.7859">&#956;L: O&#8594;R:reflect_req</text></g><g class="entity" data-qualified-name="Choice" id="ent0002"><polygon fill="#F1F1F1" points="620.01,6,632.01,18,620.01,30,608.01,18,620.01,6" style="stroke:#181818;stroke-width:0.5;stroke-linejoin:miter;stroke-miterlimit:10;"/></g><g class="entity" data-qualified-name="Act" data-source-line="19" id="ent0003"><rect fill="#E0E7FF" height="50" rx="12.5" ry="12.5" style="stroke:#3730A3;stroke-width:0.5;" width="185.2664" x="527.38" y="124.41"/><line style="stroke:#3730A3;stroke-width:0.5;" x1="527.38" x2="712.6464" y1="153.4779" y2="153.4779"/><text fill="#1E1B4B" font-family="Inter" font-size="14" lengthAdjust="spacing" textLength="165.2664" x="537.38" y="144.3759">O&#8594;T:act_req &#183; T&#8594;O:result</text></g><g class="entity" data-qualified-name="Converged" data-source-line="21" id="ent0004"><rect fill="#DCFCE7" height="50" rx="12.5" ry="12.5" style="stroke:#3730A3;stroke-width:0.5;" width="164.0284" x="7" y="124.41"/><line style="stroke:#3730A3;stroke-width:0.5;" x1="7" x2="171.0284" y1="153.4779" y2="153.4779"/><text fill="#1E1B4B" font-family="Inter" font-size="14" lengthAdjust="spacing" textLength="144.0284" x="17" y="144.3759">O&#8594;T:finish &#183; T&#8594;O:final</text></g><g class="start_entity" data-qualified-name=".start." data-source-line="13" id="ent0005"><ellipse cx="758.01" cy="149.41" fill="#222222" rx="10" ry="10" style="stroke:#222222;stroke-width:1;"/></g><g class="end_entity" data-qualified-name=".end." data-source-line="22" id="ent0011"><ellipse cx="89.01" cy="293.82" fill="none" rx="11" ry="11" style="stroke:#222222;stroke-width:1;"/><ellipse cx="89.01" cy="293.82" fill="#222222" rx="6" ry="6" style="stroke:#222222;stroke-width:1;"/></g><g class="entity" data-qualified-name="GMN13" data-source-line="25" id="ent0014"><path d="M205.93,109 L205.93,145.41 L171.28,149.41 L205.93,153.41 L205.93,189.8241 A0,0 0 0 0 205.93,189.8241 L492.1043,189.8241 A0,0 0 0 0 492.1043,189.8241 L492.1043,119 L482.1043,109 L205.93,109 A0,0 0 0 0 205.93,109" fill="#FEE2E2" style="stroke:#181818;stroke-width:0.5;"/><path d="M482.1043,109 L482.1043,119 L492.1043,119 L482.1043,109" fill="#FEE2E2" style="stroke:#181818;stroke-width:0.5;"/><text fill="#000000" font-family="Inter" font-size="13" lengthAdjust="spacing" textLength="265.1743" x="211.93" y="127.897">spec: Tool-Caller produces the final answer.</text><text fill="#000000" font-family="Inter" font-size="13" lengthAdjust="spacing" textLength="220.6204" x="211.93" y="145.603">text impl stops at R&#8594;O:converged &#8658;</text><text fill="#000000" font-family="Inter" font-size="13" lengthAdjust="spacing" textLength="243.6462" x="211.93" y="163.309">csm_validate_run reports Incomplete{T}</text><text fill="#000000" font-family="Inter" font-size="13" lengthAdjust="spacing" textLength="234.3122" x="211.93" y="181.0151">(the divergence the observer surfaces)</text></g><!--link *start* to Reflect--><g class="link" data-entity-1="ent0005" data-entity-2="ent0001" data-link-type="dependency" data-source-line="13" id="lnk6"><path d="M758.01,159.75 C758.01,181.53 758.01,231.26 758.01,263.34" fill="none" id="*start*-to-Reflect" style="stroke:#181818;stroke-width:1;"/><polygon fill="#181818" points="758.01,268.34,762.01,259.34,758.01,263.34,754.01,259.34,758.01,268.34" style="stroke:#181818;stroke-width:1;stroke-linejoin:miter;stroke-miterlimit:10;"/></g><!--link Reflect to Choice--><g class="link" data-entity-1="ent0001" data-entity-2="ent0002" data-link-type="dependency" data-source-line="15" id="lnk7"><path d="M772.4,268.35 C776.97,259.36 781.49,248.92 784.01,238.82 C798,182.83 815.53,158.58 786.01,109 C750.46,49.28 664.8539,27.7256 634.7939,21.7456" fill="none" id="Reflect-to-Choice" style="stroke:#181818;stroke-width:1;"/><polygon fill="#181818" points="629.89,20.77,637.9366,26.4491,634.7939,21.7456,639.4975,18.6029,629.89,20.77" style="stroke:#181818;stroke-width:1;stroke-linejoin:miter;stroke-miterlimit:10;"/><text fill="#000000" font-family="Inter" font-size="13" lengthAdjust="spacing" textLength="80.9627" x="803.09" y="154.807">R&#8594;O : verdict</text></g><!--link Choice to Act--><g class="link" data-entity-1="ent0002" data-entity-2="ent0003" data-link-type="dependency" data-source-line="17" id="lnk8"><path d="M620.01,30.48 C620.01,51.39 620.01,91.09 620.01,119.05" fill="none" id="Choice-to-Act" style="stroke:#181818;stroke-width:1;"/><polygon fill="#181818" points="620.01,124.05,624.01,115.05,620.01,119.05,616.01,115.05,620.01,124.05" style="stroke:#181818;stroke-width:1;stroke-linejoin:miter;stroke-miterlimit:10;"/><text fill="#000000" font-family="Inter" font-size="13" font-weight="700" lengthAdjust="spacing" textLength="57.4731" x="621.01" y="74.897">continue</text></g><!--link Choice to Converged--><g class="link" data-entity-1="ent0002" data-entity-2="ent0004" data-link-type="dependency" data-source-line="18" id="lnk9"><path d="M609.81,20.45 C561.7,27.45 353.08,59.35 188.01,109 C174.02,113.2 163.8828,116.7393 150.1328,122.1493" fill="none" id="Choice-to-Converged" style="stroke:#181818;stroke-width:1;"/><polygon fill="#181818" points="145.48,123.98,155.3196,124.407,150.1328,122.1493,152.3905,116.9625,145.48,123.98" style="stroke:#181818;stroke-width:1;stroke-linejoin:miter;stroke-miterlimit:10;"/><text fill="#000000" font-family="Inter" font-size="13" font-weight="700" lengthAdjust="spacing" textLength="68.471" x="376.78" y="74.897">converged</text></g><!--link Act to Reflect--><g class="link" data-entity-1="ent0003" data-entity-2="ent0001" data-link-type="dependency" data-source-line="20" id="lnk10"><path d="M627.43,174.89 C634.22,194.08 645.85,220.52 663.01,238.82 C674.04,250.58 683.8746,258.0167 697.8946,265.9967" fill="none" id="Act-to-Reflect" style="stroke:#181818;stroke-width:1;"/><polygon fill="#181818" points="702.24,268.47,696.3969,260.5416,697.8946,265.9967,692.4396,267.4943,702.24,268.47" style="stroke:#181818;stroke-width:1;stroke-linejoin:miter;stroke-miterlimit:10;"/><text fill="#000000" font-family="Inter" font-size="13" lengthAdjust="spacing" textLength="85.0591" x="664.01" y="234.717">loop back to L</text></g><!--link Converged to *end*--><g class="link" data-entity-1="ent0004" data-entity-2="ent0011" data-link-type="dependency" data-source-line="22" id="lnk12"><path d="M89.01,174.89 C89.01,206.54 89.01,255.25 89.01,277.59" fill="none" id="Converged-to-*end*" style="stroke:#181818;stroke-width:1;"/><polygon fill="#181818" points="89.01,282.59,93.01,273.59,89.01,277.59,85.01,273.59,89.01,282.59" style="stroke:#181818;stroke-width:1;stroke-linejoin:miter;stroke-miterlimit:10;"/></g><?plantuml-src NLFDRXCn4BxxAKRDeMsKXBP1YbWraKeG4b95KPGRGf5Zp-vQTUnbx4s0gbUuzsMuSE81U8W-2RC_IHPEbkVdcy_VV3w5DsZD6ab6urq2CKVmpdw5GiQ8v61dOWuICdIbSGW1dKOQQZ9RTA1oRnIEOCbT2qmjgkX9d09o4n8exw9n9GOuqoOmeihh0KllxN0khKKQWFM-E0TVLs-HigewDKvQymtFH_11McGc2QCsqrueCj6eQUQjRhgdnccJ-S41OPeHeXk0DlNLAPmIwf48zyOLakG6rbBTP-HBf-VUykn8qZ51GXSxLHfJMThubf_nNcuGtZcMf9CFkTH-Prm6gRG1kvae8yA307ZztwGUNk0aJQkC9vQoZOudumivvcWrh8rTukNwvLey2l6n_mc6mzbUOz70d_pvTPl0tVFtfqL2JMP5-Fa4P3XKjcVTFQ_rWmGMt7B79wkZpG6kJLzVDphFPj1BCNsbngBDL1WtZ9L0lxzVRR_VpSxR1UXzJNFZefPnHNQPo8Oe_Fu9oueAim-iSqsy6h3NwAObldz4Kg-xNXv43xV_eh9fJCYFeBM9QimZhPvMgSA9E4OgV9PN2ESPYaoMH_1fjoL5lC8hNaqeK2LTyq91NfUA7Lkvkfu7xACTqeZB8tw9O3Q5PJVu8e2CZV39GHTu_l74XIfiLblsk-R7hAXqG5XuYe7zfZptOyI7vICNdbLZZgPkFkiw8744GacfP2xdWhyeLA_v2m00?></g></svg>