<svg xmlns="http://www.w3.org/2000/svg" xmlns:xlink="http://www.w3.org/1999/xlink" contentStyleType="text/css" data-diagram-type="CLASS" height="704px" preserveAspectRatio="none" style="width:680px;height:704px;" version="1.1" viewBox="0 0 680 704" width="680px" zoomAndPan="magnify"><?plantuml $version$?><defs/><g><!--class LocalMachine--><g class="entity" data-qualified-name="LocalMachine" data-source-line="9" id="ent0001"><rect fill="#CCFBF1" height="181.4754" rx="2.5" ry="2.5" style="stroke:#181818;stroke-width:0.5;" width="285.993" x="64.36" y="172.14"/><ellipse cx="158.0687" cy="188.14" fill="#ADD1B2" rx="11" ry="11" style="stroke:#181818;stroke-width:1;"/><path d="M157.5375,195.0619 Q155.7875,195.0619 154.6468,194.3275 Q153.5218,193.5775 152.9593,192.2338 Q152.4125,190.8744 152.4125,189.0775 Q152.4125,187.0463 153.0687,185.5931 Q153.725,184.14 155.0062,183.3588 Q156.2875,182.5775 158.1625,182.5775 Q159.0531,182.5775 159.725,182.765 Q160.3968,182.9369 161.0843,183.2806 L160.2718,185.2963 Q159.6468,184.9838 159.1,184.8588 Q158.5687,184.7338 158.0843,184.7338 Q156.9125,184.7338 156.2093,185.265 Q155.5062,185.7963 155.2093,186.7494 Q154.9125,187.7025 154.9125,188.9681 Q154.9125,190.9838 155.6312,191.9525 Q156.35,192.9056 157.9437,192.9056 Q158.5375,192.9056 159.1625,192.7494 Q159.7875,192.5931 160.6156,192.2181 L160.6156,194.4369 Q159.8812,194.7494 159.0843,194.9056 Q158.3031,195.0619 157.5375,195.0619 Z " fill="#000000"/><text fill="#000000" font-family="Inter" font-size="14" lengthAdjust="spacing" textLength="90.0756" x="178.5687" y="193.572">LocalMachine</text><line style="stroke:#181818;stroke-width:0.5;" x1="65.36" x2="349.353" y1="204.14" y2="204.14"/><g data-visibility-modifier="PUBLIC_FIELD"><ellipse cx="75.36" cy="219.174" fill="none" rx="3" ry="3" style="stroke:#038048;stroke-width:1;"/></g><text fill="#000000" font-family="Inter" font-size="14" lengthAdjust="spacing" textLength="61.8378" x="84.36" y="223.1059">role: Role</text><g data-visibility-modifier="PUBLIC_FIELD"><ellipse cx="75.36" cy="238.2419" fill="none" rx="3" ry="3" style="stroke:#038048;stroke-width:1;"/></g><text fill="#000000" font-family="Inter" font-size="14" lengthAdjust="spacing" textLength="94.9756" x="84.36" y="242.1739">n_states: usize</text><g data-visibility-modifier="PUBLIC_FIELD"><ellipse cx="75.36" cy="257.3098" fill="none" rx="3" ry="3" style="stroke:#038048;stroke-width:1;"/></g><text fill="#000000" font-family="Inter" font-size="14" lengthAdjust="spacing" textLength="110.9356" x="84.36" y="261.2418">initial: LocalState</text><g data-visibility-modifier="PUBLIC_FIELD"><ellipse cx="75.36" cy="276.3777" fill="none" rx="3" ry="3" style="stroke:#038048;stroke-width:1;"/></g><text fill="#000000" font-family="Inter" font-size="14" lengthAdjust="spacing" textLength="153.0334" x="84.36" y="280.3097">edges: Vec&lt;LocalEdge&gt;</text><g data-visibility-modifier="PUBLIC_FIELD"><ellipse cx="75.36" cy="295.4456" fill="none" rx="3" ry="3" style="stroke:#038048;stroke-width:1;"/></g><text fill="#000000" font-family="Inter" font-size="14" lengthAdjust="spacing" textLength="212.2952" x="84.36" y="299.3776">terminals: BTreeSet&lt;LocalState&gt;</text><line style="stroke:#181818;stroke-width:1;" x1="65.36" x2="349.353" y1="307.4796" y2="307.4796"/><g data-visibility-modifier="PUBLIC_METHOD"><ellipse cx="75.36" cy="322.5135" fill="#84BE84" rx="3" ry="3" style="stroke:#038048;stroke-width:1;"/></g><text fill="#000000" font-family="Inter" font-size="14" lengthAdjust="spacing" textLength="259.993" x="84.36" y="326.4455">edges_from(state): Iterator&lt;LocalEdge&gt;</text><g data-visibility-modifier="PUBLIC_METHOD"><ellipse cx="75.36" cy="341.5815" fill="#84BE84" rx="3" ry="3" style="stroke:#038048;stroke-width:1;"/></g><text fill="#000000" font-family="Inter" font-size="14" lengthAdjust="spacing" textLength="149.6034" x="84.36" y="345.5134">is_terminal(state): bool</text></g><!--class LocalEdge--><g class="entity" data-qualified-name="LocalEdge" data-source-line="20" id="ent0002"><rect fill="#CCFBF1" height="116.2717" rx="2.5" ry="2.5" style="stroke:#181818;stroke-width:0.5;" width="133.0856" x="140.81" y="414.61"/><ellipse cx="171.1972" cy="430.61" fill="#ADD1B2" rx="11" ry="11" style="stroke:#181818;stroke-width:1;"/><path d="M170.666,437.5319 Q168.916,437.5319 167.7754,436.7975 Q166.6504,436.0475 166.0879,434.7038 Q165.541,433.3444 165.541,431.5475 Q165.541,429.5163 166.1972,428.0631 Q166.8535,426.61 168.1347,425.8288 Q169.416,425.0475 171.291,425.0475 Q172.1816,425.0475 172.8535,425.235 Q173.5254,425.4069 174.2129,425.7506 L173.4004,427.7663 Q172.7754,427.4538 172.2285,427.3288 Q171.6972,427.2038 171.2129,427.2038 Q170.041,427.2038 169.3379,427.735 Q168.6347,428.2663 168.3379,429.2194 Q168.041,430.1725 168.041,431.4381 Q168.041,433.4538 168.7597,434.4225 Q169.4785,435.3756 171.0722,435.3756 Q171.666,435.3756 172.291,435.2194 Q172.916,435.0631 173.7441,434.6881 L173.7441,436.9069 Q173.0097,437.2194 172.2129,437.3756 Q171.4316,437.5319 170.666,437.5319 Z " fill="#000000"/><text fill="#000000" font-family="Inter" font-size="14" lengthAdjust="spacing" textLength="66.8917" x="188.6166" y="436.042">LocalEdge</text><line style="stroke:#181818;stroke-width:0.5;" x1="141.81" x2="272.8956" y1="446.61" y2="446.61"/><g data-visibility-modifier="PUBLIC_FIELD"><ellipse cx="151.81" cy="461.644" fill="none" rx="3" ry="3" style="stroke:#038048;stroke-width:1;"/></g><text fill="#000000" font-family="Inter" font-size="14" lengthAdjust="spacing" textLength="107.0856" x="160.81" y="465.5759">from: LocalState</text><g data-visibility-modifier="PUBLIC_FIELD"><ellipse cx="151.81" cy="480.7119" fill="none" rx="3" ry="3" style="stroke:#038048;stroke-width:1;"/></g><text fill="#000000" font-family="Inter" font-size="14" lengthAdjust="spacing" textLength="89.2077" x="160.81" y="484.6439">action: Action</text><g data-visibility-modifier="PUBLIC_FIELD"><ellipse cx="151.81" cy="499.7798" fill="none" rx="3" ry="3" style="stroke:#038048;stroke-width:1;"/></g><text fill="#000000" font-family="Inter" font-size="14" lengthAdjust="spacing" textLength="88.4517" x="160.81" y="503.7118">to: LocalState</text><g data-visibility-modifier="PUBLIC_FIELD"><ellipse cx="151.81" cy="518.8477" fill="none" rx="3" ry="3" style="stroke:#038048;stroke-width:1;"/></g><text fill="#000000" font-family="Inter" font-size="14" lengthAdjust="spacing" textLength="98.1816" x="160.81" y="522.7797">kind: EdgeKind</text></g><!--class EdgeKind--><g class="entity" data-qualified-name="EdgeKind" data-source-line="27" id="ent0003"><rect fill="#EDE9FE" height="97.2038" rx="2.5" ry="2.5" style="stroke:#181818;stroke-width:0.5;" width="400.7084" x="7" y="591.89"/><ellipse cx="171.8843" cy="607.89" fill="#EB937F" rx="11" ry="11" style="stroke:#181818;stroke-width:1;"/><path d="M168.2437,614.39 L168.2437,602.2494 L175.9,602.2494 L175.9,604.3744 L170.6187,604.3744 L170.6187,607.0306 L175.6343,607.0306 L175.6343,609.1556 L170.6187,609.1556 L170.6187,612.265 L175.9,612.265 L175.9,614.39 L168.2437,614.39 Z " fill="#000000"/><text fill="#000000" font-family="Inter" font-size="14" lengthAdjust="spacing" textLength="62.4398" x="192.3843" y="613.322">EdgeKind</text><line style="stroke:#181818;stroke-width:0.5;" x1="8" x2="406.7084" y1="623.89" y2="623.89"/><text fill="#000000" font-family="Inter" font-size="14" lengthAdjust="spacing" textLength="52.2478" x="13" y="642.8559">Internal</text><text fill="#000000" font-family="Inter" font-size="14" font-style="italic" lengthAdjust="spacing" textLength="163.6454" x="148.9674" y="642.8559">(&#931;_int &#8212; stack unchanged)</text><text fill="#000000" font-family="Inter" font-size="14" lengthAdjust="spacing" textLength="197.3712" x="13" y="661.9239">Call{ return_state: LocalState }</text><text fill="#000000" font-family="Inter" font-size="14" font-style="italic" lengthAdjust="spacing" textLength="93.6876" x="217.6512" y="661.9239">(&#931;_call &#8212; push)</text><text fill="#000000" font-family="Inter" font-size="14" lengthAdjust="spacing" textLength="44.7438" x="13" y="680.9918">Return</text><text fill="#000000" font-family="Inter" font-size="14" font-style="italic" lengthAdjust="spacing" textLength="249.325" x="152.3834" y="680.9918">(&#931;_ret &#8212; pop; static `to` is a placeholder)</text></g><!--class RoleConfig--><g class="entity" data-qualified-name="RoleConfig" data-source-line="33" id="ent0004"><rect fill="#CCFBF1" height="86.1358" rx="2.5" ry="2.5" style="stroke:#181818;stroke-width:0.5;" width="352.0587" x="238.32" y="7"/><ellipse cx="374.2525" cy="23" fill="#ADD1B2" rx="11" ry="11" style="stroke:#181818;stroke-width:1;"/><path d="M373.7213,29.9219 Q371.9713,29.9219 370.8306,29.1875 Q369.7056,28.4375 369.1431,27.0938 Q368.5963,25.7344 368.5963,23.9375 Q368.5963,21.9063 369.2525,20.4531 Q369.9088,19 371.19,18.2188 Q372.4713,17.4375 374.3463,17.4375 Q375.2369,17.4375 375.9088,17.625 Q376.5806,17.7969 377.2681,18.1406 L376.4556,20.1563 Q375.8306,19.8438 375.2838,19.7188 Q374.7525,19.5938 374.2681,19.5938 Q373.0963,19.5938 372.3931,20.125 Q371.69,20.6563 371.3931,21.6094 Q371.0963,22.5625 371.0963,23.8281 Q371.0963,25.8438 371.815,26.8125 Q372.5338,27.7656 374.1275,27.7656 Q374.7213,27.7656 375.3463,27.6094 Q375.9713,27.4531 376.7994,27.0781 L376.7994,29.2969 Q376.065,29.6094 375.2681,29.7656 Q374.4869,29.9219 373.7213,29.9219 Z " fill="#000000"/><text fill="#000000" font-family="Inter" font-size="14" lengthAdjust="spacing" textLength="71.6937" x="394.7525" y="28.432">RoleConfig</text><line style="stroke:#181818;stroke-width:0.5;" x1="239.32" x2="589.3787" y1="39" y2="39"/><g data-visibility-modifier="PUBLIC_FIELD"><ellipse cx="249.32" cy="54.034" fill="none" rx="3" ry="3" style="stroke:#038048;stroke-width:1;"/></g><text fill="#000000" font-family="Inter" font-size="14" lengthAdjust="spacing" textLength="107.4916" x="258.32" y="57.9659">state: LocalState</text><line style="stroke:#181818;stroke-width:0.5;" x1="239.32" x2="589.3787" y1="66.0679" y2="66.0679"/><g data-visibility-modifier="PUBLIC_METHOD"><ellipse cx="249.32" cy="81.1019" fill="#84BE84" rx="3" ry="3" style="stroke:#038048;stroke-width:1;"/></g><text fill="#000000" font-family="Inter" font-size="14" lengthAdjust="spacing" textLength="147.7694" x="258.32" y="85.0339">stack: Vec&lt;LocalState&gt;</text><text fill="#000000" font-family="Inter" font-size="14" font-style="italic" lengthAdjust="spacing" textLength="167.3694" x="417.0094" y="85.0339">(pending return addresses)</text></g><g class="entity" data-qualified-name="GMN5" data-source-line="39" id="ent0006"><path d="M385.19,231.32 L385.19,294.438 A0,0 0 0 0 385.19,294.438 L665.5128,294.438 A0,0 0 0 0 665.5128,294.438 L665.5128,241.32 L655.5128,231.32 L513.01,231.32 L436.68,93.48 L505.01,231.32 L385.19,231.32 A0,0 0 0 0 385.19,231.32" fill="#FEFFDD" style="stroke:#181818;stroke-width:0.5;"/><path d="M655.5128,231.32 L655.5128,241.32 L665.5128,241.32 L655.5128,231.32" fill="#FEFFDD" style="stroke:#181818;stroke-width:0.5;"/><text fill="#000000" font-family="Inter" font-size="13" lengthAdjust="spacing" textLength="239.1857" x="391.19" y="250.217">call-free protocol &#8658; stack always empty</text><text fill="#000000" font-family="Inter" font-size="13" lengthAdjust="spacing" textLength="218.0217" x="391.19" y="267.923">&#8658; RoleConfig degenerates to `state`</text><text fill="#000000" font-family="Inter" font-size="13" lengthAdjust="spacing" textLength="259.3228" x="391.19" y="285.629">&#8658; byte-identical to the pre-pushdown CSM</text></g><!--reverse link LocalMachine to LocalEdge--><g class="link" data-entity-1="ent0001" data-entity-2="ent0002" data-link-type="composition" data-source-line="44" id="lnk8"><path codeLine="44" d="M207.35,365.84 C207.35,386.36 207.35,395.62 207.35,414.34" fill="none" id="LocalMachine-backto-LocalEdge" style="stroke:#181818;stroke-width:1;"/><polygon fill="#181818" points="207.35,353.84,203.35,359.84,207.35,365.84,211.35,359.84,207.35,353.84" style="stroke:#181818;stroke-width:1;stroke-linejoin:miter;stroke-miterlimit:10;"/><text fill="#000000" font-family="Inter" font-size="13" lengthAdjust="spacing" textLength="34.112" x="171.1787" y="402.7099">many</text></g><!--reverse link LocalEdge to EdgeKind--><g class="link" data-entity-1="ent0002" data-entity-2="ent0003" data-link-type="composition" data-source-line="45" id="lnk9"><path codeLine="45" d="M207.35,543.25 C207.35,562.89 207.35,572.62 207.35,591.43" fill="none" id="LocalEdge-backto-EdgeKind" style="stroke:#181818;stroke-width:1;"/><polygon fill="#181818" points="207.35,531.25,203.35,537.25,207.35,543.25,211.35,537.25,207.35,531.25" style="stroke:#181818;stroke-width:1;stroke-linejoin:miter;stroke-miterlimit:10;"/></g><!--link RoleConfig to LocalMachine--><g class="link" data-entity-1="ent0004" data-entity-2="ent0001" data-link-type="dependency" data-source-line="46" id="lnk10"><path codeLine="46" d="M372.71,93.48 C350.52,116.08 325.8333,141.2226 299.0433,168.5026" fill="none" id="RoleConfig-to-LocalMachine" style="stroke:#181818;stroke-width:1;stroke-dasharray:7,7;"/><polygon fill="#181818" points="295.54,172.07,304.7,168.4513,299.0433,168.5026,298.9921,162.846,295.54,172.07" style="stroke:#181818;stroke-width:1;stroke-linejoin:miter;stroke-miterlimit:10;"/><text fill="#000000" font-family="Inter" font-size="13" lengthAdjust="spacing" textLength="98.3191" x="342.49" y="138.037">configuration of</text></g><?plantuml-src TLJDRjGm4BxdAKRjeIrijk98sAq4Av0gA4BTYklkn9vih7Nio7QebgeIjzuHRy3xy10y2UCapMOBv90Vpymtttp-d1EuAGc4hMgbIQOLYb8P0ea1eRAIT0OVh41zrGKctTTRkU7NU7-lZ9p0jTMqiAPGcsbo0fzGKmYKGOys3uHw0iJfezSjLqA-0w7HUpXL9f0pgETUOw1pRgBdNnJZXdE6T1GQP-P58qgly6p2Z6Et5cwQUCQgqM45EOhjnjd6o8NLra5mQ3o7o8HHbgG26ntUMHC-OaLm6NkFuhv4QM-LsK21sbDIAab0LHrsK56La_D9qj4UQmF7GXHvyGBk4e3dZgbdhJ3nownyuB5y1erNNzibPLHG-AZlCeRZSfI6qpwJc0rINyG0KwmK2yJ1DpUEQ4bXjY-DAMaw0AmAPwlJjkTP1fTSYy6w9uZAhnv1XzJSMftS7umNymzdY-1FUQC8ofeCNhVFbh1zcXEtF1ji4zkGQQfX0Ov9qik2sYQNlH_WtzTCNPp--hbYry3lRp-0wOijD4QKQ3OapsRdAewuO1VTzURfTc1C2Uu7d6Yt5gXkVFbOVTtMmN-llfRXkr9Rluf4WXAm3dODoWD2hL5GQRKar-4EukuFpQ6wV_7i5yLsP8jkqtiIDHaPtTeD2YYb8-_93msDvMbp6uAjm1QZpWmTHqyBDXJKpWOhB0lnyBrN5FKjxdpdVSwDWH5jIHioqLha8LXOjypNVLw-2vJomJ6i1syZnqCPUr0QDURpPM2nl687I8ZqakJWB3rBKpYgqEoEzYPCzdQCuS578qRJwSNXcSpwFqN3BDcNFFqV?></g></svg>