<?xml version="1.0" encoding="UTF-8" standalone="no"?>
<!DOCTYPE svg PUBLIC "-//W3C//DTD SVG 1.1//EN"
 "http://www.w3.org/Graphics/SVG/1.1/DTD/svg11.dtd">
<!-- Generated by graphviz version 14.1.5 (0)
 -->
<!-- Title: epsilon Pages: 1 -->
<svg width="659pt" height="429pt"
 viewBox="0.00 0.00 659.00 429.00" xmlns="http://www.w3.org/2000/svg" xmlns:xlink="http://www.w3.org/1999/xlink">
<g id="graph0" class="graph" transform="scale(1 1) rotate(0) translate(4 424.62)">
<title>epsilon</title>
<g id="clust1" class="cluster">
<title>cluster_close</title>
<path fill="#eef2ff" stroke="#3730a3" d="M105.25,-96.62C105.25,-96.62 315.25,-96.62 315.25,-96.62 321.25,-96.62 327.25,-102.62 327.25,-108.62 327.25,-108.62 327.25,-333.87 327.25,-333.87 327.25,-339.87 321.25,-345.87 315.25,-345.87 315.25,-345.87 105.25,-345.87 105.25,-345.87 99.25,-345.87 93.25,-339.87 93.25,-333.87 93.25,-333.87 93.25,-108.62 93.25,-108.62 93.25,-102.62 99.25,-96.62 105.25,-96.62"/>
<text xml:space="preserve" text-anchor="middle" x="210.25" y="-331.42" font-family="Inter" font-size="11.00">advance_role(machine, state, stack, action)</text>
</g>
<!-- ev -->
<g id="node1" class="node">
<title>ev</title>
<polygon fill="#e2e8f0" stroke="#334155" points="345.62,-420.62 200.88,-420.62 196.88,-416.62 196.88,-384.62 341.62,-384.62 345.62,-388.62 345.62,-420.62"/>
<polyline fill="none" stroke="#334155" points="341.62,-416.62 196.88,-416.62"/>
<polyline fill="none" stroke="#334155" points="341.62,-416.62 341.62,-384.62"/>
<polyline fill="none" stroke="#334155" points="341.62,-416.62 345.62,-420.62"/>
<text xml:space="preserve" text-anchor="middle" x="271.25" y="-400.25" font-family="Inter" font-size="10.00" fill="#0f172a">event &#160;e = (from → label → to)</text>
</g>
<!-- c1 -->
<g id="node2" class="node">
<title>c1</title>
<path fill="#ede9fe" stroke="#6d28d9" d="M307.38,-314.12C307.38,-314.12 235.12,-314.12 235.12,-314.12 229.12,-314.12 223.12,-308.12 223.12,-302.12 223.12,-302.12 223.12,-289.62 223.12,-289.62 223.12,-283.62 229.12,-277.62 235.12,-277.62 235.12,-277.62 307.38,-277.62 307.38,-277.62 313.38,-277.62 319.38,-283.62 319.38,-289.62 319.38,-289.62 319.38,-302.12 319.38,-302.12 319.38,-308.12 313.38,-314.12 307.38,-314.12"/>
<text xml:space="preserve" text-anchor="middle" x="271.25" y="-300.62" font-family="Inter" font-size="10.00" fill="#4c1d95">ε&#45;close</text>
<text xml:space="preserve" text-anchor="middle" x="271.25" y="-286.37" font-family="Inter" font-size="10.00" fill="#4c1d95">chase Call/Return</text>
</g>
<!-- ev&#45;&gt;c1 -->
<g id="edge3" class="edge">
<title>ev&#45;&gt;c1</title>
<path fill="none" stroke="#475569" d="M271.25,-384.32C271.25,-367.59 271.25,-342.03 271.25,-322.85"/>
<polygon fill="#475569" stroke="#475569" points="273.7,-323.06 271.25,-316.06 268.8,-323.06 273.7,-323.06"/>
<text xml:space="preserve" text-anchor="middle" x="331.62" y="-358.07" font-family="Inter" font-size="9.00">sender: Send / receiver: Recv</text>
</g>
<!-- step -->
<g id="node3" class="node">
<title>step</title>
<path fill="#d1fae5" stroke="#047857" d="M304.88,-221.75C304.88,-221.75 181.62,-221.75 181.62,-221.75 175.62,-221.75 169.62,-215.75 169.62,-209.75 169.62,-209.75 169.62,-197.25 169.62,-197.25 169.62,-191.25 175.62,-185.25 181.62,-185.25 181.62,-185.25 304.88,-185.25 304.88,-185.25 310.88,-185.25 316.88,-191.25 316.88,-197.25 316.88,-197.25 316.88,-209.75 316.88,-209.75 316.88,-215.75 310.88,-221.75 304.88,-221.75"/>
<text xml:space="preserve" text-anchor="middle" x="243.25" y="-208.25" font-family="Inter" font-size="10.00" fill="#065f46">check_step</text>
<text xml:space="preserve" text-anchor="middle" x="243.25" y="-194" font-family="Inter" font-size="10.00" fill="#065f46">take matching Internal edge</text>
</g>
<!-- c1&#45;&gt;step -->
<g id="edge1" class="edge">
<title>c1&#45;&gt;step</title>
<path fill="none" stroke="#475569" d="M265.85,-277.45C261.69,-264.03 255.89,-245.28 251.2,-230.15"/>
<polygon fill="#475569" stroke="#475569" points="253.59,-229.58 249.18,-223.62 248.91,-231.03 253.59,-229.58"/>
</g>
<!-- push -->
<g id="node5" class="node">
<title>push</title>
<path fill="#ede9fe" stroke="#6d28d9" d="M501.25,-228.87C501.25,-228.87 347.25,-228.87 347.25,-228.87 341.25,-228.87 335.25,-222.87 335.25,-216.87 335.25,-216.87 335.25,-190.12 335.25,-190.12 335.25,-184.12 341.25,-178.12 347.25,-178.12 347.25,-178.12 501.25,-178.12 501.25,-178.12 507.25,-178.12 513.25,-184.12 513.25,-190.12 513.25,-190.12 513.25,-216.87 513.25,-216.87 513.25,-222.87 507.25,-228.87 501.25,-228.87"/>
<text xml:space="preserve" text-anchor="middle" x="424.25" y="-215.37" font-family="Inter" font-size="10.00" fill="#4c1d95">Call{return_state}</text>
<text xml:space="preserve" text-anchor="middle" x="424.25" y="-201.12" font-family="Inter" font-size="10.00" fill="#4c1d95">|stack| ≥ MAX ? → DepthExceeded</text>
<text xml:space="preserve" text-anchor="middle" x="424.25" y="-186.87" font-family="Inter" font-size="10.00" fill="#4c1d95">else push return_state</text>
</g>
<!-- c1&#45;&gt;push -->
<g id="edge4" class="edge">
<title>c1&#45;&gt;push</title>
<path fill="none" stroke="#7c3aed" stroke-dasharray="5,2" d="M301.11,-277.23C322.17,-264.8 350.84,-247.86 375.22,-233.46"/>
<polygon fill="#7c3aed" stroke="#7c3aed" points="376.22,-235.71 381,-230.04 373.73,-231.49 376.22,-235.71"/>
<text xml:space="preserve" text-anchor="middle" x="354.59" y="-251.07" font-family="Inter" font-size="9.00">ε</text>
</g>
<!-- pop -->
<g id="node6" class="node">
<title>pop</title>
<path fill="#fae8ff" stroke="#a21caf" d="M639.38,-221.75C639.38,-221.75 543.12,-221.75 543.12,-221.75 537.12,-221.75 531.12,-215.75 531.12,-209.75 531.12,-209.75 531.12,-197.25 531.12,-197.25 531.12,-191.25 537.12,-185.25 543.12,-185.25 543.12,-185.25 639.38,-185.25 639.38,-185.25 645.38,-185.25 651.38,-191.25 651.38,-197.25 651.38,-197.25 651.38,-209.75 651.38,-209.75 651.38,-215.75 645.38,-221.75 639.38,-221.75"/>
<text xml:space="preserve" text-anchor="middle" x="591.25" y="-208.25" font-family="Inter" font-size="10.00" fill="#701a75">Return</text>
<text xml:space="preserve" text-anchor="middle" x="591.25" y="-194" font-family="Inter" font-size="10.00" fill="#701a75">pop() or → Unbalanced</text>
</g>
<!-- c1&#45;&gt;pop -->
<g id="edge5" class="edge">
<title>c1&#45;&gt;pop</title>
<path fill="none" stroke="#c026d3" stroke-dasharray="5,2" d="M319.7,-283.39C370.5,-271.06 452.48,-250.33 522.25,-228.87 526.42,-227.59 530.72,-226.21 535.03,-224.78"/>
<polygon fill="#c026d3" stroke="#c026d3" points="535.5,-227.21 541.35,-222.66 533.94,-222.57 535.5,-227.21"/>
<text xml:space="preserve" text-anchor="middle" x="456.06" y="-251.07" font-family="Inter" font-size="9.00">ε</text>
</g>
<!-- c2 -->
<g id="node4" class="node">
<title>c2</title>
<path fill="#ede9fe" stroke="#6d28d9" d="M304.5,-141.12C304.5,-141.12 182,-141.12 182,-141.12 176,-141.12 170,-135.12 170,-129.12 170,-129.12 170,-116.62 170,-116.62 170,-110.62 176,-104.62 182,-104.62 182,-104.62 304.5,-104.62 304.5,-104.62 310.5,-104.62 316.5,-110.62 316.5,-116.62 316.5,-116.62 316.5,-129.12 316.5,-129.12 316.5,-135.12 310.5,-141.12 304.5,-141.12"/>
<text xml:space="preserve" text-anchor="middle" x="243.25" y="-127.62" font-family="Inter" font-size="10.00" fill="#4c1d95">ε&#45;close again</text>
<text xml:space="preserve" text-anchor="middle" x="243.25" y="-113.37" font-family="Inter" font-size="10.00" fill="#4c1d95">consume trailing boundaries</text>
</g>
<!-- step&#45;&gt;c2 -->
<g id="edge2" class="edge">
<title>step&#45;&gt;c2</title>
<path fill="none" stroke="#475569" d="M243.25,-185.05C243.25,-174.74 243.25,-161.48 243.25,-149.95"/>
<polygon fill="#475569" stroke="#475569" points="245.7,-150.06 243.25,-143.06 240.8,-150.06 245.7,-150.06"/>
</g>
<!-- accept -->
<g id="node7" class="node">
<title>accept</title>
<path fill="#dcfce7" stroke="#15803d" d="M176.5,-53.31C176.5,-53.31 12,-53.31 12,-53.31 6,-53.31 0,-47.31 0,-41.31 0,-41.31 0,-14.56 0,-14.56 0,-8.56 6,-2.56 12,-2.56 12,-2.56 176.5,-2.56 176.5,-2.56 182.5,-2.56 188.5,-8.56 188.5,-14.56 188.5,-14.56 188.5,-41.31 188.5,-41.31 188.5,-47.31 182.5,-53.31 176.5,-53.31"/>
<text xml:space="preserve" text-anchor="middle" x="94.25" y="-39.81" font-family="Inter" font-size="10.00" fill="#14532d">ACCEPT ✓</text>
<text xml:space="preserve" text-anchor="middle" x="94.25" y="-25.56" font-family="Inter" font-size="10.00" fill="#14532d">∀ roles: terminal(state) ∧ stack empty</text>
<text xml:space="preserve" text-anchor="middle" x="94.25" y="-11.31" font-family="Inter" font-size="10.00" fill="#14532d">(well&#45;nested / Dyck&#45;balanced)</text>
</g>
<!-- c2&#45;&gt;accept -->
<g id="edge8" class="edge">
<title>c2&#45;&gt;accept</title>
<path fill="none" stroke="#16a34a" d="M214.87,-104.17C194.05,-91.18 165.29,-73.25 141.08,-58.15"/>
<polygon fill="#16a34a" stroke="#16a34a" points="142.58,-56.19 135.34,-54.57 139.98,-60.35 142.58,-56.19"/>
<text xml:space="preserve" text-anchor="middle" x="239.73" y="-78.07" font-family="Inter" font-size="9.00">trace exhausted, all clean</text>
</g>
<!-- reject -->
<g id="node8" class="node">
<title>reject</title>
<path fill="#fee2e2" stroke="#b91c1c" d="M576.28,-24.08C576.28,-24.08 576.28,-31.79 576.28,-31.79 576.28,-35.65 572.46,-40.08 568.65,-40.66 568.65,-40.66 475.52,-54.72 475.52,-54.72 471.7,-55.3 464.03,-55.87 460.18,-55.87 460.18,-55.87 322.32,-55.87 322.32,-55.87 318.47,-55.87 310.8,-55.3 306.98,-54.72 306.98,-54.72 213.85,-40.66 213.85,-40.66 210.04,-40.08 206.22,-35.65 206.22,-31.79 206.22,-31.79 206.22,-24.08 206.22,-24.08 206.22,-20.22 210.04,-15.79 213.85,-15.21 213.85,-15.21 306.98,-1.15 306.98,-1.15 310.8,-0.58 318.47,0 322.32,0 322.32,0 460.18,0 460.18,0 464.03,0 471.7,-0.58 475.52,-1.15 475.52,-1.15 568.65,-15.21 568.65,-15.21 572.46,-15.79 576.28,-20.22 576.28,-24.08"/>
<text xml:space="preserve" text-anchor="middle" x="391.25" y="-32.69" font-family="Inter" font-size="10.00" fill="#7f1d1d">REJECT ✗</text>
<text xml:space="preserve" text-anchor="middle" x="391.25" y="-18.44" font-family="Inter" font-size="10.00" fill="#7f1d1d">Step · Incomplete · Unbalanced · DepthExceeded</text>
</g>
<!-- c2&#45;&gt;reject -->
<g id="edge9" class="edge">
<title>c2&#45;&gt;reject</title>
<path fill="none" stroke="#dc2626" d="M271.44,-104.17C290.97,-91.91 317.52,-75.23 340.67,-60.7"/>
<polygon fill="#dc2626" stroke="#dc2626" points="341.83,-62.86 346.45,-57.07 339.22,-58.71 341.83,-62.86"/>
<text xml:space="preserve" text-anchor="middle" x="339.38" y="-78.07" font-family="Inter" font-size="9.00">any failure</text>
</g>
<!-- push&#45;&gt;c1 -->
<g id="edge6" class="edge">
<title>push&#45;&gt;c1</title>
<path fill="none" stroke="#7c3aed" stroke-dasharray="5,2" d="M400.08,-229.18C388.96,-239.56 375.16,-251.17 361.25,-259.62 350.66,-266.06 338.7,-271.71 327.03,-276.5"/>
<polygon fill="#7c3aed" stroke="#7c3aed" points="326.43,-274.1 320.83,-278.96 328.24,-278.66 326.43,-274.1"/>
</g>
<!-- pop&#45;&gt;c1 -->
<g id="edge7" class="edge">
<title>pop&#45;&gt;c1</title>
<path fill="none" stroke="#c026d3" stroke-dasharray="5,2" d="M555.9,-222.13C530.41,-234.21 494.89,-249.77 462.25,-259.62 417.95,-273 366.25,-282.16 327.83,-287.79"/>
<polygon fill="#c026d3" stroke="#c026d3" points="327.91,-285.3 321.33,-288.72 328.61,-290.15 327.91,-285.3"/>
</g>
</g>
</svg>
