<?xml version="1.0" encoding="UTF-8" standalone="no"?>
<!DOCTYPE svg PUBLIC "-//W3C//DTD SVG 1.1//EN"
 "http://www.w3.org/Graphics/SVG/1.1/DTD/svg11.dtd">
<!-- Generated by graphviz version 14.1.5 (0)
 -->
<!-- Title: globaltype Pages: 1 -->
<svg width="907pt" height="227pt"
 viewBox="0.00 0.00 907.00 227.00" xmlns="http://www.w3.org/2000/svg" xmlns:xlink="http://www.w3.org/1999/xlink">
<g id="graph0" class="graph" transform="scale(1 1) rotate(0) translate(4 222.5)">
<title>globaltype</title>
<!-- root -->
<g id="node1" class="node">
<title>root</title>
<polygon fill="#e0e7ff" stroke="#312e81" points="483.75,-218.5 399.75,-218.5 395.75,-214.5 395.75,-182.5 479.75,-182.5 483.75,-186.5 483.75,-218.5"/>
<polyline fill="none" stroke="#312e81" points="479.75,-214.5 395.75,-214.5"/>
<polyline fill="none" stroke="#312e81" points="479.75,-214.5 479.75,-182.5"/>
<polyline fill="none" stroke="#312e81" points="479.75,-214.5 483.75,-218.5"/>
<text xml:space="preserve" text-anchor="middle" x="439.75" y="-197.93" font-family="Inter" font-size="11.00" fill="#1e1b4b">GlobalType &#160;G</text>
</g>
<!-- inter -->
<g id="node2" class="node">
<title>inter</title>
<path fill="#e0e7ff" stroke="#3730a3" d="M119.88,-138.62C119.88,-138.62 17.62,-138.62 17.62,-138.62 11.62,-138.62 5.62,-132.62 5.62,-126.62 5.62,-126.62 5.62,-95.38 5.62,-95.38 5.62,-89.38 11.62,-83.38 17.62,-83.38 17.62,-83.38 119.88,-83.38 119.88,-83.38 125.88,-83.38 131.88,-89.38 131.88,-95.38 131.88,-95.38 131.88,-126.62 131.88,-126.62 131.88,-132.62 125.88,-138.62 119.88,-138.62"/>
<text xml:space="preserve" text-anchor="middle" x="68.75" y="-124.17" font-family="Inter" font-size="11.00" fill="#1e1b4b">Interaction</text>
<text xml:space="preserve" text-anchor="middle" x="68.75" y="-108.42" font-family="Inter" font-size="11.00" fill="#1e1b4b">{from, to, label, cont}</text>
<text xml:space="preserve" text-anchor="middle" x="68.75" y="-92.67" font-family="Inter" font-size="11.00" fill="#1e1b4b">from → to : ℓ . cont</text>
</g>
<!-- root&#45;&gt;inter -->
<g id="edge1" class="edge">
<title>root&#45;&gt;inter</title>
<path fill="none" stroke="#475569" d="M395.27,-195.42C336.05,-189.14 228.58,-174.74 140.75,-146.5 136.81,-145.23 132.81,-143.79 128.82,-142.24"/>
<polygon fill="#475569" stroke="#475569" points="129.97,-140.06 122.57,-139.69 128.12,-144.6 129.97,-140.06"/>
</g>
<!-- choice -->
<g id="node3" class="node">
<title>choice</title>
<path fill="#e0e7ff" stroke="#3730a3" d="M257.88,-138.62C257.88,-138.62 161.62,-138.62 161.62,-138.62 155.62,-138.62 149.62,-132.62 149.62,-126.62 149.62,-126.62 149.62,-95.38 149.62,-95.38 149.62,-89.38 155.62,-83.38 161.62,-83.38 161.62,-83.38 257.88,-83.38 257.88,-83.38 263.88,-83.38 269.88,-89.38 269.88,-95.38 269.88,-95.38 269.88,-126.62 269.88,-126.62 269.88,-132.62 263.88,-138.62 257.88,-138.62"/>
<text xml:space="preserve" text-anchor="middle" x="209.75" y="-124.17" font-family="Inter" font-size="11.00" fill="#1e1b4b">Choice</text>
<text xml:space="preserve" text-anchor="middle" x="209.75" y="-108.42" font-family="Inter" font-size="11.00" fill="#1e1b4b">{from, to, branches}</text>
<text xml:space="preserve" text-anchor="middle" x="209.75" y="-92.67" font-family="Inter" font-size="11.00" fill="#1e1b4b">from → to { ℓᵢ : Gᵢ }</text>
</g>
<!-- root&#45;&gt;choice -->
<g id="edge2" class="edge">
<title>root&#45;&gt;choice</title>
<path fill="none" stroke="#475569" d="M395.39,-186.8C362.7,-176.98 317.39,-162.42 278.75,-146.5 275.7,-145.24 272.6,-143.91 269.49,-142.53"/>
<polygon fill="#475569" stroke="#475569" points="270.51,-140.3 263.12,-139.63 268.48,-144.76 270.51,-140.3"/>
</g>
<!-- rec -->
<g id="node4" class="node">
<title>rec</title>
<path fill="#e0e7ff" stroke="#3730a3" d="M367.62,-130.75C367.62,-130.75 299.88,-130.75 299.88,-130.75 293.88,-130.75 287.88,-124.75 287.88,-118.75 287.88,-118.75 287.88,-103.25 287.88,-103.25 287.88,-97.25 293.88,-91.25 299.88,-91.25 299.88,-91.25 367.62,-91.25 367.62,-91.25 373.62,-91.25 379.62,-97.25 379.62,-103.25 379.62,-103.25 379.62,-118.75 379.62,-118.75 379.62,-124.75 373.62,-130.75 367.62,-130.75"/>
<text xml:space="preserve" text-anchor="middle" x="333.75" y="-116.3" font-family="Inter" font-size="11.00" fill="#1e1b4b">Rec {var, body}</text>
<text xml:space="preserve" text-anchor="middle" x="333.75" y="-100.55" font-family="Inter" font-size="11.00" fill="#1e1b4b">μ t. body</text>
</g>
<!-- root&#45;&gt;rec -->
<g id="edge3" class="edge">
<title>root&#45;&gt;rec</title>
<path fill="none" stroke="#475569" d="M418.55,-182C402.63,-168.86 380.62,-150.69 363.01,-136.16"/>
<polygon fill="#475569" stroke="#475569" points="364.87,-134.51 357.91,-131.95 361.75,-138.29 364.87,-134.51"/>
</g>
<!-- var -->
<g id="node5" class="node">
<title>var</title>
<path fill="#e0e7ff" stroke="#3730a3" d="M470.25,-130.75C470.25,-130.75 409.25,-130.75 409.25,-130.75 403.25,-130.75 397.25,-124.75 397.25,-118.75 397.25,-118.75 397.25,-103.25 397.25,-103.25 397.25,-97.25 403.25,-91.25 409.25,-91.25 409.25,-91.25 470.25,-91.25 470.25,-91.25 476.25,-91.25 482.25,-97.25 482.25,-103.25 482.25,-103.25 482.25,-118.75 482.25,-118.75 482.25,-124.75 476.25,-130.75 470.25,-130.75"/>
<text xml:space="preserve" text-anchor="middle" x="439.75" y="-116.3" font-family="Inter" font-size="11.00" fill="#1e1b4b">Var {var}</text>
<text xml:space="preserve" text-anchor="middle" x="439.75" y="-100.55" font-family="Inter" font-size="11.00" fill="#1e1b4b">t &#160;(back&#45;edge)</text>
</g>
<!-- root&#45;&gt;var -->
<g id="edge4" class="edge">
<title>root&#45;&gt;var</title>
<path fill="none" stroke="#475569" d="M439.75,-182.21C439.75,-170 439.75,-153.39 439.75,-139.39"/>
<polygon fill="#475569" stroke="#475569" points="442.2,-139.59 439.75,-132.59 437.3,-139.59 442.2,-139.59"/>
</g>
<!-- end -->
<g id="node6" class="node">
<title>end</title>
<path fill="#dcfce7" stroke="#15803d" d="M542.75,-130.75C542.75,-130.75 512.75,-130.75 512.75,-130.75 506.75,-130.75 500.75,-124.75 500.75,-118.75 500.75,-118.75 500.75,-103.25 500.75,-103.25 500.75,-97.25 506.75,-91.25 512.75,-91.25 512.75,-91.25 542.75,-91.25 542.75,-91.25 548.75,-91.25 554.75,-97.25 554.75,-103.25 554.75,-103.25 554.75,-118.75 554.75,-118.75 554.75,-124.75 548.75,-130.75 542.75,-130.75"/>
<text xml:space="preserve" text-anchor="middle" x="527.75" y="-116.3" font-family="Inter" font-size="11.00" fill="#14532d">End</text>
<text xml:space="preserve" text-anchor="middle" x="527.75" y="-100.55" font-family="Inter" font-size="11.00" fill="#14532d">end</text>
</g>
<!-- root&#45;&gt;end -->
<g id="edge5" class="edge">
<title>root&#45;&gt;end</title>
<path fill="none" stroke="#475569" d="M457.14,-182.21C470.11,-169.31 488.03,-151.5 502.57,-137.04"/>
<polygon fill="#475569" stroke="#475569" points="504.26,-138.81 507.49,-132.14 500.8,-135.34 504.26,-138.81"/>
</g>
<!-- gcall -->
<g id="node7" class="node">
<title>gcall</title>
<path fill="#ede9fe" stroke="#6d28d9" d="M718.62,-146.5C718.62,-146.5 584.88,-146.5 584.88,-146.5 578.88,-146.5 572.88,-140.5 572.88,-134.5 572.88,-134.5 572.88,-87.5 572.88,-87.5 572.88,-81.5 578.88,-75.5 584.88,-75.5 584.88,-75.5 718.62,-75.5 718.62,-75.5 724.62,-75.5 730.62,-81.5 730.62,-87.5 730.62,-87.5 730.62,-134.5 730.62,-134.5 730.62,-140.5 724.62,-146.5 718.62,-146.5"/>
<text xml:space="preserve" text-anchor="middle" x="651.75" y="-132.05" font-family="Inter" font-size="11.00" fill="#4c1d95">GlobalCall</text>
<text xml:space="preserve" text-anchor="middle" x="651.75" y="-116.3" font-family="Inter" font-size="11.00" fill="#4c1d95">{callee, subst, cont}</text>
<text xml:space="preserve" text-anchor="middle" x="651.75" y="-100.55" font-family="Inter" font-size="11.00" fill="#4c1d95">call C[σ] . cont</text>
<text xml:space="preserve" text-anchor="middle" x="651.75" y="-84.8" font-family="Inter" font-size="11.00" fill="#4c1d95">— push (Σ_call) / pop (Σ_ret)</text>
</g>
<!-- root&#45;&gt;gcall -->
<g id="edge6" class="edge">
<title>root&#45;&gt;gcall</title>
<path fill="none" stroke="#475569" d="M482.14,-182C505.88,-172.21 536.37,-159.62 564.94,-147.83"/>
<polygon fill="#475569" stroke="#475569" points="565.61,-150.2 571.14,-145.27 563.74,-145.68 565.61,-150.2"/>
</g>
<!-- gbox -->
<g id="node8" class="node">
<title>gbox</title>
<path fill="#ede9fe" stroke="#6d28d9" d="M886.5,-146.5C886.5,-146.5 761,-146.5 761,-146.5 755,-146.5 749,-140.5 749,-134.5 749,-134.5 749,-87.5 749,-87.5 749,-81.5 755,-75.5 761,-75.5 761,-75.5 886.5,-75.5 886.5,-75.5 892.5,-75.5 898.5,-81.5 898.5,-87.5 898.5,-87.5 898.5,-134.5 898.5,-134.5 898.5,-140.5 892.5,-146.5 886.5,-146.5"/>
<text xml:space="preserve" text-anchor="middle" x="823.75" y="-132.05" font-family="Inter" font-size="11.00" fill="#4c1d95">GlobalBox</text>
<text xml:space="preserve" text-anchor="middle" x="823.75" y="-116.3" font-family="Inter" font-size="11.00" fill="#4c1d95">{enter, body, exit, cont}</text>
<text xml:space="preserve" text-anchor="middle" x="823.75" y="-100.55" font-family="Inter" font-size="11.00" fill="#4c1d95">box⟨e⟩{ body }⟨x⟩ . cont</text>
<text xml:space="preserve" text-anchor="middle" x="823.75" y="-84.8" font-family="Inter" font-size="11.00" fill="#4c1d95">— push (enter) / pop (exit)</text>
</g>
<!-- root&#45;&gt;gbox -->
<g id="edge7" class="edge">
<title>root&#45;&gt;gbox</title>
<path fill="none" stroke="#475569" d="M484.15,-194.68C543.31,-187.58 650.86,-172.28 739.75,-146.5 740.13,-146.39 740.51,-146.28 740.89,-146.17"/>
<polygon fill="#475569" stroke="#475569" points="741.53,-148.53 747.48,-144.11 740.07,-143.86 741.53,-148.53"/>
</g>
<!-- i_cont -->
<g id="node9" class="node">
<title>i_cont</title>
<polygon fill="#e2e8f0" stroke="#334155" points="131.5,-37.75 0,-37.75 0,-1.75 137.5,-1.75 137.5,-31.75 131.5,-37.75"/>
<polyline fill="none" stroke="#334155" points="131.5,-37.75 131.5,-31.75"/>
<polyline fill="none" stroke="#334155" points="137.5,-31.75 131.5,-31.75"/>
<text xml:space="preserve" text-anchor="middle" x="68.75" y="-17.18" font-family="Inter" font-size="11.00" fill="#0f172a">cont : Box&lt;GlobalType&gt;</text>
</g>
<!-- inter&#45;&gt;i_cont -->
<g id="edge8" class="edge">
<title>inter&#45;&gt;i_cont</title>
<path fill="none" stroke="#475569" stroke-dasharray="1,5" d="M68.75,-83.22C68.75,-71.6 68.75,-58.05 68.75,-46.54"/>
<polygon fill="#475569" stroke="#475569" points="71.2,-46.72 68.75,-39.72 66.3,-46.72 71.2,-46.72"/>
</g>
<!-- g_cont -->
<g id="node10" class="node">
<title>g_cont</title>
<polygon fill="#fae8ff" stroke="#a21caf" points="817,-39.5 652.5,-39.5 652.5,0 823,0 823,-33.5 817,-39.5"/>
<polyline fill="none" stroke="#a21caf" points="817,-39.5 817,-33.5"/>
<polyline fill="none" stroke="#a21caf" points="823,-33.5 817,-33.5"/>
<text xml:space="preserve" text-anchor="middle" x="737.75" y="-25.05" font-family="Inter" font-size="11.00" fill="#701a75">cont = RETURN continuation</text>
<text xml:space="preserve" text-anchor="middle" x="737.75" y="-9.3" font-family="Inter" font-size="11.00" fill="#701a75">(what Rec/Var cannot express)</text>
</g>
<!-- gcall&#45;&gt;g_cont -->
<g id="edge9" class="edge">
<title>gcall&#45;&gt;g_cont</title>
<path fill="none" stroke="#475569" stroke-dasharray="1,5" d="M685.25,-75.24C694.67,-65.46 704.74,-55.01 713.51,-45.9"/>
<polygon fill="#475569" stroke="#475569" points="715.21,-47.67 718.31,-40.93 711.68,-44.27 715.21,-47.67"/>
</g>
<!-- gbox&#45;&gt;g_cont -->
<g id="edge10" class="edge">
<title>gbox&#45;&gt;g_cont</title>
<path fill="none" stroke="#475569" stroke-dasharray="1,5" d="M790.25,-75.24C780.83,-65.46 770.76,-55.01 761.99,-45.9"/>
<polygon fill="#475569" stroke="#475569" points="763.82,-44.27 757.19,-40.93 760.29,-47.67 763.82,-44.27"/>
</g>
</g>
</svg>
