<?xml version="1.0" encoding="UTF-8" standalone="no"?>
<!DOCTYPE svg PUBLIC "-//W3C//DTD SVG 1.1//EN"
 "http://www.w3.org/Graphics/SVG/1.1/DTD/svg11.dtd">
<!-- Generated by graphviz version 14.1.5 (0)
 -->
<!-- Title: localtype Pages: 1 -->
<svg width="1290pt" height="195pt"
 viewBox="0.00 0.00 1290.00 195.00" xmlns="http://www.w3.org/2000/svg" xmlns:xlink="http://www.w3.org/1999/xlink">
<g id="graph0" class="graph" transform="scale(1 1) rotate(0) translate(4 191)">
<title>localtype</title>
<!-- root -->
<g id="node1" class="node">
<title>root</title>
<polygon fill="#ccfbf1" stroke="#0f766e" points="774.62,-187 677.88,-187 673.88,-183 673.88,-151 770.62,-151 774.62,-155 774.62,-187"/>
<polyline fill="none" stroke="#0f766e" points="770.62,-183 673.88,-183"/>
<polyline fill="none" stroke="#0f766e" points="770.62,-183 770.62,-151"/>
<polyline fill="none" stroke="#0f766e" points="770.62,-183 774.62,-187"/>
<text xml:space="preserve" text-anchor="middle" x="724.25" y="-166.43" font-family="Inter" font-size="11.00" fill="#134e4a">LocalType &#160;G ↾ r</text>
</g>
<!-- send -->
<g id="node2" class="node">
<title>send</title>
<path fill="#d1fae5" stroke="#047857" d="M169.88,-115C169.88,-115 70.62,-115 70.62,-115 64.62,-115 58.62,-109 58.62,-103 58.62,-103 58.62,-87.5 58.62,-87.5 58.62,-81.5 64.62,-75.5 70.62,-75.5 70.62,-75.5 169.88,-75.5 169.88,-75.5 175.88,-75.5 181.88,-81.5 181.88,-87.5 181.88,-87.5 181.88,-103 181.88,-103 181.88,-109 175.88,-115 169.88,-115"/>
<text xml:space="preserve" text-anchor="middle" x="120.25" y="-100.55" font-family="Inter" font-size="11.00" fill="#065f46">Send {to, label, cont}</text>
<text xml:space="preserve" text-anchor="middle" x="120.25" y="-84.8" font-family="Inter" font-size="11.00" fill="#065f46">!to⟨ℓ⟩ . cont</text>
</g>
<!-- root&#45;&gt;send -->
<g id="edge1" class="edge">
<title>root&#45;&gt;send</title>
<path fill="none" stroke="#475569" d="M673.48,-164.61C580.7,-158 377.72,-141.68 208.25,-115 202.42,-114.08 196.38,-113.03 190.34,-111.89"/>
<polygon fill="#475569" stroke="#475569" points="190.94,-109.51 183.6,-110.59 190.01,-114.32 190.94,-109.51"/>
</g>
<!-- sel -->
<g id="node3" class="node">
<title>sel</title>
<path fill="#d1fae5" stroke="#047857" d="M367.38,-115C367.38,-115 229.12,-115 229.12,-115 223.12,-115 217.12,-109 217.12,-103 217.12,-103 217.12,-87.5 217.12,-87.5 217.12,-81.5 223.12,-75.5 229.12,-75.5 229.12,-75.5 367.38,-75.5 367.38,-75.5 373.38,-75.5 379.38,-81.5 379.38,-87.5 379.38,-87.5 379.38,-103 379.38,-103 379.38,-109 373.38,-115 367.38,-115"/>
<text xml:space="preserve" text-anchor="middle" x="298.25" y="-100.55" font-family="Inter" font-size="11.00" fill="#065f46">Select {to, branches}</text>
<text xml:space="preserve" text-anchor="middle" x="298.25" y="-84.8" font-family="Inter" font-size="11.00" fill="#065f46">⊕to{ ℓᵢ : Lᵢ } &#160;(internal choice)</text>
</g>
<!-- root&#45;&gt;sel -->
<g id="edge2" class="edge">
<title>root&#45;&gt;sel</title>
<path fill="none" stroke="#475569" d="M673.62,-159.85C610.34,-149.62 498.72,-131.4 403.25,-115 398.22,-114.14 393.06,-113.24 387.84,-112.33"/>
<polygon fill="#475569" stroke="#475569" points="388.44,-109.95 381.12,-111.15 387.59,-114.77 388.44,-109.95"/>
</g>
<!-- recv -->
<g id="node4" class="node">
<title>recv</title>
<path fill="#e0f2fe" stroke="#075985" d="M536.25,-115C536.25,-115 424.25,-115 424.25,-115 418.25,-115 412.25,-109 412.25,-103 412.25,-103 412.25,-87.5 412.25,-87.5 412.25,-81.5 418.25,-75.5 424.25,-75.5 424.25,-75.5 536.25,-75.5 536.25,-75.5 542.25,-75.5 548.25,-81.5 548.25,-87.5 548.25,-87.5 548.25,-103 548.25,-103 548.25,-109 542.25,-115 536.25,-115"/>
<text xml:space="preserve" text-anchor="middle" x="480.25" y="-100.55" font-family="Inter" font-size="11.00" fill="#0c4a6e">Recv {from, label, cont}</text>
<text xml:space="preserve" text-anchor="middle" x="480.25" y="-84.8" font-family="Inter" font-size="11.00" fill="#0c4a6e">?from⟨ℓ⟩ . cont</text>
</g>
<!-- root&#45;&gt;recv -->
<g id="edge3" class="edge">
<title>root&#45;&gt;recv</title>
<path fill="none" stroke="#475569" d="M673.4,-153.05C638.71,-142.85 592.24,-129.18 553.56,-117.81"/>
<polygon fill="#475569" stroke="#475569" points="554.3,-115.47 546.89,-115.85 552.91,-120.17 554.3,-115.47"/>
</g>
<!-- branch -->
<g id="node5" class="node">
<title>branch</title>
<path fill="#e0f2fe" stroke="#075985" d="M732.62,-115C732.62,-115 577.88,-115 577.88,-115 571.88,-115 565.88,-109 565.88,-103 565.88,-103 565.88,-87.5 565.88,-87.5 565.88,-81.5 571.88,-75.5 577.88,-75.5 577.88,-75.5 732.62,-75.5 732.62,-75.5 738.62,-75.5 744.62,-81.5 744.62,-87.5 744.62,-87.5 744.62,-103 744.62,-103 744.62,-109 738.62,-115 732.62,-115"/>
<text xml:space="preserve" text-anchor="middle" x="655.25" y="-100.55" font-family="Inter" font-size="11.00" fill="#0c4a6e">Branch {from, branches}</text>
<text xml:space="preserve" text-anchor="middle" x="655.25" y="-84.8" font-family="Inter" font-size="11.00" fill="#0c4a6e">&amp;from{ ℓᵢ : Lᵢ } &#160;(external choice)</text>
</g>
<!-- root&#45;&gt;branch -->
<g id="edge4" class="edge">
<title>root&#45;&gt;branch</title>
<path fill="none" stroke="#475569" d="M707.55,-150.63C699.17,-141.92 688.87,-131.21 679.63,-121.6"/>
<polygon fill="#475569" stroke="#475569" points="681.41,-119.92 674.79,-116.57 677.88,-123.31 681.41,-119.92"/>
</g>
<!-- rec -->
<g id="node6" class="node">
<title>rec</title>
<path fill="#e0e7ff" stroke="#3730a3" d="M811.75,-115C811.75,-115 774.75,-115 774.75,-115 768.75,-115 762.75,-109 762.75,-103 762.75,-103 762.75,-87.5 762.75,-87.5 762.75,-81.5 768.75,-75.5 774.75,-75.5 774.75,-75.5 811.75,-75.5 811.75,-75.5 817.75,-75.5 823.75,-81.5 823.75,-87.5 823.75,-87.5 823.75,-103 823.75,-103 823.75,-109 817.75,-115 811.75,-115"/>
<text xml:space="preserve" text-anchor="middle" x="793.25" y="-100.55" font-family="Inter" font-size="11.00" fill="#1e1b4b">Rec / Var</text>
<text xml:space="preserve" text-anchor="middle" x="793.25" y="-84.8" font-family="Inter" font-size="11.00" fill="#1e1b4b">μ t. … / t</text>
</g>
<!-- root&#45;&gt;rec -->
<g id="edge5" class="edge">
<title>root&#45;&gt;rec</title>
<path fill="none" stroke="#475569" d="M740.95,-150.63C749.33,-141.92 759.63,-131.21 768.87,-121.6"/>
<polygon fill="#475569" stroke="#475569" points="770.62,-123.31 773.71,-116.57 767.09,-119.92 770.62,-123.31"/>
</g>
<!-- lcall -->
<g id="node7" class="node">
<title>lcall</title>
<path fill="#ede9fe" stroke="#6d28d9" d="M994.88,-115C994.88,-115 853.62,-115 853.62,-115 847.62,-115 841.62,-109 841.62,-103 841.62,-103 841.62,-87.5 841.62,-87.5 841.62,-81.5 847.62,-75.5 853.62,-75.5 853.62,-75.5 994.88,-75.5 994.88,-75.5 1000.88,-75.5 1006.88,-81.5 1006.88,-87.5 1006.88,-87.5 1006.88,-103 1006.88,-103 1006.88,-109 1000.88,-115 994.88,-115"/>
<text xml:space="preserve" text-anchor="middle" x="924.25" y="-100.55" font-family="Inter" font-size="11.00" fill="#4c1d95">LocalCall {callee, subst, cont}</text>
<text xml:space="preserve" text-anchor="middle" x="924.25" y="-84.8" font-family="Inter" font-size="11.00" fill="#4c1d95">call C[σ] . cont</text>
</g>
<!-- root&#45;&gt;lcall -->
<g id="edge6" class="edge">
<title>root&#45;&gt;lcall</title>
<path fill="none" stroke="#475569" d="M772.92,-150.54C799.98,-140.83 833.91,-128.66 862.79,-118.3"/>
<polygon fill="#475569" stroke="#475569" points="863.6,-120.61 869.36,-115.94 861.94,-116 863.6,-120.61"/>
</g>
<!-- lbox -->
<g id="node8" class="node">
<title>lbox</title>
<path fill="#ede9fe" stroke="#6d28d9" d="M1198,-115C1198,-115 1036.5,-115 1036.5,-115 1030.5,-115 1024.5,-109 1024.5,-103 1024.5,-103 1024.5,-87.5 1024.5,-87.5 1024.5,-81.5 1030.5,-75.5 1036.5,-75.5 1036.5,-75.5 1198,-75.5 1198,-75.5 1204,-75.5 1210,-81.5 1210,-87.5 1210,-87.5 1210,-103 1210,-103 1210,-109 1204,-115 1198,-115"/>
<text xml:space="preserve" text-anchor="middle" x="1117.25" y="-100.55" font-family="Inter" font-size="11.00" fill="#4c1d95">LocalBox {enter, body, exit, cont}</text>
<text xml:space="preserve" text-anchor="middle" x="1117.25" y="-84.8" font-family="Inter" font-size="11.00" fill="#4c1d95">box⟨e⟩{…}⟨x⟩ . cont</text>
</g>
<!-- root&#45;&gt;lbox -->
<g id="edge7" class="edge">
<title>root&#45;&gt;lbox</title>
<path fill="none" stroke="#475569" d="M774.9,-158.87C831.44,-148.66 925.89,-131.57 1016.09,-115.03"/>
<polygon fill="#475569" stroke="#475569" points="1016.31,-117.48 1022.76,-113.8 1015.43,-112.66 1016.31,-117.48"/>
</g>
<!-- end -->
<g id="node9" class="node">
<title>end</title>
<path fill="#dcfce7" stroke="#15803d" d="M1270.25,-115C1270.25,-115 1240.25,-115 1240.25,-115 1234.25,-115 1228.25,-109 1228.25,-103 1228.25,-103 1228.25,-87.5 1228.25,-87.5 1228.25,-81.5 1234.25,-75.5 1240.25,-75.5 1240.25,-75.5 1270.25,-75.5 1270.25,-75.5 1276.25,-75.5 1282.25,-81.5 1282.25,-87.5 1282.25,-87.5 1282.25,-103 1282.25,-103 1282.25,-109 1276.25,-115 1270.25,-115"/>
<text xml:space="preserve" text-anchor="middle" x="1255.25" y="-100.55" font-family="Inter" font-size="11.00" fill="#14532d">End</text>
<text xml:space="preserve" text-anchor="middle" x="1255.25" y="-84.8" font-family="Inter" font-size="11.00" fill="#14532d">end</text>
</g>
<!-- root&#45;&gt;end -->
<g id="edge8" class="edge">
<title>root&#45;&gt;end</title>
<path fill="none" stroke="#475569" d="M775,-168.72C866.05,-168.67 1062.26,-162.43 1219.25,-115 1219.52,-114.92 1219.78,-114.84 1220.05,-114.75"/>
<polygon fill="#475569" stroke="#475569" points="1220.67,-117.14 1226.36,-112.39 1218.95,-112.55 1220.67,-117.14"/>
</g>
<!-- p1 -->
<g id="node10" class="node">
<title>p1</title>
<polygon fill="#e2e8f0" stroke="#334155" points="182.5,-37.75 0,-37.75 0,-1.75 188.5,-1.75 188.5,-31.75 182.5,-37.75"/>
<polyline fill="none" stroke="#334155" points="182.5,-37.75 182.5,-31.75"/>
<polyline fill="none" stroke="#334155" points="188.5,-31.75 182.5,-31.75"/>
<text xml:space="preserve" text-anchor="middle" x="94.25" y="-17.18" font-family="Inter" font-size="11.00" fill="#0f172a">= project(Interaction) onto sender</text>
</g>
<!-- send&#45;&gt;p1 -->
<g id="edge9" class="edge">
<title>send&#45;&gt;p1</title>
<path fill="none" stroke="#475569" stroke-dasharray="1,5" d="M113.55,-75.32C110.38,-66.35 106.55,-55.51 103.13,-45.86"/>
<polygon fill="#475569" stroke="#475569" points="105.54,-45.31 100.89,-39.53 100.92,-46.95 105.54,-45.31"/>
</g>
<!-- p3 -->
<g id="node12" class="node">
<title>p3</title>
<polygon fill="#e2e8f0" stroke="#334155" points="367.62,-37.75 206.88,-37.75 206.88,-1.75 373.62,-1.75 373.62,-31.75 367.62,-37.75"/>
<polyline fill="none" stroke="#334155" points="367.62,-37.75 367.62,-31.75"/>
<polyline fill="none" stroke="#334155" points="373.62,-31.75 367.62,-31.75"/>
<text xml:space="preserve" text-anchor="middle" x="290.25" y="-17.18" font-family="Inter" font-size="11.00" fill="#0f172a">= project(Choice) onto sender</text>
</g>
<!-- sel&#45;&gt;p3 -->
<g id="edge11" class="edge">
<title>sel&#45;&gt;p3</title>
<path fill="none" stroke="#475569" stroke-dasharray="1,5" d="M296.19,-75.32C295.23,-66.53 294.08,-55.94 293.05,-46.44"/>
<polygon fill="#475569" stroke="#475569" points="295.5,-46.3 292.3,-39.61 290.62,-46.83 295.5,-46.3"/>
</g>
<!-- p2 -->
<g id="node11" class="node">
<title>p2</title>
<polygon fill="#e2e8f0" stroke="#334155" points="579.12,-37.75 391.38,-37.75 391.38,-1.75 585.12,-1.75 585.12,-31.75 579.12,-37.75"/>
<polyline fill="none" stroke="#334155" points="579.12,-37.75 579.12,-31.75"/>
<polyline fill="none" stroke="#334155" points="585.12,-31.75 579.12,-31.75"/>
<text xml:space="preserve" text-anchor="middle" x="488.25" y="-17.18" font-family="Inter" font-size="11.00" fill="#0f172a">= project(Interaction) onto receiver</text>
</g>
<!-- recv&#45;&gt;p2 -->
<g id="edge10" class="edge">
<title>recv&#45;&gt;p2</title>
<path fill="none" stroke="#475569" stroke-dasharray="1,5" d="M482.31,-75.32C483.27,-66.53 484.42,-55.94 485.45,-46.44"/>
<polygon fill="#475569" stroke="#475569" points="487.88,-46.83 486.2,-39.61 483,-46.3 487.88,-46.83"/>
</g>
<!-- p4 -->
<g id="node13" class="node">
<title>p4</title>
<polygon fill="#e2e8f0" stroke="#334155" points="769.25,-39.5 603.25,-39.5 603.25,0 775.25,0 775.25,-33.5 769.25,-39.5"/>
<polyline fill="none" stroke="#334155" points="769.25,-39.5 769.25,-33.5"/>
<polyline fill="none" stroke="#334155" points="775.25,-33.5 769.25,-33.5"/>
<text xml:space="preserve" text-anchor="middle" x="689.25" y="-25.05" font-family="Inter" font-size="11.00" fill="#0f172a">= project(Choice) onto receiver</text>
<text xml:space="preserve" text-anchor="middle" x="689.25" y="-9.3" font-family="Inter" font-size="11.00" fill="#0f172a">OR merged bystander</text>
</g>
<!-- branch&#45;&gt;p4 -->
<g id="edge12" class="edge">
<title>branch&#45;&gt;p4</title>
<path fill="none" stroke="#475569" stroke-dasharray="1,5" d="M664.01,-75.32C667.94,-66.82 672.65,-56.63 676.94,-47.37"/>
<polygon fill="#475569" stroke="#475569" points="679.05,-48.62 679.77,-41.24 674.61,-46.57 679.05,-48.62"/>
</g>
</g>
</svg>
