<svg xmlns="http://www.w3.org/2000/svg" xmlns:xlink="http://www.w3.org/1999/xlink" contentStyleType="text/css" data-diagram-type="STATE" height="922px" preserveAspectRatio="none" style="width:504px;height:922px;" version="1.1" viewBox="0 0 504 922" width="504px" zoomAndPan="magnify"><?plantuml $version$?><defs/><g><g class="entity" data-qualified-name="s0" data-source-line="15" id="ent0001"><rect fill="#E2E8F0" height="58.1358" rx="12.5" ry="12.5" style="stroke:#334155;stroke-width:0.5;" width="56.0079" x="69.48" y="87"/><line style="stroke:#334155;stroke-width:0.5;" x1="69.48" x2="125.4879" y1="116.0679" y2="116.0679"/><text fill="#0F172A" font-family="Inter" font-size="14" lengthAdjust="spacing" textLength="14.7139" x="90.127" y="106.9659">s0</text><text fill="#0F172A" font-family="Inter" font-size="14" lengthAdjust="spacing" textLength="36.0079" x="74.48" y="136.0339">initial</text></g><g class="entity" data-qualified-name="box" data-source-line="18" id="ent0002"><rect fill="#E2E8F0" height="77.2038" rx="12.5" ry="12.5" style="stroke:#334155;stroke-width:0.5;" width="180.9714" x="7" y="353.14"/><line style="stroke:#334155;stroke-width:0.5;" x1="7" x2="187.9714" y1="382.2079" y2="382.2079"/><text fill="#0F172A" font-family="Inter" font-size="14" lengthAdjust="spacing" textLength="24.4859" x="85.2427" y="373.1059">box</text><text fill="#0F172A" font-family="Inter" font-size="14" lengthAdjust="spacing" textLength="103.8796" x="12" y="402.1739">callee box entry</text><text fill="#0F172A" font-family="Inter" font-size="14" lengthAdjust="spacing" textLength="160.9714" x="12" y="421.2418">(compiled once &#183; reused)</text></g><g class="entity" data-qualified-name="s3" data-source-line="23" id="ent0003"><rect fill="#E2E8F0" height="58.1358" rx="12.5" ry="12.5" style="stroke:#334155;stroke-width:0.5;" width="75.5518" x="59.71" y="767.34"/><line style="stroke:#334155;stroke-width:0.5;" x1="59.71" x2="135.2618" y1="796.4079" y2="796.4079"/><text fill="#0F172A" font-family="Inter" font-size="14" lengthAdjust="spacing" textLength="14.7139" x="90.1289" y="787.3059">s3</text><text fill="#0F172A" font-family="Inter" font-size="14" lengthAdjust="spacing" textLength="55.5518" x="64.71" y="816.3739">terminal</text></g><g class="start_entity" data-qualified-name=".start." data-source-line="14" id="ent0004"><ellipse cx="97.49" cy="16" fill="#222222" rx="10" ry="10" style="stroke:#222222;stroke-width:1;"/></g><g class="entity" data-qualified-name="s1" data-source-line="16" id="ent0006"><rect fill="#E2E8F0" height="50" rx="12.5" ry="12.5" style="stroke:#334155;stroke-width:0.5;" width="50" x="72.49" y="224.14"/><line style="stroke:#334155;stroke-width:0.5;" x1="72.49" x2="122.49" y1="253.2079" y2="253.2079"/><text fill="#0F172A" font-family="Inter" font-size="14" lengthAdjust="spacing" textLength="14.7139" x="90.133" y="244.1059">s1</text></g><g class="entity" data-qualified-name="box2" data-source-line="19" id="ent0009"><rect fill="#E2E8F0" height="50" rx="12.5" ry="12.5" style="stroke:#334155;stroke-width:0.5;" width="52.4939" x="71.24" y="509.34"/><line style="stroke:#334155;stroke-width:0.5;" x1="71.24" x2="123.7339" y1="538.4079" y2="538.4079"/><text fill="#0F172A" font-family="Inter" font-size="14" lengthAdjust="spacing" textLength="32.4939" x="81.24" y="529.3059">box2</text></g><g class="entity" data-qualified-name="s2" data-source-line="20" id="ent0011"><rect fill="#E2E8F0" height="50" rx="12.5" ry="12.5" style="stroke:#334155;stroke-width:0.5;" width="50" x="72.49" y="638.34"/><line style="stroke:#334155;stroke-width:0.5;" x1="72.49" x2="122.49" y1="667.4079" y2="667.4079"/><text fill="#0F172A" font-family="Inter" font-size="14" lengthAdjust="spacing" textLength="14.7139" x="90.133" y="658.3059">s2</text></g><g class="end_entity" data-qualified-name=".end." data-source-line="22" id="ent0014"><ellipse cx="97.49" cy="897.48" fill="none" rx="11" ry="11" style="stroke:#222222;stroke-width:1;"/><ellipse cx="97.49" cy="897.48" fill="#222222" rx="6" ry="6" style="stroke:#222222;stroke-width:1;"/></g><g class="entity" data-qualified-name="GMN16" data-source-line="26" id="ent0017"><path d="M223.32,360.18 L223.32,387.74 L188.29,391.74 L223.32,395.74 L223.32,423.298 A0,0 0 0 0 223.32,423.298 L489.6433,423.298 A0,0 0 0 0 489.6433,423.298 L489.6433,370.18 L479.6433,360.18 L223.32,360.18 A0,0 0 0 0 223.32,360.18" fill="#FEFFDD" style="stroke:#181818;stroke-width:0.5;"/><path d="M479.6433,360.18 L479.6433,370.18 L489.6433,370.18 L479.6433,360.18" fill="#FEFFDD" style="stroke:#181818;stroke-width:0.5;"/><text fill="#000000" font-family="Inter" font-size="13" lengthAdjust="spacing" textLength="230.1522" x="229.32" y="379.077">recursive callee back-edges to its own</text><text fill="#000000" font-family="Inter" font-size="13" lengthAdjust="spacing" textLength="217.5942" x="229.32" y="396.783">box entry: finite syntax, unbounded</text><text fill="#000000" font-family="Inter" font-size="13" lengthAdjust="spacing" textLength="245.3233" x="229.32" y="414.489">nesting bounded by MAX_STACK_DEPTH</text></g><!--link *start* to s0--><g class="link" data-entity-1="ent0004" data-entity-2="ent0001" data-link-type="dependency" data-source-line="14" id="lnk5"><path d="M97.49,26.41 C97.49,40.12 97.49,61.18 97.49,81.51" fill="none" id="*start*-to-s0" style="stroke:#181818;stroke-width:1;"/><polygon fill="#181818" points="97.49,86.51,101.49,77.51,97.49,81.51,93.49,77.51,97.49,86.51" style="stroke:#181818;stroke-width:1;stroke-linejoin:miter;stroke-miterlimit:10;"/></g><!--link s0 to s1--><g class="link" data-entity-1="ent0001" data-entity-2="ent0006" data-link-type="dependency" data-source-line="16" id="lnk7"><path d="M97.49,145.51 C97.49,168.85 97.49,196.55 97.49,218.72" fill="none" id="s0-to-s1" style="stroke:#475569;stroke-width:1;"/><polygon fill="#475569" points="97.49,223.72,101.49,214.72,97.49,218.72,93.49,214.72,97.49,223.72" style="stroke:#475569;stroke-width:1;stroke-linejoin:miter;stroke-miterlimit:10;"/><text fill="#000000" font-family="Inter" font-size="13" lengthAdjust="spacing" textLength="170.9372" x="98.49" y="190.037">Send(Sub, subcall) / Internal</text></g><!--link s1 to box--><g class="link" data-entity-1="ent0006" data-entity-2="ent0002" data-link-type="dependency" data-source-line="17" id="lnk8"><path d="M97.49,274.63 C97.49,296.19 97.49,322.93 97.49,347.77" fill="none" id="s1-to-box" style="stroke:#7C3AED;stroke-width:2;"/><polygon fill="#7C3AED" points="97.49,352.77,101.49,343.77,97.49,347.77,93.49,343.77,97.49,352.77" style="stroke:#7C3AED;stroke-width:2;stroke-linejoin:miter;stroke-miterlimit:10;"/><text fill="#000000" font-family="Inter" font-size="13" lengthAdjust="spacing" textLength="114.8941" x="98.49" y="319.037">"call:recursive_cf" /</text><text fill="#000000" font-family="Inter" font-size="13" font-weight="700" lengthAdjust="spacing" textLength="142.9091" x="216.7641" y="319.037">Call{return_state = s2}</text><text fill="#000000" font-family="Inter" font-size="13" lengthAdjust="spacing" textLength="41.938" x="366.4332" y="319.037">(PUSH)</text></g><!--link box to box2--><g class="link" data-entity-1="ent0002" data-entity-2="ent0009" data-link-type="dependency" data-source-line="19" id="lnk10"><path d="M97.49,430.79 C97.49,455.68 97.49,482.45 97.49,503.98" fill="none" id="box-to-box2" style="stroke:#475569;stroke-width:1;"/><polygon fill="#475569" points="97.49,508.98,101.49,499.98,97.49,503.98,93.49,499.98,97.49,508.98" style="stroke:#475569;stroke-width:1;stroke-linejoin:miter;stroke-miterlimit:10;"/><text fill="#000000" font-family="Inter" font-size="13" lengthAdjust="spacing" textLength="155.7921" x="98.49" y="475.237">&#8230; callee body (Internal) &#8230;</text></g><!--link box2 to s2--><g class="link" data-entity-1="ent0009" data-entity-2="ent0011" data-link-type="dependency" data-source-line="20" id="lnk12"><path d="M97.49,559.83 C97.49,582.32 97.49,610.47 97.49,632.93" fill="none" id="box2-to-s2" style="stroke:#C026D3;stroke-width:2;"/><polygon fill="#C026D3" points="97.49,637.93,101.49,628.93,97.49,632.93,93.49,628.93,97.49,637.93" style="stroke:#C026D3;stroke-width:2;stroke-linejoin:miter;stroke-miterlimit:10;"/><text fill="#000000" font-family="Inter" font-size="13" lengthAdjust="spacing" textLength="31.473" x="98.49" y="604.237">End /</text><text fill="#000000" font-family="Inter" font-size="13" font-weight="700" lengthAdjust="spacing" textLength="44.642" x="133.343" y="604.237">Return</text><text fill="#000000" font-family="Inter" font-size="13" lengthAdjust="spacing" textLength="126.1767" x="184.7451" y="604.237">(POP &#8594; return_state)</text></g><!--link s2 to s3--><g class="link" data-entity-1="ent0011" data-entity-2="ent0003" data-link-type="dependency" data-source-line="21" id="lnk13"><path d="M97.49,688.69 C97.49,710.9 97.49,738.72 97.49,762.1" fill="none" id="s2-to-s3" style="stroke:#475569;stroke-width:1;"/><polygon fill="#475569" points="97.49,767.1,101.49,758.1,97.49,762.1,93.49,758.1,97.49,767.1" style="stroke:#475569;stroke-width:1;stroke-linejoin:miter;stroke-miterlimit:10;"/><text fill="#000000" font-family="Inter" font-size="13" lengthAdjust="spacing" textLength="183.4692" x="98.49" y="733.237">Recv(Sub, subresult) / Internal</text></g><!--link s3 to *end*--><g class="link" data-entity-1="ent0003" data-entity-2="ent0014" data-link-type="dependency" data-source-line="22" id="lnk15"><path d="M97.49,825.8 C97.49,845.93 97.49,866.79 97.49,880.98" fill="none" id="s3-to-*end*" style="stroke:#181818;stroke-width:1;"/><polygon fill="#181818" points="97.49,885.98,101.49,876.98,97.49,880.98,93.49,876.98,97.49,885.98" style="stroke:#181818;stroke-width:1;stroke-linejoin:miter;stroke-miterlimit:10;"/></g><?plantuml-src NLDHJXin4FttAKRmmMwqWP0GQ2Eb4gLKL9GI4IfLeYZoshDP2yUER2yG8QH-zG0zHA_G_nw5atIS3Tk0v1_Fl6S_lpVUWaCGTZPN6YLyjeBhCovAPH1yQU-KcGBN6aBf4E5OJl5K6Ua7yCa4T8PhIAoJod2tYAVCqenjmL5a9FFAby31OQYSWSBn6QOPNDJRP6xdwJPSbie3hL0YM2TAzC7nO1sSWos0qrcaHxTpv2ugcJiRhB1w6qPSOmWu0BNICVIQ1yoM-9ruzV1MMS9aAm4xTE6mg4Jf5OyQYJLJaJUbXvbjvc-KcNCI2JaNDrDdAoEFh2OffCXuQg49QoY91Qzq-6XD-48lg_rOw_kIozg-WckFwvr0Gk610Rn_TTCcTl5DqOaTCXNTgjhhxUts-rIDbwrgdMBteClP8sDNhMjejz-1xp3VWMY82ehhk6bVRUuTzFlxRwzZVvUQOpGo6LTv1hxAerKfx3HHCe8GvK3qECeijrf6NcxlYRWHmGE7ed9UtU9451l4RBLYr0-rmvFwOKFmtSTM2o0PVHsVfApcHpeDKDoGZsxntIJDq5aZ4Fx-eQ0gZx9cl91EXIwTyVJZz_zpv0AIP-5fRB4bYdYYqzsNlKQ_ZzHZ8vTow-chrPsFuEddBrWNdpBVVULQZzWNA6uRrnnwolsbRxrb0fG4M-AVPuinOyaHfwPbYFDC2Yd5niJcCJG6RQIlHV_0WWeUx9qXO6FM08gOAlt8XGdyFeFAv75gK1BAq9-9OxQgGBw0iyDla_7buT7fvCFnwFA4KUWGbVm3?></g></svg>