<svg xmlns="http://www.w3.org/2000/svg" xmlns:xlink="http://www.w3.org/1999/xlink" contentStyleType="text/css" data-diagram-type="STATE" height="681px" preserveAspectRatio="none" style="width:610px;height:681px;" version="1.1" viewBox="0 0 610 681" width="610px" zoomAndPan="magnify"><?plantuml $version$?><defs/><g><g class="entity" data-qualified-name="Delivered" data-source-line="14" id="ent0001"><rect fill="#CFFAFE" height="58.1358" rx="12.5" ry="12.5" style="stroke:#0E7490;stroke-width:0.5;" width="161.6095" x="217.62" y="252"/><line style="stroke:#0E7490;stroke-width:0.5;" x1="217.62" x2="379.2295" y1="281.0679" y2="281.0679"/><text fill="#164E63" font-family="Inter" font-size="14" lengthAdjust="spacing" textLength="62.6357" x="267.1069" y="271.9659">Delivered</text><text fill="#164E63" font-family="Inter" font-size="14" lengthAdjust="spacing" textLength="141.6095" x="222.62" y="301.0339">delivered_at stamped</text></g><g class="entity" data-qualified-name="Read" data-source-line="16" id="ent0002"><rect fill="#CFFAFE" height="58.1358" rx="12.5" ry="12.5" style="stroke:#0E7490;stroke-width:0.5;" width="215.8732" x="190.48" y="389.14"/><line style="stroke:#0E7490;stroke-width:0.5;" x1="190.48" x2="406.3532" y1="418.2079" y2="418.2079"/><text fill="#164E63" font-family="Inter" font-size="14" lengthAdjust="spacing" textLength="33.0679" x="281.8827" y="409.1059">Read</text><text fill="#164E63" font-family="Inter" font-size="14" lengthAdjust="spacing" textLength="195.8732" x="195.48" y="438.1739">read_at  (implies delivered_at)</text></g><g class="entity" data-qualified-name="Acked" data-source-line="18" id="ent0003"><rect fill="#CFFAFE" height="58.1358" rx="12.5" ry="12.5" style="stroke:#0E7490;stroke-width:0.5;" width="288.8409" x="7" y="526.27"/><line style="stroke:#0E7490;stroke-width:0.5;" x1="7" x2="295.8409" y1="555.3379" y2="555.3379"/><text fill="#164E63" font-family="Inter" font-size="14" lengthAdjust="spacing" textLength="39.6478" x="131.5965" y="546.2359">Acked</text><text fill="#164E63" font-family="Inter" font-size="14" lengthAdjust="spacing" textLength="268.8409" x="12" y="575.3039">acked_at  (implies read_at + delivered_at)</text></g><g class="entity" data-qualified-name="Replied" data-source-line="21" id="ent0004"><rect fill="#CFFAFE" height="58.1358" rx="12.5" ry="12.5" style="stroke:#0E7490;stroke-width:0.5;" width="229.0177" x="330.91" y="526.27"/><line style="stroke:#0E7490;stroke-width:0.5;" x1="330.91" x2="559.9277" y1="555.3379" y2="555.3379"/><text fill="#164E63" font-family="Inter" font-size="14" lengthAdjust="spacing" textLength="48.9438" x="420.9469" y="546.2359">Replied</text><text fill="#164E63" font-family="Inter" font-size="14" lengthAdjust="spacing" textLength="209.0177" x="335.91" y="575.3039">new message, reply_to &#8594; this id</text></g><g class="start_entity" data-qualified-name=".start." data-source-line="12" id="ent0005"><ellipse cx="298.42" cy="16" fill="#222222" rx="10" ry="10" style="stroke:#222222;stroke-width:1;"/></g><g class="entity" data-qualified-name="Sent" data-source-line="12" id="ent0006"><rect fill="#CFFAFE" height="50" rx="12.5" ry="12.5" style="stroke:#0E7490;stroke-width:0.5;" width="50" x="273.42" y="105"/><line style="stroke:#0E7490;stroke-width:0.5;" x1="273.42" x2="323.42" y1="134.0679" y2="134.0679"/><text fill="#164E63" font-family="Inter" font-size="14" lengthAdjust="spacing" textLength="29.2879" x="283.7761" y="124.9659">Sent</text></g><g class="end_entity" data-qualified-name=".end." data-source-line="19" id="ent0011"><ellipse cx="297.42" cy="656.41" fill="none" rx="11" ry="11" style="stroke:#222222;stroke-width:1;"/><ellipse cx="297.42" cy="656.41" fill="#222222" rx="6" ry="6" style="stroke:#222222;stroke-width:1;"/></g><g class="entity" data-qualified-name="GMN15" data-source-line="25" id="ent0016"><path d="M358.89,107.3 L358.89,126 L323.59,130 L358.89,134 L358.89,152.712 A0,0 0 0 0 358.89,152.712 L595.9502,152.712 A0,0 0 0 0 595.9502,152.712 L595.9502,117.3 L585.9502,107.3 L358.89,107.3 A0,0 0 0 0 358.89,107.3" fill="#FEFFDD" style="stroke:#181818;stroke-width:0.5;"/><path d="M585.9502,107.3 L585.9502,117.3 L595.9502,117.3 L585.9502,107.3" fill="#FEFFDD" style="stroke:#181818;stroke-width:0.5;"/><text fill="#000000" font-family="Inter" font-size="13" lengthAdjust="spacing" textLength="156.0782" x="364.89" y="126.197">3 addressing dimensions:</text><text fill="#000000" font-family="Inter" font-size="13" lengthAdjust="spacing" textLength="216.0602" x="364.89" y="143.903">to_session &#183; to_project_id &#183; to_agent</text></g><!--link *start* to Sent--><g class="link" data-entity-1="ent0005" data-entity-2="ent0006" data-link-type="dependency" data-source-line="12" id="lnk7"><path d="M298.42,26.17 C298.42,43.2 298.42,75.23 298.42,99.89" fill="none" id="*start*-to-Sent" style="stroke:#181818;stroke-width:1;"/><polygon fill="#181818" points="298.42,104.89,302.42,95.89,298.42,99.89,294.42,95.89,298.42,104.89" style="stroke:#181818;stroke-width:1;stroke-linejoin:miter;stroke-miterlimit:10;"/><text fill="#000000" font-family="Inter" font-size="13" lengthAdjust="spacing" textLength="117.7151" x="299.42" y="70.897">a2a_send_message</text></g><!--link Sent to Delivered--><g class="link" data-entity-1="ent0006" data-entity-2="ent0001" data-link-type="dependency" data-source-line="13" id="lnk8"><path d="M298.42,155.28 C298.42,181.68 298.42,218.83 298.42,246.72" fill="none" id="Sent-to-Delivered" style="stroke:#181818;stroke-width:1;"/><polygon fill="#181818" points="298.42,251.72,302.42,242.72,298.42,246.72,294.42,242.72,298.42,251.72" style="stroke:#181818;stroke-width:1;stroke-linejoin:miter;stroke-miterlimit:10;"/><text fill="#000000" font-family="Inter" font-size="13" lengthAdjust="spacing" textLength="81.9911" x="299.42" y="199.897">push channel</text><text fill="#000000" font-family="Inter" font-size="13" lengthAdjust="spacing" textLength="81.8611" x="299.485" y="217.603">OR inbox pull</text></g><!--link Delivered to Read--><g class="link" data-entity-1="ent0001" data-entity-2="ent0002" data-link-type="dependency" data-source-line="15" id="lnk9"><path d="M298.42,310.4 C298.42,333.46 298.42,360.86 298.42,383.91" fill="none" id="Delivered-to-Read" style="stroke:#181818;stroke-width:1;"/><polygon fill="#181818" points="298.42,388.91,302.42,379.91,298.42,383.91,294.42,379.91,298.42,388.91" style="stroke:#181818;stroke-width:1;stroke-linejoin:miter;stroke-miterlimit:10;"/><text fill="#000000" font-family="Inter" font-size="13" lengthAdjust="spacing" textLength="84.3701" x="299.42" y="355.037">agent reads it</text></g><!--link Read to Acked--><g class="link" data-entity-1="ent0002" data-entity-2="ent0003" data-link-type="dependency" data-source-line="17" id="lnk10"><path d="M267.6,447.54 C242.6,470.52 211.1908,499.3959 186.1308,522.4359" fill="none" id="Read-to-Acked" style="stroke:#181818;stroke-width:1;"/><polygon fill="#181818" points="182.45,525.82,191.7826,522.6733,186.1308,522.4359,186.3681,516.7841,182.45,525.82" style="stroke:#181818;stroke-width:1;stroke-linejoin:miter;stroke-miterlimit:10;"/><text fill="#000000" font-family="Inter" font-size="13" lengthAdjust="spacing" textLength="108.6021" x="234.72" y="492.167">a2a_ack_message</text></g><!--link Acked to *end*--><g class="link" data-entity-1="ent0003" data-entity-2="ent0011" data-link-type="dependency" data-source-line="19" id="lnk12"><path d="M193.26,584.73 C226.46,607.26 266.1027,634.1624 284.5227,646.6624" fill="none" id="Acked-to-*end*" style="stroke:#181818;stroke-width:1;"/><polygon fill="#181818" points="288.66,649.47,283.4589,641.1064,284.5227,646.6624,278.9668,647.7261,288.66,649.47" style="stroke:#181818;stroke-width:1;stroke-linejoin:miter;stroke-miterlimit:10;"/></g><!--link Read to Replied--><g class="link" data-entity-1="ent0002" data-entity-2="ent0004" data-link-type="dependency" data-source-line="20" id="lnk13"><path d="M329.24,447.54 C354.24,470.52 385.6492,499.3959 410.7092,522.4359" fill="none" id="Read-to-Replied" style="stroke:#181818;stroke-width:1;"/><polygon fill="#181818" points="414.39,525.82,410.4719,516.7841,410.7092,522.4359,405.0574,522.6733,414.39,525.82" style="stroke:#181818;stroke-width:1;stroke-linejoin:miter;stroke-miterlimit:10;"/><text fill="#000000" font-family="Inter" font-size="13" lengthAdjust="spacing" textLength="118.8071" x="381.72" y="492.167">a2a_reply_message</text></g><!--link Replied to *end*--><g class="link" data-entity-1="ent0004" data-entity-2="ent0011" data-link-type="dependency" data-source-line="22" id="lnk14"><path d="M403.01,584.73 C369.36,607.26 329.1248,634.1883 310.4548,646.6883" fill="none" id="Replied-to-*end*" style="stroke:#181818;stroke-width:1;"/><polygon fill="#181818" points="306.3,649.47,316.0039,647.7867,310.4548,646.6883,311.5532,641.1391,306.3,649.47" style="stroke:#181818;stroke-width:1;stroke-linejoin:miter;stroke-miterlimit:10;"/></g><?plantuml-src PLB1RXCn4BtxAqRYq9QcLQ5L4P50Ag58I8YYb1kWQBgUtJNnsYjxqX1LNFa0VeOxdz8lwSncimdbPCsRv_V6yxm7dsk29eR8CRW26dJ-9lw0H0Mvbi6xaefLuMaCA21QS4th7MMmvDqj9R8Zm01Op3STixSc7cufi3-vklXmUJsv744WWSJnreLADDarb1cR5cv4Oud97Xp39_J4B9xzEA-A5OPZa-Skj9YmwRXLYejW9z7719mmP6bHu1sMfH8Ndj_5m1-n8NWVcD9EFzTeurBdAD5dskqmCi6T0NZpoEb9KPPOadPYifHwz8HUdBqy4LJDUkpP-HcTdvgVndnv-WsEZbx3jSm7iiddECiKx4oUdh4Yq-5AU3jiR0pj8jTGr1W2-Q_XQWekQ3BjmdkponksF4E6RfLaTmWgEzKynBTI7mqdWsFJerhhLTZ_Brg13zOqLRaevfsXZYzR6QOVS3t_LTfe7pxIN5zHKLdDrc5AUctZaQHQ3IxRNg0bzEW8rYIESF_hDt3jv6Lsu6uCZ7nlWkIgcY6MNGmIrIcWjKc4z0TO-OSXknZoM5eS9Q2i9VpzerMRudSgUEPi3tIxD18YgFO3?></g></svg>