<?xml version="1.0" encoding="UTF-8"?>
<svg xmlns="http://www.w3.org/2000/svg" xmlns:xlink="http://www.w3.org/1999/xlink" width="312.848pt" height="117.74pt" viewBox="0 0 312.848 117.74">
<defs>
<g>
<g id="glyph-0-0">
<path d="M 2.328125 -2.46875 C 2.328125 -3.734375 3.296875 -4.4375 3.640625 -4.6875 C 3.921875 -4.890625 4.125 -5.25 4.125 -5.671875 C 4.125 -6.234375 3.734375 -7 2.25 -7 C 1.171875 -7 0.5625 -6.328125 0.5625 -5.6875 C 0.5625 -5.34375 0.78125 -5.203125 1.015625 -5.203125 C 1.296875 -5.203125 1.46875 -5.40625 1.46875 -5.671875 C 1.46875 -6.109375 1.046875 -6.109375 0.921875 -6.109375 C 1.21875 -6.640625 1.796875 -6.78125 2.21875 -6.78125 C 3.296875 -6.78125 3.296875 -6.109375 3.296875 -5.71875 C 3.296875 -5.140625 3.140625 -4.953125 2.96875 -4.78125 C 2.3125 -4.0625 2.09375 -3.15625 2.09375 -2.546875 L 2.09375 -2.09375 C 2.09375 -1.921875 2.09375 -1.859375 2.203125 -1.859375 C 2.328125 -1.859375 2.328125 -1.953125 2.328125 -2.125 Z M 2.734375 -0.53125 C 2.734375 -0.8125 2.5 -1.046875 2.203125 -1.046875 C 1.921875 -1.046875 1.671875 -0.8125 1.671875 -0.53125 C 1.671875 -0.234375 1.921875 0 2.203125 0 C 2.5 0 2.734375 -0.234375 2.734375 -0.53125 Z M 2.734375 -0.53125 "/>
</g>
<g id="glyph-0-1">
<path d="M 6.921875 -1.203125 C 6.890625 -0.421875 6.25 -0.09375 5.796875 -0.09375 C 5.265625 -0.09375 4.75 -0.59375 4.4375 -0.96875 C 4.890625 -1.5 5.28125 -2.171875 5.75 -2.96875 C 6.125 -3.625 6.34375 -3.96875 7.21875 -3.96875 L 7.21875 -4.28125 C 6.859375 -4.265625 6.3125 -4.25 6.265625 -4.25 C 6.15625 -4.25 5.3125 -4.265625 5.046875 -4.28125 L 5.046875 -3.96875 C 5.5 -3.96875 5.75 -3.78125 5.75 -3.53125 C 5.75 -3.4375 5.703125 -3.375 5.6875 -3.34375 C 5.140625 -2.375 4.703125 -1.703125 4.265625 -1.171875 C 4.140625 -1.328125 3.0625 -2.6875 2.625 -3.828125 C 3.15625 -4.421875 3.828125 -5.171875 3.828125 -5.828125 C 3.828125 -6.296875 3.671875 -7.109375 2.96875 -7.109375 C 2.359375 -7.109375 1.625 -6.5625 1.625 -5.515625 C 1.625 -5.09375 1.671875 -4.375 2.03125 -3.5 L 1.125 -2.53125 C 0.671875 -2.078125 0.421875 -1.8125 0.421875 -1.265625 C 0.421875 -0.40625 1.234375 0.21875 2.21875 0.21875 C 3.0625 0.21875 3.640625 -0.203125 4.015625 -0.53125 C 4.703125 0.0625 5.28125 0.21875 5.765625 0.21875 C 6.515625 0.21875 7.140625 -0.34375 7.171875 -1.203125 Z M 2.546875 -4.0625 C 2.28125 -4.859375 2.25 -5.4375 2.25 -5.75 C 2.25 -6.578125 2.640625 -6.890625 2.984375 -6.890625 C 3.59375 -6.890625 3.59375 -5.859375 3.59375 -5.84375 C 3.59375 -5.1875 2.78125 -4.328125 2.546875 -4.0625 Z M 2.109375 -3.265625 C 2.328125 -2.796875 2.484375 -2.5 2.90625 -1.890625 C 3.09375 -1.609375 3.453125 -1.09375 3.828125 -0.71875 C 3.1875 -0.15625 2.578125 -0.09375 2.296875 -0.09375 C 1.46875 -0.09375 1.25 -1.046875 1.25 -1.59375 C 1.25 -2.390625 1.578125 -2.75 2.109375 -3.265625 Z M 2.109375 -3.265625 "/>
</g>
<g id="glyph-0-2">
<path d="M 1.90625 -3.75 C 1.90625 -4.046875 1.671875 -4.28125 1.375 -4.28125 C 1.09375 -4.28125 0.859375 -4.046875 0.859375 -3.75 C 0.859375 -3.46875 1.09375 -3.234375 1.375 -3.234375 C 1.671875 -3.234375 1.90625 -3.46875 1.90625 -3.75 Z M 1.90625 -0.53125 C 1.90625 -0.8125 1.671875 -1.046875 1.375 -1.046875 C 1.09375 -1.046875 0.859375 -0.8125 0.859375 -0.53125 C 0.859375 -0.234375 1.09375 0 1.375 0 C 1.671875 0 1.90625 -0.234375 1.90625 -0.53125 Z M 1.90625 -0.53125 "/>
</g>
<g id="glyph-1-0">
<path d="M 7.359375 -4.328125 C 7.359375 -5.9375 6.296875 -7 4.8125 -7 C 2.671875 -7 0.484375 -4.75 0.484375 -2.4375 C 0.484375 -0.78125 1.59375 0.21875 3.03125 0.21875 C 5.140625 0.21875 7.359375 -1.953125 7.359375 -4.328125 Z M 3.09375 -0.046875 C 2.109375 -0.046875 1.40625 -0.84375 1.40625 -2.15625 C 1.40625 -2.59375 1.546875 -4.046875 2.3125 -5.203125 C 3 -6.234375 3.96875 -6.75 4.765625 -6.75 C 5.578125 -6.75 6.46875 -6.203125 6.46875 -4.71875 C 6.46875 -4 6.203125 -2.453125 5.21875 -1.234375 C 4.734375 -0.625 3.921875 -0.046875 3.09375 -0.046875 Z M 3.09375 -0.046875 "/>
</g>
<g id="glyph-1-1">
<path d="M 1.90625 -0.53125 C 1.90625 -0.8125 1.671875 -1.046875 1.375 -1.046875 C 1.09375 -1.046875 0.859375 -0.8125 0.859375 -0.53125 C 0.859375 -0.234375 1.09375 0 1.375 0 C 1.671875 0 1.90625 -0.234375 1.90625 -0.53125 Z M 1.90625 -0.53125 "/>
</g>
<g id="glyph-1-2">
<path d="M 2.046875 -3.96875 L 2.984375 -3.96875 C 3.1875 -3.96875 3.28125 -3.96875 3.28125 -4.171875 C 3.28125 -4.28125 3.1875 -4.28125 3 -4.28125 L 2.125 -4.28125 C 2.484375 -5.6875 2.53125 -5.890625 2.53125 -5.953125 C 2.53125 -6.125 2.421875 -6.21875 2.25 -6.21875 C 2.21875 -6.21875 1.9375 -6.21875 1.84375 -5.859375 L 1.453125 -4.28125 L 0.53125 -4.28125 C 0.328125 -4.28125 0.234375 -4.28125 0.234375 -4.09375 C 0.234375 -3.96875 0.3125 -3.96875 0.5 -3.96875 L 1.375 -3.96875 C 0.671875 -1.15625 0.625 -0.984375 0.625 -0.8125 C 0.625 -0.265625 1 0.109375 1.546875 0.109375 C 2.546875 0.109375 3.125 -1.34375 3.125 -1.421875 C 3.125 -1.515625 3.046875 -1.515625 3 -1.515625 C 2.90625 -1.515625 2.90625 -1.484375 2.859375 -1.375 C 2.421875 -0.34375 1.890625 -0.109375 1.5625 -0.109375 C 1.34375 -0.109375 1.25 -0.234375 1.25 -0.5625 C 1.25 -0.8125 1.265625 -0.875 1.3125 -1.046875 Z M 2.046875 -3.96875 "/>
</g>
<g id="glyph-2-0">
<path d="M 3.265625 -7.078125 C 3.3125 -7.1875 3.3125 -7.203125 3.3125 -7.25 C 3.3125 -7.359375 3.21875 -7.453125 3.109375 -7.453125 C 3.015625 -7.453125 2.953125 -7.40625 2.875 -7.21875 L 1.140625 -2.65625 C 1.125 -2.609375 1.09375 -2.546875 1.09375 -2.484375 C 1.09375 -2.453125 1.09375 -2.4375 1.140625 -2.3125 L 2.875 2.25 C 2.921875 2.359375 2.96875 2.484375 3.109375 2.484375 C 3.21875 2.484375 3.3125 2.390625 3.3125 2.28125 C 3.3125 2.25 3.3125 2.234375 3.265625 2.125 L 1.5 -2.484375 Z M 3.265625 -7.078125 "/>
</g>
<g id="glyph-2-1">
<path d="M 2.71875 -2.3125 C 2.765625 -2.4375 2.765625 -2.453125 2.765625 -2.484375 C 2.765625 -2.515625 2.765625 -2.53125 2.71875 -2.65625 L 0.96875 -7.21875 C 0.921875 -7.390625 0.859375 -7.453125 0.75 -7.453125 C 0.640625 -7.453125 0.546875 -7.359375 0.546875 -7.25 C 0.546875 -7.21875 0.546875 -7.203125 0.59375 -7.09375 L 2.359375 -2.484375 L 0.59375 2.109375 C 0.546875 2.21875 0.546875 2.234375 0.546875 2.28125 C 0.546875 2.390625 0.640625 2.484375 0.75 2.484375 C 0.875 2.484375 0.921875 2.390625 0.953125 2.28125 Z M 2.71875 -2.3125 "/>
</g>
<g id="glyph-3-0">
<path d="M 4.546875 -6.90625 L 3.71875 -6.90625 L 3.71875 -6.078125 L 4.546875 -6.078125 Z M 4.5 -4.40625 L 3.75 -4.40625 L 3.75 0 L 4.5 0 Z M 1.75 -3.828125 L 2.921875 -3.828125 L 2.921875 -4.40625 L 1.71875 -4.40625 L 1.71875 -5.609375 C 1.71875 -6.25 2.078125 -6.40625 2.328125 -6.40625 C 2.53125 -6.40625 2.75 -6.328125 2.921875 -6.21875 L 2.921875 -6.890625 C 2.859375 -6.921875 2.609375 -7 2.328125 -7 C 1.59375 -7 1 -6.3125 1 -5.3125 L 1 -4.40625 L 0.265625 -4.40625 L 0.265625 -3.828125 L 1 -3.828125 L 1 0 L 1.75 0 Z M 1.75 -3.828125 "/>
</g>
<g id="glyph-3-1">
<path d="M 4.328125 -2.96875 C 4.328125 -3.625 4.171875 -4.515625 2.96875 -4.515625 C 2.0625 -4.515625 1.578125 -3.84375 1.515625 -3.765625 L 1.515625 -4.46875 L 0.8125 -4.46875 L 0.8125 0 L 1.578125 0 L 1.578125 -2.4375 C 1.578125 -3.09375 1.828125 -3.921875 2.578125 -3.921875 C 3.53125 -3.921875 3.546875 -3.203125 3.546875 -2.890625 L 3.546875 0 L 4.328125 0 Z M 4.328125 -2.96875 "/>
</g>
<g id="glyph-3-2">
<path d="M 1.625 -6.75 L 0.734375 -6.75 L 0.734375 -5.875 L 1.625 -5.875 Z M 1.546875 -4.40625 L 0.8125 -4.40625 L 0.8125 0 L 1.546875 0 Z M 1.546875 -4.40625 "/>
</g>
<g id="glyph-3-3">
<path d="M 3.40625 -4.265625 C 2.890625 -4.5 2.484375 -4.578125 1.984375 -4.578125 C 1.734375 -4.578125 0.328125 -4.578125 0.328125 -3.28125 C 0.328125 -2.796875 0.609375 -2.46875 0.859375 -2.28125 C 1.171875 -2.0625 1.390625 -2.03125 1.9375 -1.921875 C 2.296875 -1.84375 2.875 -1.734375 2.875 -1.203125 C 2.875 -0.515625 2.09375 -0.515625 1.9375 -0.515625 C 1.140625 -0.515625 0.578125 -0.890625 0.390625 -1 L 0.28125 -0.328125 C 0.59375 -0.171875 1.140625 0.109375 1.953125 0.109375 C 2.125 0.109375 2.671875 0.109375 3.09375 -0.203125 C 3.40625 -0.453125 3.578125 -0.84375 3.578125 -1.265625 C 3.578125 -1.8125 3.203125 -2.15625 3.1875 -2.1875 C 2.796875 -2.53125 2.53125 -2.59375 2.03125 -2.6875 C 1.484375 -2.796875 1.03125 -2.890625 1.03125 -3.375 C 1.03125 -4 1.75 -4 1.875 -4 C 2.203125 -4 2.71875 -3.953125 3.296875 -3.625 Z M 3.40625 -4.265625 "/>
</g>
<g id="glyph-3-4">
<path d="M 4.328125 -2.96875 C 4.328125 -3.625 4.171875 -4.515625 2.96875 -4.515625 C 2.34375 -4.515625 1.875 -4.21875 1.546875 -3.8125 L 1.546875 -6.890625 L 0.8125 -6.890625 L 0.8125 0 L 1.578125 0 L 1.578125 -2.4375 C 1.578125 -3.09375 1.828125 -3.921875 2.578125 -3.921875 C 3.53125 -3.921875 3.546875 -3.203125 3.546875 -2.890625 L 3.546875 0 L 4.328125 0 Z M 4.328125 -2.96875 "/>
</g>
<g id="glyph-3-5">
<path d="M 4.109375 -2.171875 C 4.109375 -2.515625 4.109375 -3.265625 3.71875 -3.859375 C 3.3125 -4.46875 2.703125 -4.578125 2.34375 -4.578125 C 1.25 -4.578125 0.34375 -3.53125 0.34375 -2.25 C 0.34375 -0.9375 1.296875 0.109375 2.5 0.109375 C 3.125 0.109375 3.6875 -0.125 4.078125 -0.40625 L 4.015625 -1.046875 C 3.390625 -0.53125 2.734375 -0.5 2.5 -0.5 C 1.703125 -0.5 1.078125 -1.203125 1.046875 -2.171875 Z M 1.09375 -2.71875 C 1.25 -3.484375 1.78125 -3.96875 2.34375 -3.96875 C 2.859375 -3.96875 3.421875 -3.640625 3.546875 -2.71875 Z M 1.09375 -2.71875 "/>
</g>
<g id="glyph-3-6">
<path d="M 4.3125 -6.890625 L 3.5625 -6.890625 L 3.5625 -3.96875 C 3.046875 -4.40625 2.484375 -4.515625 2.109375 -4.515625 C 1.140625 -4.515625 0.359375 -3.484375 0.359375 -2.203125 C 0.359375 -0.90625 1.125 0.109375 2.0625 0.109375 C 2.390625 0.109375 2.984375 0.015625 3.53125 -0.515625 L 3.53125 0 L 4.3125 0 Z M 3.53125 -1.375 C 3.53125 -1.25 3.53125 -1.0625 3.203125 -0.78125 C 2.984375 -0.578125 2.734375 -0.5 2.46875 -0.5 C 1.859375 -0.5 1.140625 -0.96875 1.140625 -2.203125 C 1.140625 -3.515625 1.984375 -3.921875 2.578125 -3.921875 C 3.015625 -3.921875 3.3125 -3.6875 3.53125 -3.375 Z M 3.53125 -1.375 "/>
</g>
<g id="glyph-3-7">
<path d="M 3.96875 -2.875 C 3.96875 -3.890625 3.234375 -4.578125 2.328125 -4.578125 C 1.671875 -4.578125 1.234375 -4.421875 0.765625 -4.15625 L 0.828125 -3.5 C 1.34375 -3.859375 1.84375 -4 2.328125 -4 C 2.796875 -4 3.1875 -3.59375 3.1875 -2.859375 L 3.1875 -2.4375 C 1.703125 -2.421875 0.4375 -2 0.4375 -1.125 C 0.4375 -0.703125 0.703125 0.109375 1.5625 0.109375 C 1.703125 0.109375 2.640625 0.09375 3.21875 -0.359375 L 3.21875 0 L 3.96875 0 Z M 3.1875 -1.3125 C 3.1875 -1.125 3.1875 -0.875 2.859375 -0.6875 C 2.5625 -0.5 2.1875 -0.5 2.078125 -0.5 C 1.59375 -0.5 1.15625 -0.71875 1.15625 -1.140625 C 1.15625 -1.84375 2.765625 -1.90625 3.1875 -1.921875 Z M 3.1875 -1.3125 "/>
</g>
<g id="glyph-3-8">
<path d="M 4.078125 -4.15625 C 3.484375 -4.484375 3.15625 -4.578125 2.546875 -4.578125 C 1.15625 -4.578125 0.359375 -3.375 0.359375 -2.203125 C 0.359375 -0.96875 1.265625 0.109375 2.5 0.109375 C 3.046875 0.109375 3.59375 -0.03125 4.125 -0.390625 L 4.0625 -1.0625 C 3.5625 -0.671875 3.015625 -0.53125 2.515625 -0.53125 C 1.6875 -0.53125 1.140625 -1.25 1.140625 -2.21875 C 1.140625 -2.984375 1.5 -3.9375 2.546875 -3.9375 C 3.078125 -3.9375 3.40625 -3.859375 3.953125 -3.515625 Z M 4.078125 -4.15625 "/>
</g>
<g id="glyph-3-9">
<path d="M 1.734375 -3.828125 L 3.140625 -3.828125 L 3.140625 -4.40625 L 1.734375 -4.40625 L 1.734375 -5.671875 L 1.046875 -5.671875 L 1.046875 -4.40625 L 0.1875 -4.40625 L 0.1875 -3.828125 L 1.03125 -3.828125 L 1.03125 -1.1875 C 1.03125 -0.59375 1.15625 0.109375 1.84375 0.109375 C 2.546875 0.109375 3.046875 -0.140625 3.296875 -0.265625 L 3.140625 -0.859375 C 2.875 -0.640625 2.5625 -0.53125 2.25 -0.53125 C 1.875 -0.53125 1.734375 -0.828125 1.734375 -1.34375 Z M 1.734375 -3.828125 "/>
</g>
<g id="glyph-4-0">
<path d="M 8.65625 -8.046875 C 8.65625 -8.515625 8.609375 -8.5625 8.15625 -8.5625 L 1.375 -8.5625 C 0.921875 -8.5625 0.875 -8.515625 0.875 -8.046875 L 0.875 -0.515625 C 0.875 -0.296875 0.875 0 1.15625 0 C 1.453125 0 1.453125 -0.25 1.453125 -0.515625 L 1.453125 -7.984375 L 8.09375 -7.984375 L 8.09375 -0.515625 C 8.09375 -0.296875 8.09375 0 8.375 0 C 8.65625 0 8.65625 -0.25 8.65625 -0.515625 Z M 8.65625 -8.046875 "/>
</g>
<g id="glyph-5-0">
<path d="M 3.6875 11.28125 C 3.6875 10.65625 3.6875 10.515625 3.59375 10.234375 C 3.28125 9.328125 2.40625 8.796875 1.75 8.546875 C 2.890625 8.0625 3.453125 7.390625 3.640625 6.703125 C 3.671875 6.578125 3.6875 6.40625 3.6875 6.34375 L 3.6875 1.875 C 3.6875 1.046875 4.34375 0.421875 5.28125 0.03125 C 5.421875 -0.046875 5.4375 -0.046875 5.4375 -0.203125 C 5.4375 -0.390625 5.421875 -0.390625 5.234375 -0.390625 C 4.953125 -0.390625 4.203125 -0.03125 3.8125 0.28125 C 3.46875 0.546875 2.9375 1.109375 2.9375 1.78125 C 2.921875 2.578125 2.9375 3.375 2.9375 4.171875 L 2.9375 5.71875 C 2.9375 6.59375 2.9375 6.921875 2.421875 7.546875 C 2.296875 7.6875 2 7.984375 1.328125 8.3125 C 1.1875 8.375 1.1875 8.390625 1.1875 8.53125 C 1.1875 8.703125 1.1875 8.703125 1.390625 8.796875 C 2.4375 9.28125 2.9375 10.125 2.9375 10.75 L 2.9375 14.890625 C 2.9375 15.359375 2.9375 15.953125 3.4375 16.46875 C 3.65625 16.6875 3.859375 16.890625 4.34375 17.140625 C 4.46875 17.21875 4.96875 17.484375 5.234375 17.484375 C 5.421875 17.484375 5.4375 17.46875 5.4375 17.28125 C 5.4375 17.140625 5.4375 17.109375 5.34375 17.078125 C 4.765625 16.828125 3.875 16.359375 3.703125 15.4375 C 3.6875 15.328125 3.6875 15 3.6875 14.765625 Z M 3.6875 11.28125 "/>
</g>
<g id="glyph-5-1">
<path d="M 3.6875 11.359375 C 3.6875 10.484375 3.6875 10.15625 4.203125 9.546875 C 4.3125 9.421875 4.625 9.078125 5.296875 8.765625 C 5.421875 8.703125 5.4375 8.703125 5.4375 8.546875 C 5.4375 8.4375 5.4375 8.421875 5.421875 8.375 C 5.40625 8.375 5.390625 8.375 5.234375 8.28125 C 4.1875 7.796875 3.6875 6.96875 3.6875 6.328125 L 3.6875 2.203125 C 3.6875 1.734375 3.6875 1.140625 3.1875 0.609375 C 2.96875 0.390625 2.75 0.1875 2.28125 -0.0625 C 2.171875 -0.109375 1.65625 -0.390625 1.390625 -0.390625 C 1.203125 -0.390625 1.1875 -0.390625 1.1875 -0.203125 C 1.1875 -0.0625 1.1875 -0.03125 1.265625 0.015625 C 1.65625 0.171875 2.734375 0.609375 2.90625 1.640625 C 2.9375 1.75 2.9375 2.09375 2.9375 2.3125 L 2.9375 5.796875 C 2.9375 6.421875 2.9375 6.5625 3.03125 6.84375 C 3.34375 7.75 4.21875 8.28125 4.875 8.53125 C 3.734375 9.015625 3.15625 9.6875 2.984375 10.390625 C 2.953125 10.5 2.9375 10.6875 2.9375 10.734375 L 2.9375 15.203125 C 2.9375 16.015625 2.3125 16.640625 1.34375 17.046875 C 1.1875 17.125 1.1875 17.125 1.1875 17.28125 C 1.1875 17.46875 1.203125 17.484375 1.390625 17.484375 C 1.65625 17.484375 2.390625 17.125 2.8125 16.796875 C 3.15625 16.53125 3.671875 15.984375 3.6875 15.296875 C 3.703125 14.515625 3.6875 13.703125 3.6875 12.90625 Z M 3.6875 11.359375 "/>
</g>
<g id="glyph-6-0">
<path d="M 2.90625 -3.40625 C 2.359375 -3.625 1.96875 -3.65625 1.671875 -3.65625 C 1.484375 -3.65625 0.28125 -3.65625 0.28125 -2.59375 C 0.28125 -2.21875 0.484375 -2.015625 0.59375 -1.921875 C 0.859375 -1.640625 1.203125 -1.578125 1.625 -1.5 C 2 -1.421875 2.421875 -1.34375 2.421875 -0.96875 C 2.421875 -0.46875 1.765625 -0.46875 1.65625 -0.46875 C 1.140625 -0.46875 0.671875 -0.640625 0.34375 -0.859375 L 0.234375 -0.265625 C 0.515625 -0.140625 1 0.078125 1.65625 0.078125 C 2.015625 0.078125 2.359375 0.03125 2.65625 -0.1875 C 2.953125 -0.40625 3.046875 -0.765625 3.046875 -1.03125 C 3.046875 -1.171875 3.03125 -1.484375 2.703125 -1.796875 C 2.40625 -2.046875 2.109375 -2.109375 1.734375 -2.171875 C 1.265625 -2.265625 0.90625 -2.34375 0.90625 -2.6875 C 0.90625 -3.140625 1.484375 -3.140625 1.59375 -3.140625 C 2.046875 -3.140625 2.40625 -3.046875 2.796875 -2.84375 Z M 2.90625 -3.40625 "/>
</g>
<g id="glyph-6-1">
<path d="M 3.390625 -2.296875 C 3.390625 -3.109375 2.765625 -3.65625 1.984375 -3.65625 C 1.484375 -3.65625 1.09375 -3.546875 0.65625 -3.3125 L 0.703125 -2.734375 C 0.96875 -2.90625 1.359375 -3.140625 1.984375 -3.140625 C 2.328125 -3.140625 2.703125 -2.875 2.703125 -2.28125 L 2.703125 -1.96875 C 1.515625 -1.921875 0.359375 -1.671875 0.359375 -0.9375 C 0.359375 -0.546875 0.625 0.078125 1.328125 0.078125 C 1.671875 0.078125 2.296875 0.015625 2.71875 -0.296875 L 2.71875 0 L 3.390625 0 Z M 2.703125 -1.125 C 2.703125 -0.96875 2.703125 -0.765625 2.421875 -0.59375 C 2.15625 -0.453125 1.859375 -0.453125 1.765625 -0.453125 C 1.328125 -0.453125 1 -0.640625 1 -0.953125 C 1 -1.453125 2.34375 -1.5 2.703125 -1.515625 Z M 2.703125 -1.125 "/>
</g>
<g id="glyph-6-2">
<path d="M 6.046875 -2.359375 C 6.046875 -2.96875 5.859375 -3.609375 4.890625 -3.609375 C 4.21875 -3.609375 3.796875 -3.21875 3.609375 -2.96875 C 3.53125 -3.1875 3.328125 -3.609375 2.53125 -3.609375 C 2.078125 -3.609375 1.640625 -3.421875 1.296875 -3 L 1.296875 -3.59375 L 0.65625 -3.59375 L 0.65625 0 L 1.359375 0 L 1.359375 -1.9375 C 1.359375 -2.453125 1.578125 -3.078125 2.1875 -3.078125 C 3 -3.078125 3 -2.53125 3 -2.296875 L 3 0 L 3.703125 0 L 3.703125 -1.9375 C 3.703125 -2.453125 3.921875 -3.078125 4.53125 -3.078125 C 5.359375 -3.078125 5.359375 -2.53125 5.359375 -2.296875 L 5.359375 0 L 6.046875 0 Z M 6.046875 -2.359375 "/>
</g>
<g id="glyph-6-3">
<path d="M 3.421875 -0.859375 C 2.96875 -0.546875 2.46875 -0.453125 2.125 -0.453125 C 1.4375 -0.453125 0.921875 -1.015625 0.890625 -1.734375 L 3.5 -1.734375 C 3.5 -2.109375 3.453125 -2.640625 3.15625 -3.09375 C 2.859375 -3.5 2.390625 -3.65625 2 -3.65625 C 1.03125 -3.65625 0.28125 -2.796875 0.28125 -1.796875 C 0.28125 -0.765625 1.078125 0.078125 2.125 0.078125 C 2.578125 0.078125 3.0625 -0.0625 3.46875 -0.296875 Z M 0.953125 -2.21875 C 1.125 -2.859375 1.59375 -3.125 2 -3.125 C 2.34375 -3.125 2.859375 -2.953125 3.015625 -2.21875 Z M 0.953125 -2.21875 "/>
</g>
<g id="glyph-6-4">
<path d="M 3.703125 -2.359375 C 3.703125 -2.96875 3.515625 -3.609375 2.53125 -3.609375 C 2.078125 -3.609375 1.640625 -3.421875 1.296875 -3 L 1.296875 -3.59375 L 0.65625 -3.59375 L 0.65625 0 L 1.359375 0 L 1.359375 -1.9375 C 1.359375 -2.453125 1.578125 -3.078125 2.1875 -3.078125 C 3 -3.078125 3 -2.53125 3 -2.296875 L 3 0 L 3.703125 0 Z M 3.703125 -2.359375 "/>
</g>
<g id="glyph-6-5">
<path d="M 3.6875 -5.515625 L 3.015625 -5.515625 L 3.015625 -3.1875 C 2.5 -3.5625 1.984375 -3.609375 1.75 -3.609375 C 0.921875 -3.609375 0.28125 -2.78125 0.28125 -1.765625 C 0.28125 -0.75 0.921875 0.078125 1.734375 0.078125 C 2.234375 0.078125 2.6875 -0.140625 2.984375 -0.40625 L 2.984375 0 L 3.6875 0 Z M 2.984375 -0.984375 C 2.796875 -0.65625 2.484375 -0.453125 2.109375 -0.453125 C 1.546875 -0.453125 0.984375 -0.828125 0.984375 -1.75 C 0.984375 -2.75 1.65625 -3.078125 2.1875 -3.078125 C 2.515625 -3.078125 2.78125 -2.953125 2.984375 -2.6875 Z M 2.984375 -0.984375 "/>
</g>
<g id="glyph-6-6">
<path d="M 1.34375 -1.6875 C 1.34375 -2.546875 2.0625 -3.015625 2.765625 -3.015625 L 2.765625 -3.609375 C 2.09375 -3.609375 1.609375 -3.28125 1.28125 -2.859375 L 1.28125 -3.59375 L 0.671875 -3.59375 L 0.671875 0 L 1.34375 0 Z M 1.34375 -1.6875 "/>
</g>
<g id="glyph-6-7">
<path d="M 1.40625 -5.453125 L 0.59375 -5.453125 L 0.59375 -4.65625 L 1.40625 -4.65625 Z M 1.34375 -3.53125 L 0.671875 -3.53125 L 0.671875 0 L 1.34375 0 Z M 1.34375 -3.53125 "/>
</g>
<g id="glyph-6-8">
<path d="M 1.5 -3.03125 L 2.671875 -3.03125 L 2.671875 -3.53125 L 1.5 -3.53125 L 1.5 -4.546875 L 0.875 -4.546875 L 0.875 -3.53125 L 0.15625 -3.53125 L 0.15625 -3.03125 L 0.859375 -3.03125 L 0.859375 -1.015625 C 0.859375 -0.484375 1 0.078125 1.5625 0.078125 C 2.140625 0.078125 2.578125 -0.109375 2.8125 -0.21875 L 2.6875 -0.71875 C 2.421875 -0.53125 2.140625 -0.46875 1.921875 -0.46875 C 1.578125 -0.46875 1.5 -0.796875 1.5 -1.15625 Z M 1.5 -3.03125 "/>
</g>
<g id="glyph-6-9">
<path d="M 3.453125 -0.859375 C 3.0625 -0.609375 2.625 -0.46875 2.140625 -0.46875 C 1.40625 -0.46875 0.984375 -1.0625 0.984375 -1.78125 C 0.984375 -2.390625 1.296875 -3.109375 2.15625 -3.109375 C 2.703125 -3.109375 2.953125 -2.984375 3.359375 -2.734375 L 3.46875 -3.3125 C 2.984375 -3.546875 2.78125 -3.65625 2.15625 -3.65625 C 0.96875 -3.65625 0.28125 -2.6875 0.28125 -1.765625 C 0.28125 -0.796875 1.046875 0.078125 2.125 0.078125 C 2.6875 0.078125 3.171875 -0.09375 3.5 -0.28125 Z M 3.453125 -0.859375 "/>
</g>
<g id="glyph-6-10">
<path d="M 1.34375 -5.515625 L 0.671875 -5.515625 L 0.671875 0 L 1.34375 0 Z M 1.34375 -5.515625 "/>
</g>
<g id="glyph-6-11">
<path d="M 1.34375 -5.515625 L 0.671875 -5.515625 L 0.671875 0 L 1.375 0 L 1.375 -0.375 C 1.546875 -0.21875 1.921875 0.078125 2.5 0.078125 C 3.375 0.078125 4.078125 -0.734375 4.078125 -1.78125 C 4.078125 -2.734375 3.515625 -3.609375 2.734375 -3.609375 C 2.234375 -3.609375 1.734375 -3.453125 1.34375 -3.15625 Z M 1.375 -2.5 C 1.375 -2.625 1.375 -2.734375 1.640625 -2.90625 C 1.765625 -2.984375 1.984375 -3.078125 2.25 -3.078125 C 2.78125 -3.078125 3.375 -2.734375 3.375 -1.78125 C 3.375 -0.796875 2.71875 -0.453125 2.15625 -0.453125 C 1.875 -0.453125 1.59375 -0.578125 1.375 -0.9375 Z M 1.375 -2.5 "/>
</g>
<g id="glyph-6-12">
<path d="M 3.703125 -3.53125 L 3 -3.53125 L 3 -1.21875 C 3 -0.59375 2.46875 -0.390625 2 -0.390625 C 1.421875 -0.390625 1.359375 -0.546875 1.359375 -0.921875 L 1.359375 -3.53125 L 0.65625 -3.53125 L 0.65625 -0.859375 C 0.65625 -0.15625 0.96875 0.078125 1.53125 0.078125 C 1.859375 0.078125 2.546875 0.015625 3.03125 -0.359375 L 3.03125 0 L 3.703125 0 Z M 3.703125 -3.53125 "/>
</g>
<g id="glyph-6-13">
<path d="M 3.984375 -1.734375 C 3.984375 -2.796875 3.140625 -3.65625 2.109375 -3.65625 C 1.078125 -3.65625 0.234375 -2.78125 0.234375 -1.734375 C 0.234375 -0.734375 1.078125 0.078125 2.109375 0.078125 C 3.140625 0.078125 3.984375 -0.734375 3.984375 -1.734375 Z M 2.109375 -0.46875 C 1.484375 -0.46875 0.9375 -0.9375 0.9375 -1.828125 C 0.9375 -2.734375 1.515625 -3.125 2.109375 -3.125 C 2.703125 -3.125 3.28125 -2.71875 3.28125 -1.828125 C 3.28125 -0.921875 2.71875 -0.46875 2.109375 -0.46875 Z M 2.109375 -0.46875 "/>
</g>
<g id="glyph-6-14">
<path d="M 2.203125 -1.828125 L 3.75 -3.53125 L 3.046875 -3.53125 L 1.921875 -2.234375 L 0.765625 -3.53125 L 0.046875 -3.53125 L 1.640625 -1.828125 L 0 0 L 0.703125 0 L 1.921875 -1.5 L 3.171875 0 L 3.890625 0 Z M 2.203125 -1.828125 "/>
</g>
<g id="glyph-6-15">
<path d="M 3.703125 -2.359375 C 3.703125 -2.96875 3.515625 -3.609375 2.53125 -3.609375 C 1.859375 -3.609375 1.484375 -3.21875 1.328125 -3.046875 L 1.328125 -5.515625 L 0.65625 -5.515625 L 0.65625 0 L 1.359375 0 L 1.359375 -1.9375 C 1.359375 -2.453125 1.578125 -3.078125 2.1875 -3.078125 C 3 -3.078125 3 -2.53125 3 -2.296875 L 3 0 L 3.703125 0 Z M 3.703125 -2.359375 "/>
</g>
<g id="glyph-6-16">
<path d="M 2.421875 -5.96875 C 2.296875 -5.96875 2.28125 -5.96875 2.171875 -5.875 C 1.171875 -5 0.671875 -3.59375 0.671875 -1.984375 C 0.671875 -0.484375 1.125 0.96875 2.171875 1.890625 C 2.28125 1.984375 2.296875 1.984375 2.421875 1.984375 L 2.8125 1.984375 C 2.78125 1.96875 2.015625 1.3125 1.640625 0.078125 C 1.453125 -0.546875 1.359375 -1.203125 1.359375 -1.984375 C 1.359375 -4.734375 2.640625 -5.828125 2.8125 -5.96875 Z M 2.421875 -5.96875 "/>
</g>
<g id="glyph-6-17">
<path d="M 5.640625 -3.53125 L 5.03125 -3.53125 C 4.953125 -3.3125 4.515625 -1.96875 4.265625 -1.140625 C 4.203125 -0.90625 4.125 -0.65625 4.09375 -0.46875 C 4.046875 -0.796875 3.765625 -1.65625 3.75 -1.703125 L 3.15625 -3.53125 L 2.546875 -3.53125 C 2.328125 -2.84375 1.71875 -1.0625 1.65625 -0.484375 C 1.59375 -1.046875 1 -2.8125 0.875 -3.1875 C 0.8125 -3.375 0.8125 -3.390625 0.765625 -3.53125 L 0.125 -3.53125 L 1.28125 0 L 1.953125 0 C 1.953125 -0.03125 2.171875 -0.65625 2.453125 -1.546875 C 2.5625 -1.9375 2.8125 -2.703125 2.84375 -3.046875 L 2.859375 -3.046875 C 2.875 -2.890625 2.921875 -2.71875 2.96875 -2.515625 C 3.03125 -2.3125 3.078125 -2.09375 3.140625 -1.921875 L 3.75 0 L 4.484375 0 Z M 5.640625 -3.53125 "/>
</g>
<g id="glyph-6-18">
<path d="M 0.84375 1.984375 C 0.984375 1.984375 1 1.984375 1.09375 1.90625 C 2.09375 1.03125 2.609375 -0.390625 2.609375 -1.984375 C 2.609375 -3.484375 2.15625 -4.9375 1.109375 -5.859375 C 1 -5.96875 0.984375 -5.96875 0.84375 -5.96875 L 0.46875 -5.96875 C 0.5 -5.953125 1.265625 -5.28125 1.625 -4.046875 C 1.828125 -3.421875 1.921875 -2.78125 1.921875 -1.984375 C 1.921875 0.765625 0.625 1.859375 0.46875 1.984375 Z M 0.84375 1.984375 "/>
</g>
<g id="glyph-7-0">
<path d="M 6.21875 -3.421875 C 6.21875 -4.71875 5.3125 -5.59375 4.03125 -5.59375 C 2.171875 -5.59375 0.40625 -3.765625 0.40625 -1.984375 C 0.40625 -0.765625 1.265625 0.171875 2.59375 0.171875 C 4.375 0.171875 6.21875 -1.546875 6.21875 -3.421875 Z M 2.671875 -0.09375 C 1.859375 -0.09375 1.1875 -0.671875 1.1875 -1.8125 C 1.1875 -1.9375 1.1875 -3.265625 2.109375 -4.390625 C 2.40625 -4.75 3.125 -5.359375 3.984375 -5.359375 C 4.765625 -5.359375 5.46875 -4.796875 5.46875 -3.703125 C 5.46875 -3.265625 5.3125 -2.015625 4.484375 -1.046875 C 4.03125 -0.5 3.34375 -0.09375 2.671875 -0.09375 Z M 2.671875 -0.09375 "/>
</g>
<g id="glyph-8-0">
<path d="M 6.046875 -2.640625 C 6.359375 -2.390625 6.6875 -2.1875 7.140625 -1.984375 C 6.75 -1.8125 6.390625 -1.625 6.046875 -1.328125 L 0.765625 -1.328125 C 0.625 -1.328125 0.46875 -1.328125 0.46875 -1.140625 C 0.46875 -0.96875 0.65625 -0.96875 0.796875 -0.96875 L 5.640625 -0.96875 C 5.0625 -0.3125 4.875 0.140625 4.875 0.171875 C 4.875 0.28125 4.984375 0.28125 5.046875 0.28125 C 5.171875 0.28125 5.1875 0.28125 5.265625 0.125 C 5.96875 -1.15625 7.015625 -1.65625 7.875 -1.875 C 7.921875 -1.890625 7.984375 -1.9375 7.984375 -1.984375 C 7.984375 -2.046875 7.921875 -2.078125 7.875 -2.09375 C 6.703125 -2.40625 5.828125 -3.0625 5.265625 -4.109375 C 5.1875 -4.25 5.171875 -4.265625 5.046875 -4.265625 C 4.984375 -4.265625 4.875 -4.265625 4.875 -4.15625 C 4.875 -4.109375 5.046875 -3.671875 5.640625 -3.015625 L 0.796875 -3.015625 C 0.65625 -3.015625 0.46875 -3.015625 0.46875 -2.828125 C 0.46875 -2.640625 0.625 -2.640625 0.765625 -2.640625 Z M 6.046875 -2.640625 "/>
</g>
<g id="glyph-9-0">
<path d="M 3.703125 -2.390625 C 3.703125 -2.578125 3.703125 -3.46875 2.984375 -3.46875 C 2.71875 -3.46875 2.390625 -3.34375 2.1875 -3.078125 C 2.03125 -3.359375 1.8125 -3.46875 1.578125 -3.46875 C 1.421875 -3.46875 1.15625 -3.421875 0.90625 -3.203125 C 0.859375 -3.421875 0.671875 -3.421875 0.5625 -3.421875 L 0.296875 -3.421875 C 0.1875 -3.421875 -0.046875 -3.421875 -0.046875 -3.171875 C -0.046875 -2.90625 0.15625 -2.90625 0.40625 -2.90625 L 0.40625 -0.53125 C 0.15625 -0.53125 -0.046875 -0.53125 -0.046875 -0.265625 C -0.046875 0 0.1875 0 0.296875 0 L 1 0 C 1.125 0 1.34375 0 1.34375 -0.265625 C 1.34375 -0.53125 1.15625 -0.53125 0.90625 -0.53125 L 0.90625 -1.921875 C 0.90625 -2.578125 1.234375 -2.9375 1.5625 -2.9375 C 1.71875 -2.9375 1.8125 -2.765625 1.8125 -2.359375 L 1.8125 -0.53125 C 1.71875 -0.53125 1.5 -0.53125 1.5 -0.265625 C 1.5 0 1.71875 0 1.84375 0 L 2.40625 0 C 2.515625 0 2.75 0 2.75 -0.265625 C 2.75 -0.53125 2.546875 -0.53125 2.296875 -0.53125 L 2.296875 -1.921875 C 2.296875 -2.578125 2.640625 -2.9375 2.953125 -2.9375 C 3.125 -2.9375 3.203125 -2.765625 3.203125 -2.359375 L 3.203125 -0.53125 C 3.125 -0.53125 2.890625 -0.53125 2.890625 -0.265625 C 2.890625 0 3.125 0 3.234375 0 L 3.796875 0 C 3.921875 0 4.140625 0 4.140625 -0.265625 C 4.140625 -0.53125 3.953125 -0.53125 3.703125 -0.53125 Z M 3.703125 -2.390625 "/>
</g>
<g id="glyph-9-1">
<path d="M 3.390625 -1.5 C 3.546875 -1.5 3.734375 -1.5 3.734375 -1.796875 C 3.734375 -2.75 3.203125 -3.484375 2.171875 -3.484375 C 1.1875 -3.484375 0.421875 -2.703125 0.421875 -1.71875 C 0.421875 -0.78125 1.21875 0.046875 2.296875 0.046875 C 3.390625 0.046875 3.734375 -0.65625 3.734375 -0.859375 C 3.734375 -1.03125 3.609375 -1.109375 3.4375 -1.109375 C 3.296875 -1.109375 3.21875 -1.09375 3.140625 -0.921875 C 2.984375 -0.5625 2.59375 -0.484375 2.34375 -0.484375 C 1.75 -0.484375 1.171875 -0.859375 1.046875 -1.5 Z M 1.0625 -2.015625 C 1.171875 -2.5625 1.640625 -2.96875 2.171875 -2.96875 C 2.890625 -2.96875 3.0625 -2.40625 3.125 -2.015625 Z M 1.0625 -2.015625 "/>
</g>
<g id="glyph-9-2">
<path d="M 1.796875 -1.453125 C 1.796875 -2.328125 2.421875 -2.9375 3.1875 -2.9375 C 3.203125 -2.625 3.421875 -2.5625 3.5625 -2.5625 C 3.75 -2.5625 3.921875 -2.71875 3.921875 -2.9375 C 3.921875 -3.140625 3.78125 -3.46875 3.15625 -3.46875 C 2.421875 -3.46875 2 -3.046875 1.796875 -2.84375 L 1.796875 -3.078125 C 1.796875 -3.359375 1.71875 -3.421875 1.453125 -3.421875 L 0.59375 -3.421875 C 0.484375 -3.421875 0.234375 -3.421875 0.234375 -3.171875 C 0.234375 -2.90625 0.484375 -2.90625 0.59375 -2.90625 L 1.1875 -2.90625 L 1.1875 -0.53125 L 0.59375 -0.53125 C 0.484375 -0.53125 0.234375 -0.53125 0.234375 -0.265625 C 0.234375 0 0.484375 0 0.59375 0 L 2.640625 0 C 2.765625 0 2.984375 0 2.984375 -0.265625 C 2.984375 -0.53125 2.765625 -0.53125 2.640625 -0.53125 L 1.796875 -0.53125 Z M 1.796875 -1.453125 "/>
</g>
<g id="glyph-9-3">
<path d="M 1.15625 -1.09375 C 1.28125 -1.015625 1.546875 -0.90625 1.875 -0.90625 C 2.640625 -0.90625 3.234375 -1.5 3.234375 -2.1875 C 3.234375 -2.46875 3.125 -2.71875 3.03125 -2.859375 C 3.1875 -2.953125 3.28125 -2.953125 3.40625 -2.96875 C 3.453125 -2.78125 3.609375 -2.703125 3.75 -2.703125 C 3.9375 -2.703125 4.09375 -2.84375 4.09375 -3.03125 C 4.09375 -3.28125 3.890625 -3.5 3.484375 -3.5 C 3.28125 -3.5 2.9375 -3.4375 2.65625 -3.234375 C 2.578125 -3.28125 2.28125 -3.46875 1.875 -3.46875 C 1.109375 -3.46875 0.515625 -2.875 0.515625 -2.1875 C 0.515625 -1.9375 0.609375 -1.65625 0.765625 -1.453125 C 0.703125 -1.34375 0.609375 -1.125 0.609375 -0.90625 C 0.609375 -0.671875 0.703125 -0.453125 0.796875 -0.328125 C 0.46875 -0.140625 0.234375 0.25 0.234375 0.640625 C 0.234375 1.34375 1.09375 1.8125 2.109375 1.8125 C 3.125 1.8125 3.984375 1.34375 3.984375 0.640625 C 3.984375 -0.0625 3.375 -0.46875 2.515625 -0.5 C 2.28125 -0.515625 1.6875 -0.5 1.46875 -0.53125 C 1.109375 -0.53125 1.109375 -0.90625 1.109375 -0.90625 C 1.109375 -1 1.140625 -1.0625 1.15625 -1.09375 Z M 1.875 -1.421875 C 1.46875 -1.421875 1.125 -1.75 1.125 -2.1875 C 1.125 -2.609375 1.46875 -2.953125 1.875 -2.953125 C 2.28125 -2.953125 2.625 -2.609375 2.625 -2.1875 C 2.625 -1.78125 2.296875 -1.421875 1.875 -1.421875 Z M 1.890625 -0.015625 C 2.578125 -0.015625 3.46875 -0.015625 3.46875 0.640625 C 3.46875 0.96875 2.90625 1.296875 2.109375 1.296875 C 1.296875 1.296875 0.734375 0.953125 0.734375 0.640625 C 0.734375 0.328125 1.03125 0 1.453125 -0.015625 Z M 1.890625 -0.015625 "/>
</g>
</g>
<clipPath id="clip-0">
<path clip-rule="nonzero" d="M 0.269531 0 L 95 0 L 95 50 L 0.269531 50 Z M 0.269531 0 "/>
</clipPath>
</defs>
<path fill-rule="nonzero" fill="rgb(90.078735%, 95.176697%, 97.802734%)" fill-opacity="1" d="M 79.738281 10.335938 L 14.582031 10.335938 C 12.386719 10.335938 10.605469 12.117188 10.605469 14.3125 L 10.605469 34.644531 C 10.605469 36.84375 12.386719 38.621094 14.582031 38.621094 L 79.738281 38.621094 C 81.9375 38.621094 83.714844 36.84375 83.714844 34.644531 L 83.714844 14.3125 C 83.714844 12.117188 81.9375 10.335938 79.738281 10.335938 Z M 79.738281 10.335938 "/>
<g clip-path="url(#clip-0)">
<path fill="none" stroke-width="0.79701" stroke-linecap="butt" stroke-linejoin="miter" stroke="rgb(0.782776%, 51.763916%, 78.039551%)" stroke-opacity="1" stroke-miterlimit="10" d="M 32.64894 14.175238 L -32.651192 14.175238 C -34.851352 14.175238 -36.636536 12.390055 -36.636536 10.189894 L -36.636536 -10.187035 C -36.636536 -12.39111 -34.851352 -14.172379 -32.651192 -14.172379 L 32.64894 -14.172379 C 34.853015 -14.172379 36.634283 -12.39111 36.634283 -10.187035 L 36.634283 10.189894 C 36.634283 12.390055 34.853015 14.175238 32.64894 14.175238 Z M 32.64894 14.175238 " transform="matrix(0.997797, 0, 0, -0.997797, 47.16128, 24.479942)"/>
</g>
<g fill="rgb(4.705811%, 29.019165%, 43.136597%)" fill-opacity="1">
<use xlink:href="#glyph-0-0" x="16.571829" y="26.965453"/>
</g>
<g fill="rgb(4.705811%, 29.019165%, 43.136597%)" fill-opacity="1">
<use xlink:href="#glyph-1-0" x="21.265804" y="26.965453"/>
</g>
<g fill="rgb(4.705811%, 29.019165%, 43.136597%)" fill-opacity="1">
<use xlink:href="#glyph-2-0" x="29.126868" y="26.965453"/>
</g>
<g fill="rgb(4.705811%, 29.019165%, 43.136597%)" fill-opacity="1">
<use xlink:href="#glyph-3-0" x="32.992787" y="26.965453"/>
<use xlink:href="#glyph-3-1" x="38.321968" y="26.965453"/>
<use xlink:href="#glyph-3-2" x="43.458301" y="26.965453"/>
<use xlink:href="#glyph-3-3" x="45.833122" y="26.965453"/>
<use xlink:href="#glyph-3-4" x="49.643373" y="26.965453"/>
</g>
<g fill="rgb(4.705811%, 29.019165%, 43.136597%)" fill-opacity="1">
<use xlink:href="#glyph-2-1" x="54.779706" y="26.965453"/>
</g>
<g fill="rgb(4.705811%, 29.019165%, 43.136597%)" fill-opacity="1">
<use xlink:href="#glyph-1-1" x="58.645624" y="26.965453"/>
</g>
<g fill="rgb(4.705811%, 29.019165%, 43.136597%)" fill-opacity="1">
<use xlink:href="#glyph-3-5" x="63.057284" y="26.965453"/>
<use xlink:href="#glyph-3-1" x="67.474908" y="26.965453"/>
<use xlink:href="#glyph-3-6" x="72.611241" y="26.965453"/>
</g>
<path fill-rule="nonzero" fill="rgb(90.078735%, 95.176697%, 97.802734%)" fill-opacity="1" stroke-width="0.79701" stroke-linecap="butt" stroke-linejoin="miter" stroke="rgb(0.782776%, 51.763916%, 78.039551%)" stroke-opacity="1" stroke-miterlimit="10" d="M 22.575964 -43.318631 L -22.578216 -43.318631 C -24.778376 -43.318631 -26.56356 -45.099899 -26.56356 -47.303975 L -26.56356 -67.676989 C -26.56356 -69.881064 -24.778376 -71.662333 -22.578216 -71.662333 L 22.575964 -71.662333 C 24.776124 -71.662333 26.561307 -69.881064 26.561307 -67.676989 L 26.561307 -47.303975 C 26.561307 -45.099899 24.776124 -43.318631 22.575964 -43.318631 Z M 22.575964 -43.318631 " transform="matrix(0.997797, 0, 0, -0.997797, 47.16128, 24.479942)"/>
<g fill="rgb(4.705811%, 29.019165%, 43.136597%)" fill-opacity="1">
<use xlink:href="#glyph-0-0" x="26.622635" y="84.328781"/>
</g>
<g fill="rgb(4.705811%, 29.019165%, 43.136597%)" fill-opacity="1">
<use xlink:href="#glyph-1-0" x="31.316609" y="84.328781"/>
</g>
<g fill="rgb(4.705811%, 29.019165%, 43.136597%)" fill-opacity="1">
<use xlink:href="#glyph-2-0" x="39.177674" y="84.328781"/>
</g>
<g fill="rgb(4.705811%, 29.019165%, 43.136597%)" fill-opacity="1">
<use xlink:href="#glyph-3-7" x="43.043592" y="84.328781"/>
<use xlink:href="#glyph-3-8" x="47.821068" y="84.328781"/>
<use xlink:href="#glyph-3-9" x="52.238692" y="84.328781"/>
</g>
<g fill="rgb(4.705811%, 29.019165%, 43.136597%)" fill-opacity="1">
<use xlink:href="#glyph-2-1" x="55.82826" y="84.328781"/>
</g>
<g fill="rgb(4.705811%, 29.019165%, 43.136597%)" fill-opacity="1">
<use xlink:href="#glyph-1-1" x="59.694178" y="84.328781"/>
</g>
<g fill="rgb(4.705811%, 29.019165%, 43.136597%)" fill-opacity="1">
<use xlink:href="#glyph-1-2" x="64.105838" y="84.328781"/>
</g>
<g fill="rgb(5.097961%, 58.036804%, 53.33252%)" fill-opacity="1">
<use xlink:href="#glyph-4-0" x="95.927592" y="57.137825"/>
</g>
<path fill-rule="nonzero" fill="rgb(88.328552%, 92.1875%, 94.259644%)" fill-opacity="1" stroke-width="0.79701" stroke-linecap="butt" stroke-linejoin="miter" stroke="rgb(2.74353%, 34.902954%, 52.157593%)" stroke-opacity="1" stroke-miterlimit="10" d="M 205.50246 -9.815122 L 111.698116 -9.815122 C 109.497955 -9.815122 107.712772 -11.600305 107.712772 -13.800466 L 107.712772 -43.690544 C 107.712772 -45.890704 109.497955 -47.675888 111.698116 -47.675888 L 205.50246 -47.675888 C 207.70262 -47.675888 209.487803 -45.890704 209.487803 -43.690544 L 209.487803 -13.800466 C 209.487803 -11.600305 207.70262 -9.815122 205.50246 -9.815122 Z M 205.50246 -9.815122 " transform="matrix(0.997797, 0, 0, -0.997797, 47.16128, 24.479942)"/>
<g fill="rgb(4.705811%, 29.019165%, 43.136597%)" fill-opacity="1">
<use xlink:href="#glyph-0-1" x="160.598781" y="55.647117"/>
</g>
<g fill="rgb(4.705811%, 29.019165%, 43.136597%)" fill-opacity="1">
<use xlink:href="#glyph-1-0" x="169.990706" y="55.647117"/>
</g>
<g fill="rgb(4.705811%, 29.019165%, 43.136597%)" fill-opacity="1">
<use xlink:href="#glyph-5-0" x="179.503036" y="44.612484"/>
</g>
<g fill="rgb(4.705811%, 29.019165%, 43.136597%)" fill-opacity="1">
<use xlink:href="#glyph-3-0" x="193.861329" y="48.588704"/>
<use xlink:href="#glyph-3-1" x="199.19051" y="48.588704"/>
<use xlink:href="#glyph-3-2" x="204.326844" y="48.588704"/>
<use xlink:href="#glyph-3-3" x="206.701664" y="48.588704"/>
<use xlink:href="#glyph-3-4" x="210.511915" y="48.588704"/>
</g>
<g fill="rgb(4.705811%, 29.019165%, 43.136597%)" fill-opacity="1">
<use xlink:href="#glyph-0-2" x="218.411748" y="48.588704"/>
</g>
<g fill="rgb(4.705811%, 29.019165%, 43.136597%)" fill-opacity="1">
<use xlink:href="#glyph-3-5" x="223.936761" y="48.588704"/>
<use xlink:href="#glyph-3-1" x="228.354385" y="48.588704"/>
<use xlink:href="#glyph-3-6" x="233.490718" y="48.588704"/>
</g>
<g fill="rgb(4.705811%, 29.019165%, 43.136597%)" fill-opacity="1">
<use xlink:href="#glyph-3-7" x="193.861329" y="62.505971"/>
<use xlink:href="#glyph-3-8" x="198.638804" y="62.505971"/>
<use xlink:href="#glyph-3-9" x="203.056429" y="62.505971"/>
</g>
<g fill="rgb(4.705811%, 29.019165%, 43.136597%)" fill-opacity="1">
<use xlink:href="#glyph-0-2" x="209.409497" y="62.505971"/>
</g>
<g fill="rgb(4.705811%, 29.019165%, 43.136597%)" fill-opacity="1">
<use xlink:href="#glyph-1-2" x="214.93451" y="62.505971"/>
</g>
<g fill="rgb(4.705811%, 29.019165%, 43.136597%)" fill-opacity="1">
<use xlink:href="#glyph-5-1" x="243.59251" y="44.612484"/>
</g>
<path fill="none" stroke-width="0.3985" stroke-linecap="butt" stroke-linejoin="miter" stroke="rgb(0.782776%, 51.763916%, 78.039551%)" stroke-opacity="1" stroke-miterlimit="10" d="M 27.187688 -14.571696 L 39.535206 -21.183922 " transform="matrix(0.997797, 0, 0, -0.997797, 47.16128, 24.479942)"/>
<path fill-rule="nonzero" fill="rgb(0.782776%, 51.763916%, 78.039551%)" fill-opacity="1" stroke-width="0.3985" stroke-linecap="butt" stroke-linejoin="miter" stroke="rgb(0.782776%, 51.763916%, 78.039551%)" stroke-opacity="1" stroke-miterlimit="10" d="M 5.783671 0.00120557 C 5.071299 0.170396 1.950697 1.146075 -0.00221116 2.205295 L 0.000564226 -2.203283 C 1.951889 -1.144922 5.072119 -0.171134 5.783671 0.00120557 Z M 5.783671 0.00120557 " transform="matrix(0.879558, 0.47105, 0.47105, -0.879558, 86.607672, 45.616507)"/>
<path fill="none" stroke-width="0.3985" stroke-linecap="butt" stroke-linejoin="miter" stroke="rgb(0.782776%, 51.763916%, 78.039551%)" stroke-opacity="1" stroke-miterlimit="10" d="M 26.960625 -43.052419 L 39.535206 -36.311003 " transform="matrix(0.997797, 0, 0, -0.997797, 47.16128, 24.479942)"/>
<path fill-rule="nonzero" fill="rgb(0.782776%, 51.763916%, 78.039551%)" fill-opacity="1" stroke-width="0.3985" stroke-linecap="butt" stroke-linejoin="miter" stroke="rgb(0.782776%, 51.763916%, 78.039551%)" stroke-opacity="1" stroke-miterlimit="10" d="M 5.783447 -0.00120806 C 5.071966 0.171441 1.952142 1.146589 0.00126571 2.205804 L 0.000026799 -2.204648 C 1.949955 -1.144419 5.074449 -0.17194 5.783447 -0.00120806 Z M 5.783447 -0.00120806 " transform="matrix(0.879348, -0.471429, -0.471429, -0.879348, 86.609079, 60.709797)"/>
<path fill="none" stroke-width="1.19553" stroke-linecap="butt" stroke-linejoin="miter" stroke="rgb(5.097961%, 58.036804%, 53.33252%)" stroke-opacity="1" stroke-miterlimit="10" d="M 61.959616 -28.743547 L 101.108376 -28.743547 " transform="matrix(0.997797, 0, 0, -0.997797, 47.16128, 24.479942)"/>
<path fill-rule="nonzero" fill="rgb(5.097961%, 58.036804%, 53.33252%)" fill-opacity="1" stroke-width="1.19553" stroke-linecap="butt" stroke-linejoin="miter" stroke="rgb(5.097961%, 58.036804%, 53.33252%)" stroke-opacity="1" stroke-miterlimit="10" d="M 3.742748 0.00174254 C 3.280792 0.119189 1.260716 0.784718 0.000126168 1.50897 L 0.000126168 -1.5094 C 1.260716 -0.785148 3.280792 -0.119619 3.742748 0.00174254 Z M 3.742748 0.00174254 " transform="matrix(0.997797, 0, 0, -0.997797, 148.046749, 53.161895)"/>
<g fill="rgb(5.097961%, 58.036804%, 53.33252%)" fill-opacity="1">
<use xlink:href="#glyph-6-0" x="105.407657" y="49.252238"/>
<use xlink:href="#glyph-6-1" x="108.646726" y="49.252238"/>
<use xlink:href="#glyph-6-2" x="112.705702" y="49.252238"/>
<use xlink:href="#glyph-6-3" x="119.416054" y="49.252238"/>
</g>
<g fill="rgb(5.097961%, 58.036804%, 53.33252%)" fill-opacity="1">
<use xlink:href="#glyph-6-0" x="125.986442" y="49.252238"/>
<use xlink:href="#glyph-6-3" x="129.225511" y="49.252238"/>
<use xlink:href="#glyph-6-4" x="132.9807" y="49.252238"/>
<use xlink:href="#glyph-6-5" x="137.343462" y="49.252238"/>
<use xlink:href="#glyph-6-3" x="141.706225" y="49.252238"/>
<use xlink:href="#glyph-6-6" x="145.461414" y="49.252238"/>
</g>
<g fill="rgb(5.097961%, 58.036804%, 53.33252%)" fill-opacity="1">
<use xlink:href="#glyph-7-0" x="151.162589" y="49.252238"/>
</g>
<g fill="rgb(4.705811%, 29.019165%, 43.136597%)" fill-opacity="1">
<use xlink:href="#glyph-6-5" x="117.011034" y="92.795085"/>
<use xlink:href="#glyph-6-7" x="121.373797" y="92.795085"/>
<use xlink:href="#glyph-6-0" x="123.389765" y="92.795085"/>
<use xlink:href="#glyph-6-8" x="126.628834" y="92.795085"/>
<use xlink:href="#glyph-6-7" x="129.680223" y="92.795085"/>
<use xlink:href="#glyph-6-4" x="131.696192" y="92.795085"/>
<use xlink:href="#glyph-6-9" x="136.058955" y="92.795085"/>
<use xlink:href="#glyph-6-8" x="139.814144" y="92.795085"/>
</g>
<g fill="rgb(4.705811%, 29.019165%, 43.136597%)" fill-opacity="1">
<use xlink:href="#glyph-6-10" x="145.680731" y="92.795085"/>
<use xlink:href="#glyph-6-1" x="147.6967" y="92.795085"/>
<use xlink:href="#glyph-6-11" x="151.755676" y="92.795085"/>
</g>
<g fill="rgb(4.705811%, 29.019165%, 43.136597%)" fill-opacity="1">
<use xlink:href="#glyph-6-3" x="156.357015" y="92.795085"/>
<use xlink:href="#glyph-6-10" x="160.112203" y="92.795085"/>
<use xlink:href="#glyph-6-0" x="162.128172" y="92.795085"/>
</g>
<g fill="rgb(4.705811%, 29.019165%, 43.136597%)" fill-opacity="1">
<use xlink:href="#glyph-8-0" x="168.18244" y="92.795085"/>
</g>
<g fill="rgb(4.705811%, 29.019165%, 43.136597%)" fill-opacity="1">
<use xlink:href="#glyph-6-12" x="179.447211" y="92.795085"/>
<use xlink:href="#glyph-6-4" x="183.809974" y="92.795085"/>
<use xlink:href="#glyph-6-7" x="188.172737" y="92.795085"/>
<use xlink:href="#glyph-6-13" x="190.188705" y="92.795085"/>
<use xlink:href="#glyph-6-4" x="194.413889" y="92.795085"/>
<use xlink:href="#glyph-6-3" x="198.776652" y="92.795085"/>
<use xlink:href="#glyph-6-5" x="202.53184" y="92.795085"/>
</g>
<g fill="rgb(4.705811%, 29.019165%, 43.136597%)" fill-opacity="1">
<use xlink:href="#glyph-6-7" x="209.709802" y="92.795085"/>
<use xlink:href="#glyph-6-4" x="211.725771" y="92.795085"/>
<use xlink:href="#glyph-6-8" x="216.088533" y="92.795085"/>
<use xlink:href="#glyph-6-13" x="219.139922" y="92.795085"/>
</g>
<g fill="rgb(4.705811%, 29.019165%, 43.136597%)" fill-opacity="1">
<use xlink:href="#glyph-6-13" x="226.180305" y="92.795085"/>
<use xlink:href="#glyph-6-4" x="230.405489" y="92.795085"/>
<use xlink:href="#glyph-6-3" x="234.768252" y="92.795085"/>
</g>
<g fill="rgb(4.705811%, 29.019165%, 43.136597%)" fill-opacity="1">
<use xlink:href="#glyph-6-3" x="241.338639" y="92.795085"/>
</g>
<g fill="rgb(4.705811%, 29.019165%, 43.136597%)" fill-opacity="1">
<use xlink:href="#glyph-6-14" x="245.10178" y="92.795085"/>
<use xlink:href="#glyph-6-8" x="248.995343" y="92.795085"/>
<use xlink:href="#glyph-6-3" x="252.046733" y="92.795085"/>
<use xlink:href="#glyph-6-6" x="255.801921" y="92.795085"/>
</g>
<g fill="rgb(4.705811%, 29.019165%, 43.136597%)" fill-opacity="1">
<use xlink:href="#glyph-6-4" x="258.679945" y="92.795085"/>
<use xlink:href="#glyph-6-1" x="263.042708" y="92.795085"/>
</g>
<g fill="rgb(4.705811%, 29.019165%, 43.136597%)" fill-opacity="1">
<use xlink:href="#glyph-6-10" x="267.109636" y="92.795085"/>
</g>
<g fill="rgb(4.705811%, 29.019165%, 43.136597%)" fill-opacity="1">
<use xlink:href="#glyph-6-9" x="271.940804" y="92.795085"/>
<use xlink:href="#glyph-6-15" x="275.695992" y="92.795085"/>
<use xlink:href="#glyph-6-13" x="280.058755" y="92.795085"/>
<use xlink:href="#glyph-6-7" x="284.283939" y="92.795085"/>
<use xlink:href="#glyph-6-9" x="286.299908" y="92.795085"/>
<use xlink:href="#glyph-6-3" x="290.055096" y="92.795085"/>
</g>
<g fill="rgb(4.705811%, 29.019165%, 43.136597%)" fill-opacity="1">
<use xlink:href="#glyph-6-16" x="111.645882" y="102.238232"/>
<use xlink:href="#glyph-6-0" x="114.931871" y="102.238232"/>
<use xlink:href="#glyph-6-15" x="118.17094" y="102.238232"/>
<use xlink:href="#glyph-6-1" x="122.533702" y="102.238232"/>
</g>
<g fill="rgb(4.705811%, 29.019165%, 43.136597%)" fill-opacity="1">
<use xlink:href="#glyph-6-6" x="126.354102" y="102.238232"/>
<use xlink:href="#glyph-6-3" x="129.240078" y="102.238232"/>
<use xlink:href="#glyph-6-5" x="132.995267" y="102.238232"/>
</g>
<g fill="rgb(4.705811%, 29.019165%, 43.136597%)" fill-opacity="1">
<use xlink:href="#glyph-6-10" x="140.181181" y="102.238232"/>
<use xlink:href="#glyph-6-1" x="142.19715" y="102.238232"/>
<use xlink:href="#glyph-6-11" x="146.256125" y="102.238232"/>
</g>
<g fill="rgb(4.705811%, 29.019165%, 43.136597%)" fill-opacity="1">
<use xlink:href="#glyph-6-3" x="150.849512" y="102.238232"/>
<use xlink:href="#glyph-6-10" x="154.604701" y="102.238232"/>
<use xlink:href="#glyph-6-0" x="156.620669" y="102.238232"/>
</g>
<g fill="rgb(4.705811%, 29.019165%, 43.136597%)" fill-opacity="1">
<use xlink:href="#glyph-6-17" x="162.674937" y="102.238232"/>
</g>
<g fill="rgb(4.705811%, 29.019165%, 43.136597%)" fill-opacity="1">
<use xlink:href="#glyph-6-13" x="168.215471" y="102.238232"/>
<use xlink:href="#glyph-6-12" x="172.440655" y="102.238232"/>
<use xlink:href="#glyph-6-10" x="176.803417" y="102.238232"/>
<use xlink:href="#glyph-6-5" x="178.819386" y="102.238232"/>
</g>
<g fill="rgb(4.705811%, 29.019165%, 43.136597%)" fill-opacity="1">
<use xlink:href="#glyph-6-6" x="185.997347" y="102.238232"/>
<use xlink:href="#glyph-6-3" x="188.883324" y="102.238232"/>
<use xlink:href="#glyph-6-9" x="192.638513" y="102.238232"/>
<use xlink:href="#glyph-6-12" x="196.393701" y="102.238232"/>
<use xlink:href="#glyph-6-6" x="200.756464" y="102.238232"/>
<use xlink:href="#glyph-6-0" x="203.64244" y="102.238232"/>
<use xlink:href="#glyph-6-3" x="206.881509" y="102.238232"/>
</g>
<g fill="rgb(4.705811%, 29.019165%, 43.136597%)" fill-opacity="1">
<use xlink:href="#glyph-9-0" x="213.451897" y="102.238232"/>
<use xlink:href="#glyph-9-1" x="217.677081" y="102.238232"/>
<use xlink:href="#glyph-9-2" x="221.902265" y="102.238232"/>
<use xlink:href="#glyph-9-3" x="226.127449" y="102.238232"/>
<use xlink:href="#glyph-9-1" x="230.352632" y="102.238232"/>
</g>
<g fill="rgb(4.705811%, 29.019165%, 43.136597%)" fill-opacity="1">
<use xlink:href="#glyph-6-13" x="237.393015" y="102.238232"/>
<use xlink:href="#glyph-6-4" x="241.618199" y="102.238232"/>
</g>
<g fill="rgb(4.705811%, 29.019165%, 43.136597%)" fill-opacity="1">
<use xlink:href="#glyph-6-9" x="248.79616" y="102.238232"/>
<use xlink:href="#glyph-6-13" x="252.551349" y="102.238232"/>
<use xlink:href="#glyph-6-4" x="256.776533" y="102.238232"/>
<use xlink:href="#glyph-6-8" x="261.139296" y="102.238232"/>
<use xlink:href="#glyph-6-7" x="264.190685" y="102.238232"/>
<use xlink:href="#glyph-6-4" x="266.206653" y="102.238232"/>
<use xlink:href="#glyph-6-12" x="270.569416" y="102.238232"/>
<use xlink:href="#glyph-6-1" x="274.932179" y="102.238232"/>
<use xlink:href="#glyph-6-8" x="278.991155" y="102.238232"/>
<use xlink:href="#glyph-6-7" x="282.042544" y="102.238232"/>
<use xlink:href="#glyph-6-13" x="284.058512" y="102.238232"/>
<use xlink:href="#glyph-6-4" x="288.283696" y="102.238232"/>
<use xlink:href="#glyph-6-0" x="292.646459" y="102.238232"/>
<use xlink:href="#glyph-6-18" x="295.885528" y="102.238232"/>
</g>
</svg>
