<?xml version="1.0" encoding="UTF-8" standalone="no"?>
<!DOCTYPE svg PUBLIC "-//W3C//DTD SVG 1.1//EN"
 "http://www.w3.org/Graphics/SVG/1.1/DTD/svg11.dtd">
<!-- Generated by graphviz version 14.1.5 (0)
 -->
<!-- Title: mixture Pages: 1 -->
<svg width="495pt" height="265pt"
 viewBox="0.00 0.00 495.00 265.00" xmlns="http://www.w3.org/2000/svg" xmlns:xlink="http://www.w3.org/1999/xlink">
<g id="graph0" class="graph" transform="scale(1 1) rotate(0) translate(4 261.32)">
<title>mixture</title>
<!-- O -->
<g id="node1" class="node">
<title>O</title>
<polygon fill="#e0e7ff" stroke="#3730a3" points="81.25,-148.5 4,-148.5 0,-144.5 0,-109 77.25,-109 81.25,-113 81.25,-148.5"/>
<polyline fill="none" stroke="#3730a3" points="77.25,-144.5 0,-144.5"/>
<polyline fill="none" stroke="#3730a3" points="77.25,-144.5 77.25,-109"/>
<polyline fill="none" stroke="#3730a3" points="77.25,-144.5 81.25,-148.5"/>
<text xml:space="preserve" text-anchor="middle" x="40.62" y="-134.05" font-family="Inter" font-size="11.00" fill="#1e1b4b">O</text>
<text xml:space="preserve" text-anchor="middle" x="40.62" y="-118.3" font-family="Inter" font-size="11.00" fill="#1e1b4b">Orchestrator</text>
</g>
<!-- Sp1 -->
<g id="node2" class="node">
<title>Sp1</title>
<path fill="#e0f2fe" stroke="#075985" d="M219,-254.75C219,-254.75 189,-254.75 189,-254.75 183,-254.75 177,-248.75 177,-242.75 177,-242.75 177,-230.75 177,-230.75 177,-224.75 183,-218.75 189,-218.75 189,-218.75 219,-218.75 219,-218.75 225,-218.75 231,-224.75 231,-230.75 231,-230.75 231,-242.75 231,-242.75 231,-248.75 225,-254.75 219,-254.75"/>
<text xml:space="preserve" text-anchor="middle" x="204" y="-234.18" font-family="Inter" font-size="11.00" fill="#0c4a6e">Sp₁</text>
</g>
<!-- O&#45;&gt;Sp1 -->
<g id="edge1" class="edge">
<title>O&#45;&gt;Sp1</title>
<path fill="none" stroke="#059669" d="M46.4,-148.98C53.39,-173.59 69.01,-214.14 99.25,-232.75 118.72,-244.73 144.36,-245.82 165.28,-243.87"/>
<polygon fill="#059669" stroke="#059669" points="165.65,-247.36 175.15,-242.67 164.8,-240.41 165.65,-247.36"/>
<text xml:space="preserve" text-anchor="middle" x="122.88" y="-248.77" font-family="Inter" font-size="9.00">query</text>
</g>
<!-- Sp2 -->
<g id="node3" class="node">
<title>Sp2</title>
<path fill="#e0f2fe" stroke="#075985" d="M219,-173.75C219,-173.75 189,-173.75 189,-173.75 183,-173.75 177,-167.75 177,-161.75 177,-161.75 177,-149.75 177,-149.75 177,-143.75 183,-137.75 189,-137.75 189,-137.75 219,-137.75 219,-137.75 225,-137.75 231,-143.75 231,-149.75 231,-149.75 231,-161.75 231,-161.75 231,-167.75 225,-173.75 219,-173.75"/>
<text xml:space="preserve" text-anchor="middle" x="204" y="-153.18" font-family="Inter" font-size="11.00" fill="#0c4a6e">Sp₂</text>
</g>
<!-- O&#45;&gt;Sp2 -->
<g id="edge2" class="edge">
<title>O&#45;&gt;Sp2</title>
<path fill="none" stroke="#059669" d="M71.21,-148.91C79.87,-153.76 89.61,-158.25 99.25,-160.75 120.7,-166.31 145.46,-165.38 165.42,-162.91"/>
<polygon fill="#059669" stroke="#059669" points="165.65,-166.41 175.05,-161.53 164.65,-159.48 165.65,-166.41"/>
<text xml:space="preserve" text-anchor="middle" x="122.88" y="-169.06" font-family="Inter" font-size="9.00">query</text>
</g>
<!-- Sp3 -->
<g id="node4" class="node">
<title>Sp3</title>
<path fill="#e0f2fe" stroke="#075985" d="M224.38,-101.75C224.38,-101.75 183.62,-101.75 183.62,-101.75 177.62,-101.75 171.62,-95.75 171.62,-89.75 171.62,-89.75 171.62,-77.75 171.62,-77.75 171.62,-71.75 177.62,-65.75 183.62,-65.75 183.62,-65.75 224.38,-65.75 224.38,-65.75 230.38,-65.75 236.38,-71.75 236.38,-77.75 236.38,-77.75 236.38,-89.75 236.38,-89.75 236.38,-95.75 230.38,-101.75 224.38,-101.75"/>
<text xml:space="preserve" text-anchor="middle" x="204" y="-81.17" font-family="Inter" font-size="11.00" fill="#0c4a6e">Sp₃ … Spₙ</text>
</g>
<!-- O&#45;&gt;Sp3 -->
<g id="edge3" class="edge">
<title>O&#45;&gt;Sp3</title>
<path fill="none" stroke="#059669" d="M81.52,-117.63C105.37,-110.98 135.67,-102.53 160.04,-95.73"/>
<polygon fill="#059669" stroke="#059669" points="160.98,-99.1 169.67,-93.04 159.1,-92.36 160.98,-99.1"/>
<text xml:space="preserve" text-anchor="middle" x="122.88" y="-115.8" font-family="Inter" font-size="9.00">query</text>
</g>
<!-- Sum -->
<g id="node5" class="node">
<title>Sum</title>
<path fill="#d1fae5" stroke="#047857" d="M231.5,-39.5C231.5,-39.5 176.5,-39.5 176.5,-39.5 170.5,-39.5 164.5,-33.5 164.5,-27.5 164.5,-27.5 164.5,-12 164.5,-12 164.5,-6 170.5,0 176.5,0 176.5,0 231.5,0 231.5,0 237.5,0 243.5,-6 243.5,-12 243.5,-12 243.5,-27.5 243.5,-27.5 243.5,-33.5 237.5,-39.5 231.5,-39.5"/>
<text xml:space="preserve" text-anchor="middle" x="204" y="-25.05" font-family="Inter" font-size="11.00" fill="#065f46">Sum</text>
<text xml:space="preserve" text-anchor="middle" x="204" y="-9.3" font-family="Inter" font-size="11.00" fill="#065f46">Summarizer</text>
</g>
<!-- O&#45;&gt;Sum -->
<g id="edge7" class="edge">
<title>O&#45;&gt;Sum</title>
<path fill="none" stroke="#059669" d="M54.38,-108.6C64.84,-93.46 80.89,-73.15 99.25,-60 115.45,-48.39 135.45,-39.6 153.55,-33.25"/>
<polygon fill="#059669" stroke="#059669" points="154.41,-36.65 162.79,-30.17 152.2,-30.01 154.41,-36.65"/>
<text xml:space="preserve" text-anchor="middle" x="122.88" y="-64.2" font-family="Inter" font-size="9.00">reduce_req</text>
</g>
<!-- Sp1&#45;&gt;O -->
<g id="edge4" class="edge">
<title>Sp1&#45;&gt;O</title>
<path fill="none" stroke="#0284c7" stroke-dasharray="5,2" d="M176.77,-225.15C155.13,-215.04 124.05,-199.29 99.25,-181.75 88.91,-174.43 78.45,-165.42 69.35,-156.91"/>
<polygon fill="#0284c7" stroke="#0284c7" points="71.81,-154.42 62.16,-150.03 66.96,-159.48 71.81,-154.42"/>
<text xml:space="preserve" text-anchor="middle" x="122.88" y="-214.09" font-family="Inter" font-size="9.00">answer</text>
</g>
<!-- Sp2&#45;&gt;O -->
<g id="edge5" class="edge">
<title>Sp2&#45;&gt;O</title>
<path fill="none" stroke="#0284c7" stroke-dasharray="5,2" d="M176.62,-149.92C167.15,-147.92 156.37,-145.74 146.5,-144 128.96,-140.9 109.69,-137.97 92.51,-135.52"/>
<polygon fill="#0284c7" stroke="#0284c7" points="93.45,-132.11 83.06,-134.19 92.47,-139.05 93.45,-132.11"/>
<text xml:space="preserve" text-anchor="middle" x="122.88" y="-148.2" font-family="Inter" font-size="9.00">answer</text>
</g>
<!-- note -->
<g id="node6" class="node">
<title>note</title>
<polygon fill="#e2e8f0" stroke="#334155" points="481,-175.5 280.5,-175.5 280.5,-136 487,-136 487,-169.5 481,-175.5"/>
<polyline fill="none" stroke="#334155" points="481,-175.5 481,-169.5"/>
<polyline fill="none" stroke="#334155" points="487,-169.5 481,-169.5"/>
<text xml:space="preserve" text-anchor="middle" x="383.75" y="-161.05" font-family="Inter" font-size="11.00" fill="#0f172a">independent per&#45;specialist channels</text>
<text xml:space="preserve" text-anchor="middle" x="383.75" y="-145.3" font-family="Inter" font-size="11.00" fill="#0f172a">⇒ any runtime interleaving conforms</text>
</g>
<!-- Sp2&#45;&gt;note -->
<!-- Sp3&#45;&gt;O -->
<g id="edge6" class="edge">
<title>Sp3&#45;&gt;O</title>
<path fill="none" stroke="#0284c7" stroke-dasharray="5,2" d="M171.23,-78.09C150.22,-75.65 122.38,-74.93 99.25,-83 88.12,-86.88 77.53,-93.9 68.54,-101.3"/>
<polygon fill="#0284c7" stroke="#0284c7" points="66.44,-98.49 61.25,-107.72 71.06,-103.74 66.44,-98.49"/>
<text xml:space="preserve" text-anchor="middle" x="122.88" y="-87.2" font-family="Inter" font-size="9.00">answer</text>
</g>
<!-- Sum&#45;&gt;O -->
<g id="edge8" class="edge">
<title>Sum&#45;&gt;O</title>
<path fill="none" stroke="#0284c7" stroke-dasharray="5,2" d="M164.45,-10.74C143.71,-8.03 118.53,-8.37 99.25,-20 71.49,-36.75 56.39,-71.86 48.7,-97.67"/>
<polygon fill="#0284c7" stroke="#0284c7" points="45.32,-96.75 46.06,-107.32 52.07,-98.59 45.32,-96.75"/>
<text xml:space="preserve" text-anchor="middle" x="122.88" y="-24.2" font-family="Inter" font-size="9.00">summary</text>
</g>
</g>
</svg>
