<?xml version="1.0" encoding="UTF-8" standalone="no"?>
<!DOCTYPE svg PUBLIC "-//W3C//DTD SVG 1.1//EN"
 "http://www.w3.org/Graphics/SVG/1.1/DTD/svg11.dtd">
<!-- Generated by graphviz version 14.1.5 (0)
 -->
<!-- Title: nav Pages: 1 -->
<svg width="375pt" height="908pt"
 viewBox="0.00 0.00 375.00 908.00" xmlns="http://www.w3.org/2000/svg" xmlns:xlink="http://www.w3.org/1999/xlink">
<g id="graph0" class="graph" transform="scale(1 1) rotate(0) translate(4 904)">
<title>nav</title>
<!-- c00 -->
<g id="node1" class="node">
<title>c00</title>
<path fill="#e0e7ff" stroke="#3730a3" d="M303.12,-900C303.12,-900 241.38,-900 241.38,-900 235.38,-900 229.38,-894 229.38,-888 229.38,-888 229.38,-876 229.38,-876 229.38,-870 235.38,-864 241.38,-864 241.38,-864 303.12,-864 303.12,-864 309.12,-864 315.12,-870 315.12,-876 315.12,-876 315.12,-888 315.12,-888 315.12,-894 309.12,-900 303.12,-900"/>
<text xml:space="preserve" text-anchor="middle" x="272.25" y="-879.42" font-family="Inter" font-size="11.00" fill="#1e1b4b">00 Motivation</text>
</g>
<!-- c01 -->
<g id="node2" class="node">
<title>c01</title>
<path fill="#e0e7ff" stroke="#3730a3" d="M311.38,-828C311.38,-828 233.12,-828 233.12,-828 227.12,-828 221.12,-822 221.12,-816 221.12,-816 221.12,-804 221.12,-804 221.12,-798 227.12,-792 233.12,-792 233.12,-792 311.38,-792 311.38,-792 317.38,-792 323.38,-798 323.38,-804 323.38,-804 323.38,-816 323.38,-816 323.38,-822 317.38,-828 311.38,-828"/>
<text xml:space="preserve" text-anchor="middle" x="272.25" y="-807.42" font-family="Inter" font-size="11.00" fill="#1e1b4b">01 CFSM &amp; MPST</text>
</g>
<!-- c00&#45;&gt;c01 -->
<g id="edge1" class="edge">
<title>c00&#45;&gt;c01</title>
<path fill="none" stroke="#475569" d="M272.25,-863.7C272.25,-855.47 272.25,-845.48 272.25,-836.42"/>
<polygon fill="#475569" stroke="#475569" points="274.7,-836.62 272.25,-829.62 269.8,-836.62 274.7,-836.62"/>
</g>
<!-- c02 -->
<g id="node3" class="node">
<title>c02</title>
<path fill="#e0e7ff" stroke="#3730a3" d="M261.38,-756C261.38,-756 171.12,-756 171.12,-756 165.12,-756 159.12,-750 159.12,-744 159.12,-744 159.12,-732 159.12,-732 159.12,-726 165.12,-720 171.12,-720 171.12,-720 261.38,-720 261.38,-720 267.38,-720 273.38,-726 273.38,-732 273.38,-732 273.38,-744 273.38,-744 273.38,-750 267.38,-756 261.38,-756"/>
<text xml:space="preserve" text-anchor="middle" x="216.25" y="-735.42" font-family="Inter" font-size="11.00" fill="#1e1b4b">02 Projection &amp; WF</text>
</g>
<!-- c01&#45;&gt;c02 -->
<g id="edge2" class="edge">
<title>c01&#45;&gt;c02</title>
<path fill="none" stroke="#475569" d="M258.41,-791.7C251.42,-782.97 242.84,-772.24 235.25,-762.75"/>
<polygon fill="#475569" stroke="#475569" points="237.17,-761.22 230.88,-757.29 233.34,-764.28 237.17,-761.22"/>
</g>
<!-- c15 -->
<g id="node16" class="node">
<title>c15</title>
<polygon fill="#e2e8f0" stroke="#334155" points="360.88,-756 291.62,-756 291.62,-720 366.88,-720 366.88,-750 360.88,-756"/>
<polyline fill="none" stroke="#334155" points="360.88,-756 360.88,-750"/>
<polyline fill="none" stroke="#334155" points="366.88,-750 360.88,-750"/>
<text xml:space="preserve" text-anchor="middle" x="329.25" y="-735.42" font-family="Inter" font-size="11.00" fill="#0f172a">15 Glossary</text>
</g>
<!-- c01&#45;&gt;c15 -->
<!-- c03 -->
<g id="node4" class="node">
<title>c03</title>
<path fill="#e0e7ff" stroke="#3730a3" d="M219.38,-684C219.38,-684 129.12,-684 129.12,-684 123.12,-684 117.12,-678 117.12,-672 117.12,-672 117.12,-660 117.12,-660 117.12,-654 123.12,-648 129.12,-648 129.12,-648 219.38,-648 219.38,-648 225.38,-648 231.38,-654 231.38,-660 231.38,-660 231.38,-672 231.38,-672 231.38,-678 225.38,-684 219.38,-684"/>
<text xml:space="preserve" text-anchor="middle" x="174.25" y="-663.42" font-family="Inter" font-size="11.00" fill="#1e1b4b">03 Safety theorems</text>
</g>
<!-- c02&#45;&gt;c03 -->
<g id="edge3" class="edge">
<title>c02&#45;&gt;c03</title>
<path fill="none" stroke="#475569" d="M205.87,-719.7C200.73,-711.14 194.44,-700.66 188.83,-691.3"/>
<polygon fill="#475569" stroke="#475569" points="190.99,-690.14 185.29,-685.4 186.79,-692.67 190.99,-690.14"/>
</g>
<!-- c12 -->
<g id="node13" class="node">
<title>c12</title>
<path fill="#ccfbf1" stroke="#0f766e" d="M344.62,-468C344.62,-468 255.88,-468 255.88,-468 249.88,-468 243.88,-462 243.88,-456 243.88,-456 243.88,-444 243.88,-444 243.88,-438 249.88,-432 255.88,-432 255.88,-432 344.62,-432 344.62,-432 350.62,-432 356.62,-438 356.62,-444 356.62,-444 356.62,-456 356.62,-456 356.62,-462 350.62,-468 344.62,-468"/>
<text xml:space="preserve" text-anchor="middle" x="300.25" y="-447.43" font-family="Inter" font-size="11.00" fill="#134e4a">12 Category theory</text>
</g>
<!-- c02&#45;&gt;c12 -->
<g id="edge14" class="edge">
<title>c02&#45;&gt;c12</title>
<path fill="none" stroke="#475569" stroke-dasharray="1,5" d="M225.03,-719.65C229.96,-709.44 235.96,-696.19 240.25,-684 266.21,-610.28 286.28,-519.85 295.19,-476.52"/>
<polygon fill="#475569" stroke="#475569" points="297.58,-477.09 296.57,-469.74 292.78,-476.11 297.58,-477.09"/>
</g>
<!-- c04 -->
<g id="node5" class="node">
<title>c04</title>
<path fill="#e0e7ff" stroke="#3730a3" d="M176.25,-612C176.25,-612 88.25,-612 88.25,-612 82.25,-612 76.25,-606 76.25,-600 76.25,-600 76.25,-588 76.25,-588 76.25,-582 82.25,-576 88.25,-576 88.25,-576 176.25,-576 176.25,-576 182.25,-576 188.25,-582 188.25,-588 188.25,-588 188.25,-600 188.25,-600 188.25,-606 182.25,-612 176.25,-612"/>
<text xml:space="preserve" text-anchor="middle" x="132.25" y="-591.42" font-family="Inter" font-size="11.00" fill="#1e1b4b">04 Automata spine</text>
</g>
<!-- c03&#45;&gt;c04 -->
<g id="edge4" class="edge">
<title>c03&#45;&gt;c04</title>
<path fill="none" stroke="#475569" d="M157.95,-647.7C151.99,-639.22 145.59,-628.86 140.52,-619.58"/>
<polygon fill="#475569" stroke="#475569" points="142.73,-618.52 137.32,-613.45 138.39,-620.78 142.73,-618.52"/>
</g>
<!-- c03&#45;&gt;c04 -->
<g id="edge12" class="edge">
<title>c03&#45;&gt;c04</title>
<path fill="none" stroke="#475569" d="M169.78,-647.7C165.49,-639.05 159.3,-628.45 153.11,-619.03"/>
<polygon fill="#475569" stroke="#475569" points="155.22,-617.77 149.26,-613.36 151.17,-620.52 155.22,-617.77"/>
</g>
<!-- c13 -->
<g id="node14" class="node">
<title>c13</title>
<path fill="#ccfbf1" stroke="#0f766e" d="M282.25,-396C282.25,-396 194.25,-396 194.25,-396 188.25,-396 182.25,-390 182.25,-384 182.25,-384 182.25,-372 182.25,-372 182.25,-366 188.25,-360 194.25,-360 194.25,-360 282.25,-360 282.25,-360 288.25,-360 294.25,-366 294.25,-372 294.25,-372 294.25,-384 294.25,-384 294.25,-390 288.25,-396 282.25,-396"/>
<text xml:space="preserve" text-anchor="middle" x="238.25" y="-375.43" font-family="Inter" font-size="11.00" fill="#134e4a">13 Formal artifacts</text>
</g>
<!-- c03&#45;&gt;c13 -->
<g id="edge16" class="edge">
<title>c03&#45;&gt;c13</title>
<path fill="none" stroke="#475569" stroke-dasharray="1,5" d="M182.98,-647.72C187.81,-637.55 193.56,-624.3 197.25,-612 219.36,-538.4 231.05,-447.92 235.74,-404.55"/>
<polygon fill="#475569" stroke="#475569" points="238.16,-405 236.46,-397.78 233.29,-404.49 238.16,-405"/>
</g>
<!-- c05 -->
<g id="node6" class="node">
<title>c05</title>
<path fill="#e0e7ff" stroke="#3730a3" d="M168.75,-540C168.75,-540 101.75,-540 101.75,-540 95.75,-540 89.75,-534 89.75,-528 89.75,-528 89.75,-516 89.75,-516 89.75,-510 95.75,-504 101.75,-504 101.75,-504 168.75,-504 168.75,-504 174.75,-504 180.75,-510 180.75,-516 180.75,-516 180.75,-528 180.75,-528 180.75,-534 174.75,-540 168.75,-540"/>
<text xml:space="preserve" text-anchor="middle" x="135.25" y="-519.42" font-family="Inter" font-size="11.00" fill="#1e1b4b">05 Data model</text>
</g>
<!-- c04&#45;&gt;c05 -->
<g id="edge5" class="edge">
<title>c04&#45;&gt;c05</title>
<path fill="none" stroke="#475569" d="M132.99,-575.7C133.34,-567.47 133.77,-557.48 134.16,-548.42"/>
<polygon fill="#475569" stroke="#475569" points="136.6,-548.72 134.45,-541.62 131.7,-548.51 136.6,-548.72"/>
</g>
<!-- c09 -->
<g id="node10" class="node">
<title>c09</title>
<path fill="#e0e7ff" stroke="#3730a3" d="M86.5,-252C86.5,-252 12,-252 12,-252 6,-252 0,-246 0,-240 0,-240 0,-228 0,-228 0,-222 6,-216 12,-216 12,-216 86.5,-216 86.5,-216 92.5,-216 98.5,-222 98.5,-228 98.5,-228 98.5,-240 98.5,-240 98.5,-246 92.5,-252 86.5,-252"/>
<text xml:space="preserve" text-anchor="middle" x="49.25" y="-231.43" font-family="Inter" font-size="11.00" fill="#1e1b4b">09 Recursive LM</text>
</g>
<!-- c04&#45;&gt;c09 -->
<g id="edge13" class="edge">
<title>c04&#45;&gt;c09</title>
<path fill="none" stroke="#475569" stroke-dasharray="1,5" d="M110.47,-575.83C82.14,-551.39 36.25,-503.67 36.25,-451 36.25,-451 36.25,-451 36.25,-377 36.25,-336.17 41.65,-289.01 45.49,-260.62"/>
<polygon fill="#475569" stroke="#475569" points="47.88,-261.21 46.41,-253.94 43.02,-260.54 47.88,-261.21"/>
</g>
<!-- c06 -->
<g id="node7" class="node">
<title>c06</title>
<path fill="#e0e7ff" stroke="#3730a3" d="M173.62,-468C173.62,-468 96.88,-468 96.88,-468 90.88,-468 84.88,-462 84.88,-456 84.88,-456 84.88,-444 84.88,-444 84.88,-438 90.88,-432 96.88,-432 96.88,-432 173.62,-432 173.62,-432 179.62,-432 185.62,-438 185.62,-444 185.62,-444 185.62,-456 185.62,-456 185.62,-462 179.62,-468 173.62,-468"/>
<text xml:space="preserve" text-anchor="middle" x="135.25" y="-447.43" font-family="Inter" font-size="11.00" fill="#1e1b4b">06 Conformance</text>
</g>
<!-- c05&#45;&gt;c06 -->
<g id="edge6" class="edge">
<title>c05&#45;&gt;c06</title>
<path fill="none" stroke="#475569" d="M135.25,-503.7C135.25,-495.47 135.25,-485.48 135.25,-476.42"/>
<polygon fill="#475569" stroke="#475569" points="137.7,-476.62 135.25,-469.62 132.8,-476.62 137.7,-476.62"/>
</g>
<!-- c05&#45;&gt;c12 -->
<g id="edge15" class="edge">
<title>c05&#45;&gt;c12</title>
<path fill="none" stroke="#475569" stroke-dasharray="1,5" d="M176.46,-503.52C199.29,-493.83 227.79,-481.74 251.69,-471.6"/>
<polygon fill="#475569" stroke="#475569" points="252.4,-473.96 257.89,-468.97 250.48,-469.45 252.4,-473.96"/>
</g>
<!-- c07 -->
<g id="node8" class="node">
<title>c07</title>
<path fill="#e0e7ff" stroke="#3730a3" d="M151.88,-396C151.88,-396 76.62,-396 76.62,-396 70.62,-396 64.62,-390 64.62,-384 64.62,-384 64.62,-372 64.62,-372 64.62,-366 70.62,-360 76.62,-360 76.62,-360 151.88,-360 151.88,-360 157.88,-360 163.88,-366 163.88,-372 163.88,-372 163.88,-384 163.88,-384 163.88,-390 157.88,-396 151.88,-396"/>
<text xml:space="preserve" text-anchor="middle" x="114.25" y="-375.43" font-family="Inter" font-size="11.00" fill="#1e1b4b">07 A2A &amp; agents</text>
</g>
<!-- c06&#45;&gt;c07 -->
<g id="edge7" class="edge">
<title>c06&#45;&gt;c07</title>
<path fill="none" stroke="#475569" d="M130.06,-431.7C127.57,-423.39 124.53,-413.28 121.79,-404.14"/>
<polygon fill="#475569" stroke="#475569" points="124.17,-403.55 119.82,-397.55 119.48,-404.96 124.17,-403.55"/>
</g>
<!-- c06&#45;&gt;c13 -->
<g id="edge17" class="edge">
<title>c06&#45;&gt;c13</title>
<path fill="none" stroke="#475569" stroke-dasharray="1,5" d="M160.98,-431.52C174.6,-422.26 191.46,-410.8 205.95,-400.95"/>
<polygon fill="#475569" stroke="#475569" points="207.19,-403.07 211.6,-397.11 204.43,-399.02 207.19,-403.07"/>
</g>
<!-- c08 -->
<g id="node9" class="node">
<title>c08</title>
<path fill="#e0e7ff" stroke="#3730a3" d="M139.12,-324C139.12,-324 89.38,-324 89.38,-324 83.38,-324 77.38,-318 77.38,-312 77.38,-312 77.38,-300 77.38,-300 77.38,-294 83.38,-288 89.38,-288 89.38,-288 139.12,-288 139.12,-288 145.12,-288 151.12,-294 151.12,-300 151.12,-300 151.12,-312 151.12,-312 151.12,-318 145.12,-324 139.12,-324"/>
<text xml:space="preserve" text-anchor="middle" x="114.25" y="-303.43" font-family="Inter" font-size="11.00" fill="#1e1b4b">08 Patterns</text>
</g>
<!-- c07&#45;&gt;c08 -->
<g id="edge8" class="edge">
<title>c07&#45;&gt;c08</title>
<path fill="none" stroke="#475569" d="M114.25,-359.7C114.25,-351.47 114.25,-341.48 114.25,-332.42"/>
<polygon fill="#475569" stroke="#475569" points="116.7,-332.62 114.25,-325.62 111.8,-332.62 116.7,-332.62"/>
</g>
<!-- c08&#45;&gt;c09 -->
<g id="edge9" class="edge">
<title>c08&#45;&gt;c09</title>
<path fill="none" stroke="#475569" d="M98.18,-287.7C89.92,-278.8 79.73,-267.82 70.79,-258.2"/>
<polygon fill="#475569" stroke="#475569" points="72.72,-256.68 66.16,-253.21 69.13,-260.01 72.72,-256.68"/>
</g>
<!-- c11 -->
<g id="node12" class="node">
<title>c11</title>
<path fill="#e0e7ff" stroke="#3730a3" d="M163.5,-108C163.5,-108 89,-108 89,-108 83,-108 77,-102 77,-96 77,-96 77,-84 77,-84 77,-78 83,-72 89,-72 89,-72 163.5,-72 163.5,-72 169.5,-72 175.5,-78 175.5,-84 175.5,-84 175.5,-96 175.5,-96 175.5,-102 169.5,-108 163.5,-108"/>
<text xml:space="preserve" text-anchor="middle" x="126.25" y="-87.42" font-family="Inter" font-size="11.00" fill="#1e1b4b">11 Crucible exec</text>
</g>
<!-- c08&#45;&gt;c11 -->
<g id="edge18" class="edge">
<title>c08&#45;&gt;c11</title>
<path fill="none" stroke="#475569" stroke-dasharray="1,5" d="M115.21,-287.85C117.31,-250.36 122.33,-160.95 124.81,-116.7"/>
<polygon fill="#475569" stroke="#475569" points="127.25,-116.87 125.2,-109.74 122.36,-116.6 127.25,-116.87"/>
</g>
<!-- c10 -->
<g id="node11" class="node">
<title>c10</title>
<path fill="#e0e7ff" stroke="#3730a3" d="M85.25,-180C85.25,-180 15.25,-180 15.25,-180 9.25,-180 3.25,-174 3.25,-168 3.25,-168 3.25,-156 3.25,-156 3.25,-150 9.25,-144 15.25,-144 15.25,-144 85.25,-144 85.25,-144 91.25,-144 97.25,-150 97.25,-156 97.25,-156 97.25,-168 97.25,-168 97.25,-174 91.25,-180 85.25,-180"/>
<text xml:space="preserve" text-anchor="middle" x="50.25" y="-159.43" font-family="Inter" font-size="11.00" fill="#1e1b4b">10 State = trace</text>
</g>
<!-- c09&#45;&gt;c10 -->
<g id="edge10" class="edge">
<title>c09&#45;&gt;c10</title>
<path fill="none" stroke="#475569" d="M49.5,-215.7C49.61,-207.47 49.76,-197.48 49.89,-188.42"/>
<polygon fill="#475569" stroke="#475569" points="52.33,-188.65 49.98,-181.62 47.43,-188.58 52.33,-188.65"/>
</g>
<!-- c10&#45;&gt;c11 -->
<g id="edge11" class="edge">
<title>c10&#45;&gt;c11</title>
<path fill="none" stroke="#475569" d="M69.04,-143.7C78.81,-134.69 90.89,-123.57 101.42,-113.87"/>
<polygon fill="#475569" stroke="#475569" points="102.81,-115.92 106.3,-109.37 99.49,-112.31 102.81,-115.92"/>
</g>
<!-- c14 -->
<g id="node15" class="node">
<title>c14</title>
<path fill="#ccfbf1" stroke="#0f766e" d="M213.12,-36C213.12,-36 115.38,-36 115.38,-36 109.38,-36 103.38,-30 103.38,-24 103.38,-24 103.38,-12 103.38,-12 103.38,-6 109.38,0 115.38,0 115.38,0 213.12,0 213.12,0 219.12,0 225.12,-6 225.12,-12 225.12,-12 225.12,-24 225.12,-24 225.12,-30 219.12,-36 213.12,-36"/>
<text xml:space="preserve" text-anchor="middle" x="164.25" y="-15.43" font-family="Inter" font-size="11.00" fill="#134e4a">14 Tools &amp; examples</text>
</g>
<!-- c11&#45;&gt;c14 -->
<g id="edge19" class="edge">
<title>c11&#45;&gt;c14</title>
<path fill="none" stroke="#475569" stroke-dasharray="1,5" d="M135.64,-71.7C140.24,-63.22 145.87,-52.86 150.91,-43.58"/>
<polygon fill="#475569" stroke="#475569" points="153.06,-44.76 154.24,-37.43 148.75,-42.42 153.06,-44.76"/>
</g>
<!-- c13&#45;&gt;c14 -->
<g id="edge20" class="edge">
<title>c13&#45;&gt;c14</title>
<path fill="none" stroke="#475569" stroke-dasharray="1,5" d="M235.82,-359.55C232.32,-332.8 226.25,-280.03 226.25,-235 226.25,-235 226.25,-235 226.25,-161 226.25,-116.55 200.42,-70.32 182.1,-43.13"/>
<polygon fill="#475569" stroke="#475569" points="184.25,-41.93 178.26,-37.56 180.22,-44.71 184.25,-41.93"/>
</g>
</g>
</svg>
