<?xml version="1.0" encoding="UTF-8" standalone="no"?>
<!DOCTYPE svg PUBLIC "-//W3C//DTD SVG 1.1//EN"
 "http://www.w3.org/Graphics/SVG/1.1/DTD/svg11.dtd">
<!-- Generated by graphviz version 14.1.5 (0)
 -->
<!-- Title: patmap Pages: 1 -->
<svg width="741pt" height="661pt"
 viewBox="0.00 0.00 741.00 661.00" xmlns="http://www.w3.org/2000/svg" xmlns:xlink="http://www.w3.org/1999/xlink">
<g id="graph0" class="graph" transform="scale(1 1) rotate(0) translate(4 657)">
<title>patmap</title>
<g id="clust1" class="cluster">
<title>cluster_collab</title>
<path fill="#eef2ff" stroke="#3730a3" d="M215.75,-277C215.75,-277 511.5,-277 511.5,-277 517.5,-277 523.5,-283 523.5,-289 523.5,-289 523.5,-633 523.5,-633 523.5,-639 517.5,-645 511.5,-645 511.5,-645 215.75,-645 215.75,-645 209.75,-645 203.75,-639 203.75,-633 203.75,-633 203.75,-289 203.75,-289 203.75,-283 209.75,-277 215.75,-277"/>
<text xml:space="preserve" text-anchor="middle" x="363.62" y="-629.6" font-family="Inter" font-size="12.00">5 RecursiveMAS collaboration patterns (regular band)</text>
</g>
<g id="clust2" class="cluster">
<title>cluster_coord</title>
<path fill="#ecfeff" stroke="#0e7490" d="M260.75,-108C260.75,-108 466.5,-108 466.5,-108 472.5,-108 478.5,-114 478.5,-120 478.5,-120 478.5,-257 478.5,-257 478.5,-263 472.5,-269 466.5,-269 466.5,-269 260.75,-269 260.75,-269 254.75,-269 248.75,-263 248.75,-257 248.75,-257 248.75,-120 248.75,-120 248.75,-114 254.75,-108 260.75,-108"/>
<text xml:space="preserve" text-anchor="middle" x="363.62" y="-253.6" font-family="Inter" font-size="12.00">coordination protocols (regular band)</text>
</g>
<g id="clust3" class="cluster">
<title>cluster_vpl</title>
<path fill="#f5f3ff" stroke="#6d28d9" d="M266.88,-8C266.88,-8 459.38,-8 459.38,-8 465.38,-8 471.38,-14 471.38,-20 471.38,-20 471.38,-88 471.38,-88 471.38,-94 465.38,-100 459.38,-100 459.38,-100 266.88,-100 266.88,-100 260.88,-100 254.88,-94 254.88,-88 254.88,-88 254.88,-20 254.88,-20 254.88,-14 260.88,-8 266.88,-8"/>
<text xml:space="preserve" text-anchor="middle" x="363.12" y="-84.6" font-family="Inter" font-size="12.00">VPL band — genuine pushdown</text>
</g>
<!-- seq -->
<g id="node1" class="node">
<title>seq</title>
<path fill="#e0e7ff" stroke="#3730a3" d="M413.5,-335.38C413.5,-335.38 312.75,-335.38 312.75,-335.38 306.75,-335.38 300.75,-329.38 300.75,-323.38 300.75,-323.38 300.75,-296.62 300.75,-296.62 300.75,-290.62 306.75,-284.62 312.75,-284.62 312.75,-284.62 413.5,-284.62 413.5,-284.62 419.5,-284.62 425.5,-290.62 425.5,-296.62 425.5,-296.62 425.5,-323.38 425.5,-323.38 425.5,-329.38 419.5,-335.38 413.5,-335.38"/>
<text xml:space="preserve" text-anchor="middle" x="363.12" y="-321.88" font-family="Inter" font-size="10.00" fill="#1e1b4b">Sequential</text>
<text xml:space="preserve" text-anchor="middle" x="363.12" y="-307.62" font-family="Inter" font-size="10.00" fill="#1e1b4b">a2a_pattern_sequential</text>
<text xml:space="preserve" text-anchor="middle" x="363.12" y="-293.38" font-family="Inter" font-size="10.00" fill="#1e1b4b">O,P,C,S</text>
</g>
<!-- obs -->
<g id="node10" class="node">
<title>obs</title>
<polygon fill="#dcfce7" stroke="#15803d" points="727.25,-328.25 551.5,-328.25 551.5,-291.75 733.25,-291.75 733.25,-322.25 727.25,-328.25"/>
<polyline fill="none" stroke="#15803d" points="727.25,-328.25 727.25,-322.25"/>
<polyline fill="none" stroke="#15803d" points="733.25,-322.25 727.25,-322.25"/>
<text xml:space="preserve" text-anchor="middle" x="642.38" y="-314.75" font-family="Inter" font-size="10.00" fill="#14532d">csm_validate_run</text>
<text xml:space="preserve" text-anchor="middle" x="642.38" y="-300.5" font-family="Inter" font-size="10.00" fill="#14532d">lift_transcript → check_conformance</text>
</g>
<!-- seq&#45;&gt;obs -->
<g id="edge9" class="edge">
<title>seq&#45;&gt;obs</title>
<path fill="none" stroke="#475569" stroke-dasharray="1,5" d="M425.66,-310C460.35,-310 504.49,-310 543.79,-310"/>
<polygon fill="#475569" stroke="#475569" points="543.55,-312.1 549.55,-310 543.55,-307.9 543.55,-312.1"/>
</g>
<!-- mix -->
<g id="node2" class="node">
<title>mix</title>
<path fill="#e0e7ff" stroke="#3730a3" d="M407.5,-404.38C407.5,-404.38 318.75,-404.38 318.75,-404.38 312.75,-404.38 306.75,-398.38 306.75,-392.38 306.75,-392.38 306.75,-365.62 306.75,-365.62 306.75,-359.62 312.75,-353.62 318.75,-353.62 318.75,-353.62 407.5,-353.62 407.5,-353.62 413.5,-353.62 419.5,-359.62 419.5,-365.62 419.5,-365.62 419.5,-392.38 419.5,-392.38 419.5,-398.38 413.5,-404.38 407.5,-404.38"/>
<text xml:space="preserve" text-anchor="middle" x="363.12" y="-390.88" font-family="Inter" font-size="10.00" fill="#1e1b4b">Mixture</text>
<text xml:space="preserve" text-anchor="middle" x="363.12" y="-376.62" font-family="Inter" font-size="10.00" fill="#1e1b4b">a2a_pattern_mixture</text>
<text xml:space="preserve" text-anchor="middle" x="363.12" y="-362.38" font-family="Inter" font-size="10.00" fill="#1e1b4b">O,Sp₁…Spₙ,Sum</text>
</g>
<!-- dis -->
<g id="node3" class="node">
<title>dis</title>
<path fill="#e0e7ff" stroke="#3730a3" d="M412.75,-473.38C412.75,-473.38 313.5,-473.38 313.5,-473.38 307.5,-473.38 301.5,-467.38 301.5,-461.38 301.5,-461.38 301.5,-434.62 301.5,-434.62 301.5,-428.62 307.5,-422.62 313.5,-422.62 313.5,-422.62 412.75,-422.62 412.75,-422.62 418.75,-422.62 424.75,-428.62 424.75,-434.62 424.75,-434.62 424.75,-461.38 424.75,-461.38 424.75,-467.38 418.75,-473.38 412.75,-473.38"/>
<text xml:space="preserve" text-anchor="middle" x="363.12" y="-459.88" font-family="Inter" font-size="10.00" fill="#1e1b4b">Distillation</text>
<text xml:space="preserve" text-anchor="middle" x="363.12" y="-445.62" font-family="Inter" font-size="10.00" fill="#1e1b4b">a2a_pattern_distillation</text>
<text xml:space="preserve" text-anchor="middle" x="363.12" y="-431.38" font-family="Inter" font-size="10.00" fill="#1e1b4b">O,E,L</text>
</g>
<!-- del -->
<g id="node4" class="node">
<title>del</title>
<path fill="#e0e7ff" stroke="#3730a3" d="M417.25,-542.38C417.25,-542.38 309,-542.38 309,-542.38 303,-542.38 297,-536.38 297,-530.38 297,-530.38 297,-503.62 297,-503.62 297,-497.62 303,-491.62 309,-491.62 309,-491.62 417.25,-491.62 417.25,-491.62 423.25,-491.62 429.25,-497.62 429.25,-503.62 429.25,-503.62 429.25,-530.38 429.25,-530.38 429.25,-536.38 423.25,-542.38 417.25,-542.38"/>
<text xml:space="preserve" text-anchor="middle" x="363.12" y="-528.88" font-family="Inter" font-size="10.00" fill="#1e1b4b">Deliberation</text>
<text xml:space="preserve" text-anchor="middle" x="363.12" y="-514.62" font-family="Inter" font-size="10.00" fill="#1e1b4b">a2a_pattern_deliberation</text>
<text xml:space="preserve" text-anchor="middle" x="363.12" y="-500.38" font-family="Inter" font-size="10.00" fill="#1e1b4b">O,R,T &#160;(the only Choice)</text>
</g>
<!-- del&#45;&gt;obs -->
<g id="edge10" class="edge">
<title>del&#45;&gt;obs</title>
<path fill="none" stroke="#475569" stroke-dasharray="1,5" d="M429.36,-513.69C460.06,-509.5 495.9,-500.6 523.5,-482 578.18,-445.14 614.73,-373.65 631.26,-335.47"/>
<polygon fill="#475569" stroke="#475569" points="633.11,-336.49 633.52,-330.14 629.25,-334.85 633.11,-336.49"/>
</g>
<!-- rec -->
<g id="node5" class="node">
<title>rec</title>
<path fill="#e0e7ff" stroke="#3730a3" d="M412.75,-611.38C412.75,-611.38 313.5,-611.38 313.5,-611.38 307.5,-611.38 301.5,-605.38 301.5,-599.38 301.5,-599.38 301.5,-572.62 301.5,-572.62 301.5,-566.62 307.5,-560.62 313.5,-560.62 313.5,-560.62 412.75,-560.62 412.75,-560.62 418.75,-560.62 424.75,-566.62 424.75,-572.62 424.75,-572.62 424.75,-599.38 424.75,-599.38 424.75,-605.38 418.75,-611.38 412.75,-611.38"/>
<text xml:space="preserve" text-anchor="middle" x="363.12" y="-597.88" font-family="Inter" font-size="10.00" fill="#1e1b4b">Recursive</text>
<text xml:space="preserve" text-anchor="middle" x="363.12" y="-583.62" font-family="Inter" font-size="10.00" fill="#1e1b4b">a2a_pattern_recursive</text>
<text xml:space="preserve" text-anchor="middle" x="363.12" y="-569.38" font-family="Inter" font-size="10.00" fill="#1e1b4b">O,Sub₁…Subₖ (unrolled)</text>
</g>
<!-- wn -->
<g id="node6" class="node">
<title>wn</title>
<path fill="#cffafe" stroke="#0e7490" d="M429.25,-166.38C429.25,-166.38 297,-166.38 297,-166.38 291,-166.38 285,-160.38 285,-154.38 285,-154.38 285,-127.62 285,-127.62 285,-121.62 291,-115.62 297,-115.62 297,-115.62 429.25,-115.62 429.25,-115.62 435.25,-115.62 441.25,-121.62 441.25,-127.62 441.25,-127.62 441.25,-154.38 441.25,-154.38 441.25,-160.38 435.25,-166.38 429.25,-166.38"/>
<text xml:space="preserve" text-anchor="middle" x="363.12" y="-152.88" font-family="Inter" font-size="10.00" fill="#164e63">WorktreeNegotiation</text>
<text xml:space="preserve" text-anchor="middle" x="363.12" y="-138.62" font-family="Inter" font-size="10.00" fill="#164e63">coordinate_dependency_block</text>
<text xml:space="preserve" text-anchor="middle" x="363.12" y="-124.38" font-family="Inter" font-size="10.00" fill="#164e63">R,E &#160;(mailbox)</text>
</g>
<!-- tp -->
<g id="node7" class="node">
<title>tp</title>
<path fill="#cffafe" stroke="#0e7490" d="M414.25,-235.38C414.25,-235.38 312,-235.38 312,-235.38 306,-235.38 300,-229.38 300,-223.38 300,-223.38 300,-196.62 300,-196.62 300,-190.62 306,-184.62 312,-184.62 312,-184.62 414.25,-184.62 414.25,-184.62 420.25,-184.62 426.25,-190.62 426.25,-196.62 426.25,-196.62 426.25,-223.38 426.25,-223.38 426.25,-229.38 420.25,-235.38 414.25,-235.38"/>
<text xml:space="preserve" text-anchor="middle" x="363.12" y="-221.88" font-family="Inter" font-size="10.00" fill="#164e63">TapePaging</text>
<text xml:space="preserve" text-anchor="middle" x="363.12" y="-207.62" font-family="Inter" font-size="10.00" fill="#164e63">tape_page</text>
<text xml:space="preserve" text-anchor="middle" x="363.12" y="-193.38" font-family="Inter" font-size="10.00" fill="#164e63">O,Tape &#160;(μ loop + choice)</text>
</g>
<!-- rcf -->
<g id="node8" class="node">
<title>rcf</title>
<path fill="#ede9fe" stroke="#6d28d9" d="M451.38,-66.38C451.38,-66.38 274.88,-66.38 274.88,-66.38 268.88,-66.38 262.88,-60.38 262.88,-54.38 262.88,-54.38 262.88,-27.62 262.88,-27.62 262.88,-21.62 268.88,-15.62 274.88,-15.62 274.88,-15.62 451.38,-15.62 451.38,-15.62 457.38,-15.62 463.38,-21.62 463.38,-27.62 463.38,-27.62 463.38,-54.38 463.38,-54.38 463.38,-60.38 457.38,-66.38 451.38,-66.38"/>
<text xml:space="preserve" text-anchor="middle" x="363.12" y="-52.88" font-family="Inter" font-size="10.00" fill="#4c1d95">RecursiveCf</text>
<text xml:space="preserve" text-anchor="middle" x="363.12" y="-38.62" font-family="Inter" font-size="10.00" fill="#4c1d95">a2a_pattern_recursive_cf</text>
<text xml:space="preserve" text-anchor="middle" x="363.12" y="-24.38" font-family="Inter" font-size="10.00" fill="#4c1d95">O,Sub &#160;(calls ITSELF → Call/Return edges)</text>
</g>
<!-- rcf&#45;&gt;obs -->
<g id="edge11" class="edge">
<title>rcf&#45;&gt;obs</title>
<path fill="none" stroke="#475569" stroke-dasharray="1,5" d="M459.78,-66.78C482.36,-75.97 505.17,-88.13 523.5,-104 581.8,-154.49 617.86,-241.27 633.04,-284.28"/>
<polygon fill="#475569" stroke="#475569" points="631.02,-284.88 634.97,-289.86 634.99,-283.51 631.02,-284.88"/>
</g>
<!-- reg -->
<g id="node9" class="node">
<title>reg</title>
<polygon fill="#c7d2fe" stroke="#312e81" points="175.75,-369.38 4,-369.38 0,-365.38 0,-318.62 171.75,-318.62 175.75,-322.62 175.75,-369.38"/>
<polyline fill="none" stroke="#312e81" points="171.75,-365.38 0,-365.38"/>
<polyline fill="none" stroke="#312e81" points="171.75,-365.38 171.75,-318.62"/>
<polyline fill="none" stroke="#312e81" points="171.75,-365.38 175.75,-369.38"/>
<text xml:space="preserve" text-anchor="middle" x="87.88" y="-355.88" font-family="Inter" font-size="10.00" fill="#1e1b4b">ProtocolId</text>
<text xml:space="preserve" text-anchor="middle" x="87.88" y="-341.62" font-family="Inter" font-size="10.00" fill="#1e1b4b">(registry.rs)</text>
<text xml:space="preserve" text-anchor="middle" x="87.88" y="-327.38" font-family="Inter" font-size="10.00" fill="#1e1b4b">global_of(id, params) → GlobalType</text>
</g>
<!-- reg&#45;&gt;seq -->
<g id="edge1" class="edge">
<title>reg&#45;&gt;seq</title>
<path fill="none" stroke="#475569" d="M176.08,-333.15C213.85,-328.45 257.44,-323.03 292.93,-318.61"/>
<polygon fill="#475569" stroke="#475569" points="293.18,-320.7 298.87,-317.87 292.66,-316.53 293.18,-320.7"/>
</g>
<!-- reg&#45;&gt;mix -->
<g id="edge2" class="edge">
<title>reg&#45;&gt;mix</title>
<path fill="none" stroke="#475569" d="M176.08,-355.17C216.21,-360.31 262.9,-366.29 299.47,-370.97"/>
<polygon fill="#475569" stroke="#475569" points="298.92,-373.02 305.14,-371.7 299.46,-368.86 298.92,-373.02"/>
</g>
<!-- reg&#45;&gt;dis -->
<g id="edge3" class="edge">
<title>reg&#45;&gt;dis</title>
<path fill="none" stroke="#475569" d="M124.8,-369.72C146.69,-384.32 175.76,-401.85 203.75,-413 232.45,-424.44 265.63,-432.5 294.19,-437.98"/>
<polygon fill="#475569" stroke="#475569" points="293.57,-440 299.86,-439.04 294.35,-435.87 293.57,-440"/>
</g>
<!-- reg&#45;&gt;del -->
<g id="edge4" class="edge">
<title>reg&#45;&gt;del</title>
<path fill="none" stroke="#475569" d="M103.07,-369.81C121.84,-401.4 157.96,-454.11 203.75,-482 229.47,-497.66 261.34,-506.35 289.73,-511.15"/>
<polygon fill="#475569" stroke="#475569" points="289.11,-513.18 295.37,-512.05 289.78,-509.03 289.11,-513.18"/>
</g>
<!-- reg&#45;&gt;rec -->
<g id="edge5" class="edge">
<title>reg&#45;&gt;rec</title>
<path fill="none" stroke="#475569" d="M95.57,-369.57C108.54,-413.86 141.48,-504.56 203.75,-551 229.56,-570.25 263.9,-579.28 294.01,-583.39"/>
<polygon fill="#475569" stroke="#475569" points="293.45,-585.44 299.67,-584.1 293.97,-581.27 293.45,-585.44"/>
</g>
<!-- reg&#45;&gt;wn -->
<g id="edge6" class="edge">
<title>reg&#45;&gt;wn</title>
<path fill="none" stroke="#475569" d="M99.03,-318.41C115.28,-280.96 150.76,-211.81 203.75,-176 225.4,-161.37 252.15,-152.75 277.48,-147.7"/>
<polygon fill="#475569" stroke="#475569" points="277.58,-149.82 283.09,-146.65 276.8,-145.69 277.58,-149.82"/>
</g>
<!-- reg&#45;&gt;tp -->
<g id="edge7" class="edge">
<title>reg&#45;&gt;tp</title>
<path fill="none" stroke="#475569" d="M126.72,-318.28C148.67,-303.96 177.15,-286.38 203.75,-273 232.26,-258.66 264.86,-245.22 293.04,-234.47"/>
<polygon fill="#475569" stroke="#475569" points="293.45,-236.56 298.31,-232.47 291.96,-232.63 293.45,-236.56"/>
</g>
<!-- reg&#45;&gt;rcf -->
<g id="edge8" class="edge">
<title>reg&#45;&gt;rcf</title>
<path fill="none" stroke="#475569" d="M94.58,-318.23C106.56,-269.82 138.78,-164.71 203.75,-104 219.03,-89.72 237.94,-78.53 257.32,-69.8"/>
<polygon fill="#475569" stroke="#475569" points="258.13,-71.74 262.8,-67.42 256.46,-67.88 258.13,-71.74"/>
</g>
</g>
</svg>
