<svg xmlns="http://www.w3.org/2000/svg" xmlns:xlink="http://www.w3.org/1999/xlink" contentStyleType="text/css" data-diagram-type="ACTIVITY" height="704px" preserveAspectRatio="none" style="width:1972px;height:704px;" version="1.1" viewBox="0 0 1972 704" width="1972px" zoomAndPan="magnify"><?plantuml $version$?><defs/><g><rect fill="#FFFFCC" height="160.3399" rx="2.5" ry="2.5" style="stroke:#FFDD88;stroke-width:3;" width="1941.3886" x="13" y="13"/><text fill="#000000" font-family="monospace" font-size="10" lengthAdjust="spacing" textLength="534" x="20" y="25.62">This&#160;syntax&#160;is&#160;deprecated,&#160;you&#160;must&#160;add&#160;&lt;&lt;#d1fae5&gt;&gt;&#160;at&#160;the&#160;end&#160;of&#160;the&#160;line,&#160;after&#160;the&#160;';'</text><text fill="#000000" font-family="monospace" font-size="10" lengthAdjust="spacing" textLength="534" x="20" y="49.24">This&#160;syntax&#160;is&#160;deprecated,&#160;you&#160;must&#160;add&#160;&lt;&lt;#e0f2fe&gt;&gt;&#160;at&#160;the&#160;end&#160;of&#160;the&#160;line,&#160;after&#160;the&#160;';'</text><text fill="#000000" font-family="monospace" font-size="10" lengthAdjust="spacing" textLength="534" x="20" y="72.86">This&#160;syntax&#160;is&#160;deprecated,&#160;you&#160;must&#160;add&#160;&lt;&lt;#e2e8f0&gt;&gt;&#160;at&#160;the&#160;end&#160;of&#160;the&#160;line,&#160;after&#160;the&#160;';'</text><text fill="#000000" font-family="monospace" font-size="10" lengthAdjust="spacing" textLength="534" x="20" y="96.4799">This&#160;syntax&#160;is&#160;deprecated,&#160;you&#160;must&#160;add&#160;&lt;&lt;#dcfce7&gt;&gt;&#160;at&#160;the&#160;end&#160;of&#160;the&#160;line,&#160;after&#160;the&#160;';'</text><text fill="#000000" font-family="monospace" font-size="10" lengthAdjust="spacing" textLength="534" x="20" y="120.0999">This&#160;syntax&#160;is&#160;deprecated,&#160;you&#160;must&#160;add&#160;&lt;&lt;#fee2e2&gt;&gt;&#160;at&#160;the&#160;end&#160;of&#160;the&#160;line,&#160;after&#160;the&#160;';'</text><text fill="#000000" font-family="monospace" font-size="10" lengthAdjust="spacing" textLength="534" x="20" y="143.7199">This&#160;syntax&#160;is&#160;deprecated,&#160;you&#160;must&#160;add&#160;&lt;&lt;#ede9fe&gt;&gt;&#160;at&#160;the&#160;end&#160;of&#160;the&#160;line,&#160;after&#160;the&#160;';'</text><text fill="#000000" font-family="monospace" font-size="10" lengthAdjust="spacing" textLength="534" x="20" y="167.3399">This&#160;syntax&#160;is&#160;deprecated,&#160;you&#160;must&#160;add&#160;&lt;&lt;#e0e7ff&gt;&gt;&#160;at&#160;the&#160;end&#160;of&#160;the&#160;line,&#160;after&#160;the&#160;';'</text><ellipse cx="994.1943" cy="190.3399" fill="#222222" rx="10" ry="10" style="stroke:#222222;stroke-width:1;"/><rect fill="#E0E7FF" height="36.3441" rx="12.5" ry="12.5" style="stroke:#3730A3;stroke-width:0.5;" width="86.7805" x="950.804" y="220.3399"/><text fill="#000000" font-family="Inter" font-size="12" lengthAdjust="spacing" textLength="66.7805" x="960.804" y="243.168">project(G, r)</text><polygon fill="#FEF9C3" points="955.4416,276.684,1032.947,276.684,1044.947,288.684,1032.947,300.684,955.4416,300.684,943.4416,288.684,955.4416,276.684" style="stroke:#A16207;stroke-width:0.5;stroke-linejoin:miter;stroke-miterlimit:10;"/><text fill="#000000" font-family="Inter" font-size="11" lengthAdjust="spacing" textLength="77.5055" x="955.4416" y="292.952">construct of G?</text><polygon fill="#FEF9C3" points="79.4443,365.4339,126.04,365.4339,138.04,377.4339,126.04,389.4339,79.4443,389.4339,67.4443,377.4339,79.4443,365.4339" style="stroke:#A16207;stroke-width:0.5;stroke-linejoin:miter;stroke-miterlimit:10;"/><text fill="#000000" font-family="Inter" font-size="11" lengthAdjust="spacing" textLength="17.0829" x="106.7422" y="401.1928">yes</text><text fill="#000000" font-family="Inter" font-size="11" lengthAdjust="spacing" textLength="46.5957" x="79.4443" y="381.7019">r = from?</text><rect fill="#E0E7FF" height="36.3441" rx="12.5" ry="12.5" style="stroke:#3730A3;stroke-width:0.5;" width="173.4843" x="16" y="424.4158"/><text fill="#000000" font-family="Inter" font-size="12" lengthAdjust="spacing" textLength="153.4843" x="26" y="447.2439">return  !to&#10216;&#8467;&#10217; . project(cont)</text><polygon fill="#FEF9C3" points="279.2252,365.4339,311.18,365.4339,323.18,377.4339,311.18,389.4339,279.2252,389.4339,267.2252,377.4339,279.2252,365.4339" style="stroke:#A16207;stroke-width:0.5;stroke-linejoin:miter;stroke-miterlimit:10;"/><text fill="#000000" font-family="Inter" font-size="11" lengthAdjust="spacing" textLength="17.0829" x="299.2026" y="401.1928">yes</text><text fill="#000000" font-family="Inter" font-size="11" lengthAdjust="spacing" textLength="31.9548" x="279.2252" y="381.7019">r = to?</text><text fill="#000000" font-family="Inter" font-size="11" lengthAdjust="spacing" textLength="52.0956" x="323.18" y="374.2109">bystander</text><rect fill="#E0E7FF" height="36.3441" rx="12.5" ry="12.5" style="stroke:#3730A3;stroke-width:0.5;" width="191.4365" x="199.4843" y="424.4158"/><text fill="#000000" font-family="Inter" font-size="12" lengthAdjust="spacing" textLength="171.4365" x="209.4843" y="447.2439">return  ?from&#10216;&#8467;&#10217; . project(cont)</text><rect fill="#E0E7FF" height="36.3441" rx="12.5" ry="12.5" style="stroke:#3730A3;stroke-width:0.5;" width="169.6771" x="410.9208" y="419.9248"/><text fill="#000000" font-family="Inter" font-size="12" lengthAdjust="spacing" textLength="149.6771" x="420.9208" y="442.7529">return  project(cont)  (skip)</text><polygon fill="#FEF9C3" points="654.4539,365.4339,701.0496,365.4339,713.0496,377.4339,701.0496,389.4339,654.4539,389.4339,642.4539,377.4339,654.4539,365.4339" style="stroke:#A16207;stroke-width:0.5;stroke-linejoin:miter;stroke-miterlimit:10;"/><text fill="#000000" font-family="Inter" font-size="11" lengthAdjust="spacing" textLength="35.7827" x="681.7517" y="401.1928">sender</text><text fill="#000000" font-family="Inter" font-size="11" lengthAdjust="spacing" textLength="46.5957" x="654.4539" y="381.7019">r = from?</text><rect fill="#E0E7FF" height="36.3441" rx="12.5" ry="12.5" style="stroke:#3730A3;stroke-width:0.5;" width="174.3078" x="590.5979" y="424.4158"/><text fill="#000000" font-family="Inter" font-size="12" lengthAdjust="spacing" textLength="154.3078" x="600.5979" y="447.2439">return  &#8853;to{ &#8467;&#7522; : project(G&#7522;) }</text><polygon fill="#FEF9C3" points="853.4329,365.4339,885.3876,365.4339,897.3876,377.4339,885.3876,389.4339,853.4329,389.4339,841.4329,377.4339,853.4329,365.4339" style="stroke:#A16207;stroke-width:0.5;stroke-linejoin:miter;stroke-miterlimit:10;"/><text fill="#000000" font-family="Inter" font-size="11" lengthAdjust="spacing" textLength="41.4037" x="873.4102" y="401.1928">receiver</text><text fill="#000000" font-family="Inter" font-size="11" lengthAdjust="spacing" textLength="31.9548" x="853.4329" y="381.7019">r = to?</text><text fill="#000000" font-family="Inter" font-size="11" lengthAdjust="spacing" textLength="52.0956" x="897.3876" y="374.2109">bystander</text><rect fill="#E0E7FF" height="36.3441" rx="12.5" ry="12.5" style="stroke:#3730A3;stroke-width:0.5;" width="189.0092" x="774.9056" y="424.4158"/><text fill="#000000" font-family="Inter" font-size="12" lengthAdjust="spacing" textLength="169.0092" x="784.9056" y="447.2439">return  &amp;from{ &#8467;&#7522; : project(G&#7522;) }</text><rect fill="#E0E7FF" height="36.3441" rx="12.5" ry="12.5" style="stroke:#3730A3;stroke-width:0.5;" width="191.1798" x="998.1564" y="405.1794"/><text fill="#000000" font-family="Inter" font-size="12" lengthAdjust="spacing" textLength="171.1798" x="1008.1564" y="428.0074">acc &#8592; merge over all branches</text><polygon fill="#FEF9C3" points="1063.3701,476.5235,1124.1226,476.5235,1136.1226,488.5235,1124.1226,500.5235,1063.3701,500.5235,1051.3701,488.5235,1063.3701,476.5235" style="stroke:#A16207;stroke-width:0.5;stroke-linejoin:miter;stroke-miterlimit:10;"/><text fill="#000000" font-family="Inter" font-size="11" lengthAdjust="spacing" textLength="60.7526" x="1063.3701" y="492.7914">mergeable?</text><text fill="#000000" font-family="Inter" font-size="11" lengthAdjust="spacing" textLength="17.0829" x="1034.2872" y="485.3005">yes</text><text fill="#000000" font-family="Inter" font-size="11" lengthAdjust="spacing" textLength="13.4529" x="1136.1226" y="485.3005">no</text><rect fill="#E0E7FF" height="36.3441" rx="12.5" ry="12.5" style="stroke:#3730A3;stroke-width:0.5;" width="77.2164" x="993.9149" y="510.5235"/><text fill="#000000" font-family="Inter" font-size="12" lengthAdjust="spacing" textLength="57.2164" x="1003.9149" y="533.3516">return acc</text><rect fill="#E0E7FF" height="36.3441" rx="12.5" ry="12.5" style="stroke:#3730A3;stroke-width:0.5;" width="127.6768" x="1091.1313" y="510.5235"/><text fill="#000000" font-family="Inter" font-size="12" lengthAdjust="spacing" textLength="107.6768" x="1101.1313" y="533.3516">raise Unmergeable</text><ellipse cx="1154.9697" cy="577.8676" fill="none" rx="11" ry="11" style="stroke:#222222;stroke-width:1;"/><ellipse cx="1154.9697" cy="577.8676" fill="#222222" rx="6" ry="6" style="stroke:#222222;stroke-width:1;"/><polygon fill="#FEF9C3" points="1441.3592,340.4339,1560.6644,340.4339,1572.6644,352.4339,1560.6644,364.4339,1441.3592,364.4339,1429.3592,352.4339,1441.3592,340.4339" style="stroke:#A16207;stroke-width:0.5;stroke-linejoin:miter;stroke-miterlimit:10;"/><text fill="#000000" font-family="Inter" font-size="11" lengthAdjust="spacing" textLength="119.3052" x="1441.3592" y="356.7019">r participates in frame?</text><text fill="#000000" font-family="Inter" font-size="11" lengthAdjust="spacing" textLength="17.0829" x="1412.2763" y="349.2109">yes</text><text fill="#000000" font-family="Inter" font-size="11" lengthAdjust="spacing" textLength="52.0956" x="1572.6644" y="349.2109">bystander</text><rect fill="#E0E7FF" height="36.3441" rx="12.5" ry="12.5" style="stroke:#3730A3;stroke-width:0.5;" width="267.6938" x="1228.808" y="374.4339"/><text fill="#000000" font-family="Inter" font-size="12" lengthAdjust="spacing" textLength="247.6938" x="1238.808" y="397.262">return  call/box &#8230; . project(cont)  (push/pop)</text><rect fill="#E0E7FF" height="36.3441" rx="12.5" ry="12.5" style="stroke:#3730A3;stroke-width:0.5;" width="245.7336" x="1516.5018" y="374.4339"/><text fill="#000000" font-family="Inter" font-size="12" lengthAdjust="spacing" textLength="225.7336" x="1526.5018" y="397.262">return  project(cont)  (skip closed frame)</text><polygon fill="#FEF9C3" points="1501.0118,416.778,1513.0118,428.778,1501.0118,440.778,1489.0118,428.778,1501.0118,416.778" style="stroke:#A16207;stroke-width:0.5;stroke-linejoin:miter;stroke-miterlimit:10;"/><rect fill="#E0E7FF" height="36.3441" rx="12.5" ry="12.5" style="stroke:#3730A3;stroke-width:0.5;" width="180.1531" x="1772.2354" y="340.4339"/><text fill="#000000" font-family="Inter" font-size="12" lengthAdjust="spacing" textLength="160.1531" x="1782.2354" y="363.262">return  &#956;t./t/end  (structural)</text><polygon fill="#FEF9C3" points="994.1943,618.8676,994.1943,618.8676,1006.1943,630.8676,994.1943,642.8676,994.1943,642.8676,982.1943,630.8676,994.1943,618.8676" style="stroke:#A16207;stroke-width:0.5;stroke-linejoin:miter;stroke-miterlimit:10;"/><ellipse cx="994.1943" cy="673.8676" fill="none" rx="11" ry="11" style="stroke:#222222;stroke-width:1;"/><ellipse cx="994.1943" cy="673.8676" fill="#222222" rx="6" ry="6" style="stroke:#222222;stroke-width:1;"/><line style="stroke:#181818;stroke-width:1;" x1="994.1943" x2="994.1943" y1="200.3399" y2="220.3399"/><polygon fill="#181818" points="990.1943,210.3399,994.1943,220.3399,998.1943,210.3399,994.1943,214.3399" style="stroke:#181818;stroke-width:1;stroke-linejoin:miter;stroke-miterlimit:10;"/><line style="stroke:#181818;stroke-width:1;" x1="102.7422" x2="102.7422" y1="389.4339" y2="424.4158"/><polygon fill="#181818" points="98.7422,414.4158,102.7422,424.4158,106.7422,414.4158,102.7422,418.4158" style="stroke:#181818;stroke-width:1;stroke-linejoin:miter;stroke-miterlimit:10;"/><line style="stroke:#181818;stroke-width:1;" x1="102.7422" x2="102.7422" y1="460.7599" y2="535.7599"/><polygon fill="#181818" points="98.7422,525.7599,102.7422,535.7599,106.7422,525.7599,102.7422,529.7599" style="stroke:#181818;stroke-width:1;stroke-linejoin:miter;stroke-miterlimit:10;"/><line style="stroke:#181818;stroke-width:1;" x1="295.2026" x2="295.2026" y1="389.4339" y2="424.4158"/><polygon fill="#181818" points="291.2026,414.4158,295.2026,424.4158,299.2026,414.4158,295.2026,418.4158" style="stroke:#181818;stroke-width:1;stroke-linejoin:miter;stroke-miterlimit:10;"/><line style="stroke:#181818;stroke-width:1;" x1="295.2026" x2="295.2026" y1="460.7599" y2="535.7599"/><polygon fill="#181818" points="291.2026,525.7599,295.2026,535.7599,299.2026,525.7599,295.2026,529.7599" style="stroke:#181818;stroke-width:1;stroke-linejoin:miter;stroke-miterlimit:10;"/><line style="stroke:#181818;stroke-width:1;" x1="138.04" x2="267.2252" y1="377.4339" y2="377.4339"/><polygon fill="#181818" points="257.2252,373.4339,267.2252,377.4339,257.2252,381.4339,261.2252,377.4339" style="stroke:#181818;stroke-width:1;stroke-linejoin:miter;stroke-miterlimit:10;"/><line style="stroke:#181818;stroke-width:1;" x1="293.2989" x2="102.7422" y1="340.4339" y2="340.4339"/><line style="stroke:#181818;stroke-width:1;" x1="102.7422" x2="102.7422" y1="340.4339" y2="365.4339"/><polygon fill="#181818" points="98.7422,355.4339,102.7422,365.4339,106.7422,355.4339,102.7422,359.4339" style="stroke:#181818;stroke-width:1;stroke-linejoin:miter;stroke-miterlimit:10;"/><line style="stroke:#181818;stroke-width:1;" x1="323.18" x2="495.7593" y1="377.4339" y2="377.4339"/><line style="stroke:#181818;stroke-width:1;" x1="495.7593" x2="495.7593" y1="377.4339" y2="419.9248"/><polygon fill="#181818" points="491.7593,409.9248,495.7593,419.9248,499.7593,409.9248,495.7593,413.9248" style="stroke:#181818;stroke-width:1;stroke-linejoin:miter;stroke-miterlimit:10;"/><line style="stroke:#181818;stroke-width:1;" x1="495.7593" x2="495.7593" y1="456.2689" y2="535.7599"/><polygon fill="#181818" points="491.7593,525.7599,495.7593,535.7599,499.7593,525.7599,495.7593,529.7599" style="stroke:#181818;stroke-width:1;stroke-linejoin:miter;stroke-miterlimit:10;"/><line style="stroke:#181818;stroke-width:1;" x1="102.7422" x2="495.7593" y1="535.7599" y2="535.7599"/><line style="stroke:#181818;stroke-width:1;" x1="1154.9697" x2="1154.9697" y1="546.8676" y2="566.8676"/><polygon fill="#181818" points="1150.9697,556.8676,1154.9697,566.8676,1158.9697,556.8676,1154.9697,560.8676" style="stroke:#181818;stroke-width:1;stroke-linejoin:miter;stroke-miterlimit:10;"/><line style="stroke:#181818;stroke-width:1;" x1="1051.3701" x2="1032.5231" y1="488.5235" y2="488.5235"/><line style="stroke:#181818;stroke-width:1;" x1="1032.5231" x2="1032.5231" y1="488.5235" y2="510.5235"/><polygon fill="#181818" points="1028.5231,500.5235,1032.5231,510.5235,1036.5231,500.5235,1032.5231,504.5235" style="stroke:#181818;stroke-width:1;stroke-linejoin:miter;stroke-miterlimit:10;"/><line style="stroke:#181818;stroke-width:1;" x1="1136.1226" x2="1154.9697" y1="488.5235" y2="488.5235"/><line style="stroke:#181818;stroke-width:1;" x1="1154.9697" x2="1154.9697" y1="488.5235" y2="510.5235"/><polygon fill="#181818" points="1150.9697,500.5235,1154.9697,510.5235,1158.9697,500.5235,1154.9697,504.5235" style="stroke:#181818;stroke-width:1;stroke-linejoin:miter;stroke-miterlimit:10;"/><line style="stroke:#181818;stroke-width:1;" x1="1032.5231" x2="1032.5231" y1="546.8676" y2="593.8676"/><line style="stroke:#181818;stroke-width:1;" x1="1032.5231" x2="1093.7464" y1="593.8676" y2="593.8676"/><line style="stroke:#181818;stroke-width:1;" x1="1093.7464" x2="1093.7464" y1="593.8676" y2="608.8676"/><polygon fill="#181818" points="1089.7464,598.8676,1093.7464,608.8676,1097.7464,598.8676,1093.7464,602.8676" style="stroke:#181818;stroke-width:1;stroke-linejoin:miter;stroke-miterlimit:10;"/><line style="stroke:#181818;stroke-width:1;" x1="1093.7464" x2="1093.7464" y1="441.5235" y2="476.5235"/><polygon fill="#181818" points="1089.7464,466.5235,1093.7464,476.5235,1097.7464,466.5235,1093.7464,470.5235" style="stroke:#181818;stroke-width:1;stroke-linejoin:miter;stroke-miterlimit:10;"/><line style="stroke:#181818;stroke-width:1;" x1="677.7517" x2="677.7517" y1="389.4339" y2="424.4158"/><polygon fill="#181818" points="673.7517,414.4158,677.7517,424.4158,681.7517,414.4158,677.7517,418.4158" style="stroke:#181818;stroke-width:1;stroke-linejoin:miter;stroke-miterlimit:10;"/><line style="stroke:#181818;stroke-width:1;" x1="677.7517" x2="677.7517" y1="460.7599" y2="608.8676"/><polygon fill="#181818" points="673.7517,598.8676,677.7517,608.8676,681.7517,598.8676,677.7517,602.8676" style="stroke:#181818;stroke-width:1;stroke-linejoin:miter;stroke-miterlimit:10;"/><line style="stroke:#181818;stroke-width:1;" x1="869.4102" x2="869.4102" y1="389.4339" y2="424.4158"/><polygon fill="#181818" points="865.4102,414.4158,869.4102,424.4158,873.4102,414.4158,869.4102,418.4158" style="stroke:#181818;stroke-width:1;stroke-linejoin:miter;stroke-miterlimit:10;"/><line style="stroke:#181818;stroke-width:1;" x1="869.4102" x2="869.4102" y1="460.7599" y2="608.8676"/><polygon fill="#181818" points="865.4102,598.8676,869.4102,608.8676,873.4102,598.8676,869.4102,602.8676" style="stroke:#181818;stroke-width:1;stroke-linejoin:miter;stroke-miterlimit:10;"/><line style="stroke:#181818;stroke-width:1;" x1="713.0496" x2="841.4329" y1="377.4339" y2="377.4339"/><polygon fill="#181818" points="831.4329,373.4339,841.4329,377.4339,831.4329,381.4339,835.4329,377.4339" style="stroke:#181818;stroke-width:1;stroke-linejoin:miter;stroke-miterlimit:10;"/><line style="stroke:#181818;stroke-width:1;" x1="904.703" x2="677.7517" y1="340.4339" y2="340.4339"/><line style="stroke:#181818;stroke-width:1;" x1="677.7517" x2="677.7517" y1="340.4339" y2="365.4339"/><polygon fill="#181818" points="673.7517,355.4339,677.7517,365.4339,681.7517,355.4339,677.7517,359.4339" style="stroke:#181818;stroke-width:1;stroke-linejoin:miter;stroke-miterlimit:10;"/><line style="stroke:#181818;stroke-width:1;" x1="897.3876" x2="1093.7464" y1="377.4339" y2="377.4339"/><line style="stroke:#181818;stroke-width:1;" x1="1093.7464" x2="1093.7464" y1="377.4339" y2="405.1794"/><polygon fill="#181818" points="1089.7464,395.1794,1093.7464,405.1794,1097.7464,395.1794,1093.7464,399.1794" style="stroke:#181818;stroke-width:1;stroke-linejoin:miter;stroke-miterlimit:10;"/><line style="stroke:#181818;stroke-width:1;" x1="677.7517" x2="1093.7464" y1="608.8676" y2="608.8676"/><line style="stroke:#181818;stroke-width:1;" x1="1429.3592" x2="1362.6549" y1="352.4339" y2="352.4339"/><line style="stroke:#181818;stroke-width:1;" x1="1362.6549" x2="1362.6549" y1="352.4339" y2="374.4339"/><polygon fill="#181818" points="1358.6549,364.4339,1362.6549,374.4339,1366.6549,364.4339,1362.6549,368.4339" style="stroke:#181818;stroke-width:1;stroke-linejoin:miter;stroke-miterlimit:10;"/><line style="stroke:#181818;stroke-width:1;" x1="1572.6644" x2="1639.3686" y1="352.4339" y2="352.4339"/><line style="stroke:#181818;stroke-width:1;" x1="1639.3686" x2="1639.3686" y1="352.4339" y2="374.4339"/><polygon fill="#181818" points="1635.3686,364.4339,1639.3686,374.4339,1643.3686,364.4339,1639.3686,368.4339" style="stroke:#181818;stroke-width:1;stroke-linejoin:miter;stroke-miterlimit:10;"/><line style="stroke:#181818;stroke-width:1;" x1="1362.6549" x2="1362.6549" y1="410.778" y2="428.778"/><line style="stroke:#181818;stroke-width:1;" x1="1362.6549" x2="1489.0118" y1="428.778" y2="428.778"/><polygon fill="#181818" points="1479.0118,424.778,1489.0118,428.778,1479.0118,432.778,1483.0118,428.778" style="stroke:#181818;stroke-width:1;stroke-linejoin:miter;stroke-miterlimit:10;"/><line style="stroke:#181818;stroke-width:1;" x1="1639.3686" x2="1639.3686" y1="410.778" y2="428.778"/><line style="stroke:#181818;stroke-width:1;" x1="1639.3686" x2="1513.0118" y1="428.778" y2="428.778"/><polygon fill="#181818" points="1523.0118,424.778,1513.0118,428.778,1523.0118,432.778,1519.0118,428.778" style="stroke:#181818;stroke-width:1;stroke-linejoin:miter;stroke-miterlimit:10;"/><line style="stroke:#181818;stroke-width:1;" x1="943.4416" x2="293.2989" y1="288.684" y2="288.684"/><line style="stroke:#181818;stroke-width:1;" x1="293.2989" x2="293.2989" y1="288.684" y2="340.4339"/><text fill="#000000" font-family="Inter" font-size="11" lengthAdjust="spacing" textLength="113.5951" x="293.2989" y="318.9339">Interaction from&#8594;to:&#8467;</text><line style="stroke:#181818;stroke-width:1;" x1="1044.947" x2="1862.312" y1="288.684" y2="288.684"/><line style="stroke:#181818;stroke-width:1;" x1="1862.312" x2="1862.312" y1="288.684" y2="340.4339"/><polygon fill="#181818" points="1858.312,330.4339,1862.312,340.4339,1866.312,330.4339,1862.312,334.4339" style="stroke:#181818;stroke-width:1;stroke-linejoin:miter;stroke-miterlimit:10;"/><text fill="#000000" font-family="Inter" font-size="11" lengthAdjust="spacing" textLength="74.9425" x="1862.312" y="318.9339">Rec / Var / End</text><line style="stroke:#181818;stroke-width:1;" x1="904.703" x2="904.703" y1="288.684" y2="340.4339"/><text fill="#000000" font-family="Inter" font-size="11" lengthAdjust="spacing" textLength="82.6963" x="904.703" y="313.9339">Choice from&#8594;to</text><line style="stroke:#181818;stroke-width:1;" x1="1501.0118" x2="1501.0118" y1="288.684" y2="340.4339"/><polygon fill="#181818" points="1497.0118,330.4339,1501.0118,340.4339,1505.0118,330.4339,1501.0118,334.4339" style="stroke:#181818;stroke-width:1;stroke-linejoin:miter;stroke-miterlimit:10;"/><text fill="#000000" font-family="Inter" font-size="11" lengthAdjust="spacing" textLength="114.7842" x="1501.0118" y="313.9339">GlobalCall / GlobalBox</text><line style="stroke:#181818;stroke-width:1;" x1="293.2989" x2="293.2989" y1="535.7599" y2="630.8676"/><line style="stroke:#181818;stroke-width:1;" x1="293.2989" x2="982.1943" y1="630.8676" y2="630.8676"/><polygon fill="#181818" points="972.1943,626.8676,982.1943,630.8676,972.1943,634.8676,976.1943,630.8676" style="stroke:#181818;stroke-width:1;stroke-linejoin:miter;stroke-miterlimit:10;"/><line style="stroke:#181818;stroke-width:1;" x1="1862.312" x2="1862.312" y1="376.778" y2="630.8676"/><line style="stroke:#181818;stroke-width:1;" x1="1862.312" x2="1006.1943" y1="630.8676" y2="630.8676"/><polygon fill="#181818" points="1016.1943,626.8676,1006.1943,630.8676,1016.1943,634.8676,1012.1943,630.8676" style="stroke:#181818;stroke-width:1;stroke-linejoin:miter;stroke-miterlimit:10;"/><line style="stroke:#181818;stroke-width:1;" x1="904.703" x2="904.703" y1="608.8676" y2="630.8676"/><polygon fill="#181818" points="900.703,620.8676,904.703,630.8676,908.703,620.8676,904.703,624.8676" style="stroke:#181818;stroke-width:1;stroke-linejoin:miter;stroke-miterlimit:10;"/><line style="stroke:#181818;stroke-width:1;" x1="1501.0118" x2="1501.0118" y1="440.778" y2="630.8676"/><polygon fill="#181818" points="1497.0118,620.8676,1501.0118,630.8676,1505.0118,620.8676,1501.0118,624.8676" style="stroke:#181818;stroke-width:1;stroke-linejoin:miter;stroke-miterlimit:10;"/><line style="stroke:#181818;stroke-width:1;" x1="994.1943" x2="994.1943" y1="256.684" y2="276.684"/><polygon fill="#181818" points="990.1943,266.684,994.1943,276.684,998.1943,266.684,994.1943,270.684" style="stroke:#181818;stroke-width:1;stroke-linejoin:miter;stroke-miterlimit:10;"/><line style="stroke:#181818;stroke-width:1;" x1="994.1943" x2="994.1943" y1="642.8676" y2="662.8676"/><polygon fill="#181818" points="990.1943,652.8676,994.1943,662.8676,998.1943,652.8676,994.1943,656.8676" style="stroke:#181818;stroke-width:1;stroke-linejoin:miter;stroke-miterlimit:10;"/><?plantuml-src fLJ1RXCn4BtlLmogH1EfIj9K4BfLLD425HU4471tx75Zih5NzYHjX90ue1uu8H3dIXmGV00tle5_OB-4yMwwITgqFN29j9atRyPlviqcvDwzGKcDeotmpHHeYA1Gcc2S1H8Zj92ZXwFC3KJsSfOZI6S3-OcaLh89pqM6H9X2GAlwE4OlCiLCAAVzC9fjmM0MI5Y5lisnO-o7J11kWHHPrfyQnzaH7JleUrIj98oCpOKNOnW8EJhsRcBLeSkS1_B21WwXfIMKGYqc6Jrnbfw9CS9JI-YNuc4eb3inzXYqo08kHHvACbD3iuDBTJQmWpsjro6TvuVCKJkzdOxOMODwPCJOMNM5LgFUbJSbBBEBxVlTJYz9M3nFIReofBqad1YIGsZKem2duMY_cKWH41gb1eBPUOJQkt5nzfbSMdpuqam0Z8Q6XtuPs6_6ULjep3346C26sjO2xwKUQU8jm1ronVaFJYtEVqAhNXOkJDm70BAc5uparl1XHtSrrdpxPJ-tCKAZNfiBcYu-q9sQPYKBeC6YvbMsLKRFPJWSEYDneS2rhu-xMrUw943nyIkvjy3z_ltr3TA5NVYp2Uzkq80zW6QwUC6g47TZ1xVpNgk4a1AAiqzGkWeSrm6s50pO97A8OQy4nwvAW1XaU7KuyRLII-nTTCMaLM9LsheQfv7hTbCl30TUsPfqRmu8vF8ginp0wY2gut4O-slFByc1ErsCW-r0HfgSBqC04tUMdRnkbnJkBaaORqXxu4wXUF_zyYRnJkIJC6pdBl-_hGAPkO2gwkdAYhr0oKzwBJp_FhOgqixFHqtwvpUrsjJchCXOkdN2HvAf-A_Ao4bKxny0?></g></svg>