<?xml version="1.0" encoding="UTF-8" standalone="no"?>
<!DOCTYPE svg PUBLIC "-//W3C//DTD SVG 1.1//EN"
 "http://www.w3.org/Graphics/SVG/1.1/DTD/svg11.dtd">
<!-- Generated by graphviz version 14.1.5 (0)
 -->
<!-- Title: proofmap Pages: 1 -->
<svg width="628pt" height="562pt"
 viewBox="0.00 0.00 628.00 562.00" xmlns="http://www.w3.org/2000/svg" xmlns:xlink="http://www.w3.org/1999/xlink">
<g id="graph0" class="graph" transform="scale(1 1) rotate(0) translate(4 558)">
<title>proofmap</title>
<g id="clust1" class="cluster">
<title>cluster_rocq</title>
<path fill="#f5f3ff" stroke="#6d28d9" d="M20,-274C20,-274 198.25,-274 198.25,-274 204.25,-274 210.25,-280 210.25,-286 210.25,-286 210.25,-534 210.25,-534 210.25,-540 204.25,-546 198.25,-546 198.25,-546 20,-546 20,-546 14,-546 8,-540 8,-534 8,-534 8,-286 8,-286 8,-280 14,-274 20,-274"/>
<text xml:space="preserve" text-anchor="middle" x="109.12" y="-531.55" font-family="Inter" font-size="11.00">Rocq (.v) — axiom&#45;free, Qed</text>
</g>
<g id="clust2" class="cluster">
<title>cluster_tla</title>
<path fill="#eef2ff" stroke="#3730a3" d="M20.38,-8C20.38,-8 197.88,-8 197.88,-8 203.88,-8 209.88,-14 209.88,-20 209.88,-20 209.88,-254 209.88,-254 209.88,-260 203.88,-266 197.88,-266 197.88,-266 20.38,-266 20.38,-266 14.38,-266 8.38,-260 8.38,-254 8.38,-254 8.38,-20 8.38,-20 8.38,-14 14.38,-8 20.38,-8"/>
<text xml:space="preserve" text-anchor="middle" x="109.12" y="-251.55" font-family="Inter" font-size="11.00">TLA⁺ (.tla) — TLC / TLAPS</text>
</g>
<g id="clust3" class="cluster">
<title>cluster_code</title>
<path fill="#f0fdfa" stroke="#0f766e" d="M242.25,-178C242.25,-178 378.5,-178 378.5,-178 384.5,-178 390.5,-184 390.5,-190 390.5,-190 390.5,-404 390.5,-404 390.5,-410 384.5,-416 378.5,-416 378.5,-416 242.25,-416 242.25,-416 236.25,-416 230.25,-410 230.25,-404 230.25,-404 230.25,-190 230.25,-190 230.25,-184 236.25,-178 242.25,-178"/>
<text xml:space="preserve" text-anchor="middle" x="310.38" y="-401.55" font-family="Inter" font-size="11.00">code locus</text>
</g>
<!-- mpst -->
<g id="node1" class="node">
<title>mpst</title>
<path fill="#ede9fe" stroke="#6d28d9" d="M182.38,-405.5C182.38,-405.5 35.88,-405.5 35.88,-405.5 29.88,-405.5 23.88,-399.5 23.88,-393.5 23.88,-393.5 23.88,-358.5 23.88,-358.5 23.88,-352.5 29.88,-346.5 35.88,-346.5 35.88,-346.5 182.38,-346.5 182.38,-346.5 188.38,-346.5 194.38,-352.5 194.38,-358.5 194.38,-358.5 194.38,-393.5 194.38,-393.5 194.38,-399.5 188.38,-405.5 182.38,-405.5"/>
<text xml:space="preserve" text-anchor="middle" x="109.12" y="-392.95" font-family="Inter" font-size="9.00" fill="#4c1d95">CsmMpst.v</text>
<text xml:space="preserve" text-anchor="middle" x="109.12" y="-380.2" font-family="Inter" font-size="9.00" fill="#4c1d95">T3 progress · T4 subject reduction</text>
<text xml:space="preserve" text-anchor="middle" x="109.12" y="-367.45" font-family="Inter" font-size="9.00" fill="#4c1d95">T5 projection soundness · T6 op. corr.</text>
<text xml:space="preserve" text-anchor="middle" x="109.12" y="-354.7" font-family="Inter" font-size="9.00" fill="#4c1d95">CT&#45;2 monoid laws</text>
</g>
<!-- cproj -->
<g id="node9" class="node">
<title>cproj</title>
<path fill="#ccfbf1" stroke="#0f766e" d="M348.38,-330C348.38,-330 272.38,-330 272.38,-330 266.38,-330 260.38,-324 260.38,-318 260.38,-318 260.38,-306 260.38,-306 260.38,-300 266.38,-294 272.38,-294 272.38,-294 348.38,-294 348.38,-294 354.38,-294 360.38,-300 360.38,-306 360.38,-306 360.38,-318 360.38,-318 360.38,-324 354.38,-330 348.38,-330"/>
<text xml:space="preserve" text-anchor="middle" x="310.38" y="-309.82" font-family="Inter" font-size="9.00" fill="#134e4a">csm/mpst/project.rs</text>
</g>
<!-- mpst&#45;&gt;cproj -->
<g id="edge1" class="edge">
<title>mpst&#45;&gt;cproj</title>
<path fill="none" stroke="#475569" d="M194.62,-348.86C214.29,-342.54 234.76,-335.97 252.87,-330.15"/>
<polygon fill="#475569" stroke="#475569" points="253.44,-332.17 258.51,-328.34 252.15,-328.17 253.44,-332.17"/>
</g>
<!-- pd -->
<g id="node2" class="node">
<title>pd</title>
<path fill="#ede9fe" stroke="#6d28d9" d="M190.25,-328.12C190.25,-328.12 28,-328.12 28,-328.12 22,-328.12 16,-322.12 16,-316.12 16,-316.12 16,-293.88 16,-293.88 16,-287.88 22,-281.88 28,-281.88 28,-281.88 190.25,-281.88 190.25,-281.88 196.25,-281.88 202.25,-287.88 202.25,-293.88 202.25,-293.88 202.25,-316.12 202.25,-316.12 202.25,-322.12 196.25,-328.12 190.25,-328.12"/>
<text xml:space="preserve" text-anchor="middle" x="109.12" y="-315.57" font-family="Inter" font-size="9.00" fill="#4c1d95">CsmPushdown.v</text>
<text xml:space="preserve" text-anchor="middle" x="109.12" y="-302.82" font-family="Inter" font-size="9.00" fill="#4c1d95">conformance_sound/complete/decidable</text>
<text xml:space="preserve" text-anchor="middle" x="109.12" y="-290.07" font-family="Inter" font-size="9.00" fill="#4c1d95">pushdown_terminates (stack = nat)</text>
</g>
<!-- cconf -->
<g id="node10" class="node">
<title>cconf</title>
<path fill="#ccfbf1" stroke="#0f766e" d="M349.5,-276C349.5,-276 271.25,-276 271.25,-276 265.25,-276 259.25,-270 259.25,-264 259.25,-264 259.25,-252 259.25,-252 259.25,-246 265.25,-240 271.25,-240 271.25,-240 349.5,-240 349.5,-240 355.5,-240 361.5,-246 361.5,-252 361.5,-252 361.5,-264 361.5,-264 361.5,-270 355.5,-276 349.5,-276"/>
<text xml:space="preserve" text-anchor="middle" x="310.38" y="-255.82" font-family="Inter" font-size="9.00" fill="#134e4a">csm/conformance.rs</text>
</g>
<!-- pd&#45;&gt;cconf -->
<g id="edge2" class="edge">
<title>pd&#45;&gt;cconf</title>
<path fill="none" stroke="#475569" d="M202.46,-283.22C219.32,-279.24 236.46,-275.2 251.94,-271.55"/>
<polygon fill="#475569" stroke="#475569" points="252.09,-273.67 257.45,-270.25 251.13,-269.58 252.09,-273.67"/>
</g>
<!-- dl -->
<g id="node3" class="node">
<title>dl</title>
<path fill="#ede9fe" stroke="#6d28d9" d="M169.62,-460C169.62,-460 48.62,-460 48.62,-460 42.62,-460 36.62,-454 36.62,-448 36.62,-448 36.62,-436 36.62,-436 36.62,-430 42.62,-424 48.62,-424 48.62,-424 169.62,-424 169.62,-424 175.62,-424 181.62,-430 181.62,-436 181.62,-436 181.62,-448 181.62,-448 181.62,-454 175.62,-460 169.62,-460"/>
<text xml:space="preserve" text-anchor="middle" x="109.12" y="-446.2" font-family="Inter" font-size="9.00" fill="#4c1d95">CsmDeadlockFreedom.v</text>
<text xml:space="preserve" text-anchor="middle" x="109.12" y="-433.45" font-family="Inter" font-size="9.00" fill="#4c1d95">wf ⇒ deadlock_free ∧ progress</text>
</g>
<!-- dl&#45;&gt;cproj -->
<g id="edge3" class="edge">
<title>dl&#45;&gt;cproj</title>
<path fill="none" stroke="#475569" d="M181.92,-432.62C192.45,-428.58 202.38,-422.92 210.25,-415 234.87,-390.23 206.45,-364.56 230.25,-339 236.57,-332.21 244.67,-327.13 253.26,-323.32"/>
<polygon fill="#475569" stroke="#475569" points="254.03,-325.28 258.83,-321.1 252.48,-321.37 254.03,-325.28"/>
</g>
<!-- med -->
<g id="node4" class="node">
<title>med</title>
<path fill="#ede9fe" stroke="#6d28d9" d="M170.38,-514C170.38,-514 47.88,-514 47.88,-514 41.88,-514 35.88,-508 35.88,-502 35.88,-502 35.88,-490 35.88,-490 35.88,-484 41.88,-478 47.88,-478 47.88,-478 170.38,-478 170.38,-478 176.38,-478 182.38,-484 182.38,-490 182.38,-490 182.38,-502 182.38,-502 182.38,-508 176.38,-514 170.38,-514"/>
<text xml:space="preserve" text-anchor="middle" x="109.12" y="-500.2" font-family="Inter" font-size="9.00" fill="#4c1d95">CsmMedium.v</text>
<text xml:space="preserve" text-anchor="middle" x="109.12" y="-487.45" font-family="Inter" font-size="9.00" fill="#4c1d95">black&#45;box never on Latent edge</text>
</g>
<!-- cmed -->
<g id="node12" class="node">
<title>cmed</title>
<path fill="#ccfbf1" stroke="#0f766e" d="M370.5,-384C370.5,-384 250.25,-384 250.25,-384 244.25,-384 238.25,-378 238.25,-372 238.25,-372 238.25,-360 238.25,-360 238.25,-354 244.25,-348 250.25,-348 250.25,-348 370.5,-348 370.5,-348 376.5,-348 382.5,-354 382.5,-360 382.5,-360 382.5,-372 382.5,-372 382.5,-378 376.5,-384 370.5,-384"/>
<text xml:space="preserve" text-anchor="middle" x="310.38" y="-363.82" font-family="Inter" font-size="9.00" fill="#134e4a">csm/role.rs (MessageMedium)</text>
</g>
<!-- med&#45;&gt;cmed -->
<g id="edge4" class="edge">
<title>med&#45;&gt;cmed</title>
<path fill="none" stroke="#475569" d="M182.87,-481.43C192.42,-478.09 201.8,-473.99 210.25,-469 244.37,-448.82 274.5,-413.73 292.34,-390.18"/>
<polygon fill="#475569" stroke="#475569" points="294.02,-391.45 295.92,-385.38 290.65,-388.94 294.02,-391.45"/>
</g>
<!-- cfsm -->
<g id="node5" class="node">
<title>cfsm</title>
<path fill="#e0e7ff" stroke="#3730a3" d="M185.75,-62.12C185.75,-62.12 32.5,-62.12 32.5,-62.12 26.5,-62.12 20.5,-56.12 20.5,-50.12 20.5,-50.12 20.5,-27.88 20.5,-27.88 20.5,-21.88 26.5,-15.88 32.5,-15.88 32.5,-15.88 185.75,-15.88 185.75,-15.88 191.75,-15.88 197.75,-21.88 197.75,-27.88 197.75,-27.88 197.75,-50.12 197.75,-50.12 197.75,-56.12 191.75,-62.12 185.75,-62.12"/>
<text xml:space="preserve" text-anchor="middle" x="109.12" y="-49.58" font-family="Inter" font-size="9.00" fill="#1e1b4b">CfsmNetwork.tla</text>
<text xml:space="preserve" text-anchor="middle" x="109.12" y="-36.83" font-family="Inter" font-size="9.00" fill="#1e1b4b">DeadlockFreedom · NoOrphan</text>
<text xml:space="preserve" text-anchor="middle" x="109.12" y="-24.07" font-family="Inter" font-size="9.00" fill="#1e1b4b">RoundsBounded · EventualTermination</text>
</g>
<!-- creg -->
<g id="node11" class="node">
<title>creg</title>
<path fill="#ccfbf1" stroke="#0f766e" d="M337.88,-222C337.88,-222 282.88,-222 282.88,-222 276.88,-222 270.88,-216 270.88,-210 270.88,-210 270.88,-198 270.88,-198 270.88,-192 276.88,-186 282.88,-186 282.88,-186 337.88,-186 337.88,-186 343.88,-186 349.88,-192 349.88,-198 349.88,-198 349.88,-210 349.88,-210 349.88,-216 343.88,-222 337.88,-222"/>
<text xml:space="preserve" text-anchor="middle" x="310.38" y="-201.82" font-family="Inter" font-size="9.00" fill="#134e4a">csm/registry.rs</text>
</g>
<!-- cfsm&#45;&gt;creg -->
<g id="edge5" class="edge">
<title>cfsm&#45;&gt;creg</title>
<path fill="none" stroke="#475569" d="M196.53,-62.61C201.33,-65.14 205.94,-67.93 210.25,-71 250.35,-99.62 281.12,-149.37 297.12,-179.24"/>
<polygon fill="#475569" stroke="#475569" points="295.14,-179.99 299.79,-184.32 298.86,-178.03 295.14,-179.99"/>
</g>
<!-- lin -->
<g id="node6" class="node">
<title>lin</title>
<path fill="#e0e7ff" stroke="#3730a3" d="M189.88,-116C189.88,-116 28.38,-116 28.38,-116 22.38,-116 16.38,-110 16.38,-104 16.38,-104 16.38,-92 16.38,-92 16.38,-86 22.38,-80 28.38,-80 28.38,-80 189.88,-80 189.88,-80 195.88,-80 201.88,-86 201.88,-92 201.88,-92 201.88,-104 201.88,-104 201.88,-110 195.88,-116 189.88,-116"/>
<text xml:space="preserve" text-anchor="middle" x="109.12" y="-102.2" font-family="Inter" font-size="9.00" fill="#1e1b4b">A2aLinearPipeline.tla</text>
<text xml:space="preserve" text-anchor="middle" x="109.12" y="-89.45" font-family="Inter" font-size="9.00" fill="#1e1b4b">DeadlockFreedom · EventualTermination</text>
</g>
<!-- lin&#45;&gt;creg -->
<g id="edge6" class="edge">
<title>lin&#45;&gt;creg</title>
<path fill="none" stroke="#475569" d="M190.48,-116.48C197.3,-119 203.98,-121.83 210.25,-125 238.97,-139.52 267.23,-163.24 286.18,-180.9"/>
<polygon fill="#475569" stroke="#475569" points="284.36,-182.07 290.17,-184.67 287.25,-179.02 284.36,-182.07"/>
</g>
<!-- vpa -->
<g id="node7" class="node">
<title>vpa</title>
<path fill="#e0e7ff" stroke="#3730a3" d="M183.5,-234.12C183.5,-234.12 34.75,-234.12 34.75,-234.12 28.75,-234.12 22.75,-228.12 22.75,-222.12 22.75,-222.12 22.75,-199.88 22.75,-199.88 22.75,-193.88 28.75,-187.88 34.75,-187.88 34.75,-187.88 183.5,-187.88 183.5,-187.88 189.5,-187.88 195.5,-193.88 195.5,-199.88 195.5,-199.88 195.5,-222.12 195.5,-222.12 195.5,-228.12 189.5,-234.12 183.5,-234.12"/>
<text xml:space="preserve" text-anchor="middle" x="109.12" y="-221.57" font-family="Inter" font-size="9.00" fill="#1e1b4b">PushdownCsm + VpaConformance.tla</text>
<text xml:space="preserve" text-anchor="middle" x="109.12" y="-208.82" font-family="Inter" font-size="9.00" fill="#1e1b4b">StackBounded · WellNested</text>
<text xml:space="preserve" text-anchor="middle" x="109.12" y="-196.07" font-family="Inter" font-size="9.00" fill="#1e1b4b">BalancedInv · BadRejectedInv</text>
</g>
<!-- vpa&#45;&gt;cconf -->
<g id="edge7" class="edge">
<title>vpa&#45;&gt;cconf</title>
<path fill="none" stroke="#475569" d="M195.78,-231.2C214.78,-235.69 234.46,-240.33 252,-244.47"/>
<polygon fill="#475569" stroke="#475569" points="251.08,-246.41 257.4,-245.74 252.04,-242.32 251.08,-246.41"/>
</g>
<!-- wn -->
<g id="node8" class="node">
<title>wn</title>
<path fill="#e0e7ff" stroke="#3730a3" d="M189.88,-170C189.88,-170 28.38,-170 28.38,-170 22.38,-170 16.38,-164 16.38,-158 16.38,-158 16.38,-146 16.38,-146 16.38,-140 22.38,-134 28.38,-134 28.38,-134 189.88,-134 189.88,-134 195.88,-134 201.88,-140 201.88,-146 201.88,-146 201.88,-158 201.88,-158 201.88,-164 195.88,-170 189.88,-170"/>
<text xml:space="preserve" text-anchor="middle" x="109.12" y="-156.2" font-family="Inter" font-size="9.00" fill="#1e1b4b">WorktreeNegotiation.tla</text>
<text xml:space="preserve" text-anchor="middle" x="109.12" y="-143.45" font-family="Inter" font-size="9.00" fill="#1e1b4b">GatekeeperSafety · EventuallyUnblocked</text>
</g>
<!-- wn&#45;&gt;creg -->
<g id="edge8" class="edge">
<title>wn&#45;&gt;creg</title>
<path fill="none" stroke="#475569" d="M180.93,-170.48C208.32,-177.63 238.88,-185.6 263.33,-191.98"/>
<polygon fill="#475569" stroke="#475569" points="262.57,-193.96 268.91,-193.44 263.64,-189.89 262.57,-193.96"/>
</g>
<!-- gold -->
<g id="node13" class="node">
<title>gold</title>
<polygon fill="#dcfce7" stroke="#15803d" points="613.75,-222 418.5,-222 418.5,-186 619.75,-186 619.75,-216 613.75,-222"/>
<polyline fill="none" stroke="#15803d" points="613.75,-222 613.75,-216"/>
<polyline fill="none" stroke="#15803d" points="619.75,-216 613.75,-216"/>
<text xml:space="preserve" text-anchor="middle" x="519.12" y="-208.2" font-family="Inter" font-size="9.00" fill="#14532d">golden topology test (csm/mod.rs)</text>
<text xml:space="preserve" text-anchor="middle" x="519.12" y="-195.45" font-family="Inter" font-size="9.00" fill="#14532d">pins (roles,channels) ⇒ TLA/Rust cannot drift</text>
</g>
<!-- creg&#45;&gt;gold -->
<g id="edge9" class="edge">
<title>creg&#45;&gt;gold</title>
<path fill="none" stroke="#475569" stroke-dasharray="1,5" d="M350.26,-204C367.71,-204 389.23,-204 410.98,-204"/>
<polygon fill="#475569" stroke="#475569" points="410.85,-206.1 416.85,-204 410.85,-201.9 410.85,-206.1"/>
</g>
</g>
</svg>
