<?xml version="1.0" encoding="UTF-8" standalone="no"?>
<!DOCTYPE svg PUBLIC "-//W3C//DTD SVG 1.1//EN"
 "http://www.w3.org/Graphics/SVG/1.1/DTD/svg11.dtd">
<!-- Generated by graphviz version 14.1.5 (0)
 -->
<!-- Title: rlmtree Pages: 1 -->
<svg width="440pt" height="333pt"
 viewBox="0.00 0.00 440.00 333.00" xmlns="http://www.w3.org/2000/svg" xmlns:xlink="http://www.w3.org/1999/xlink">
<g id="graph0" class="graph" transform="scale(1 1) rotate(0) translate(4 329)">
<title>rlmtree</title>
<!-- root -->
<g id="node1" class="node">
<title>root</title>
<polygon fill="#ede9fe" stroke="#6d28d9" points="362.38,-325 217.62,-325 213.62,-321 213.62,-288.5 358.38,-288.5 362.38,-292.5 362.38,-325"/>
<polyline fill="none" stroke="#6d28d9" points="358.38,-321 213.62,-321"/>
<polyline fill="none" stroke="#6d28d9" points="358.38,-321 358.38,-288.5"/>
<polyline fill="none" stroke="#6d28d9" points="358.38,-321 362.38,-325"/>
<text xml:space="preserve" text-anchor="middle" x="288" y="-311.5" font-family="Inter" font-size="10.00" fill="#4c1d95">root run &#160;(depth 1, budget B)</text>
<text xml:space="preserve" text-anchor="middle" x="288" y="-297.25" font-family="Inter" font-size="10.00" fill="#4c1d95">peek · strategy · decompose</text>
</g>
<!-- n1 -->
<g id="node2" class="node">
<title>n1</title>
<path fill="#ede9fe" stroke="#6d28d9" d="M236.5,-235.25C236.5,-235.25 85.5,-235.25 85.5,-235.25 79.5,-235.25 73.5,-229.25 73.5,-223.25 73.5,-223.25 73.5,-210.75 73.5,-210.75 73.5,-204.75 79.5,-198.75 85.5,-198.75 85.5,-198.75 236.5,-198.75 236.5,-198.75 242.5,-198.75 248.5,-204.75 248.5,-210.75 248.5,-210.75 248.5,-223.25 248.5,-223.25 248.5,-229.25 242.5,-235.25 236.5,-235.25"/>
<text xml:space="preserve" text-anchor="middle" x="161" y="-221.75" font-family="Inter" font-size="10.00" fill="#4c1d95">recurse &#160;(depth 2)</text>
<text xml:space="preserve" text-anchor="middle" x="161" y="-207.5" font-family="Inter" font-size="10.00" fill="#4c1d95">child_frame: depth−1, budget slice</text>
</g>
<!-- root&#45;&gt;n1 -->
<g id="edge1" class="edge">
<title>root&#45;&gt;n1</title>
<path fill="none" stroke="#7c3aed" d="M213.42,-292.54C190.55,-286.9 169.53,-279.51 162.5,-270.5 156.48,-262.79 155.24,-252.31 155.84,-242.75"/>
<polygon fill="#7c3aed" stroke="#7c3aed" points="157.92,-243.05 156.48,-236.85 153.74,-242.59 157.92,-243.05"/>
<text xml:space="preserve" text-anchor="middle" x="214.25" y="-257.2" font-family="Times,serif" font-size="14.00">recurse (push)</text>
</g>
<!-- l1 -->
<g id="node3" class="node">
<title>l1</title>
<path fill="#e0f2fe" stroke="#075985" d="M342.12,-180.75C342.12,-180.75 233.88,-180.75 233.88,-180.75 227.88,-180.75 221.88,-174.75 221.88,-168.75 221.88,-168.75 221.88,-156.25 221.88,-156.25 221.88,-150.25 227.88,-144.25 233.88,-144.25 233.88,-144.25 342.12,-144.25 342.12,-144.25 348.12,-144.25 354.12,-150.25 354.12,-156.25 354.12,-156.25 354.12,-168.75 354.12,-168.75 354.12,-174.75 348.12,-180.75 342.12,-180.75"/>
<text xml:space="preserve" text-anchor="middle" x="288" y="-167.25" font-family="Inter" font-size="10.00" fill="#0c4a6e">LEAF</text>
<text xml:space="preserve" text-anchor="middle" x="288" y="-153" font-family="Inter" font-size="10.00" fill="#0c4a6e">LM peer answers snippet</text>
</g>
<!-- root&#45;&gt;l1 -->
<g id="edge2" class="edge">
<title>root&#45;&gt;l1</title>
<path fill="none" stroke="#0284c7" d="M288,-288.02C288,-262.86 288,-216.7 288,-188.19"/>
<polygon fill="#0284c7" stroke="#0284c7" points="290.1,-188.52 288,-182.52 285.9,-188.52 290.1,-188.52"/>
<text xml:space="preserve" text-anchor="middle" x="301.12" y="-257.2" font-family="Times,serif" font-size="14.00">leaf</text>
</g>
<!-- l2 -->
<g id="node4" class="node">
<title>l2</title>
<path fill="#e0f2fe" stroke="#075985" d="M42,-126C42,-126 12,-126 12,-126 6,-126 0,-120 0,-114 0,-114 0,-102 0,-102 0,-96 6,-90 12,-90 12,-90 42,-90 42,-90 48,-90 54,-96 54,-102 54,-102 54,-114 54,-114 54,-120 48,-126 42,-126"/>
<text xml:space="preserve" text-anchor="middle" x="27" y="-105.62" font-family="Inter" font-size="10.00" fill="#0c4a6e">LEAF</text>
</g>
<!-- n1&#45;&gt;l2 -->
<g id="edge3" class="edge">
<title>n1&#45;&gt;l2</title>
<path fill="none" stroke="#7c3aed" d="M79.55,-198.28C69.99,-193.72 61,-187.97 53.5,-180.75 40.6,-168.32 33.94,-149.06 30.52,-133.62"/>
<polygon fill="#7c3aed" stroke="#7c3aed" points="32.61,-133.36 29.38,-127.89 28.49,-134.18 32.61,-133.36"/>
<text xml:space="preserve" text-anchor="middle" x="105.25" y="-157.82" font-family="Times,serif" font-size="14.00">recurse (push)</text>
</g>
<!-- l3 -->
<g id="node5" class="node">
<title>l3</title>
<path fill="#e0f2fe" stroke="#075985" d="M239.75,-126.25C239.75,-126.25 84.25,-126.25 84.25,-126.25 78.25,-126.25 72.25,-120.25 72.25,-114.25 72.25,-114.25 72.25,-101.75 72.25,-101.75 72.25,-95.75 78.25,-89.75 84.25,-89.75 84.25,-89.75 239.75,-89.75 239.75,-89.75 245.75,-89.75 251.75,-95.75 251.75,-101.75 251.75,-101.75 251.75,-114.25 251.75,-114.25 251.75,-120.25 245.75,-126.25 239.75,-126.25"/>
<text xml:space="preserve" text-anchor="middle" x="162" y="-112.75" font-family="Inter" font-size="10.00" fill="#0c4a6e">LEAF</text>
<text xml:space="preserve" text-anchor="middle" x="162" y="-98.5" font-family="Inter" font-size="10.00" fill="#0c4a6e">(depth_remaining = 0 ⇒ forced leaf)</text>
</g>
<!-- n1&#45;&gt;l3 -->
<g id="edge4" class="edge">
<title>n1&#45;&gt;l3</title>
<path fill="none" stroke="#0284c7" d="M161.17,-198.33C161.33,-180.83 161.58,-153.86 161.77,-134.13"/>
<polygon fill="#0284c7" stroke="#0284c7" points="163.86,-134.23 161.82,-128.21 159.66,-134.19 163.86,-134.23"/>
<text xml:space="preserve" text-anchor="middle" x="174.77" y="-157.82" font-family="Times,serif" font-size="14.00">leaf</text>
</g>
<!-- st -->
<g id="node6" class="node">
<title>st</title>
<path fill="#d1fae5" stroke="#047857" d="M310.5,-36.5C310.5,-36.5 141.5,-36.5 141.5,-36.5 135.5,-36.5 129.5,-30.5 129.5,-24.5 129.5,-24.5 129.5,-12 129.5,-12 129.5,-6 135.5,0 141.5,0 141.5,0 310.5,0 310.5,0 316.5,0 322.5,-6 322.5,-12 322.5,-12 322.5,-24.5 322.5,-24.5 322.5,-30.5 316.5,-36.5 310.5,-36.5"/>
<text xml:space="preserve" text-anchor="middle" x="226" y="-23" font-family="Inter" font-size="10.00" fill="#065f46">stitch &#160;(≤ RLM_STITCH_WINDOW folds)</text>
<text xml:space="preserve" text-anchor="middle" x="226" y="-8.75" font-family="Inter" font-size="10.00" fill="#065f46">unbounded output</text>
</g>
<!-- l1&#45;&gt;st -->
<g id="edge7" class="edge">
<title>l1&#45;&gt;st</title>
<path fill="none" stroke="#c026d3" stroke-dasharray="5,2" d="M289.74,-143.85C291.09,-121.46 290.49,-82.4 274,-54.5 271.25,-49.85 267.63,-45.63 263.59,-41.86"/>
<polygon fill="#c026d3" stroke="#c026d3" points="264.97,-40.27 259.04,-37.97 262.24,-43.46 264.97,-40.27"/>
<text xml:space="preserve" text-anchor="middle" x="323.93" y="-103.33" font-family="Times,serif" font-size="14.00">subresult</text>
</g>
<!-- l2&#45;&gt;st -->
<g id="edge5" class="edge">
<title>l2&#45;&gt;st</title>
<path fill="none" stroke="#c026d3" stroke-dasharray="5,2" d="M29.31,-89.6C31.78,-77.96 36.85,-63.23 47.25,-54.5 59.47,-44.24 89.81,-36.59 122.09,-31.09"/>
<polygon fill="#c026d3" stroke="#c026d3" points="122.37,-33.17 127.95,-30.13 121.69,-29.03 122.37,-33.17"/>
<text xml:space="preserve" text-anchor="middle" x="101.62" y="-58.45" font-family="Times,serif" font-size="14.00">subresult (pop)</text>
</g>
<!-- l3&#45;&gt;st -->
<g id="edge6" class="edge">
<title>l3&#45;&gt;st</title>
<path fill="none" stroke="#c026d3" stroke-dasharray="5,2" d="M159.13,-89.69C158.23,-78.81 158.82,-64.91 165.25,-54.5 168.31,-49.54 172.35,-45.2 176.9,-41.43"/>
<polygon fill="#c026d3" stroke="#c026d3" points="178.13,-43.13 181.67,-37.85 175.61,-39.77 178.13,-43.13"/>
<text xml:space="preserve" text-anchor="middle" x="219.62" y="-58.45" font-family="Times,serif" font-size="14.00">subresult (pop)</text>
</g>
<!-- st&#45;&gt;root -->
<g id="edge8" class="edge">
<title>st&#45;&gt;root</title>
<path fill="none" stroke="#16a34a" d="M292,-36.92C318.56,-47.62 346.53,-64.3 362,-89.75 404.95,-160.4 363.34,-201.36 318,-270.5 315.34,-274.56 312.26,-278.67 309.11,-282.58"/>
<polygon fill="#16a34a" stroke="#16a34a" points="307.68,-281.02 305.45,-286.97 310.9,-283.71 307.68,-281.02"/>
<text xml:space="preserve" text-anchor="middle" x="405.88" y="-157.82" font-family="Times,serif" font-size="14.00">answer</text>
</g>
</g>
</svg>
