<svg xmlns="http://www.w3.org/2000/svg" xmlns:xlink="http://www.w3.org/1999/xlink" contentStyleType="text/css" data-diagram-type="CLASS" height="468px" preserveAspectRatio="none" style="width:787px;height:468px;" version="1.1" viewBox="0 0 787 468" width="787px" zoomAndPan="magnify"><?plantuml $version$?><defs/><g><!--class Role--><g class="entity" data-qualified-name="Role" data-source-line="9" id="ent0001"><rect fill="#E0E7FF" height="105.2038" rx="2.5" ry="2.5" style="stroke:#181818;stroke-width:0.5;" width="107.8997" x="7" y="200.81"/><ellipse cx="43.2462" cy="216.81" fill="#ADD1B2" rx="11" ry="11" style="stroke:#181818;stroke-width:1;"/><path d="M42.715,223.7319 Q40.965,223.7319 39.8243,222.9975 Q38.6993,222.2475 38.1368,220.9038 Q37.59,219.5444 37.59,217.7475 Q37.59,215.7163 38.2462,214.2631 Q38.9025,212.81 40.1837,212.0288 Q41.465,211.2475 43.34,211.2475 Q44.2306,211.2475 44.9025,211.435 Q45.5743,211.6069 46.2618,211.9506 L45.4493,213.9663 Q44.8243,213.6538 44.2775,213.5288 Q43.7462,213.4038 43.2618,213.4038 Q42.09,213.4038 41.3868,213.935 Q40.6837,214.4663 40.3868,215.4194 Q40.09,216.3725 40.09,217.6381 Q40.09,219.6538 40.8087,220.6225 Q41.5275,221.5756 43.1212,221.5756 Q43.715,221.5756 44.34,221.4194 Q44.965,221.2631 45.7931,220.8881 L45.7931,223.1069 Q45.0587,223.4194 44.2618,223.5756 Q43.4806,223.7319 42.715,223.7319 Z " fill="#000000"/><text fill="#000000" font-family="Inter" font-size="14" lengthAdjust="spacing" textLength="28.6859" x="61.9676" y="222.242">Role</text><line style="stroke:#181818;stroke-width:0.5;" x1="8" x2="113.8997" y1="232.81" y2="232.81"/><g data-visibility-modifier="PUBLIC_FIELD"><ellipse cx="18" cy="247.844" fill="none" rx="3" ry="3" style="stroke:#038048;stroke-width:1;"/></g><text fill="#000000" font-family="Inter" font-size="14" lengthAdjust="spacing" textLength="54.7958" x="27" y="251.7759">0: String</text><line style="stroke:#181818;stroke-width:1;" x1="8" x2="113.8997" y1="259.8779" y2="259.8779"/><g data-visibility-modifier="PUBLIC_METHOD"><ellipse cx="18" cy="274.9119" fill="#84BE84" rx="3" ry="3" style="stroke:#038048;stroke-width:1;"/></g><text fill="#000000" font-family="Inter" font-size="14" lengthAdjust="spacing" textLength="78.7357" x="27" y="278.8439">new(s): Role</text><g data-visibility-modifier="PUBLIC_METHOD"><ellipse cx="18" cy="293.9798" fill="#84BE84" rx="3" ry="3" style="stroke:#038048;stroke-width:1;"/></g><text fill="#000000" font-family="Inter" font-size="14" lengthAdjust="spacing" textLength="81.8997" x="27" y="297.9118">as_str(): &amp;str</text></g><!--class Label--><g class="entity" data-qualified-name="Label" data-source-line="16" id="ent0002"><rect fill="#DCFCE7" height="124.2717" rx="2.5" ry="2.5" style="stroke:#181818;stroke-width:0.5;" width="248.5992" x="149.65" y="191.27"/><ellipse cx="252.0456" cy="207.27" fill="#ADD1B2" rx="11" ry="11" style="stroke:#181818;stroke-width:1;"/><path d="M251.5144,214.1919 Q249.7644,214.1919 248.6238,213.4575 Q247.4988,212.7075 246.9363,211.3637 Q246.3894,210.0044 246.3894,208.2075 Q246.3894,206.1762 247.0456,204.7231 Q247.7019,203.27 248.9831,202.4887 Q250.2644,201.7075 252.1394,201.7075 Q253.03,201.7075 253.7019,201.895 Q254.3738,202.0669 255.0613,202.4106 L254.2488,204.4262 Q253.6238,204.1137 253.0769,203.9887 Q252.5456,203.8637 252.0613,203.8637 Q250.8894,203.8637 250.1863,204.395 Q249.4831,204.9262 249.1863,205.8794 Q248.8894,206.8325 248.8894,208.0981 Q248.8894,210.1137 249.6081,211.0825 Q250.3269,212.0356 251.9206,212.0356 Q252.5144,212.0356 253.1394,211.8794 Q253.7644,211.7231 254.5925,211.3481 L254.5925,213.5669 Q253.8581,213.8794 253.0613,214.0356 Q252.28,214.1919 251.5144,214.1919 Z " fill="#000000"/><text fill="#000000" font-family="Inter" font-size="14" lengthAdjust="spacing" textLength="35.3079" x="272.5456" y="212.702">Label</text><line style="stroke:#181818;stroke-width:0.5;" x1="150.65" x2="397.2492" y1="223.27" y2="223.27"/><g data-visibility-modifier="PUBLIC_METHOD"><ellipse cx="160.65" cy="238.304" fill="#84BE84" rx="3" ry="3" style="stroke:#038048;stroke-width:1;"/></g><text fill="#000000" font-family="Inter" font-size="14" lengthAdjust="spacing" textLength="84.2797" x="169.65" y="242.2359">name: String</text><text fill="#000000" font-family="Inter" font-size="14" font-style="italic" lengthAdjust="spacing" textLength="127.3995" x="264.8496" y="242.2359">(the branch selector)</text><g data-visibility-modifier="PUBLIC_FIELD"><ellipse cx="160.65" cy="257.3719" fill="none" rx="3" ry="3" style="stroke:#038048;stroke-width:1;"/></g><text fill="#000000" font-family="Inter" font-size="14" lengthAdjust="spacing" textLength="175.2653" x="169.65" y="261.3039">medium: MessageMedium</text><line style="stroke:#181818;stroke-width:1;" x1="150.65" x2="397.2492" y1="269.4058" y2="269.4058"/><g data-visibility-modifier="PUBLIC_METHOD"><ellipse cx="160.65" cy="284.4398" fill="#84BE84" rx="3" ry="3" style="stroke:#038048;stroke-width:1;"/></g><text fill="#000000" font-family="Inter" font-size="14" lengthAdjust="spacing" textLength="114.0016" x="169.65" y="288.3718">text(name): Label</text><g data-visibility-modifier="PUBLIC_METHOD"><ellipse cx="160.65" cy="303.5077" fill="#84BE84" rx="3" ry="3" style="stroke:#038048;stroke-width:1;"/></g><text fill="#000000" font-family="Inter" font-size="14" lengthAdjust="spacing" textLength="206.4572" x="169.65" y="307.4397">latent(name, hidden, sig): Label</text></g><!--class MessageMedium--><g class="entity" data-qualified-name="MessageMedium" data-source-line="24" id="ent0003"><rect fill="#DCFCE7" height="78.1358" rx="2.5" ry="2.5" style="stroke:#181818;stroke-width:0.5;" width="351.4147" x="98.24" y="375.54"/><ellipse cx="213.2356" cy="391.54" fill="#EB937F" rx="11" ry="11" style="stroke:#181818;stroke-width:1;"/><path d="M209.5949,398.04 L209.5949,385.8994 L217.2512,385.8994 L217.2512,388.0244 L211.9699,388.0244 L211.9699,390.6806 L216.9856,390.6806 L216.9856,392.8056 L211.9699,392.8056 L211.9699,395.915 L217.2512,395.915 L217.2512,398.04 L209.5949,398.04 Z " fill="#000000"/><text fill="#000000" font-family="Inter" font-size="14" lengthAdjust="spacing" textLength="112.9236" x="233.7356" y="396.972">MessageMedium</text><line style="stroke:#181818;stroke-width:0.5;" x1="99.24" x2="448.6547" y1="407.54" y2="407.54"/><text fill="#000000" font-family="Inter" font-size="14" lengthAdjust="spacing" textLength="28.1399" x="104.24" y="426.5059">Text</text><text fill="#000000" font-family="Inter" font-size="14" font-style="italic" lengthAdjust="spacing" textLength="153.9294" x="241.5794" y="426.5059">(black-box-legal; default)</text><text fill="#000000" font-family="Inter" font-size="14" lengthAdjust="spacing" textLength="233.6311" x="104.24" y="445.5739">Latent{ hidden_size, backbone_sig }</text><text fill="#000000" font-family="Inter" font-size="14" font-style="italic" lengthAdjust="spacing" textLength="98.5036" x="345.151" y="445.5739">(white-box only)</text></g><!--class Channel--><g class="entity" data-qualified-name="Channel" data-source-line="29" id="ent0004"><rect fill="#E0E7FF" height="78.1358" rx="2.5" ry="2.5" style="stroke:#181818;stroke-width:0.5;" width="94.2357" x="13.83" y="30.07"/><ellipse cx="32.4615" cy="46.07" fill="#ADD1B2" rx="11" ry="11" style="stroke:#181818;stroke-width:1;"/><path d="M31.9302,52.9919 Q30.1802,52.9919 29.0396,52.2575 Q27.9146,51.5075 27.3521,50.1637 Q26.8052,48.8044 26.8052,47.0075 Q26.8052,44.9762 27.4615,43.5231 Q28.1177,42.07 29.399,41.2887 Q30.6802,40.5075 32.5552,40.5075 Q33.4459,40.5075 34.1177,40.695 Q34.7896,40.8669 35.4771,41.2106 L34.6646,43.2262 Q34.0396,42.9137 33.4927,42.7887 Q32.9615,42.6637 32.4771,42.6637 Q31.3052,42.6637 30.6021,43.195 Q29.899,43.7262 29.6021,44.6794 Q29.3052,45.6325 29.3052,46.8981 Q29.3052,48.9137 30.024,49.8825 Q30.7427,50.8356 32.3365,50.8356 Q32.9302,50.8356 33.5552,50.6794 Q34.1802,50.5231 35.0084,50.1481 L35.0084,52.3669 Q34.274,52.6794 33.4771,52.8356 Q32.6959,52.9919 31.9302,52.9919 Z " fill="#000000"/><text fill="#000000" font-family="Inter" font-size="14" lengthAdjust="spacing" textLength="54.1658" x="47.2685" y="51.502">Channel</text><line style="stroke:#181818;stroke-width:0.5;" x1="14.83" x2="107.0657" y1="62.07" y2="62.07"/><g data-visibility-modifier="PUBLIC_FIELD"><ellipse cx="24.83" cy="77.104" fill="none" rx="3" ry="3" style="stroke:#038048;stroke-width:1;"/></g><text fill="#000000" font-family="Inter" font-size="14" lengthAdjust="spacing" textLength="68.2357" x="33.83" y="81.0359">from: Role</text><g data-visibility-modifier="PUBLIC_FIELD"><ellipse cx="24.83" cy="96.1719" fill="none" rx="3" ry="3" style="stroke:#038048;stroke-width:1;"/></g><text fill="#000000" font-family="Inter" font-size="14" lengthAdjust="spacing" textLength="49.6018" x="33.83" y="100.1039">to: Role</text></g><!--class Action--><g class="entity" data-qualified-name="Action" data-source-line="34" id="ent0005"><rect fill="#D1FAE5" height="124.2717" rx="2.5" ry="2.5" style="stroke:#181818;stroke-width:0.5;" width="210.2672" x="155.82" y="7"/><ellipse cx="235.9767" cy="23" fill="#EB937F" rx="11" ry="11" style="stroke:#181818;stroke-width:1;"/><path d="M232.3361,29.5 L232.3361,17.3594 L239.9923,17.3594 L239.9923,19.4844 L234.7111,19.4844 L234.7111,22.1406 L239.7267,22.1406 L239.7267,24.2656 L234.7111,24.2656 L234.7111,27.375 L239.9923,27.375 L239.9923,29.5 L232.3361,29.5 Z " fill="#000000"/><text fill="#000000" font-family="Inter" font-size="14" lengthAdjust="spacing" textLength="41.4538" x="256.4767" y="28.432">Action</text><line style="stroke:#181818;stroke-width:0.5;" x1="156.82" x2="365.0872" y1="39" y2="39"/><text fill="#000000" font-family="Inter" font-size="14" lengthAdjust="spacing" textLength="182.0413" x="161.82" y="57.9659">Send{ to: Role, label: Label }</text><text fill="#000000" font-family="Inter" font-size="14" lengthAdjust="spacing" textLength="198.2672" x="161.82" y="77.0339">Recv{ from: Role, label: Label }</text><line style="stroke:#181818;stroke-width:1;" x1="156.82" x2="365.0872" y1="85.1358" y2="85.1358"/><g data-visibility-modifier="PUBLIC_METHOD"><ellipse cx="166.82" cy="100.1698" fill="#84BE84" rx="3" ry="3" style="stroke:#038048;stroke-width:1;"/></g><text fill="#000000" font-family="Inter" font-size="14" lengthAdjust="spacing" textLength="92.9316" x="175.82" y="104.1018">label(): &amp;Label</text><g data-visibility-modifier="PUBLIC_METHOD"><ellipse cx="166.82" cy="119.2377" fill="#84BE84" rx="3" ry="3" style="stroke:#038048;stroke-width:1;"/></g><text fill="#000000" font-family="Inter" font-size="14" lengthAdjust="spacing" textLength="84.9097" x="175.82" y="123.1697">peer(): &amp;Role</text></g><!--class StackAction--><g class="entity" data-qualified-name="StackAction" data-source-line="42" id="ent0006"><rect fill="#EDE9FE" height="124.2717" rx="2.5" ry="2.5" style="stroke:#181818;stroke-width:0.5;" width="276.165" x="464.87" y="7"/><ellipse cx="560.5807" cy="23" fill="#EB937F" rx="11" ry="11" style="stroke:#181818;stroke-width:1;"/><path d="M556.94,29.5 L556.94,17.3594 L564.5963,17.3594 L564.5963,19.4844 L559.315,19.4844 L559.315,22.1406 L564.3307,22.1406 L564.3307,24.2656 L559.315,24.2656 L559.315,27.375 L564.5963,27.375 L564.5963,29.5 L556.94,29.5 Z " fill="#000000"/><text fill="#000000" font-family="Inter" font-size="14" lengthAdjust="spacing" textLength="76.2437" x="581.0807" y="28.432">StackAction</text><line style="stroke:#181818;stroke-width:0.5;" x1="465.87" x2="740.035" y1="39" y2="39"/><text fill="#000000" font-family="Inter" font-size="14" lengthAdjust="spacing" textLength="49.4898" x="470.87" y="57.9659">Neutral</text><text fill="#000000" font-family="Inter" font-size="14" font-style="italic" lengthAdjust="spacing" textLength="163.6454" x="531.2798" y="57.9659">(&#931;_int &#8212; stack unchanged)</text><text fill="#000000" font-family="Inter" font-size="14" lengthAdjust="spacing" textLength="32.4799" x="470.87" y="77.0339">Push</text><text fill="#000000" font-family="Inter" font-size="14" font-style="italic" lengthAdjust="spacing" textLength="148.0634" x="525.1898" y="77.0339">(&#931;_call &#8212; enter a frame)</text><text fill="#000000" font-family="Inter" font-size="14" lengthAdjust="spacing" textLength="25.5499" x="470.87" y="96.1018">Pop</text><text fill="#000000" font-family="Inter" font-size="14" font-style="italic" lengthAdjust="spacing" textLength="150.4434" x="521.8998" y="96.1018">(&#931;_ret &#8212; return a frame)</text><line style="stroke:#181818;stroke-width:1;" x1="465.87" x2="740.035" y1="104.2038" y2="104.2038"/><g data-visibility-modifier="PUBLIC_METHOD"><ellipse cx="475.87" cy="119.2377" fill="#84BE84" rx="3" ry="3" style="stroke:#038048;stroke-width:1;"/></g><text fill="#000000" font-family="Inter" font-size="14" lengthAdjust="spacing" textLength="117.7955" x="484.87" y="123.1697">sql_in_list(): String</text><text fill="#000000" font-family="Inter" font-size="14" font-style="italic" lengthAdjust="spacing" textLength="125.0895" x="609.9455" y="123.1697">'neutral','push','pop'</text></g><g class="entity" data-qualified-name="GMN7" data-source-line="51" id="ent0008"><path d="M433.3,230.7 L433.3,276.112 A0,0 0 0 0 433.3,276.112 L772.5923,276.112 A0,0 0 0 0 772.5923,276.112 L772.5923,240.7 L762.5923,230.7 L606.95,230.7 L602.95,131.59 L598.95,230.7 L433.3,230.7 A0,0 0 0 0 433.3,230.7" fill="#FEFFDD" style="stroke:#181818;stroke-width:0.5;"/><path d="M762.5923,230.7 L762.5923,240.7 L772.5923,240.7 L762.5923,230.7" fill="#FEFFDD" style="stroke:#181818;stroke-width:0.5;"/><text fill="#000000" font-family="Inter" font-size="13" lengthAdjust="spacing" textLength="163.5792" x="439.3" y="249.597">MAX_STACK_DEPTH = 4096</text><text fill="#000000" font-family="Inter" font-size="13" lengthAdjust="spacing" textLength="318.2923" x="439.3" y="267.303">one shared bound: WF &#183; conformance &#183; RLM runtime</text></g><!--reverse link Label to MessageMedium--><g class="link" data-entity-1="ent0002" data-entity-2="ent0003" data-link-type="composition" data-source-line="55" id="lnk10"><path codeLine="55" d="M273.95,327.96 C273.95,347.91 273.95,357.46 273.95,375.22" fill="none" id="Label-backto-MessageMedium" style="stroke:#181818;stroke-width:1;"/><polygon fill="#181818" points="273.95,315.96,269.95,321.96,273.95,327.96,277.95,321.96,273.95,315.96" style="stroke:#181818;stroke-width:1;stroke-linejoin:miter;stroke-miterlimit:10;"/></g><!--reverse link Channel to Role--><g class="link" data-entity-1="ent0004" data-entity-2="ent0001" data-link-type="composition" data-source-line="56" id="lnk11"><path codeLine="56" d="M60.95,120.35 C60.95,147.07 60.95,171.09 60.95,200.42" fill="none" id="Channel-backto-Role" style="stroke:#181818;stroke-width:1;"/><polygon fill="#181818" points="60.95,108.35,56.95,114.35,60.95,120.35,64.95,114.35,60.95,108.35" style="stroke:#181818;stroke-width:1;stroke-linejoin:miter;stroke-miterlimit:10;"/></g><!--reverse link Action to Label--><g class="link" data-entity-1="ent0005" data-entity-2="ent0002" data-link-type="composition" data-source-line="57" id="lnk12"><path codeLine="57" d="M266.1876,143.5593 C267.5576,162.6793 268.2,171.79 269.56,190.91" fill="none" id="Action-backto-Label" style="stroke:#181818;stroke-width:1;"/><polygon fill="#181818" points="265.33,131.59,261.769,137.8605,266.1876,143.5593,269.7486,137.2888,265.33,131.59" style="stroke:#181818;stroke-width:1;stroke-linejoin:miter;stroke-miterlimit:10;"/></g><!--reverse link Action to Role--><g class="link" data-entity-1="ent0005" data-entity-2="ent0001" data-link-type="composition" data-source-line="58" id="lnk13"><path codeLine="58" d="M184.6511,139.6735 C159.1311,162.9335 139.31,180.99 115.16,203" fill="none" id="Action-backto-Role" style="stroke:#181818;stroke-width:1;"/><polygon fill="#181818" points="193.52,131.59,186.3911,132.6754,184.6511,139.6735,191.78,138.588,193.52,131.59" style="stroke:#181818;stroke-width:1;stroke-linejoin:miter;stroke-miterlimit:10;"/></g><?plantuml-src VLHHRXCn4FtVKunKYQImsnG9g1gQIbMWegAfgYOI_4LUx-okLQyTR6_Q45NY4Do0G_3F0JW49s6ytasJ2f4Vxup7ps_U6wS7in9XV3wTm59pbjQIcHNqhU43Rgk1qH8FZDqVmWrznN39KfGnJD1QLk04Cr5NCOnBfXJbenwSSIUqYc7g6ByDmG6CjTIrWNG5N2kE2pS43pmIAXE5Za5wr47Le8qSthkaC8WAbfOG9NEeNCAg54qCh84SOOM6oMnWRrSnM7_NQ2a8qXr4zbQe1JEiWfJIXT6roZm10yumPMcBuBQgCinPBTsvLkwALGWNog7PshSbo_ITK0NaJ5gCIf4XOBLmAwZGax9Hn2Mpjf48zl0GZ_8SrX70YyCX2M7eB0L9uZCAx_gTd3vcTcwTwLFc6QtHGuVL20rx6Syv7WKmHUmwF00u4QTzHzwbr1KlmQ94xhJPFnc8KryUv1pkUhNXuLNkUqIwkRdB9uFKJJe6wZD3SjAAObD3z53LrIxc3iiPuS9_VvvtAicQ9DNtYSI2oRUT2HtvouR8kkKmj-8h4V9sfbeXXGKy1A2xKZZqGA2LN8NZ6mtRiTor93UwUfJVwVQxwooCBBNqCcVukZaoHPMjeQjifxLL11weu0RvSWsFmFye2Q8twSRhZUGBnE3-3ekjrqFiCppEiQ5oXJKDiMnL_FrZBfI3Fz--XoS0DGq2KmLcdOxNjIqVLQTwpgHi3g2VSc34siz0LwuNi5DkCC3JMXlrj3mqPRz8eZ6NmZhVI3UVXD1JWMulxYs8Y5_qejTvfBIZuTNEwGfqljqoeKxEFi-dixFnn_cxzzUp3p22LuV7RsY3_FSlqc16P-bb3-7JEVpwwVzOScqgUWhemvlB2PXQEL4XAPg1looAWX_Fa-J9e-W6nUyqFhJI-pWujPNm1Ny1?></g></svg>