<svg xmlns="http://www.w3.org/2000/svg" xmlns:xlink="http://www.w3.org/1999/xlink" contentStyleType="text/css" data-diagram-type="ACTIVITY" height="679px" preserveAspectRatio="none" style="width:704px;height:679px;" version="1.1" viewBox="0 0 704 679" width="704px" zoomAndPan="magnify"><?plantuml $version$?><defs/><g><rect fill="#FFFFCC" height="89.4799" rx="2.5" ry="2.5" style="stroke:#FFDD88;stroke-width:3;" width="673.5082" x="13" y="13"/><text fill="#000000" font-family="monospace" font-size="10" lengthAdjust="spacing" textLength="534" x="20" y="25.62">This&#160;syntax&#160;is&#160;deprecated,&#160;you&#160;must&#160;add&#160;&lt;&lt;#fee2e2&gt;&gt;&#160;at&#160;the&#160;end&#160;of&#160;the&#160;line,&#160;after&#160;the&#160;';'</text><text fill="#000000" font-family="monospace" font-size="10" lengthAdjust="spacing" textLength="534" x="20" y="49.24">This&#160;syntax&#160;is&#160;deprecated,&#160;you&#160;must&#160;add&#160;&lt;&lt;#e0e7ff&gt;&gt;&#160;at&#160;the&#160;end&#160;of&#160;the&#160;line,&#160;after&#160;the&#160;';'</text><text fill="#000000" font-family="monospace" font-size="10" lengthAdjust="spacing" textLength="534" x="20" y="72.86">This&#160;syntax&#160;is&#160;deprecated,&#160;you&#160;must&#160;add&#160;&lt;&lt;#ccfbf1&gt;&gt;&#160;at&#160;the&#160;end&#160;of&#160;the&#160;line,&#160;after&#160;the&#160;';'</text><text fill="#000000" font-family="monospace" font-size="10" lengthAdjust="spacing" textLength="534" x="20" y="96.4799">This&#160;syntax&#160;is&#160;deprecated,&#160;you&#160;must&#160;add&#160;&lt;&lt;#dcfce7&gt;&gt;&#160;at&#160;the&#160;end&#160;of&#160;the&#160;line,&#160;after&#160;the&#160;';'</text><ellipse cx="344.0239" cy="119.4799" fill="#222222" rx="10" ry="10" style="stroke:#222222;stroke-width:1;"/><rect fill="none" height="177.7561" style="stroke:#000000;stroke-width:1.5;" width="625.8937" x="16" y="139.4799"/><path d="M69.1198,139.4799 L69.1198,151.5479 L59.1198,161.5479 L16,161.5479" fill="none" style="stroke:#000000;stroke-width:1.5;"/><text fill="#000000" font-family="Inter" font-size="14" lengthAdjust="spacing" textLength="43.1198" x="19" y="155.4459">PAUSE</text><polygon fill="#FEF9C3" points="266.788,178.5479,421.2599,178.5479,433.2599,190.5479,421.2599,202.5479,266.788,202.5479,254.788,190.5479,266.788,178.5479" style="stroke:#A16207;stroke-width:0.5;stroke-linejoin:miter;stroke-miterlimit:10;"/><text fill="#000000" font-family="Inter" font-size="11" lengthAdjust="spacing" textLength="154.4719" x="266.788" y="194.8158">every child a2a_task terminal?</text><text fill="#000000" font-family="Inter" font-size="11" lengthAdjust="spacing" textLength="13.4529" x="241.3351" y="187.3249">no</text><text fill="#000000" font-family="Inter" font-size="11" lengthAdjust="spacing" textLength="17.0829" x="433.2599" y="187.3249">yes</text><rect fill="#E0E7FF" height="36.3441" rx="12.5" ry="12.5" style="stroke:#3730A3;stroke-width:0.5;" width="322.2583" x="29.8952" y="212.5479"/><text fill="#000000" font-family="Inter" font-size="12" lengthAdjust="spacing" textLength="302.2583" x="39.8952" y="235.376">refuse &#8212; {paused:false, reason:"peer W1 is Working"}</text><ellipse cx="191.0243" cy="279.892" fill="none" rx="11" ry="11" style="stroke:#222222;stroke-width:1;"/><ellipse cx="191.0243" cy="279.892" fill="#222222" rx="6" ry="6" style="stroke:#222222;stroke-width:1;"/><rect fill="#E0E7FF" height="36.3441" rx="12.5" ry="12.5" style="stroke:#3730A3;stroke-width:0.5;" width="249.7402" x="372.1535" y="212.5479"/><text fill="#000000" font-family="Inter" font-size="12" lengthAdjust="spacing" textLength="229.7402" x="382.1535" y="235.376">flush transcript &#8594; csm_run_traces.events</text><rect fill="#E0E7FF" height="36.3441" rx="12.5" ry="12.5" style="stroke:#3730A3;stroke-width:0.5;" width="214.712" x="389.6676" y="268.892"/><text fill="#000000" font-family="Inter" font-size="12" lengthAdjust="spacing" textLength="194.712" x="399.6676" y="291.7201">status &#8592; paused, stamp paused_at</text><rect fill="none" height="332.4444" style="stroke:#000000;stroke-width:1.5;" width="656.5082" x="28" y="327.2361"/><path d="M92.8938,327.2361 L92.8938,339.304 L82.8938,349.304 L28,349.304" fill="none" style="stroke:#000000;stroke-width:1.5;"/><text fill="#000000" font-family="Inter" font-size="14" lengthAdjust="spacing" textLength="54.8938" x="31" y="343.202">RESUME</text><rect fill="#E0E7FF" height="36.3441" rx="12.5" ry="12.5" style="stroke:#3730A3;stroke-width:0.5;" width="225.0335" x="231.5072" y="366.304"/><text fill="#000000" font-family="Inter" font-size="12" lengthAdjust="spacing" textLength="205.0335" x="241.5072" y="389.1321">rebuild Network = build(global_type)</text><rect fill="#E0E7FF" height="36.3441" rx="12.5" ry="12.5" style="stroke:#3730A3;stroke-width:0.5;" width="290.1339" x="198.957" y="422.6481"/><text fill="#000000" font-family="Inter" font-size="12" lengthAdjust="spacing" textLength="270.1339" x="208.957" y="445.4762">replay_to_configs(events + unflushed transcript)</text><polygon fill="#FEF9C3" points="287.2313,478.9922,400.8165,478.9922,412.8165,490.9922,400.8165,502.9922,287.2313,502.9922,275.2313,490.9922,287.2313,478.9922" style="stroke:#A16207;stroke-width:0.5;stroke-linejoin:miter;stroke-miterlimit:10;"/><text fill="#000000" font-family="Inter" font-size="11" lengthAdjust="spacing" textLength="113.5852" x="287.2313" y="495.2602">prefix replays cleanly?</text><text fill="#000000" font-family="Inter" font-size="11" lengthAdjust="spacing" textLength="17.0829" x="258.1485" y="487.7693">yes</text><text fill="#000000" font-family="Inter" font-size="11" lengthAdjust="spacing" textLength="13.4529" x="412.8165" y="487.7693">no</text><rect fill="#E0E7FF" height="36.3441" rx="12.5" ry="12.5" style="stroke:#3730A3;stroke-width:0.5;" width="269.7938" x="48" y="512.9922"/><text fill="#000000" font-family="Inter" font-size="12" lengthAdjust="spacing" textLength="249.7938" x="58" y="535.8203">recover per-role (state, stack) + frame_depth</text><rect fill="#E0E7FF" height="36.3441" rx="12.5" ry="12.5" style="stroke:#3730A3;stroke-width:0.5;" width="265.855" x="49.9694" y="569.3364"/><text fill="#000000" font-family="Inter" font-size="12" lengthAdjust="spacing" textLength="245.855" x="59.9694" y="592.1644">next_step_from &#8594; re-plan, status &#8592; running</text><ellipse cx="182.8969" cy="636.6805" fill="none" rx="11" ry="11" style="stroke:#222222;stroke-width:1;"/><ellipse cx="182.8969" cy="636.6805" fill="#222222" rx="6" ry="6" style="stroke:#222222;stroke-width:1;"/><rect fill="#E0E7FF" height="36.3441" rx="12.5" ry="12.5" style="stroke:#3730A3;stroke-width:0.5;" width="334.7144" x="337.7938" y="512.9922"/><text fill="#000000" font-family="Inter" font-size="12" lengthAdjust="spacing" textLength="314.7144" x="347.7938" y="535.8203">resume refuses LOUDLY (error!) &#8212; never silently desync</text><ellipse cx="505.151" cy="580.3364" fill="none" rx="11" ry="11" style="stroke:#222222;stroke-width:1;"/><ellipse cx="505.151" cy="580.3364" fill="#222222" rx="6" ry="6" style="stroke:#222222;stroke-width:1;"/><line style="stroke:#181818;stroke-width:1;" x1="191.0243" x2="191.0243" y1="248.892" y2="268.892"/><polygon fill="#181818" points="187.0243,258.892,191.0243,268.892,195.0243,258.892,191.0243,262.892" style="stroke:#181818;stroke-width:1;stroke-linejoin:miter;stroke-miterlimit:10;"/><line style="stroke:#181818;stroke-width:1;" x1="497.0236" x2="497.0236" y1="248.892" y2="268.892"/><polygon fill="#181818" points="493.0236,258.892,497.0236,268.892,501.0236,258.892,497.0236,262.892" style="stroke:#181818;stroke-width:1;stroke-linejoin:miter;stroke-miterlimit:10;"/><line style="stroke:#181818;stroke-width:1;" x1="254.788" x2="191.0243" y1="190.5479" y2="190.5479"/><line style="stroke:#181818;stroke-width:1;" x1="191.0243" x2="191.0243" y1="190.5479" y2="212.5479"/><polygon fill="#181818" points="187.0243,202.5479,191.0243,212.5479,195.0243,202.5479,191.0243,206.5479" style="stroke:#181818;stroke-width:1;stroke-linejoin:miter;stroke-miterlimit:10;"/><line style="stroke:#181818;stroke-width:1;" x1="433.2599" x2="497.0236" y1="190.5479" y2="190.5479"/><line style="stroke:#181818;stroke-width:1;" x1="497.0236" x2="497.0236" y1="190.5479" y2="212.5479"/><polygon fill="#181818" points="493.0236,202.5479,497.0236,212.5479,501.0236,202.5479,497.0236,206.5479" style="stroke:#181818;stroke-width:1;stroke-linejoin:miter;stroke-miterlimit:10;"/><line style="stroke:#181818;stroke-width:1;" x1="497.0236" x2="497.0236" y1="305.2361" y2="310.2361"/><line style="stroke:#181818;stroke-width:1;" x1="497.0236" x2="344.0239" y1="310.2361" y2="310.2361"/><line style="stroke:#181818;stroke-width:1;" x1="344.0239" x2="344.0239" y1="310.2361" y2="366.304"/><polygon fill="#181818" points="340.0239,356.304,344.0239,366.304,348.0239,356.304,344.0239,360.304" style="stroke:#181818;stroke-width:1;stroke-linejoin:miter;stroke-miterlimit:10;"/><line style="stroke:#181818;stroke-width:1;" x1="344.0239" x2="344.0239" y1="129.4799" y2="178.5479"/><polygon fill="#181818" points="340.0239,168.5479,344.0239,178.5479,348.0239,168.5479,344.0239,172.5479" style="stroke:#181818;stroke-width:1;stroke-linejoin:miter;stroke-miterlimit:10;"/><line style="stroke:#181818;stroke-width:1;" x1="344.0239" x2="344.0239" y1="402.6481" y2="422.6481"/><polygon fill="#181818" points="340.0239,412.6481,344.0239,422.6481,348.0239,412.6481,344.0239,416.6481" style="stroke:#181818;stroke-width:1;stroke-linejoin:miter;stroke-miterlimit:10;"/><line style="stroke:#181818;stroke-width:1;" x1="182.8969" x2="182.8969" y1="549.3364" y2="569.3364"/><polygon fill="#181818" points="178.8969,559.3364,182.8969,569.3364,186.8969,559.3364,182.8969,563.3364" style="stroke:#181818;stroke-width:1;stroke-linejoin:miter;stroke-miterlimit:10;"/><line style="stroke:#181818;stroke-width:1;" x1="182.8969" x2="182.8969" y1="605.6805" y2="625.6805"/><polygon fill="#181818" points="178.8969,615.6805,182.8969,625.6805,186.8969,615.6805,182.8969,619.6805" style="stroke:#181818;stroke-width:1;stroke-linejoin:miter;stroke-miterlimit:10;"/><line style="stroke:#181818;stroke-width:1;" x1="505.151" x2="505.151" y1="549.3364" y2="569.3364"/><polygon fill="#181818" points="501.151,559.3364,505.151,569.3364,509.151,559.3364,505.151,563.3364" style="stroke:#181818;stroke-width:1;stroke-linejoin:miter;stroke-miterlimit:10;"/><line style="stroke:#181818;stroke-width:1;" x1="275.2313" x2="182.8969" y1="490.9922" y2="490.9922"/><line style="stroke:#181818;stroke-width:1;" x1="182.8969" x2="182.8969" y1="490.9922" y2="512.9922"/><polygon fill="#181818" points="178.8969,502.9922,182.8969,512.9922,186.8969,502.9922,182.8969,506.9922" style="stroke:#181818;stroke-width:1;stroke-linejoin:miter;stroke-miterlimit:10;"/><line style="stroke:#181818;stroke-width:1;" x1="412.8165" x2="505.151" y1="490.9922" y2="490.9922"/><line style="stroke:#181818;stroke-width:1;" x1="505.151" x2="505.151" y1="490.9922" y2="512.9922"/><polygon fill="#181818" points="501.151,502.9922,505.151,512.9922,509.151,502.9922,505.151,506.9922" style="stroke:#181818;stroke-width:1;stroke-linejoin:miter;stroke-miterlimit:10;"/><line style="stroke:#181818;stroke-width:1;" x1="344.0239" x2="344.0239" y1="458.9922" y2="478.9922"/><polygon fill="#181818" points="340.0239,468.9922,344.0239,478.9922,348.0239,468.9922,344.0239,472.9922" style="stroke:#181818;stroke-width:1;stroke-linejoin:miter;stroke-miterlimit:10;"/><?plantuml-src VPJDQXin4CVl-nHJvn2REY5neAPhJ4cR50f96Xf2w6cHfP4jh9KMIPja2O6UUYwbJvWdwQoqSJSVzBGhQRxqdzze6oxGUsKDLAps20y_VuD3NvS8YuR-AisQl3jpAEdZeJQQV82lb1OE3GHqfJ9CZo6iQ2brxLVei-rs2S4nuxbJLPWz1dQugCdLn_Cp33VMhK4wMyOD7wn30Kjj5qmNeQaGc15TAT678kCrca0BI_lSNgDhTnmLR3LkUnZwm0AEAHRZwz4kd3ED8M1taRaoGYtjk8iv3qYrKz1qlpbb7tUbpfSEqUncVgrCnHmhOK41byxMHdooshfqFJgYSdfM0YMhTVXiJJXZTEClXZJgdViL4_P6cIL8fZtsJWvvKDSgD1-VvTd2FPnA-PgbTG9TPtKmFTXZ1wzO7IbMMYDUX9Ket_F_EVIZi_rtaxrfbf6iBcHa7rHeqHcS7rvU70_WBWDG4eQf5v4FO1DM1ERN6qe-Z18cGsD7P0zj3JZ1IPxaXuSVV-0kzadaKPss6SnRamygf4PVxOFoS4NCa7w3-rcCGT1Kz8Da3iC6VHSvYPP78diaHigvBmjNcuAsEVhTHDJiYLzBKUt9-bS2HqIYogfR5IoqzaWqoUo-hyUtuulBqqwGBSxbGkxd7VKRuESGryCUwAFP4_iMpYBOWbiZrT8FE-ZVqW2c6HEzEqNVLloAT5ItctdX6fdHpKRrV-9iygG1gj3jjEFpR7WedIGki11OXLMdZ-2IupGtU1iA7x0gulIcjsE7yfhe_QWTgMoeLwzqwYK2tGEH7fgJhvT79z-99-UiUpEAQ9WMBl1AanQweKdpZU5FGwT-_0K0?></g></svg>