<svg xmlns="http://www.w3.org/2000/svg" xmlns:xlink="http://www.w3.org/1999/xlink" contentStyleType="text/css" data-diagram-type="STATE" height="505px" preserveAspectRatio="none" style="width:670px;height:505px;" version="1.1" viewBox="0 0 670 505" width="670px" zoomAndPan="magnify"><?plantuml $version$?><defs/><g><g class="entity" data-qualified-name="Completed" data-source-line="12" id="ent0001"><rect fill="#DCFCE7" height="50" rx="12.5" ry="12.5" style="stroke:#C2410C;stroke-width:0.5;" width="92.0857" x="7" y="358.12"/><line style="stroke:#C2410C;stroke-width:0.5;" x1="7" x2="99.0857" y1="387.1879" y2="387.1879"/><text fill="#7C2D12" font-family="Inter" font-size="14" lengthAdjust="spacing" textLength="72.0857" x="17" y="378.0859">Completed</text></g><g class="entity" data-qualified-name="Failed" data-source-line="13" id="ent0002"><rect fill="#FEE2E2" height="50" rx="12.5" ry="12.5" style="stroke:#C2410C;stroke-width:0.5;" width="58.8499" x="340.62" y="358.12"/><line style="stroke:#C2410C;stroke-width:0.5;" x1="340.62" x2="399.4699" y1="387.1879" y2="387.1879"/><text fill="#7C2D12" font-family="Inter" font-size="14" lengthAdjust="spacing" textLength="38.8499" x="350.62" y="378.0859">Failed</text></g><g class="entity" data-qualified-name="Canceled" data-source-line="14" id="ent0003"><rect fill="#FEE2E2" height="50" rx="12.5" ry="12.5" style="stroke:#C2410C;stroke-width:0.5;" width="80.0878" x="434" y="358.12"/><line style="stroke:#C2410C;stroke-width:0.5;" x1="434" x2="514.0878" y1="387.1879" y2="387.1879"/><text fill="#7C2D12" font-family="Inter" font-size="14" lengthAdjust="spacing" textLength="60.0878" x="444" y="378.0859">Canceled</text></g><g class="start_entity" data-qualified-name=".start." data-source-line="16" id="ent0004"><ellipse cx="413.04" cy="16" fill="#222222" rx="10" ry="10" style="stroke:#222222;stroke-width:1;"/></g><g class="entity" data-qualified-name="Submitted" data-source-line="16" id="ent0005"><rect fill="#FFEDD5" height="50" rx="12.5" ry="12.5" style="stroke:#C2410C;stroke-width:0.5;" width="88.2637" x="368.91" y="87"/><line style="stroke:#C2410C;stroke-width:0.5;" x1="368.91" x2="457.1737" y1="116.0679" y2="116.0679"/><text fill="#7C2D12" font-family="Inter" font-size="14" lengthAdjust="spacing" textLength="68.2637" x="378.91" y="106.9659">Submitted</text></g><g class="entity" data-qualified-name="Working" data-source-line="17" id="ent0007"><rect fill="#FFEDD5" height="50" rx="12.5" ry="12.5" style="stroke:#C2410C;stroke-width:0.5;" width="75.6218" x="191.23" y="222.56"/><line style="stroke:#C2410C;stroke-width:0.5;" x1="191.23" x2="266.8518" y1="251.6279" y2="251.6279"/><text fill="#7C2D12" font-family="Inter" font-size="14" lengthAdjust="spacing" textLength="55.6218" x="201.23" y="242.5259">Working</text></g><g class="entity" data-qualified-name="InputRequired" data-source-line="18" id="ent0009"><rect fill="#FFEDD5" height="50" rx="12.5" ry="12.5" style="stroke:#C2410C;stroke-width:0.5;" width="115.4796" x="171.3" y="358.12"/><line style="stroke:#C2410C;stroke-width:0.5;" x1="171.3" x2="286.7796" y1="387.1879" y2="387.1879"/><text fill="#7C2D12" font-family="Inter" font-size="14" lengthAdjust="spacing" textLength="95.4796" x="181.3" y="378.0859">InputRequired</text></g><g class="end_entity" data-qualified-name=".end." data-source-line="24" id="ent0016"><ellipse cx="370.04" cy="480.12" fill="none" rx="11" ry="11" style="stroke:#222222;stroke-width:1;"/><ellipse cx="370.04" cy="480.12" fill="#222222" rx="6" ry="6" style="stroke:#222222;stroke-width:1;"/></g><g class="entity" data-qualified-name="GMN20" data-source-line="29" id="ent0021"><path d="M302.02,216 L302.02,243.56 L267.34,247.56 L302.02,251.56 L302.02,279.118 A0,0 0 0 0 302.02,279.118 L526.0672,279.118 A0,0 0 0 0 526.0672,279.118 L526.0672,226 L516.0672,216 L302.02,216 A0,0 0 0 0 302.02,216" fill="#FEFFDD" style="stroke:#181818;stroke-width:0.5;"/><path d="M516.0672,216 L516.0672,226 L526.0672,226 L516.0672,216" fill="#FEFFDD" style="stroke:#181818;stroke-width:0.5;"/><text fill="#000000" font-family="Inter" font-size="13" lengthAdjust="spacing" textLength="177.4891" x="308.02" y="234.897">pattern driver advances each</text><text fill="#000000" font-family="Inter" font-size="13" lengthAdjust="spacing" textLength="164.0731" x="308.02" y="252.603">Interaction's Send/Recv via</text><text fill="#000000" font-family="Inter" font-size="13" lengthAdjust="spacing" textLength="203.0472" x="308.02" y="270.309">blocking tasks/send (rendezvous)</text></g><!--link *start* to Submitted--><g class="link" data-entity-1="ent0004" data-entity-2="ent0005" data-link-type="dependency" data-source-line="16" id="lnk6"><path d="M413.04,26.36 C413.04,40.29 413.04,61.96 413.04,81.65" fill="none" id="*start*-to-Submitted" style="stroke:#181818;stroke-width:1;"/><polygon fill="#181818" points="413.04,86.65,417.04,77.65,413.04,81.65,409.04,77.65,413.04,86.65" style="stroke:#181818;stroke-width:1;stroke-linejoin:miter;stroke-miterlimit:10;"/></g><!--link Submitted to Working--><g class="link" data-entity-1="ent0005" data-entity-2="ent0007" data-link-type="dependency" data-source-line="17" id="lnk8"><path d="M379.29,137.5 C346.09,161.6 299.7458,195.2321 266.6258,219.2821" fill="none" id="Submitted-to-Working" style="stroke:#181818;stroke-width:1;"/><polygon fill="#181818" points="262.58,222.22,272.2128,220.1685,266.6258,219.2821,267.5122,213.6951,262.58,222.22" style="stroke:#181818;stroke-width:1;stroke-linejoin:miter;stroke-miterlimit:10;"/><text fill="#000000" font-family="Inter" font-size="13" lengthAdjust="spacing" textLength="129.5061" x="338.52" y="181.897">dispatcher picks it up</text></g><!--link Working to InputRequired--><g class="link" data-entity-1="ent0007" data-entity-2="ent0009" data-link-type="dependency" data-source-line="18" id="lnk10"><path d="M229.04,273.06 C229.04,297.16 229.04,328.73 229.04,352.78" fill="none" id="Working-to-InputRequired" style="stroke:#181818;stroke-width:1;"/><polygon fill="#181818" points="229.04,357.78,233.04,348.78,229.04,352.78,225.04,348.78,229.04,357.78" style="stroke:#181818;stroke-width:1;stroke-linejoin:miter;stroke-miterlimit:10;"/><text fill="#000000" font-family="Inter" font-size="13" lengthAdjust="spacing" textLength="108.7321" x="230.04" y="324.017">needs caller input</text></g><!--link InputRequired to Working--><g class="link" data-entity-1="ent0009" data-entity-2="ent0007" data-link-type="dependency" data-source-line="19" id="lnk11"><path d="M170.92,362.45 C155.59,354.31 140.88,343.16 132.04,328.12 C114.38,298.08 152.0367,276.3395 186.2467,262.8895" fill="none" id="InputRequired-to-Working" style="stroke:#181818;stroke-width:1;"/><polygon fill="#181818" points="190.9,261.06,181.0605,260.6304,186.2467,262.8895,183.9877,268.0757,190.9,261.06" style="stroke:#181818;stroke-width:1;stroke-linejoin:miter;stroke-miterlimit:10;"/><text fill="#000000" font-family="Inter" font-size="13" lengthAdjust="spacing" textLength="87.7761" x="133.04" y="324.017">input supplied</text></g><!--link Working to Completed--><g class="link" data-entity-1="ent0007" data-entity-2="ent0001" data-link-type="dependency" data-source-line="20" id="lnk12"><path d="M190.81,253.31 C155.05,259.78 102.68,274.79 72.04,309.12 C60.18,322.41 56.1073,337.21 54.3873,352.83" fill="none" id="Working-to-Completed" style="stroke:#181818;stroke-width:1;"/><polygon fill="#181818" points="53.84,357.8,58.8011,349.2919,54.3873,352.83,50.8491,348.4163,53.84,357.8" style="stroke:#181818;stroke-width:1;stroke-linejoin:miter;stroke-miterlimit:10;"/><text fill="#000000" font-family="Inter" font-size="13" lengthAdjust="spacing" textLength="46.527" x="73.04" y="324.017">success</text></g><!--link Working to Failed--><g class="link" data-entity-1="ent0007" data-entity-2="ent0002" data-link-type="dependency" data-source-line="21" id="lnk13"><path d="M267.06,270.05 C272.73,273.14 278.52,276.25 284.04,279.12 C311.21,293.23 325.88,286.08 346.04,309.12 C357.9,322.67 362.9622,337.3246 366.0122,352.7846" fill="none" id="Working-to-Failed" style="stroke:#181818;stroke-width:1;"/><polygon fill="#181818" points="366.98,357.69,369.1624,348.086,366.0122,352.7846,361.3137,349.6344,366.98,357.69" style="stroke:#181818;stroke-width:1;stroke-linejoin:miter;stroke-miterlimit:10;"/><text fill="#000000" font-family="Inter" font-size="13" lengthAdjust="spacing" textLength="31.304" x="358.18" y="324.017">error</text></g><!--link Submitted to Canceled--><g class="link" data-entity-1="ent0005" data-entity-2="ent0003" data-link-type="dependency" data-source-line="22" id="lnk14"><path d="M457.48,134.29 C488.02,151.6 526.15,179.18 544.04,216 C565.96,261.12 556.66,284.99 531.04,328.12 C524.5,339.14 518.7705,345.9666 509.4605,354.4766" fill="none" id="Submitted-to-Canceled" style="stroke:#181818;stroke-width:1;"/><polygon fill="#181818" points="505.77,357.85,515.1117,354.7303,509.4605,354.4766,509.7142,348.8254,505.77,357.85" style="stroke:#181818;stroke-width:1;stroke-linejoin:miter;stroke-miterlimit:10;"/><text fill="#000000" font-family="Inter" font-size="13" lengthAdjust="spacing" textLength="97.2141" x="557.33" y="252.957">a2a_cancel_task</text></g><!--link Working to Canceled--><g class="link" data-entity-1="ent0007" data-entity-2="ent0003" data-link-type="dependency" data-source-line="23" id="lnk15"><path d="M267.21,271.35 C272.75,274.19 278.47,276.88 284.04,279.12 C332.65,298.66 352.35,283.48 398.04,309.12 C420.06,321.47 437.1302,337.9635 451.2202,354.0035" fill="none" id="Working-to-Canceled" style="stroke:#181818;stroke-width:1;"/><polygon fill="#181818" points="454.52,357.76,451.5855,348.3585,451.2202,354.0035,445.5751,353.6382,454.52,357.76" style="stroke:#181818;stroke-width:1;stroke-linejoin:miter;stroke-miterlimit:10;"/><text fill="#000000" font-family="Inter" font-size="13" lengthAdjust="spacing" textLength="97.2141" x="424.86" y="324.017">a2a_cancel_task</text></g><!--link Completed to *end*--><g class="link" data-entity-1="ent0001" data-entity-2="ent0016" data-link-type="dependency" data-source-line="24" id="lnk17"><path d="M99.48,398.04 C174.8,420.61 314.4704,462.4648 354.6504,474.5048" fill="none" id="Completed-to-*end*" style="stroke:#181818;stroke-width:1;"/><polygon fill="#181818" points="359.44,475.94,351.9669,469.525,354.6504,474.5048,349.6706,477.1883,359.44,475.94" style="stroke:#181818;stroke-width:1;stroke-linejoin:miter;stroke-miterlimit:10;"/></g><!--link Canceled to *end*--><g class="link" data-entity-1="ent0003" data-entity-2="ent0016" data-link-type="dependency" data-source-line="25" id="lnk18"><path d="M447.26,408.58 C424.15,429.7 395.9623,455.4485 381.4623,468.6885" fill="none" id="Canceled-to-*end*" style="stroke:#181818;stroke-width:1;"/><polygon fill="#181818" points="377.77,472.06,387.1133,468.9452,381.4623,468.6885,381.719,463.0375,377.77,472.06" style="stroke:#181818;stroke-width:1;stroke-linejoin:miter;stroke-miterlimit:10;"/></g><!--link Failed to *end*--><g class="link" data-entity-1="ent0002" data-entity-2="ent0016" data-link-type="dependency" data-source-line="26" id="lnk19"><path d="M370.04,408.58 C370.04,428.16 370.04,449.61 370.04,463.92" fill="none" id="Failed-to-*end*" style="stroke:#181818;stroke-width:1;"/><polygon fill="#181818" points="370.04,468.92,374.04,459.92,370.04,463.92,366.04,459.92,370.04,468.92" style="stroke:#181818;stroke-width:1;stroke-linejoin:miter;stroke-miterlimit:10;"/></g><?plantuml-src TL9TQzmm47pNhrZ8moKbTsbCGy1mXVGWa9SISWTzA2NiIMjRM9PSINP8F_vxLuvzvmlqJPePpUwETW6xYk0kkuCTXXgCBaY-IaDm7bzR2YiV1c8RCTB52dRa6stHm1eshcaDHLBm1pPe9PdXU8-Q3oknW4TaEb8ECJct1YsjdKTRqYN4qMTPEgVMfIUoCt2FQksJIQYrRT5Z0tkKTUbTPzN66USXib5WYcoSgHGLs9buxspyYWt1WsNF6HygLEv5sn8AD87cJ1eGVWk0B-ygdHK5ANMJ6ESL-H6LsQVhZvBHL6p4RcMchZFnLuWtksD4PqeMacv7_2qZTYRAA9l4KuOJBBv_-07BvMVOTlj6Sv9A74u3_itvEisIWzASHPGLUMYrh0Fe25qh9a4IFzYsYq_qizESB3-nH2g0H6FuaKwaE9MSLXWK4BgsDPeRcJiVfynP82M5SCAFq-P0tZl_ReR3r3bWXizok3wdZJcjyN_PiNmIScRY89w0iOFfAgpZlBqkgmYkc8Rah-GCULyiAAzxJWLLdvm24CgAwM6RK4Rjx2B0bgowUYBPGw-HsRrnSkWtTHMk0jDmplkfw5Vlkd0X4f0g_mC0?></g></svg>