<?xml version="1.0" encoding="UTF-8" standalone="no"?>
<!DOCTYPE svg PUBLIC "-//W3C//DTD SVG 1.1//EN"
 "http://www.w3.org/Graphics/SVG/1.1/DTD/svg11.dtd">
<!-- Generated by graphviz version 14.1.5 (0)
 -->
<!-- Title: tools Pages: 1 -->
<svg width="864pt" height="542pt"
 viewBox="0.00 0.00 864.00 542.00" xmlns="http://www.w3.org/2000/svg" xmlns:xlink="http://www.w3.org/1999/xlink">
<g id="graph0" class="graph" transform="scale(1 1) rotate(0) translate(4 538)">
<title>tools</title>
<g id="clust1" class="cluster">
<title>cluster_intro</title>
<path fill="#eef2ff" stroke="#3730a3" d="M29.75,-287C29.75,-287 152.5,-287 152.5,-287 158.5,-287 164.5,-293 164.5,-299 164.5,-299 164.5,-514 164.5,-514 164.5,-520 158.5,-526 152.5,-526 152.5,-526 29.75,-526 29.75,-526 23.75,-526 17.75,-520 17.75,-514 17.75,-514 17.75,-299 17.75,-299 17.75,-293 23.75,-287 29.75,-287"/>
<text xml:space="preserve" text-anchor="middle" x="91.12" y="-510.6" font-family="Inter" font-size="12.00">INTROSPECT</text>
</g>
<g id="clust2" class="cluster">
<title>cluster_synth</title>
<path fill="#f5f3ff" stroke="#6d28d9" d="M24.5,-201C24.5,-201 157.75,-201 157.75,-201 163.75,-201 169.75,-207 169.75,-213 169.75,-213 169.75,-267 169.75,-267 169.75,-273 163.75,-279 157.75,-279 157.75,-279 24.5,-279 24.5,-279 18.5,-279 12.5,-273 12.5,-267 12.5,-267 12.5,-213 12.5,-213 12.5,-207 18.5,-201 24.5,-201"/>
<text xml:space="preserve" text-anchor="middle" x="91.12" y="-263.6" font-family="Inter" font-size="12.00">SYNTHESIZE</text>
</g>
<g id="clust3" class="cluster">
<title>cluster_obs</title>
<path fill="#f0fdf4" stroke="#15803d" d="M447.5,-264C447.5,-264 586,-264 586,-264 592,-264 598,-270 598,-276 598,-276 598,-383 598,-383 598,-389 592,-395 586,-395 586,-395 447.5,-395 447.5,-395 441.5,-395 435.5,-389 435.5,-383 435.5,-383 435.5,-276 435.5,-276 435.5,-270 441.5,-264 447.5,-264"/>
<text xml:space="preserve" text-anchor="middle" x="516.75" y="-379.6" font-family="Inter" font-size="12.00">OBSERVE</text>
</g>
<g id="clust4" class="cluster">
<title>cluster_exp</title>
<path fill="#f0fdfa" stroke="#0f766e" d="M20,-8C20,-8 162.25,-8 162.25,-8 168.25,-8 174.25,-14 174.25,-20 174.25,-20 174.25,-181 174.25,-181 174.25,-187 168.25,-193 162.25,-193 162.25,-193 20,-193 20,-193 14,-193 8,-187 8,-181 8,-181 8,-20 8,-20 8,-14 14,-8 20,-8"/>
<text xml:space="preserve" text-anchor="middle" x="91.12" y="-177.6" font-family="Inter" font-size="12.00">EXPORT &amp; PROVE</text>
</g>
<!-- t_list -->
<g id="node1" class="node">
<title>t_list</title>
<path fill="#e0e7ff" stroke="#3730a3" d="M128.38,-385C128.38,-385 53.88,-385 53.88,-385 47.88,-385 41.88,-379 41.88,-373 41.88,-373 41.88,-361 41.88,-361 41.88,-355 47.88,-349 53.88,-349 53.88,-349 128.38,-349 128.38,-349 134.38,-349 140.38,-355 140.38,-361 140.38,-361 140.38,-373 140.38,-373 140.38,-379 134.38,-385 128.38,-385"/>
<text xml:space="preserve" text-anchor="middle" x="91.12" y="-364.62" font-family="Inter" font-size="10.00" fill="#1e1b4b">csm_list_protocols</text>
</g>
<!-- g -->
<g id="node11" class="node">
<title>g</title>
<polygon fill="#e2e8f0" stroke="#334155" points="280.75,-280 207.25,-280 203.25,-276 203.25,-244 276.75,-244 280.75,-248 280.75,-280"/>
<polyline fill="none" stroke="#334155" points="276.75,-276 203.25,-276"/>
<polyline fill="none" stroke="#334155" points="276.75,-276 276.75,-244"/>
<polyline fill="none" stroke="#334155" points="276.75,-276 280.75,-280"/>
<text xml:space="preserve" text-anchor="middle" x="242" y="-259.62" font-family="Inter" font-size="10.00" fill="#0f172a">GlobalType G</text>
</g>
<!-- t_list&#45;&gt;g -->
<g id="edge1" class="edge">
<title>t_list&#45;&gt;g</title>
<path fill="none" stroke="#475569" d="M140.63,-355.88C152.22,-351.95 164.15,-346.77 174.25,-340 195.22,-325.95 213.41,-303.58 225.49,-286.39"/>
<polygon fill="#475569" stroke="#475569" points="227.14,-287.7 228.8,-281.56 223.67,-285.32 227.14,-287.7"/>
</g>
<!-- t_of -->
<g id="node2" class="node">
<title>t_of</title>
<path fill="#e0e7ff" stroke="#3730a3" d="M144.5,-331C144.5,-331 37.75,-331 37.75,-331 31.75,-331 25.75,-325 25.75,-319 25.75,-319 25.75,-307 25.75,-307 25.75,-301 31.75,-295 37.75,-295 37.75,-295 144.5,-295 144.5,-295 150.5,-295 156.5,-301 156.5,-307 156.5,-307 156.5,-319 156.5,-319 156.5,-325 150.5,-331 144.5,-331"/>
<text xml:space="preserve" text-anchor="middle" x="91.12" y="-310.62" font-family="Inter" font-size="10.00" fill="#1e1b4b">csm_protocol_of_pattern</text>
</g>
<!-- t_of&#45;&gt;g -->
<g id="edge2" class="edge">
<title>t_of&#45;&gt;g</title>
<path fill="none" stroke="#475569" d="M145.87,-294.59C162.34,-288.95 180.28,-282.8 196.09,-277.39"/>
<polygon fill="#475569" stroke="#475569" points="196.76,-279.37 201.76,-275.44 195.4,-275.4 196.76,-279.37"/>
</g>
<!-- t_proj -->
<g id="node3" class="node">
<title>t_proj</title>
<path fill="#e0e7ff" stroke="#3730a3" d="M135.88,-493C135.88,-493 46.38,-493 46.38,-493 40.38,-493 34.38,-487 34.38,-481 34.38,-481 34.38,-469 34.38,-469 34.38,-463 40.38,-457 46.38,-457 46.38,-457 135.88,-457 135.88,-457 141.88,-457 147.88,-463 147.88,-469 147.88,-469 147.88,-481 147.88,-481 147.88,-487 141.88,-493 135.88,-493"/>
<text xml:space="preserve" text-anchor="middle" x="91.12" y="-472.62" font-family="Inter" font-size="10.00" fill="#1e1b4b">csm_show_projection</text>
</g>
<!-- net -->
<g id="node12" class="node">
<title>net</title>
<polygon fill="#e2e8f0" stroke="#334155" points="578.38,-439.25 459.12,-439.25 455.12,-435.25 455.12,-402.75 574.38,-402.75 578.38,-406.75 578.38,-439.25"/>
<polyline fill="none" stroke="#334155" points="574.38,-435.25 455.12,-435.25"/>
<polyline fill="none" stroke="#334155" points="574.38,-435.25 574.38,-402.75"/>
<polyline fill="none" stroke="#334155" points="574.38,-435.25 578.38,-439.25"/>
<text xml:space="preserve" text-anchor="middle" x="516.75" y="-425.75" font-family="Inter" font-size="10.00" fill="#0f172a">Network</text>
<text xml:space="preserve" text-anchor="middle" x="516.75" y="-411.5" font-family="Inter" font-size="10.00" fill="#0f172a">(LocalMachine per role)</text>
</g>
<!-- t_proj&#45;&gt;net -->
<g id="edge4" class="edge">
<title>t_proj&#45;&gt;net</title>
<path fill="none" stroke="#475569" d="M148.24,-468.87C214.55,-461.48 328.19,-448.38 425.5,-435 432.84,-433.99 440.5,-432.88 448.13,-431.75"/>
<polygon fill="#475569" stroke="#475569" points="447.99,-433.89 453.61,-430.93 447.37,-429.74 447.99,-433.89"/>
</g>
<!-- t_plan -->
<g id="node4" class="node">
<title>t_plan</title>
<path fill="#e0e7ff" stroke="#3730a3" d="M129.5,-439C129.5,-439 52.75,-439 52.75,-439 46.75,-439 40.75,-433 40.75,-427 40.75,-427 40.75,-415 40.75,-415 40.75,-409 46.75,-403 52.75,-403 52.75,-403 129.5,-403 129.5,-403 135.5,-403 141.5,-409 141.5,-415 141.5,-415 141.5,-427 141.5,-427 141.5,-433 135.5,-439 129.5,-439"/>
<text xml:space="preserve" text-anchor="middle" x="91.12" y="-418.62" font-family="Inter" font-size="10.00" fill="#1e1b4b">csm_protocol_plan</text>
</g>
<!-- t_plan&#45;&gt;net -->
<g id="edge5" class="edge">
<title>t_plan&#45;&gt;net</title>
<path fill="none" stroke="#475569" d="M141.97,-421C217.73,-421 362.07,-421 447.52,-421"/>
<polygon fill="#475569" stroke="#475569" points="447.32,-423.1 453.32,-421 447.32,-418.9 447.32,-423.1"/>
</g>
<!-- t_syn -->
<g id="node5" class="node">
<title>t_syn</title>
<path fill="#ede9fe" stroke="#6d28d9" d="M149.75,-245.25C149.75,-245.25 32.5,-245.25 32.5,-245.25 26.5,-245.25 20.5,-239.25 20.5,-233.25 20.5,-233.25 20.5,-220.75 20.5,-220.75 20.5,-214.75 26.5,-208.75 32.5,-208.75 32.5,-208.75 149.75,-208.75 149.75,-208.75 155.75,-208.75 161.75,-214.75 161.75,-220.75 161.75,-220.75 161.75,-233.25 161.75,-233.25 161.75,-239.25 155.75,-245.25 149.75,-245.25"/>
<text xml:space="preserve" text-anchor="middle" x="91.12" y="-231.75" font-family="Inter" font-size="10.00" fill="#4c1d95">★ csm_synthesize_protocol</text>
<text xml:space="preserve" text-anchor="middle" x="91.12" y="-217.5" font-family="Inter" font-size="10.00" fill="#4c1d95">(plan tree → GlobalType)</text>
</g>
<!-- t_syn&#45;&gt;g -->
<g id="edge3" class="edge">
<title>t_syn&#45;&gt;g</title>
<path fill="none" stroke="#475569" d="M162.2,-243.48C173.6,-246.15 185.13,-248.87 195.73,-251.36"/>
<polygon fill="#475569" stroke="#475569" points="195.11,-253.37 201.43,-252.7 196.07,-249.28 195.11,-253.37"/>
</g>
<!-- t_val -->
<g id="node6" class="node">
<title>t_val</title>
<path fill="#dcfce7" stroke="#15803d" d="M578,-308.25C578,-308.25 455.5,-308.25 455.5,-308.25 449.5,-308.25 443.5,-302.25 443.5,-296.25 443.5,-296.25 443.5,-283.75 443.5,-283.75 443.5,-277.75 449.5,-271.75 455.5,-271.75 455.5,-271.75 578,-271.75 578,-271.75 584,-271.75 590,-277.75 590,-283.75 590,-283.75 590,-296.25 590,-296.25 590,-302.25 584,-308.25 578,-308.25"/>
<text xml:space="preserve" text-anchor="middle" x="516.75" y="-294.75" font-family="Inter" font-size="10.00" fill="#14532d">★ csm_validate_run</text>
<text xml:space="preserve" text-anchor="middle" x="516.75" y="-280.5" font-family="Inter" font-size="10.00" fill="#14532d">(run → conformance verdict)</text>
</g>
<!-- trace -->
<g id="node13" class="node">
<title>trace</title>
<polygon fill="#e2e8f0" stroke="#334155" points="855.75,-362.25 732.75,-362.25 728.75,-358.25 728.75,-325.75 851.75,-325.75 855.75,-329.75 855.75,-362.25"/>
<polyline fill="none" stroke="#334155" points="851.75,-358.25 728.75,-358.25"/>
<polyline fill="none" stroke="#334155" points="851.75,-358.25 851.75,-325.75"/>
<polyline fill="none" stroke="#334155" points="851.75,-358.25 855.75,-362.25"/>
<text xml:space="preserve" text-anchor="middle" x="792.25" y="-348.75" font-family="Inter" font-size="10.00" fill="#0f172a">Trace</text>
<text xml:space="preserve" text-anchor="middle" x="792.25" y="-334.5" font-family="Inter" font-size="10.00" fill="#0f172a">(csm_run_traces.events)</text>
</g>
<!-- t_val&#45;&gt;trace -->
<g id="edge6" class="edge">
<title>t_val&#45;&gt;trace</title>
<path fill="none" stroke="#475569" d="M590.32,-304.33C630.85,-312.33 681.09,-322.25 721.2,-330.17"/>
<polygon fill="#475569" stroke="#475569" points="720.79,-332.23 727.08,-331.33 721.6,-328.11 720.79,-332.23"/>
</g>
<!-- t_inf -->
<g id="node7" class="node">
<title>t_inf</title>
<path fill="#dcfce7" stroke="#15803d" d="M559.62,-362C559.62,-362 473.88,-362 473.88,-362 467.88,-362 461.88,-356 461.88,-350 461.88,-350 461.88,-338 461.88,-338 461.88,-332 467.88,-326 473.88,-326 473.88,-326 559.62,-326 559.62,-326 565.62,-326 571.62,-332 571.62,-338 571.62,-338 571.62,-350 571.62,-350 571.62,-356 565.62,-362 559.62,-362"/>
<text xml:space="preserve" text-anchor="middle" x="516.75" y="-341.62" font-family="Inter" font-size="10.00" fill="#14532d">csm_infer_peer_fsm</text>
</g>
<!-- t_inf&#45;&gt;trace -->
<g id="edge7" class="edge">
<title>t_inf&#45;&gt;trace</title>
<path fill="none" stroke="#475569" d="M572.11,-344C614.85,-344 674.7,-344 721.05,-344"/>
<polygon fill="#475569" stroke="#475569" points="720.86,-346.1 726.86,-344 720.86,-341.9 720.86,-346.1"/>
</g>
<!-- t_tla -->
<g id="node8" class="node">
<title>t_tla</title>
<path fill="#ccfbf1" stroke="#0f766e" d="M132.5,-52C132.5,-52 49.75,-52 49.75,-52 43.75,-52 37.75,-46 37.75,-40 37.75,-40 37.75,-28 37.75,-28 37.75,-22 43.75,-16 49.75,-16 49.75,-16 132.5,-16 132.5,-16 138.5,-16 144.5,-22 144.5,-28 144.5,-28 144.5,-40 144.5,-40 144.5,-46 138.5,-52 132.5,-52"/>
<text xml:space="preserve" text-anchor="middle" x="91.12" y="-31.62" font-family="Inter" font-size="10.00" fill="#134e4a">csm_protocol_to_tla</text>
</g>
<!-- tla -->
<g id="node14" class="node">
<title>tla</title>
<polygon fill="#e2e8f0" stroke="#334155" points="279.25,-52 208.75,-52 204.75,-48 204.75,-16 275.25,-16 279.25,-20 279.25,-52"/>
<polyline fill="none" stroke="#334155" points="275.25,-48 204.75,-48"/>
<polyline fill="none" stroke="#334155" points="275.25,-48 275.25,-16"/>
<polyline fill="none" stroke="#334155" points="275.25,-48 279.25,-52"/>
<text xml:space="preserve" text-anchor="middle" x="242" y="-31.62" font-family="Inter" font-size="10.00" fill="#0f172a">TLA⁺ module</text>
</g>
<!-- t_tla&#45;&gt;tla -->
<g id="edge8" class="edge">
<title>t_tla&#45;&gt;tla</title>
<path fill="none" stroke="#475569" d="M144.61,-34C161.75,-34 180.58,-34 197.02,-34"/>
<polygon fill="#475569" stroke="#475569" points="196.88,-36.1 202.88,-34 196.88,-31.9 196.88,-36.1"/>
</g>
<!-- t_str -->
<g id="node9" class="node">
<title>t_str</title>
<path fill="#ccfbf1" stroke="#0f766e" d="M154.25,-106C154.25,-106 28,-106 28,-106 22,-106 16,-100 16,-94 16,-94 16,-82 16,-82 16,-76 22,-70 28,-70 28,-70 154.25,-70 154.25,-70 160.25,-70 166.25,-76 166.25,-82 166.25,-82 166.25,-94 166.25,-94 166.25,-100 160.25,-106 154.25,-106"/>
<text xml:space="preserve" text-anchor="middle" x="91.12" y="-85.62" font-family="Inter" font-size="10.00" fill="#134e4a">csm_protocol_string_diagram</text>
</g>
<!-- t_str&#45;&gt;g -->
<g id="edge9" class="edge">
<title>t_str&#45;&gt;g</title>
<path fill="none" stroke="#475569" d="M162.51,-106.47C166.71,-108.97 170.67,-111.79 174.25,-115 210.62,-147.62 228.41,-203.98 236.06,-236.62"/>
<polygon fill="#475569" stroke="#475569" points="233.93,-236.72 237.29,-242.12 238.03,-235.8 233.93,-236.72"/>
</g>
<!-- t_snd -->
<g id="node10" class="node">
<title>t_snd</title>
<path fill="#ccfbf1" stroke="#0f766e" d="M133.25,-160C133.25,-160 49,-160 49,-160 43,-160 37,-154 37,-148 37,-148 37,-136 37,-136 37,-130 43,-124 49,-124 49,-124 133.25,-124 133.25,-124 139.25,-124 145.25,-130 145.25,-136 145.25,-136 145.25,-148 145.25,-148 145.25,-154 139.25,-160 133.25,-160"/>
<text xml:space="preserve" text-anchor="middle" x="91.12" y="-139.62" font-family="Inter" font-size="10.00" fill="#134e4a">protocol_soundness</text>
</g>
<!-- t_snd&#45;&gt;g -->
<g id="edge10" class="edge">
<title>t_snd&#45;&gt;g</title>
<path fill="none" stroke="#475569" d="M122.31,-160.35C138.25,-170.49 157.85,-183.71 174.25,-197 189.97,-209.74 206.27,-225.56 218.83,-238.4"/>
<polygon fill="#475569" stroke="#475569" points="217.23,-239.77 222.92,-242.61 220.25,-236.84 217.23,-239.77"/>
</g>
<!-- g&#45;&gt;net -->
<g id="edge11" class="edge">
<title>g&#45;&gt;net</title>
<path fill="none" stroke="#6d28d9" d="M271.69,-280.33C308.38,-304.18 373.41,-347.75 425.5,-389.75 430.21,-393.55 430.21,-396.06 435.5,-399 439.48,-401.21 443.69,-403.21 448.02,-405.02"/>
<polygon fill="#6d28d9" stroke="#6d28d9" points="447.15,-406.93 453.5,-407.15 448.67,-403.01 447.15,-406.93"/>
<text xml:space="preserve" text-anchor="middle" x="362.12" y="-393.7" font-family="Times,serif" font-size="14.00">project + compile</text>
</g>
<!-- net&#45;&gt;trace -->
<g id="edge12" class="edge">
<title>net&#45;&gt;trace</title>
<path fill="none" stroke="#15803d" d="M578.67,-404.37C585.2,-402.56 591.74,-400.75 598,-399 638.95,-387.56 684.7,-374.55 721.41,-364.05"/>
<polygon fill="#15803d" stroke="#15803d" points="721.98,-366.07 727.18,-362.4 720.83,-362.04 721.98,-366.07"/>
<text xml:space="preserve" text-anchor="middle" x="659.38" y="-400.04" font-family="Times,serif" font-size="14.00">drive → replay</text>
</g>
</g>
</svg>
