<svg xmlns="http://www.w3.org/2000/svg" xmlns:xlink="http://www.w3.org/1999/xlink" contentStyleType="text/css" data-diagram-type="STATE" height="545px" preserveAspectRatio="none" style="width:845px;height:545px;" version="1.1" viewBox="0 0 845 545" width="845px" zoomAndPan="magnify"><?plantuml $version$?><defs/><g><g class="entity" data-qualified-name="L" data-source-line="13" id="ent0001"><rect fill="#E0E7FF" height="50" rx="12.5" ry="12.5" style="stroke:#3730A3;stroke-width:0.5;" width="113.9536" x="603.06" y="148.12"/><line style="stroke:#3730A3;stroke-width:0.5;" x1="603.06" x2="717.0136" y1="177.1879" y2="177.1879"/><text fill="#1E1B4B" font-family="Inter" font-size="14" lengthAdjust="spacing" textLength="93.9536" x="613.06" y="168.0859">&#956;L (loop head)</text></g><g class="entity" data-qualified-name="Req" data-source-line="14" id="ent0002"><rect fill="#E0E7FF" height="50" rx="12.5" ry="12.5" style="stroke:#3730A3;stroke-width:0.5;" width="135.2181" x="592.43" y="259.12"/><line style="stroke:#3730A3;stroke-width:0.5;" x1="592.43" x2="727.6481" y1="288.1879" y2="288.1879"/><text fill="#1E1B4B" font-family="Inter" font-size="14" lengthAdjust="spacing" textLength="115.2181" x="602.43" y="279.0859">O&#8594;S:attempt_req</text></g><g class="entity" data-qualified-name="Att" data-source-line="15" id="ent0003"><rect fill="#E0E7FF" height="50" rx="12.5" ry="12.5" style="stroke:#3730A3;stroke-width:0.5;" width="106.7142" x="566.68" y="370.12"/><line style="stroke:#3730A3;stroke-width:0.5;" x1="566.68" x2="673.3942" y1="399.1879" y2="399.1879"/><text fill="#1E1B4B" font-family="Inter" font-size="14" lengthAdjust="spacing" textLength="86.7142" x="576.68" y="390.0859">S&#8594;O:attempt</text></g><g class="entity" data-qualified-name="Ver" data-source-line="16" id="ent0004"><rect fill="#E0E7FF" height="50" rx="12.5" ry="12.5" style="stroke:#3730A3;stroke-width:0.5;" width="120.1261" x="433.98" y="481.12"/><line style="stroke:#3730A3;stroke-width:0.5;" x1="433.98" x2="554.1061" y1="510.1879" y2="510.1879"/><text fill="#1E1B4B" font-family="Inter" font-size="14" lengthAdjust="spacing" textLength="100.1261" x="443.98" y="501.0859">O&#8594;C:verify_req</text></g><g class="entity" data-qualified-name="CriticGate" id="ent0005"><polygon fill="#F1F1F1" points="443.04,25.56,455.04,37.56,443.04,49.56,431.04,37.56,443.04,25.56" style="stroke:#181818;stroke-width:0.5;stroke-linejoin:miter;stroke-miterlimit:10;"/></g><g class="entity" data-qualified-name="Done" data-source-line="18" id="ent0006"><rect fill="#DCFCE7" height="50" rx="12.5" ry="12.5" style="stroke:#3730A3;stroke-width:0.5;" width="137.9341" x="254.07" y="148.12"/><line style="stroke:#3730A3;stroke-width:0.5;" x1="254.07" x2="392.0041" y1="177.1879" y2="177.1879"/><text fill="#1E1B4B" font-family="Inter" font-size="14" lengthAdjust="spacing" textLength="117.9341" x="264.07" y="168.0859">O&#8594;S:release &#183; end</text></g><g class="start_entity" data-qualified-name=".start." data-source-line="20" id="ent0007"><ellipse cx="821.04" cy="37.56" fill="#222222" rx="10" ry="10" style="stroke:#222222;stroke-width:1;"/></g><g class="end_entity" data-qualified-name=".end." data-source-line="27" id="ent0015"><ellipse cx="358.04" cy="284.12" fill="none" rx="11" ry="11" style="stroke:#222222;stroke-width:1;"/><ellipse cx="358.04" cy="284.12" fill="#222222" rx="6" ry="6" style="stroke:#222222;stroke-width:1;"/></g><g class="entity" data-qualified-name="GMN17" data-source-line="30" id="ent0018"><path d="M489.98,6 L489.98,33.56 L455.66,37.56 L489.98,41.56 L489.98,69.118 A0,0 0 0 0 489.98,69.118 L776.0893,69.118 A0,0 0 0 0 776.0893,69.118 L776.0893,16 L766.0893,6 L489.98,6 A0,0 0 0 0 489.98,6" fill="#FEF9C3" style="stroke:#181818;stroke-width:0.5;"/><path d="M766.0893,6 L766.0893,16 L776.0893,16 L766.0893,6" fill="#FEF9C3" style="stroke:#181818;stroke-width:0.5;"/><text fill="#000000" font-family="Inter" font-size="13" lengthAdjust="spacing" textLength="204.4772" x="495.98" y="24.897">the Critic owns the gating Choice;</text><text fill="#000000" font-family="Inter" font-size="13" lengthAdjust="spacing" textLength="223.6247" x="495.98" y="42.603">workers are bystanders &#8594; projection</text><text fill="#000000" font-family="Inter" font-size="13" lengthAdjust="spacing" textLength="265.1093" x="495.98" y="60.309">MERGES both branches (same-sender Recv)</text></g><g class="entity" data-qualified-name="GMN20" data-source-line="35" id="ent0021"><path d="M6,261.41 L6,306.822 A0,0 0 0 0 6,306.822 L312.0773,306.822 A0,0 0 0 0 312.0773,306.822 L312.0773,271.41 L302.0773,261.41 L196.38,261.41 L286.23,198.58 L188.38,261.41 L6,261.41 A0,0 0 0 0 6,261.41" fill="#DCFCE7" style="stroke:#181818;stroke-width:0.5;"/><path d="M302.0773,261.41 L302.0773,271.41 L312.0773,271.41 L302.0773,261.41" fill="#DCFCE7" style="stroke:#181818;stroke-width:0.5;"/><text fill="#000000" font-family="Inter" font-size="13" lengthAdjust="spacing" textLength="285.0773" x="12" y="280.307">the machine cannot reach End without a `pass`</text><text fill="#000000" font-family="Inter" font-size="13" lengthAdjust="spacing" textLength="257.7628" x="12" y="298.013">&#8658; no termination with an unverified result</text></g><!--link *start* to L--><g class="link" data-entity-1="ent0007" data-entity-2="ent0001" data-link-type="dependency" data-source-line="20" id="lnk8"><path d="M817.99,47.36 C812.04,63.37 797.49,97.51 775.04,118.12 C758.63,133.19 741.8663,142.8018 722.0163,151.3018" fill="none" id="*start*-to-L" style="stroke:#181818;stroke-width:1;"/><polygon fill="#181818" points="717.42,153.27,727.2679,153.4043,722.0163,151.3018,724.1188,146.0502,717.42,153.27" style="stroke:#181818;stroke-width:1;stroke-linejoin:miter;stroke-miterlimit:10;"/></g><!--link L to Req--><g class="link" data-entity-1="ent0001" data-entity-2="ent0002" data-link-type="dependency" data-source-line="21" id="lnk9"><path d="M660.04,198.58 C660.04,216.53 660.04,235.81 660.04,253.74" fill="none" id="L-to-Req" style="stroke:#181818;stroke-width:1;"/><polygon fill="#181818" points="660.04,258.74,664.04,249.74,660.04,253.74,656.04,249.74,660.04,258.74" style="stroke:#181818;stroke-width:1;stroke-linejoin:miter;stroke-miterlimit:10;"/></g><!--link Req to Att--><g class="link" data-entity-1="ent0002" data-entity-2="ent0003" data-link-type="dependency" data-source-line="22" id="lnk10"><path d="M651.06,309.58 C644.47,327.53 637.2926,347.1161 630.7126,365.0461" fill="none" id="Req-to-Att" style="stroke:#181818;stroke-width:1;"/><polygon fill="#181818" points="628.99,369.74,635.8458,362.669,630.7126,365.0461,628.3355,359.9129,628.99,369.74" style="stroke:#181818;stroke-width:1;stroke-linejoin:miter;stroke-miterlimit:10;"/></g><!--link Att to Ver--><g class="link" data-entity-1="ent0003" data-entity-2="ent0004" data-link-type="dependency" data-source-line="23" id="lnk11"><path d="M591.76,420.58 C571.01,438.53 546.7317,459.5391 526.0017,477.4691" fill="none" id="Att-to-Ver" style="stroke:#181818;stroke-width:1;"/><polygon fill="#181818" points="522.22,480.74,531.6438,477.8777,526.0017,477.4691,526.4103,471.827,522.22,480.74" style="stroke:#181818;stroke-width:1;stroke-linejoin:miter;stroke-miterlimit:10;"/></g><!--link Ver to CriticGate--><g class="link" data-entity-1="ent0004" data-entity-2="ent0005" data-link-type="dependency" data-source-line="24" id="lnk12"><path d="M486.93,480.68 C481.18,458.74 474.04,425.56 474.04,396.12 C474.04,172.12 474.04,172.12 474.04,172.12 C474.04,123.56 456.1475,72.2457 448.1575,51.5057" fill="none" id="Ver-to-CriticGate" style="stroke:#181818;stroke-width:1;"/><polygon fill="#181818" points="446.36,46.84,445.8628,56.6763,448.1575,51.5057,453.328,53.8004,446.36,46.84" style="stroke:#181818;stroke-width:1;stroke-linejoin:miter;stroke-miterlimit:10;"/><text fill="#000000" font-family="Inter" font-size="13" lengthAdjust="spacing" textLength="81.0927" x="475.04" y="289.517">C&#8594;O : verdict</text></g><!--link CriticGate to Done--><g class="link" data-entity-1="ent0005" data-entity-2="ent0006" data-link-type="dependency" data-source-line="25" id="lnk13"><path d="M433.05,39.94 C408.57,43.92 345.69,57.89 320.04,99.12 C311.13,113.44 311.2521,127.6968 314.4221,142.7868" fill="none" id="CriticGate-to-Done" style="stroke:#181818;stroke-width:1;"/><polygon fill="#181818" points="315.45,147.68,317.5143,138.0499,314.4221,142.7868,309.6852,139.6946,315.45,147.68" style="stroke:#181818;stroke-width:1;stroke-linejoin:miter;stroke-miterlimit:10;"/><text fill="#000000" font-family="Inter" font-size="13" font-weight="700" lengthAdjust="spacing" textLength="29.055" x="321.04" y="114.017">pass</text><text fill="#000000" font-family="Inter" font-size="13" lengthAdjust="spacing" textLength="91.0781" x="356.855" y="114.017">(the ONLY exit)</text></g><!--link CriticGate to L--><g class="link" data-entity-1="ent0005" data-entity-2="ent0001" data-link-type="dependency" data-source-line="26" id="lnk14"><path d="M447.9,44.73 C453.31,51.32 462.54,61.8 472.04,69.12 C513.46,101.03 561.5306,126.7801 600.5506,145.4701" fill="none" id="CriticGate-to-L" style="stroke:#181818;stroke-width:1;"/><polygon fill="#181818" points="605.06,147.63,598.671,140.1346,600.5506,145.4701,595.2151,147.3496,605.06,147.63" style="stroke:#181818;stroke-width:1;stroke-linejoin:miter;stroke-miterlimit:10;"/><text fill="#000000" font-family="Inter" font-size="13" font-weight="700" lengthAdjust="spacing" textLength="20.579" x="546.93" y="114.017">fail</text><text fill="#000000" font-family="Inter" font-size="13" lengthAdjust="spacing" textLength="144.9111" x="574.269" y="114.017">(back-edge &#8212; try again)</text></g><!--link Done to *end*--><g class="link" data-entity-1="ent0006" data-entity-2="ent0015" data-link-type="dependency" data-source-line="27" id="lnk16"><path d="M330.89,198.58 C338.43,222.06 347.9109,251.5796 353.3009,268.3596" fill="none" id="Done-to-*end*" style="stroke:#181818;stroke-width:1;"/><polygon fill="#181818" points="354.83,273.12,355.8859,263.3279,353.3009,268.3596,348.2692,265.7745,354.83,273.12" style="stroke:#181818;stroke-width:1;stroke-linejoin:miter;stroke-miterlimit:10;"/></g><?plantuml-src TLJDRXCn4BxxAKRj8JzA-gCWLOGc4eHI8QKjQgLA227gsBEx9XixjRqD5KBY1FUAT-72YGVW8V8ap3X9jQtWOAtj-MRcc_5ysu1Bz2OpIaRZB9W08VfAnShBiW-nG1Xv4utgvZAYXjAvUIF0sUduBSnbB20wEB8QV6K3eRshyeAzH6FjH-2hkGpX2YPUMbLq8BWKTYPLOIo2ajQw217zp5ZA0Gj3OQM5ojuaPfJLOwZAk4D1tyWIOyG-B9oV3epL9dSTK2dL87UbxW1dsqMh1xb7j1t8f2btcVV0ezuHOMhiN7evWubKqvmOMprofVCGYM0W4zfOGsdC92L_vMmybJE4rvQerkoXaDejZCqfKHcmRebSpcS1yE9HfctSmuCiOulp6ltwjdVGsvCzkkLawxjzt9yycOWlGgp2RVtvDOOcbmC5IjtQ0XbWl36UBR_TNVGbTMWsZnyyNYVpELvl01S4EDi0al5vZ7NlKJzr_VRU-PAhJVRLWnxpzl1G5Sue70vXEyFigUezPE2nH1aGVly4UeaKvwMZnzxMAbDu8CIxzdleTeV4V9o-J95MsZCZMcdFsMcbVIr_7qPS27s9hJOgYfgHiIbR7zfjdePs6w39CvV65Z-Ps7gC7oSmZqe2ysXqKUS8owy_Q31kGURIs9P8STc12X221XV1cxo8uB8wlqrJeAOWS8ka4GII4i_BABNm6O5ucD47eDc3oIrrqce-Keamz-uZAjOcuKwEpe-FBc3YI24hEM60Pg2nx0Pa7-gZkca9sWDpMn4aU7GpPlZW3U1VClH8vwHebg6h8iYrVWc__7v7OU-bol-B_uhrdiDV?></g></svg>