<?xml version="1.0" encoding="UTF-8" standalone="no"?>
<!DOCTYPE svg PUBLIC "-//W3C//DTD SVG 1.1//EN"
 "http://www.w3.org/Graphics/SVG/1.1/DTD/svg11.dtd">
<!-- Generated by graphviz version 14.1.5 (0)
 -->
<!-- Title: vpa Pages: 1 -->
<svg width="556pt" height="287pt"
 viewBox="0.00 0.00 556.00 287.00" xmlns="http://www.w3.org/2000/svg" xmlns:xlink="http://www.w3.org/1999/xlink">
<g id="graph0" class="graph" transform="scale(1 1) rotate(0) translate(4 282.5)">
<title>vpa</title>
<g id="clust1" class="cluster">
<title>cluster_int</title>
<path fill="#f1f5f9" stroke="#334155" d="M20,-83.25C20,-83.25 188,-83.25 188,-83.25 194,-83.25 200,-89.25 200,-95.25 200,-95.25 200,-219 200,-219 200,-225 194,-231 188,-231 188,-231 20,-231 20,-231 14,-231 8,-225 8,-219 8,-219 8,-95.25 8,-95.25 8,-89.25 14,-83.25 20,-83.25"/>
<text xml:space="preserve" text-anchor="middle" x="104" y="-216.55" font-family="Inter" font-size="11.00">Σ_int — Neutral (stack unchanged)</text>
</g>
<g id="clust2" class="cluster">
<title>cluster_call</title>
<path fill="#f5f3ff" stroke="#6d28d9" d="M220,-83.25C220,-83.25 358,-83.25 358,-83.25 364,-83.25 370,-89.25 370,-95.25 370,-95.25 370,-219 370,-219 370,-225 364,-231 358,-231 358,-231 220,-231 220,-231 214,-231 208,-225 208,-219 208,-219 208,-95.25 208,-95.25 208,-89.25 214,-83.25 220,-83.25"/>
<text xml:space="preserve" text-anchor="middle" x="289" y="-216.55" font-family="Inter" font-size="11.00">Σ_call — Push (enter frame)</text>
</g>
<g id="clust3" class="cluster">
<title>cluster_ret</title>
<path fill="#fdf4ff" stroke="#a21caf" d="M390,-83.25C390,-83.25 528,-83.25 528,-83.25 534,-83.25 540,-89.25 540,-95.25 540,-95.25 540,-219 540,-219 540,-225 534,-231 528,-231 528,-231 390,-231 390,-231 384,-231 378,-225 378,-219 378,-219 378,-95.25 378,-95.25 378,-89.25 384,-83.25 390,-83.25"/>
<text xml:space="preserve" text-anchor="middle" x="459" y="-216.55" font-family="Inter" font-size="11.00">Σ_ret — Pop (return frame)</text>
</g>
<!-- alpha -->
<g id="node1" class="node">
<title>alpha</title>
<polygon fill="#e0e7ff" stroke="#312e81" points="384,-278.5 198,-278.5 194,-274.5 194,-239 380,-239 384,-243 384,-278.5"/>
<polyline fill="none" stroke="#312e81" points="380,-274.5 194,-274.5"/>
<polyline fill="none" stroke="#312e81" points="380,-274.5 380,-239"/>
<polyline fill="none" stroke="#312e81" points="380,-274.5 384,-278.5"/>
<text xml:space="preserve" text-anchor="middle" x="289" y="-264.05" font-family="Inter" font-size="11.00" fill="#1e1b4b">GlobalType::alphabet()</text>
<text xml:space="preserve" text-anchor="middle" x="289" y="-248.3" font-family="Inter" font-size="11.00" fill="#1e1b4b">classifies each symbol structurally</text>
</g>
<!-- i1 -->
<g id="node2" class="node">
<title>i1</title>
<path fill="#e2e8f0" stroke="#334155" d="M180,-199.25C180,-199.25 38,-199.25 38,-199.25 32,-199.25 26,-193.25 26,-187.25 26,-187.25 26,-175.25 26,-175.25 26,-169.25 32,-163.25 38,-163.25 38,-163.25 180,-163.25 180,-163.25 186,-163.25 192,-169.25 192,-175.25 192,-175.25 192,-187.25 192,-187.25 192,-193.25 186,-199.25 180,-199.25"/>
<text xml:space="preserve" text-anchor="middle" x="109" y="-178.68" font-family="Inter" font-size="11.00" fill="#0f172a">Interaction label &#160;(from→to:ℓ)</text>
</g>
<!-- alpha&#45;&gt;i1 -->
<g id="edge1" class="edge">
<title>alpha&#45;&gt;i1</title>
<path fill="none" stroke="#475569" d="M224.08,-238.58C217.24,-236.18 210.44,-233.64 204,-231 184.64,-223.05 163.89,-212.64 146.73,-203.47"/>
<polygon fill="#475569" stroke="#475569" points="148.27,-201.52 140.94,-200.35 145.94,-205.83 148.27,-201.52"/>
</g>
<!-- c1 -->
<g id="node4" class="node">
<title>c1</title>
<path fill="#ede9fe" stroke="#6d28d9" d="M349.5,-199.25C349.5,-199.25 228.5,-199.25 228.5,-199.25 222.5,-199.25 216.5,-193.25 216.5,-187.25 216.5,-187.25 216.5,-175.25 216.5,-175.25 216.5,-169.25 222.5,-163.25 228.5,-163.25 228.5,-163.25 349.5,-163.25 349.5,-163.25 355.5,-163.25 361.5,-169.25 361.5,-175.25 361.5,-175.25 361.5,-187.25 361.5,-187.25 361.5,-193.25 355.5,-199.25 349.5,-199.25"/>
<text xml:space="preserve" text-anchor="middle" x="289" y="-178.68" font-family="Inter" font-size="11.00" fill="#4c1d95">call:&lt;callee&gt; &#160;&#160;(GlobalCall)</text>
</g>
<!-- alpha&#45;&gt;c1 -->
<g id="edge2" class="edge">
<title>alpha&#45;&gt;c1</title>
<path fill="none" stroke="#475569" d="M289,-238.7C289,-229.44 289,-218.18 289,-208.15"/>
<polygon fill="#475569" stroke="#475569" points="291.45,-208.26 289,-201.26 286.55,-208.26 291.45,-208.26"/>
</g>
<!-- r1 -->
<g id="node6" class="node">
<title>r1</title>
<path fill="#fae8ff" stroke="#a21caf" d="M519.5,-199.25C519.5,-199.25 398.5,-199.25 398.5,-199.25 392.5,-199.25 386.5,-193.25 386.5,-187.25 386.5,-187.25 386.5,-175.25 386.5,-175.25 386.5,-169.25 392.5,-163.25 398.5,-163.25 398.5,-163.25 519.5,-163.25 519.5,-163.25 525.5,-163.25 531.5,-169.25 531.5,-175.25 531.5,-175.25 531.5,-187.25 531.5,-187.25 531.5,-193.25 525.5,-199.25 519.5,-199.25"/>
<text xml:space="preserve" text-anchor="middle" x="459" y="-178.68" font-family="Inter" font-size="11.00" fill="#701a75">ret:&lt;callee&gt; &#160;&#160;&#160;(GlobalCall)</text>
</g>
<!-- alpha&#45;&gt;r1 -->
<g id="edge3" class="edge">
<title>alpha&#45;&gt;r1</title>
<path fill="none" stroke="#475569" d="M354.96,-238.55C361.46,-236.2 367.91,-233.67 374,-231 391.41,-223.38 409.81,-213.12 425.02,-203.98"/>
<polygon fill="#475569" stroke="#475569" points="426.22,-206.13 430.93,-200.39 423.67,-201.94 426.22,-206.13"/>
</g>
<!-- i2 -->
<g id="node3" class="node">
<title>i2</title>
<path fill="#e2e8f0" stroke="#334155" d="M162.88,-127.25C162.88,-127.25 89.12,-127.25 89.12,-127.25 83.12,-127.25 77.12,-121.25 77.12,-115.25 77.12,-115.25 77.12,-103.25 77.12,-103.25 77.12,-97.25 83.12,-91.25 89.12,-91.25 89.12,-91.25 162.88,-91.25 162.88,-91.25 168.88,-91.25 174.88,-97.25 174.88,-103.25 174.88,-103.25 174.88,-115.25 174.88,-115.25 174.88,-121.25 168.88,-127.25 162.88,-127.25"/>
<text xml:space="preserve" text-anchor="middle" x="126" y="-106.67" font-family="Inter" font-size="11.00" fill="#0f172a">Choice label &#160;(ℓᵢ)</text>
</g>
<!-- i1&#45;&gt;i2 -->
<!-- inv -->
<g id="node8" class="node">
<title>inv</title>
<polygon fill="#dcfce7" stroke="#15803d" points="409.5,-55.25 162.5,-55.25 162.5,0 415.5,0 415.5,-49.25 409.5,-55.25"/>
<polyline fill="none" stroke="#15803d" points="409.5,-55.25 409.5,-49.25"/>
<polyline fill="none" stroke="#15803d" points="415.5,-49.25 409.5,-49.25"/>
<text xml:space="preserve" text-anchor="middle" x="289" y="-40.8" font-family="Inter" font-size="11.00" fill="#14532d">WF&#45;VPA: each label → exactly ONE stack action</text>
<text xml:space="preserve" text-anchor="middle" x="289" y="-25.05" font-family="Inter" font-size="11.00" fill="#14532d">(the symbol class, not the state, decides)</text>
<text xml:space="preserve" text-anchor="middle" x="289" y="-9.3" font-family="Inter" font-size="11.00" fill="#14532d">⇒ recognized language is a VPL</text>
</g>
<!-- i2&#45;&gt;inv -->
<g id="edge7" class="edge">
<title>i2&#45;&gt;inv</title>
<path fill="none" stroke="#475569" stroke-dasharray="1,5" d="M161.77,-90.78C180.63,-81.56 204.33,-69.99 226.14,-59.33"/>
<polygon fill="#475569" stroke="#475569" points="227.19,-61.55 232.4,-56.27 225.04,-57.14 227.19,-61.55"/>
</g>
<!-- c2 -->
<g id="node5" class="node">
<title>c2</title>
<path fill="#ede9fe" stroke="#6d28d9" d="M345,-127.25C345,-127.25 233,-127.25 233,-127.25 227,-127.25 221,-121.25 221,-115.25 221,-115.25 221,-103.25 221,-103.25 221,-97.25 227,-91.25 233,-91.25 233,-91.25 345,-91.25 345,-91.25 351,-91.25 357,-97.25 357,-103.25 357,-103.25 357,-115.25 357,-115.25 357,-121.25 351,-127.25 345,-127.25"/>
<text xml:space="preserve" text-anchor="middle" x="289" y="-106.67" font-family="Inter" font-size="11.00" fill="#4c1d95">enter &#160;&#160;&#160;&#160;&#160;&#160;&#160;&#160;&#160;&#160;(GlobalBox)</text>
</g>
<!-- c1&#45;&gt;c2 -->
<!-- c2&#45;&gt;inv -->
<g id="edge8" class="edge">
<title>c2&#45;&gt;inv</title>
<path fill="none" stroke="#475569" stroke-dasharray="1,5" d="M289,-90.97C289,-83.06 289,-73.37 289,-64.02"/>
<polygon fill="#475569" stroke="#475569" points="291.45,-64.09 289,-57.09 286.55,-64.09 291.45,-64.09"/>
</g>
<!-- r2 -->
<g id="node7" class="node">
<title>r2</title>
<path fill="#fae8ff" stroke="#a21caf" d="M508.38,-127.25C508.38,-127.25 401.62,-127.25 401.62,-127.25 395.62,-127.25 389.62,-121.25 389.62,-115.25 389.62,-115.25 389.62,-103.25 389.62,-103.25 389.62,-97.25 395.62,-91.25 401.62,-91.25 401.62,-91.25 508.38,-91.25 508.38,-91.25 514.38,-91.25 520.38,-97.25 520.38,-103.25 520.38,-103.25 520.38,-115.25 520.38,-115.25 520.38,-121.25 514.38,-127.25 508.38,-127.25"/>
<text xml:space="preserve" text-anchor="middle" x="455" y="-106.67" font-family="Inter" font-size="11.00" fill="#701a75">exit &#160;&#160;&#160;&#160;&#160;&#160;&#160;&#160;&#160;&#160;&#160;(GlobalBox)</text>
</g>
<!-- r1&#45;&gt;r2 -->
<!-- r2&#45;&gt;inv -->
<g id="edge9" class="edge">
<title>r2&#45;&gt;inv</title>
<path fill="none" stroke="#475569" stroke-dasharray="1,5" d="M418.57,-90.78C399.28,-81.52 375.02,-69.89 352.73,-59.19"/>
<polygon fill="#475569" stroke="#475569" points="353.99,-57.08 346.62,-56.26 351.87,-61.5 353.99,-57.08"/>
</g>
</g>
</svg>
