<?xml version="1.0" encoding="UTF-8" standalone="no"?>
<!DOCTYPE svg PUBLIC "-//W3C//DTD SVG 1.1//EN"
 "http://www.w3.org/Graphics/SVG/1.1/DTD/svg11.dtd">
<!-- Generated by graphviz version 14.1.5 (0)
 -->
<!-- Title: wf Pages: 1 -->
<svg width="1773pt" height="155pt"
 viewBox="0.00 0.00 1773.00 155.00" xmlns="http://www.w3.org/2000/svg" xmlns:xlink="http://www.w3.org/1999/xlink">
<g id="graph0" class="graph" transform="scale(1 1) rotate(0) translate(4 151.25)">
<title>wf</title>
<g id="clust1" class="cluster">
<title>cluster_p1</title>
<path fill="#eef2ff" stroke="#3730a3" d="M117.5,-47.25C117.5,-47.25 903,-47.25 903,-47.25 909,-47.25 915,-53.25 915,-59.25 915,-59.25 915,-113.25 915,-113.25 915,-119.25 909,-125.25 903,-125.25 903,-125.25 117.5,-125.25 117.5,-125.25 111.5,-125.25 105.5,-119.25 105.5,-113.25 105.5,-113.25 105.5,-59.25 105.5,-59.25 105.5,-53.25 111.5,-47.25 117.5,-47.25"/>
<text xml:space="preserve" text-anchor="middle" x="510.25" y="-109.85" font-family="Inter" font-size="12.00">Pass 1 — structural (check)</text>
</g>
<g id="clust2" class="cluster">
<title>cluster_p2</title>
<path fill="#f5f3ff" stroke="#6d28d9" d="M947,-47.25C947,-47.25 1224.5,-47.25 1224.5,-47.25 1230.5,-47.25 1236.5,-53.25 1236.5,-59.25 1236.5,-59.25 1236.5,-113.25 1236.5,-113.25 1236.5,-119.25 1230.5,-125.25 1224.5,-125.25 1224.5,-125.25 947,-125.25 947,-125.25 941,-125.25 935,-119.25 935,-113.25 935,-113.25 935,-59.25 935,-59.25 935,-53.25 941,-47.25 947,-47.25"/>
<text xml:space="preserve" text-anchor="middle" x="1085.75" y="-109.85" font-family="Inter" font-size="12.00">Pass 2 — visibly&#45;pushdown (check_visibility)</text>
</g>
<g id="clust3" class="cluster">
<title>cluster_p3</title>
<path fill="#fdf4ff" stroke="#a21caf" d="M1287.25,-61.25C1287.25,-61.25 1586.5,-61.25 1586.5,-61.25 1592.5,-61.25 1598.5,-67.25 1598.5,-73.25 1598.5,-73.25 1598.5,-127.25 1598.5,-127.25 1598.5,-133.25 1592.5,-139.25 1586.5,-139.25 1586.5,-139.25 1287.25,-139.25 1287.25,-139.25 1281.25,-139.25 1275.25,-133.25 1275.25,-127.25 1275.25,-127.25 1275.25,-73.25 1275.25,-73.25 1275.25,-67.25 1281.25,-61.25 1287.25,-61.25"/>
<text xml:space="preserve" text-anchor="middle" x="1436.88" y="-123.85" font-family="Inter" font-size="12.00">Pass 3 — callees (check_callees)</text>
</g>
<!-- g -->
<g id="node1" class="node">
<title>g</title>
<polygon fill="#e0e7ff" stroke="#312e81" points="77.5,-91.25 4,-91.25 0,-87.25 0,-55.25 73.5,-55.25 77.5,-59.25 77.5,-91.25"/>
<polyline fill="none" stroke="#312e81" points="73.5,-87.25 0,-87.25"/>
<polyline fill="none" stroke="#312e81" points="73.5,-87.25 73.5,-55.25"/>
<polyline fill="none" stroke="#312e81" points="73.5,-87.25 77.5,-91.25"/>
<text xml:space="preserve" text-anchor="middle" x="38.75" y="-70.88" font-family="Inter" font-size="10.00" fill="#1e1b4b">GlobalType G</text>
</g>
<!-- r1 -->
<g id="node2" class="node">
<title>r1</title>
<path fill="#e0e7ff" stroke="#3730a3" d="M192.5,-91.5C192.5,-91.5 125.5,-91.5 125.5,-91.5 119.5,-91.5 113.5,-85.5 113.5,-79.5 113.5,-79.5 113.5,-67 113.5,-67 113.5,-61 119.5,-55 125.5,-55 125.5,-55 192.5,-55 192.5,-55 198.5,-55 204.5,-61 204.5,-67 204.5,-67 204.5,-79.5 204.5,-79.5 204.5,-85.5 198.5,-91.5 192.5,-91.5"/>
<text xml:space="preserve" text-anchor="middle" x="159" y="-78" font-family="Inter" font-size="10.00" fill="#1e1b4b">no self&#45;message</text>
<text xml:space="preserve" text-anchor="middle" x="159" y="-63.75" font-family="Inter" font-size="10.00" fill="#1e1b4b">from ≠ to</text>
</g>
<!-- g&#45;&gt;r1 -->
<!-- g&#45;&gt;r1 -->
<g id="edge7" class="edge">
<title>g&#45;&gt;r1</title>
<path fill="none" stroke="#475569" d="M77.82,-79.6C86.77,-79.95 96.46,-80.07 105.9,-79.96"/>
<polygon fill="#475569" stroke="#475569" points="105.94,-82.06 111.9,-79.84 105.86,-77.86 105.94,-82.06"/>
</g>
<!-- r2 -->
<g id="node3" class="node">
<title>r2</title>
<path fill="#e0e7ff" stroke="#3730a3" d="M324.75,-91.5C324.75,-91.5 252.5,-91.5 252.5,-91.5 246.5,-91.5 240.5,-85.5 240.5,-79.5 240.5,-79.5 240.5,-67 240.5,-67 240.5,-61 246.5,-55 252.5,-55 252.5,-55 324.75,-55 324.75,-55 330.75,-55 336.75,-61 336.75,-67 336.75,-67 336.75,-79.5 336.75,-79.5 336.75,-85.5 330.75,-91.5 324.75,-91.5"/>
<text xml:space="preserve" text-anchor="middle" x="288.62" y="-78" font-family="Inter" font-size="10.00" fill="#1e1b4b">closed</text>
<text xml:space="preserve" text-anchor="middle" x="288.62" y="-63.75" font-family="Inter" font-size="10.00" fill="#1e1b4b">Var bound by Rec</text>
</g>
<!-- r1&#45;&gt;r2 -->
<!-- x1 -->
<g id="node12" class="node">
<title>x1</title>
<polygon fill="#fee2e2" stroke="#b91c1c" points="323.62,-36.5 247.62,-36.5 247.62,0 329.62,0 329.62,-30.5 323.62,-36.5"/>
<polyline fill="none" stroke="#b91c1c" points="323.62,-36.5 323.62,-30.5"/>
<polyline fill="none" stroke="#b91c1c" points="329.62,-30.5 323.62,-30.5"/>
<text xml:space="preserve" text-anchor="middle" x="288.62" y="-23" font-family="Inter" font-size="10.00" fill="#7f1d1d">✗ O → O : loop</text>
<text xml:space="preserve" text-anchor="middle" x="288.62" y="-8.75" font-family="Inter" font-size="10.00" fill="#7f1d1d">(SelfMessage)</text>
</g>
<!-- r1&#45;&gt;x1 -->
<g id="edge12" class="edge">
<title>r1&#45;&gt;x1</title>
<path fill="none" stroke="#dc2626" d="M203.21,-54.63C215.29,-49.42 228.47,-43.74 240.76,-38.45"/>
<polygon fill="#dc2626" stroke="#dc2626" points="241.4,-40.46 246.08,-36.15 239.74,-36.6 241.4,-40.46"/>
</g>
<!-- r3 -->
<g id="node4" class="node">
<title>r3</title>
<path fill="#e0e7ff" stroke="#3730a3" d="M461.5,-91.5C461.5,-91.5 384.75,-91.5 384.75,-91.5 378.75,-91.5 372.75,-85.5 372.75,-79.5 372.75,-79.5 372.75,-67 372.75,-67 372.75,-61 378.75,-55 384.75,-55 384.75,-55 461.5,-55 461.5,-55 467.5,-55 473.5,-61 473.5,-67 473.5,-67 473.5,-79.5 473.5,-79.5 473.5,-85.5 467.5,-91.5 461.5,-91.5"/>
<text xml:space="preserve" text-anchor="middle" x="423.12" y="-78" font-family="Inter" font-size="10.00" fill="#1e1b4b">guarded recursion</text>
<text xml:space="preserve" text-anchor="middle" x="423.12" y="-63.75" font-family="Inter" font-size="10.00" fill="#1e1b4b">no μt.t</text>
</g>
<!-- r2&#45;&gt;r3 -->
<!-- r4 -->
<g id="node5" class="node">
<title>r4</title>
<path fill="#e0e7ff" stroke="#3730a3" d="M630.5,-91.5C630.5,-91.5 521.5,-91.5 521.5,-91.5 515.5,-91.5 509.5,-85.5 509.5,-79.5 509.5,-79.5 509.5,-67 509.5,-67 509.5,-61 515.5,-55 521.5,-55 521.5,-55 630.5,-55 630.5,-55 636.5,-55 642.5,-61 642.5,-67 642.5,-67 642.5,-79.5 642.5,-79.5 642.5,-85.5 636.5,-91.5 630.5,-91.5"/>
<text xml:space="preserve" text-anchor="middle" x="576" y="-78" font-family="Inter" font-size="10.00" fill="#1e1b4b">sender&#45;driven choice</text>
<text xml:space="preserve" text-anchor="middle" x="576" y="-63.75" font-family="Inter" font-size="10.00" fill="#1e1b4b">non&#45;empty, distinct labels</text>
</g>
<!-- r3&#45;&gt;r4 -->
<!-- x2 -->
<g id="node13" class="node">
<title>x2</title>
<polygon fill="#fee2e2" stroke="#b91c1c" points="615.5,-36.5 530.5,-36.5 530.5,0 621.5,0 621.5,-30.5 615.5,-36.5"/>
<polyline fill="none" stroke="#b91c1c" points="615.5,-36.5 615.5,-30.5"/>
<polyline fill="none" stroke="#b91c1c" points="621.5,-30.5 615.5,-30.5"/>
<text xml:space="preserve" text-anchor="middle" x="576" y="-23" font-family="Inter" font-size="10.00" fill="#7f1d1d">✗ μt.t</text>
<text xml:space="preserve" text-anchor="middle" x="576" y="-8.75" font-family="Inter" font-size="10.00" fill="#7f1d1d">(UnguardedRec)</text>
</g>
<!-- r3&#45;&gt;x2 -->
<g id="edge13" class="edge">
<title>r3&#45;&gt;x2</title>
<path fill="none" stroke="#dc2626" d="M473.95,-55.09C489.79,-49.31 507.35,-42.91 523.33,-37.09"/>
<polygon fill="#dc2626" stroke="#dc2626" points="523.73,-39.18 528.64,-35.15 522.29,-35.23 523.73,-39.18"/>
</g>
<!-- r5 -->
<g id="node6" class="node">
<title>r5</title>
<path fill="#e0e7ff" stroke="#3730a3" d="M777.75,-91.5C777.75,-91.5 690.5,-91.5 690.5,-91.5 684.5,-91.5 678.5,-85.5 678.5,-79.5 678.5,-79.5 678.5,-67 678.5,-67 678.5,-61 684.5,-55 690.5,-55 690.5,-55 777.75,-55 777.75,-55 783.75,-55 789.75,-61 789.75,-67 789.75,-67 789.75,-79.5 789.75,-79.5 789.75,-85.5 783.75,-91.5 777.75,-91.5"/>
<text xml:space="preserve" text-anchor="middle" x="734.12" y="-78" font-family="Inter" font-size="10.00" fill="#1e1b4b">matching&#45;return box</text>
<text xml:space="preserve" text-anchor="middle" x="734.12" y="-63.75" font-family="Inter" font-size="10.00" fill="#1e1b4b">body can reach End</text>
</g>
<!-- r4&#45;&gt;r5 -->
<!-- r6 -->
<g id="node7" class="node">
<title>r6</title>
<path fill="#e0e7ff" stroke="#3730a3" d="M895,-91.5C895,-91.5 837.75,-91.5 837.75,-91.5 831.75,-91.5 825.75,-85.5 825.75,-79.5 825.75,-79.5 825.75,-67 825.75,-67 825.75,-61 831.75,-55 837.75,-55 837.75,-55 895,-55 895,-55 901,-55 907,-61 907,-67 907,-67 907,-79.5 907,-79.5 907,-85.5 901,-91.5 895,-91.5"/>
<text xml:space="preserve" text-anchor="middle" x="866.38" y="-78" font-family="Inter" font-size="10.00" fill="#1e1b4b">WF&#45;THREAD</text>
<text xml:space="preserve" text-anchor="middle" x="866.38" y="-63.75" font-family="Inter" font-size="10.00" fill="#1e1b4b">injective subst</text>
</g>
<!-- r5&#45;&gt;r6 -->
<!-- r7 -->
<g id="node8" class="node">
<title>r7</title>
<path fill="#ede9fe" stroke="#6d28d9" d="M1061,-91.5C1061,-91.5 955,-91.5 955,-91.5 949,-91.5 943,-85.5 943,-79.5 943,-79.5 943,-67 943,-67 943,-61 949,-55 955,-55 955,-55 1061,-55 1061,-55 1067,-55 1073,-61 1073,-67 1073,-67 1073,-79.5 1073,-79.5 1073,-85.5 1067,-91.5 1061,-91.5"/>
<text xml:space="preserve" text-anchor="middle" x="1008" y="-78" font-family="Inter" font-size="10.00" fill="#4c1d95">WF&#45;VPA: one stack action</text>
<text xml:space="preserve" text-anchor="middle" x="1008" y="-63.75" font-family="Inter" font-size="10.00" fill="#4c1d95">per label name</text>
</g>
<!-- r6&#45;&gt;r7 -->
<!-- r8 -->
<g id="node9" class="node">
<title>r8</title>
<path fill="#ede9fe" stroke="#6d28d9" d="M1216.5,-91.5C1216.5,-91.5 1121,-91.5 1121,-91.5 1115,-91.5 1109,-85.5 1109,-79.5 1109,-79.5 1109,-67 1109,-67 1109,-61 1115,-55 1121,-55 1121,-55 1216.5,-55 1216.5,-55 1222.5,-55 1228.5,-61 1228.5,-67 1228.5,-67 1228.5,-79.5 1228.5,-79.5 1228.5,-85.5 1222.5,-91.5 1216.5,-91.5"/>
<text xml:space="preserve" text-anchor="middle" x="1168.75" y="-78" font-family="Inter" font-size="10.00" fill="#4c1d95">no reserved boundary</text>
<text xml:space="preserve" text-anchor="middle" x="1168.75" y="-63.75" font-family="Inter" font-size="10.00" fill="#4c1d95">call:/ret: prefix</text>
</g>
<!-- r7&#45;&gt;r8 -->
<!-- r9 -->
<g id="node10" class="node">
<title>r9</title>
<path fill="#fae8ff" stroke="#a21caf" d="M1370.5,-105.5C1370.5,-105.5 1295.25,-105.5 1295.25,-105.5 1289.25,-105.5 1283.25,-99.5 1283.25,-93.5 1283.25,-93.5 1283.25,-81 1283.25,-81 1283.25,-75 1289.25,-69 1295.25,-69 1295.25,-69 1370.5,-69 1370.5,-69 1376.5,-69 1382.5,-75 1382.5,-81 1382.5,-81 1382.5,-93.5 1382.5,-93.5 1382.5,-99.5 1376.5,-105.5 1370.5,-105.5"/>
<text xml:space="preserve" text-anchor="middle" x="1332.88" y="-92" font-family="Inter" font-size="10.00" fill="#701a75">WF&#45;CLOSED</text>
<text xml:space="preserve" text-anchor="middle" x="1332.88" y="-77.75" font-family="Inter" font-size="10.00" fill="#701a75">every call resolves</text>
</g>
<!-- r8&#45;&gt;r9 -->
<!-- x3 -->
<g id="node14" class="node">
<title>x3</title>
<polygon fill="#fee2e2" stroke="#b91c1c" points="1395.25,-50.5 1264.5,-50.5 1264.5,-14 1401.25,-14 1401.25,-44.5 1395.25,-50.5"/>
<polyline fill="none" stroke="#b91c1c" points="1395.25,-50.5 1395.25,-44.5"/>
<polyline fill="none" stroke="#b91c1c" points="1401.25,-44.5 1395.25,-44.5"/>
<text xml:space="preserve" text-anchor="middle" x="1332.88" y="-37" font-family="Inter" font-size="10.00" fill="#7f1d1d">✗ Neutral label &quot;call:foo&quot;</text>
<text xml:space="preserve" text-anchor="middle" x="1332.88" y="-22.75" font-family="Inter" font-size="10.00" fill="#7f1d1d">(ReservedBoundaryLabel)</text>
</g>
<!-- r8&#45;&gt;x3 -->
<g id="edge14" class="edge">
<title>r8&#45;&gt;x3</title>
<path fill="none" stroke="#dc2626" d="M1228.74,-58.33C1237.9,-56.01 1247.47,-53.59 1256.93,-51.2"/>
<polygon fill="#dc2626" stroke="#dc2626" points="1257.36,-53.26 1262.67,-49.75 1256.33,-49.19 1257.36,-53.26"/>
</g>
<!-- r10 -->
<g id="node11" class="node">
<title>r10</title>
<path fill="#fae8ff" stroke="#a21caf" d="M1578.5,-105.5C1578.5,-105.5 1449.25,-105.5 1449.25,-105.5 1443.25,-105.5 1437.25,-99.5 1437.25,-93.5 1437.25,-93.5 1437.25,-81 1437.25,-81 1437.25,-75 1443.25,-69 1449.25,-69 1449.25,-69 1578.5,-69 1578.5,-69 1584.5,-69 1590.5,-75 1590.5,-81 1590.5,-81 1590.5,-93.5 1590.5,-93.5 1590.5,-99.5 1584.5,-105.5 1578.5,-105.5"/>
<text xml:space="preserve" text-anchor="middle" x="1513.88" y="-92" font-family="Inter" font-size="10.00" fill="#701a75">WF&#45;BOUND</text>
<text xml:space="preserve" text-anchor="middle" x="1513.88" y="-77.75" font-family="Inter" font-size="10.00" fill="#701a75">nesting ≤ MAX_STACK_DEPTH</text>
</g>
<!-- r9&#45;&gt;r10 -->
<!-- x4 -->
<g id="node15" class="node">
<title>x4</title>
<polygon fill="#fee2e2" stroke="#b91c1c" points="1554.88,-50.5 1466.88,-50.5 1466.88,-14 1560.88,-14 1560.88,-44.5 1554.88,-50.5"/>
<polyline fill="none" stroke="#b91c1c" points="1554.88,-50.5 1554.88,-44.5"/>
<polyline fill="none" stroke="#b91c1c" points="1560.88,-44.5 1554.88,-44.5"/>
<text xml:space="preserve" text-anchor="middle" x="1513.88" y="-37" font-family="Inter" font-size="10.00" fill="#7f1d1d">✗ call C, C ∉ env</text>
<text xml:space="preserve" text-anchor="middle" x="1513.88" y="-22.75" font-family="Inter" font-size="10.00" fill="#7f1d1d">(UnknownCallee)</text>
</g>
<!-- r9&#45;&gt;x4 -->
<g id="edge15" class="edge">
<title>r9&#45;&gt;x4</title>
<path fill="none" stroke="#dc2626" d="M1382.79,-72.22C1406.53,-64.93 1435.11,-56.15 1459.42,-48.67"/>
<polygon fill="#dc2626" stroke="#dc2626" points="1459.92,-50.72 1465.04,-46.95 1458.69,-46.7 1459.92,-50.72"/>
</g>
<!-- ok -->
<g id="node16" class="node">
<title>ok</title>
<path fill="#dcfce7" stroke="#15803d" d="M1752.75,-105.5C1752.75,-105.5 1638.5,-105.5 1638.5,-105.5 1632.5,-105.5 1626.5,-99.5 1626.5,-93.5 1626.5,-93.5 1626.5,-81 1626.5,-81 1626.5,-75 1632.5,-69 1638.5,-69 1638.5,-69 1752.75,-69 1752.75,-69 1758.75,-69 1764.75,-75 1764.75,-81 1764.75,-81 1764.75,-93.5 1764.75,-93.5 1764.75,-99.5 1758.75,-105.5 1752.75,-105.5"/>
<text xml:space="preserve" text-anchor="middle" x="1695.62" y="-92" font-family="Inter" font-size="10.00" fill="#14532d">well_formed ✓</text>
<text xml:space="preserve" text-anchor="middle" x="1695.62" y="-77.75" font-family="Inter" font-size="10.00" fill="#14532d">(projectable, safe — ch.03)</text>
</g>
<!-- r10&#45;&gt;ok -->
<g id="edge16" class="edge">
<title>r10&#45;&gt;ok</title>
<path fill="none" stroke="#16a34a" d="M1590.84,-87.25C1600.07,-87.25 1609.49,-87.25 1618.72,-87.25"/>
<polygon fill="#16a34a" stroke="#16a34a" points="1618.55,-89.35 1624.55,-87.25 1618.55,-85.15 1618.55,-89.35"/>
</g>
</g>
</svg>
