<svg xmlns="http://www.w3.org/2000/svg" xmlns:xlink="http://www.w3.org/1999/xlink" contentStyleType="text/css" data-diagram-type="DESCRIPTION" height="473px" preserveAspectRatio="none" style="width:891px;height:473px;background:#FFFFFF;" version="1.1" viewBox="0 0 891 473" width="891px" zoomAndPan="magnify"><?plantuml $version$?><defs/><g><g class="title" data-source-line="13"><text fill="#000000" font-family="'Inter'" font-size="14" font-weight="700" lengthAdjust="spacing" textLength="246.483" x="319.2493" y="24.9659">pgmcp architecture quality metrics</text></g><!--entity Imports--><g class="entity" data-qualified-name="Imports" data-source-line="15" id="ent0001"><rect fill="#DBEAFE" height="58.1358" rx="4" ry="4" style="stroke:#334155;stroke-width:0.5;" width="119.2596" x="184.35" y="47.0679"/><text fill="#0F172A" font-family="'Inter'" font-size="14" lengthAdjust="spacing" textLength="88.8997" x="194.35" y="72.0339">Import graph</text><text fill="#0F172A" font-family="'Inter'" font-size="14" lengthAdjust="spacing" textLength="99.2596" x="194.35" y="91.1018">files as vertices</text></g><!--entity Topics--><g class="entity" data-qualified-name="Topics" data-source-line="16" id="ent0002"><rect fill="#FAE8FF" height="58.1358" rx="4" ry="4" style="stroke:#334155;stroke-width:0.5;" width="173.8734" x="546.04" y="47.0679"/><text fill="#0F172A" font-family="'Inter'" font-size="14" lengthAdjust="spacing" textLength="80.5137" x="556.04" y="72.0339">Topic model</text><text fill="#0F172A" font-family="'Inter'" font-size="14" lengthAdjust="spacing" textLength="153.8734" x="556.04" y="91.1018">semantic memberships</text></g><!--entity History--><g class="entity" data-qualified-name="History" data-source-line="17" id="ent0003"><rect fill="#E0F2FE" height="58.1358" rx="4" ry="4" style="stroke:#334155;stroke-width:0.5;" width="123.9916" x="753.99" y="165.1979"/><text fill="#0F172A" font-family="'Inter'" font-size="14" lengthAdjust="spacing" textLength="67.9137" x="763.99" y="190.1639">Git history</text><text fill="#0F172A" font-family="'Inter'" font-size="14" lengthAdjust="spacing" textLength="103.9916" x="763.99" y="209.2318">churn + fix ratio</text></g><!--entity SCC--><g class="entity" data-qualified-name="SCC" data-source-line="19" id="ent0004"><rect fill="#DCFCE7" height="39.0679" rx="4" ry="4" style="stroke:#334155;stroke-width:0.5;" width="145.7335" x="366.11" y="174.7379"/><text fill="#0F172A" font-family="'Inter'" font-size="14" lengthAdjust="spacing" textLength="125.7335" x="376.11" y="199.7039">SCC / cycle analysis</text></g><!--entity Martin--><g class="entity" data-qualified-name="Martin" data-source-line="20" id="ent0005"><rect fill="#DCFCE7" height="58.1358" rx="4" ry="4" style="stroke:#334155;stroke-width:0.5;" width="174.8114" x="156.58" y="165.1979"/><text fill="#0F172A" font-family="'Inter'" font-size="14" lengthAdjust="spacing" textLength="154.8114" x="166.58" y="190.1639">Martin package metrics</text><text fill="#0F172A" font-family="'Inter'" font-size="14" lengthAdjust="spacing" textLength="94.6396" x="166.58" y="209.2318">Ca, Ce, I, A, D*</text></g><!--entity DSM--><g class="entity" data-qualified-name="DSM" data-source-line="21" id="ent0006"><rect fill="#DCFCE7" height="58.1358" rx="4" ry="4" style="stroke:#334155;stroke-width:0.5;" width="193.9634" x="7" y="283.3379"/><text fill="#0F172A" font-family="'Inter'" font-size="14" lengthAdjust="spacing" textLength="142.7014" x="17" y="308.3039">DSM visibility analysis</text><text fill="#0F172A" font-family="'Inter'" font-size="14" lengthAdjust="spacing" textLength="173.9634" x="17" y="327.3718">VFI, VFO, propagation cost</text></g><!--entity TopicDims--><g class="entity" data-qualified-name="TopicDims" data-source-line="22" id="ent0007"><rect fill="#DCFCE7" height="39.0679" rx="4" ry="4" style="stroke:#334155;stroke-width:0.5;" width="171.6334" x="547.16" y="174.7379"/><text fill="#0F172A" font-family="'Inter'" font-size="14" lengthAdjust="spacing" textLength="151.6334" x="557.16" y="199.7039">Separation of concerns</text></g><!--entity ArchScore--><g class="entity" data-qualified-name="ArchScore" data-source-line="24" id="ent0008"><rect fill="#FEF3C7" height="39.0679" rx="4" ry="4" style="stroke:#334155;stroke-width:0.5;" width="150.4235" x="440.77" y="292.8679"/><text fill="#0F172A" font-family="'Inter'" font-size="14" lengthAdjust="spacing" textLength="130.4235" x="450.77" y="317.8339">architecture_quality</text></g><!--entity Violations--><g class="entity" data-qualified-name="Violations" data-source-line="25" id="ent0009"><rect fill="#FEE2E2" height="39.0679" rx="4" ry="4" style="stroke:#334155;stroke-width:0.5;" width="169.0434" x="236.46" y="292.8679"/><text fill="#0F172A" font-family="'Inter'" font-size="14" lengthAdjust="spacing" textLength="149.0434" x="246.46" y="317.8339">architecture_violations</text></g><!--entity Report--><g class="entity" data-qualified-name="Report" data-source-line="26" id="ent0010"><rect fill="#EDE9FE" height="58.1358" rx="4" ry="4" style="stroke:#334155;stroke-width:0.5;" width="137.4875" x="252.24" y="401.4679"/><text fill="#0F172A" font-family="'Inter'" font-size="14" lengthAdjust="spacing" textLength="92.3437" x="262.24" y="426.4339">quality_report</text><text fill="#0F172A" font-family="'Inter'" font-size="14" lengthAdjust="spacing" textLength="117.4875" x="262.24" y="445.5018">Architecture pillar</text></g><!--link Imports to SCC--><g class="link" data-entity-1="ent0001" data-entity-2="ent0004" data-link-type="dependency" data-source-line="28" id="lnk11"><path d="M291.68,105.5379 C327.65,126.9679 371.684,153.1898 403.004,171.8398" fill="none" id="Imports-to-SCC" style="stroke:#334155;stroke-width:1;"/><polygon fill="#334155" points="407.3,174.3979,401.6137,166.3564,403.004,171.8398,397.5206,173.2301,407.3,174.3979" style="stroke:#334155;stroke-width:1;stroke-linejoin:miter;stroke-miterlimit:10;"/></g><!--link Imports to Martin--><g class="link" data-entity-1="ent0001" data-entity-2="ent0005" data-link-type="dependency" data-source-line="29" id="lnk12"><path d="M243.98,105.5379 C243.98,123.5379 243.98,141.7279 243.98,159.7479" fill="none" id="Imports-to-Martin" style="stroke:#334155;stroke-width:1;"/><polygon fill="#334155" points="243.98,164.7479,247.98,155.7479,243.98,159.7479,239.98,155.7479,243.98,164.7479" style="stroke:#334155;stroke-width:1;stroke-linejoin:miter;stroke-miterlimit:10;"/></g><!--link Imports to DSM--><g class="link" data-entity-1="ent0001" data-entity-2="ent0006" data-link-type="dependency" data-source-line="30" id="lnk13"><path d="M197.95,105.6979 C177.01,120.9179 153.69,141.4279 138.98,165.1979 C116.33,201.8279 108.7927,246.9985 105.9727,278.0185" fill="none" id="Imports-to-DSM" style="stroke:#334155;stroke-width:1;"/><polygon fill="#334155" points="105.52,282.9979,110.3184,274.397,105.9727,278.0185,102.3512,273.6727,105.52,282.9979" style="stroke:#334155;stroke-width:1;stroke-linejoin:miter;stroke-miterlimit:10;"/></g><!--link Topics to TopicDims--><g class="link" data-entity-1="ent0002" data-entity-2="ent0007" data-link-type="dependency" data-source-line="31" id="lnk14"><path d="M632.98,105.5379 C632.98,127.0279 632.98,150.9279 632.98,169.5779" fill="none" id="Topics-to-TopicDims" style="stroke:#334155;stroke-width:1;"/><polygon fill="#334155" points="632.98,174.5779,636.98,165.5779,632.98,169.5779,628.98,165.5779,632.98,174.5779" style="stroke:#334155;stroke-width:1;stroke-linejoin:miter;stroke-miterlimit:10;"/></g><!--link History to ArchScore--><g class="link" data-entity-1="ent0003" data-entity-2="ent0008" data-link-type="dependency" data-source-line="32" id="lnk15"><path d="M753.82,219.3279 C697.7,241.0579 620.9128,270.7827 569.3828,290.7327" fill="none" id="History-to-ArchScore" style="stroke:#334155;stroke-width:1;"/><polygon fill="#334155" points="564.72,292.5379,574.5571,293.0188,569.3828,290.7327,571.6688,285.5584,564.72,292.5379" style="stroke:#334155;stroke-width:1;stroke-linejoin:miter;stroke-miterlimit:10;"/></g><!--link SCC to ArchScore--><g class="link" data-entity-1="ent0004" data-entity-2="ent0008" data-link-type="dependency" data-source-line="33" id="lnk16"><path d="M451.52,214.1879 C465.84,235.7779 486.3685,266.7297 500.6785,288.3297" fill="none" id="SCC-to-ArchScore" style="stroke:#334155;stroke-width:1;"/><polygon fill="#334155" points="503.44,292.4979,501.804,282.7859,500.6785,288.3297,495.1348,287.2042,503.44,292.4979" style="stroke:#334155;stroke-width:1;stroke-linejoin:miter;stroke-miterlimit:10;"/></g><!--link Martin to ArchScore--><g class="link" data-entity-1="ent0005" data-entity-2="ent0008" data-link-type="dependency" data-source-line="34" id="lnk17"><path d="M310.87,223.8279 C360.89,245.1879 423.3014,271.8351 466.9014,290.4451" fill="none" id="Martin-to-ArchScore" style="stroke:#334155;stroke-width:1;"/><polygon fill="#334155" points="471.5,292.4079,464.7928,285.1959,466.9014,290.4451,461.6522,292.5537,471.5,292.4079" style="stroke:#334155;stroke-width:1;stroke-linejoin:miter;stroke-miterlimit:10;"/></g><!--link DSM to Report--><g class="link" data-entity-1="ent0006" data-entity-2="ent0010" data-link-type="dependency" data-source-line="35" id="lnk18"><path d="M157.34,341.9679 C190.98,359.9579 229.821,380.7599 263.421,398.7299" fill="none" id="DSM-to-Report" style="stroke:#334155;stroke-width:1;"/><polygon fill="#334155" points="267.83,401.0879,261.7802,393.3162,263.421,398.7299,258.0073,400.3707,267.83,401.0879" style="stroke:#334155;stroke-width:1;stroke-linejoin:miter;stroke-miterlimit:10;"/></g><!--link TopicDims to ArchScore--><g class="link" data-entity-1="ent0007" data-entity-2="ent0008" data-link-type="dependency" data-source-line="36" id="lnk19"><path d="M613.92,214.1879 C592.17,235.7779 560.3386,267.3755 538.5786,288.9755" fill="none" id="TopicDims-to-ArchScore" style="stroke:#334155;stroke-width:1;"/><polygon fill="#334155" points="535.03,292.4979,544.2354,288.9963,538.5786,288.9755,538.5994,283.3186,535.03,292.4979" style="stroke:#334155;stroke-width:1;stroke-linejoin:miter;stroke-miterlimit:10;"/></g><!--link ArchScore to Report--><g class="link" data-entity-1="ent0008" data-entity-2="ent0010" data-link-type="dependency" data-source-line="37" id="lnk20"><path d="M484.22,332.3179 C452.92,350.9579 409.0063,377.1202 373.0763,398.5102" fill="none" id="ArchScore-to-Report" style="stroke:#334155;stroke-width:1;"/><polygon fill="#334155" points="368.78,401.0679,378.5595,399.9011,373.0763,398.5102,374.4672,393.027,368.78,401.0679" style="stroke:#334155;stroke-width:1;stroke-linejoin:miter;stroke-miterlimit:10;"/></g><!--link SCC to Violations--><g class="link" data-entity-1="ent0004" data-entity-2="ent0009" data-link-type="dependency" data-source-line="38" id="lnk21"><path d="M419.76,214.1879 C397.82,235.7779 365.693,267.3901 343.753,288.9901" fill="none" id="SCC-to-Violations" style="stroke:#334155;stroke-width:1;"/><polygon fill="#334155" points="340.19,292.4979,349.4097,289.0343,343.753,288.9901,343.7972,283.3334,340.19,292.4979" style="stroke:#334155;stroke-width:1;stroke-linejoin:miter;stroke-miterlimit:10;"/></g><!--link Martin to Violations--><g class="link" data-entity-1="ent0005" data-entity-2="ent0009" data-link-type="dependency" data-source-line="39" id="lnk22"><path d="M262.82,223.6779 C277.07,245.1679 293.4563,269.8911 305.8263,288.5411" fill="none" id="Martin-to-Violations" style="stroke:#334155;stroke-width:1;"/><polygon fill="#334155" points="308.59,292.7079,306.9488,282.9968,305.8263,288.5411,300.2819,287.4187,308.59,292.7079" style="stroke:#334155;stroke-width:1;stroke-linejoin:miter;stroke-miterlimit:10;"/></g><!--link Violations to Report--><g class="link" data-entity-1="ent0009" data-entity-2="ent0010" data-link-type="dependency" data-source-line="40" id="lnk23"><path d="M320.98,332.3179 C320.98,350.9579 320.98,374.6779 320.98,396.0679" fill="none" id="Violations-to-Report" style="stroke:#334155;stroke-width:1;"/><polygon fill="#334155" points="320.98,401.0679,324.98,392.0679,320.98,396.0679,316.98,392.0679,320.98,401.0679" style="stroke:#334155;stroke-width:1;stroke-linejoin:miter;stroke-miterlimit:10;"/></g><?plantuml-src TLB1Rjim3BtxAuZajgLOcwn8TncG9SYMGpUW6N8oK30oPGkr9OrIqWN3_dsIxIGoqFb6yhr7-JrwOy4Rs1llJGE5OX9U6PrbxaLfYumDx56yb6mEkbYQsZ2CPVib25TXOLwLBa5YxIYP52JnKFkrqVuxDWIZZVR4emInO3QllV1izl7k_ZuPnjUWBck2Fnd05yC5yH0B4BNxtgsycqynz9wwrx8cXeViRvPvvOE8BHjX0LbKoWVb0nFyEc2j_0aQygo4oxBhoj6ciOOzb8osohLKDJb01qTYhmIvKImwZ8DniIUKbD9_6gi4DAQWEjUE6jG-rjJiYLsbR2VGeW9V8Zq4KnF-L-MXKiuRFkLQL0VMy1wa-WsC8QAM_AqRmvXkvJHiJ-dRvH8-W3Y9KA36-kHKjp4EneMGWkOf_X73Rscm8MqiwMn8hfSuWILDO3E1nGHMxrgD7lo6p6hx24Vbr5wrlfutvtgt3WgxzOy9M3OMo_WJ6eHnlbMCl3VajXGleOKQ6T1Q4El4kPLgt8MN4jEKd_kKMzeY3BR2XEp7akHCpF_BEYfJjwkxVRjB6PaqfMdAx5SyCyM3oFKYlJAhwXgvLNbgvo6nWZx5nCu7T7FpEIOpg3kN1wrWKzQVJ2ml7cJdKuZToozcCUjXfqzks8pcnqxtkEpgx11sjIu1drTSxKbt9Dt4lolz7m00?></g></svg>