<svg xmlns="http://www.w3.org/2000/svg" xmlns:xlink="http://www.w3.org/1999/xlink" contentStyleType="text/css" data-diagram-type="DESCRIPTION" height="316px" preserveAspectRatio="none" style="width:701px;height:316px;background:#FFFFFF;" version="1.1" viewBox="0 0 701 316" width="701px" zoomAndPan="magnify"><?plantuml $version$?><defs/><g><g class="title" data-source-line="13"><text fill="#000000" font-family="'Inter'" font-size="14" font-weight="700" lengthAdjust="spacing" textLength="281.4269" x="206.5223" y="24.9659">lock-order cycle as a deadlock candidate</text></g><!--entity F1--><g class="entity" data-qualified-name="F1" data-source-line="15" id="ent0001"><rect fill="#DBEAFE" height="58.1358" rx="4" ry="4" style="stroke:#334155;stroke-width:0.5;" width="114.7936" x="7" y="47.0679"/><text fill="#0F172A" font-family="'Inter'" font-size="14" lengthAdjust="spacing" textLength="63.0837" x="17" y="72.0339">function f</text><text fill="#0F172A" font-family="'Inter'" font-size="14" lengthAdjust="spacing" textLength="94.7936" x="17" y="91.1018">lock(A); lock(B)</text></g><!--entity F2--><g class="entity" data-qualified-name="F2" data-source-line="16" id="ent0002"><rect fill="#DBEAFE" height="58.1358" rx="4" ry="4" style="stroke:#334155;stroke-width:0.5;" width="114.7936" x="7" y="147.0679"/><text fill="#0F172A" font-family="'Inter'" font-size="14" lengthAdjust="spacing" textLength="66.8777" x="17" y="172.0339">function g</text><text fill="#0F172A" font-family="'Inter'" font-size="14" lengthAdjust="spacing" textLength="94.7936" x="17" y="191.1018">lock(B); lock(A)</text></g><!--entity A--><g class="entity" data-qualified-name="A" data-source-line="17" id="ent0003"><rect fill="#FEF3C7" height="39.0679" rx="4" ry="4" style="stroke:#334155;stroke-width:0.5;" width="62.5878" x="182.79" y="187.6079"/><text fill="#0F172A" font-family="'Inter'" font-size="14" lengthAdjust="spacing" textLength="42.5878" x="192.79" y="212.5739">Lock A</text></g><!--entity B--><g class="entity" data-qualified-name="B" data-source-line="18" id="ent0004"><rect fill="#FEF3C7" height="39.0679" rx="4" ry="4" style="stroke:#334155;stroke-width:0.5;" width="62.7418" x="401.38" y="156.6079"/><text fill="#0F172A" font-family="'Inter'" font-size="14" lengthAdjust="spacing" textLength="42.7418" x="411.38" y="181.5739">Lock B</text></g><!--entity SCC--><g class="entity" data-qualified-name="SCC" data-source-line="19" id="ent0005"><rect fill="#FEE2E2" height="58.1358" rx="4" ry="4" style="stroke:#334155;stroke-width:0.5;" width="162.3515" x="525.12" y="244.0679"/><text fill="#0F172A" font-family="'Inter'" font-size="14" lengthAdjust="spacing" textLength="65.0997" x="535.12" y="269.0339">SCC {A, B}</text><text fill="#0F172A" font-family="'Inter'" font-size="14" lengthAdjust="spacing" textLength="142.3515" x="535.12" y="288.1018">potential circular wait</text></g><!--link F1 to A--><g class="link" data-entity-1="ent0001" data-entity-2="ent0003" data-link-type="dependency" data-source-line="21" id="lnk6"><path d="M98.54,105.5379 C126.61,130.4279 162.3394,162.1301 186.8494,183.8701" fill="none" id="F1-to-A" style="stroke:#334155;stroke-width:1;"/><polygon fill="#334155" points="190.59,187.1879,186.5112,178.2233,186.8494,183.8701,181.2027,184.2083,190.59,187.1879" style="stroke:#334155;stroke-width:1;stroke-linejoin:miter;stroke-miterlimit:10;"/></g><!--link F1 to B--><g class="link" data-entity-1="ent0001" data-entity-2="ent0004" data-link-type="dependency" data-source-line="22" id="lnk7"><path d="M122.2,77.7779 C185.49,81.4279 289.66,92.9879 371.38,129.1379 C386.08,135.6379 396.6111,143.2008 407.6011,152.8408" fill="none" id="F1-to-B" style="stroke:#334155;stroke-width:1;"/><polygon fill="#334155" points="411.36,156.1379,407.2318,147.196,407.6011,152.8408,401.9564,153.2102,411.36,156.1379" style="stroke:#334155;stroke-width:1;stroke-linejoin:miter;stroke-miterlimit:10;"/></g><!--link F2 to B--><g class="link" data-entity-1="ent0002" data-entity-2="ent0004" data-link-type="dependency" data-source-line="23" id="lnk8"><path d="M122.09,165.9579 C183.74,156.4679 285.02,145.5379 371.38,158.1379 C381.23,159.5779 386.9171,160.8107 396.3371,163.6807" fill="none" id="F2-to-B" style="stroke:#334155;stroke-width:1;"/><polygon fill="#334155" points="401.12,165.1379,393.6765,158.6886,396.3371,163.6807,391.3449,166.3413,401.12,165.1379" style="stroke:#334155;stroke-width:1;stroke-linejoin:miter;stroke-miterlimit:10;"/></g><!--link F2 to A--><g class="link" data-entity-1="ent0002" data-entity-2="ent0003" data-link-type="dependency" data-source-line="24" id="lnk9"><path d="M122.08,188.0379 C142.57,192.3379 160.0467,196.0104 177.4767,199.6704" fill="none" id="F2-to-A" style="stroke:#334155;stroke-width:1;"/><polygon fill="#334155" points="182.37,200.6979,174.3841,194.9338,177.4767,199.6704,172.7401,202.763,182.37,200.6979" style="stroke:#334155;stroke-width:1;stroke-linejoin:miter;stroke-miterlimit:10;"/></g><!--link A to B--><g class="link" data-entity-1="ent0003" data-entity-2="ent0004" data-link-type="dependency" data-source-line="25" id="lnk10"><path d="M245.67,202.7679 C286.85,196.8679 354.7503,187.1555 396.0203,181.2555" fill="none" id="A-to-B" style="stroke:#334155;stroke-width:1;"/><polygon fill="#334155" points="400.97,180.5479,391.4945,177.8619,396.0203,181.2555,392.6267,185.7814,400.97,180.5479" style="stroke:#334155;stroke-width:1;stroke-linejoin:miter;stroke-miterlimit:10;"/><text fill="#000000" font-family="'Inter'" font-size="13" lengthAdjust="spacing" textLength="94.0291" x="276.38" y="181.1949">observed order</text></g><!--link B to A--><g class="link" data-entity-1="ent0004" data-entity-2="ent0003" data-link-type="dependency" data-source-line="26" id="lnk11"><path d="M414.04,196.0579 C402.99,206.9179 387.79,219.3179 371.38,225.1379 C329.55,239.9779 282.6164,230.2383 250.4264,220.0383" fill="none" id="B-to-A" style="stroke:#334155;stroke-width:1;"/><polygon fill="#334155" points="245.66,218.5279,253.0313,225.0597,250.4264,220.0383,255.4478,217.4334,245.66,218.5279" style="stroke:#334155;stroke-width:1;stroke-linejoin:miter;stroke-miterlimit:10;"/><text fill="#000000" font-family="'Inter'" font-size="13" lengthAdjust="spacing" textLength="94.0291" x="276.38" y="221.0349">observed order</text></g><!--link A to SCC--><g class="link" data-entity-1="ent0003" data-entity-2="ent0005" data-link-type="dependency" data-source-line="27" id="lnk12"><path d="M245.63,226.9379 C254.86,232.0579 265.24,236.9979 275.38,240.1379 C357.86,265.6779 451.961,272.5171 519.871,273.8871" fill="none" id="A-to-SCC" style="stroke:#334155;stroke-width:1;"/><polygon fill="#334155" points="524.87,273.9879,515.9525,269.8072,519.871,273.8871,515.7912,277.8056,524.87,273.9879" style="stroke:#334155;stroke-width:1;stroke-linejoin:miter;stroke-miterlimit:10;"/></g><!--link B to SCC--><g class="link" data-entity-1="ent0004" data-entity-2="ent0005" data-link-type="dependency" data-source-line="28" id="lnk13"><path d="M464.42,193.4779 C489,207.3779 519.6878,224.7265 548.6678,241.1165" fill="none" id="B-to-SCC" style="stroke:#334155;stroke-width:1;"/><polygon fill="#334155" points="553.02,243.5779,547.1552,235.6656,548.6678,241.1165,543.217,242.6291,553.02,243.5779" style="stroke:#334155;stroke-width:1;stroke-linejoin:miter;stroke-miterlimit:10;"/></g><?plantuml-src RL1DQm8n4BtdLmphHQ52NIkM5Wg981HA3-tLovXCrc1C99kj5F6_DnjNkg8v3UzhNiQIZX0z15Dj8YWJI4RZ7MFrrhWz1jp16kMs2hvnQk6j3p3G-VKKzGQLFnXNWKPRKuzHfB6nSUbT_CGTGV7k8eMYf-0X-4CNF9q-JMQp7jcsGLTPWYC343ue2jTQW3QxmnxrP5vYmhxEROEZ0C_in5WqCOLOBxVZ70BoLoO0Qy3K4LNBW4IdZC98ZFqlBdJZyab0hrmh6_BHQquQYb7H9YmdC51hGartRLLd4nSRxspbFTj7MuHd0K-N9ZsLynjUP5xSuxyN2pZo1n2dbTlxI2uQj21Da8t500SqCPjRNR9JIILZwGVZyHlmoo1OAdSrSCRF0Bo0NzSKVaX1lYGJPy4jSNQaHPqaJNy0?></g></svg>