<svg xmlns="http://www.w3.org/2000/svg" xmlns:xlink="http://www.w3.org/1999/xlink" contentStyleType="text/css" data-diagram-type="DESCRIPTION" height="376px" preserveAspectRatio="none" style="width:1955px;height:376px;background:#FFFFFF;" version="1.1" viewBox="0 0 1955 376" width="1955px" zoomAndPan="magnify"><?plantuml $version$?><defs/><g><g class="title" data-source-line="13"><text fill="#000000" font-family="'Inter'" font-size="14" font-weight="700" lengthAdjust="spacing" textLength="208.9072" x="870.0021" y="24.9659">pgmcp quality metric pipeline</text></g><!--entity Files--><g class="entity" data-qualified-name="Files" data-source-line="15" id="ent0001"><rect fill="#DBEAFE" height="58.1358" rx="4" ry="4" style="stroke:#334155;stroke-width:0.5;" width="215.0612" x="7" y="211.0679"/><text fill="#0F172A" font-family="'Inter'" font-size="14" lengthAdjust="spacing" textLength="84.0977" x="17" y="236.0339">Indexed files</text><text fill="#0F172A" font-family="'Inter'" font-size="14" lengthAdjust="spacing" textLength="195.0612" x="17" y="255.1018">path, language, lines, content</text></g><!--entity Symbols--><g class="entity" data-qualified-name="Symbols" data-source-line="16" id="ent0002"><rect fill="#DBEAFE" height="58.1358" rx="4" ry="4" style="stroke:#334155;stroke-width:0.5;" width="219.4992" x="282.06" y="211.0679"/><text fill="#0F172A" font-family="'Inter'" font-size="14" lengthAdjust="spacing" textLength="80.4857" x="292.06" y="236.0339">file_symbols</text><text fill="#0F172A" font-family="'Inter'" font-size="14" lengthAdjust="spacing" textLength="199.4992" x="292.06" y="255.1018">definitions, signatures, ranges</text></g><!--entity Refs--><g class="entity" data-qualified-name="Refs" data-source-line="17" id="ent0003"><rect fill="#DBEAFE" height="58.1358" rx="4" ry="4" style="stroke:#334155;stroke-width:0.5;" width="176.9114" x="561.56" y="170.0679"/><text fill="#0F172A" font-family="'Inter'" font-size="14" lengthAdjust="spacing" textLength="123.8855" x="571.56" y="195.0339">symbol_references</text><text fill="#0F172A" font-family="'Inter'" font-size="14" lengthAdjust="spacing" textLength="156.9114" x="571.56" y="214.1018">calls, imports, type uses</text></g><!--entity Chunks--><g class="entity" data-qualified-name="Chunks" data-source-line="18" id="ent0004"><rect fill="#DBEAFE" height="58.1358" rx="4" ry="4" style="stroke:#334155;stroke-width:0.5;" width="147.4695" x="1175.17" y="47.0679"/><text fill="#0F172A" font-family="'Inter'" font-size="14" lengthAdjust="spacing" textLength="127.4695" x="1185.17" y="72.0339">file_chunks + topics</text><text fill="#0F172A" font-family="'Inter'" font-size="14" lengthAdjust="spacing" textLength="123.1015" x="1185.17" y="91.1018">FCM memberships</text></g><!--entity Git--><g class="entity" data-qualified-name="Git" data-source-line="19" id="ent0005"><rect fill="#DBEAFE" height="58.1358" rx="4" ry="4" style="stroke:#334155;stroke-width:0.5;" width="238.7912" x="807.64" y="222.0679"/><text fill="#0F172A" font-family="'Inter'" font-size="14" lengthAdjust="spacing" textLength="66.3318" x="817.64" y="247.0339">git history</text><text fill="#0F172A" font-family="'Inter'" font-size="14" lengthAdjust="spacing" textLength="218.7912" x="817.64" y="266.1018">commits, authors, fix ratio, churn</text></g><!--entity Graph--><g class="entity" data-qualified-name="Graph" data-source-line="21" id="ent0006"><rect fill="#DCFCE7" height="58.1358" rx="4" ry="4" style="stroke:#334155;stroke-width:0.5;" width="257.1311" x="798.47" y="129.0679"/><text fill="#0F172A" font-family="'Inter'" font-size="14" lengthAdjust="spacing" textLength="123.3535" x="808.47" y="154.0339">code_graph_edges</text><text fill="#0F172A" font-family="'Inter'" font-size="14" lengthAdjust="spacing" textLength="237.1311" x="808.47" y="173.1018">imports, co-change, semantic edges</text></g><!--entity FileMetrics--><g class="entity" data-qualified-name="FileMetrics" data-source-line="22" id="ent0007"><rect fill="#DCFCE7" height="58.1358" rx="4" ry="4" style="stroke:#334155;stroke-width:0.5;" width="266.609" x="1115.6" y="211.0679"/><text fill="#0F172A" font-family="'Inter'" font-size="14" lengthAdjust="spacing" textLength="75.0117" x="1125.6" y="236.0339">file_metrics</text><text fill="#0F172A" font-family="'Inter'" font-size="14" lengthAdjust="spacing" textLength="246.609" x="1125.6" y="255.1018">PageRank, coupling, instability, churn</text></g><!--entity FnMetrics--><g class="entity" data-qualified-name="FnMetrics" data-source-line="23" id="ent0008"><rect fill="#DCFCE7" height="58.1358" rx="4" ry="4" style="stroke:#334155;stroke-width:0.5;" width="243.0751" x="1127.37" y="304.0679"/><text fill="#0F172A" font-family="'Inter'" font-size="14" lengthAdjust="spacing" textLength="109.7036" x="1137.37" y="329.0339">function_metrics</text><text fill="#0F172A" font-family="'Inter'" font-size="14" lengthAdjust="spacing" textLength="223.0751" x="1137.37" y="348.1018">CC, cognitive, Halstead, NPath, MI</text></g><!--entity Scorecards--><g class="entity" data-qualified-name="Scorecards" data-source-line="25" id="ent0009"><rect fill="#FEF3C7" height="58.1358" rx="4" ry="4" style="stroke:#334155;stroke-width:0.5;" width="194.8313" x="1465.65" y="211.0679"/><text fill="#0F172A" font-family="'Inter'" font-size="14" lengthAdjust="spacing" textLength="72.2257" x="1475.65" y="236.0339">Scorecards</text><text fill="#0F172A" font-family="'Inter'" font-size="14" lengthAdjust="spacing" textLength="174.8313" x="1475.65" y="255.1018">engineering + architecture</text></g><!--entity Design--><g class="entity" data-qualified-name="Design" data-source-line="26" id="ent0010"><rect fill="#FEF3C7" height="58.1358" rx="4" ry="4" style="stroke:#334155;stroke-width:0.5;" width="181.2374" x="1472.45" y="304.0679"/><text fill="#0F172A" font-family="'Inter'" font-size="14" lengthAdjust="spacing" textLength="98.1956" x="1482.45" y="329.0339">Design metrics</text><text fill="#0F172A" font-family="'Inter'" font-size="14" lengthAdjust="spacing" textLength="161.2374" x="1482.45" y="348.1018">per file/module/function</text></g><!--entity Collectors--><g class="entity" data-qualified-name="Collectors" data-source-line="27" id="ent0011"><rect fill="#FEE2E2" height="58.1358" rx="4" ry="4" style="stroke:#334155;stroke-width:0.5;" width="241.7171" x="1442.21" y="118.0679"/><text fill="#0F172A" font-family="'Inter'" font-size="14" lengthAdjust="spacing" textLength="115.6956" x="1452.21" y="143.0339">Finding collectors</text><text fill="#0F172A" font-family="'Inter'" font-size="14" lengthAdjust="spacing" textLength="221.7171" x="1452.21" y="162.1018">code health, graph, tests, security</text></g><!--entity Report--><g class="entity" data-qualified-name="Report" data-source-line="28" id="ent0012"><rect fill="#EDE9FE" height="58.1358" rx="4" ry="4" style="stroke:#334155;stroke-width:0.5;" width="197.9813" x="1743.93" y="165.0679"/><text fill="#0F172A" font-family="'Inter'" font-size="14" lengthAdjust="spacing" textLength="92.3437" x="1753.93" y="190.0339">quality_report</text><text fill="#0F172A" font-family="'Inter'" font-size="14" lengthAdjust="spacing" textLength="177.9813" x="1753.93" y="209.1018">3 pillars + findings + trends</text></g><!--link Files to Symbols--><g class="link" data-entity-1="ent0001" data-entity-2="ent0002" data-link-type="dependency" data-source-line="30" id="lnk13"><path d="M222.36,240.1379 C241.85,240.1379 257.22,240.1379 276.78,240.1379" fill="none" id="Files-to-Symbols" style="stroke:#334155;stroke-width:1;"/><polygon fill="#334155" points="281.78,240.1379,272.78,236.1379,276.78,240.1379,272.78,244.1379,281.78,240.1379" style="stroke:#334155;stroke-width:1;stroke-linejoin:miter;stroke-miterlimit:10;"/></g><!--link Files to Chunks--><g class="link" data-entity-1="ent0001" data-entity-2="ent0004" data-link-type="dependency" data-source-line="31" id="lnk14"><path d="M212.79,210.6179 C235.4,204.3379 259.47,198.1079 282.06,193.1379 C509.04,143.2679 567.69,138.4079 798.47,111.1379 C930.79,95.5079 1080.8984,85.4771 1169.9584,80.3171" fill="none" id="Files-to-Chunks" style="stroke:#334155;stroke-width:1;"/><polygon fill="#334155" points="1174.95,80.0279,1165.7337,76.5552,1169.9584,80.3171,1166.1964,84.5418,1174.95,80.0279" style="stroke:#334155;stroke-width:1;stroke-linejoin:miter;stroke-miterlimit:10;"/></g><!--link Symbols to Refs--><g class="link" data-entity-1="ent0002" data-entity-2="ent0003" data-link-type="dependency" data-source-line="32" id="lnk15"><path d="M501.84,222.6879 C521.72,219.5079 537.2929,217.0186 556.4629,213.9486" fill="none" id="Symbols-to-Refs" style="stroke:#334155;stroke-width:1;"/><polygon fill="#334155" points="561.4,213.1579,551.8807,210.6314,556.4629,213.9486,553.1458,218.5308,561.4,213.1579" style="stroke:#334155;stroke-width:1;stroke-linejoin:miter;stroke-miterlimit:10;"/></g><!--link Refs to Graph--><g class="link" data-entity-1="ent0003" data-entity-2="ent0006" data-link-type="dependency" data-source-line="33" id="lnk16"><path d="M738.79,186.0579 C757.65,183.2379 773.0147,180.9558 793.0547,177.9658" fill="none" id="Refs-to-Graph" style="stroke:#334155;stroke-width:1;"/><polygon fill="#334155" points="798,177.2279,788.5083,174.5998,793.0547,177.9658,789.6888,182.5122,798,177.2279" style="stroke:#334155;stroke-width:1;stroke-linejoin:miter;stroke-miterlimit:10;"/></g><!--link Git to FileMetrics--><g class="link" data-entity-1="ent0005" data-entity-2="ent0007" data-link-type="dependency" data-source-line="34" id="lnk17"><path d="M1046.69,247.0579 C1069,246.2879 1087.4729,245.6595 1110.1829,244.8795" fill="none" id="Git-to-FileMetrics" style="stroke:#334155;stroke-width:1;"/><polygon fill="#334155" points="1115.18,244.7079,1106.048,241.0192,1110.1829,244.8795,1106.3226,249.0145,1115.18,244.7079" style="stroke:#334155;stroke-width:1;stroke-linejoin:miter;stroke-miterlimit:10;"/></g><!--link Graph to FileMetrics--><g class="link" data-entity-1="ent0006" data-entity-2="ent0007" data-link-type="dependency" data-source-line="35" id="lnk18"><path d="M1043.07,187.6279 C1072.26,195.1079 1098.7864,201.9172 1127.9864,209.3972" fill="none" id="Graph-to-FileMetrics" style="stroke:#334155;stroke-width:1;"/><polygon fill="#334155" points="1132.83,210.6379,1125.1041,204.5297,1127.9864,209.3972,1123.1189,212.2794,1132.83,210.6379" style="stroke:#334155;stroke-width:1;stroke-linejoin:miter;stroke-miterlimit:10;"/></g><!--link Symbols to FnMetrics--><g class="link" data-entity-1="ent0002" data-entity-2="ent0008" data-link-type="dependency" data-source-line="36" id="lnk19"><path d="M501.9,257.6779 C583.43,270.3079 697.7,287.0279 798.47,298.1379 C909.52,310.3879 1031.4809,319.528 1122.0709,325.518" fill="none" id="Symbols-to-FnMetrics" style="stroke:#334155;stroke-width:1;"/><polygon fill="#334155" points="1127.06,325.8479,1118.3435,321.2628,1122.0709,325.518,1117.8157,329.2454,1127.06,325.8479" style="stroke:#334155;stroke-width:1;stroke-linejoin:miter;stroke-miterlimit:10;"/></g><!--link Files to FnMetrics--><g class="link" data-entity-1="ent0001" data-entity-2="ent0008" data-link-type="dependency" data-source-line="37" id="lnk20"><path d="M207.71,269.6279 C231.7,276.3379 257.67,282.7679 282.06,287.1379 C582.39,340.9079 938.1113,341.6312 1122.0813,337.4612" fill="none" id="Files-to-FnMetrics" style="stroke:#334155;stroke-width:1;"/><polygon fill="#334155" points="1127.08,337.3479,1117.9917,333.5529,1122.0813,337.4612,1118.173,341.5508,1127.08,337.3479" style="stroke:#334155;stroke-width:1;stroke-linejoin:miter;stroke-miterlimit:10;"/></g><!--link Chunks to Scorecards--><g class="link" data-entity-1="ent0004" data-entity-2="ent0009" data-link-type="dependency" data-source-line="38" id="lnk21"><path d="M1292.9,105.6979 C1331.04,131.1379 1388.82,167.7879 1442.21,194.1379 C1454,199.9579 1462.1004,203.6493 1474.7004,208.7893" fill="none" id="Chunks-to-Scorecards" style="stroke:#334155;stroke-width:1;"/><polygon fill="#334155" points="1479.33,210.6779,1472.5076,203.5748,1474.7004,208.7893,1469.4858,210.9821,1479.33,210.6779" style="stroke:#334155;stroke-width:1;stroke-linejoin:miter;stroke-miterlimit:10;"/></g><!--link FileMetrics to Scorecards--><g class="link" data-entity-1="ent0007" data-entity-2="ent0009" data-link-type="dependency" data-source-line="39" id="lnk22"><path d="M1382.29,240.1379 C1410.21,240.1379 1434.16,240.1379 1460.46,240.1379" fill="none" id="FileMetrics-to-Scorecards" style="stroke:#334155;stroke-width:1;"/><polygon fill="#334155" points="1465.46,240.1379,1456.46,236.1379,1460.46,240.1379,1456.46,244.1379,1465.46,240.1379" style="stroke:#334155;stroke-width:1;stroke-linejoin:miter;stroke-miterlimit:10;"/></g><!--link FnMetrics to Scorecards--><g class="link" data-entity-1="ent0008" data-entity-2="ent0009" data-link-type="dependency" data-source-line="40" id="lnk23"><path d="M1349.11,303.5879 C1386.24,292.5279 1423.5583,281.406 1460.4683,270.406" fill="none" id="FnMetrics-to-Scorecards" style="stroke:#334155;stroke-width:1;"/><polygon fill="#334155" points="1465.26,268.9779,1455.4924,267.715,1460.4683,270.406,1457.7773,275.3818,1465.26,268.9779" style="stroke:#334155;stroke-width:1;stroke-linejoin:miter;stroke-miterlimit:10;"/></g><!--link FileMetrics to Design--><g class="link" data-entity-1="ent0007" data-entity-2="ent0010" data-link-type="dependency" data-source-line="41" id="lnk24"><path d="M1349.11,269.6979 C1388.56,281.4479 1428.8379,293.4511 1467.3279,304.9111" fill="none" id="FileMetrics-to-Design" style="stroke:#334155;stroke-width:1;"/><polygon fill="#334155" points="1472.12,306.3379,1464.6357,299.936,1467.3279,304.9111,1462.3528,307.6034,1472.12,306.3379" style="stroke:#334155;stroke-width:1;stroke-linejoin:miter;stroke-miterlimit:10;"/></g><!--link FnMetrics to Design--><g class="link" data-entity-1="ent0008" data-entity-2="ent0010" data-link-type="dependency" data-source-line="42" id="lnk25"><path d="M1370.6,333.1379 C1404.4,333.1379 1435.53,333.1379 1467.2,333.1379" fill="none" id="FnMetrics-to-Design" style="stroke:#334155;stroke-width:1;"/><polygon fill="#334155" points="1472.2,333.1379,1463.2,329.1379,1467.2,333.1379,1463.2,337.1379,1472.2,333.1379" style="stroke:#334155;stroke-width:1;stroke-linejoin:miter;stroke-miterlimit:10;"/></g><!--link FileMetrics to Collectors--><g class="link" data-entity-1="ent0007" data-entity-2="ent0011" data-link-type="dependency" data-source-line="43" id="lnk26"><path d="M1349.11,210.5879 C1385.44,199.7579 1421.738,188.9451 1458.068,178.1251" fill="none" id="FileMetrics-to-Collectors" style="stroke:#334155;stroke-width:1;"/><polygon fill="#334155" points="1462.86,176.6979,1453.0927,175.4332,1458.068,178.1251,1455.3762,183.1004,1462.86,176.6979" style="stroke:#334155;stroke-width:1;stroke-linejoin:miter;stroke-miterlimit:10;"/></g><!--link FnMetrics to Collectors--><g class="link" data-entity-1="ent0008" data-entity-2="ent0011" data-link-type="dependency" data-source-line="44" id="lnk27"><path d="M1355.9,303.7179 C1365.25,298.9679 1374.2,293.4679 1382.21,287.1379 C1421.1,256.4179 1403.82,224.4779 1442.21,193.1379 C1449.9,186.8679 1454.112,183.7292 1463.132,178.9492" fill="none" id="FnMetrics-to-Collectors" style="stroke:#334155;stroke-width:1;"/><polygon fill="#334155" points="1467.55,176.6079,1457.7246,177.2878,1463.132,178.9492,1461.4706,184.3565,1467.55,176.6079" style="stroke:#334155;stroke-width:1;stroke-linejoin:miter;stroke-miterlimit:10;"/></g><!--link Chunks to Collectors--><g class="link" data-entity-1="ent0004" data-entity-2="ent0011" data-link-type="dependency" data-source-line="45" id="lnk28"><path d="M1323.1,92.7879 C1358.51,100.8379 1397.0647,109.6083 1437.1347,118.7283" fill="none" id="Chunks-to-Collectors" style="stroke:#334155;stroke-width:1;"/><polygon fill="#334155" points="1442.01,119.8379,1434.1221,113.9403,1437.1347,118.7283,1432.3467,121.7408,1442.01,119.8379" style="stroke:#334155;stroke-width:1;stroke-linejoin:miter;stroke-miterlimit:10;"/></g><!--link Graph to Collectors--><g class="link" data-entity-1="ent0006" data-entity-2="ent0011" data-link-type="dependency" data-source-line="46" id="lnk29"><path d="M1055.96,155.9179 C1168.64,153.9679 1326.5507,151.2245 1436.8607,149.3145" fill="none" id="Graph-to-Collectors" style="stroke:#334155;stroke-width:1;"/><polygon fill="#334155" points="1441.86,149.2279,1432.7921,145.3843,1436.8607,149.3145,1432.9306,153.3831,1441.86,149.2279" style="stroke:#334155;stroke-width:1;stroke-linejoin:miter;stroke-miterlimit:10;"/></g><!--link Scorecards to Report--><g class="link" data-entity-1="ent0009" data-entity-2="ent0012" data-link-type="dependency" data-source-line="47" id="lnk30"><path d="M1660.86,224.1179 C1687.64,219.6779 1711.7972,215.6849 1738.6672,211.2349" fill="none" id="Scorecards-to-Report" style="stroke:#334155;stroke-width:1;"/><polygon fill="#334155" points="1743.6,210.4179,1734.0674,207.9421,1738.6672,211.2349,1735.3745,215.8346,1743.6,210.4179" style="stroke:#334155;stroke-width:1;stroke-linejoin:miter;stroke-miterlimit:10;"/></g><!--link Collectors to Report--><g class="link" data-entity-1="ent0011" data-entity-2="ent0012" data-link-type="dependency" data-source-line="48" id="lnk31"><path d="M1684.32,167.4779 C1704.12,170.8279 1719.5098,173.4351 1738.6898,176.6751" fill="none" id="Collectors-to-Report" style="stroke:#334155;stroke-width:1;"/><polygon fill="#334155" points="1743.62,177.5079,1735.412,172.0647,1738.6898,176.6751,1734.0795,179.9529,1743.62,177.5079" style="stroke:#334155;stroke-width:1;stroke-linejoin:miter;stroke-miterlimit:10;"/></g><?plantuml-src TPDDRzim38Rl_XL4UsoBhSsARfS1MuPiFRGekck1G95eMuWiUPIyDXZstqTQ-L2zD9TO5FM8ullIOPqW1I3Rj0cC9TJ91bzLSMrzhqXri59wtL0Ol9a75mXEw_5NPCHMcV1iVGErSX6B7OEr6bnQ19_kLOTmSkiJqacHyOKeF6_1izc7o-lhObEgKRvn27ygWA-13DBhN01XRsFlwykRAyMnnrmjUIJuMFsjgcGJG_gcqpty6fIpQGCT9h8QUjkZinwhwd0Rbsdm1GtKrc5yucfIUmwEDmVL87znVZm7pLUZJoUW8Yma4qxD2bMD9KeGoxZfLi4nYHjYlPKMy_be6w_IGC8YJiSuedxcv6Emp5aIraZejTIcbNDytdPzeCGVQTCZ377BUiJwxQfqE_XrX3CsG6yrinRpEsvBjqAAhUqpOPwJZZ0Qcw2rCGNQS1cXwwpShuRK1kAFshxmg_YftAXs83_IllEP7QfawM1msP3gsoMQHjwrVv0E5xgLxd33i5C-iMXZJWRA6KRgMkFDVo_C6ZFjWNLxL7ujkA5d_HfkcOz9hQoOeInHbBpBvuvo1p-Eo84zdmkr4Lb_Sv4_U0OIAdCEzm-ZR-vkCzTFgINsfmwyKcGOYBvXWo79H9s18jtQn9bibEoFVIhF8jOp_Qg-RoYsWdrrFS-0zE9T5yp0VxlwHzGs-GXcORsH-tLmZgEig6Xi45fKJburYiLsmoWYHTG3SIEpPVPdX8nNU5MIj_F79XQ1d_oCHz0vHMB4EjywUf8DRdOcbamuHOEVn3TvrYukFkz6fOXakrQx6PAGp40r3eAiHiDKuaDP5M9NsKhJQ4dQIrXSU8Xj9sMiQozHLTffkkNVsfYSoJ9DydV1IUwX-PFyOgEej8WUtby42xFbNeeKLQ7m8VeF?></g></svg>