<?xml version="1.0" encoding="UTF-8" standalone="no"?>
<!DOCTYPE svg PUBLIC "-//W3C//DTD SVG 1.1//EN"
 "http://www.w3.org/Graphics/SVG/1.1/DTD/svg11.dtd">
<!-- Generated by graphviz version 14.1.5 (0)
 -->
<!-- Title: addr_representations Pages: 1 -->
<svg width="560pt" height="233pt"
 viewBox="0.00 0.00 560.00 233.00" xmlns="http://www.w3.org/2000/svg" xmlns:xlink="http://www.w3.org/1999/xlink">
<g id="graph0" class="graph" transform="scale(1 1) rotate(0) translate(4 229.38)">
<title>addr_representations</title>
<!-- pa -->
<g id="node1" class="node">
<title>pa</title>
<path fill="#ccfbf1" stroke="#0f766e" d="M209.5,-165.63C209.5,-165.63 12,-165.63 12,-165.63 6,-165.63 0,-159.63 0,-153.63 0,-153.63 0,-141.63 0,-141.63 0,-135.63 6,-129.63 12,-129.63 12,-129.63 209.5,-129.63 209.5,-129.63 215.5,-129.63 221.5,-135.63 221.5,-141.63 221.5,-141.63 221.5,-153.63 221.5,-153.63 221.5,-159.63 215.5,-165.63 209.5,-165.63"/>
<text xml:space="preserve" text-anchor="middle" x="110.75" y="-144.86" font-family="Inter" font-size="12.00">PageAddress::Chunk { chunk_id: 42 }</text>
</g>
<!-- key -->
<g id="node2" class="node">
<title>key</title>
<polygon fill="#e0e7ff" stroke="#3730a3" points="542.75,-225.38 352,-225.38 352,-185.88 548.75,-185.88 548.75,-219.38 542.75,-225.38"/>
<polyline fill="none" stroke="#3730a3" points="542.75,-225.38 542.75,-219.38"/>
<polyline fill="none" stroke="#3730a3" points="548.75,-219.38 542.75,-219.38"/>
<text xml:space="preserve" text-anchor="middle" x="450.38" y="-210.93" font-family="Inter" font-size="11.00">to_key() &#160;→ &#160;[0x01] ⧺ enc_i64(42)</text>
<text xml:space="preserve" text-anchor="middle" x="450.38" y="-195.18" font-family="Inter" font-size="11.00">order&#45;preserving PathMap byte key</text>
</g>
<!-- pa&#45;&gt;key -->
<g id="edge1" class="edge">
<title>pa&#45;&gt;key</title>
<path fill="none" stroke="#475569" d="M219.04,-166.06C257.7,-172.7 301.35,-180.2 340.18,-186.87"/>
<polygon fill="#475569" stroke="#475569" points="339.59,-190.32 350.03,-188.56 340.77,-183.42 339.59,-190.32"/>
<text xml:space="preserve" text-anchor="middle" x="285.25" y="-189.96" font-family="Inter" font-size="10.00">positional axis (slice)</text>
</g>
<!-- path -->
<g id="node3" class="node">
<title>path</title>
<polygon fill="#fef3c7" stroke="#b45309" points="545.75,-167.38 349,-167.38 349,-127.88 551.75,-127.88 551.75,-161.38 545.75,-167.38"/>
<polyline fill="none" stroke="#b45309" points="545.75,-167.38 545.75,-161.38"/>
<polyline fill="none" stroke="#b45309" points="551.75,-161.38 545.75,-161.38"/>
<text xml:space="preserve" text-anchor="middle" x="450.38" y="-152.93" font-family="Inter" font-size="11.00">to_path() &#160;→ &#160;&quot;corpus/chunk/42&quot;</text>
<text xml:space="preserve" text-anchor="middle" x="450.38" y="-137.18" font-family="Inter" font-size="11.00">human path &#160;(= the PageAddr string)</text>
</g>
<!-- pa&#45;&gt;path -->
<g id="edge2" class="edge">
<title>pa&#45;&gt;path</title>
<path fill="none" stroke="#475569" d="M221.83,-147.63C258.81,-147.63 300.07,-147.63 337.2,-147.63"/>
<polygon fill="#475569" stroke="#475569" points="337.07,-151.13 347.07,-147.63 337.07,-144.13 337.07,-151.13"/>
<text xml:space="preserve" text-anchor="middle" x="285.25" y="-152.38" font-family="Inter" font-size="10.00">path / prefix axis</text>
</g>
<!-- nid -->
<g id="node4" class="node">
<title>nid</title>
<polygon fill="#e2e8f0" stroke="#334155" points="513.88,-109.38 380.88,-109.38 380.88,-69.88 519.88,-69.88 519.88,-103.38 513.88,-109.38"/>
<polyline fill="none" stroke="#334155" points="513.88,-109.38 513.88,-103.38"/>
<polyline fill="none" stroke="#334155" points="519.88,-103.38 513.88,-103.38"/>
<text xml:space="preserve" text-anchor="middle" x="450.38" y="-94.93" font-family="Inter" font-size="11.00">node_id() &#160;→ &#160;&quot;chunk:42&quot;</text>
<text xml:space="preserve" text-anchor="middle" x="450.38" y="-79.18" font-family="Inter" font-size="11.00">unified&#45;graph node</text>
</g>
<!-- pa&#45;&gt;nid -->
<g id="edge3" class="edge">
<title>pa&#45;&gt;nid</title>
<path fill="none" stroke="#475569" d="M219.04,-129.2C267.72,-120.84 324.32,-111.11 369.22,-103.4"/>
<polygon fill="#475569" stroke="#475569" points="369.62,-106.88 378.88,-101.74 368.44,-99.98 369.62,-106.88"/>
<text xml:space="preserve" text-anchor="middle" x="285.25" y="-130.28" font-family="Inter" font-size="10.00">graph identity</text>
</g>
<!-- key&#45;&gt;pa -->
<g id="edge4" class="edge">
<title>key&#45;&gt;pa</title>
<path fill="none" stroke="#475569" stroke-dasharray="5,2" d="M359.23,-185.52C355.53,-182.9 352.09,-179.95 349,-176.63 322.64,-148.27 361.08,-115.77 331,-91.38 276.72,-47.36 192.04,-91.65 145.4,-122.8"/>
<polygon fill="#475569" stroke="#475569" points="143.56,-119.81 137.29,-128.35 147.52,-125.58 143.56,-119.81"/>
<text xml:space="preserve" text-anchor="middle" x="285.25" y="-96.13" font-family="Inter" font-size="10.00">from_key</text>
</g>
<!-- path&#45;&gt;pa -->
<g id="edge5" class="edge">
<title>path&#45;&gt;pa</title>
<path fill="none" stroke="#475569" stroke-dasharray="5,2" d="M359.09,-127.65C355.43,-125 352.03,-122 349,-118.63 318.16,-84.3 366.34,-46.05 331,-16.38 299.85,9.76 276.97,-0.56 239.5,-16.38 189.85,-37.34 149.95,-88.07 128.65,-119.96"/>
<polygon fill="#475569" stroke="#475569" points="125.99,-117.64 123.47,-127.94 131.86,-121.46 125.99,-117.64"/>
<text xml:space="preserve" text-anchor="middle" x="285.25" y="-21.13" font-family="Inter" font-size="10.00">parse_path</text>
</g>
</g>
</svg>
