<?xml version="1.0" encoding="UTF-8" standalone="no"?>
<!DOCTYPE svg PUBLIC "-//W3C//DTD SVG 1.1//EN"
 "http://www.w3.org/Graphics/SVG/1.1/DTD/svg11.dtd">
<!-- Generated by graphviz version 14.1.5 (0)
 -->
<!-- Title: address_trie Pages: 1 -->
<svg width="563pt" height="426pt"
 viewBox="0.00 0.00 563.00 426.00" xmlns="http://www.w3.org/2000/svg" xmlns:xlink="http://www.w3.org/1999/xlink">
<g id="graph0" class="graph" transform="scale(1 1) rotate(0) translate(4 422.31)">
<title>address_trie</title>
<!-- start -->
<g id="node1" class="node">
<title>start</title>
<ellipse fill="#bbf7d0" stroke="#15803d" cx="18" cy="-151.45" rx="18" ry="18"/>
<text xml:space="preserve" text-anchor="middle" x="18" y="-149.07" font-family="Inter" font-size="10.00">q₀</text>
</g>
<!-- c -->
<g id="node2" class="node">
<title>c</title>
<ellipse fill="#e2e8f0" stroke="#475569" cx="143.25" cy="-151.45" rx="18" ry="18"/>
<text xml:space="preserve" text-anchor="middle" x="143.25" y="-149.07" font-family="Inter" font-size="10.00">·</text>
</g>
<!-- start&#45;&gt;c -->
<g id="edge1" class="edge">
<title>start&#45;&gt;c</title>
<path fill="none" stroke="#0d9488" d="M36.4,-151.45C56.49,-151.45 89.85,-151.45 113.75,-151.45"/>
<polygon fill="#0d9488" stroke="#0d9488" points="113.43,-154.95 123.43,-151.45 113.43,-147.95 113.43,-154.95"/>
<text xml:space="preserve" text-anchor="middle" x="80.62" y="-156.2" font-family="Inter" font-size="10.00">c·o·r·p·u·s·/</text>
</g>
<!-- f -->
<g id="node3" class="node">
<title>f</title>
<ellipse fill="#e2e8f0" stroke="#475569" cx="261.75" cy="-200.45" rx="18" ry="18"/>
<text xml:space="preserve" text-anchor="middle" x="261.75" y="-198.07" font-family="Inter" font-size="10.00">·</text>
</g>
<!-- c&#45;&gt;f -->
<g id="edge2" class="edge">
<title>c&#45;&gt;f</title>
<path fill="none" stroke="#0d9488" d="M160.45,-158.26C179.58,-166.31 211.66,-179.8 234.38,-189.36"/>
<polygon fill="#0d9488" stroke="#0d9488" points="232.72,-192.45 243.29,-193.1 235.43,-186 232.72,-192.45"/>
<text xml:space="preserve" text-anchor="middle" x="202.5" y="-189.35" font-family="Inter" font-size="10.00">f·i·l·e·/</text>
</g>
<!-- k -->
<g id="node4" class="node">
<title>k</title>
<ellipse fill="#e2e8f0" stroke="#475569" cx="261.75" cy="-125.45" rx="18" ry="18"/>
<text xml:space="preserve" text-anchor="middle" x="261.75" y="-123.07" font-family="Inter" font-size="10.00">·</text>
</g>
<!-- c&#45;&gt;k -->
<g id="edge3" class="edge">
<title>c&#45;&gt;k</title>
<path fill="none" stroke="#0d9488" d="M160.4,-144.53C166.25,-142.24 172.97,-139.86 179.25,-138.2 196.57,-133.62 216.43,-130.47 232.2,-128.45"/>
<polygon fill="#0d9488" stroke="#0d9488" points="232.35,-131.95 241.86,-127.29 231.52,-125 232.35,-131.95"/>
<text xml:space="preserve" text-anchor="middle" x="202.5" y="-142.95" font-family="Inter" font-size="10.00">c·h·u·n·k·/</text>
</g>
<!-- a5 -->
<g id="node5" class="node">
<title>a5</title>
<ellipse fill="#bbf7d0" stroke="#15803d" cx="494.7" cy="-366.45" rx="47.86" ry="47.86"/>
<ellipse fill="none" stroke="#15803d" cx="494.7" cy="-366.45" rx="51.86" ry="51.86"/>
<text xml:space="preserve" text-anchor="middle" x="494.7" y="-364.07" font-family="Inter" font-size="10.00">corpus/file/5</text>
</g>
<!-- f&#45;&gt;a5 -->
<g id="edge4" class="edge">
<title>f&#45;&gt;a5</title>
<path fill="none" stroke="#0d9488" d="M271.87,-215.61C278.28,-225.45 287.52,-238.14 297.75,-247.45 339.68,-285.6 395.61,-318.13 436.98,-339.49"/>
<polygon fill="#0d9488" stroke="#0d9488" points="435.32,-342.57 445.82,-343.99 438.49,-336.33 435.32,-342.57"/>
<text xml:space="preserve" text-anchor="middle" x="357" y="-332.17" font-family="Inter" font-size="10.00">5</text>
</g>
<!-- a6 -->
<g id="node6" class="node">
<title>a6</title>
<ellipse fill="#bbf7d0" stroke="#15803d" cx="494.7" cy="-244.45" rx="47.86" ry="47.86"/>
<ellipse fill="none" stroke="#15803d" cx="494.7" cy="-244.45" rx="51.86" ry="51.86"/>
<text xml:space="preserve" text-anchor="middle" x="494.7" y="-242.07" font-family="Inter" font-size="10.00">corpus/file/6</text>
</g>
<!-- f&#45;&gt;a6 -->
<g id="edge5" class="edge">
<title>f&#45;&gt;a6</title>
<path fill="none" stroke="#0d9488" d="M279.73,-203.68C311.4,-209.72 380.9,-222.96 432.13,-232.72"/>
<polygon fill="#0d9488" stroke="#0d9488" points="431.46,-236.15 441.93,-234.59 432.77,-229.28 431.46,-236.15"/>
<text xml:space="preserve" text-anchor="middle" x="357" y="-233.71" font-family="Inter" font-size="10.00">6</text>
</g>
<!-- x -->
<g id="node8" class="node">
<title>x</title>
<ellipse fill="#fee2e2" stroke="#dc2626" cx="494.7" cy="-156.45" rx="18" ry="18"/>
<text xml:space="preserve" text-anchor="middle" x="494.7" y="-153.32" font-family="Inter" font-size="10.00">✗</text>
</g>
<!-- f&#45;&gt;x -->
<g id="edge7" class="edge">
<title>f&#45;&gt;x</title>
<path fill="none" stroke="#dc2626" stroke-dasharray="5,2" d="M278.99,-194.68C284.85,-192.75 291.55,-190.7 297.75,-189.2 356.57,-174.91 426.84,-164.82 465.21,-159.89"/>
<polygon fill="#dc2626" stroke="#dc2626" points="465.5,-163.38 474.99,-158.66 464.63,-156.43 465.5,-163.38"/>
<text xml:space="preserve" text-anchor="middle" x="357" y="-193.95" font-family="Inter" font-size="10.00">7 &#160;(masked: no such page)</text>
</g>
<!-- a7 -->
<g id="node7" class="node">
<title>a7</title>
<ellipse fill="#bbf7d0" stroke="#15803d" cx="494.7" cy="-60.45" rx="56.45" ry="56.45"/>
<ellipse fill="none" stroke="#15803d" cx="494.7" cy="-60.45" rx="60.45" ry="60.45"/>
<text xml:space="preserve" text-anchor="middle" x="494.7" y="-58.07" font-family="Inter" font-size="10.00">corpus/chunk/7</text>
</g>
<!-- k&#45;&gt;a7 -->
<g id="edge6" class="edge">
<title>k&#45;&gt;a7</title>
<path fill="none" stroke="#0d9488" d="M279.36,-120.77C309.52,-112.28 374.85,-93.9 425.51,-79.64"/>
<polygon fill="#0d9488" stroke="#0d9488" points="426.27,-83.06 434.94,-76.98 424.37,-76.32 426.27,-83.06"/>
<text xml:space="preserve" text-anchor="middle" x="357" y="-119.3" font-family="Inter" font-size="10.00">7</text>
</g>
</g>
</svg>
