<?xml version="1.0" encoding="UTF-8" standalone="no"?>
<!DOCTYPE svg PUBLIC "-//W3C//DTD SVG 1.1//EN"
 "http://www.w3.org/Graphics/SVG/1.1/DTD/svg11.dtd">
<!-- Generated by graphviz version 14.1.5 (0)
 -->
<!-- Title: adr_placement Pages: 1 -->
<svg width="612pt" height="229pt"
 viewBox="0.00 0.00 612.00 229.00" xmlns="http://www.w3.org/2000/svg" xmlns:xlink="http://www.w3.org/1999/xlink">
<g id="graph0" class="graph" transform="scale(1 1) rotate(0) translate(4 224.5)">
<title>adr_placement</title>
<g id="clust1" class="cluster">
<title>cluster_cfl</title>
<path fill="#f8fafc" stroke="#334155" d="M20,-8C20,-8 584,-8 584,-8 590,-8 596,-14 596,-20 596,-20 596,-200.5 596,-200.5 596,-206.5 590,-212.5 584,-212.5 584,-212.5 20,-212.5 20,-212.5 14,-212.5 8,-206.5 8,-200.5 8,-200.5 8,-20 8,-20 8,-14 14,-8 20,-8"/>
<text xml:space="preserve" text-anchor="middle" x="302" y="-197.1" font-family="Inter" font-size="12.00" fill="#334155">CFL (context&#45;free)</text>
</g>
<g id="clust2" class="cluster">
<title>cluster_dcfl</title>
<path fill="#f1f5f9" stroke="#475569" d="M28,-16C28,-16 576,-16 576,-16 582,-16 588,-22 588,-28 588,-28 588,-167.25 588,-167.25 588,-173.25 582,-179.25 576,-179.25 576,-179.25 28,-179.25 28,-179.25 22,-179.25 16,-173.25 16,-167.25 16,-167.25 16,-28 16,-28 16,-22 22,-16 28,-16"/>
<text xml:space="preserve" text-anchor="middle" x="302" y="-163.85" font-family="Inter" font-size="12.00" fill="#475569">DCFL (deterministic context&#45;free)</text>
</g>
<g id="clust3" class="cluster">
<title>cluster_vpl</title>
<path fill="#ede9fe" stroke="#7c3aed" d="M36,-24C36,-24 568,-24 568,-24 574,-24 580,-30 580,-36 580,-36 580,-134 580,-134 580,-140 574,-146 568,-146 568,-146 36,-146 36,-146 30,-146 24,-140 24,-134 24,-134 24,-36 24,-36 24,-30 30,-24 36,-24"/>
<text xml:space="preserve" text-anchor="middle" x="302" y="-130.6" font-family="Inter" font-size="12.00" fill="#5b21b6">VPL (visibly pushdown)</text>
</g>
<g id="clust4" class="cluster">
<title>cluster_reg</title>
<path fill="#ccfbf1" stroke="#0f766e" d="M44,-32C44,-32 348,-32 348,-32 354,-32 360,-38 360,-44 360,-44 360,-100.75 360,-100.75 360,-106.75 354,-112.75 348,-112.75 348,-112.75 44,-112.75 44,-112.75 38,-112.75 32,-106.75 32,-100.75 32,-100.75 32,-44 32,-44 32,-38 38,-32 44,-32"/>
<text xml:space="preserve" text-anchor="middle" x="196" y="-97.35" font-family="Inter" font-size="12.00" fill="#134e4a">regular (FSM)</text>
</g>
<!-- wpda -->
<g id="node1" class="node">
<title>wpda</title>
<path fill="#ddd6fe" stroke="#7c3aed" d="M560.38,-79.5C560.38,-79.5 381.62,-79.5 381.62,-79.5 375.62,-79.5 369.62,-73.5 369.62,-67.5 369.62,-67.5 369.62,-52 369.62,-52 369.62,-46 375.62,-40 381.62,-40 381.62,-40 560.38,-40 560.38,-40 566.38,-40 572.38,-46 572.38,-52 572.38,-52 572.38,-67.5 572.38,-67.5 572.38,-73.5 566.38,-79.5 560.38,-79.5"/>
<text xml:space="preserve" text-anchor="middle" x="471" y="-65.05" font-family="Inter" font-size="11.00">TapeDslMask &#160;(WPDA)</text>
<text xml:space="preserve" text-anchor="middle" x="471" y="-49.3" font-family="Inter" font-size="11.00">nested REPL DSL — matched parens</text>
</g>
<!-- wfst -->
<g id="node2" class="node">
<title>wfst</title>
<path fill="#99f6e4" stroke="#0f766e" d="M152.38,-79.5C152.38,-79.5 51.62,-79.5 51.62,-79.5 45.62,-79.5 39.63,-73.5 39.63,-67.5 39.63,-67.5 39.63,-52 39.63,-52 39.63,-46 45.63,-40 51.63,-40 51.63,-40 152.38,-40 152.38,-40 158.38,-40 164.38,-46 164.38,-52 164.38,-52 164.38,-67.5 164.38,-67.5 164.38,-73.5 158.38,-79.5 152.38,-79.5"/>
<text xml:space="preserve" text-anchor="middle" x="102" y="-65.05" font-family="Inter" font-size="11.00">AddressMask &#160;(WFST)</text>
<text xml:space="preserve" text-anchor="middle" x="102" y="-49.3" font-family="Inter" font-size="11.00">flat address syntax</text>
</g>
<!-- band -->
<g id="node3" class="node">
<title>band</title>
<path fill="#fed7aa" stroke="#b45309" d="M339.88,-77.75C339.88,-77.75 194.12,-77.75 194.12,-77.75 188.12,-77.75 182.12,-71.75 182.12,-65.75 182.12,-65.75 182.12,-53.75 182.12,-53.75 182.12,-47.75 188.12,-41.75 194.12,-41.75 194.12,-41.75 339.88,-41.75 339.88,-41.75 345.88,-41.75 351.88,-47.75 351.88,-53.75 351.88,-53.75 351.88,-65.75 351.88,-65.75 351.88,-71.75 345.88,-77.75 339.88,-77.75"/>
<text xml:space="preserve" text-anchor="middle" x="267" y="-57.17" font-family="Inter" font-size="11.00">…TapePaging band &#160;(ADR&#45;030)</text>
</g>
</g>
</svg>
