<?xml version="1.0" encoding="UTF-8" standalone="no"?>
<!DOCTYPE svg PUBLIC "-//W3C//DTD SVG 1.1//EN"
 "http://www.w3.org/Graphics/SVG/1.1/DTD/svg11.dtd">
<!-- Generated by graphviz version 14.1.5 (0)
 -->
<!-- Title: attack_tree Pages: 1 -->
<svg width="1431pt" height="192pt"
 viewBox="0.00 0.00 1431.00 192.00" xmlns="http://www.w3.org/2000/svg" xmlns:xlink="http://www.w3.org/1999/xlink">
<g id="graph0" class="graph" transform="scale(1 1) rotate(0) translate(4 187.5)">
<title>attack_tree</title>
<!-- root -->
<g id="node1" class="node">
<title>root</title>
<path fill="#fee2e2" stroke="#b91c1c" d="M813.25,-183.5C813.25,-183.5 543,-183.5 543,-183.5 537,-183.5 531,-177.5 531,-171.5 531,-171.5 531,-159.5 531,-159.5 531,-153.5 537,-147.5 543,-147.5 543,-147.5 813.25,-147.5 813.25,-147.5 819.25,-147.5 825.25,-153.5 825.25,-159.5 825.25,-159.5 825.25,-171.5 825.25,-171.5 825.25,-177.5 819.25,-183.5 813.25,-183.5"/>
<text xml:space="preserve" text-anchor="middle" x="678.12" y="-162.72" font-family="Inter" font-size="12.00">GOAL: an adversarial agent escalates via the tape</text>
</g>
<!-- a1 -->
<g id="node2" class="node">
<title>a1</title>
<path fill="#fef3c7" stroke="#b45309" d="M273.62,-111.5C273.62,-111.5 188.62,-111.5 188.62,-111.5 182.62,-111.5 176.62,-105.5 176.62,-99.5 176.62,-99.5 176.62,-87.5 176.62,-87.5 176.62,-81.5 182.62,-75.5 188.62,-75.5 188.62,-75.5 273.62,-75.5 273.62,-75.5 279.62,-75.5 285.62,-81.5 285.62,-87.5 285.62,-87.5 285.62,-99.5 285.62,-99.5 285.62,-105.5 279.62,-111.5 273.62,-111.5"/>
<text xml:space="preserve" text-anchor="middle" x="231.12" y="-90.92" font-family="Inter" font-size="11.00">run arbitrary code</text>
</g>
<!-- root&#45;&gt;a1 -->
<g id="edge1" class="edge">
<title>root&#45;&gt;a1</title>
<path fill="none" stroke="#475569" d="M566.48,-147.02C480.63,-133.57 365.11,-115.48 294.49,-104.42"/>
<polygon fill="#475569" stroke="#475569" points="294.9,-102.01 287.6,-103.34 294.14,-106.85 294.9,-102.01"/>
</g>
<!-- a2 -->
<g id="node3" class="node">
<title>a2</title>
<path fill="#fef3c7" stroke="#b45309" d="M507.25,-111.5C507.25,-111.5 375,-111.5 375,-111.5 369,-111.5 363,-105.5 363,-99.5 363,-99.5 363,-87.5 363,-87.5 363,-81.5 369,-75.5 375,-75.5 375,-75.5 507.25,-75.5 507.25,-75.5 513.25,-75.5 519.25,-81.5 519.25,-87.5 519.25,-87.5 519.25,-99.5 519.25,-99.5 519.25,-105.5 513.25,-111.5 507.25,-111.5"/>
<text xml:space="preserve" text-anchor="middle" x="441.12" y="-90.92" font-family="Inter" font-size="11.00">write the corpus / user files</text>
</g>
<!-- root&#45;&gt;a2 -->
<g id="edge3" class="edge">
<title>root&#45;&gt;a2</title>
<path fill="none" stroke="#475569" d="M618.93,-147.02C585.15,-137.04 542.71,-124.5 507.77,-114.18"/>
<polygon fill="#475569" stroke="#475569" points="508.83,-111.94 501.43,-112.31 507.45,-116.64 508.83,-111.94"/>
</g>
<!-- a3 -->
<g id="node4" class="node">
<title>a3</title>
<path fill="#fef3c7" stroke="#b45309" d="M763.75,-111.5C763.75,-111.5 592.5,-111.5 592.5,-111.5 586.5,-111.5 580.5,-105.5 580.5,-99.5 580.5,-99.5 580.5,-87.5 580.5,-87.5 580.5,-81.5 586.5,-75.5 592.5,-75.5 592.5,-75.5 763.75,-75.5 763.75,-75.5 769.75,-75.5 775.75,-81.5 775.75,-87.5 775.75,-87.5 775.75,-99.5 775.75,-99.5 775.75,-105.5 769.75,-111.5 763.75,-111.5"/>
<text xml:space="preserve" text-anchor="middle" x="678.12" y="-90.92" font-family="Inter" font-size="11.00">self&#45;promote into durable memory</text>
</g>
<!-- root&#45;&gt;a3 -->
<g id="edge5" class="edge">
<title>root&#45;&gt;a3</title>
<path fill="none" stroke="#475569" d="M678.12,-147.2C678.12,-138.97 678.12,-128.98 678.12,-119.92"/>
<polygon fill="#475569" stroke="#475569" points="680.58,-120.12 678.13,-113.12 675.68,-120.12 680.58,-120.12"/>
</g>
<!-- a4 -->
<g id="node5" class="node">
<title>a4</title>
<path fill="#fef3c7" stroke="#b45309" d="M1004.25,-111.5C1004.25,-111.5 860,-111.5 860,-111.5 854,-111.5 848,-105.5 848,-99.5 848,-99.5 848,-87.5 848,-87.5 848,-81.5 854,-75.5 860,-75.5 860,-75.5 1004.25,-75.5 1004.25,-75.5 1010.25,-75.5 1016.25,-81.5 1016.25,-87.5 1016.25,-87.5 1016.25,-99.5 1016.25,-99.5 1016.25,-105.5 1010.25,-111.5 1004.25,-111.5"/>
<text xml:space="preserve" text-anchor="middle" x="932.12" y="-90.92" font-family="Inter" font-size="11.00">reach a sibling tree&#39;s memory</text>
</g>
<!-- root&#45;&gt;a4 -->
<g id="edge7" class="edge">
<title>root&#45;&gt;a4</title>
<path fill="none" stroke="#475569" d="M741.56,-147.02C777.92,-137 823.63,-124.4 861.17,-114.05"/>
<polygon fill="#475569" stroke="#475569" points="861.5,-116.51 867.6,-112.28 860.2,-111.78 861.5,-116.51"/>
</g>
<!-- a5 -->
<g id="node6" class="node">
<title>a5</title>
<path fill="#fef3c7" stroke="#b45309" d="M1293.5,-111.5C1293.5,-111.5 1126.75,-111.5 1126.75,-111.5 1120.75,-111.5 1114.75,-105.5 1114.75,-99.5 1114.75,-99.5 1114.75,-87.5 1114.75,-87.5 1114.75,-81.5 1120.75,-75.5 1126.75,-75.5 1126.75,-75.5 1293.5,-75.5 1293.5,-75.5 1299.5,-75.5 1305.5,-81.5 1305.5,-87.5 1305.5,-87.5 1305.5,-99.5 1305.5,-99.5 1305.5,-105.5 1299.5,-111.5 1293.5,-111.5"/>
<text xml:space="preserve" text-anchor="middle" x="1210.12" y="-90.92" font-family="Inter" font-size="11.00">run the REPL as a black&#45;box agent</text>
</g>
<!-- root&#45;&gt;a5 -->
<g id="edge9" class="edge">
<title>root&#45;&gt;a5</title>
<path fill="none" stroke="#475569" d="M811,-147.02C902.29,-135 1021.76,-119.28 1106.13,-108.18"/>
<polygon fill="#475569" stroke="#475569" points="1106.31,-110.63 1112.93,-107.29 1105.67,-105.77 1106.31,-110.63"/>
</g>
<!-- c1 -->
<g id="node7" class="node">
<title>c1</title>
<path fill="#dcfce7" stroke="#15803d" d="M246.25,-39.5C246.25,-39.5 12,-39.5 12,-39.5 6,-39.5 0,-33.5 0,-27.5 0,-27.5 0,-12 0,-12 0,-6 6,0 12,0 12,0 246.25,0 246.25,0 252.25,0 258.25,-6 258.25,-12 258.25,-12 258.25,-27.5 258.25,-27.5 258.25,-33.5 252.25,-39.5 246.25,-39.5"/>
<text xml:space="preserve" text-anchor="middle" x="129.12" y="-25.05" font-family="Inter" font-size="11.00">BLOCKED — verbs are analytical; rhai new_raw,</text>
<text xml:space="preserve" text-anchor="middle" x="129.12" y="-9.3" font-family="Inter" font-size="11.00">eval disabled, only the 9 verbs, no fs/net/proc</text>
</g>
<!-- a1&#45;&gt;c1 -->
<g id="edge2" class="edge">
<title>a1&#45;&gt;c1</title>
<path fill="none" stroke="#475569" d="M206.43,-75.13C193.46,-66.01 177.36,-54.68 163.22,-44.74"/>
<polygon fill="#475569" stroke="#475569" points="164.83,-42.87 157.7,-40.85 162.01,-46.88 164.83,-42.87"/>
</g>
<!-- c2 -->
<g id="node8" class="node">
<title>c2</title>
<path fill="#dcfce7" stroke="#15803d" d="M509.5,-39.5C509.5,-39.5 288.75,-39.5 288.75,-39.5 282.75,-39.5 276.75,-33.5 276.75,-27.5 276.75,-27.5 276.75,-12 276.75,-12 276.75,-6 282.75,0 288.75,0 288.75,0 509.5,0 509.5,0 515.5,0 521.5,-6 521.5,-12 521.5,-12 521.5,-27.5 521.5,-27.5 521.5,-33.5 515.5,-39.5 509.5,-39.5"/>
<text xml:space="preserve" text-anchor="middle" x="399.12" y="-25.05" font-family="Inter" font-size="11.00">BLOCKED — corpus read&#45;only (hydrate only);</text>
<text xml:space="preserve" text-anchor="middle" x="399.12" y="-9.3" font-family="Inter" font-size="11.00">put is Scratch&#45;only (CorpusWriteRefused)</text>
</g>
<!-- a2&#45;&gt;c2 -->
<g id="edge4" class="edge">
<title>a2&#45;&gt;c2</title>
<path fill="none" stroke="#475569" d="M430.96,-75.13C426.05,-66.75 420.06,-56.52 414.61,-47.2"/>
<polygon fill="#475569" stroke="#475569" points="416.8,-46.09 411.14,-41.28 412.57,-48.56 416.8,-46.09"/>
</g>
<!-- c3 -->
<g id="node9" class="node">
<title>c3</title>
<path fill="#dcfce7" stroke="#15803d" d="M804.62,-39.5C804.62,-39.5 551.62,-39.5 551.62,-39.5 545.62,-39.5 539.62,-33.5 539.62,-27.5 539.62,-27.5 539.62,-12 539.62,-12 539.62,-6 545.62,0 551.62,0 551.62,0 804.62,0 804.62,0 810.62,0 816.62,-6 816.62,-12 816.62,-12 816.62,-27.5 816.62,-27.5 816.62,-33.5 810.62,-39.5 804.62,-39.5"/>
<text xml:space="preserve" text-anchor="middle" x="678.12" y="-25.05" font-family="Inter" font-size="11.00">BLOCKED — promotion doubly&#45;gated, default OFF;</text>
<text xml:space="preserve" text-anchor="middle" x="678.12" y="-9.3" font-family="Inter" font-size="11.00">memory_observations only, bi&#45;temporal</text>
</g>
<!-- a3&#45;&gt;c3 -->
<g id="edge6" class="edge">
<title>a3&#45;&gt;c3</title>
<path fill="none" stroke="#475569" d="M678.12,-75.13C678.12,-67.09 678.12,-57.33 678.12,-48.31"/>
<polygon fill="#475569" stroke="#475569" points="680.58,-48.49 678.13,-41.49 675.68,-48.49 680.58,-48.49"/>
</g>
<!-- c4 -->
<g id="node10" class="node">
<title>c4</title>
<path fill="#dcfce7" stroke="#15803d" d="M1127.5,-39.5C1127.5,-39.5 846.75,-39.5 846.75,-39.5 840.75,-39.5 834.75,-33.5 834.75,-27.5 834.75,-27.5 834.75,-12 834.75,-12 834.75,-6 840.75,0 846.75,0 846.75,0 1127.5,0 1127.5,0 1133.5,0 1139.5,-6 1139.5,-12 1139.5,-12 1139.5,-27.5 1139.5,-27.5 1139.5,-33.5 1133.5,-39.5 1127.5,-39.5"/>
<text xml:space="preserve" text-anchor="middle" x="987.12" y="-25.05" font-family="Inter" font-size="11.00">BLOCKED — tree_id from the trusted frame, never JSON;</text>
<text xml:space="preserve" text-anchor="middle" x="987.12" y="-9.3" font-family="Inter" font-size="11.00">Scratch is tree&#45;local</text>
</g>
<!-- a4&#45;&gt;c4 -->
<g id="edge8" class="edge">
<title>a4&#45;&gt;c4</title>
<path fill="none" stroke="#475569" d="M945.44,-75.13C951.99,-66.59 960.02,-56.12 967.27,-46.65"/>
<polygon fill="#475569" stroke="#475569" points="969.15,-48.23 971.47,-41.18 965.26,-45.24 969.15,-48.23"/>
</g>
<!-- c5 -->
<g id="node11" class="node">
<title>c5</title>
<path fill="#dcfce7" stroke="#15803d" d="M1410.62,-39.5C1410.62,-39.5 1169.62,-39.5 1169.62,-39.5 1163.62,-39.5 1157.62,-33.5 1157.62,-27.5 1157.62,-27.5 1157.62,-12 1157.62,-12 1157.62,-6 1163.62,0 1169.62,0 1169.62,0 1410.62,0 1410.62,0 1416.62,0 1422.62,-6 1422.62,-12 1422.62,-12 1422.62,-27.5 1422.62,-27.5 1422.62,-33.5 1416.62,-39.5 1410.62,-39.5"/>
<text xml:space="preserve" text-anchor="middle" x="1290.12" y="-25.05" font-family="Inter" font-size="11.00">BLOCKED — admission refuses black&#45;box on the</text>
<text xml:space="preserve" text-anchor="middle" x="1290.12" y="-9.3" font-family="Inter" font-size="11.00">latent edge (fail&#45;closed identity)</text>
</g>
<!-- a5&#45;&gt;c5 -->
<g id="edge10" class="edge">
<title>a5&#45;&gt;c5</title>
<path fill="none" stroke="#475569" d="M1229.49,-75.13C1239.39,-66.26 1251.6,-55.3 1262.47,-45.55"/>
<polygon fill="#475569" stroke="#475569" points="1263.98,-47.49 1267.56,-40.99 1260.71,-43.84 1263.98,-47.49"/>
</g>
</g>
</svg>
