<?xml version="1.0" encoding="UTF-8"?>
<svg xmlns="http://www.w3.org/2000/svg" xmlns:xlink="http://www.w3.org/1999/xlink" width="397.389pt" height="108.903pt" viewBox="0 0 397.389 108.903">
<defs>
<g>
<g id="glyph-0-0">
<path d="M 4.921875 -0.96875 C 4.359375 -0.625 4.109375 -0.484375 3.3125 -0.484375 C 2.078125 -0.484375 1.34375 -1.625 1.34375 -2.78125 C 1.34375 -3.953125 2.15625 -5.0625 3.3125 -5.0625 C 3.84375 -5.0625 4.375 -4.890625 4.75 -4.609375 L 4.875 -5.34375 C 4.3125 -5.546875 3.875 -5.609375 3.296875 -5.609375 C 1.71875 -5.609375 0.546875 -4.296875 0.546875 -2.765625 C 0.546875 -1.125 1.796875 0.078125 3.34375 0.078125 C 4.125 0.078125 4.453125 -0.078125 4.96875 -0.359375 Z M 4.921875 -0.96875 "/>
</g>
<g id="glyph-0-1">
<path d="M 1.5 -3.03125 L 2.671875 -3.03125 L 2.671875 -3.53125 L 1.5 -3.53125 L 1.5 -4.546875 L 0.875 -4.546875 L 0.875 -3.53125 L 0.15625 -3.53125 L 0.15625 -3.03125 L 0.859375 -3.03125 L 0.859375 -1.015625 C 0.859375 -0.484375 1 0.078125 1.5625 0.078125 C 2.140625 0.078125 2.578125 -0.109375 2.8125 -0.21875 L 2.6875 -0.71875 C 2.421875 -0.53125 2.140625 -0.46875 1.921875 -0.46875 C 1.578125 -0.46875 1.5 -0.796875 1.5 -1.15625 Z M 1.5 -3.03125 "/>
</g>
<g id="glyph-0-2">
<path d="M 3.703125 -2.359375 C 3.703125 -2.96875 3.515625 -3.609375 2.53125 -3.609375 C 1.859375 -3.609375 1.484375 -3.21875 1.328125 -3.046875 L 1.328125 -5.515625 L 0.65625 -5.515625 L 0.65625 0 L 1.359375 0 L 1.359375 -1.9375 C 1.359375 -2.453125 1.578125 -3.078125 2.1875 -3.078125 C 3 -3.078125 3 -2.53125 3 -2.296875 L 3 0 L 3.703125 0 Z M 3.703125 -2.359375 "/>
</g>
<g id="glyph-0-3">
<path d="M 2.375 -2.15625 L 3.796875 -3.53125 L 3.015625 -3.53125 L 1.3125 -1.890625 L 1.3125 -5.515625 L 0.703125 -5.515625 L 0.703125 0 L 1.28125 0 L 1.28125 -1.109375 L 1.96875 -1.765625 L 3.28125 0 L 3.984375 0 Z M 2.375 -2.15625 "/>
</g>
<g id="glyph-0-4">
<path d="M 3.875 -2.578125 C 3.875 -2.96875 3.875 -3.890625 3.5 -4.546875 C 3.109375 -5.265625 2.484375 -5.390625 2.109375 -5.390625 C 1.75 -5.390625 1.125 -5.265625 0.734375 -4.59375 C 0.34375 -3.953125 0.328125 -3.078125 0.328125 -2.578125 C 0.328125 -2 0.359375 -1.265625 0.703125 -0.671875 C 1.046875 -0.03125 1.640625 0.171875 2.109375 0.171875 C 2.90625 0.171875 3.34375 -0.296875 3.578125 -0.796875 C 3.859375 -1.359375 3.875 -2.09375 3.875 -2.578125 Z M 2.109375 -0.359375 C 1.78125 -0.359375 1.390625 -0.546875 1.1875 -1.125 C 1.03125 -1.609375 1.03125 -2.109375 1.03125 -2.6875 C 1.03125 -3.421875 1.03125 -4.859375 2.109375 -4.859375 C 3.1875 -4.859375 3.1875 -3.421875 3.1875 -2.6875 C 3.1875 -2.15625 3.1875 -1.5625 3 -1.0625 C 2.78125 -0.484375 2.375 -0.359375 2.109375 -0.359375 Z M 2.109375 -0.359375 "/>
</g>
<g id="glyph-0-5">
<path d="M 2.546875 -5.390625 L 2.375 -5.390625 C 1.859375 -4.90625 1.203125 -4.875 0.734375 -4.859375 L 0.734375 -4.359375 C 1.046875 -4.359375 1.4375 -4.375 1.84375 -4.546875 L 1.84375 -0.5 L 0.78125 -0.5 L 0.78125 0 L 3.609375 0 L 3.609375 -0.5 L 2.546875 -0.5 Z M 2.546875 -5.390625 "/>
</g>
<g id="glyph-0-6">
<path d="M 2.421875 -5.96875 C 2.296875 -5.96875 2.28125 -5.96875 2.171875 -5.875 C 1.171875 -5 0.671875 -3.59375 0.671875 -1.984375 C 0.671875 -0.484375 1.125 0.96875 2.171875 1.890625 C 2.28125 1.984375 2.296875 1.984375 2.421875 1.984375 L 2.8125 1.984375 C 2.78125 1.96875 2.015625 1.3125 1.640625 0.078125 C 1.453125 -0.546875 1.359375 -1.203125 1.359375 -1.984375 C 1.359375 -4.734375 2.640625 -5.828125 2.8125 -5.96875 Z M 2.421875 -5.96875 "/>
</g>
<g id="glyph-0-7">
<path d="M 2.71875 -2.8125 C 3.25 -2.984375 3.75 -3.40625 3.75 -4 C 3.75 -4.71875 3.046875 -5.390625 2.109375 -5.390625 C 1.15625 -5.390625 0.46875 -4.71875 0.46875 -4 C 0.46875 -3.390625 0.984375 -2.96875 1.5 -2.8125 C 0.796875 -2.59375 0.34375 -2.0625 0.34375 -1.453125 C 0.34375 -0.59375 1.109375 0.171875 2.109375 0.171875 C 3.109375 0.171875 3.859375 -0.59375 3.859375 -1.453125 C 3.859375 -2.0625 3.40625 -2.59375 2.71875 -2.8125 Z M 2.109375 -3.078125 C 1.546875 -3.078125 1.078125 -3.40625 1.078125 -3.984375 C 1.078125 -4.5 1.4375 -4.890625 2.109375 -4.890625 C 2.765625 -4.890625 3.140625 -4.5 3.140625 -3.984375 C 3.140625 -3.421875 2.6875 -3.078125 2.109375 -3.078125 Z M 2.109375 -0.359375 C 1.5625 -0.359375 1.078125 -0.703125 1.078125 -1.453125 C 1.078125 -2.171875 1.53125 -2.546875 2.109375 -2.546875 C 2.6875 -2.546875 3.140625 -2.15625 3.140625 -1.453125 C 3.140625 -0.703125 2.640625 -0.359375 2.109375 -0.359375 Z M 2.109375 -0.359375 "/>
</g>
<g id="glyph-0-8">
<path d="M 0.796875 -5.515625 L 0.796875 0 L 3.0625 0 C 4.234375 0 5.15625 -0.703125 5.15625 -1.5 C 5.15625 -2.1875 4.40625 -2.765625 3.53125 -2.890625 C 4.359375 -3.078125 4.921875 -3.5625 4.921875 -4.140625 C 4.921875 -4.875 4 -5.515625 2.828125 -5.515625 Z M 1.546875 -3.140625 L 1.546875 -5.046875 L 2.59375 -5.046875 C 3.484375 -5.046875 4.21875 -4.640625 4.21875 -4.125 C 4.21875 -3.59375 3.5 -3.140625 2.59375 -3.140625 Z M 1.546875 -0.46875 L 1.546875 -2.609375 L 2.6875 -2.609375 C 3.6875 -2.609375 4.4375 -2.09375 4.4375 -1.5 C 4.4375 -0.921875 3.6875 -0.46875 2.8125 -0.46875 Z M 1.546875 -0.46875 "/>
</g>
<g id="glyph-0-9">
<path d="M 0.84375 1.984375 C 0.984375 1.984375 1 1.984375 1.09375 1.90625 C 2.09375 1.03125 2.609375 -0.390625 2.609375 -1.984375 C 2.609375 -3.484375 2.15625 -4.9375 1.109375 -5.859375 C 1 -5.96875 0.984375 -5.96875 0.84375 -5.96875 L 0.46875 -5.96875 C 0.5 -5.953125 1.265625 -5.28125 1.625 -4.046875 C 1.828125 -3.421875 1.921875 -2.78125 1.921875 -1.984375 C 1.921875 0.765625 0.625 1.859375 0.46875 1.984375 Z M 0.84375 1.984375 "/>
</g>
<g id="glyph-0-10">
<path d="M 1.34375 -1.6875 C 1.34375 -2.546875 2.0625 -3.015625 2.765625 -3.015625 L 2.765625 -3.609375 C 2.09375 -3.609375 1.609375 -3.28125 1.28125 -2.859375 L 1.28125 -3.59375 L 0.671875 -3.59375 L 0.671875 0 L 1.34375 0 Z M 1.34375 -1.6875 "/>
</g>
<g id="glyph-0-11">
<path d="M 3.421875 -0.859375 C 2.96875 -0.546875 2.46875 -0.453125 2.125 -0.453125 C 1.4375 -0.453125 0.921875 -1.015625 0.890625 -1.734375 L 3.5 -1.734375 C 3.5 -2.109375 3.453125 -2.640625 3.15625 -3.09375 C 2.859375 -3.5 2.390625 -3.65625 2 -3.65625 C 1.03125 -3.65625 0.28125 -2.796875 0.28125 -1.796875 C 0.28125 -0.765625 1.078125 0.078125 2.125 0.078125 C 2.578125 0.078125 3.0625 -0.0625 3.46875 -0.296875 Z M 0.953125 -2.21875 C 1.125 -2.859375 1.59375 -3.125 2 -3.125 C 2.34375 -3.125 2.859375 -2.953125 3.015625 -2.21875 Z M 0.953125 -2.21875 "/>
</g>
<g id="glyph-0-12">
<path d="M 3.703125 -3.53125 L 3 -3.53125 L 3 -1.21875 C 3 -0.59375 2.46875 -0.390625 2 -0.390625 C 1.421875 -0.390625 1.359375 -0.546875 1.359375 -0.921875 L 1.359375 -3.53125 L 0.65625 -3.53125 L 0.65625 -0.859375 C 0.65625 -0.15625 0.96875 0.078125 1.53125 0.078125 C 1.859375 0.078125 2.546875 0.015625 3.03125 -0.359375 L 3.03125 0 L 3.703125 0 Z M 3.703125 -3.53125 "/>
</g>
<g id="glyph-0-13">
<path d="M 1.40625 -5.453125 L 0.59375 -5.453125 L 0.59375 -4.65625 L 1.40625 -4.65625 Z M 1.34375 -3.53125 L 0.671875 -3.53125 L 0.671875 0 L 1.34375 0 Z M 1.34375 -3.53125 "/>
</g>
<g id="glyph-0-14">
<path d="M 3.6875 -5.515625 L 3.015625 -5.515625 L 3.015625 -3.1875 C 2.5 -3.5625 1.984375 -3.609375 1.75 -3.609375 C 0.921875 -3.609375 0.28125 -2.78125 0.28125 -1.765625 C 0.28125 -0.75 0.921875 0.078125 1.734375 0.078125 C 2.234375 0.078125 2.6875 -0.140625 2.984375 -0.40625 L 2.984375 0 L 3.6875 0 Z M 2.984375 -0.984375 C 2.796875 -0.65625 2.484375 -0.453125 2.109375 -0.453125 C 1.546875 -0.453125 0.984375 -0.828125 0.984375 -1.75 C 0.984375 -2.75 1.65625 -3.078125 2.1875 -3.078125 C 2.515625 -3.078125 2.78125 -2.953125 2.984375 -2.6875 Z M 2.984375 -0.984375 "/>
</g>
<g id="glyph-0-15">
<path d="M 3.484375 -5.21875 C 3.0625 -5.390625 2.765625 -5.390625 2.609375 -5.390625 C 1.40625 -5.390625 0.34375 -4.25 0.34375 -2.5625 C 0.34375 -0.40625 1.3125 0.171875 2.125 0.171875 C 2.765625 0.171875 3.109375 -0.140625 3.34375 -0.390625 C 3.859375 -0.9375 3.859375 -1.5 3.859375 -1.78125 C 3.859375 -2.8125 3.296875 -3.6875 2.53125 -3.6875 C 1.75 -3.6875 1.328125 -3.28125 1.09375 -3.046875 C 1.203125 -4.140625 1.75 -4.890625 2.609375 -4.890625 C 2.78125 -4.890625 3.09375 -4.875 3.484375 -4.71875 Z M 1.109375 -1.75 C 1.109375 -1.796875 1.109375 -1.921875 1.109375 -1.953125 C 1.109375 -2.5 1.453125 -3.15625 2.15625 -3.15625 C 3.140625 -3.15625 3.140625 -2.046875 3.140625 -1.78125 C 3.140625 -1.46875 3.140625 -1.140625 2.921875 -0.796875 C 2.734375 -0.515625 2.484375 -0.359375 2.125 -0.359375 C 1.28125 -0.359375 1.140625 -1.40625 1.109375 -1.75 Z M 1.109375 -1.75 "/>
</g>
<g id="glyph-0-16">
<path d="M 3.453125 -0.859375 C 3.0625 -0.609375 2.625 -0.46875 2.140625 -0.46875 C 1.40625 -0.46875 0.984375 -1.0625 0.984375 -1.78125 C 0.984375 -2.390625 1.296875 -3.109375 2.15625 -3.109375 C 2.703125 -3.109375 2.953125 -2.984375 3.359375 -2.734375 L 3.46875 -3.3125 C 2.984375 -3.546875 2.78125 -3.65625 2.15625 -3.65625 C 0.96875 -3.65625 0.28125 -2.6875 0.28125 -1.765625 C 0.28125 -0.796875 1.046875 0.078125 2.125 0.078125 C 2.6875 0.078125 3.171875 -0.09375 3.5 -0.28125 Z M 3.453125 -0.859375 "/>
</g>
<g id="glyph-0-17">
<path d="M 3.984375 -1.734375 C 3.984375 -2.796875 3.140625 -3.65625 2.109375 -3.65625 C 1.078125 -3.65625 0.234375 -2.78125 0.234375 -1.734375 C 0.234375 -0.734375 1.078125 0.078125 2.109375 0.078125 C 3.140625 0.078125 3.984375 -0.734375 3.984375 -1.734375 Z M 2.109375 -0.46875 C 1.484375 -0.46875 0.9375 -0.9375 0.9375 -1.828125 C 0.9375 -2.734375 1.515625 -3.125 2.109375 -3.125 C 2.703125 -3.125 3.28125 -2.71875 3.28125 -1.828125 C 3.28125 -0.921875 2.71875 -0.46875 2.109375 -0.46875 Z M 2.109375 -0.46875 "/>
</g>
<g id="glyph-0-18">
<path d="M 3.703125 -2.359375 C 3.703125 -2.96875 3.515625 -3.609375 2.53125 -3.609375 C 2.078125 -3.609375 1.640625 -3.421875 1.296875 -3 L 1.296875 -3.59375 L 0.65625 -3.59375 L 0.65625 0 L 1.359375 0 L 1.359375 -1.9375 C 1.359375 -2.453125 1.578125 -3.078125 2.1875 -3.078125 C 3 -3.078125 3 -2.53125 3 -2.296875 L 3 0 L 3.703125 0 Z M 3.703125 -2.359375 "/>
</g>
<g id="glyph-0-19">
<path d="M 3.15625 -1.328125 L 3.984375 -1.328125 L 3.984375 -1.859375 L 3.15625 -1.859375 L 3.15625 -5.21875 L 2.359375 -5.21875 L 0.234375 -1.859375 L 0.234375 -1.328125 L 2.46875 -1.328125 L 2.46875 0 L 3.15625 0 Z M 0.921875 -1.859375 C 1.15625 -2.234375 2.515625 -4.34375 2.515625 -4.828125 L 2.515625 -1.859375 Z M 0.921875 -1.859375 "/>
</g>
<g id="glyph-0-20">
<path d="M 1.578125 -5.515625 L 0.765625 -5.515625 L 0.765625 0 L 4.234375 0 L 4.234375 -0.5625 C 3.484375 -0.5625 2.734375 -0.546875 1.96875 -0.546875 L 1.578125 -0.546875 Z M 1.578125 -5.515625 "/>
</g>
<g id="glyph-0-21">
<path d="M 4.34375 -2.59375 L 4.34375 -3.125 L 1.578125 -3.125 L 1.578125 -4.953125 L 2.734375 -4.953125 C 2.828125 -4.953125 2.921875 -4.9375 3.015625 -4.9375 L 4.59375 -4.9375 L 4.59375 -5.5 L 0.765625 -5.5 L 0.765625 0 L 4.703125 0 L 4.703125 -0.625 L 4 -0.625 C 3.328125 -0.625 2.65625 -0.609375 1.984375 -0.609375 L 1.578125 -0.609375 L 1.578125 -2.59375 Z M 4.34375 -2.59375 "/>
</g>
<g id="glyph-0-22">
<path d="M 3.765625 -3.53125 L 3.125 -3.53125 C 2.484375 -2.015625 2.03125 -0.984375 2 -0.5 C 1.984375 -0.71875 1.84375 -1.125 1.703125 -1.5 C 1.578125 -1.8125 1.453125 -2.125 1.296875 -2.4375 L 0.796875 -3.53125 L 0.125 -3.53125 L 1.765625 0 C 1.671875 0.234375 1.515625 0.59375 1.46875 0.703125 C 1.296875 1.03125 1.1875 1.140625 0.96875 1.140625 C 0.9375 1.140625 0.640625 1.140625 0.296875 1 L 0.34375 1.5625 C 0.421875 1.578125 0.71875 1.625 0.96875 1.625 C 1.28125 1.625 1.5625 1.5 1.90625 0.734375 Z M 3.765625 -3.53125 "/>
</g>
<g id="glyph-0-23">
<path d="M 1.34375 -5.515625 L 0.671875 -5.515625 L 0.671875 0 L 1.34375 0 Z M 1.34375 -5.515625 "/>
</g>
<g id="glyph-0-24">
<path d="M 0.796875 -4.078125 C 1.125 -4.71875 1.6875 -4.890625 2.078125 -4.890625 C 2.546875 -4.890625 2.890625 -4.625 2.890625 -4.171875 C 2.890625 -3.75 2.609375 -3.234375 2 -3.125 C 1.96875 -3.125 1.9375 -3.125 1.40625 -3.078125 L 1.40625 -2.546875 L 2.03125 -2.546875 C 2.78125 -2.546875 3.0625 -1.953125 3.0625 -1.453125 C 3.0625 -0.828125 2.6875 -0.359375 2.0625 -0.359375 C 1.5 -0.359375 0.84375 -0.625 0.453125 -1.140625 L 0.34375 -0.625 C 0.8125 -0.109375 1.453125 0.171875 2.078125 0.171875 C 3.125 0.171875 3.859375 -0.609375 3.859375 -1.453125 C 3.859375 -2.09375 3.34375 -2.625 2.71875 -2.8125 C 3.3125 -3.125 3.625 -3.65625 3.625 -4.171875 C 3.625 -4.84375 2.9375 -5.390625 2.078125 -5.390625 C 1.390625 -5.390625 0.796875 -5.015625 0.46875 -4.546875 Z M 0.796875 -4.078125 "/>
</g>
<g id="glyph-0-25">
<path d="M 2.25 -0.609375 C 2.15625 -0.609375 2.0625 -0.609375 1.96875 -0.609375 L 1.0625 -0.609375 L 2.296875 -1.6875 C 2.4375 -1.828125 2.828125 -2.109375 2.96875 -2.25 C 3.328125 -2.5625 3.796875 -2.96875 3.796875 -3.671875 C 3.796875 -4.5625 3.125 -5.390625 1.984375 -5.390625 C 1.140625 -5.390625 0.625 -4.9375 0.34375 -4.125 L 0.71875 -3.65625 C 0.90625 -4.3125 1.1875 -4.828125 1.875 -4.828125 C 2.546875 -4.828125 3.046875 -4.359375 3.046875 -3.65625 C 3.046875 -2.984375 2.671875 -2.609375 2.1875 -2.15625 C 2.03125 -2 1.59375 -1.640625 1.4375 -1.484375 C 1.203125 -1.28125 0.65625 -0.75 0.421875 -0.546875 L 0.421875 0 L 3.796875 0 L 3.796875 -0.609375 Z M 2.25 -0.609375 "/>
</g>
<g id="glyph-0-26">
<path d="M 1.34375 -5.515625 L 0.671875 -5.515625 L 0.671875 0 L 1.375 0 L 1.375 -0.375 C 1.546875 -0.21875 1.921875 0.078125 2.5 0.078125 C 3.375 0.078125 4.078125 -0.734375 4.078125 -1.78125 C 4.078125 -2.734375 3.515625 -3.609375 2.734375 -3.609375 C 2.234375 -3.609375 1.734375 -3.453125 1.34375 -3.15625 Z M 1.375 -2.5 C 1.375 -2.625 1.375 -2.734375 1.640625 -2.90625 C 1.765625 -2.984375 1.984375 -3.078125 2.25 -3.078125 C 2.78125 -3.078125 3.375 -2.734375 3.375 -1.78125 C 3.375 -0.796875 2.71875 -0.453125 2.15625 -0.453125 C 1.875 -0.453125 1.59375 -0.578125 1.375 -0.9375 Z M 1.375 -2.5 "/>
</g>
<g id="glyph-0-27">
<path d="M 2.90625 -3.40625 C 2.359375 -3.625 1.96875 -3.65625 1.671875 -3.65625 C 1.484375 -3.65625 0.28125 -3.65625 0.28125 -2.59375 C 0.28125 -2.21875 0.484375 -2.015625 0.59375 -1.921875 C 0.859375 -1.640625 1.203125 -1.578125 1.625 -1.5 C 2 -1.421875 2.421875 -1.34375 2.421875 -0.96875 C 2.421875 -0.46875 1.765625 -0.46875 1.65625 -0.46875 C 1.140625 -0.46875 0.671875 -0.640625 0.34375 -0.859375 L 0.234375 -0.265625 C 0.515625 -0.140625 1 0.078125 1.65625 0.078125 C 2.015625 0.078125 2.359375 0.03125 2.65625 -0.1875 C 2.953125 -0.40625 3.046875 -0.765625 3.046875 -1.03125 C 3.046875 -1.171875 3.03125 -1.484375 2.703125 -1.796875 C 2.40625 -2.046875 2.109375 -2.109375 1.734375 -2.171875 C 1.265625 -2.265625 0.90625 -2.34375 0.90625 -2.6875 C 0.90625 -3.140625 1.484375 -3.140625 1.59375 -3.140625 C 2.046875 -3.140625 2.40625 -3.046875 2.796875 -2.84375 Z M 2.90625 -3.40625 "/>
</g>
<g id="glyph-0-28">
<path d="M 1.375 -0.375 C 1.796875 0.015625 2.25 0.078125 2.515625 0.078125 C 3.359375 0.078125 4.078125 -0.71875 4.078125 -1.78125 C 4.078125 -2.734375 3.546875 -3.609375 2.765625 -3.609375 C 2.40625 -3.609375 1.8125 -3.5 1.34375 -3.15625 L 1.34375 -3.53125 L 0.671875 -3.53125 L 0.671875 1.546875 L 1.375 1.546875 Z M 1.375 -2.640625 C 1.546875 -2.859375 1.859375 -3.0625 2.25 -3.0625 C 2.875 -3.0625 3.375 -2.46875 3.375 -1.78125 C 3.375 -0.984375 2.78125 -0.453125 2.15625 -0.453125 C 2.046875 -0.453125 1.84375 -0.46875 1.640625 -0.625 C 1.40625 -0.8125 1.375 -0.9375 1.375 -1.078125 Z M 1.375 -2.640625 "/>
</g>
<g id="glyph-0-29">
<path d="M 3.390625 -2.296875 C 3.390625 -3.109375 2.765625 -3.65625 1.984375 -3.65625 C 1.484375 -3.65625 1.09375 -3.546875 0.65625 -3.3125 L 0.703125 -2.734375 C 0.96875 -2.90625 1.359375 -3.140625 1.984375 -3.140625 C 2.328125 -3.140625 2.703125 -2.875 2.703125 -2.28125 L 2.703125 -1.96875 C 1.515625 -1.921875 0.359375 -1.671875 0.359375 -0.9375 C 0.359375 -0.546875 0.625 0.078125 1.328125 0.078125 C 1.671875 0.078125 2.296875 0.015625 2.71875 -0.296875 L 2.71875 0 L 3.390625 0 Z M 2.703125 -1.125 C 2.703125 -0.96875 2.703125 -0.765625 2.421875 -0.59375 C 2.15625 -0.453125 1.859375 -0.453125 1.765625 -0.453125 C 1.328125 -0.453125 1 -0.640625 1 -0.953125 C 1 -1.453125 2.34375 -1.5 2.703125 -1.515625 Z M 2.703125 -1.125 "/>
</g>
<g id="glyph-0-30">
<path d="M 4 -3.609375 C 3.828125 -3.609375 3.296875 -3.609375 2.6875 -3.375 L 2.671875 -3.359375 C 2.390625 -3.5625 2.109375 -3.609375 1.875 -3.609375 C 1.09375 -3.609375 0.515625 -3 0.515625 -2.3125 C 0.515625 -2.03125 0.609375 -1.75 0.796875 -1.53125 C 0.6875 -1.390625 0.5625 -1.171875 0.5625 -0.859375 C 0.5625 -0.5625 0.6875 -0.359375 0.765625 -0.265625 C 0.328125 -0.015625 0.234375 0.359375 0.234375 0.546875 C 0.234375 1.15625 1.078125 1.625 2.109375 1.625 C 3.15625 1.625 3.984375 1.15625 3.984375 0.546875 C 3.984375 -0.578125 2.578125 -0.578125 2.25 -0.578125 L 1.5 -0.578125 C 1.375 -0.578125 1.03125 -0.578125 1.03125 -0.984375 C 1.03125 -1.140625 1.09375 -1.21875 1.09375 -1.234375 C 1.375 -1.0625 1.65625 -1.015625 1.875 -1.015625 C 2.640625 -1.015625 3.234375 -1.625 3.234375 -2.3125 C 3.234375 -2.5625 3.15625 -2.796875 3.015625 -3 C 2.984375 -3.046875 2.984375 -3.0625 2.984375 -3.0625 C 2.984375 -3.109375 3.453125 -3.109375 3.5 -3.109375 C 3.5 -3.109375 3.8125 -3.109375 4.09375 -3.0625 Z M 1.875 -1.5 C 1.453125 -1.5 1.125 -1.78125 1.125 -2.3125 C 1.125 -2.921875 1.53125 -3.125 1.875 -3.125 C 2.296875 -3.125 2.609375 -2.84375 2.609375 -2.3125 C 2.609375 -1.6875 2.21875 -1.5 1.875 -1.5 Z M 2.25 0.046875 C 2.4375 0.046875 3.375 0.046875 3.375 0.5625 C 3.375 0.90625 2.78125 1.140625 2.109375 1.140625 C 1.4375 1.140625 0.84375 0.90625 0.84375 0.5625 C 0.84375 0.515625 0.84375 0.046875 1.484375 0.046875 Z M 2.25 0.046875 "/>
</g>
<g id="glyph-0-31">
<path d="M 3.28125 -5.515625 L 2.5 -5.515625 L 2.5 -1.21875 C 2.5 -1.046875 2.5 -0.359375 1.53125 -0.359375 C 0.96875 -0.359375 0.625 -0.65625 0.46875 -0.8125 L 0.34375 -0.171875 C 0.78125 0.046875 1.296875 0.171875 1.796875 0.171875 C 2.640625 0.171875 3.28125 -0.265625 3.28125 -1.1875 Z M 3.28125 -5.515625 "/>
</g>
<g id="glyph-0-32">
<path d="M 3.921875 -5.296875 C 3.421875 -5.5625 2.96875 -5.6875 2.375 -5.6875 C 1.171875 -5.6875 0.46875 -4.875 0.46875 -4.109375 C 0.46875 -3.78125 0.578125 -3.40625 0.96875 -3.03125 C 1.3125 -2.71875 1.671875 -2.625 2.171875 -2.515625 C 2.84375 -2.359375 3.015625 -2.3125 3.25 -2.078125 C 3.40625 -1.921875 3.53125 -1.703125 3.53125 -1.4375 C 3.53125 -0.9375 3.078125 -0.421875 2.3125 -0.421875 C 1.859375 -0.421875 1.125 -0.5625 0.5 -1.09375 L 0.375 -0.375 C 0.765625 -0.15625 1.4375 0.171875 2.328125 0.171875 C 3.421875 0.171875 4.21875 -0.640625 4.21875 -1.53125 C 4.21875 -2.171875 3.84375 -2.53125 3.6875 -2.703125 C 3.34375 -3.03125 2.984375 -3.125 2.375 -3.265625 C 1.890625 -3.375 1.625 -3.4375 1.4375 -3.625 C 1.34375 -3.71875 1.15625 -3.90625 1.15625 -4.203125 C 1.15625 -4.65625 1.59375 -5.109375 2.375 -5.109375 C 2.96875 -5.109375 3.390625 -4.921875 3.796875 -4.578125 Z M 3.921875 -5.296875 "/>
</g>
<g id="glyph-0-33">
<path d="M 5.765625 -2.734375 C 5.765625 -4.375 4.5625 -5.6875 3.125 -5.6875 C 1.671875 -5.6875 0.46875 -4.375 0.46875 -2.734375 C 0.46875 -1.09375 1.6875 0.171875 3.125 0.171875 C 4.546875 0.171875 5.765625 -1.09375 5.765625 -2.734375 Z M 3.125 -0.390625 C 2.15625 -0.390625 1.265625 -1.359375 1.265625 -2.859375 C 1.265625 -4.265625 2.15625 -5.140625 3.125 -5.140625 C 4.078125 -5.140625 4.96875 -4.265625 4.96875 -2.859375 C 4.96875 -1.359375 4.078125 -0.390625 3.125 -0.390625 Z M 3.125 -0.390625 "/>
</g>
<g id="glyph-0-34">
<path d="M 1.875 -5.515625 L 0.796875 -5.515625 L 0.796875 0 L 1.46875 0 L 1.46875 -4.890625 L 4.078125 0 L 5.15625 0 L 5.15625 -5.515625 L 4.5 -5.515625 L 4.5 -0.625 L 4.484375 -0.625 Z M 1.875 -5.515625 "/>
</g>
<g id="glyph-0-35">
<path d="M 3.375 -3.203125 L 3.375 -3.53125 L 0.34375 -3.53125 L 0.34375 -3.015625 L 1.515625 -3.015625 C 1.609375 -3.015625 1.703125 -3.03125 1.8125 -3.03125 L 2.421875 -3.03125 L 0.234375 -0.34375 L 0.234375 0 L 3.390625 0 L 3.390625 -0.53125 L 2.15625 -0.53125 C 2.0625 -0.53125 1.96875 -0.53125 1.875 -0.53125 L 1.1875 -0.53125 Z M 3.375 -3.203125 "/>
</g>
<g id="glyph-0-36">
<path d="M 3.765625 -3.53125 L 3.140625 -3.53125 C 2.046875 -0.859375 2 -0.65625 1.96875 -0.46875 L 1.953125 -0.46875 C 1.890625 -0.78125 1.671875 -1.34375 1.421875 -1.953125 L 0.78125 -3.53125 L 0.125 -3.53125 L 1.578125 0 L 2.3125 0 Z M 3.765625 -3.53125 "/>
</g>
<g id="glyph-0-37">
<path d="M 2.34375 -1.515625 L 2.34375 -2.015625 L 0.09375 -2.015625 L 0.09375 -1.515625 Z M 2.34375 -1.515625 "/>
</g>
<g id="glyph-0-38">
<path d="M 6.046875 -2.359375 C 6.046875 -2.96875 5.859375 -3.609375 4.890625 -3.609375 C 4.21875 -3.609375 3.796875 -3.21875 3.609375 -2.96875 C 3.53125 -3.1875 3.328125 -3.609375 2.53125 -3.609375 C 2.078125 -3.609375 1.640625 -3.421875 1.296875 -3 L 1.296875 -3.59375 L 0.65625 -3.59375 L 0.65625 0 L 1.359375 0 L 1.359375 -1.9375 C 1.359375 -2.453125 1.578125 -3.078125 2.1875 -3.078125 C 3 -3.078125 3 -2.53125 3 -2.296875 L 3 0 L 3.703125 0 L 3.703125 -1.9375 C 3.703125 -2.453125 3.921875 -3.078125 4.53125 -3.078125 C 5.359375 -3.078125 5.359375 -2.53125 5.359375 -2.296875 L 5.359375 0 L 6.046875 0 Z M 6.046875 -2.359375 "/>
</g>
<g id="glyph-0-39">
<path d="M 1.515625 -3.03125 L 2.421875 -3.03125 L 2.421875 -3.53125 L 1.484375 -3.53125 L 1.484375 -4.453125 C 1.484375 -5 1.984375 -5.078125 2.25 -5.078125 C 2.421875 -5.078125 2.625 -5.046875 2.921875 -4.9375 L 2.921875 -5.515625 C 2.71875 -5.5625 2.46875 -5.59375 2.265625 -5.59375 C 1.4375 -5.59375 0.84375 -5.015625 0.84375 -4.21875 L 0.84375 -3.53125 L 0.234375 -3.53125 L 0.234375 -3.03125 L 0.84375 -3.03125 L 0.84375 0 L 1.515625 0 Z M 1.515625 -3.03125 "/>
</g>
<g id="glyph-1-0">
<path d="M 3.359375 1.796875 C 3.40625 1.9375 3.46875 1.984375 3.5625 1.984375 C 3.671875 1.984375 3.75 1.90625 3.75 1.8125 C 3.75 1.78125 3.75 1.765625 3.703125 1.65625 L 0.859375 -5.765625 C 0.796875 -5.90625 0.75 -5.96875 0.65625 -5.96875 C 0.546875 -5.96875 0.46875 -5.890625 0.46875 -5.78125 C 0.46875 -5.765625 0.46875 -5.734375 0.515625 -5.625 Z M 3.359375 1.796875 "/>
</g>
<g id="glyph-1-1">
<path d="M 1.609375 -1.984375 C 1.609375 -2.265625 1.390625 -2.4375 1.171875 -2.4375 C 0.921875 -2.4375 0.734375 -2.234375 0.734375 -2 C 0.734375 -1.71875 0.953125 -1.546875 1.171875 -1.546875 C 1.421875 -1.546875 1.609375 -1.75 1.609375 -1.984375 Z M 1.609375 -1.984375 "/>
</g>
<g id="glyph-2-0">
<path d="M 1.171875 -1.484375 C 1.171875 -2.234375 1.8125 -2.640625 2.421875 -2.640625 L 2.421875 -3.15625 C 1.828125 -3.15625 1.40625 -2.875 1.125 -2.5 L 1.125 -3.140625 L 0.59375 -3.140625 L 0.59375 0 L 1.171875 0 Z M 1.171875 -1.484375 "/>
</g>
<g id="glyph-2-1">
<path d="M 3 -0.765625 C 2.609375 -0.484375 2.171875 -0.390625 1.875 -0.390625 C 1.265625 -0.390625 0.796875 -0.890625 0.78125 -1.53125 L 3.0625 -1.53125 C 3.0625 -1.84375 3.03125 -2.3125 2.765625 -2.703125 C 2.515625 -3.0625 2.09375 -3.203125 1.75 -3.203125 C 0.90625 -3.203125 0.25 -2.453125 0.25 -1.5625 C 0.25 -0.671875 0.9375 0.0625 1.859375 0.0625 C 2.265625 0.0625 2.6875 -0.046875 3.03125 -0.265625 Z M 0.828125 -1.9375 C 0.984375 -2.5 1.40625 -2.734375 1.75 -2.734375 C 2.0625 -2.734375 2.515625 -2.59375 2.640625 -1.9375 Z M 0.828125 -1.9375 "/>
</g>
<g id="glyph-2-2">
<path d="M 1.203125 -0.328125 C 1.5625 0 1.96875 0.0625 2.203125 0.0625 C 2.9375 0.0625 3.5625 -0.640625 3.5625 -1.546875 C 3.5625 -2.390625 3.109375 -3.15625 2.421875 -3.15625 C 2.109375 -3.15625 1.578125 -3.078125 1.171875 -2.765625 L 1.171875 -3.09375 L 0.59375 -3.09375 L 0.59375 1.359375 L 1.203125 1.359375 Z M 1.203125 -2.3125 C 1.359375 -2.515625 1.625 -2.6875 1.96875 -2.6875 C 2.515625 -2.6875 2.96875 -2.171875 2.96875 -1.546875 C 2.96875 -0.859375 2.4375 -0.390625 1.890625 -0.390625 C 1.796875 -0.390625 1.609375 -0.40625 1.4375 -0.546875 C 1.21875 -0.703125 1.203125 -0.8125 1.203125 -0.953125 Z M 1.203125 -2.3125 "/>
</g>
<g id="glyph-2-3">
<path d="M 2.96875 -2 C 2.96875 -2.71875 2.421875 -3.203125 1.734375 -3.203125 C 1.296875 -3.203125 0.96875 -3.109375 0.578125 -2.90625 L 0.609375 -2.390625 C 0.84375 -2.546875 1.1875 -2.75 1.734375 -2.75 C 2.046875 -2.75 2.359375 -2.515625 2.359375 -2 L 2.359375 -1.71875 C 1.328125 -1.6875 0.3125 -1.46875 0.3125 -0.828125 C 0.3125 -0.46875 0.546875 0.0625 1.15625 0.0625 C 1.46875 0.0625 2.015625 0 2.390625 -0.265625 L 2.390625 0 L 2.96875 0 Z M 2.359375 -0.984375 C 2.359375 -0.84375 2.359375 -0.671875 2.125 -0.515625 C 1.890625 -0.390625 1.625 -0.390625 1.546875 -0.390625 C 1.15625 -0.390625 0.875 -0.5625 0.875 -0.828125 C 0.875 -1.28125 2.046875 -1.3125 2.359375 -1.328125 Z M 2.359375 -0.984375 "/>
</g>
<g id="glyph-2-4">
<path d="M 1.3125 -2.65625 L 2.34375 -2.65625 L 2.34375 -3.09375 L 1.3125 -3.09375 L 1.3125 -3.984375 L 0.78125 -3.984375 L 0.78125 -3.09375 L 0.140625 -3.09375 L 0.140625 -2.65625 L 0.75 -2.65625 L 0.75 -0.890625 C 0.75 -0.421875 0.875 0.0625 1.375 0.0625 C 1.875 0.0625 2.265625 -0.09375 2.46875 -0.1875 L 2.34375 -0.640625 C 2.125 -0.46875 1.875 -0.40625 1.671875 -0.40625 C 1.390625 -0.40625 1.3125 -0.703125 1.3125 -1.015625 Z M 1.3125 -2.65625 "/>
</g>
<g id="glyph-2-5">
<path d="M 3.21875 -4.84375 L 2.640625 -4.84375 L 2.640625 -2.796875 C 2.1875 -3.125 1.734375 -3.15625 1.546875 -3.15625 C 0.8125 -3.15625 0.25 -2.4375 0.25 -1.546875 C 0.25 -0.65625 0.796875 0.0625 1.515625 0.0625 C 1.953125 0.0625 2.359375 -0.125 2.625 -0.359375 L 2.625 0 L 3.21875 0 Z M 2.625 -0.859375 C 2.453125 -0.578125 2.1875 -0.390625 1.84375 -0.390625 C 1.359375 -0.390625 0.859375 -0.734375 0.859375 -1.546875 C 0.859375 -2.40625 1.453125 -2.703125 1.921875 -2.703125 C 2.203125 -2.703125 2.4375 -2.578125 2.625 -2.34375 Z M 2.625 -0.859375 "/>
</g>
<g id="glyph-2-6">
<path d="M 3.03125 -0.765625 C 2.6875 -0.53125 2.3125 -0.40625 1.875 -0.40625 C 1.234375 -0.40625 0.859375 -0.921875 0.859375 -1.546875 C 0.859375 -2.09375 1.140625 -2.71875 1.890625 -2.71875 C 2.375 -2.71875 2.59375 -2.625 2.953125 -2.390625 L 3.03125 -2.90625 C 2.625 -3.109375 2.4375 -3.203125 1.890625 -3.203125 C 0.84375 -3.203125 0.25 -2.359375 0.25 -1.546875 C 0.25 -0.703125 0.921875 0.0625 1.875 0.0625 C 2.359375 0.0625 2.78125 -0.078125 3.078125 -0.25 Z M 3.03125 -0.765625 "/>
</g>
<g id="glyph-2-7">
<path d="M 3.484375 -1.53125 C 3.484375 -2.453125 2.75 -3.203125 1.84375 -3.203125 C 0.9375 -3.203125 0.203125 -2.4375 0.203125 -1.53125 C 0.203125 -0.640625 0.953125 0.0625 1.84375 0.0625 C 2.75 0.0625 3.484375 -0.640625 3.484375 -1.53125 Z M 1.84375 -0.40625 C 1.296875 -0.40625 0.8125 -0.8125 0.8125 -1.609375 C 0.8125 -2.390625 1.328125 -2.734375 1.84375 -2.734375 C 2.375 -2.734375 2.875 -2.375 2.875 -1.609375 C 2.875 -0.8125 2.390625 -0.40625 1.84375 -0.40625 Z M 1.84375 -0.40625 "/>
</g>
<g id="glyph-2-8">
<path d="M 3.234375 -3.09375 L 2.640625 -3.09375 L 2.640625 -1.078125 C 2.640625 -0.515625 2.15625 -0.34375 1.75 -0.34375 C 1.234375 -0.34375 1.1875 -0.484375 1.1875 -0.796875 L 1.1875 -3.09375 L 0.578125 -3.09375 L 0.578125 -0.765625 C 0.578125 -0.140625 0.84375 0.0625 1.34375 0.0625 C 1.625 0.0625 2.234375 0.015625 2.65625 -0.328125 L 2.65625 0 L 3.234375 0 Z M 3.234375 -3.09375 "/>
</g>
<g id="glyph-2-9">
<path d="M 3.234375 -2.0625 C 3.234375 -2.609375 3.078125 -3.15625 2.21875 -3.15625 C 1.828125 -3.15625 1.4375 -3 1.140625 -2.640625 L 1.140625 -3.140625 L 0.578125 -3.140625 L 0.578125 0 L 1.1875 0 L 1.1875 -1.6875 C 1.1875 -2.15625 1.375 -2.703125 1.921875 -2.703125 C 2.640625 -2.703125 2.640625 -2.21875 2.640625 -2.015625 L 2.640625 0 L 3.234375 0 Z M 3.234375 -2.0625 "/>
</g>
<g id="glyph-2-10">
<path d="M 1.171875 -4.84375 L 0.59375 -4.84375 L 0.59375 0 L 1.203125 0 L 1.203125 -0.328125 C 1.359375 -0.1875 1.6875 0.0625 2.1875 0.0625 C 2.953125 0.0625 3.5625 -0.640625 3.5625 -1.546875 C 3.5625 -2.390625 3.09375 -3.15625 2.390625 -3.15625 C 1.953125 -3.15625 1.53125 -3.03125 1.171875 -2.765625 Z M 1.203125 -2.1875 C 1.203125 -2.3125 1.203125 -2.390625 1.4375 -2.546875 C 1.546875 -2.609375 1.734375 -2.703125 1.96875 -2.703125 C 2.4375 -2.703125 2.96875 -2.390625 2.96875 -1.546875 C 2.96875 -0.703125 2.390625 -0.390625 1.890625 -0.390625 C 1.640625 -0.390625 1.390625 -0.515625 1.203125 -0.828125 Z M 1.203125 -2.1875 "/>
</g>
<g id="glyph-2-11">
<path d="M 1.21875 -4.78125 L 0.515625 -4.78125 L 0.515625 -4.078125 L 1.21875 -4.078125 Z M 1.171875 -3.09375 L 0.578125 -3.09375 L 0.578125 0 L 1.171875 0 Z M 1.171875 -3.09375 "/>
</g>
<g id="glyph-2-12">
<path d="M 1.171875 -4.84375 L 0.578125 -4.84375 L 0.578125 0 L 1.171875 0 Z M 1.171875 -4.84375 "/>
</g>
<g id="glyph-2-13">
<path d="M 2.046875 -1.328125 L 2.046875 -1.765625 L 0.078125 -1.765625 L 0.078125 -1.328125 Z M 2.046875 -1.328125 "/>
</g>
<g id="glyph-2-14">
<path d="M 1.328125 -2.65625 L 2.125 -2.65625 L 2.125 -3.09375 L 1.296875 -3.09375 L 1.296875 -3.890625 C 1.296875 -4.375 1.734375 -4.453125 1.96875 -4.453125 C 2.125 -4.453125 2.3125 -4.421875 2.5625 -4.328125 L 2.5625 -4.84375 C 2.390625 -4.875 2.171875 -4.90625 1.984375 -4.90625 C 1.265625 -4.90625 0.734375 -4.390625 0.734375 -3.703125 L 0.734375 -3.09375 L 0.203125 -3.09375 L 0.203125 -2.65625 L 0.734375 -2.65625 L 0.734375 0 L 1.328125 0 Z M 1.328125 -2.65625 "/>
</g>
<g id="glyph-2-15">
<path d="M 5.296875 -2.0625 C 5.296875 -2.609375 5.140625 -3.15625 4.28125 -3.15625 C 3.6875 -3.15625 3.328125 -2.828125 3.15625 -2.59375 C 3.09375 -2.78125 2.921875 -3.15625 2.21875 -3.15625 C 1.828125 -3.15625 1.4375 -3 1.140625 -2.640625 L 1.140625 -3.140625 L 0.578125 -3.140625 L 0.578125 0 L 1.1875 0 L 1.1875 -1.6875 C 1.1875 -2.15625 1.375 -2.703125 1.921875 -2.703125 C 2.640625 -2.703125 2.640625 -2.21875 2.640625 -2.015625 L 2.640625 0 L 3.234375 0 L 3.234375 -1.6875 C 3.234375 -2.15625 3.4375 -2.703125 3.96875 -2.703125 C 4.6875 -2.703125 4.6875 -2.21875 4.6875 -2.015625 L 4.6875 0 L 5.296875 0 Z M 5.296875 -2.0625 "/>
</g>
<g id="glyph-2-16">
<path d="M 2.546875 -2.984375 C 2.0625 -3.171875 1.71875 -3.203125 1.46875 -3.203125 C 1.296875 -3.203125 0.25 -3.203125 0.25 -2.265625 C 0.25 -1.9375 0.421875 -1.765625 0.515625 -1.671875 C 0.765625 -1.4375 1.046875 -1.375 1.421875 -1.3125 C 1.75 -1.25 2.125 -1.171875 2.125 -0.84375 C 2.125 -0.40625 1.546875 -0.40625 1.453125 -0.40625 C 1 -0.40625 0.578125 -0.5625 0.3125 -0.765625 L 0.203125 -0.234375 C 0.453125 -0.125 0.875 0.0625 1.453125 0.0625 C 1.765625 0.0625 2.0625 0.015625 2.328125 -0.171875 C 2.578125 -0.359375 2.671875 -0.671875 2.671875 -0.90625 C 2.671875 -1.03125 2.65625 -1.296875 2.359375 -1.5625 C 2.109375 -1.796875 1.859375 -1.84375 1.515625 -1.90625 C 1.109375 -1.984375 0.78125 -2.046875 0.78125 -2.359375 C 0.78125 -2.75 1.296875 -2.75 1.40625 -2.75 C 1.796875 -2.75 2.109375 -2.671875 2.453125 -2.484375 Z M 2.546875 -2.984375 "/>
</g>
<g id="glyph-2-17">
<path d="M 3.234375 -2.0625 C 3.234375 -2.609375 3.078125 -3.15625 2.21875 -3.15625 C 1.625 -3.15625 1.296875 -2.8125 1.15625 -2.671875 L 1.15625 -4.84375 L 0.578125 -4.84375 L 0.578125 0 L 1.1875 0 L 1.1875 -1.6875 C 1.1875 -2.15625 1.375 -2.703125 1.921875 -2.703125 C 2.640625 -2.703125 2.640625 -2.21875 2.640625 -2.015625 L 2.640625 0 L 3.234375 0 Z M 3.234375 -2.0625 "/>
</g>
<g id="glyph-2-18">
<path d="M 3.296875 -3.09375 L 2.75 -3.09375 C 1.796875 -0.765625 1.75 -0.578125 1.71875 -0.40625 C 1.65625 -0.6875 1.46875 -1.171875 1.25 -1.703125 L 0.6875 -3.09375 L 0.109375 -3.09375 L 1.375 0 L 2.03125 0 Z M 3.296875 -3.09375 "/>
</g>
<g id="glyph-2-19">
<path d="M 1.34375 -3.09375 L 0.703125 -3.09375 L 0.703125 -2.46875 L 1.34375 -2.46875 Z M 0.703125 0.890625 L 1.015625 0.890625 L 1.34375 0 L 1.34375 -0.625 L 0.703125 -0.625 L 0.703125 0 L 0.90625 0 Z M 0.703125 0.890625 "/>
</g>
<g id="glyph-2-20">
<path d="M 3.5 -3.15625 C 3.359375 -3.15625 2.890625 -3.15625 2.359375 -2.953125 L 2.34375 -2.953125 C 2.09375 -3.109375 1.84375 -3.15625 1.640625 -3.15625 C 0.96875 -3.15625 0.453125 -2.625 0.453125 -2.03125 C 0.453125 -1.78125 0.53125 -1.53125 0.703125 -1.34375 C 0.59375 -1.21875 0.5 -1.03125 0.5 -0.765625 C 0.5 -0.484375 0.609375 -0.3125 0.671875 -0.234375 C 0.28125 0 0.203125 0.3125 0.203125 0.484375 C 0.203125 1.015625 0.9375 1.421875 1.84375 1.421875 C 2.765625 1.421875 3.484375 1.015625 3.484375 0.484375 C 3.484375 -0.5 2.265625 -0.5 1.96875 -0.5 L 1.3125 -0.5 C 1.203125 -0.5 0.90625 -0.5 0.90625 -0.859375 C 0.90625 -1 0.953125 -1.078125 0.96875 -1.09375 C 1.203125 -0.9375 1.453125 -0.890625 1.640625 -0.890625 C 2.328125 -0.890625 2.828125 -1.421875 2.828125 -2.015625 C 2.828125 -2.25 2.765625 -2.453125 2.640625 -2.640625 C 2.609375 -2.671875 2.609375 -2.6875 2.609375 -2.6875 C 2.609375 -2.71875 3.03125 -2.71875 3.0625 -2.71875 C 3.078125 -2.71875 3.34375 -2.71875 3.59375 -2.6875 Z M 1.640625 -1.3125 C 1.265625 -1.3125 0.984375 -1.546875 0.984375 -2.015625 C 0.984375 -2.5625 1.34375 -2.734375 1.640625 -2.734375 C 2.015625 -2.734375 2.296875 -2.5 2.296875 -2.03125 C 2.296875 -1.484375 1.9375 -1.3125 1.640625 -1.3125 Z M 1.96875 0.046875 C 2.125 0.046875 2.953125 0.046875 2.953125 0.484375 C 2.953125 0.78125 2.4375 1 1.84375 1 C 1.265625 1 0.734375 0.78125 0.734375 0.484375 C 0.734375 0.453125 0.734375 0.046875 1.296875 0.046875 Z M 1.96875 0.046875 "/>
</g>
<g id="glyph-2-21">
<path d="M 3.296875 -3.09375 L 2.734375 -3.09375 C 2.171875 -1.765625 1.78125 -0.859375 1.75 -0.4375 C 1.734375 -0.640625 1.609375 -0.984375 1.484375 -1.3125 C 1.375 -1.59375 1.265625 -1.875 1.140625 -2.140625 L 0.703125 -3.09375 L 0.109375 -3.09375 L 1.546875 0 C 1.46875 0.203125 1.328125 0.515625 1.28125 0.609375 C 1.140625 0.90625 1.03125 1 0.84375 1 C 0.828125 1 0.5625 1 0.265625 0.875 L 0.3125 1.359375 C 0.375 1.375 0.625 1.421875 0.84375 1.421875 C 1.125 1.421875 1.375 1.3125 1.671875 0.640625 Z M 3.296875 -3.09375 "/>
</g>
<g id="glyph-2-22">
<path d="M 2.078125 -1.890625 L 3.328125 -3.09375 L 2.640625 -3.09375 L 1.15625 -1.65625 L 1.15625 -4.84375 L 0.609375 -4.84375 L 0.609375 0 L 1.125 0 L 1.125 -0.96875 L 1.71875 -1.546875 L 2.875 0 L 3.484375 0 Z M 2.078125 -1.890625 "/>
</g>
<g id="glyph-3-0">
<path d="M 4.875 -3.265625 C 4.953125 -3.34375 4.96875 -3.390625 4.96875 -3.4375 C 4.96875 -3.546875 4.890625 -3.609375 4.8125 -3.609375 C 4.734375 -3.609375 4.71875 -3.59375 4.640625 -3.5 L 3.109375 -1.984375 L 1.578125 -3.515625 C 1.5 -3.578125 1.484375 -3.609375 1.421875 -3.609375 C 1.3125 -3.609375 1.234375 -3.53125 1.234375 -3.4375 C 1.234375 -3.375 1.265625 -3.359375 1.34375 -3.265625 L 2.859375 -1.75 L 1.34375 -0.234375 C 1.25 -0.125 1.234375 -0.09375 1.234375 -0.0625 C 1.234375 0.046875 1.3125 0.125 1.421875 0.125 C 1.484375 0.125 1.5 0.09375 1.578125 0.015625 L 3.109375 -1.5 L 4.703125 0.078125 C 4.734375 0.109375 4.765625 0.125 4.8125 0.125 C 4.890625 0.125 4.96875 0.0625 4.96875 -0.0625 C 4.96875 -0.109375 4.96875 -0.125 4.9375 -0.140625 C 4.921875 -0.171875 3.578125 -1.53125 3.359375 -1.734375 Z M 4.875 -3.265625 "/>
</g>
</g>
</defs>
<path fill-rule="nonzero" fill="rgb(97.529602%, 84.681702%, 84.681702%)" fill-opacity="1" stroke-width="0.79701" stroke-linecap="butt" stroke-linejoin="miter" stroke="rgb(0%, 0%, 0%)" stroke-opacity="1" stroke-miterlimit="10" d="M -0.000684414 56.694552 L -0.000684414 85.038847 L 56.691817 85.038847 L 56.691817 56.694552 Z M -0.000684414 56.694552 " transform="matrix(0.998465, 0, 0, -0.998465, 8.356152, 111.736422)"/>
<g fill="rgb(0%, 0%, 0%)" fill-opacity="1">
<use xlink:href="#glyph-0-0" x="17.025822" y="38.243421"/>
<use xlink:href="#glyph-0-1" x="22.427621" y="38.243421"/>
<use xlink:href="#glyph-0-0" x="25.481053" y="38.243421"/>
<use xlink:href="#glyph-0-2" x="30.882852" y="38.243421"/>
<use xlink:href="#glyph-0-3" x="35.248536" y="38.243421"/>
<use xlink:href="#glyph-0-4" x="39.379464" y="38.243421"/>
<use xlink:href="#glyph-0-5" x="43.607477" y="38.243421"/>
</g>
<g fill="rgb(0%, 0%, 0%)" fill-opacity="1">
<use xlink:href="#glyph-1-0" x="47.83549" y="38.243421"/>
</g>
<g fill="rgb(0%, 0%, 0%)" fill-opacity="1">
<use xlink:href="#glyph-0-4" x="52.063504" y="38.243421"/>
</g>
<g fill="rgb(0%, 0%, 0%)" fill-opacity="1">
<use xlink:href="#glyph-0-6" x="27.029441" y="47.692892"/>
<use xlink:href="#glyph-0-7" x="30.317631" y="47.692892"/>
</g>
<g fill="rgb(0%, 0%, 0%)" fill-opacity="1">
<use xlink:href="#glyph-0-8" x="37.362728" y="47.692892"/>
<use xlink:href="#glyph-0-9" x="42.999284" y="47.692892"/>
</g>
<path fill-rule="nonzero" fill="rgb(88.955688%, 88.392639%, 98.368835%)" fill-opacity="1" stroke-width="0.79701" stroke-linecap="butt" stroke-linejoin="miter" stroke="rgb(0%, 0%, 0%)" stroke-opacity="1" stroke-miterlimit="10" d="M 56.691817 56.694552 L 56.691817 85.038847 L 113.388231 85.038847 L 113.388231 56.694552 Z M 56.691817 56.694552 " transform="matrix(0.998465, 0, 0, -0.998465, 8.356152, 111.736422)"/>
<g fill="rgb(0%, 0%, 0%)" fill-opacity="1">
<use xlink:href="#glyph-0-1" x="77.569734" y="38.02276"/>
<use xlink:href="#glyph-0-10" x="80.623166" y="38.02276"/>
<use xlink:href="#glyph-0-11" x="83.511075" y="38.02276"/>
<use xlink:href="#glyph-0-11" x="87.268779" y="38.02276"/>
</g>
<g fill="rgb(0%, 0%, 0%)" fill-opacity="1">
<use xlink:href="#glyph-0-12" x="93.843567" y="38.02276"/>
<use xlink:href="#glyph-0-12" x="98.209251" y="38.02276"/>
<use xlink:href="#glyph-0-13" x="102.574936" y="38.02276"/>
<use xlink:href="#glyph-0-14" x="104.592254" y="38.02276"/>
</g>
<g fill="rgb(0%, 0%, 0%)" fill-opacity="1">
<use xlink:href="#glyph-0-6" x="81.520659" y="47.472231"/>
<use xlink:href="#glyph-0-5" x="84.808849" y="47.472231"/>
<use xlink:href="#glyph-0-15" x="89.036862" y="47.472231"/>
</g>
<g fill="rgb(0%, 0%, 0%)" fill-opacity="1">
<use xlink:href="#glyph-0-8" x="96.081959" y="47.472231"/>
<use xlink:href="#glyph-0-9" x="101.718515" y="47.472231"/>
</g>
<path fill-rule="nonzero" fill="rgb(80.674744%, 79.685974%, 97.143555%)" fill-opacity="1" stroke-width="0.79701" stroke-linecap="butt" stroke-linejoin="miter" stroke="rgb(0%, 0%, 0%)" stroke-opacity="1" stroke-miterlimit="10" d="M 113.388231 56.694552 L 113.388231 85.038847 L 158.743015 85.038847 L 158.743015 56.694552 Z M 113.388231 56.694552 " transform="matrix(0.998465, 0, 0, -0.998465, 8.356152, 111.736422)"/>
<g fill="rgb(0%, 0%, 0%)" fill-opacity="1">
<use xlink:href="#glyph-0-16" x="134.324471" y="38.527983"/>
<use xlink:href="#glyph-0-17" x="138.082175" y="38.527983"/>
<use xlink:href="#glyph-0-12" x="142.310188" y="38.527983"/>
<use xlink:href="#glyph-0-18" x="146.675873" y="38.527983"/>
<use xlink:href="#glyph-0-1" x="151.041557" y="38.527983"/>
</g>
<g fill="rgb(0%, 0%, 0%)" fill-opacity="1">
<use xlink:href="#glyph-0-12" x="131.55473" y="47.977454"/>
<use xlink:href="#glyph-0-15" x="135.920414" y="47.977454"/>
<use xlink:href="#glyph-0-19" x="140.148428" y="47.977454"/>
</g>
<g fill="rgb(0%, 0%, 0%)" fill-opacity="1">
<use xlink:href="#glyph-0-20" x="147.193525" y="47.977454"/>
<use xlink:href="#glyph-0-21" x="151.793967" y="47.977454"/>
</g>
<path fill-rule="nonzero" fill="rgb(88.61084%, 94.9646%, 94.398499%)" fill-opacity="1" stroke-width="0.79701" stroke-linecap="butt" stroke-linejoin="miter" stroke="rgb(0%, 0%, 0%)" stroke-opacity="1" stroke-miterlimit="10" d="M 158.743015 56.694552 L 158.743015 85.038847 L 181.418451 85.038847 L 181.418451 56.694552 Z M 158.743015 56.694552 " transform="matrix(0.998465, 0, 0, -0.998465, 8.356152, 111.736422)"/>
<g fill="rgb(0%, 0%, 0%)" fill-opacity="1">
<use xlink:href="#glyph-0-3" x="172.397932" y="39.017231"/>
</g>
<g fill="rgb(0%, 0%, 0%)" fill-opacity="1">
<use xlink:href="#glyph-0-11" x="176.298081" y="39.017231"/>
<use xlink:href="#glyph-0-22" x="180.055785" y="39.017231"/>
</g>
<g fill="rgb(0%, 0%, 0%)" fill-opacity="1">
<use xlink:href="#glyph-0-23" x="165.282872" y="48.466702"/>
<use xlink:href="#glyph-0-11" x="167.30019" y="48.466702"/>
<use xlink:href="#glyph-0-18" x="171.057894" y="48.466702"/>
</g>
<g fill="rgb(0%, 0%, 0%)" fill-opacity="1">
<use xlink:href="#glyph-0-12" x="178.240662" y="48.466702"/>
<use xlink:href="#glyph-0-24" x="182.606347" y="48.466702"/>
<use xlink:href="#glyph-0-25" x="186.83436" y="48.466702"/>
</g>
<path fill-rule="nonzero" fill="rgb(77.22168%, 89.927673%, 88.798523%)" fill-opacity="1" stroke-width="0.79701" stroke-linecap="butt" stroke-linejoin="miter" stroke="rgb(0%, 0%, 0%)" stroke-opacity="1" stroke-miterlimit="10" d="M 181.418451 56.694552 L 181.418451 85.038847 L 221.104376 85.038847 L 221.104376 56.694552 Z M 181.418451 56.694552 " transform="matrix(0.998465, 0, 0, -0.998465, 8.356152, 111.736422)"/>
<g fill="rgb(0%, 0%, 0%)" fill-opacity="1">
<use xlink:href="#glyph-0-3" x="193.083128" y="42.968156"/>
</g>
<g fill="rgb(0%, 0%, 0%)" fill-opacity="1">
<use xlink:href="#glyph-0-11" x="196.975319" y="42.968156"/>
<use xlink:href="#glyph-0-22" x="200.733023" y="42.968156"/>
</g>
<g fill="rgb(0%, 0%, 0%)" fill-opacity="1">
<use xlink:href="#glyph-0-26" x="207.454235" y="42.968156"/>
</g>
<g fill="rgb(0%, 0%, 0%)" fill-opacity="1">
<use xlink:href="#glyph-0-22" x="211.581184" y="42.968156"/>
<use xlink:href="#glyph-0-1" x="215.477354" y="42.968156"/>
<use xlink:href="#glyph-0-11" x="218.530787" y="42.968156"/>
<use xlink:href="#glyph-0-27" x="222.28849" y="42.968156"/>
</g>
<path fill-rule="nonzero" fill="rgb(88.61084%, 94.9646%, 94.398499%)" fill-opacity="1" stroke-width="0.79701" stroke-linecap="butt" stroke-linejoin="miter" stroke="rgb(0%, 0%, 0%)" stroke-opacity="1" stroke-miterlimit="10" d="M 221.104376 56.694552 L 221.104376 85.038847 L 243.783724 85.038847 L 243.783724 56.694552 Z M 221.104376 56.694552 " transform="matrix(0.998465, 0, 0, -0.998465, 8.356152, 111.736422)"/>
<g fill="rgb(0%, 0%, 0%)" fill-opacity="1">
<use xlink:href="#glyph-0-28" x="232.232933" y="38.02276"/>
<use xlink:href="#glyph-0-29" x="236.598618" y="38.02276"/>
<use xlink:href="#glyph-0-30" x="240.660312" y="38.02276"/>
<use xlink:href="#glyph-0-11" x="244.888325" y="38.02276"/>
</g>
<g fill="rgb(0%, 0%, 0%)" fill-opacity="1">
<use xlink:href="#glyph-0-23" x="227.549135" y="47.472231"/>
<use xlink:href="#glyph-0-11" x="229.566454" y="47.472231"/>
<use xlink:href="#glyph-0-18" x="233.324157" y="47.472231"/>
</g>
<g fill="rgb(0%, 0%, 0%)" fill-opacity="1">
<use xlink:href="#glyph-0-12" x="240.506926" y="47.472231"/>
<use xlink:href="#glyph-0-24" x="244.87261" y="47.472231"/>
<use xlink:href="#glyph-0-25" x="249.100624" y="47.472231"/>
</g>
<path fill-rule="nonzero" fill="rgb(77.22168%, 89.927673%, 88.798523%)" fill-opacity="1" stroke-width="0.79701" stroke-linecap="butt" stroke-linejoin="miter" stroke="rgb(0%, 0%, 0%)" stroke-opacity="1" stroke-miterlimit="10" d="M 243.783724 56.694552 L 243.783724 85.038847 L 294.807367 85.038847 L 294.807367 56.694552 Z M 243.783724 56.694552 " transform="matrix(0.998465, 0, 0, -0.998465, 8.356152, 111.736422)"/>
<g fill="rgb(0%, 0%, 0%)" fill-opacity="1">
<use xlink:href="#glyph-0-28" x="257.165599" y="42.968156"/>
<use xlink:href="#glyph-0-29" x="261.531283" y="42.968156"/>
<use xlink:href="#glyph-0-30" x="265.592977" y="42.968156"/>
<use xlink:href="#glyph-0-11" x="269.82099" y="42.968156"/>
</g>
<g fill="rgb(0%, 0%, 0%)" fill-opacity="1">
<use xlink:href="#glyph-0-31" x="276.395778" y="42.968156"/>
<use xlink:href="#glyph-0-32" x="280.388239" y="42.968156"/>
<use xlink:href="#glyph-0-33" x="285.085766" y="42.968156"/>
<use xlink:href="#glyph-0-34" x="291.330302" y="42.968156"/>
</g>
<path fill="none" stroke-width="0.3985" stroke-linecap="butt" stroke-linejoin="miter" stroke="rgb(5.097961%, 58.036804%, 53.33252%)" stroke-opacity="1" stroke-miterlimit="10" d="M 158.743015 87.875233 C 159.34159 89.072383 160.734353 89.866571 162.725692 89.866571 L 222.790558 89.866571 C 224.781896 89.866571 226.178572 90.664671 226.773235 91.861821 C 227.37181 90.664671 228.768485 89.866571 230.759824 89.866571 L 290.820778 89.866571 C 292.816028 89.866571 294.208791 89.072383 294.807367 87.875233 " transform="matrix(0.998465, 0, 0, -0.998465, 8.356152, 111.736422)"/>
<g fill="rgb(5.097961%, 58.036804%, 53.33252%)" fill-opacity="1">
<use xlink:href="#glyph-2-0" x="208.556337" y="16.144399"/>
<use xlink:href="#glyph-2-1" x="211.083244" y="16.144399"/>
<use xlink:href="#glyph-2-2" x="214.371217" y="16.144399"/>
</g>
<g fill="rgb(5.097961%, 58.036804%, 53.33252%)" fill-opacity="1">
<use xlink:href="#glyph-2-1" x="218.400063" y="16.144399"/>
<use xlink:href="#glyph-2-3" x="221.688036" y="16.144399"/>
<use xlink:href="#glyph-2-4" x="225.241999" y="16.144399"/>
<use xlink:href="#glyph-2-1" x="227.913738" y="16.144399"/>
<use xlink:href="#glyph-2-5" x="231.201711" y="16.144399"/>
</g>
<g fill="rgb(5.097961%, 58.036804%, 53.33252%)" fill-opacity="1">
<use xlink:href="#glyph-2-6" x="237.4866" y="16.144399"/>
<use xlink:href="#glyph-2-7" x="240.774573" y="16.144399"/>
<use xlink:href="#glyph-2-8" x="244.474065" y="16.144399"/>
<use xlink:href="#glyph-2-9" x="248.294018" y="16.144399"/>
<use xlink:href="#glyph-2-4" x="252.113972" y="16.144399"/>
</g>
<g fill="rgb(5.097961%, 58.036804%, 53.33252%)" fill-opacity="1">
<use xlink:href="#glyph-3-0" x="254.785711" y="16.144399"/>
</g>
<g fill="rgb(0%, 0%, 0%)" fill-opacity="1">
<use xlink:href="#glyph-1-1" x="309.050823" y="42.795422"/>
</g>
<g fill="rgb(0%, 0%, 0%)" fill-opacity="1">
<use xlink:href="#glyph-1-1" x="312.807731" y="42.795422"/>
</g>
<g fill="rgb(0%, 0%, 0%)" fill-opacity="1">
<use xlink:href="#glyph-1-1" x="316.564639" y="42.795422"/>
</g>
<path fill-rule="nonzero" fill="rgb(89.89563%, 90.664673%, 91.764832%)" fill-opacity="1" stroke-width="0.79701" stroke-linecap="butt" stroke-linejoin="miter" stroke="rgb(0%, 0%, 0%)" stroke-opacity="1" stroke-miterlimit="10" d="M -0.000684414 11.339768 L -0.000684414 39.684063 L 56.691817 39.684063 L 56.691817 11.339768 Z M -0.000684414 11.339768 " transform="matrix(0.998465, 0, 0, -0.998465, 8.356152, 111.736422)"/>
<g fill="rgb(0%, 0%, 0%)" fill-opacity="1">
<use xlink:href="#glyph-0-28" x="18.104164" y="84.301604"/>
<use xlink:href="#glyph-0-29" x="22.469849" y="84.301604"/>
<use xlink:href="#glyph-0-1" x="26.531543" y="84.301604"/>
<use xlink:href="#glyph-0-2" x="29.584975" y="84.301604"/>
<use xlink:href="#glyph-0-27" x="33.95066" y="84.301604"/>
</g>
<path fill="none" stroke-width="0.398" stroke-linecap="butt" stroke-linejoin="miter" stroke="rgb(0%, 0%, 0%)" stroke-opacity="1" stroke-miterlimit="10" d="M -0.000817334 0.00134945 L 2.542149 0.00134945 " transform="matrix(0.998465, 0, 0, -0.998465, 37.700035, 84.10291)"/>
<g fill="rgb(0%, 0%, 0%)" fill-opacity="1">
<use xlink:href="#glyph-0-26" x="40.236135" y="84.301604"/>
<use xlink:href="#glyph-0-23" x="44.60182" y="84.301604"/>
<use xlink:href="#glyph-0-17" x="46.619139" y="84.301604"/>
<use xlink:href="#glyph-0-26" x="50.847152" y="84.301604"/>
</g>
<g fill="rgb(0%, 0%, 0%)" fill-opacity="1">
<use xlink:href="#glyph-0-23" x="23.768455" y="93.752074"/>
<use xlink:href="#glyph-0-11" x="25.785774" y="93.752074"/>
<use xlink:href="#glyph-0-18" x="29.543477" y="93.752074"/>
</g>
<g fill="rgb(0%, 0%, 0%)" fill-opacity="1">
<use xlink:href="#glyph-0-12" x="36.726246" y="93.752074"/>
<use xlink:href="#glyph-0-15" x="41.09193" y="93.752074"/>
<use xlink:href="#glyph-0-19" x="45.319944" y="93.752074"/>
</g>
<path fill-rule="nonzero" fill="rgb(81.239319%, 82.66449%, 84.70459%)" fill-opacity="1" stroke-width="0.79701" stroke-linecap="butt" stroke-linejoin="miter" stroke="rgb(0%, 0%, 0%)" stroke-opacity="1" stroke-miterlimit="10" d="M 56.691817 11.339768 L 56.691817 39.684063 L 170.080733 39.684063 L 170.080733 11.339768 Z M 56.691817 11.339768 " transform="matrix(0.998465, 0, 0, -0.998465, 8.356152, 111.736422)"/>
<g fill="rgb(0%, 0%, 0%)" fill-opacity="1">
<use xlink:href="#glyph-0-27" x="50.295669" y="88.253528"/>
<use xlink:href="#glyph-0-11" x="53.536907" y="88.253528"/>
<use xlink:href="#glyph-0-10" x="57.29461" y="88.253528"/>
<use xlink:href="#glyph-0-13" x="60.182519" y="88.253528"/>
<use xlink:href="#glyph-0-29" x="62.199838" y="88.253528"/>
<use xlink:href="#glyph-0-23" x="66.261532" y="88.253528"/>
<use xlink:href="#glyph-0-13" x="68.278851" y="88.253528"/>
<use xlink:href="#glyph-0-35" x="70.296169" y="88.253528"/>
<use xlink:href="#glyph-0-11" x="73.971111" y="88.253528"/>
</g>
<path fill="none" stroke-width="0.398" stroke-linecap="butt" stroke-linejoin="miter" stroke="rgb(0%, 0%, 0%)" stroke-opacity="1" stroke-miterlimit="10" d="M -0.00133681 -0.00085362 L 2.54163 -0.00085362 " transform="matrix(0.998465, 0, 0, -0.998465, 78.23571, 88.053835)"/>
<g fill="rgb(0%, 0%, 0%)" fill-opacity="1">
<use xlink:href="#glyph-0-28" x="80.772809" y="88.253528"/>
<use xlink:href="#glyph-0-29" x="85.138493" y="88.253528"/>
<use xlink:href="#glyph-0-1" x="89.200187" y="88.253528"/>
<use xlink:href="#glyph-0-2" x="92.25362" y="88.253528"/>
<use xlink:href="#glyph-0-27" x="96.619304" y="88.253528"/>
</g>
<g fill="rgb(0%, 0%, 0%)" fill-opacity="1">
<use xlink:href="#glyph-0-26" x="102.677627" y="88.253528"/>
<use xlink:href="#glyph-0-23" x="107.043311" y="88.253528"/>
<use xlink:href="#glyph-0-17" x="109.06063" y="88.253528"/>
<use xlink:href="#glyph-0-26" x="113.288643" y="88.253528"/>
</g>
<g fill="rgb(0%, 0%, 0%)" fill-opacity="1">
<use xlink:href="#glyph-0-6" x="120.471412" y="88.253528"/>
<use xlink:href="#glyph-0-36" x="123.759601" y="88.253528"/>
<use xlink:href="#glyph-0-29" x="127.655772" y="88.253528"/>
<use xlink:href="#glyph-0-23" x="131.717466" y="88.253528"/>
<use xlink:href="#glyph-0-12" x="133.734784" y="88.253528"/>
<use xlink:href="#glyph-0-11" x="138.100469" y="88.253528"/>
<use xlink:href="#glyph-0-37" x="141.858173" y="88.253528"/>
<use xlink:href="#glyph-0-23" x="144.676848" y="88.253528"/>
<use xlink:href="#glyph-0-11" x="146.694167" y="88.253528"/>
<use xlink:href="#glyph-0-27" x="150.45187" y="88.253528"/>
<use xlink:href="#glyph-0-27" x="153.693109" y="88.253528"/>
</g>
<g fill="rgb(0%, 0%, 0%)" fill-opacity="1">
<use xlink:href="#glyph-0-38" x="159.751431" y="88.253528"/>
<use xlink:href="#glyph-0-29" x="166.466277" y="88.253528"/>
<use xlink:href="#glyph-0-18" x="170.527971" y="88.253528"/>
<use xlink:href="#glyph-0-13" x="174.893655" y="88.253528"/>
<use xlink:href="#glyph-0-39" x="176.910974" y="88.253528"/>
<use xlink:href="#glyph-0-11" x="179.494893" y="88.253528"/>
<use xlink:href="#glyph-0-27" x="183.252596" y="88.253528"/>
<use xlink:href="#glyph-0-1" x="186.493834" y="88.253528"/>
<use xlink:href="#glyph-0-9" x="189.547267" y="88.253528"/>
</g>
<g fill="rgb(27.842712%, 33.332825%, 41.175842%)" fill-opacity="1">
<use xlink:href="#glyph-2-0" x="187.347946" y="88.00491"/>
<use xlink:href="#glyph-2-1" x="189.874853" y="88.00491"/>
<use xlink:href="#glyph-2-10" x="193.162826" y="88.00491"/>
<use xlink:href="#glyph-2-8" x="196.982779" y="88.00491"/>
<use xlink:href="#glyph-2-11" x="200.802732" y="88.00491"/>
<use xlink:href="#glyph-2-12" x="202.567877" y="88.00491"/>
<use xlink:href="#glyph-2-4" x="204.333021" y="88.00491"/>
<use xlink:href="#glyph-2-13" x="207.00476" y="88.00491"/>
<use xlink:href="#glyph-2-14" x="209.471088" y="88.00491"/>
<use xlink:href="#glyph-2-0" x="211.732005" y="88.00491"/>
<use xlink:href="#glyph-2-7" x="214.258911" y="88.00491"/>
<use xlink:href="#glyph-2-15" x="217.958403" y="88.00491"/>
</g>
<g fill="rgb(27.842712%, 33.332825%, 41.175842%)" fill-opacity="1">
<use xlink:href="#glyph-2-11" x="226.298797" y="88.00491"/>
<use xlink:href="#glyph-2-16" x="228.063942" y="88.00491"/>
</g>
<g fill="rgb(27.842712%, 33.332825%, 41.175842%)" fill-opacity="1">
<use xlink:href="#glyph-2-4" x="233.364945" y="88.00491"/>
<use xlink:href="#glyph-2-17" x="236.036684" y="88.00491"/>
<use xlink:href="#glyph-2-1" x="239.856638" y="88.00491"/>
</g>
<g fill="rgb(27.842712%, 33.332825%, 41.175842%)" fill-opacity="1">
<use xlink:href="#glyph-2-18" x="245.609546" y="88.00491"/>
<use xlink:href="#glyph-2-3" x="249.018677" y="88.00491"/>
<use xlink:href="#glyph-2-12" x="252.57264" y="88.00491"/>
<use xlink:href="#glyph-2-8" x="254.337784" y="88.00491"/>
<use xlink:href="#glyph-2-1" x="258.157737" y="88.00491"/>
</g>
<g fill="rgb(27.842712%, 33.332825%, 41.175842%)" fill-opacity="1">
<use xlink:href="#glyph-2-16" x="263.917609" y="88.00491"/>
<use xlink:href="#glyph-2-1" x="266.753677" y="88.00491"/>
<use xlink:href="#glyph-2-6" x="270.04165" y="88.00491"/>
<use xlink:href="#glyph-2-4" x="273.329623" y="88.00491"/>
<use xlink:href="#glyph-2-11" x="276.001362" y="88.00491"/>
<use xlink:href="#glyph-2-7" x="277.766506" y="88.00491"/>
<use xlink:href="#glyph-2-9" x="281.465998" y="88.00491"/>
<use xlink:href="#glyph-2-19" x="285.285952" y="88.00491"/>
</g>
<g fill="rgb(27.842712%, 33.332825%, 41.175842%)" fill-opacity="1">
<use xlink:href="#glyph-2-4" x="289.805696" y="88.00491"/>
<use xlink:href="#glyph-2-17" x="292.477435" y="88.00491"/>
<use xlink:href="#glyph-2-11" x="296.297388" y="88.00491"/>
<use xlink:href="#glyph-2-16" x="298.062533" y="88.00491"/>
</g>
<g fill="rgb(27.842712%, 33.332825%, 41.175842%)" fill-opacity="1">
<use xlink:href="#glyph-2-11" x="303.363536" y="88.00491"/>
<use xlink:href="#glyph-2-16" x="305.128681" y="88.00491"/>
</g>
<g fill="rgb(27.842712%, 33.332825%, 41.175842%)" fill-opacity="1">
<use xlink:href="#glyph-2-4" x="310.429684" y="88.00491"/>
<use xlink:href="#glyph-2-17" x="313.101423" y="88.00491"/>
<use xlink:href="#glyph-2-1" x="316.921377" y="88.00491"/>
</g>
<g fill="rgb(27.842712%, 33.332825%, 41.175842%)" fill-opacity="1">
<use xlink:href="#glyph-2-11" x="322.674285" y="88.00491"/>
<use xlink:href="#glyph-2-9" x="324.439429" y="88.00491"/>
<use xlink:href="#glyph-2-4" x="328.259383" y="88.00491"/>
<use xlink:href="#glyph-2-1" x="330.931122" y="88.00491"/>
<use xlink:href="#glyph-2-20" x="334.219095" y="88.00491"/>
<use xlink:href="#glyph-2-0" x="337.918586" y="88.00491"/>
<use xlink:href="#glyph-2-11" x="340.445493" y="88.00491"/>
<use xlink:href="#glyph-2-4" x="342.210638" y="88.00491"/>
</g>
<g fill="rgb(27.842712%, 33.332825%, 41.175842%)" fill-opacity="1">
<use xlink:href="#glyph-2-21" x="344.680447" y="88.00491"/>
</g>
<g fill="rgb(27.842712%, 33.332825%, 41.175842%)" fill-opacity="1">
<use xlink:href="#glyph-2-6" x="350.554513" y="88.00491"/>
<use xlink:href="#glyph-2-0" x="353.842486" y="88.00491"/>
<use xlink:href="#glyph-2-7" x="356.369393" y="88.00491"/>
<use xlink:href="#glyph-2-16" x="360.068885" y="88.00491"/>
<use xlink:href="#glyph-2-16" x="362.904953" y="88.00491"/>
<use xlink:href="#glyph-2-13" x="365.741021" y="88.00491"/>
<use xlink:href="#glyph-2-6" x="368.207349" y="88.00491"/>
<use xlink:href="#glyph-2-17" x="371.495322" y="88.00491"/>
<use xlink:href="#glyph-2-1" x="375.315275" y="88.00491"/>
<use xlink:href="#glyph-2-6" x="378.603248" y="88.00491"/>
<use xlink:href="#glyph-2-22" x="381.891221" y="88.00491"/>
</g>
</svg>
