<svg xmlns="http://www.w3.org/2000/svg" xmlns:xlink="http://www.w3.org/1999/xlink" contentStyleType="text/css" data-diagram-type="DESCRIPTION" height="643px" preserveAspectRatio="none" style="width:666px;height:643px;" version="1.1" viewBox="0 0 666 643" width="666px" zoomAndPan="magnify"><?plantuml $version$?><defs/><g><!--cluster context-tape crate ? data plane--><g class="cluster" data-qualified-name="context-tape crate . data plane" data-source-line="7" id="ent0001"><path d="M8.5,435.872 L224.6792,435.872 A3.75,3.75 0 0 1 227.1792,438.372 L234.1792,460.9399 L277.5,460.9399 A2.5,2.5 0 0 1 280,463.4399 L280,625.512 A2.5,2.5 0 0 1 277.5,628.012 L8.5,628.012 A2.5,2.5 0 0 1 6,625.512 L6,438.372 A2.5,2.5 0 0 1 8.5,435.872" fill="#CCFBF1" style="stroke:#000000;stroke-width:1.5;"/><line style="stroke:#000000;stroke-width:1.5;" x1="6" x2="234.1792" y1="460.9399" y2="460.9399"/><text fill="#000000" font-family="Inter" font-size="14" font-weight="700" lengthAdjust="spacing" textLength="215.1792" x="10" y="452.8379">context-tape crate &#183; data plane</text></g><!--cluster pgmcp/src/tape ? control plane--><g class="cluster" data-qualified-name="pgmcp.src.tape . control plane" data-source-line="14" id="ent0006"><path d="M35.5,6.602 L251.7632,6.602 A3.75,3.75 0 0 1 254.2632,9.102 L261.2632,31.6699 L457.5,31.6699 A2.5,2.5 0 0 1 460,34.1699 L460,394.372 A2.5,2.5 0 0 1 457.5,396.872 L35.5,396.872 A2.5,2.5 0 0 1 33,394.372 L33,9.102 A2.5,2.5 0 0 1 35.5,6.602" fill="#E0E7FF" style="stroke:#000000;stroke-width:1.5;"/><line style="stroke:#000000;stroke-width:1.5;" x1="33" x2="261.2632" y1="31.6699" y2="31.6699"/><text fill="#000000" font-family="Inter" font-size="14" font-weight="700" lengthAdjust="spacing" textLength="215.2632" x="37" y="23.5679">pgmcp/src/tape &#183; control plane</text></g><!--cluster PostgreSQL--><g class="cluster" data-qualified-name="PostgreSQL" data-source-line="26" id="ent0016"><path d="M304,430.872 C304,420.872 472.5,420.872 472.5,420.872 C472.5,420.872 641,420.872 641,430.872 L641,518.942 C641,528.942 472.5,528.942 472.5,528.942 C472.5,528.942 304,528.942 304,518.942 L304,430.872" fill="#E2E8F0" style="stroke:#181818;stroke-width:1;"/><path d="M304,430.872 C304,440.872 472.5,440.872 472.5,440.872 C472.5,440.872 641,440.872 641,430.872" fill="none" style="stroke:#181818;stroke-width:1;"/><text fill="#000000" font-family="Inter" font-size="14" font-weight="700" lengthAdjust="spacing" textLength="80.6257" x="432.1871" y="457.8379">PostgreSQL</text></g><!--entity ADDR--><g class="entity" data-qualified-name="context-tape crate . data plane.ADDR" data-source-line="8" id="ent0002"><rect fill="#F1F1F1" height="39.0679" rx="2.5" ry="2.5" style="stroke:#181818;stroke-width:0.5;" width="106.0857" x="28.96" y="473.872"/><text fill="#000000" font-family="Inter" font-size="14" lengthAdjust="spacing" textLength="86.0857" x="38.96" y="498.8379">PageAddress</text></g><!--entity TS--><g class="entity" data-qualified-name="context-tape crate . data plane.TS" data-source-line="9" id="ent0003"><rect fill="#F1F1F1" height="39.0679" rx="2.5" ry="2.5" style="stroke:#181818;stroke-width:0.5;" width="87.0318" x="170.48" y="473.872"/><text fill="#000000" font-family="Inter" font-size="14" lengthAdjust="spacing" textLength="67.0318" x="180.48" y="498.8379">TapeStore</text></g><!--entity OOC--><g class="entity" data-qualified-name="context-tape crate . data plane.OOC" data-source-line="10" id="ent0004"><rect fill="#F1F1F1" height="39.0679" rx="2.5" ry="2.5" style="stroke:#181818;stroke-width:0.5;" width="96.4537" x="21.77" y="572.942"/><text fill="#000000" font-family="Inter" font-size="14" lengthAdjust="spacing" textLength="76.4537" x="31.77" y="597.9079">OocOverlay</text></g><!--entity AI--><g class="entity" data-qualified-name="context-tape crate . data plane.AI" data-source-line="11" id="ent0005"><rect fill="#F1F1F1" height="39.0679" rx="2.5" ry="2.5" style="stroke:#181818;stroke-width:0.5;" width="110.5657" x="153.72" y="572.942"/><text fill="#000000" font-family="Inter" font-size="14" lengthAdjust="spacing" textLength="90.5657" x="163.72" y="597.9079">AddressIndex</text></g><!--entity ENG--><g class="entity" data-qualified-name="pgmcp.src.tape . control plane.ENG" data-source-line="15" id="ent0007"><rect fill="#F1F1F1" height="39.0679" rx="2.5" ry="2.5" style="stroke:#181818;stroke-width:0.5;" width="111.0136" x="218.49" y="44.602"/><text fill="#000000" font-family="Inter" font-size="14" lengthAdjust="spacing" textLength="91.0136" x="228.49" y="69.5679">PagingEngine</text></g><!--entity WS--><g class="entity" data-qualified-name="pgmcp.src.tape . control plane.WS" data-source-line="16" id="ent0008"><rect fill="#F1F1F1" height="39.0679" rx="2.5" ry="2.5" style="stroke:#181818;stroke-width:0.5;" width="96.2577" x="247.87" y="242.742"/><text fill="#000000" font-family="Inter" font-size="14" lengthAdjust="spacing" textLength="76.2577" x="257.87" y="267.7079">WorkingSet</text></g><!--entity STORE--><g class="entity" data-qualified-name="pgmcp.src.tape . control plane.STORE" data-source-line="17" id="ent0009"><rect fill="#F1F1F1" height="39.0679" rx="2.5" ry="2.5" style="stroke:#181818;stroke-width:0.5;" width="53.9079" x="279.05" y="143.672"/><text fill="#000000" font-family="Inter" font-size="14" lengthAdjust="spacing" textLength="33.9079" x="289.05" y="168.6379">store</text></g><!--entity SEAM--><g class="entity" data-qualified-name="pgmcp.src.tape . control plane.SEAM" data-source-line="18" id="ent0010"><rect fill="#F1F1F1" height="39.0679" rx="2.5" ry="2.5" style="stroke:#181818;stroke-width:0.5;" width="158.7955" x="48.6" y="143.672"/><text fill="#000000" font-family="Inter" font-size="14" lengthAdjust="spacing" textLength="138.7955" x="58.6" y="168.6379">TapeDataPlane seam</text></g><!--entity REAL--><g class="entity" data-qualified-name="pgmcp.src.tape . control plane.REAL" data-source-line="19" id="ent0011"><rect fill="#F1F1F1" height="39.0679" rx="2.5" ry="2.5" style="stroke:#181818;stroke-width:0.5;" width="147.6795" x="59.16" y="242.742"/><text fill="#000000" font-family="Inter" font-size="14" lengthAdjust="spacing" textLength="127.6795" x="69.16" y="267.7079">RealTapeDataPlane</text></g><!--entity REG--><g class="entity" data-qualified-name="pgmcp.src.tape . control plane.REG" data-source-line="20" id="ent0012"><rect fill="#F1F1F1" height="39.0679" rx="2.5" ry="2.5" style="stroke:#181818;stroke-width:0.5;" width="70.5818" x="209.71" y="341.812"/><text fill="#000000" font-family="Inter" font-size="14" lengthAdjust="spacing" textLength="50.5818" x="219.71" y="366.7779">registry</text></g><!--entity HYD--><g class="entity" data-qualified-name="pgmcp.src.tape . control plane.HYD" data-source-line="21" id="ent0013"><rect fill="#F1F1F1" height="39.0679" rx="2.5" ry="2.5" style="stroke:#181818;stroke-width:0.5;" width="70.9878" x="330.51" y="341.812"/><text fill="#000000" font-family="Inter" font-size="14" lengthAdjust="spacing" textLength="50.9878" x="340.51" y="366.7779">hydrate</text></g><!--entity AR--><g class="entity" data-qualified-name="pgmcp.src.tape . control plane.AR" data-source-line="22" id="ent0014"><rect fill="#F1F1F1" height="39.0679" rx="2.5" ry="2.5" style="stroke:#181818;stroke-width:0.5;" width="125.8536" x="49.07" y="341.812"/><text fill="#000000" font-family="Inter" font-size="14" lengthAdjust="spacing" textLength="105.8536" x="59.07" y="366.7779">address_resolve</text></g><!--entity PF--><g class="entity" data-qualified-name="pgmcp.src.tape . control plane.PF" data-source-line="23" id="ent0015"><rect fill="#F1F1F1" height="39.0679" rx="2.5" ry="2.5" style="stroke:#181818;stroke-width:0.5;" width="75.4258" x="368.29" y="143.672"/><text fill="#000000" font-family="Inter" font-size="14" lengthAdjust="spacing" textLength="55.4258" x="378.29" y="168.6379">prefetch</text></g><!--entity FC--><g class="entity" data-qualified-name="PostgreSQL.FC" data-source-line="27" id="ent0017"><rect fill="#F1F1F1" height="39.0679" rx="2.5" ry="2.5" style="stroke:#181818;stroke-width:0.5;" width="124.6916" x="319.65" y="473.872"/><text fill="#000000" font-family="Inter" font-size="14" lengthAdjust="spacing" textLength="104.6916" x="329.65" y="498.8379">file_chunks (RO)</text></g><!--entity WSP--><g class="entity" data-qualified-name="PostgreSQL.WSP" data-source-line="28" id="ent0018"><rect fill="#F1F1F1" height="39.0679" rx="2.5" ry="2.5" style="stroke:#181818;stroke-width:0.5;" width="145.3695" x="479.32" y="473.872"/><text fill="#000000" font-family="Inter" font-size="14" lengthAdjust="spacing" textLength="125.3695" x="489.32" y="498.8379">working_set_pages</text></g><!--link ENG to WS--><g class="link" data-entity-1="ent0007" data-entity-2="ent0008" data-link-type="dependency" data-source-line="31" id="lnk19"><path d="M268.56,84.062 C262.63,107.452 254.88,148.372 262,182.742 C266.43,204.122 274.6417,222.4224 282.8317,237.9024" fill="none" id="ENG-to-WS" style="stroke:#181818;stroke-width:1;"/><polygon fill="#181818" points="285.17,242.322,284.4968,232.4962,282.8317,237.9024,277.4255,236.2374,285.17,242.322" style="stroke:#181818;stroke-width:1;stroke-linejoin:miter;stroke-miterlimit:10;"/></g><!--link ENG to SEAM--><g class="link" data-entity-1="ent0007" data-entity-2="ent0010" data-link-type="dependency" data-source-line="32" id="lnk20"><path d="M245.5,84.082 C219.78,101.192 186.294,123.4541 160.584,140.5441" fill="none" id="ENG-to-SEAM" style="stroke:#181818;stroke-width:1;"/><polygon fill="#181818" points="156.42,143.312,166.1295,141.661,160.584,140.5441,161.7009,134.9986,156.42,143.312" style="stroke:#181818;stroke-width:1;stroke-linejoin:miter;stroke-miterlimit:10;"/></g><!--link ENG to STORE--><g class="link" data-entity-1="ent0007" data-entity-2="ent0009" data-link-type="dependency" data-source-line="33" id="lnk21"><path d="M280.17,83.852 C285.8,100.932 292.5138,121.3036 298.1738,138.4636" fill="none" id="ENG-to-STORE" style="stroke:#181818;stroke-width:1;"/><polygon fill="#181818" points="299.74,143.212,300.7196,133.412,298.1738,138.4636,293.1222,135.9179,299.74,143.212" style="stroke:#181818;stroke-width:1;stroke-linejoin:miter;stroke-miterlimit:10;"/></g><!--link ENG to PF--><g class="link" data-entity-1="ent0007" data-entity-2="ent0015" data-link-type="dependency" data-source-line="34" id="lnk22"><path d="M299.76,84.082 C323.02,101.192 353.0319,123.2598 376.2719,140.3498" fill="none" id="ENG-to-PF" style="stroke:#181818;stroke-width:1;stroke-dasharray:7,7;"/><polygon fill="#181818" points="380.3,143.312,375.4191,134.7576,376.2719,140.3498,370.6797,141.2026,380.3,143.312" style="stroke:#181818;stroke-width:1;stroke-linejoin:miter;stroke-miterlimit:10;"/></g><!--reverse link SEAM to REAL--><g class="link" data-entity-1="ent0010" data-entity-2="ent0011" data-link-type="extension" data-source-line="35" id="lnk23"><path d="M129.8862,200.8981 C130.7662,217.9781 131.14,225.122 132.02,242.282" fill="none" id="SEAM-backto-REAL" style="stroke:#181818;stroke-width:1;stroke-dasharray:7,7;"/><polygon fill="none" points="128.96,182.922,123.8941,201.2069,135.8782,200.5894,128.96,182.922" style="stroke:#181818;stroke-width:1;stroke-linejoin:miter;stroke-miterlimit:10;"/></g><!--link REAL to REG--><g class="link" data-entity-1="ent0011" data-entity-2="ent0012" data-link-type="dependency" data-source-line="36" id="lnk24"><path d="M154.86,282.222 C174.6,299.322 199.7023,321.0765 219.4123,338.1665" fill="none" id="REAL-to-REG" style="stroke:#181818;stroke-width:1;"/><polygon fill="#181818" points="223.19,341.442,219.0106,332.5239,219.4123,338.1665,213.7697,338.5682,223.19,341.442" style="stroke:#181818;stroke-width:1;stroke-linejoin:miter;stroke-miterlimit:10;"/></g><!--link REAL to HYD--><g class="link" data-entity-1="ent0011" data-entity-2="ent0013" data-link-type="dependency" data-source-line="37" id="lnk25"><path d="M178.48,282.222 C222.84,300.702 284.8144,326.5194 325.5544,343.4894" fill="none" id="REAL-to-HYD" style="stroke:#181818;stroke-width:1;"/><polygon fill="#181818" points="330.17,345.412,323.4,338.2588,325.5544,343.4894,320.3239,345.6438,330.17,345.412" style="stroke:#181818;stroke-width:1;stroke-linejoin:miter;stroke-miterlimit:10;"/></g><!--link REAL to AR--><g class="link" data-entity-1="ent0011" data-entity-2="ent0014" data-link-type="dependency" data-source-line="38" id="lnk26"><path d="M128.95,281.992 C125.26,299.072 120.8766,319.3049 117.1666,336.4649" fill="none" id="REAL-to-AR" style="stroke:#181818;stroke-width:1;"/><polygon fill="#181818" points="116.11,341.352,121.9215,333.4005,117.1666,336.4649,114.1022,331.71,116.11,341.352" style="stroke:#181818;stroke-width:1;stroke-linejoin:miter;stroke-miterlimit:10;"/></g><!--link REG to TS--><g class="link" data-entity-1="ent0012" data-entity-2="ent0003" data-link-type="dependency" data-source-line="39" id="lnk27"><path d="M240.49,381.252 C234.61,405.912 225.5493,443.9382 219.6693,468.6082" fill="none" id="REG-to-TS" style="stroke:#181818;stroke-width:1;"/><polygon fill="#181818" points="218.51,473.472,224.4877,465.6446,219.6693,468.6082,216.7057,463.7898,218.51,473.472" style="stroke:#181818;stroke-width:1;stroke-linejoin:miter;stroke-miterlimit:10;"/></g><!--link TS to AI--><g class="link" data-entity-1="ent0003" data-entity-2="ent0005" data-link-type="dependency" data-source-line="40" id="lnk28"><path d="M213.04,513.122 C212.16,530.202 211.1159,550.3285 210.2359,567.4985" fill="none" id="TS-to-AI" style="stroke:#181818;stroke-width:1;"/><polygon fill="#181818" points="209.98,572.492,214.4354,563.7085,210.2359,567.4985,206.4459,563.299,209.98,572.492" style="stroke:#181818;stroke-width:1;stroke-linejoin:miter;stroke-miterlimit:10;"/></g><!--link TS to OOC--><g class="link" data-entity-1="ent0003" data-entity-2="ent0004" data-link-type="dependency" data-source-line="41" id="lnk29"><path d="M187.08,513.412 C176.5,520.822 164.23,529.342 153,536.942 C135.3,548.932 119.4595,559.3729 103.5095,569.7629" fill="none" id="TS-to-OOC" style="stroke:#181818;stroke-width:1;"/><polygon fill="#181818" points="99.32,572.492,109.0444,570.9312,103.5095,569.7629,104.6779,564.228,99.32,572.492" style="stroke:#181818;stroke-width:1;stroke-linejoin:miter;stroke-miterlimit:10;"/></g><!--link AR to ADDR--><g class="link" data-entity-1="ent0014" data-entity-2="ent0002" data-link-type="dependency" data-source-line="42" id="lnk30"><path d="M107.64,381.252 C101.95,405.912 93.1837,443.9299 87.4937,468.5999" fill="none" id="AR-to-ADDR" style="stroke:#181818;stroke-width:1;"/><polygon fill="#181818" points="86.37,473.472,92.2904,465.6012,87.4937,468.5999,84.495,463.8032,86.37,473.472" style="stroke:#181818;stroke-width:1;stroke-linejoin:miter;stroke-miterlimit:10;"/></g><!--link HYD to FC--><g class="link" data-entity-1="ent0013" data-entity-2="ent0017" data-link-type="dependency" data-source-line="43" id="lnk31"><path d="M368.33,381.252 C371.36,405.912 376.0305,443.8393 379.0605,468.5093" fill="none" id="HYD-to-FC" style="stroke:#181818;stroke-width:1;"/><polygon fill="#181818" points="379.67,473.472,382.543,464.0515,379.0605,468.5093,374.6027,465.0267,379.67,473.472" style="stroke:#181818;stroke-width:1;stroke-linejoin:miter;stroke-miterlimit:10;"/></g><!--link STORE to WSP--><g class="link" data-entity-1="ent0009" data-entity-2="ent0018" data-link-type="dependency" data-source-line="44" id="lnk32"><path d="M319.93,182.792 C363.13,240.422 491.511,411.7112 534.921,469.6212" fill="none" id="STORE-to-WSP" style="stroke:#181818;stroke-width:1;"/><polygon fill="#181818" points="537.92,473.622,535.7224,464.0214,534.921,469.6212,529.3212,468.8198,537.92,473.622" style="stroke:#181818;stroke-width:1;stroke-linejoin:miter;stroke-miterlimit:10;"/></g><!--link STORE to WS--><g class="link" data-entity-1="ent0009" data-entity-2="ent0008" data-link-type="dependency" data-source-line="45" id="lnk33"><path d="M304.07,182.922 C302.31,200.002 300.2301,220.1481 298.4701,237.3081" fill="none" id="STORE-to-WS" style="stroke:#181818;stroke-width:1;"/><polygon fill="#181818" points="297.96,242.282,302.8574,233.7371,298.4701,237.3081,294.8991,232.9208,297.96,242.282" style="stroke:#181818;stroke-width:1;stroke-linejoin:miter;stroke-miterlimit:10;"/></g><?plantuml-src LL9DRnen4BtpAqRfeU40INjf3rMaLO0MASbkTv6YgAhGOCz-26DRjac2clwktllBClO2WelbUS_ZUU_P7-7UoAqYa6H9Iz9Y1ur3sm8APxo7q3A70S4gr0INWL0D0RK4ONHmHXs8JikkCSFnmAyxRT7X1bOereqpMorlZJ8EWaFjcI8TJau9ix56CrQ57Gjn90BgHj794KarRbMOySG7t13CTI1tmliMfNdfT0CrAa-3WUN9s11SH97q6aO1BO5m60Z-_pinT04VXAXNzIVuCm3uLN1J9gKZxty3UiWcapBY2swlWd6Kq4KLiTo8_9cSmbq2y_msellkEMVvsbyn7_mz4MIRZR1Ntech98d5dEN8UkYQljJrKG-xccfU-z7JX-yHVpIEpJSLXOG-9a7-AB1QvENqe7l2PelqHfvmq_FJx3xI9J_csP74bjFiBhAEciu7jzk3QN2xap741FrucaG8UyTBNenwxgaifMOTrHH4cw1Y5dE8oQ_GSn25yQ5nLFsyYvu_qzVwklTSTugMejtgjOVBCX-cxbaAzwMtlVGKbfRZz7ltHRoQeu7Hw2Q6STWcdySYXHAhyVWcoeaiV7iRZtl7SKa7ezLZ4KqU2xR5PDho7rXKFJW_xE8NoCeUZ1-7UrF1ujFmlRpYh7e7?></g></svg>