<?xml version="1.0" encoding="UTF-8" standalone="no"?>
<!DOCTYPE svg PUBLIC "-//W3C//DTD SVG 1.1//EN"
 "http://www.w3.org/Graphics/SVG/1.1/DTD/svg11.dtd">
<!-- Generated by graphviz version 14.1.5 (0)
 -->
<!-- Title: criterion Pages: 1 -->
<svg width="732pt" height="142pt"
 viewBox="0.00 0.00 732.00 142.00" xmlns="http://www.w3.org/2000/svg" xmlns:xlink="http://www.w3.org/1999/xlink">
<g id="graph0" class="graph" transform="scale(1 1) rotate(0) translate(4 137.75)">
<title>criterion</title>
<!-- root -->
<g id="node1" class="node">
<title>root</title>
<path fill="#fde68a" stroke="#b45309" d="M436.25,-133.75C436.25,-133.75 271.75,-133.75 271.75,-133.75 265.75,-133.75 259.75,-127.75 259.75,-121.75 259.75,-121.75 259.75,-103.25 259.75,-103.25 259.75,-97.25 265.75,-91.25 271.75,-91.25 271.75,-91.25 436.25,-91.25 436.25,-91.25 442.25,-91.25 448.25,-97.25 448.25,-103.25 448.25,-103.25 448.25,-121.75 448.25,-121.75 448.25,-127.75 442.25,-133.75 436.25,-133.75"/>
<text xml:space="preserve" text-anchor="middle" x="354" y="-118.35" font-family="Inter" font-size="12.00">AllOf &#160;(frozen before any data)</text>
<text xml:space="preserve" text-anchor="middle" x="354" y="-101.1" font-family="Inter" font-size="12.00">ACCEPT iff every clause passes</text>
</g>
<!-- c1 -->
<g id="node2" class="node">
<title>c1</title>
<path fill="#dcfce7" stroke="#15803d" d="M148,-55.25C148,-55.25 12,-55.25 12,-55.25 6,-55.25 0,-49.25 0,-43.25 0,-43.25 0,-12 0,-12 0,-6 6,0 12,0 12,0 148,0 148,0 154,0 160,-6 160,-12 160,-12 160,-43.25 160,-43.25 160,-49.25 154,-55.25 148,-55.25"/>
<text xml:space="preserve" text-anchor="middle" x="80" y="-40.8" font-family="Inter" font-size="11.00">accuracy</text>
<text xml:space="preserve" text-anchor="middle" x="80" y="-25.05" font-family="Inter" font-size="11.00">Welch&#45;t: treatment &gt; control</text>
<text xml:space="preserve" text-anchor="middle" x="80" y="-9.3" font-family="Inter" font-size="11.00">(one&#45;sided, α = 0.05)</text>
</g>
<!-- root&#45;&gt;c1 -->
<g id="edge1" class="edge">
<title>root&#45;&gt;c1</title>
<path fill="none" stroke="#475569" d="M285.57,-90.8C250.05,-80.06 206.25,-66.81 168.22,-55.31"/>
<polygon fill="#475569" stroke="#475569" points="169.05,-53 161.64,-53.32 167.64,-57.69 169.05,-53"/>
</g>
<!-- c2 -->
<g id="node3" class="node">
<title>c2</title>
<path fill="#dcfce7" stroke="#15803d" d="M330.25,-55.25C330.25,-55.25 189.75,-55.25 189.75,-55.25 183.75,-55.25 177.75,-49.25 177.75,-43.25 177.75,-43.25 177.75,-12 177.75,-12 177.75,-6 183.75,0 189.75,0 189.75,0 330.25,0 330.25,0 336.25,0 342.25,-6 342.25,-12 342.25,-12 342.25,-43.25 342.25,-43.25 342.25,-49.25 336.25,-55.25 330.25,-55.25"/>
<text xml:space="preserve" text-anchor="middle" x="260" y="-40.8" font-family="Inter" font-size="11.00">cost</text>
<text xml:space="preserve" text-anchor="middle" x="260" y="-25.05" font-family="Inter" font-size="11.00">TOST&#45;equivalent within ±20%</text>
<text xml:space="preserve" text-anchor="middle" x="260" y="-9.3" font-family="Inter" font-size="11.00">(α = 0.05)</text>
</g>
<!-- root&#45;&gt;c2 -->
<g id="edge2" class="edge">
<title>root&#45;&gt;c2</title>
<path fill="none" stroke="#475569" d="M330.76,-91.01C320.49,-81.95 308.16,-71.08 296.69,-60.97"/>
<polygon fill="#475569" stroke="#475569" points="298.43,-59.24 291.56,-56.45 295.19,-62.91 298.43,-59.24"/>
</g>
<!-- c3 -->
<g id="node4" class="node">
<title>c3</title>
<path fill="#dcfce7" stroke="#15803d" d="M526,-47.38C526,-47.38 372,-47.38 372,-47.38 366,-47.38 360,-41.38 360,-35.38 360,-35.38 360,-19.88 360,-19.88 360,-13.88 366,-7.88 372,-7.88 372,-7.88 526,-7.88 526,-7.88 532,-7.88 538,-13.88 538,-19.88 538,-19.88 538,-35.38 538,-35.38 538,-41.38 532,-47.38 526,-47.38"/>
<text xml:space="preserve" text-anchor="middle" x="449" y="-32.92" font-family="Inter" font-size="11.00">p95 latency</text>
<text xml:space="preserve" text-anchor="middle" x="449" y="-17.18" font-family="Inter" font-size="11.00">treatment p95 ≤ 30 000 ms SLO</text>
</g>
<!-- root&#45;&gt;c3 -->
<g id="edge3" class="edge">
<title>root&#45;&gt;c3</title>
<path fill="none" stroke="#475569" d="M377.48,-91.01C390.63,-79.54 407.12,-65.16 420.95,-53.1"/>
<polygon fill="#475569" stroke="#475569" points="422.28,-55.18 425.95,-48.73 419.06,-51.49 422.28,-55.18"/>
</g>
<!-- c4 -->
<g id="node5" class="node">
<title>c4</title>
<path fill="#dcfce7" stroke="#15803d" d="M712.12,-55.25C712.12,-55.25 567.88,-55.25 567.88,-55.25 561.88,-55.25 555.88,-49.25 555.88,-43.25 555.88,-43.25 555.88,-12 555.88,-12 555.88,-6 561.88,0 567.88,0 567.88,0 712.12,0 712.12,0 718.12,0 724.12,-6 724.12,-12 724.12,-12 724.12,-43.25 724.12,-43.25 724.12,-49.25 718.12,-55.25 712.12,-55.25"/>
<text xml:space="preserve" text-anchor="middle" x="640" y="-40.8" font-family="Inter" font-size="11.00">max&#45;context&#45;handled</text>
<text xml:space="preserve" text-anchor="middle" x="640" y="-25.05" font-family="Inter" font-size="11.00">treatment ≥ 2× baseline</text>
<text xml:space="preserve" text-anchor="middle" x="640" y="-9.3" font-family="Inter" font-size="11.00">(RelativeImprovement +100%)</text>
</g>
<!-- root&#45;&gt;c4 -->
<g id="edge4" class="edge">
<title>root&#45;&gt;c4</title>
<path fill="none" stroke="#475569" d="M425.43,-90.8C462.43,-80.08 508.03,-66.87 547.67,-55.38"/>
<polygon fill="#475569" stroke="#475569" points="548.02,-57.83 554.06,-53.53 546.65,-53.12 548.02,-57.83"/>
</g>
</g>
</svg>
