<?xml version="1.0" encoding="UTF-8" standalone="no"?>
<!DOCTYPE svg PUBLIC "-//W3C//DTD SVG 1.1//EN"
 "http://www.w3.org/Graphics/SVG/1.1/DTD/svg11.dtd">
<!-- Generated by graphviz version 14.1.5 (0)
 -->
<!-- Title: demotion Pages: 1 -->
<svg width="304pt" height="389pt"
 viewBox="0.00 0.00 304.00 389.00" xmlns="http://www.w3.org/2000/svg" xmlns:xlink="http://www.w3.org/1999/xlink">
<g id="graph0" class="graph" transform="scale(1 1) rotate(0) translate(4 385.25)">
<title>demotion</title>
<!-- leaves -->
<g id="node1" class="node">
<title>leaves</title>
<path fill="#e5e7eb" stroke="#6b7280" d="M221.25,-381.25C221.25,-381.25 74.75,-381.25 74.75,-381.25 68.75,-381.25 62.75,-375.25 62.75,-369.25 62.75,-369.25 62.75,-357.25 62.75,-357.25 62.75,-351.25 68.75,-345.25 74.75,-345.25 74.75,-345.25 221.25,-345.25 221.25,-345.25 227.25,-345.25 233.25,-351.25 233.25,-357.25 233.25,-357.25 233.25,-369.25 233.25,-369.25 233.25,-375.25 227.25,-381.25 221.25,-381.25"/>
<text xml:space="preserve" text-anchor="middle" x="148" y="-360.68" font-family="Inter" font-size="11.00">evicted leaf &#160;(est_tokens freed)</text>
</g>
<!-- sum -->
<g id="node2" class="node">
<title>sum</title>
<path fill="#ede9fe" stroke="#7c3aed" d="M223.88,-308.25C223.88,-308.25 72.12,-308.25 72.12,-308.25 66.12,-308.25 60.12,-302.25 60.12,-296.25 60.12,-296.25 60.12,-280.75 60.12,-280.75 60.12,-274.75 66.12,-268.75 72.12,-268.75 72.12,-268.75 223.88,-268.75 223.88,-268.75 229.88,-268.75 235.88,-274.75 235.88,-280.75 235.88,-280.75 235.88,-296.25 235.88,-296.25 235.88,-302.25 229.88,-308.25 223.88,-308.25"/>
<text xml:space="preserve" text-anchor="middle" x="148" y="-293.8" font-family="Inter" font-size="11.00">summary_of([victim])</text>
<text xml:space="preserve" text-anchor="middle" x="148" y="-278.05" font-family="Inter" font-size="11.00">→ SummaryNode ref (compact)</text>
</g>
<!-- leaves&#45;&gt;sum -->
<g id="edge1" class="edge">
<title>leaves&#45;&gt;sum</title>
<path fill="none" stroke="#475569" d="M148,-345.01C148,-337.5 148,-328.47 148,-319.89"/>
<polygon fill="#475569" stroke="#475569" points="151.5,-320.18 148,-310.18 144.5,-320.18 151.5,-320.18"/>
</g>
<!-- cond -->
<g id="node3" class="node">
<title>cond</title>
<path fill="#fef3c7" stroke="#b45309" d="M137.18,-226.56C137.18,-226.56 10.82,-165.94 10.82,-165.94 5.41,-163.35 5.41,-158.15 10.82,-155.56 10.82,-155.56 137.18,-94.94 137.18,-94.94 142.59,-92.35 153.41,-92.35 158.82,-94.94 158.82,-94.94 285.18,-155.56 285.18,-155.56 290.59,-158.15 290.59,-163.35 285.18,-165.94 285.18,-165.94 158.82,-226.56 158.82,-226.56 153.41,-229.15 142.59,-229.15 137.18,-226.56"/>
<text xml:space="preserve" text-anchor="middle" x="148" y="-181.8" font-family="Inter" font-size="11.00">kind = SummaryNode</text>
<text xml:space="preserve" text-anchor="middle" x="148" y="-166.05" font-family="Inter" font-size="11.00">AND smaller than the leaf</text>
<text xml:space="preserve" text-anchor="middle" x="148" y="-150.3" font-family="Inter" font-size="11.00">AND not already resident</text>
<text xml:space="preserve" text-anchor="middle" x="148" y="-134.55" font-family="Inter" font-size="11.00">AND fits headroom?</text>
</g>
<!-- sum&#45;&gt;cond -->
<g id="edge2" class="edge">
<title>sum&#45;&gt;cond</title>
<path fill="none" stroke="#475569" d="M148,-268.4C148,-261.32 148,-252.76 148,-243.62"/>
<polygon fill="#475569" stroke="#475569" points="151.5,-243.74 148,-233.74 144.5,-243.74 151.5,-243.74"/>
</g>
<!-- yes -->
<g id="node4" class="node">
<title>yes</title>
<path fill="#dcfce7" stroke="#15803d" d="M132.25,-39.5C132.25,-39.5 27.75,-39.5 27.75,-39.5 21.75,-39.5 15.75,-33.5 15.75,-27.5 15.75,-27.5 15.75,-12 15.75,-12 15.75,-6 21.75,0 27.75,0 27.75,0 132.25,0 132.25,0 138.25,0 144.25,-6 144.25,-12 144.25,-12 144.25,-27.5 144.25,-27.5 144.25,-33.5 138.25,-39.5 132.25,-39.5"/>
<text xml:space="preserve" text-anchor="middle" x="80" y="-25.05" font-family="Inter" font-size="11.00">page in the summary</text>
<text xml:space="preserve" text-anchor="middle" x="80" y="-9.3" font-family="Inter" font-size="11.00">(stands in for the leaf)</text>
</g>
<!-- cond&#45;&gt;yes -->
<g id="edge3" class="edge">
<title>cond&#45;&gt;yes</title>
<path fill="none" stroke="#475569" d="M120.15,-102.81C111.21,-84.54 101.68,-65.06 94.15,-49.67"/>
<polygon fill="#475569" stroke="#475569" points="97.49,-48.54 89.95,-41.1 91.2,-51.62 97.49,-48.54"/>
<text xml:space="preserve" text-anchor="middle" x="111.81" y="-62.25" font-family="Inter" font-size="10.00">yes</text>
</g>
<!-- no -->
<g id="node5" class="node">
<title>no</title>
<path fill="#e5e7eb" stroke="#6b7280" d="M257.75,-39.5C257.75,-39.5 174.25,-39.5 174.25,-39.5 168.25,-39.5 162.25,-33.5 162.25,-27.5 162.25,-27.5 162.25,-12 162.25,-12 162.25,-6 168.25,0 174.25,0 174.25,0 257.75,0 257.75,0 263.75,0 269.75,-6 269.75,-12 269.75,-12 269.75,-27.5 269.75,-27.5 269.75,-33.5 263.75,-39.5 257.75,-39.5"/>
<text xml:space="preserve" text-anchor="middle" x="216" y="-25.05" font-family="Inter" font-size="11.00">no stand&#45;in</text>
<text xml:space="preserve" text-anchor="middle" x="216" y="-9.3" font-family="Inter" font-size="11.00">(warn!, by&#45;design)</text>
</g>
<!-- cond&#45;&gt;no -->
<g id="edge4" class="edge">
<title>cond&#45;&gt;no</title>
<path fill="none" stroke="#475569" d="M175.85,-102.81C184.79,-84.54 194.32,-65.06 201.85,-49.67"/>
<polygon fill="#475569" stroke="#475569" points="204.8,-51.62 206.05,-41.1 198.51,-48.54 204.8,-51.62"/>
<text xml:space="preserve" text-anchor="middle" x="203.76" y="-62.25" font-family="Inter" font-size="10.00">no</text>
</g>
</g>
</svg>
