<?xml version="1.0" encoding="UTF-8" standalone="no"?>
<!DOCTYPE svg PUBLIC "-//W3C//DTD SVG 1.1//EN"
 "http://www.w3.org/Graphics/SVG/1.1/DTD/svg11.dtd">
<!-- Generated by graphviz version 14.1.5 (0)
 -->
<!-- Title: dsl_pda Pages: 1 -->
<svg width="529pt" height="413pt"
 viewBox="0.00 0.00 529.00 413.00" xmlns="http://www.w3.org/2000/svg" xmlns:xlink="http://www.w3.org/1999/xlink">
<g id="graph0" class="graph" transform="scale(1 1) rotate(0) translate(4 409.16)">
<title>dsl_pda</title>
<!-- EXPR -->
<g id="node1" class="node">
<title>EXPR</title>
<ellipse fill="#e2e8f0" stroke="#475569" cx="24.96" cy="-216.25" rx="24.96" ry="24.96"/>
<text xml:space="preserve" text-anchor="middle" x="24.96" y="-213.88" font-family="Inter" font-size="10.00">EXPR</text>
</g>
<!-- AFTER_ARG -->
<g id="node3" class="node">
<title>AFTER_ARG</title>
<ellipse fill="#e2e8f0" stroke="#475569" cx="368.89" cy="-266.25" rx="31.47" ry="31.47"/>
<text xml:space="preserve" text-anchor="middle" x="368.89" y="-271" font-family="Inter" font-size="10.00">AFTER</text>
<text xml:space="preserve" text-anchor="middle" x="368.89" y="-256.75" font-family="Inter" font-size="10.00">ARG</text>
</g>
<!-- EXPR&#45;&gt;AFTER_ARG -->
<g id="edge4" class="edge">
<title>EXPR&#45;&gt;AFTER_ARG</title>
<path fill="none" stroke="#d97706" d="M50.01,-219.77C107.53,-228.18 253.69,-249.55 326.03,-260.13"/>
<polygon fill="#d97706" stroke="#d97706" points="325.49,-263.59 335.89,-261.57 326.51,-256.66 325.49,-263.59"/>
<text xml:space="preserve" text-anchor="middle" x="170.05" y="-250.42" font-family="Inter" font-size="9.00" fill="#b45309">&#39;)&#39; / pop PAREN (empty args)</text>
</g>
<!-- IN_STRING -->
<g id="node4" class="node">
<title>IN_STRING</title>
<ellipse fill="#ccfbf1" stroke="#0f766e" cx="170.05" cy="-139.25" rx="36.24" ry="36.24"/>
<text xml:space="preserve" text-anchor="middle" x="170.05" y="-144" font-family="Inter" font-size="10.00">IN</text>
<text xml:space="preserve" text-anchor="middle" x="170.05" y="-129.75" font-family="Inter" font-size="10.00">STRING</text>
</g>
<!-- EXPR&#45;&gt;IN_STRING -->
<g id="edge8" class="edge">
<title>EXPR&#45;&gt;IN_STRING</title>
<path fill="none" stroke="black" d="M47.39,-204.72C68.52,-193.35 101.37,-175.67 127.61,-161.55"/>
<polygon fill="black" stroke="black" points="129.19,-164.68 136.34,-156.86 125.87,-158.51 129.19,-164.68"/>
<text xml:space="preserve" text-anchor="middle" x="76.93" y="-197.7" font-family="Inter" font-size="9.00">&#39;\&quot;&#39;</text>
</g>
<!-- INT_RUN -->
<g id="node5" class="node">
<title>INT_RUN</title>
<ellipse fill="#e2e8f0" stroke="#475569" cx="170.05" cy="-348.25" rx="26.16" ry="26.16"/>
<text xml:space="preserve" text-anchor="middle" x="170.05" y="-353" font-family="Inter" font-size="10.00">INT</text>
<text xml:space="preserve" text-anchor="middle" x="170.05" y="-338.75" font-family="Inter" font-size="10.00">RUN</text>
</g>
<!-- EXPR&#45;&gt;INT_RUN -->
<g id="edge11" class="edge">
<title>EXPR&#45;&gt;INT_RUN</title>
<path fill="none" stroke="black" d="M32.22,-240.65C38.38,-260.35 49.59,-287.6 67.93,-305.25 85.99,-322.63 112.15,-333.5 133.34,-339.96"/>
<polygon fill="black" stroke="black" points="132.17,-343.26 142.75,-342.61 134.07,-336.53 132.17,-343.26"/>
<text xml:space="preserve" text-anchor="middle" x="76.93" y="-322.26" font-family="Inter" font-size="9.00">digit</text>
</g>
<!-- verbs -->
<g id="node7" class="node">
<title>verbs</title>
<path fill="#fef3c7" stroke="#b45309" d="M224.18,-36.5C224.18,-36.5 115.93,-36.5 115.93,-36.5 109.93,-36.5 103.93,-30.5 103.93,-24.5 103.93,-24.5 103.93,-12 103.93,-12 103.93,-6 109.93,0 115.93,0 115.93,0 224.18,0 224.18,0 230.18,0 236.18,-6 236.18,-12 236.18,-12 236.18,-24.5 236.18,-24.5 236.18,-30.5 230.18,-36.5 224.18,-36.5"/>
<text xml:space="preserve" text-anchor="middle" x="170.05" y="-23" font-family="Inter" font-size="10.00">verb&#45;name trie</text>
<text xml:space="preserve" text-anchor="middle" x="170.05" y="-8.75" font-family="Inter" font-size="10.00">(9 verbs, closed allow&#45;list)</text>
</g>
<!-- EXPR&#45;&gt;verbs -->
<g id="edge1" class="edge">
<title>EXPR&#45;&gt;verbs</title>
<path fill="none" stroke="black" d="M28.98,-191.19C34.57,-148.92 47.81,-66.07 67.93,-45.5 74.9,-38.37 83.53,-33.04 92.78,-29.08"/>
<polygon fill="black" stroke="black" points="93.85,-32.41 102.02,-25.67 91.43,-25.85 93.85,-32.41"/>
<text xml:space="preserve" text-anchor="middle" x="76.93" y="-49.7" font-family="Inter" font-size="9.00">byte</text>
</g>
<!-- AFTER_NAME -->
<g id="node2" class="node">
<title>AFTER_NAME</title>
<ellipse fill="#e2e8f0" stroke="#475569" cx="368.89" cy="-52.25" rx="31.47" ry="31.47"/>
<text xml:space="preserve" text-anchor="middle" x="368.89" y="-57" font-family="Inter" font-size="10.00">AFTER</text>
<text xml:space="preserve" text-anchor="middle" x="368.89" y="-42.75" font-family="Inter" font-size="10.00">NAME</text>
</g>
<!-- AFTER_NAME&#45;&gt;EXPR -->
<g id="edge3" class="edge">
<title>AFTER_NAME&#45;&gt;EXPR</title>
<path fill="none" stroke="#7c3aed" d="M337.4,-56.1C331.44,-56.83 325.24,-57.58 319.43,-58.25 223.73,-69.33 184.67,-28.96 103.93,-81.5 68.46,-104.58 47.22,-149.82 36.07,-181.49"/>
<polygon fill="#7c3aed" stroke="#7c3aed" points="32.86,-180.03 33.01,-190.63 39.5,-182.25 32.86,-180.03"/>
<text xml:space="preserve" text-anchor="middle" x="170.05" y="-85.7" font-family="Inter" font-size="9.00" fill="#7c3aed">&#39;(&#39; / push PAREN</text>
</g>
<!-- AFTER_ARG&#45;&gt;EXPR -->
<g id="edge5" class="edge">
<title>AFTER_ARG&#45;&gt;EXPR</title>
<path fill="none" stroke="black" d="M337.41,-271.18C287.42,-278.12 185.44,-287.39 103.93,-263.25 86.2,-258 68.39,-247.73 54.28,-238.13"/>
<polygon fill="black" stroke="black" points="56.56,-235.46 46.38,-232.53 52.51,-241.17 56.56,-235.46"/>
<text xml:space="preserve" text-anchor="middle" x="170.05" y="-283.08" font-family="Inter" font-size="9.00">&#39;,&#39; / read</text>
</g>
<!-- AFTER_ARG&#45;&gt;AFTER_ARG -->
<g id="edge6" class="edge">
<title>AFTER_ARG&#45;&gt;AFTER_ARG</title>
<path fill="none" stroke="#d97706" d="M357.68,-295.7C357.31,-306.68 361.05,-315.72 368.89,-315.72 373.8,-315.72 377.1,-312.19 378.79,-306.86"/>
<polygon fill="#d97706" stroke="#d97706" points="382.24,-307.55 379.94,-297.21 375.29,-306.73 382.24,-307.55"/>
<text xml:space="preserve" text-anchor="middle" x="368.89" y="-319.92" font-family="Inter" font-size="9.00" fill="#b45309">&#39;)&#39; / pop PAREN</text>
</g>
<!-- DONE -->
<g id="node6" class="node">
<title>DONE</title>
<ellipse fill="#bbf7d0" stroke="#15803d" cx="489.19" cy="-266.25" rx="27.83" ry="27.83"/>
<ellipse fill="none" stroke="#15803d" cx="489.19" cy="-266.25" rx="31.83" ry="31.83"/>
<text xml:space="preserve" text-anchor="middle" x="489.19" y="-263.88" font-family="Inter" font-size="10.00">DONE</text>
</g>
<!-- AFTER_ARG&#45;&gt;DONE -->
<g id="edge7" class="edge">
<title>AFTER_ARG&#45;&gt;DONE</title>
<path fill="none" stroke="black" stroke-dasharray="5,2" d="M400.67,-266.25C414.52,-266.25 431.1,-266.25 446.08,-266.25"/>
<polygon fill="black" stroke="black" points="445.64,-269.75 455.64,-266.25 445.64,-262.75 445.64,-269.75"/>
<text xml:space="preserve" text-anchor="middle" x="428.86" y="-270.45" font-family="Inter" font-size="9.00">ε [Z₀]</text>
</g>
<!-- IN_STRING&#45;&gt;AFTER_ARG -->
<g id="edge10" class="edge">
<title>IN_STRING&#45;&gt;AFTER_ARG</title>
<path fill="none" stroke="black" d="M204.12,-152.43C235.45,-165.77 283,-188.29 319.43,-215.5 326.7,-220.93 333.85,-227.51 340.33,-234.09"/>
<polygon fill="black" stroke="black" points="337.68,-236.39 347.09,-241.26 342.77,-231.58 337.68,-236.39"/>
<text xml:space="preserve" text-anchor="middle" x="286.8" y="-219.7" font-family="Inter" font-size="9.00">&#39;\&quot;&#39;</text>
</g>
<!-- IN_STRING&#45;&gt;IN_STRING -->
<g id="edge9" class="edge">
<title>IN_STRING&#45;&gt;IN_STRING</title>
<path fill="none" stroke="black" d="M152.63,-171.55C152.06,-183.58 157.87,-193.49 170.05,-193.49 178.05,-193.49 183.3,-189.22 185.8,-182.89"/>
<polygon fill="black" stroke="black" points="189.26,-183.45 187.25,-173.04 182.33,-182.43 189.26,-183.45"/>
<text xml:space="preserve" text-anchor="middle" x="170.05" y="-197.69" font-family="Inter" font-size="9.00">non&#45;quote byte</text>
</g>
<!-- INT_RUN&#45;&gt;AFTER_ARG -->
<g id="edge13" class="edge">
<title>INT_RUN&#45;&gt;AFTER_ARG</title>
<path fill="none" stroke="black" stroke-dasharray="5,2" d="M196.34,-344.08C226.82,-338.35 278.98,-326.3 319.43,-305.25 325.32,-302.18 331.18,-298.34 336.68,-294.27"/>
<polygon fill="black" stroke="black" points="338.65,-297.17 344.35,-288.24 334.33,-291.67 338.65,-297.17"/>
<text xml:space="preserve" text-anchor="middle" x="286.8" y="-333.91" font-family="Inter" font-size="9.00">ε</text>
</g>
<!-- INT_RUN&#45;&gt;INT_RUN -->
<g id="edge12" class="edge">
<title>INT_RUN&#45;&gt;INT_RUN</title>
<path fill="none" stroke="black" d="M153.55,-369.15C150.18,-381.2 155.68,-392.41 170.05,-392.41 179.71,-392.41 185.36,-387.35 187.01,-380.37"/>
<polygon fill="black" stroke="black" points="190.51,-380.51 186.62,-370.66 183.52,-380.8 190.51,-380.51"/>
<text xml:space="preserve" text-anchor="middle" x="170.05" y="-396.61" font-family="Inter" font-size="9.00">digit</text>
</g>
<!-- verbs&#45;&gt;AFTER_NAME -->
<g id="edge2" class="edge">
<title>verbs&#45;&gt;AFTER_NAME</title>
<path fill="none" stroke="black" d="M236.6,-29.57C266.18,-34.68 300.24,-40.56 326.25,-45.06"/>
<polygon fill="black" stroke="black" points="325.65,-48.5 336.1,-46.76 326.84,-41.61 325.65,-48.5"/>
<text xml:space="preserve" text-anchor="middle" x="286.8" y="-47.33" font-family="Inter" font-size="9.00">name complete</text>
</g>
</g>
</svg>
