<?xml version="1.0" encoding="UTF-8"?>
<svg xmlns="http://www.w3.org/2000/svg" xmlns:xlink="http://www.w3.org/1999/xlink" width="361.271pt" height="138.627pt" viewBox="0 0 361.271 138.627">
<defs>
<g>
<g id="glyph-0-0">
<path d="M 1.984375 -3.59375 C 1.984375 -3.84375 1.921875 -3.984375 1.59375 -3.984375 L 1.3125 -3.984375 C 1.03125 -3.984375 0.9375 -3.890625 0.9375 -3.59375 L 0.9375 -3.3125 C 0.9375 -3.0625 1 -2.9375 1.3125 -2.9375 L 1.59375 -2.9375 C 1.90625 -2.9375 1.984375 -3.03125 1.984375 -3.3125 Z M 1.265625 -2.421875 C 1.0625 -2.421875 1.046875 -2.40625 1.046875 -2.1875 C 1.015625 -1.609375 1 -1 0.984375 -0.40625 C 0.984375 0.171875 0.9375 0.78125 0.9375 1.375 C 0.9375 1.546875 0.984375 1.546875 1.15625 1.546875 L 1.765625 1.546875 C 1.9375 1.546875 1.984375 1.546875 1.984375 1.375 C 1.984375 0.671875 1.9375 -0.0625 1.921875 -0.765625 C 1.921875 -0.953125 1.890625 -2.296875 1.875 -2.34375 C 1.84375 -2.421875 1.796875 -2.421875 1.65625 -2.421875 Z M 1.265625 -2.421875 "/>
</g>
<g id="glyph-0-1">
<path d="M 3.15625 -1.125 C 3.15625 -1.5625 2.90625 -1.84375 2.765625 -1.96875 C 2.453125 -2.265625 2.171875 -2.3125 1.84375 -2.375 C 1.40625 -2.453125 1.078125 -2.515625 1.078125 -2.828125 C 1.078125 -3.15625 1.34375 -3.21875 1.65625 -3.21875 C 2.1875 -3.21875 2.46875 -3.015625 2.6875 -2.84375 C 2.765625 -2.765625 2.78125 -2.765625 2.8125 -2.765625 C 2.890625 -2.765625 2.90625 -2.828125 2.90625 -2.859375 C 2.921875 -2.921875 3 -3.375 3 -3.40625 C 3 -3.546875 2.578125 -3.65625 2.5 -3.6875 C 2.171875 -3.765625 1.921875 -3.78125 1.71875 -3.78125 C 1.359375 -3.78125 0.296875 -3.78125 0.296875 -2.640625 C 0.296875 -2.25 0.46875 -2.015625 0.6875 -1.828125 C 0.96875 -1.5625 1.265625 -1.515625 1.71875 -1.421875 C 1.953125 -1.390625 2.359375 -1.3125 2.359375 -0.96875 C 2.359375 -0.59375 2.046875 -0.53125 1.734375 -0.53125 C 1.390625 -0.53125 0.953125 -0.640625 0.578125 -1.078125 C 0.53125 -1.125 0.515625 -1.140625 0.46875 -1.140625 C 0.375 -1.140625 0.359375 -1.078125 0.359375 -1.03125 C 0.34375 -0.921875 0.25 -0.46875 0.25 -0.375 C 0.25 -0.234375 0.828125 -0.0625 0.84375 -0.046875 C 1.28125 0.09375 1.609375 0.09375 1.734375 0.09375 C 2.140625 0.09375 3.15625 0.0625 3.15625 -1.125 Z M 3.15625 -1.125 "/>
</g>
<g id="glyph-0-2">
<path d="M 1.734375 -3.0625 L 2.4375 -3.0625 C 2.53125 -3.0625 2.828125 -3.0625 2.828125 -3.359375 C 2.828125 -3.640625 2.53125 -3.640625 2.4375 -3.640625 L 1.734375 -3.640625 L 1.734375 -4.296875 C 1.734375 -4.5625 1.671875 -4.6875 1.359375 -4.6875 L 1.109375 -4.6875 C 0.8125 -4.6875 0.71875 -4.59375 0.71875 -4.296875 L 0.71875 -3.640625 L 0.546875 -3.640625 C 0.453125 -3.640625 0.15625 -3.640625 0.15625 -3.359375 C 0.15625 -3.0625 0.453125 -3.0625 0.546875 -3.0625 L 0.703125 -3.0625 L 0.703125 -1.0625 C 0.703125 -0.25 0.984375 0.09375 1.53125 0.09375 C 1.609375 0.09375 1.953125 0.09375 2.375 -0.046875 C 2.5 -0.078125 2.96875 -0.21875 2.96875 -0.375 C 2.96875 -0.390625 2.953125 -0.453125 2.90625 -0.625 C 2.859375 -0.78125 2.84375 -0.828125 2.78125 -0.828125 C 2.734375 -0.828125 2.734375 -0.8125 2.6875 -0.765625 C 2.59375 -0.703125 2.375 -0.53125 2.046875 -0.53125 C 1.859375 -0.53125 1.734375 -0.671875 1.734375 -1.1875 Z M 1.734375 -3.0625 "/>
</g>
<g id="glyph-0-3">
<path d="M 3.421875 -1.703125 C 3.609375 -1.703125 3.8125 -1.703125 3.8125 -2.0625 C 3.8125 -3.09375 3.328125 -3.78125 2.140625 -3.78125 C 0.875 -3.78125 0.25 -3.0625 0.25 -1.859375 C 0.25 -0.546875 1 0.09375 2.25 0.09375 C 2.546875 0.09375 3 0.046875 3.53125 -0.21875 C 3.703125 -0.296875 3.765625 -0.328125 3.765625 -0.421875 C 3.765625 -0.484375 3.734375 -0.703125 3.734375 -0.765625 C 3.703125 -1.015625 3.6875 -1.03125 3.625 -1.03125 C 3.59375 -1.03125 3.578125 -1.03125 3.484375 -0.953125 C 3.015625 -0.546875 2.53125 -0.484375 2.28125 -0.484375 C 1.390625 -0.484375 1.28125 -1.1875 1.265625 -1.703125 Z M 1.265625 -2.125 C 1.296875 -2.609375 1.453125 -3.203125 2.140625 -3.203125 C 2.78125 -3.203125 2.90625 -2.75 2.921875 -2.125 Z M 1.265625 -2.125 "/>
</g>
<g id="glyph-0-4">
<path d="M 6.40625 -2.578125 C 6.40625 -3.40625 6.0625 -3.734375 5.25 -3.734375 C 4.6875 -3.734375 4.25 -3.46875 3.953125 -2.9375 C 3.828125 -3.703125 3.15625 -3.734375 2.828125 -3.734375 C 2.671875 -3.734375 2.34375 -3.734375 1.984375 -3.46875 C 1.734375 -3.28125 1.578125 -3.03125 1.515625 -2.90625 L 1.515625 -3.3125 C 1.515625 -3.5625 1.453125 -3.6875 1.125 -3.6875 L 0.859375 -3.6875 C 0.578125 -3.6875 0.484375 -3.609375 0.484375 -3.3125 L 0.484375 -0.375 C 0.484375 -0.09375 0.5625 0 0.859375 0 L 1.171875 0 C 1.484375 0 1.5625 -0.109375 1.5625 -0.375 L 1.5625 -2.140625 C 1.5625 -2.859375 2.046875 -3.15625 2.4375 -3.15625 C 2.8125 -3.15625 2.90625 -2.984375 2.90625 -2.5625 L 2.90625 -0.375 C 2.90625 -0.09375 2.984375 0 3.28125 0 L 3.609375 0 C 3.90625 0 3.984375 -0.109375 3.984375 -0.375 L 3.984375 -2.140625 C 3.984375 -2.859375 4.46875 -3.15625 4.859375 -3.15625 C 5.234375 -3.15625 5.328125 -2.984375 5.328125 -2.5625 L 5.328125 -0.375 C 5.328125 -0.09375 5.421875 0 5.703125 0 L 6.03125 0 C 6.328125 0 6.40625 -0.109375 6.40625 -0.375 Z M 6.40625 -2.578125 "/>
</g>
<g id="glyph-0-5">
<path d="M 2.453125 -3.59375 C 2.453125 -3.84375 2.40625 -3.984375 2.078125 -3.984375 L 1.796875 -3.984375 C 1.515625 -3.984375 1.421875 -3.890625 1.421875 -3.59375 L 1.421875 -3.3125 C 1.421875 -3.0625 1.46875 -2.9375 1.796875 -2.9375 L 2.078125 -2.9375 C 2.375 -2.9375 2.453125 -3.03125 2.453125 -3.3125 Z M 1.515625 -1.96875 C 1.515625 -1.5 1.390625 -0.9375 0.828125 -0.484375 C 0.515625 -0.203125 0.484375 0.234375 0.484375 0.421875 C 0.484375 1.578125 1.4375 1.625 1.921875 1.625 C 2.46875 1.625 2.9375 1.515625 3.390625 1.3125 C 3.625 1.203125 3.640625 1.203125 3.640625 1.125 C 3.640625 1.078125 3.484375 0.6875 3.453125 0.609375 C 3.40625 0.515625 3.40625 0.484375 3.328125 0.484375 C 3.296875 0.484375 3.28125 0.484375 3.25 0.515625 C 3.078125 0.671875 2.640625 1.0625 1.953125 1.0625 C 1.59375 1.0625 1.5625 0.921875 1.5625 0.46875 C 1.5625 0.09375 1.59375 0.03125 1.703125 -0.140625 C 2.3125 -1.109375 2.359375 -1.5625 2.359375 -2.078125 C 2.359375 -2.171875 2.359375 -2.328125 2.34375 -2.359375 C 2.3125 -2.421875 2.265625 -2.421875 2.125 -2.421875 L 1.734375 -2.421875 C 1.53125 -2.421875 1.515625 -2.40625 1.515625 -2.203125 Z M 1.515625 -1.96875 "/>
</g>
<g id="glyph-0-6">
<path d="M 1.734375 -0.828125 C 1.734375 -1.03125 1.71875 -1.046875 1.515625 -1.046875 L 0.90625 -1.046875 C 0.703125 -1.046875 0.6875 -1.03125 0.6875 -0.828125 L 0.6875 -0.21875 C 0.6875 -0.015625 0.703125 0 0.90625 0 L 1.515625 0 C 1.71875 0 1.734375 -0.015625 1.734375 -0.21875 Z M 1.734375 -0.828125 "/>
</g>
<g id="glyph-0-7">
<path d="M 3.6875 -2.515625 C 3.6875 -3.765625 2.484375 -3.78125 2.078125 -3.78125 C 1.703125 -3.78125 1.3125 -3.75 0.78125 -3.515625 C 0.609375 -3.453125 0.578125 -3.421875 0.578125 -3.34375 C 0.578125 -3.28125 0.625 -2.828125 0.625 -2.765625 C 0.640625 -2.71875 0.671875 -2.671875 0.734375 -2.671875 C 0.765625 -2.671875 0.796875 -2.703125 0.8125 -2.71875 C 1.15625 -3.078125 1.5625 -3.25 2.046875 -3.25 C 2.484375 -3.25 2.609375 -2.984375 2.609375 -2.515625 L 2.609375 -2.25 C 2.328125 -2.25 0.25 -2.234375 0.25 -1.0625 C 0.25 -0.5 0.6875 0.09375 1.390625 0.09375 C 1.65625 0.09375 2.265625 0.015625 2.625 -0.546875 L 2.625 -0.375 C 2.625 -0.125 2.6875 0 3.015625 0 L 3.3125 0 C 3.609375 0 3.6875 -0.109375 3.6875 -0.375 Z M 2.609375 -1.21875 C 2.609375 -0.484375 1.859375 -0.484375 1.828125 -0.484375 C 1.5 -0.484375 1.28125 -0.765625 1.28125 -1.078125 C 1.28125 -1.859375 2.390625 -1.90625 2.609375 -1.921875 Z M 2.609375 -1.21875 "/>
</g>
<g id="glyph-0-8">
<path d="M 3.640625 -0.390625 C 3.640625 -0.484375 3.609375 -0.84375 3.59375 -0.953125 C 3.59375 -0.984375 3.578125 -1.0625 3.484375 -1.0625 C 3.453125 -1.0625 3.4375 -1.0625 3.359375 -0.984375 C 3.234375 -0.859375 2.859375 -0.53125 2.203125 -0.53125 C 1.375 -0.53125 1.375 -1.34375 1.375 -1.84375 C 1.375 -2.484375 1.421875 -3.15625 2.234375 -3.15625 C 2.75 -3.15625 2.953125 -3.03125 3.25 -2.796875 C 3.34375 -2.703125 3.359375 -2.703125 3.390625 -2.703125 C 3.46875 -2.703125 3.484375 -2.78125 3.484375 -2.8125 C 3.5 -2.875 3.59375 -3.3125 3.59375 -3.359375 C 3.59375 -3.421875 3.53125 -3.453125 3.390625 -3.515625 C 3.015625 -3.703125 2.78125 -3.78125 2.21875 -3.78125 C 1.03125 -3.78125 0.296875 -3.21875 0.296875 -1.828125 C 0.296875 -0.515625 0.984375 0.09375 2.171875 0.09375 C 2.390625 0.09375 2.875 0.078125 3.40625 -0.1875 C 3.625 -0.3125 3.640625 -0.3125 3.640625 -0.390625 Z M 3.640625 -0.390625 "/>
</g>
<g id="glyph-0-9">
<path d="M 3.71875 -3.265625 C 3.765625 -3.375 3.765625 -3.390625 3.765625 -3.421875 C 3.765625 -3.640625 3.5625 -3.640625 3.4375 -3.640625 L 3.28125 -3.640625 C 2.9375 -3.640625 2.859375 -3.515625 2.78125 -3.296875 L 2 -0.90625 L 1.203125 -3.296875 C 1.15625 -3.46875 1.09375 -3.640625 0.71875 -3.640625 L 0.53125 -3.640625 C 0.40625 -3.640625 0.203125 -3.640625 0.203125 -3.421875 C 0.203125 -3.390625 0.203125 -3.375 0.25 -3.265625 L 1.1875 -0.328125 C 1.296875 0 1.546875 0 1.6875 0 L 2.28125 0 C 2.421875 0 2.671875 0 2.78125 -0.328125 Z M 3.71875 -3.265625 "/>
</g>
<g id="glyph-0-10">
<path d="M 1.546875 -5.140625 C 1.546875 -5.390625 1.484375 -5.515625 1.15625 -5.515625 L 0.859375 -5.515625 C 0.578125 -5.515625 0.484375 -5.4375 0.484375 -5.140625 L 0.484375 -0.375 C 0.484375 -0.09375 0.578125 0 0.859375 0 L 1.15625 0 C 1.46875 0 1.546875 -0.109375 1.546875 -0.375 Z M 1.546875 -5.140625 "/>
</g>
<g id="glyph-0-11">
<path d="M 1.5625 -0.3125 C 1.921875 0.09375 2.359375 0.09375 2.46875 0.09375 C 4.15625 0.09375 4.15625 -1.4375 4.15625 -1.84375 C 4.15625 -2.234375 4.15625 -3.734375 2.71875 -3.734375 C 2.25 -3.734375 1.828125 -3.546875 1.546875 -3.265625 C 1.546875 -3.5625 1.4375 -3.640625 1.15625 -3.640625 L 0.859375 -3.640625 C 0.578125 -3.640625 0.484375 -3.5625 0.484375 -3.265625 L 0.484375 1.15625 C 0.484375 1.453125 0.578125 1.546875 0.859375 1.546875 L 1.1875 1.546875 C 1.484375 1.546875 1.5625 1.4375 1.5625 1.15625 Z M 1.5625 -2.84375 C 1.65625 -2.921875 1.921875 -3.109375 2.265625 -3.109375 C 3.0625 -3.109375 3.078125 -2.171875 3.078125 -1.828125 C 3.078125 -1.5 3.078125 -0.484375 2.171875 -0.484375 C 2 -0.484375 1.859375 -0.546875 1.75 -0.625 C 1.5625 -0.75 1.5625 -0.796875 1.5625 -0.9375 Z M 1.5625 -2.84375 "/>
</g>
<g id="glyph-0-12">
<path d="M 3.984375 -2.578125 C 3.984375 -3.40625 3.625 -3.734375 2.8125 -3.734375 C 2.015625 -3.734375 1.65625 -3.1875 1.546875 -2.953125 L 1.53125 -2.953125 L 1.53125 -5.140625 C 1.53125 -5.390625 1.484375 -5.515625 1.15625 -5.515625 L 0.859375 -5.515625 C 0.578125 -5.515625 0.484375 -5.4375 0.484375 -5.140625 L 0.484375 -0.375 C 0.484375 -0.09375 0.5625 0 0.859375 0 L 1.171875 0 C 1.484375 0 1.5625 -0.109375 1.5625 -0.375 L 1.5625 -2.140625 C 1.5625 -2.828125 2.015625 -3.15625 2.4375 -3.15625 C 2.8125 -3.15625 2.890625 -2.96875 2.890625 -2.5625 L 2.890625 -0.375 C 2.890625 -0.125 2.953125 0 3.28125 0 L 3.59375 0 C 3.890625 0 3.984375 -0.109375 3.984375 -0.375 Z M 3.984375 -2.578125 "/>
</g>
<g id="glyph-1-0">
<path d="M 8.453125 -1.921875 L 8.453125 -2.4375 L 0 -2.4375 L 0 -1.921875 Z M 8.453125 -1.921875 "/>
</g>
<g id="glyph-1-1">
<path d="M 3.203125 -5.515625 L 2.421875 -5.515625 L 0.234375 0 L 0.890625 0 L 1.515625 -1.578125 L 3.921875 -1.578125 L 4.546875 0 L 5.390625 0 Z M 2.734375 -4.921875 L 3.734375 -2.046875 L 1.703125 -2.046875 Z M 2.734375 -4.921875 "/>
</g>
<g id="glyph-1-2">
<path d="M 1.34375 -1.6875 C 1.34375 -2.546875 2.0625 -3.015625 2.765625 -3.015625 L 2.765625 -3.609375 C 2.09375 -3.609375 1.609375 -3.28125 1.28125 -2.859375 L 1.28125 -3.59375 L 0.671875 -3.59375 L 0.671875 0 L 1.34375 0 Z M 1.34375 -1.6875 "/>
</g>
<g id="glyph-1-3">
<path d="M 3.421875 -0.859375 C 2.96875 -0.546875 2.46875 -0.453125 2.125 -0.453125 C 1.4375 -0.453125 0.921875 -1.015625 0.890625 -1.734375 L 3.5 -1.734375 C 3.5 -2.109375 3.453125 -2.640625 3.15625 -3.09375 C 2.859375 -3.5 2.390625 -3.65625 2 -3.65625 C 1.03125 -3.65625 0.28125 -2.796875 0.28125 -1.796875 C 0.28125 -0.765625 1.078125 0.078125 2.125 0.078125 C 2.578125 0.078125 3.0625 -0.0625 3.46875 -0.296875 Z M 0.953125 -2.21875 C 1.125 -2.859375 1.59375 -3.125 2 -3.125 C 2.34375 -3.125 2.859375 -2.953125 3.015625 -2.21875 Z M 0.953125 -2.21875 "/>
</g>
<g id="glyph-1-4">
<path d="M 3.703125 -2.359375 C 3.703125 -2.96875 3.515625 -3.609375 2.53125 -3.609375 C 2.078125 -3.609375 1.640625 -3.421875 1.296875 -3 L 1.296875 -3.59375 L 0.65625 -3.59375 L 0.65625 0 L 1.359375 0 L 1.359375 -1.9375 C 1.359375 -2.453125 1.578125 -3.078125 2.1875 -3.078125 C 3 -3.078125 3 -2.53125 3 -2.296875 L 3 0 L 3.703125 0 Z M 3.703125 -2.359375 "/>
</g>
<g id="glyph-1-5">
<path d="M 3.390625 -2.296875 C 3.390625 -3.109375 2.765625 -3.65625 1.984375 -3.65625 C 1.484375 -3.65625 1.09375 -3.546875 0.65625 -3.3125 L 0.703125 -2.734375 C 0.96875 -2.90625 1.359375 -3.140625 1.984375 -3.140625 C 2.328125 -3.140625 2.703125 -2.875 2.703125 -2.28125 L 2.703125 -1.96875 C 1.515625 -1.921875 0.359375 -1.671875 0.359375 -0.9375 C 0.359375 -0.546875 0.625 0.078125 1.328125 0.078125 C 1.671875 0.078125 2.296875 0.015625 2.71875 -0.296875 L 2.71875 0 L 3.390625 0 Z M 2.703125 -1.125 C 2.703125 -0.96875 2.703125 -0.765625 2.421875 -0.59375 C 2.15625 -0.453125 1.859375 -0.453125 1.765625 -0.453125 C 1.328125 -0.453125 1 -0.640625 1 -0.953125 C 1 -1.453125 2.34375 -1.5 2.703125 -1.515625 Z M 2.703125 -1.125 "/>
</g>
<g id="glyph-1-6">
<path d="M 4.921875 -0.96875 C 4.359375 -0.625 4.109375 -0.484375 3.3125 -0.484375 C 2.078125 -0.484375 1.34375 -1.625 1.34375 -2.78125 C 1.34375 -3.953125 2.15625 -5.0625 3.3125 -5.0625 C 3.84375 -5.0625 4.375 -4.890625 4.75 -4.609375 L 4.875 -5.34375 C 4.3125 -5.546875 3.875 -5.609375 3.296875 -5.609375 C 1.71875 -5.609375 0.546875 -4.296875 0.546875 -2.765625 C 0.546875 -1.125 1.796875 0.078125 3.34375 0.078125 C 4.125 0.078125 4.453125 -0.078125 4.96875 -0.359375 Z M 4.921875 -0.96875 "/>
</g>
<g id="glyph-1-7">
<path d="M 3.984375 -1.734375 C 3.984375 -2.796875 3.140625 -3.65625 2.109375 -3.65625 C 1.078125 -3.65625 0.234375 -2.78125 0.234375 -1.734375 C 0.234375 -0.734375 1.078125 0.078125 2.109375 0.078125 C 3.140625 0.078125 3.984375 -0.734375 3.984375 -1.734375 Z M 2.109375 -0.46875 C 1.484375 -0.46875 0.9375 -0.9375 0.9375 -1.828125 C 0.9375 -2.734375 1.515625 -3.125 2.109375 -3.125 C 2.703125 -3.125 3.28125 -2.71875 3.28125 -1.828125 C 3.28125 -0.921875 2.71875 -0.46875 2.109375 -0.46875 Z M 2.109375 -0.46875 "/>
</g>
<g id="glyph-1-8">
<path d="M 6.046875 -2.359375 C 6.046875 -2.96875 5.859375 -3.609375 4.890625 -3.609375 C 4.21875 -3.609375 3.796875 -3.21875 3.609375 -2.96875 C 3.53125 -3.1875 3.328125 -3.609375 2.53125 -3.609375 C 2.078125 -3.609375 1.640625 -3.421875 1.296875 -3 L 1.296875 -3.59375 L 0.65625 -3.59375 L 0.65625 0 L 1.359375 0 L 1.359375 -1.9375 C 1.359375 -2.453125 1.578125 -3.078125 2.1875 -3.078125 C 3 -3.078125 3 -2.53125 3 -2.296875 L 3 0 L 3.703125 0 L 3.703125 -1.9375 C 3.703125 -2.453125 3.921875 -3.078125 4.53125 -3.078125 C 5.359375 -3.078125 5.359375 -2.53125 5.359375 -2.296875 L 5.359375 0 L 6.046875 0 Z M 6.046875 -2.359375 "/>
</g>
<g id="glyph-1-9">
<path d="M 1.375 -0.375 C 1.796875 0.015625 2.25 0.078125 2.515625 0.078125 C 3.359375 0.078125 4.078125 -0.71875 4.078125 -1.78125 C 4.078125 -2.734375 3.546875 -3.609375 2.765625 -3.609375 C 2.40625 -3.609375 1.8125 -3.5 1.34375 -3.15625 L 1.34375 -3.53125 L 0.671875 -3.53125 L 0.671875 1.546875 L 1.375 1.546875 Z M 1.375 -2.640625 C 1.546875 -2.859375 1.859375 -3.0625 2.25 -3.0625 C 2.875 -3.0625 3.375 -2.46875 3.375 -1.78125 C 3.375 -0.984375 2.78125 -0.453125 2.15625 -0.453125 C 2.046875 -0.453125 1.84375 -0.46875 1.640625 -0.625 C 1.40625 -0.8125 1.375 -0.9375 1.375 -1.078125 Z M 1.375 -2.640625 "/>
</g>
<g id="glyph-1-10">
<path d="M 3.453125 -0.859375 C 3.0625 -0.609375 2.625 -0.46875 2.140625 -0.46875 C 1.40625 -0.46875 0.984375 -1.0625 0.984375 -1.78125 C 0.984375 -2.390625 1.296875 -3.109375 2.15625 -3.109375 C 2.703125 -3.109375 2.953125 -2.984375 3.359375 -2.734375 L 3.46875 -3.3125 C 2.984375 -3.546875 2.78125 -3.65625 2.15625 -3.65625 C 0.96875 -3.65625 0.28125 -2.6875 0.28125 -1.765625 C 0.28125 -0.796875 1.046875 0.078125 2.125 0.078125 C 2.6875 0.078125 3.171875 -0.09375 3.5 -0.28125 Z M 3.453125 -0.859375 "/>
</g>
<g id="glyph-1-11">
<path d="M 1.5 -3.03125 L 2.671875 -3.03125 L 2.671875 -3.53125 L 1.5 -3.53125 L 1.5 -4.546875 L 0.875 -4.546875 L 0.875 -3.53125 L 0.15625 -3.53125 L 0.15625 -3.03125 L 0.859375 -3.03125 L 0.859375 -1.015625 C 0.859375 -0.484375 1 0.078125 1.5625 0.078125 C 2.140625 0.078125 2.578125 -0.109375 2.8125 -0.21875 L 2.6875 -0.71875 C 2.421875 -0.53125 2.140625 -0.46875 1.921875 -0.46875 C 1.578125 -0.46875 1.5 -0.796875 1.5 -1.15625 Z M 1.5 -3.03125 "/>
</g>
<g id="glyph-1-12">
<path d="M 3.28125 -4.921875 L 4.03125 -4.921875 C 4.125 -4.921875 4.21875 -4.90625 4.3125 -4.90625 L 5.46875 -4.90625 L 5.46875 -5.46875 L 0.296875 -5.46875 L 0.296875 -4.90625 L 1.453125 -4.90625 C 1.546875 -4.90625 1.640625 -4.921875 1.734375 -4.921875 L 2.484375 -4.921875 L 2.484375 0 L 3.28125 0 Z M 3.28125 -4.921875 "/>
</g>
<g id="glyph-1-13">
<path d="M 2.421875 -5.96875 C 2.296875 -5.96875 2.28125 -5.96875 2.171875 -5.875 C 1.171875 -5 0.671875 -3.59375 0.671875 -1.984375 C 0.671875 -0.484375 1.125 0.96875 2.171875 1.890625 C 2.28125 1.984375 2.296875 1.984375 2.421875 1.984375 L 2.8125 1.984375 C 2.78125 1.96875 2.015625 1.3125 1.640625 0.078125 C 1.453125 -0.546875 1.359375 -1.203125 1.359375 -1.984375 C 1.359375 -4.734375 2.640625 -5.828125 2.8125 -5.96875 Z M 2.421875 -5.96875 "/>
</g>
<g id="glyph-1-14">
<path d="M 0.84375 1.984375 C 0.984375 1.984375 1 1.984375 1.09375 1.90625 C 2.09375 1.03125 2.609375 -0.390625 2.609375 -1.984375 C 2.609375 -3.484375 2.15625 -4.9375 1.109375 -5.859375 C 1 -5.96875 0.984375 -5.96875 0.84375 -5.96875 L 0.46875 -5.96875 C 0.5 -5.953125 1.265625 -5.28125 1.625 -4.046875 C 1.828125 -3.421875 1.921875 -2.78125 1.921875 -1.984375 C 1.921875 0.765625 0.625 1.859375 0.46875 1.984375 Z M 0.84375 1.984375 "/>
</g>
<g id="glyph-1-15">
<path d="M 1.53125 -3.53125 L 0.8125 -3.53125 L 0.8125 -2.8125 L 1.53125 -2.8125 Z M 0.8125 -0.71875 L 0.8125 0 L 1.53125 0 L 1.53125 -0.71875 Z M 0.8125 -0.71875 "/>
</g>
<g id="glyph-1-16">
<path d="M 3.703125 -3.53125 L 3 -3.53125 L 3 -1.21875 C 3 -0.59375 2.46875 -0.390625 2 -0.390625 C 1.421875 -0.390625 1.359375 -0.546875 1.359375 -0.921875 L 1.359375 -3.53125 L 0.65625 -3.53125 L 0.65625 -0.859375 C 0.65625 -0.15625 0.96875 0.078125 1.53125 0.078125 C 1.859375 0.078125 2.546875 0.015625 3.03125 -0.359375 L 3.03125 0 L 3.703125 0 Z M 3.703125 -3.53125 "/>
</g>
<g id="glyph-1-17">
<path d="M 3.484375 -5.21875 C 3.0625 -5.390625 2.765625 -5.390625 2.609375 -5.390625 C 1.40625 -5.390625 0.34375 -4.25 0.34375 -2.5625 C 0.34375 -0.40625 1.3125 0.171875 2.125 0.171875 C 2.765625 0.171875 3.109375 -0.140625 3.34375 -0.390625 C 3.859375 -0.9375 3.859375 -1.5 3.859375 -1.78125 C 3.859375 -2.8125 3.296875 -3.6875 2.53125 -3.6875 C 1.75 -3.6875 1.328125 -3.28125 1.09375 -3.046875 C 1.203125 -4.140625 1.75 -4.890625 2.609375 -4.890625 C 2.78125 -4.890625 3.09375 -4.875 3.484375 -4.71875 Z M 1.109375 -1.75 C 1.109375 -1.796875 1.109375 -1.921875 1.109375 -1.953125 C 1.109375 -2.5 1.453125 -3.15625 2.15625 -3.15625 C 3.140625 -3.15625 3.140625 -2.046875 3.140625 -1.78125 C 3.140625 -1.46875 3.140625 -1.140625 2.921875 -0.796875 C 2.734375 -0.515625 2.484375 -0.359375 2.125 -0.359375 C 1.28125 -0.359375 1.140625 -1.40625 1.109375 -1.75 Z M 1.109375 -1.75 "/>
</g>
<g id="glyph-1-18">
<path d="M 3.15625 -1.328125 L 3.984375 -1.328125 L 3.984375 -1.859375 L 3.15625 -1.859375 L 3.15625 -5.21875 L 2.359375 -5.21875 L 0.234375 -1.859375 L 0.234375 -1.328125 L 2.46875 -1.328125 L 2.46875 0 L 3.15625 0 Z M 0.921875 -1.859375 C 1.15625 -2.234375 2.515625 -4.34375 2.515625 -4.828125 L 2.515625 -1.859375 Z M 0.921875 -1.859375 "/>
</g>
<g id="glyph-1-19">
<path d="M 3.765625 -3.53125 L 3.140625 -3.53125 C 2.046875 -0.859375 2 -0.65625 1.96875 -0.46875 L 1.953125 -0.46875 C 1.890625 -0.78125 1.671875 -1.34375 1.421875 -1.953125 L 0.78125 -3.53125 L 0.125 -3.53125 L 1.578125 0 L 2.3125 0 Z M 3.765625 -3.53125 "/>
</g>
<g id="glyph-1-20">
<path d="M 1.34375 -5.515625 L 0.671875 -5.515625 L 0.671875 0 L 1.34375 0 Z M 1.34375 -5.515625 "/>
</g>
<g id="glyph-1-21">
<path d="M 2.90625 -3.40625 C 2.359375 -3.625 1.96875 -3.65625 1.671875 -3.65625 C 1.484375 -3.65625 0.28125 -3.65625 0.28125 -2.59375 C 0.28125 -2.21875 0.484375 -2.015625 0.59375 -1.921875 C 0.859375 -1.640625 1.203125 -1.578125 1.625 -1.5 C 2 -1.421875 2.421875 -1.34375 2.421875 -0.96875 C 2.421875 -0.46875 1.765625 -0.46875 1.65625 -0.46875 C 1.140625 -0.46875 0.671875 -0.640625 0.34375 -0.859375 L 0.234375 -0.265625 C 0.515625 -0.140625 1 0.078125 1.65625 0.078125 C 2.015625 0.078125 2.359375 0.03125 2.65625 -0.1875 C 2.953125 -0.40625 3.046875 -0.765625 3.046875 -1.03125 C 3.046875 -1.171875 3.03125 -1.484375 2.703125 -1.796875 C 2.40625 -2.046875 2.109375 -2.109375 1.734375 -2.171875 C 1.265625 -2.265625 0.90625 -2.34375 0.90625 -2.6875 C 0.90625 -3.140625 1.484375 -3.140625 1.59375 -3.140625 C 2.046875 -3.140625 2.40625 -3.046875 2.796875 -2.84375 Z M 2.90625 -3.40625 "/>
</g>
<g id="glyph-1-22">
<path d="M 1.40625 -5.453125 L 0.59375 -5.453125 L 0.59375 -4.65625 L 1.40625 -4.65625 Z M 1.34375 -3.53125 L 0.671875 -3.53125 L 0.671875 0 L 1.34375 0 Z M 1.34375 -3.53125 "/>
</g>
<g id="glyph-1-23">
<path d="M 3.6875 -5.515625 L 3.015625 -5.515625 L 3.015625 -3.1875 C 2.5 -3.5625 1.984375 -3.609375 1.75 -3.609375 C 0.921875 -3.609375 0.28125 -2.78125 0.28125 -1.765625 C 0.28125 -0.75 0.921875 0.078125 1.734375 0.078125 C 2.234375 0.078125 2.6875 -0.140625 2.984375 -0.40625 L 2.984375 0 L 3.6875 0 Z M 2.984375 -0.984375 C 2.796875 -0.65625 2.484375 -0.453125 2.109375 -0.453125 C 1.546875 -0.453125 0.984375 -0.828125 0.984375 -1.75 C 0.984375 -2.75 1.65625 -3.078125 2.1875 -3.078125 C 2.515625 -3.078125 2.78125 -2.953125 2.984375 -2.6875 Z M 2.984375 -0.984375 "/>
</g>
<g id="glyph-1-24">
<path d="M 1.53125 -0.015625 L 1.53125 -0.71875 L 0.8125 -0.71875 L 0.8125 0 L 1.03125 0 L 0.796875 1.015625 L 1.15625 1.015625 Z M 1.53125 -0.015625 "/>
</g>
<g id="glyph-1-25">
<path d="M 4 -3.609375 C 3.828125 -3.609375 3.296875 -3.609375 2.6875 -3.375 L 2.671875 -3.359375 C 2.390625 -3.5625 2.109375 -3.609375 1.875 -3.609375 C 1.09375 -3.609375 0.515625 -3 0.515625 -2.3125 C 0.515625 -2.03125 0.609375 -1.75 0.796875 -1.53125 C 0.6875 -1.390625 0.5625 -1.171875 0.5625 -0.859375 C 0.5625 -0.5625 0.6875 -0.359375 0.765625 -0.265625 C 0.328125 -0.015625 0.234375 0.359375 0.234375 0.546875 C 0.234375 1.15625 1.078125 1.625 2.109375 1.625 C 3.15625 1.625 3.984375 1.15625 3.984375 0.546875 C 3.984375 -0.578125 2.578125 -0.578125 2.25 -0.578125 L 1.5 -0.578125 C 1.375 -0.578125 1.03125 -0.578125 1.03125 -0.984375 C 1.03125 -1.140625 1.09375 -1.21875 1.09375 -1.234375 C 1.375 -1.0625 1.65625 -1.015625 1.875 -1.015625 C 2.640625 -1.015625 3.234375 -1.625 3.234375 -2.3125 C 3.234375 -2.5625 3.15625 -2.796875 3.015625 -3 C 2.984375 -3.046875 2.984375 -3.0625 2.984375 -3.0625 C 2.984375 -3.109375 3.453125 -3.109375 3.5 -3.109375 C 3.5 -3.109375 3.8125 -3.109375 4.09375 -3.0625 Z M 1.875 -1.5 C 1.453125 -1.5 1.125 -1.78125 1.125 -2.3125 C 1.125 -2.921875 1.53125 -3.125 1.875 -3.125 C 2.296875 -3.125 2.609375 -2.84375 2.609375 -2.3125 C 2.609375 -1.6875 2.21875 -1.5 1.875 -1.5 Z M 2.25 0.046875 C 2.4375 0.046875 3.375 0.046875 3.375 0.5625 C 3.375 0.90625 2.78125 1.140625 2.109375 1.140625 C 1.4375 1.140625 0.84375 0.90625 0.84375 0.5625 C 0.84375 0.515625 0.84375 0.046875 1.484375 0.046875 Z M 2.25 0.046875 "/>
</g>
<g id="glyph-1-26">
<path d="M 3.703125 -2.359375 C 3.703125 -2.96875 3.515625 -3.609375 2.53125 -3.609375 C 1.859375 -3.609375 1.484375 -3.21875 1.328125 -3.046875 L 1.328125 -5.515625 L 0.65625 -5.515625 L 0.65625 0 L 1.359375 0 L 1.359375 -1.9375 C 1.359375 -2.453125 1.578125 -3.078125 2.1875 -3.078125 C 3 -3.078125 3 -2.53125 3 -2.296875 L 3 0 L 3.703125 0 Z M 3.703125 -2.359375 "/>
</g>
<g id="glyph-1-27">
<path d="M 2.34375 -1.515625 L 2.34375 -2.015625 L 0.09375 -2.015625 L 0.09375 -1.515625 Z M 2.34375 -1.515625 "/>
</g>
<g id="glyph-1-28">
<path d="M 1.515625 -3.03125 L 2.421875 -3.03125 L 2.421875 -3.53125 L 1.484375 -3.53125 L 1.484375 -4.453125 C 1.484375 -5 1.984375 -5.078125 2.25 -5.078125 C 2.421875 -5.078125 2.625 -5.046875 2.921875 -4.9375 L 2.921875 -5.515625 C 2.71875 -5.5625 2.46875 -5.59375 2.265625 -5.59375 C 1.4375 -5.59375 0.84375 -5.015625 0.84375 -4.21875 L 0.84375 -3.53125 L 0.234375 -3.53125 L 0.234375 -3.03125 L 0.84375 -3.03125 L 0.84375 0 L 1.515625 0 Z M 1.515625 -3.03125 "/>
</g>
<g id="glyph-1-29">
<path d="M 5.5 -5.515625 L 4.8125 -5.515625 L 3.8125 -3.078125 C 3.75 -2.9375 2.96875 -1.03125 2.890625 -0.625 C 2.8125 -1.03125 2.015625 -2.953125 1.984375 -3.03125 L 0.96875 -5.515625 L 0.125 -5.515625 L 2.40625 0 L 3.21875 0 Z M 5.5 -5.515625 "/>
</g>
<g id="glyph-1-30">
<path d="M 3.875 -2.578125 C 3.875 -2.96875 3.875 -3.890625 3.5 -4.546875 C 3.109375 -5.265625 2.484375 -5.390625 2.109375 -5.390625 C 1.75 -5.390625 1.125 -5.265625 0.734375 -4.59375 C 0.34375 -3.953125 0.328125 -3.078125 0.328125 -2.578125 C 0.328125 -2 0.359375 -1.265625 0.703125 -0.671875 C 1.046875 -0.03125 1.640625 0.171875 2.109375 0.171875 C 2.90625 0.171875 3.34375 -0.296875 3.578125 -0.796875 C 3.859375 -1.359375 3.875 -2.09375 3.875 -2.578125 Z M 2.109375 -0.359375 C 1.78125 -0.359375 1.390625 -0.546875 1.1875 -1.125 C 1.03125 -1.609375 1.03125 -2.109375 1.03125 -2.6875 C 1.03125 -3.421875 1.03125 -4.859375 2.109375 -4.859375 C 3.1875 -4.859375 3.1875 -3.421875 3.1875 -2.6875 C 3.1875 -2.15625 3.1875 -1.5625 3 -1.0625 C 2.78125 -0.484375 2.375 -0.359375 2.109375 -0.359375 Z M 2.109375 -0.359375 "/>
</g>
<g id="glyph-1-31">
<path d="M 2.546875 -5.390625 L 2.375 -5.390625 C 1.859375 -4.90625 1.203125 -4.875 0.734375 -4.859375 L 0.734375 -4.359375 C 1.046875 -4.359375 1.4375 -4.375 1.84375 -4.546875 L 1.84375 -0.5 L 0.78125 -0.5 L 0.78125 0 L 3.609375 0 L 3.609375 -0.5 L 2.546875 -0.5 Z M 2.546875 -5.390625 "/>
</g>
<g id="glyph-1-32">
<path d="M 2.984375 -2.265625 C 4.015625 -2.265625 4.921875 -2.984375 4.921875 -3.90625 C 4.921875 -4.75 4.078125 -5.515625 2.921875 -5.515625 L 0.78125 -5.515625 L 0.78125 0 L 1.578125 0 L 1.578125 -2.265625 Z M 2.734375 -5.046875 C 3.625 -5.046875 4.203125 -4.578125 4.203125 -3.90625 C 4.203125 -3.25 3.65625 -2.765625 2.734375 -2.765625 L 1.5625 -2.765625 L 1.5625 -5.046875 Z M 2.734375 -5.046875 "/>
</g>
<g id="glyph-1-33">
<path d="M 1.53125 -3.53125 L 0.8125 -3.53125 L 0.8125 -2.8125 L 1.53125 -2.8125 Z M 0.796875 1.015625 L 1.15625 1.015625 L 1.53125 -0.015625 L 1.53125 -0.71875 L 0.8125 -0.71875 L 0.8125 0 L 1.03125 0 Z M 0.796875 1.015625 "/>
</g>
<g id="glyph-1-34">
<path d="M 3.765625 -3.53125 L 3.125 -3.53125 C 2.484375 -2.015625 2.03125 -0.984375 2 -0.5 C 1.984375 -0.71875 1.84375 -1.125 1.703125 -1.5 C 1.578125 -1.8125 1.453125 -2.125 1.296875 -2.4375 L 0.796875 -3.53125 L 0.125 -3.53125 L 1.765625 0 C 1.671875 0.234375 1.515625 0.59375 1.46875 0.703125 C 1.296875 1.03125 1.1875 1.140625 0.96875 1.140625 C 0.9375 1.140625 0.640625 1.140625 0.296875 1 L 0.34375 1.5625 C 0.421875 1.578125 0.71875 1.625 0.96875 1.625 C 1.28125 1.625 1.5625 1.5 1.90625 0.734375 Z M 3.765625 -3.53125 "/>
</g>
<g id="glyph-2-0">
<path d="M 1.8125 -2.90625 L 3.078125 -2.90625 C 3.203125 -2.90625 3.421875 -2.90625 3.421875 -3.171875 C 3.421875 -3.421875 3.203125 -3.421875 3.078125 -3.421875 L 1.8125 -3.421875 L 1.8125 -4.0625 C 1.8125 -4.21875 1.8125 -4.40625 1.515625 -4.40625 C 1.203125 -4.40625 1.203125 -4.203125 1.203125 -4.0625 L 1.203125 -3.421875 L 0.546875 -3.421875 C 0.421875 -3.421875 0.203125 -3.421875 0.203125 -3.171875 C 0.203125 -2.90625 0.421875 -2.90625 0.546875 -2.90625 L 1.203125 -2.90625 L 1.203125 -1.09375 C 1.203125 -0.234375 1.8125 0.046875 2.375 0.046875 C 3.078125 0.046875 3.609375 -0.46875 3.609375 -1.03125 C 3.609375 -1.296875 3.375 -1.296875 3.3125 -1.296875 C 3.109375 -1.296875 3.015625 -1.21875 3 -1.03125 C 2.984375 -0.703125 2.703125 -0.484375 2.40625 -0.484375 C 1.8125 -0.484375 1.8125 -0.921875 1.8125 -1.109375 Z M 1.8125 -2.90625 "/>
</g>
<g id="glyph-2-1">
<path d="M 3.78125 -1.71875 C 3.78125 -2.6875 3.03125 -3.484375 2.109375 -3.484375 C 1.1875 -3.484375 0.4375 -2.6875 0.4375 -1.71875 C 0.4375 -0.71875 1.203125 0.046875 2.109375 0.046875 C 3.015625 0.046875 3.78125 -0.71875 3.78125 -1.71875 Z M 2.109375 -0.484375 C 1.53125 -0.484375 1.046875 -1.046875 1.046875 -1.78125 C 1.046875 -2.46875 1.546875 -2.96875 2.109375 -2.96875 C 2.671875 -2.96875 3.171875 -2.46875 3.171875 -1.78125 C 3.171875 -1.046875 2.6875 -0.484375 2.109375 -0.484375 Z M 2.109375 -0.484375 "/>
</g>
<g id="glyph-2-2">
<path d="M 2.359375 -2 L 2.34375 -2.015625 L 3.296875 -2.90625 L 3.5625 -2.90625 C 3.6875 -2.90625 3.90625 -2.90625 3.90625 -3.171875 C 3.90625 -3.421875 3.6875 -3.421875 3.5625 -3.421875 L 2.34375 -3.421875 C 2.21875 -3.421875 2 -3.421875 2 -3.171875 C 2 -2.90625 2.21875 -2.90625 2.34375 -2.90625 L 2.5625 -2.90625 L 1.359375 -1.78125 L 1.359375 -4.515625 C 1.359375 -4.78125 1.28125 -4.859375 1.015625 -4.859375 L 0.515625 -4.859375 C 0.390625 -4.859375 0.15625 -4.859375 0.15625 -4.59375 C 0.15625 -4.328125 0.390625 -4.328125 0.515625 -4.328125 L 0.859375 -4.328125 L 0.859375 -0.53125 L 0.515625 -0.53125 C 0.390625 -0.53125 0.15625 -0.53125 0.15625 -0.265625 C 0.15625 0 0.390625 0 0.515625 0 L 1.71875 0 C 1.84375 0 2.0625 0 2.0625 -0.265625 C 2.0625 -0.53125 1.828125 -0.53125 1.71875 -0.53125 L 1.359375 -0.53125 L 1.359375 -1.109375 L 1.984375 -1.671875 L 2.875 -0.53125 C 2.671875 -0.53125 2.453125 -0.53125 2.453125 -0.265625 C 2.453125 0 2.703125 0 2.8125 0 L 3.734375 0 C 3.859375 0 4.078125 0 4.078125 -0.265625 C 4.078125 -0.53125 3.859375 -0.53125 3.734375 -0.53125 L 3.5 -0.53125 Z M 2.359375 -2 "/>
</g>
<g id="glyph-2-3">
<path d="M 3.390625 -1.5 C 3.546875 -1.5 3.734375 -1.5 3.734375 -1.796875 C 3.734375 -2.75 3.203125 -3.484375 2.171875 -3.484375 C 1.1875 -3.484375 0.421875 -2.703125 0.421875 -1.71875 C 0.421875 -0.78125 1.21875 0.046875 2.296875 0.046875 C 3.390625 0.046875 3.734375 -0.65625 3.734375 -0.859375 C 3.734375 -1.03125 3.609375 -1.109375 3.4375 -1.109375 C 3.296875 -1.109375 3.21875 -1.09375 3.140625 -0.921875 C 2.984375 -0.5625 2.59375 -0.484375 2.34375 -0.484375 C 1.75 -0.484375 1.171875 -0.859375 1.046875 -1.5 Z M 1.0625 -2.015625 C 1.171875 -2.5625 1.640625 -2.96875 2.171875 -2.96875 C 2.890625 -2.96875 3.0625 -2.40625 3.125 -2.015625 Z M 1.0625 -2.015625 "/>
</g>
<g id="glyph-2-4">
<path d="M 3.453125 -2.90625 C 3.59375 -2.90625 3.796875 -2.90625 3.84375 -2.921875 C 3.9375 -2.953125 4.015625 -3.015625 4.015625 -3.171875 C 4.015625 -3.421875 3.78125 -3.421875 3.65625 -3.421875 L 2.765625 -3.421875 C 2.625 -3.421875 2.40625 -3.421875 2.40625 -3.171875 C 2.40625 -3.140625 2.40625 -2.984375 2.546875 -2.921875 C 2.59375 -2.90625 2.796875 -2.90625 2.9375 -2.90625 C 2.84375 -2.640625 2.65625 -2.078125 2.53125 -1.703125 C 2.40625 -1.34375 2.234375 -0.8125 2.1875 -0.625 L 2.171875 -0.625 C 2.15625 -0.734375 2.109375 -0.875 1.78125 -1.734375 L 1.3125 -2.90625 C 1.4375 -2.90625 1.625 -2.90625 1.671875 -2.921875 C 1.75 -2.953125 1.828125 -3.03125 1.828125 -3.171875 C 1.828125 -3.421875 1.59375 -3.421875 1.46875 -3.421875 L 0.578125 -3.421875 C 0.453125 -3.421875 0.21875 -3.421875 0.21875 -3.171875 C 0.21875 -3.125 0.234375 -2.96875 0.375 -2.921875 C 0.421875 -2.90625 0.65625 -2.90625 0.78125 -2.90625 L 1.90625 -0.109375 C 1.921875 -0.046875 1.9375 -0.015625 1.9375 0 C 1.9375 0.03125 1.71875 0.65625 1.65625 0.796875 C 1.515625 1.078125 1.3125 1.25 1.015625 1.28125 L 1.09375 1.125 C 1.078125 0.875 0.90625 0.75 0.71875 0.75 C 0.5 0.75 0.34375 0.90625 0.34375 1.140625 C 0.34375 1.453125 0.59375 1.8125 1.015625 1.8125 C 1.640625 1.8125 2.046875 1.1875 2.234375 0.65625 Z M 3.453125 -2.90625 "/>
</g>
<g id="glyph-2-5">
<path d="M 3.5 0.40625 C 3.5 0.28125 3.421875 0.21875 3.375 0.1875 C 2.15625 -0.609375 1.96875 -1.796875 1.96875 -2.421875 C 1.96875 -2.75 2.015625 -3.328125 2.34375 -3.9375 C 2.640625 -4.484375 2.984375 -4.796875 3.390625 -5.0625 C 3.484375 -5.125 3.5 -5.21875 3.5 -5.265625 C 3.5 -5.375 3.4375 -5.515625 3.25 -5.515625 C 2.984375 -5.515625 1.375 -4.453125 1.375 -2.4375 C 1.375 -0.40625 2.984375 0.65625 3.25 0.65625 C 3.4375 0.65625 3.5 0.515625 3.5 0.40625 Z M 3.5 0.40625 "/>
</g>
<g id="glyph-2-6">
<path d="M 3.421875 -2.25 C 3.421875 -2.90625 2.90625 -3.484375 1.828125 -3.484375 C 1.453125 -3.484375 0.625 -3.484375 0.625 -2.875 C 0.625 -2.671875 0.78125 -2.484375 1.015625 -2.484375 C 1.171875 -2.484375 1.390625 -2.578125 1.40625 -2.875 C 1.40625 -2.9375 1.40625 -2.9375 1.515625 -2.953125 C 1.59375 -2.96875 1.734375 -2.96875 1.828125 -2.96875 C 2.484375 -2.96875 2.828125 -2.671875 2.828125 -2.234375 C 1.96875 -2.234375 0.421875 -2.03125 0.421875 -1.0625 C 0.421875 -0.46875 0.96875 0.046875 1.78125 0.046875 C 2.40625 0.046875 2.8125 -0.203125 2.90625 -0.265625 C 3.078125 -0.03125 3.40625 0 3.796875 0 C 4.015625 0 4.21875 0 4.21875 -0.265625 C 4.21875 -0.53125 4 -0.53125 3.875 -0.53125 C 3.578125 -0.53125 3.5 -0.546875 3.421875 -0.578125 Z M 2.828125 -1.140625 C 2.828125 -0.96875 2.828125 -0.78125 2.515625 -0.640625 C 2.234375 -0.5 1.921875 -0.484375 1.828125 -0.484375 C 1.359375 -0.484375 1.03125 -0.765625 1.03125 -1.0625 C 1.03125 -1.484375 1.90625 -1.71875 2.828125 -1.71875 Z M 2.828125 -1.140625 "/>
</g>
<g id="glyph-2-7">
<path d="M 3.453125 -4.515625 C 3.453125 -4.78125 3.375 -4.859375 3.125 -4.859375 L 2.53125 -4.859375 C 2.40625 -4.859375 2.1875 -4.859375 2.1875 -4.59375 C 2.1875 -4.328125 2.40625 -4.328125 2.53125 -4.328125 L 2.859375 -4.328125 L 2.859375 -3.140625 C 2.484375 -3.421875 2.15625 -3.46875 1.9375 -3.46875 C 1.0625 -3.46875 0.265625 -2.71875 0.265625 -1.703125 C 0.265625 -0.734375 1 0.046875 1.875 0.046875 C 2.296875 0.046875 2.625 -0.15625 2.859375 -0.375 C 2.859375 -0.15625 2.859375 0 3.203125 0 L 3.78125 0 C 3.90625 0 4.125 0 4.125 -0.265625 C 4.125 -0.53125 3.90625 -0.53125 3.78125 -0.53125 L 3.453125 -0.53125 Z M 2.859375 -1.5625 C 2.859375 -1.109375 2.484375 -0.484375 1.890625 -0.484375 C 1.359375 -0.484375 0.875 -1.015625 0.875 -1.703125 C 0.875 -2.421875 1.40625 -2.9375 1.984375 -2.9375 C 2.453125 -2.9375 2.859375 -2.53125 2.859375 -2.09375 Z M 2.859375 -1.5625 "/>
</g>
<g id="glyph-2-8">
<path d="M 1.796875 -1.453125 C 1.796875 -2.328125 2.421875 -2.9375 3.1875 -2.9375 C 3.203125 -2.625 3.421875 -2.5625 3.5625 -2.5625 C 3.75 -2.5625 3.921875 -2.71875 3.921875 -2.9375 C 3.921875 -3.140625 3.78125 -3.46875 3.15625 -3.46875 C 2.421875 -3.46875 2 -3.046875 1.796875 -2.84375 L 1.796875 -3.078125 C 1.796875 -3.359375 1.71875 -3.421875 1.453125 -3.421875 L 0.59375 -3.421875 C 0.484375 -3.421875 0.234375 -3.421875 0.234375 -3.171875 C 0.234375 -2.90625 0.484375 -2.90625 0.59375 -2.90625 L 1.1875 -2.90625 L 1.1875 -0.53125 L 0.59375 -0.53125 C 0.484375 -0.53125 0.234375 -0.53125 0.234375 -0.265625 C 0.234375 0 0.484375 0 0.59375 0 L 2.640625 0 C 2.765625 0 2.984375 0 2.984375 -0.265625 C 2.984375 -0.53125 2.765625 -0.53125 2.640625 -0.53125 L 1.796875 -0.53125 Z M 1.796875 -1.453125 "/>
</g>
<g id="glyph-2-9">
<path d="M 2.84375 -2.421875 C 2.84375 -4.453125 1.234375 -5.515625 0.96875 -5.515625 C 0.78125 -5.515625 0.703125 -5.390625 0.703125 -5.265625 C 0.703125 -5.1875 0.75 -5.109375 0.828125 -5.0625 C 1.125 -4.859375 1.546875 -4.5625 1.875 -3.9375 C 2.125 -3.46875 2.25 -2.9375 2.25 -2.4375 C 2.25 -1.671875 1.96875 -0.578125 0.921875 0.140625 C 0.765625 0.25 0.703125 0.28125 0.703125 0.40625 C 0.703125 0.53125 0.78125 0.65625 0.96875 0.65625 C 1.234375 0.65625 2.84375 -0.40625 2.84375 -2.421875 Z M 2.84375 -2.421875 "/>
</g>
<g id="glyph-2-10">
<path d="M 3.4375 -3.15625 C 3.4375 -3.265625 3.4375 -3.484375 3.1875 -3.484375 C 3 -3.484375 2.953125 -3.390625 2.9375 -3.34375 C 2.609375 -3.484375 2.296875 -3.484375 2.109375 -3.484375 C 0.75 -3.484375 0.578125 -2.828125 0.578125 -2.546875 C 0.578125 -1.8125 1.421875 -1.671875 2.109375 -1.5625 C 2.546875 -1.5 3.15625 -1.40625 3.15625 -1.015625 C 3.15625 -0.71875 2.859375 -0.484375 2.15625 -0.484375 C 1.671875 -0.484375 1.359375 -0.65625 1.1875 -1.125 C 1.140625 -1.25 1.109375 -1.359375 0.875 -1.359375 C 0.578125 -1.359375 0.578125 -1.15625 0.578125 -1.015625 L 0.578125 -0.296875 C 0.578125 -0.1875 0.578125 0.046875 0.84375 0.046875 C 0.921875 0.046875 1.0625 0.015625 1.140625 -0.21875 C 1.546875 0.046875 2 0.046875 2.15625 0.046875 C 3.5 0.046875 3.6875 -0.703125 3.6875 -1 C 3.6875 -1.1875 3.625 -1.484375 3.3125 -1.703125 C 3 -1.953125 2.6875 -2 2.125 -2.09375 C 1.59375 -2.171875 1.109375 -2.265625 1.109375 -2.546875 C 1.109375 -2.703125 1.296875 -2.96875 2.09375 -2.96875 C 2.8125 -2.96875 2.828125 -2.71875 2.84375 -2.5625 C 2.859375 -2.3125 3.046875 -2.3125 3.140625 -2.3125 C 3.4375 -2.3125 3.4375 -2.5 3.4375 -2.65625 Z M 3.4375 -3.15625 "/>
</g>
<g id="glyph-2-11">
<path d="M 2.515625 -4.4375 C 2.515625 -4.671875 2.328125 -4.875 2.078125 -4.875 C 1.84375 -4.875 1.65625 -4.671875 1.65625 -4.4375 C 1.65625 -4.203125 1.84375 -4.015625 2.078125 -4.015625 C 2.328125 -4.015625 2.515625 -4.203125 2.515625 -4.4375 Z M 1.046875 -3.421875 C 0.921875 -3.421875 0.6875 -3.421875 0.6875 -3.171875 C 0.6875 -2.90625 0.9375 -2.90625 1.046875 -2.90625 L 1.90625 -2.90625 L 1.90625 -0.53125 L 0.984375 -0.53125 C 0.859375 -0.53125 0.625 -0.53125 0.625 -0.265625 C 0.625 0 0.859375 0 0.984375 0 L 3.3125 0 C 3.421875 0 3.671875 0 3.671875 -0.265625 C 3.671875 -0.53125 3.421875 -0.53125 3.3125 -0.53125 L 2.515625 -0.53125 L 2.515625 -3.078125 C 2.515625 -3.359375 2.4375 -3.421875 2.171875 -3.421875 Z M 1.046875 -3.421875 "/>
</g>
<g id="glyph-2-12">
<path d="M 2.40625 -4.515625 C 2.40625 -4.78125 2.328125 -4.859375 2.0625 -4.859375 L 0.8125 -4.859375 C 0.6875 -4.859375 0.46875 -4.859375 0.46875 -4.59375 C 0.46875 -4.328125 0.703125 -4.328125 0.8125 -4.328125 L 1.8125 -4.328125 L 1.8125 -0.53125 L 0.8125 -0.53125 C 0.6875 -0.53125 0.46875 -0.53125 0.46875 -0.265625 C 0.46875 0 0.703125 0 0.8125 0 L 3.40625 0 C 3.515625 0 3.75 0 3.75 -0.265625 C 3.75 -0.53125 3.515625 -0.53125 3.40625 -0.53125 L 2.40625 -0.53125 Z M 2.40625 -4.515625 "/>
</g>
<g id="glyph-2-13">
<path d="M 3.671875 -2.859375 C 3.796875 -2.96875 3.796875 -3.03125 3.796875 -3.140625 C 3.796875 -3.421875 3.59375 -3.421875 3.453125 -3.421875 L 0.75 -3.421875 C 0.5 -3.421875 0.390625 -3.375 0.390625 -3.078125 L 0.390625 -2.71875 C 0.390625 -2.5625 0.390625 -2.375 0.703125 -2.375 C 1 -2.375 1 -2.5625 1 -2.71875 L 1 -2.90625 L 2.875 -2.90625 L 0.375 -0.578125 C 0.265625 -0.46875 0.265625 -0.390625 0.265625 -0.296875 C 0.265625 0 0.46875 0 0.609375 0 L 3.46875 0 C 3.734375 0 3.8125 -0.0625 3.8125 -0.34375 L 3.8125 -0.796875 C 3.8125 -0.953125 3.8125 -1.140625 3.515625 -1.140625 C 3.21875 -1.140625 3.21875 -0.953125 3.21875 -0.796875 L 3.21875 -0.53125 L 1.171875 -0.53125 Z M 3.671875 -2.859375 "/>
</g>
<g id="glyph-2-14">
<path d="M 1.6875 1.765625 C 1.8125 1.765625 2.03125 1.765625 2.03125 1.5 C 2.03125 1.234375 1.8125 1.234375 1.6875 1.234375 L 1.359375 1.234375 L 1.359375 -0.328125 C 1.609375 -0.09375 1.921875 0.046875 2.265625 0.046875 C 3.15625 0.046875 3.9375 -0.703125 3.9375 -1.71875 C 3.9375 -2.6875 3.234375 -3.46875 2.34375 -3.46875 C 1.96875 -3.46875 1.640625 -3.328125 1.359375 -3.109375 C 1.359375 -3.421875 1.1875 -3.421875 1.015625 -3.421875 L 0.421875 -3.421875 C 0.296875 -3.421875 0.09375 -3.421875 0.09375 -3.171875 C 0.09375 -2.90625 0.296875 -2.90625 0.421875 -2.90625 L 0.75 -2.90625 L 0.75 1.234375 L 0.421875 1.234375 C 0.296875 1.234375 0.09375 1.234375 0.09375 1.5 C 0.09375 1.765625 0.296875 1.765625 0.421875 1.765625 Z M 1.359375 -2.09375 C 1.359375 -2.546875 1.828125 -2.9375 2.3125 -2.9375 C 2.875 -2.9375 3.34375 -2.40625 3.34375 -1.71875 C 3.34375 -1 2.796875 -0.484375 2.25 -0.484375 C 1.65625 -0.484375 1.359375 -1.140625 1.359375 -1.546875 Z M 1.359375 -2.09375 "/>
</g>
<g id="glyph-2-15">
<path d="M 3.453125 -2.3125 C 3.453125 -3.109375 3.0625 -3.46875 2.40625 -3.46875 C 1.828125 -3.46875 1.4375 -3.15625 1.359375 -3.0625 L 1.359375 -4.515625 C 1.359375 -4.78125 1.28125 -4.859375 1.015625 -4.859375 L 0.421875 -4.859375 C 0.296875 -4.859375 0.09375 -4.859375 0.09375 -4.59375 C 0.09375 -4.328125 0.296875 -4.328125 0.421875 -4.328125 L 0.75 -4.328125 L 0.75 -0.53125 L 0.421875 -0.53125 C 0.296875 -0.53125 0.09375 -0.53125 0.09375 -0.265625 C 0.09375 0 0.296875 0 0.421875 0 L 1.6875 0 C 1.8125 0 2.03125 0 2.03125 -0.265625 C 2.03125 -0.53125 1.8125 -0.53125 1.6875 -0.53125 L 1.359375 -0.53125 L 1.359375 -1.890625 C 1.359375 -2.65625 1.96875 -2.9375 2.375 -2.9375 C 2.734375 -2.9375 2.859375 -2.765625 2.859375 -2.296875 L 2.859375 -0.53125 L 2.59375 -0.53125 C 2.46875 -0.53125 2.25 -0.53125 2.25 -0.265625 C 2.25 0 2.46875 0 2.59375 0 L 3.78125 0 C 3.90625 0 4.125 0 4.125 -0.265625 C 4.125 -0.53125 3.90625 -0.53125 3.78125 -0.53125 L 3.453125 -0.53125 Z M 3.453125 -2.3125 "/>
</g>
<g id="glyph-3-0">
<path d="M 6.9375 -1.8125 C 6.671875 -1.609375 6.421875 -1.359375 6.234375 -1.0625 C 5.890625 -0.546875 5.8125 -0.046875 5.8125 -0.015625 C 5.8125 0.109375 5.921875 0.109375 5.984375 0.109375 C 6.078125 0.109375 6.140625 0.109375 6.171875 0.015625 C 6.375 -0.875 6.890625 -1.546875 7.84375 -1.875 C 7.90625 -1.890625 7.984375 -1.90625 7.984375 -1.984375 C 7.984375 -2.0625 7.90625 -2.09375 7.875 -2.09375 C 6.8125 -2.453125 6.359375 -3.203125 6.1875 -3.90625 C 6.140625 -4.0625 6.140625 -4.09375 5.984375 -4.09375 C 5.921875 -4.09375 5.8125 -4.09375 5.8125 -3.96875 C 5.8125 -3.953125 5.890625 -3.421875 6.234375 -2.90625 C 6.46875 -2.5625 6.75 -2.328125 6.9375 -2.171875 L 0.765625 -2.171875 C 0.640625 -2.171875 0.46875 -2.171875 0.46875 -1.984375 C 0.46875 -1.8125 0.640625 -1.8125 0.765625 -1.8125 Z M 6.9375 -1.8125 "/>
</g>
<g id="glyph-3-1">
<path d="M 3.359375 1.796875 C 3.40625 1.9375 3.46875 1.984375 3.5625 1.984375 C 3.671875 1.984375 3.75 1.90625 3.75 1.8125 C 3.75 1.78125 3.75 1.765625 3.703125 1.65625 L 0.859375 -5.765625 C 0.796875 -5.90625 0.75 -5.96875 0.65625 -5.96875 C 0.546875 -5.96875 0.46875 -5.890625 0.46875 -5.78125 C 0.46875 -5.765625 0.46875 -5.734375 0.515625 -5.625 Z M 3.359375 1.796875 "/>
</g>
<g id="glyph-3-2">
<path d="M 1.609375 -1.984375 C 1.609375 -2.265625 1.390625 -2.4375 1.171875 -2.4375 C 0.921875 -2.4375 0.734375 -2.234375 0.734375 -2 C 0.734375 -1.71875 0.953125 -1.546875 1.171875 -1.546875 C 1.421875 -1.546875 1.609375 -1.75 1.609375 -1.984375 Z M 1.609375 -1.984375 "/>
</g>
<g id="glyph-4-0">
<path d="M 3.625 -3.40625 C 3.234375 -3.578125 2.921875 -3.65625 2.453125 -3.65625 C 0.8125 -3.65625 0.8125 -2.421875 0.8125 -2.40625 C 0.8125 -1.703125 1.546875 -1.578125 1.9375 -1.5 C 2.296875 -1.4375 2.640625 -1.359375 2.640625 -1.046875 C 2.640625 -1.03125 2.640625 -0.46875 1.75 -0.46875 C 1.28125 -0.46875 0.84375 -0.609375 0.53125 -0.859375 L 0.328125 -0.375 C 0.328125 -0.359375 0.296875 -0.3125 0.296875 -0.28125 C 0.296875 -0.25 0.84375 0.078125 1.640625 0.078125 C 1.8125 0.078125 2.375 0.078125 2.8125 -0.265625 C 3.1875 -0.578125 3.28125 -1.015625 3.28125 -1.234375 C 3.28125 -1.53125 3.140625 -1.765625 2.921875 -1.9375 C 2.71875 -2.078125 2.578125 -2.109375 1.96875 -2.21875 C 1.796875 -2.265625 1.46875 -2.328125 1.46875 -2.609375 C 1.46875 -2.640625 1.46875 -3.140625 2.265625 -3.140625 C 2.703125 -3.140625 3.03125 -3.046875 3.40625 -2.84375 Z M 3.625 -3.40625 "/>
</g>
<g id="glyph-4-1">
<path d="M 2.515625 -5.515625 L 1.84375 -5.515625 L 0.671875 0 L 1.34375 0 Z M 2.515625 -5.515625 "/>
</g>
<g id="glyph-4-2">
<path d="M 4.390625 -2.140625 C 4.390625 -3.015625 3.765625 -3.65625 2.875 -3.65625 C 1.671875 -3.65625 0.578125 -2.484375 0.578125 -1.375 C 0.578125 -0.515625 1.21875 0.078125 2.09375 0.078125 C 3.25 0.078125 4.390625 -0.953125 4.390625 -2.140625 Z M 2.21875 -0.46875 C 1.671875 -0.46875 1.265625 -0.796875 1.265625 -1.4375 C 1.265625 -2.3125 1.890625 -3.125 2.765625 -3.125 C 3.1875 -3.125 3.71875 -2.90625 3.71875 -2.171875 C 3.71875 -1.40625 3.140625 -0.46875 2.21875 -0.46875 Z M 2.21875 -0.46875 "/>
</g>
<g id="glyph-4-3">
<path d="M 2.140625 -3.03125 L 3.3125 -3.03125 L 3.421875 -3.53125 L 2.25 -3.53125 L 2.453125 -4.546875 L 1.84375 -4.546875 L 1.625 -3.53125 L 0.90625 -3.53125 L 0.796875 -3.03125 L 1.5 -3.03125 L 1.09375 -1.109375 C 1.0625 -0.96875 1.015625 -0.734375 1.015625 -0.5625 C 1.015625 -0.1875 1.15625 0.078125 1.546875 0.078125 C 1.90625 0.078125 2.328125 0.015625 2.859375 -0.21875 L 2.828125 -0.71875 C 2.578125 -0.578125 2.3125 -0.46875 2.015625 -0.46875 C 1.84375 -0.46875 1.703125 -0.5625 1.703125 -0.859375 C 1.703125 -0.953125 1.71875 -1.0625 1.71875 -1.0625 Z M 2.140625 -3.03125 "/>
</g>
<g id="glyph-5-0">
<path d="M 3.484375 -1.515625 C 3.484375 -2.4375 2.75 -3.1875 1.84375 -3.1875 C 0.9375 -3.1875 0.203125 -2.4375 0.203125 -1.515625 C 0.203125 -0.640625 0.953125 0.0625 1.84375 0.0625 C 2.75 0.0625 3.484375 -0.640625 3.484375 -1.515625 Z M 1.84375 -0.40625 C 1.296875 -0.40625 0.8125 -0.8125 0.8125 -1.59375 C 0.8125 -2.390625 1.328125 -2.734375 1.84375 -2.734375 C 2.359375 -2.734375 2.875 -2.375 2.875 -1.59375 C 2.875 -0.8125 2.375 -0.40625 1.84375 -0.40625 Z M 1.84375 -0.40625 "/>
</g>
<g id="glyph-5-1">
<path d="M 1.328125 -2.65625 L 2.125 -2.65625 L 2.125 -3.09375 L 1.296875 -3.09375 L 1.296875 -3.890625 C 1.296875 -4.390625 1.765625 -4.4375 1.96875 -4.4375 C 2.140625 -4.4375 2.328125 -4.421875 2.5625 -4.3125 L 2.5625 -4.828125 C 2.390625 -4.875 2.171875 -4.890625 1.984375 -4.890625 C 1.265625 -4.890625 0.734375 -4.375 0.734375 -3.6875 L 0.734375 -3.09375 L 0.203125 -3.09375 L 0.203125 -2.65625 L 0.734375 -2.65625 L 0.734375 0 L 1.328125 0 Z M 3.359375 -2.65625 L 4.171875 -2.65625 L 4.171875 -3.09375 L 3.34375 -3.09375 L 3.34375 -3.890625 C 3.34375 -4.390625 3.8125 -4.4375 4.015625 -4.4375 C 4.171875 -4.4375 4.359375 -4.421875 4.609375 -4.3125 L 4.609375 -4.828125 C 4.421875 -4.875 4.21875 -4.890625 4.03125 -4.890625 C 3.296875 -4.890625 2.78125 -4.375 2.78125 -3.6875 L 2.78125 0 L 3.359375 0 Z M 3.359375 -2.65625 "/>
</g>
<g id="glyph-5-2">
<path d="M 2.53125 -2.96875 C 2.0625 -3.171875 1.71875 -3.1875 1.46875 -3.1875 C 1.296875 -3.1875 0.25 -3.1875 0.25 -2.265625 C 0.25 -1.9375 0.421875 -1.765625 0.515625 -1.671875 C 0.765625 -1.4375 1.046875 -1.375 1.421875 -1.3125 C 1.75 -1.25 2.125 -1.171875 2.125 -0.84375 C 2.125 -0.40625 1.546875 -0.40625 1.453125 -0.40625 C 1 -0.40625 0.578125 -0.5625 0.3125 -0.765625 L 0.203125 -0.234375 C 0.4375 -0.125 0.875 0.0625 1.453125 0.0625 C 1.765625 0.0625 2.0625 0.015625 2.328125 -0.171875 C 2.578125 -0.359375 2.65625 -0.671875 2.65625 -0.90625 C 2.65625 -1.03125 2.65625 -1.296875 2.359375 -1.5625 C 2.09375 -1.796875 1.84375 -1.84375 1.515625 -1.90625 C 1.109375 -1.984375 0.78125 -2.046875 0.78125 -2.34375 C 0.78125 -2.75 1.296875 -2.75 1.390625 -2.75 C 1.796875 -2.75 2.09375 -2.65625 2.453125 -2.484375 Z M 2.53125 -2.96875 "/>
</g>
<g id="glyph-5-3">
<path d="M 2.984375 -0.765625 C 2.59375 -0.484375 2.15625 -0.390625 1.859375 -0.390625 C 1.265625 -0.390625 0.796875 -0.890625 0.78125 -1.515625 L 3.0625 -1.515625 C 3.0625 -1.84375 3.03125 -2.3125 2.75 -2.703125 C 2.5 -3.0625 2.09375 -3.1875 1.75 -3.1875 C 0.890625 -3.1875 0.25 -2.453125 0.25 -1.5625 C 0.25 -0.671875 0.9375 0.0625 1.859375 0.0625 C 2.265625 0.0625 2.671875 -0.046875 3.03125 -0.265625 Z M 0.828125 -1.9375 C 0.984375 -2.5 1.390625 -2.734375 1.75 -2.734375 C 2.046875 -2.734375 2.5 -2.59375 2.640625 -1.9375 Z M 0.828125 -1.9375 "/>
</g>
<g id="glyph-5-4">
<path d="M 1.3125 -2.65625 L 2.34375 -2.65625 L 2.34375 -3.09375 L 1.3125 -3.09375 L 1.3125 -3.96875 L 0.765625 -3.96875 L 0.765625 -3.09375 L 0.140625 -3.09375 L 0.140625 -2.65625 L 0.75 -2.65625 L 0.75 -0.890625 C 0.75 -0.421875 0.875 0.0625 1.375 0.0625 C 1.875 0.0625 2.25 -0.09375 2.46875 -0.1875 L 2.34375 -0.625 C 2.109375 -0.46875 1.875 -0.40625 1.671875 -0.40625 C 1.390625 -0.40625 1.3125 -0.703125 1.3125 -1.015625 Z M 1.3125 -2.65625 "/>
</g>
<g id="glyph-5-5">
<path d="M 1.984375 1.734375 L 1.984375 1.28125 L 1.296875 1.28125 L 1.296875 -4.75 L 1.984375 -4.75 L 1.984375 -5.21875 L 0.75 -5.21875 L 0.75 1.734375 Z M 1.984375 1.734375 "/>
</g>
<g id="glyph-5-6">
<path d="M 2.234375 -4.703125 L 2.078125 -4.703125 C 1.625 -4.296875 1.0625 -4.265625 0.640625 -4.25 L 0.640625 -3.8125 C 0.90625 -3.8125 1.265625 -3.828125 1.609375 -3.96875 L 1.609375 -0.4375 L 0.6875 -0.4375 L 0.6875 0 L 3.15625 0 L 3.15625 -0.4375 L 2.234375 -0.4375 Z M 2.234375 -4.703125 "/>
</g>
<g id="glyph-5-7">
<path d="M 1.390625 -5.21875 L 0.15625 -5.21875 L 0.15625 -4.75 L 0.84375 -4.75 L 0.84375 1.28125 L 0.15625 1.28125 L 0.15625 1.734375 L 1.390625 1.734375 Z M 1.390625 -5.21875 "/>
</g>
<g id="glyph-5-8">
<path d="M 1.328125 -0.625 L 0.703125 -0.625 L 0.703125 0 L 1.328125 0 Z M 1.328125 -0.625 "/>
</g>
<g id="glyph-5-9">
<path d="M 1.96875 -0.53125 C 1.890625 -0.53125 1.796875 -0.53125 1.71875 -0.53125 L 0.921875 -0.53125 L 2 -1.484375 C 2.125 -1.59375 2.46875 -1.84375 2.59375 -1.953125 C 2.90625 -2.234375 3.3125 -2.59375 3.3125 -3.203125 C 3.3125 -3.984375 2.734375 -4.703125 1.734375 -4.703125 C 1 -4.703125 0.546875 -4.3125 0.3125 -3.609375 L 0.625 -3.1875 C 0.796875 -3.78125 1.03125 -4.234375 1.640625 -4.234375 C 2.21875 -4.234375 2.671875 -3.8125 2.671875 -3.1875 C 2.671875 -2.609375 2.328125 -2.28125 1.90625 -1.890625 C 1.765625 -1.75 1.390625 -1.4375 1.25 -1.296875 C 1.046875 -1.125 0.5625 -0.65625 0.375 -0.484375 L 0.375 0 L 3.3125 0 L 3.3125 -0.53125 Z M 1.96875 -0.53125 "/>
</g>
</g>
<clipPath id="clip-0">
<path clip-rule="nonzero" d="M 41 93 L 319 93 L 319 138.253906 L 41 138.253906 Z M 41 93 "/>
</clipPath>
</defs>
<path fill-rule="nonzero" fill="rgb(91.717529%, 91.294861%, 98.774719%)" fill-opacity="1" stroke-width="0.79701" stroke-linecap="butt" stroke-linejoin="miter" stroke="rgb(0%, 0%, 0%)" stroke-opacity="1" stroke-miterlimit="10" d="M -0.00109082 120.20755 L -0.00109082 140.582538 C -0.00109082 142.783757 1.784952 144.5698 3.986171 144.5698 L 251.137672 144.5698 C 253.338891 144.5698 255.121017 142.783757 255.121017 140.582538 L 255.121017 120.20755 C 255.121017 118.00633 253.338891 116.220288 251.137672 116.220288 L 3.986171 116.220288 C 1.784952 116.220288 -0.00109082 118.00633 -0.00109082 120.20755 Z M -0.00109082 120.20755 " transform="matrix(0.997317, 0, 0, -0.997317, 53.055775, 152.525603)"/>
<g fill="rgb(0%, 0%, 0%)" fill-opacity="1">
<use xlink:href="#glyph-0-0" x="51.944765" y="24.468164"/>
<use xlink:href="#glyph-0-1" x="54.859558" y="24.468164"/>
<use xlink:href="#glyph-0-2" x="58.21153" y="24.468164"/>
<use xlink:href="#glyph-0-3" x="61.424399" y="24.468164"/>
<use xlink:href="#glyph-0-4" x="65.486986" y="24.468164"/>
<use xlink:href="#glyph-0-5" x="72.376136" y="24.468164"/>
<use xlink:href="#glyph-0-6" x="76.504697" y="24.468164"/>
<use xlink:href="#glyph-0-7" x="78.933824" y="24.468164"/>
<use xlink:href="#glyph-0-8" x="83.106898" y="24.468164"/>
<use xlink:href="#glyph-0-2" x="86.993023" y="24.468164"/>
</g>
<g fill="rgb(0%, 0%, 0%)" fill-opacity="1">
<use xlink:href="#glyph-1-0" x="95.364607" y="24.468164"/>
</g>
<g fill="rgb(0%, 0%, 0%)" fill-opacity="1">
<use xlink:href="#glyph-1-1" x="106.623959" y="24.468164"/>
<use xlink:href="#glyph-1-2" x="112.254032" y="24.468164"/>
<use xlink:href="#glyph-1-3" x="115.13862" y="24.468164"/>
<use xlink:href="#glyph-1-4" x="118.892002" y="24.468164"/>
<use xlink:href="#glyph-1-5" x="123.252666" y="24.468164"/>
<use xlink:href="#glyph-1-6" x="127.309688" y="24.468164"/>
<use xlink:href="#glyph-1-7" x="132.705275" y="24.468164"/>
<use xlink:href="#glyph-1-8" x="136.928426" y="24.468164"/>
<use xlink:href="#glyph-1-9" x="143.635549" y="24.468164"/>
<use xlink:href="#glyph-1-5" x="147.996213" y="24.468164"/>
<use xlink:href="#glyph-1-10" x="152.053236" y="24.468164"/>
<use xlink:href="#glyph-1-11" x="155.806618" y="24.468164"/>
<use xlink:href="#glyph-1-12" x="158.856539" y="24.468164"/>
</g>
<g fill="rgb(0%, 0%, 0%)" fill-opacity="1">
<use xlink:href="#glyph-1-2" x="163.925433" y="24.468164"/>
<use xlink:href="#glyph-1-3" x="166.810021" y="24.468164"/>
<use xlink:href="#glyph-1-3" x="170.563403" y="24.468164"/>
</g>
<g fill="rgb(0%, 0%, 0%)" fill-opacity="1">
<use xlink:href="#glyph-1-13" x="177.130629" y="24.468164"/>
<use xlink:href="#glyph-1-8" x="180.415037" y="24.468164"/>
<use xlink:href="#glyph-1-8" x="187.122161" y="24.468164"/>
<use xlink:href="#glyph-1-5" x="193.829285" y="24.468164"/>
<use xlink:href="#glyph-1-9" x="197.886308" y="24.468164"/>
<use xlink:href="#glyph-1-14" x="202.246971" y="24.468164"/>
<use xlink:href="#glyph-1-15" x="205.53138" y="24.468164"/>
</g>
<g fill="rgb(0%, 0%, 0%)" fill-opacity="1">
<use xlink:href="#glyph-2-0" x="216.318577" y="24.468164"/>
<use xlink:href="#glyph-2-1" x="220.541728" y="24.468164"/>
</g>
<path fill="none" stroke-width="0.398" stroke-linecap="butt" stroke-linejoin="miter" stroke="rgb(0%, 0%, 0%)" stroke-opacity="1" stroke-miterlimit="10" d="M -0.000956383 0.000167365 L 2.541021 0.000167365 " transform="matrix(0.997317, 0, 0, -0.997317, 225.274391, 24.269698)"/>
<g fill="rgb(0%, 0%, 0%)" fill-opacity="1">
<use xlink:href="#glyph-2-2" x="227.807575" y="24.468164"/>
<use xlink:href="#glyph-2-3" x="232.030726" y="24.468164"/>
<use xlink:href="#glyph-2-4" x="236.253877" y="24.468164"/>
<use xlink:href="#glyph-2-5" x="240.477028" y="24.468164"/>
<use xlink:href="#glyph-2-6" x="244.700179" y="24.468164"/>
<use xlink:href="#glyph-2-7" x="248.92333" y="24.468164"/>
<use xlink:href="#glyph-2-7" x="253.146481" y="24.468164"/>
<use xlink:href="#glyph-2-8" x="257.369632" y="24.468164"/>
<use xlink:href="#glyph-2-9" x="261.592783" y="24.468164"/>
</g>
<g fill="rgb(0%, 0%, 0%)" fill-opacity="1">
<use xlink:href="#glyph-3-0" x="268.629779" y="24.468164"/>
</g>
<g fill="rgb(0%, 0%, 0%)" fill-opacity="1">
<use xlink:href="#glyph-1-16" x="279.88913" y="24.468164"/>
<use xlink:href="#glyph-1-17" x="284.249794" y="24.468164"/>
<use xlink:href="#glyph-1-18" x="288.472945" y="24.468164"/>
</g>
<g fill="rgb(0%, 0%, 0%)" fill-opacity="1">
<use xlink:href="#glyph-4-0" x="295.50994" y="24.468164"/>
<use xlink:href="#glyph-4-1" x="298.747451" y="24.468164"/>
<use xlink:href="#glyph-4-2" x="300.762449" y="24.468164"/>
<use xlink:href="#glyph-4-3" x="304.9856" y="24.468164"/>
</g>
<g fill="rgb(0%, 0%, 0%)" fill-opacity="1">
<use xlink:href="#glyph-0-0" x="56.565332" y="56.979686"/>
<use xlink:href="#glyph-0-1" x="59.480125" y="56.979686"/>
<use xlink:href="#glyph-0-2" x="62.832097" y="56.979686"/>
<use xlink:href="#glyph-0-3" x="66.044967" y="56.979686"/>
<use xlink:href="#glyph-0-4" x="70.107554" y="56.979686"/>
<use xlink:href="#glyph-0-5" x="76.996703" y="56.979686"/>
<use xlink:href="#glyph-0-6" x="81.125265" y="56.979686"/>
<use xlink:href="#glyph-0-9" x="83.554391" y="56.979686"/>
<use xlink:href="#glyph-0-7" x="87.528747" y="56.979686"/>
<use xlink:href="#glyph-0-10" x="91.701822" y="56.979686"/>
<use xlink:href="#glyph-0-1" x="93.733512" y="56.979686"/>
</g>
<g fill="rgb(0%, 0%, 0%)" fill-opacity="1">
<use xlink:href="#glyph-1-0" x="102.244199" y="56.979686"/>
</g>
<g fill="rgb(0%, 0%, 0%)" fill-opacity="1">
<use xlink:href="#glyph-1-19" x="113.50355" y="56.979686"/>
<use xlink:href="#glyph-1-5" x="117.39524" y="56.979686"/>
<use xlink:href="#glyph-1-20" x="121.452263" y="56.979686"/>
<use xlink:href="#glyph-1-16" x="123.467262" y="56.979686"/>
<use xlink:href="#glyph-1-3" x="127.827925" y="56.979686"/>
</g>
<g fill="rgb(0%, 0%, 0%)" fill-opacity="1">
<use xlink:href="#glyph-1-21" x="134.403101" y="56.979686"/>
<use xlink:href="#glyph-1-22" x="137.640611" y="56.979686"/>
</g>
<g fill="rgb(0%, 0%, 0%)" fill-opacity="1">
<use xlink:href="#glyph-1-23" x="139.647661" y="56.979686"/>
<use xlink:href="#glyph-1-3" x="144.008325" y="56.979686"/>
</g>
<g fill="rgb(0%, 0%, 0%)" fill-opacity="1">
<use xlink:href="#glyph-1-10" x="147.769656" y="56.979686"/>
<use xlink:href="#glyph-1-5" x="151.523038" y="56.979686"/>
</g>
<g fill="rgb(0%, 0%, 0%)" fill-opacity="1">
<use xlink:href="#glyph-1-2" x="155.341599" y="56.979686"/>
</g>
<g fill="rgb(0%, 0%, 0%)" fill-opacity="1">
<use xlink:href="#glyph-1-13" x="161.040031" y="56.979686"/>
<use xlink:href="#glyph-1-8" x="164.324439" y="56.979686"/>
<use xlink:href="#glyph-1-8" x="171.031563" y="56.979686"/>
<use xlink:href="#glyph-1-5" x="177.738687" y="56.979686"/>
<use xlink:href="#glyph-1-9" x="181.79571" y="56.979686"/>
<use xlink:href="#glyph-1-14" x="186.156373" y="56.979686"/>
<use xlink:href="#glyph-1-24" x="189.440782" y="56.979686"/>
</g>
<g fill="rgb(0%, 0%, 0%)" fill-opacity="1">
<use xlink:href="#glyph-1-20" x="194.600291" y="56.979686"/>
<use xlink:href="#glyph-1-3" x="196.61529" y="56.979686"/>
<use xlink:href="#glyph-1-4" x="200.368672" y="56.979686"/>
<use xlink:href="#glyph-1-25" x="204.729335" y="56.979686"/>
<use xlink:href="#glyph-1-11" x="208.952486" y="56.979686"/>
<use xlink:href="#glyph-1-26" x="212.002407" y="56.979686"/>
<use xlink:href="#glyph-1-27" x="216.363071" y="56.979686"/>
<use xlink:href="#glyph-1-28" x="219.178505" y="56.979686"/>
<use xlink:href="#glyph-1-2" x="221.759452" y="56.979686"/>
<use xlink:href="#glyph-1-5" x="224.64404" y="56.979686"/>
<use xlink:href="#glyph-1-8" x="228.701063" y="56.979686"/>
<use xlink:href="#glyph-1-3" x="235.408187" y="56.979686"/>
<use xlink:href="#glyph-1-23" x="239.161569" y="56.979686"/>
</g>
<g fill="rgb(0%, 0%, 0%)" fill-opacity="1">
<use xlink:href="#glyph-1-22" x="246.336077" y="56.979686"/>
<use xlink:href="#glyph-1-4" x="248.351075" y="56.979686"/>
</g>
<g fill="rgb(0%, 0%, 0%)" fill-opacity="1">
<use xlink:href="#glyph-1-21" x="255.533532" y="56.979686"/>
<use xlink:href="#glyph-1-20" x="258.771043" y="56.979686"/>
<use xlink:href="#glyph-1-7" x="260.786041" y="56.979686"/>
<use xlink:href="#glyph-1-11" x="265.009192" y="56.979686"/>
</g>
<g fill="rgb(0%, 0%, 0%)" fill-opacity="1">
<use xlink:href="#glyph-1-7" x="270.872958" y="56.979686"/>
</g>
<g fill="rgb(0%, 0%, 0%)" fill-opacity="1">
<use xlink:href="#glyph-1-2" x="274.857647" y="56.979686"/>
<use xlink:href="#glyph-1-23" x="277.742235" y="56.979686"/>
<use xlink:href="#glyph-1-3" x="282.102899" y="56.979686"/>
<use xlink:href="#glyph-1-2" x="285.856281" y="56.979686"/>
<use xlink:href="#glyph-1-15" x="288.740869" y="56.979686"/>
</g>
<path fill-rule="nonzero" fill="rgb(97.529602%, 84.681702%, 84.681702%)" fill-opacity="1" stroke-width="0.79701" stroke-linecap="butt" stroke-linejoin="miter" stroke="rgb(0%, 0%, 0%)" stroke-opacity="1" stroke-miterlimit="10" d="M -0.00109082 65.196649 L -0.00109082 90.710427 L 53.858282 90.710427 L 53.858282 65.196649 Z M -0.00109082 65.196649 " transform="matrix(0.997317, 0, 0, -0.997317, 53.055775, 152.525603)"/>
<g fill="rgb(0%, 0%, 0%)" fill-opacity="1">
<use xlink:href="#glyph-1-6" x="61.510028" y="76.768441"/>
<use xlink:href="#glyph-1-11" x="66.905614" y="76.768441"/>
<use xlink:href="#glyph-1-29" x="69.955535" y="76.768441"/>
</g>
<g fill="rgb(0%, 0%, 0%)" fill-opacity="1">
<use xlink:href="#glyph-1-5" x="75.355095" y="76.768441"/>
<use xlink:href="#glyph-1-20" x="79.412118" y="76.768441"/>
<use xlink:href="#glyph-1-30" x="81.427117" y="76.768441"/>
</g>
<g fill="rgb(0%, 0%, 0%)" fill-opacity="1">
<use xlink:href="#glyph-1-31" x="85.642319" y="76.768441"/>
</g>
<g fill="rgb(0%, 0%, 0%)" fill-opacity="1">
<use xlink:href="#glyph-3-1" x="89.86547" y="76.768441"/>
</g>
<g fill="rgb(0%, 0%, 0%)" fill-opacity="1">
<use xlink:href="#glyph-1-30" x="94.088621" y="76.768441"/>
</g>
<path fill-rule="nonzero" fill="rgb(88.61084%, 94.9646%, 94.398499%)" fill-opacity="1" stroke-width="0.79701" stroke-linecap="butt" stroke-linejoin="miter" stroke="rgb(0%, 0%, 0%)" stroke-opacity="1" stroke-miterlimit="10" d="M 53.858282 65.196649 L 53.858282 90.710427 L 73.70059 90.710427 L 73.70059 65.196649 Z M 53.858282 65.196649 " transform="matrix(0.997317, 0, 0, -0.997317, 53.055775, 152.525603)"/>
<g fill="rgb(0%, 0%, 0%)" fill-opacity="1">
<use xlink:href="#glyph-1-20" x="111.599254" y="77.541362"/>
<use xlink:href="#glyph-1-3" x="113.614253" y="77.541362"/>
<use xlink:href="#glyph-1-4" x="117.367635" y="77.541362"/>
</g>
<path fill-rule="nonzero" fill="rgb(77.22168%, 89.927673%, 88.798523%)" fill-opacity="1" stroke-width="0.79701" stroke-linecap="butt" stroke-linejoin="miter" stroke="rgb(0%, 0%, 0%)" stroke-opacity="1" stroke-miterlimit="10" d="M 73.70059 65.196649 L 73.70059 90.710427 L 138.898985 90.710427 L 138.898985 65.196649 Z M 73.70059 65.196649 " transform="matrix(0.997317, 0, 0, -0.997317, 53.055775, 152.525603)"/>
<g fill="rgb(0%, 0%, 0%)" fill-opacity="1">
<use xlink:href="#glyph-1-32" x="139.282767" y="76.768441"/>
</g>
<g fill="rgb(0%, 0%, 0%)" fill-opacity="1">
<use xlink:href="#glyph-1-5" x="144.44784" y="76.768441"/>
<use xlink:href="#glyph-1-25" x="148.504863" y="76.768441"/>
<use xlink:href="#glyph-1-3" x="152.728014" y="76.768441"/>
</g>
<g fill="rgb(0%, 0%, 0%)" fill-opacity="1">
<use xlink:href="#glyph-1-21" x="159.29524" y="76.768441"/>
<use xlink:href="#glyph-1-20" x="162.532751" y="76.768441"/>
<use xlink:href="#glyph-1-7" x="164.54775" y="76.768441"/>
<use xlink:href="#glyph-1-11" x="168.770901" y="76.768441"/>
</g>
<g fill="rgb(0%, 0%, 0%)" fill-opacity="1">
<use xlink:href="#glyph-1-30" x="174.634666" y="76.768441"/>
</g>
<path fill-rule="nonzero" fill="rgb(88.61084%, 94.9646%, 94.398499%)" fill-opacity="1" stroke-width="0.79701" stroke-linecap="butt" stroke-linejoin="miter" stroke="rgb(0%, 0%, 0%)" stroke-opacity="1" stroke-miterlimit="10" d="M 138.898985 65.196649 L 138.898985 90.710427 L 158.741293 90.710427 L 158.741293 65.196649 Z M 138.898985 65.196649 " transform="matrix(0.997317, 0, 0, -0.997317, 53.055775, 152.525603)"/>
<g fill="rgb(0%, 0%, 0%)" fill-opacity="1">
<use xlink:href="#glyph-1-20" x="196.410056" y="77.541362"/>
<use xlink:href="#glyph-1-3" x="198.425054" y="77.541362"/>
<use xlink:href="#glyph-1-4" x="202.178437" y="77.541362"/>
</g>
<path fill-rule="nonzero" fill="rgb(77.22168%, 89.927673%, 88.798523%)" fill-opacity="1" stroke-width="0.79701" stroke-linecap="butt" stroke-linejoin="miter" stroke="rgb(0%, 0%, 0%)" stroke-opacity="1" stroke-miterlimit="10" d="M 158.741293 65.196649 L 158.741293 90.710427 L 223.939688 90.710427 L 223.939688 65.196649 Z M 158.741293 65.196649 " transform="matrix(0.997317, 0, 0, -0.997317, 53.055775, 152.525603)"/>
<g fill="rgb(0%, 0%, 0%)" fill-opacity="1">
<use xlink:href="#glyph-1-32" x="224.093569" y="76.768441"/>
</g>
<g fill="rgb(0%, 0%, 0%)" fill-opacity="1">
<use xlink:href="#glyph-1-5" x="229.258642" y="76.768441"/>
<use xlink:href="#glyph-1-25" x="233.315665" y="76.768441"/>
<use xlink:href="#glyph-1-3" x="237.538816" y="76.768441"/>
</g>
<g fill="rgb(0%, 0%, 0%)" fill-opacity="1">
<use xlink:href="#glyph-1-21" x="244.106042" y="76.768441"/>
<use xlink:href="#glyph-1-20" x="247.343553" y="76.768441"/>
<use xlink:href="#glyph-1-7" x="249.358552" y="76.768441"/>
<use xlink:href="#glyph-1-11" x="253.581703" y="76.768441"/>
</g>
<g fill="rgb(0%, 0%, 0%)" fill-opacity="1">
<use xlink:href="#glyph-1-31" x="259.445468" y="76.768441"/>
</g>
<g fill="rgb(0%, 0%, 0%)" fill-opacity="1">
<use xlink:href="#glyph-3-2" x="281.315603" y="76.595905"/>
</g>
<g fill="rgb(0%, 0%, 0%)" fill-opacity="1">
<use xlink:href="#glyph-3-2" x="285.06819" y="76.595905"/>
</g>
<g fill="rgb(0%, 0%, 0%)" fill-opacity="1">
<use xlink:href="#glyph-3-2" x="288.820777" y="76.595905"/>
</g>
<path fill="none" stroke-width="0.79701" stroke-linecap="butt" stroke-linejoin="miter" stroke="rgb(30.979919%, 27.450562%, 89.802551%)" stroke-opacity="1" stroke-miterlimit="10" d="M 147.402272 116.220288 C 175.751784 104.881266 195.594092 99.213714 194.203642 96.436731 " transform="matrix(0.997317, 0, 0, -0.997317, 53.055775, 152.525603)"/>
<path fill-rule="nonzero" fill="rgb(30.979919%, 27.450562%, 89.802551%)" fill-opacity="1" stroke-width="0.79701" stroke-linecap="butt" stroke-linejoin="miter" stroke="rgb(30.979919%, 27.450562%, 89.802551%)" stroke-opacity="1" stroke-miterlimit="10" d="M 4.761125 0.00105773 C 4.176046 0.146468 1.608011 0.964602 0.00168518 1.856283 L 0.00158552 -1.857415 C 1.604456 -0.964069 4.17779 -0.146073 4.761125 0.00105773 Z M 4.761125 0.00105773 " transform="matrix(-0.44596, 0.89198, 0.89198, 0.44596, 246.739516, 56.34645)"/>
<g fill="rgb(30.979919%, 27.450562%, 89.802551%)" fill-opacity="1">
<use xlink:href="#glyph-5-0" x="206.399178" y="48.250175"/>
<use xlink:href="#glyph-5-1" x="210.094416" y="48.250175"/>
<use xlink:href="#glyph-5-2" x="214.405178" y="48.250175"/>
<use xlink:href="#glyph-5-3" x="217.237985" y="48.250175"/>
<use xlink:href="#glyph-5-4" x="220.522176" y="48.250175"/>
<use xlink:href="#glyph-5-2" x="223.190843" y="48.250175"/>
<use xlink:href="#glyph-5-5" x="226.023649" y="48.250175"/>
<use xlink:href="#glyph-5-6" x="228.172771" y="48.250175"/>
<use xlink:href="#glyph-5-7" x="231.868008" y="48.250175"/>
</g>
<g fill="rgb(30.979919%, 27.450562%, 89.802551%)" fill-opacity="1">
<use xlink:href="#glyph-5-8" x="235.24818" y="48.250175"/>
<use xlink:href="#glyph-5-8" x="237.300626" y="48.250175"/>
</g>
<g fill="rgb(30.979919%, 27.450562%, 89.802551%)" fill-opacity="1">
<use xlink:href="#glyph-5-0" x="240.584122" y="48.250175"/>
<use xlink:href="#glyph-5-1" x="244.279359" y="48.250175"/>
<use xlink:href="#glyph-5-2" x="248.590122" y="48.250175"/>
<use xlink:href="#glyph-5-3" x="251.422928" y="48.250175"/>
<use xlink:href="#glyph-5-4" x="254.70712" y="48.250175"/>
<use xlink:href="#glyph-5-2" x="257.375787" y="48.250175"/>
<use xlink:href="#glyph-5-5" x="260.208593" y="48.250175"/>
<use xlink:href="#glyph-5-9" x="262.357715" y="48.250175"/>
<use xlink:href="#glyph-5-7" x="266.052952" y="48.250175"/>
</g>
<path fill-rule="nonzero" fill="rgb(89.89563%, 90.664673%, 91.764832%)" fill-opacity="1" d="M 53.054688 125.933594 L 53.054688 108.441406 C 53.054688 106.246094 54.835938 104.464844 57.03125 104.464844 L 303.519531 104.464844 C 305.714844 104.464844 307.492188 106.246094 307.492188 108.441406 L 307.492188 125.933594 C 307.492188 128.128906 305.714844 129.910156 303.519531 129.910156 L 57.03125 129.910156 C 54.835938 129.910156 53.054688 128.128906 53.054688 125.933594 Z M 53.054688 125.933594 "/>
<g clip-path="url(#clip-0)">
<path fill="none" stroke-width="0.79701" stroke-linecap="butt" stroke-linejoin="miter" stroke="rgb(0%, 0%, 0%)" stroke-opacity="1" stroke-miterlimit="10" d="M -0.00109082 26.66356 L -0.00109082 44.202813 C -0.00109082 46.404033 1.784952 48.190075 3.986171 48.190075 L 251.137672 48.190075 C 253.338891 48.190075 255.121017 46.404033 255.121017 44.202813 L 255.121017 26.66356 C 255.121017 24.462341 253.338891 22.676298 251.137672 22.676298 L 3.986171 22.676298 C 1.784952 22.676298 -0.00109082 24.462341 -0.00109082 26.66356 Z M -0.00109082 26.66356 " transform="matrix(0.997317, 0, 0, -0.997317, 53.055775, 152.525603)"/>
</g>
<g fill="rgb(0%, 0%, 0%)" fill-opacity="1">
<use xlink:href="#glyph-0-0" x="11.381906" y="119.174341"/>
<use xlink:href="#glyph-0-1" x="14.296699" y="119.174341"/>
<use xlink:href="#glyph-0-2" x="17.648671" y="119.174341"/>
<use xlink:href="#glyph-0-3" x="20.861541" y="119.174341"/>
<use xlink:href="#glyph-0-4" x="24.924128" y="119.174341"/>
<use xlink:href="#glyph-0-5" x="31.813277" y="119.174341"/>
<use xlink:href="#glyph-0-6" x="35.941838" y="119.174341"/>
<use xlink:href="#glyph-0-11" x="38.370965" y="119.174341"/>
<use xlink:href="#glyph-0-7" x="42.830988" y="119.174341"/>
<use xlink:href="#glyph-0-2" x="47.004062" y="119.174341"/>
<use xlink:href="#glyph-0-12" x="50.216931" y="119.174341"/>
<use xlink:href="#glyph-0-1" x="54.676954" y="119.174341"/>
</g>
<g fill="rgb(0%, 0%, 0%)" fill-opacity="1">
<use xlink:href="#glyph-1-0" x="63.187641" y="119.174341"/>
</g>
<g fill="rgb(0%, 0%, 0%)" fill-opacity="1">
<use xlink:href="#glyph-2-10" x="74.685453" y="119.174341"/>
<use xlink:href="#glyph-2-3" x="78.908604" y="119.174341"/>
<use xlink:href="#glyph-2-8" x="83.131755" y="119.174341"/>
<use xlink:href="#glyph-2-11" x="87.354906" y="119.174341"/>
<use xlink:href="#glyph-2-6" x="91.578057" y="119.174341"/>
<use xlink:href="#glyph-2-12" x="95.801208" y="119.174341"/>
</g>
<g fill="rgb(0%, 0%, 0%)" fill-opacity="1">
<use xlink:href="#glyph-2-11" x="100.016411" y="119.174341"/>
<use xlink:href="#glyph-2-13" x="104.239562" y="119.174341"/>
<use xlink:href="#glyph-2-3" x="108.462713" y="119.174341"/>
</g>
<path fill="none" stroke-width="0.398" stroke-linecap="butt" stroke-linejoin="miter" stroke="rgb(0%, 0%, 0%)" stroke-opacity="1" stroke-miterlimit="10" d="M -0.000647028 -0.000689588 L 2.541331 -0.000689588 " transform="matrix(0.997317, 0, 0, -0.997317, 113.195958, 118.975875)"/>
<g fill="rgb(0%, 0%, 0%)" fill-opacity="1">
<use xlink:href="#glyph-2-14" x="115.729142" y="119.174341"/>
<use xlink:href="#glyph-2-6" x="119.952293" y="119.174341"/>
<use xlink:href="#glyph-2-0" x="124.175444" y="119.174341"/>
<use xlink:href="#glyph-2-15" x="128.398595" y="119.174341"/>
<use xlink:href="#glyph-2-10" x="132.621746" y="119.174341"/>
</g>
<g fill="rgb(0%, 0%, 0%)" fill-opacity="1">
<use xlink:href="#glyph-1-8" x="139.658741" y="119.174341"/>
<use xlink:href="#glyph-1-5" x="146.365865" y="119.174341"/>
<use xlink:href="#glyph-1-4" x="150.422888" y="119.174341"/>
<use xlink:href="#glyph-1-22" x="154.783551" y="119.174341"/>
<use xlink:href="#glyph-1-28" x="156.79855" y="119.174341"/>
<use xlink:href="#glyph-1-3" x="159.379497" y="119.174341"/>
<use xlink:href="#glyph-1-21" x="163.132879" y="119.174341"/>
<use xlink:href="#glyph-1-11" x="166.37039" y="119.174341"/>
</g>
<g fill="rgb(0%, 0%, 0%)" fill-opacity="1">
<use xlink:href="#glyph-1-13" x="172.234155" y="119.174341"/>
<use xlink:href="#glyph-1-19" x="175.518563" y="119.174341"/>
<use xlink:href="#glyph-1-5" x="179.410253" y="119.174341"/>
<use xlink:href="#glyph-1-20" x="183.467276" y="119.174341"/>
<use xlink:href="#glyph-1-16" x="185.482274" y="119.174341"/>
<use xlink:href="#glyph-1-3" x="189.842938" y="119.174341"/>
<use xlink:href="#glyph-1-27" x="193.59632" y="119.174341"/>
<use xlink:href="#glyph-1-20" x="196.411754" y="119.174341"/>
<use xlink:href="#glyph-1-3" x="198.426753" y="119.174341"/>
<use xlink:href="#glyph-1-21" x="202.180135" y="119.174341"/>
<use xlink:href="#glyph-1-21" x="205.417646" y="119.174341"/>
<use xlink:href="#glyph-1-33" x="208.655156" y="119.174341"/>
</g>
<g fill="rgb(0%, 0%, 0%)" fill-opacity="1">
<use xlink:href="#glyph-1-21" x="213.814666" y="119.174341"/>
<use xlink:href="#glyph-1-11" x="217.052176" y="119.174341"/>
<use xlink:href="#glyph-1-2" x="220.102097" y="119.174341"/>
<use xlink:href="#glyph-1-16" x="222.986685" y="119.174341"/>
<use xlink:href="#glyph-1-10" x="227.347349" y="119.174341"/>
<use xlink:href="#glyph-1-11" x="231.100731" y="119.174341"/>
<use xlink:href="#glyph-1-16" x="234.150652" y="119.174341"/>
<use xlink:href="#glyph-1-2" x="238.511316" y="119.174341"/>
<use xlink:href="#glyph-1-5" x="241.395904" y="119.174341"/>
<use xlink:href="#glyph-1-20" x="245.452926" y="119.174341"/>
</g>
<g fill="rgb(0%, 0%, 0%)" fill-opacity="1">
<use xlink:href="#glyph-1-22" x="250.281769" y="119.174341"/>
<use xlink:href="#glyph-1-4" x="252.296768" y="119.174341"/>
<use xlink:href="#glyph-1-11" x="256.657432" y="119.174341"/>
<use xlink:href="#glyph-1-3" x="259.707353" y="119.174341"/>
<use xlink:href="#glyph-1-25" x="263.460735" y="119.174341"/>
<use xlink:href="#glyph-1-2" x="267.683886" y="119.174341"/>
<use xlink:href="#glyph-1-22" x="270.568474" y="119.174341"/>
<use xlink:href="#glyph-1-11" x="272.583472" y="119.174341"/>
</g>
<g fill="rgb(0%, 0%, 0%)" fill-opacity="1">
<use xlink:href="#glyph-1-34" x="275.402881" y="119.174341"/>
</g>
<g fill="rgb(0%, 0%, 0%)" fill-opacity="1">
<use xlink:href="#glyph-1-24" x="278.587135" y="119.174341"/>
</g>
<g fill="rgb(0%, 0%, 0%)" fill-opacity="1">
<use xlink:href="#glyph-1-4" x="283.746644" y="119.174341"/>
<use xlink:href="#glyph-1-7" x="288.107308" y="119.174341"/>
<use xlink:href="#glyph-1-11" x="292.330459" y="119.174341"/>
</g>
<g fill="rgb(0%, 0%, 0%)" fill-opacity="1">
<use xlink:href="#glyph-1-11" x="298.202173" y="119.174341"/>
<use xlink:href="#glyph-1-26" x="301.252094" y="119.174341"/>
<use xlink:href="#glyph-1-3" x="305.612758" y="119.174341"/>
</g>
<g fill="rgb(0%, 0%, 0%)" fill-opacity="1">
<use xlink:href="#glyph-1-2" x="312.179984" y="119.174341"/>
<use xlink:href="#glyph-1-3" x="315.064572" y="119.174341"/>
<use xlink:href="#glyph-1-5" x="318.817954" y="119.174341"/>
<use xlink:href="#glyph-1-23" x="322.874977" y="119.174341"/>
</g>
<g fill="rgb(0%, 0%, 0%)" fill-opacity="1">
<use xlink:href="#glyph-1-9" x="330.049485" y="119.174341"/>
<use xlink:href="#glyph-1-5" x="334.410149" y="119.174341"/>
<use xlink:href="#glyph-1-11" x="338.467172" y="119.174341"/>
<use xlink:href="#glyph-1-26" x="341.517093" y="119.174341"/>
<use xlink:href="#glyph-1-14" x="345.877756" y="119.174341"/>
</g>
</svg>
