<svg xmlns="http://www.w3.org/2000/svg" xmlns:xlink="http://www.w3.org/1999/xlink" contentStyleType="text/css" data-diagram-type="CLASS" height="621px" preserveAspectRatio="none" style="width:495px;height:621px;" version="1.1" viewBox="0 0 495 621" width="495px" zoomAndPan="magnify"><?plantuml $version$?><defs/><g><!--class PageAddress--><g class="entity" data-qualified-name="PageAddress" data-source-line="7" id="ent0001"><rect fill="#CCFBF1" height="238.6792" rx="2.5" ry="2.5" style="stroke:#181818;stroke-width:0.5;" width="299.7548" x="7" y="191.27"/><ellipse cx="109.5846" cy="207.27" fill="#EB937F" rx="11" ry="11" style="stroke:#181818;stroke-width:1;"/><path d="M105.9439,213.77 L105.9439,201.6294 L113.6002,201.6294 L113.6002,203.7544 L108.3189,203.7544 L108.3189,206.4106 L113.3346,206.4106 L113.3346,208.5356 L108.3189,208.5356 L108.3189,211.645 L113.6002,211.645 L113.6002,213.77 L105.9439,213.77 Z " fill="#000000"/><text fill="#000000" font-family="Inter" font-size="14" lengthAdjust="spacing" textLength="86.0857" x="130.0846" y="212.702">PageAddress</text><line style="stroke:#181818;stroke-width:0.5;" x1="8" x2="305.7548" y1="223.27" y2="223.27"/><text fill="#000000" font-family="Inter" font-size="14" lengthAdjust="spacing" textLength="145.8094" x="13" y="242.2359">Chunk{ chunk_id: i64 }</text><text fill="#000000" font-family="Inter" font-size="14" lengthAdjust="spacing" textLength="287.7548" x="13" y="261.3039">FileRegion{ file_id, start_chunk, end_chunk }</text><text fill="#000000" font-family="Inter" font-size="14" lengthAdjust="spacing" textLength="105.6996" x="13" y="280.3718">File{ file_id: i64 }</text><text fill="#000000" font-family="Inter" font-size="14" lengthAdjust="spacing" textLength="167.8454" x="13" y="299.4397">Observation{ obs_id: i64 }</text><text fill="#000000" font-family="Inter" font-size="14" lengthAdjust="spacing" textLength="248.611" x="13" y="318.5076">Scratch{ tree: TreeId, slot: Box&lt;[u8]&gt; }</text><line style="stroke:#181818;stroke-width:1;" x1="8" x2="305.7548" y1="326.6096" y2="326.6096"/><g data-visibility-modifier="PUBLIC_METHOD"><ellipse cx="18" cy="341.6435" fill="#84BE84" rx="3" ry="3" style="stroke:#038048;stroke-width:1;"/></g><text fill="#000000" font-family="Inter" font-size="14" lengthAdjust="spacing" textLength="113.7355" x="27" y="345.5755">to_key(): Vec&lt;u8&gt;</text><g data-visibility-modifier="PUBLIC_METHOD"><ellipse cx="18" cy="360.7115" fill="#84BE84" rx="3" ry="3" style="stroke:#038048;stroke-width:1;"/></g><text fill="#000000" font-family="Inter" font-size="14" lengthAdjust="spacing" textLength="260.231" x="27" y="364.6434">from_key(&amp;[u8]): Option&lt;PageAddress&gt;</text><g data-visibility-modifier="PUBLIC_METHOD"><ellipse cx="18" cy="379.7794" fill="#84BE84" rx="3" ry="3" style="stroke:#038048;stroke-width:1;"/></g><text fill="#000000" font-family="Inter" font-size="14" lengthAdjust="spacing" textLength="105.0976" x="27" y="383.7114">to_path(): String</text><g data-visibility-modifier="PUBLIC_METHOD"><ellipse cx="18" cy="398.8473" fill="#84BE84" rx="3" ry="3" style="stroke:#038048;stroke-width:1;"/></g><text fill="#000000" font-family="Inter" font-size="14" lengthAdjust="spacing" textLength="264.249" x="27" y="402.7793">parse_path(&amp;str): Option&lt;PageAddress&gt;</text><g data-visibility-modifier="PUBLIC_METHOD"><ellipse cx="18" cy="417.9152" fill="#84BE84" rx="3" ry="3" style="stroke:#038048;stroke-width:1;"/></g><text fill="#000000" font-family="Inter" font-size="14" lengthAdjust="spacing" textLength="168.6013" x="27" y="421.8472">node_id(): Option&lt;String&gt;</text></g><!--class Page--><g class="entity" data-qualified-name="Page" data-source-line="21" id="ent0002"><rect fill="#CCFBF1" height="124.2717" rx="2.5" ry="2.5" style="stroke:#181818;stroke-width:0.5;" width="228.3972" x="167.68" y="7"/><ellipse cx="261.2137" cy="23" fill="#ADD1B2" rx="11" ry="11" style="stroke:#181818;stroke-width:1;"/><path d="M260.6824,29.9219 Q258.9324,29.9219 257.7918,29.1875 Q256.6668,28.4375 256.1043,27.0938 Q255.5574,25.7344 255.5574,23.9375 Q255.5574,21.9063 256.2137,20.4531 Q256.8699,19 258.1512,18.2188 Q259.4324,17.4375 261.3074,17.4375 Q262.198,17.4375 262.8699,17.625 Q263.5418,17.7969 264.2293,18.1406 L263.4168,20.1563 Q262.7918,19.8438 262.2449,19.7188 Q261.7137,19.5938 261.2293,19.5938 Q260.0574,19.5938 259.3543,20.125 Q258.6512,20.6563 258.3543,21.6094 Q258.0574,22.5625 258.0574,23.8281 Q258.0574,25.8438 258.7762,26.8125 Q259.4949,27.7656 261.0887,27.7656 Q261.6824,27.7656 262.3074,27.6094 Q262.9324,27.4531 263.7605,27.0781 L263.7605,29.2969 Q263.0262,29.6094 262.2293,29.7656 Q261.448,29.9219 260.6824,29.9219 Z " fill="#000000"/><text fill="#000000" font-family="Inter" font-size="14" lengthAdjust="spacing" textLength="32.8299" x="281.7137" y="28.432">Page</text><line style="stroke:#181818;stroke-width:0.5;" x1="168.68" x2="395.0772" y1="39" y2="39"/><g data-visibility-modifier="PUBLIC_FIELD"><ellipse cx="178.68" cy="54.034" fill="none" rx="3" ry="3" style="stroke:#038048;stroke-width:1;"/></g><text fill="#000000" font-family="Inter" font-size="14" lengthAdjust="spacing" textLength="124.3336" x="187.68" y="57.9659">addr: PageAddress</text><g data-visibility-modifier="PUBLIC_FIELD"><ellipse cx="178.68" cy="73.1019" fill="none" rx="3" ry="3" style="stroke:#038048;stroke-width:1;"/></g><text fill="#000000" font-family="Inter" font-size="14" lengthAdjust="spacing" textLength="107.6176" x="187.68" y="77.0339">meta: PageMeta</text><line style="stroke:#181818;stroke-width:0.5;" x1="168.68" x2="395.0772" y1="85.1358" y2="85.1358"/><g data-visibility-modifier="PUBLIC_METHOD"><ellipse cx="178.68" cy="100.1698" fill="#84BE84" rx="3" ry="3" style="stroke:#038048;stroke-width:1;"/></g><text fill="#000000" font-family="Inter" font-size="14" lengthAdjust="spacing" textLength="97.2856" x="187.68" y="104.1018">content: String</text><text fill="#000000" font-family="Inter" font-size="14" font-style="italic" lengthAdjust="spacing" textLength="94.1916" x="295.8856" y="104.1018">(situated bytes)</text><g data-visibility-modifier="PUBLIC_METHOD"><ellipse cx="178.68" cy="119.2377" fill="#84BE84" rx="3" ry="3" style="stroke:#038048;stroke-width:1;"/></g><text fill="#000000" font-family="Inter" font-size="14" lengthAdjust="spacing" textLength="175.8813" x="187.68" y="123.1697">estimate_tokens(&amp;str): u32</text></g><!--class PageMeta--><g class="entity" data-qualified-name="PageMeta" data-source-line="28" id="ent0003"><rect fill="#E0E7FF" height="116.2717" rx="2.5" ry="2.5" style="stroke:#181818;stroke-width:0.5;" width="129.9636" x="341.9" y="252.47"/><ellipse cx="371.1343" cy="268.47" fill="#ADD1B2" rx="11" ry="11" style="stroke:#181818;stroke-width:1;"/><path d="M370.6031,275.3919 Q368.8531,275.3919 367.7125,274.6575 Q366.5875,273.9075 366.025,272.5638 Q365.4781,271.2044 365.4781,269.4075 Q365.4781,267.3763 366.1343,265.9231 Q366.7906,264.47 368.0718,263.6888 Q369.3531,262.9075 371.2281,262.9075 Q372.1187,262.9075 372.7906,263.095 Q373.4625,263.2669 374.15,263.6106 L373.3375,265.6263 Q372.7125,265.3138 372.1656,265.1888 Q371.6343,265.0638 371.15,265.0638 Q369.9781,265.0638 369.275,265.595 Q368.5718,266.1263 368.275,267.0794 Q367.9781,268.0325 367.9781,269.2981 Q367.9781,271.3138 368.6968,272.2825 Q369.4156,273.2356 371.0093,273.2356 Q371.6031,273.2356 372.2281,273.0794 Q372.8531,272.9231 373.6812,272.5481 L373.6812,274.7669 Q372.9468,275.0794 372.15,275.2356 Q371.3687,275.3919 370.6031,275.3919 Z " fill="#000000"/><text fill="#000000" font-family="Inter" font-size="14" lengthAdjust="spacing" textLength="66.3318" x="388.2975" y="273.902">PageMeta</text><line style="stroke:#181818;stroke-width:0.5;" x1="342.9" x2="470.8636" y1="284.47" y2="284.47"/><g data-visibility-modifier="PUBLIC_FIELD"><ellipse cx="352.9" cy="299.504" fill="none" rx="3" ry="3" style="stroke:#038048;stroke-width:1;"/></g><text fill="#000000" font-family="Inter" font-size="14" lengthAdjust="spacing" textLength="98.1116" x="361.9" y="303.4359">kind: PageKind</text><g data-visibility-modifier="PUBLIC_FIELD"><ellipse cx="352.9" cy="318.5719" fill="none" rx="3" ry="3" style="stroke:#038048;stroke-width:1;"/></g><text fill="#000000" font-family="Inter" font-size="14" lengthAdjust="spacing" textLength="102.1856" x="361.9" y="322.5039">est_tokens: u32</text><g data-visibility-modifier="PUBLIC_FIELD"><ellipse cx="352.9" cy="337.6398" fill="none" rx="3" ry="3" style="stroke:#038048;stroke-width:1;"/></g><text fill="#000000" font-family="Inter" font-size="14" lengthAdjust="spacing" textLength="103.9636" x="361.9" y="341.5718">importance: f32</text><g data-visibility-modifier="PUBLIC_FIELD"><ellipse cx="352.9" cy="356.7077" fill="none" rx="3" ry="3" style="stroke:#038048;stroke-width:1;"/></g><text fill="#000000" font-family="Inter" font-size="14" lengthAdjust="spacing" textLength="66.7518" x="361.9" y="360.6397">dirty: bool</text></g><!--class PageKind--><g class="entity" data-qualified-name="PageKind" data-source-line="35" id="ent0004"><rect fill="#FEF3C7" height="116.2717" rx="2.5" ry="2.5" style="stroke:#181818;stroke-width:0.5;" width="147.7575" x="333" y="489.95"/><ellipse cx="372.0245" cy="505.95" fill="#EB937F" rx="11" ry="11" style="stroke:#181818;stroke-width:1;"/><path d="M368.3839,512.45 L368.3839,500.3094 L376.0401,500.3094 L376.0401,502.4344 L370.7589,502.4344 L370.7589,505.0906 L375.7745,505.0906 L375.7745,507.2156 L370.7589,507.2156 L370.7589,510.325 L376.0401,510.325 L376.0401,512.45 L368.3839,512.45 Z " fill="#000000"/><text fill="#000000" font-family="Inter" font-size="14" lengthAdjust="spacing" textLength="62.3698" x="391.3632" y="511.382">PageKind</text><line style="stroke:#181818;stroke-width:0.5;" x1="334" x2="479.7575" y1="521.95" y2="521.95"/><text fill="#000000" font-family="Inter" font-size="14" lengthAdjust="spacing" textLength="64.6657" x="339" y="540.9159">FileChunk</text><text fill="#000000" font-family="Inter" font-size="14" lengthAdjust="spacing" textLength="135.7575" x="339" y="559.9839">MemoryObservation</text><text fill="#000000" font-family="Inter" font-size="14" lengthAdjust="spacing" textLength="98.9096" x="339" y="579.0518">SummaryNode</text><text fill="#000000" font-family="Inter" font-size="14" lengthAdjust="spacing" textLength="48.4678" x="339" y="598.1197">Scratch</text></g><!--reverse link Page to PageAddress--><g class="link" data-entity-1="ent0002" data-entity-2="ent0001" data-link-type="composition" data-source-line="42" id="lnk5"><path codeLine="42" d="M244.2982,142.1285 C234.7482,160.4285 229.5,170.49 218.72,191.13" fill="none" id="Page-backto-PageAddress" style="stroke:#181818;stroke-width:1;"/><polygon fill="#181818" points="249.85,131.49,243.5279,134.9587,244.2982,142.1285,250.6203,138.6598,249.85,131.49" style="stroke:#181818;stroke-width:1;stroke-linejoin:miter;stroke-miterlimit:10;"/></g><!--reverse link Page to PageMeta--><g class="link" data-entity-1="ent0002" data-entity-2="ent0003" data-link-type="composition" data-source-line="43" id="lnk6"><path codeLine="43" d="M319.4614,142.1287 C338.8414,179.2687 357.86,215.69 376.87,252.11" fill="none" id="Page-backto-PageMeta" style="stroke:#181818;stroke-width:1;"/><polygon fill="#181818" points="313.91,131.49,313.1395,138.6598,319.4614,142.1287,320.2319,134.9589,313.91,131.49" style="stroke:#181818;stroke-width:1;stroke-linejoin:miter;stroke-miterlimit:10;"/></g><!--reverse link PageMeta to PageKind--><g class="link" data-entity-1="ent0003" data-entity-2="ent0004" data-link-type="composition" data-source-line="44" id="lnk7"><path codeLine="44" d="M406.88,381.21 C406.88,417.84 406.88,453.08 406.88,489.67" fill="none" id="PageMeta-backto-PageKind" style="stroke:#181818;stroke-width:1;"/><polygon fill="#181818" points="406.88,369.21,402.88,375.21,406.88,381.21,410.88,375.21,406.88,369.21" style="stroke:#181818;stroke-width:1;stroke-linejoin:miter;stroke-miterlimit:10;"/></g><?plantuml-src TLBRQjj047tNLmmOKhknUqjfWZ26DX089KbfGbvACIFjo5gitHMxexR2vDyxAzcozP2NtU7CcJFND_1K4YXaNDGLMe8QDmJ6AQfI-27sLwKyXG1J5bw9LbKqctUU_hqZnjxwhgrwbuIjjZLwD91XljrurrXrxIhdWJtQ82woVC9IL61JyOspV8-6uDOo-HD_A56vlzfkeC0gK59gHK2cvXOCcOnyI1AoZHaLEydp8Yi-mYu1k2uRkzr17h-rLYdeBv_XHHmtkgAVjD7Exg0GMvnp28oUrnrv3cHLRmxyWNcKUSW2-J_8dOxBmiZvc7lalDn9yqGfFCbx6xDKZbFuvlujVpLNlrSTTR6GvvpTUaljT9R2C-NBvceLmS8xqy5daIw-XpgcMvwqlDe7ryXbZ7vaBpEBe8mnK8-V1VQlHrjPkXG_FJ9waLNoaYHvXJBN638QxZcAmEXG8fZBCcNBXoe0OAbNqw2vGIO5MSiKPiltkajhv83IuPGYGe6r4UQQtPPiE9JTN7mQLnBvCA4FT5aKVJLoDIeTZd6ljPVf1GJIfdQUqUQoaAA7bFRSff0vLyKKmpr55PWKL5pabrs6U0FTGObzHyRvzcJzST-DCUZRUndbSVjHiflSsyLYDAeHs7K_j7L0OmN_0G00?></g></svg>