<?xml version="1.0" encoding="UTF-8" standalone="no"?>
<!DOCTYPE svg PUBLIC "-//W3C//DTD SVG 1.1//EN"
 "http://www.w3.org/Graphics/SVG/1.1/DTD/svg11.dtd">
<!-- Generated by graphviz version 14.1.5 (0)
 -->
<!-- Title: portfolio Pages: 1 -->
<svg width="667pt" height="329pt"
 viewBox="0.00 0.00 667.00 329.00" xmlns="http://www.w3.org/2000/svg" xmlns:xlink="http://www.w3.org/1999/xlink">
<g id="graph0" class="graph" transform="scale(1 1) rotate(0) translate(4 325)">
<title>portfolio</title>
<!-- store -->
<g id="node1" class="node">
<title>store</title>
<path fill="#fde68a" stroke="#b45309" d="M397,-321C397,-321 203.25,-321 203.25,-321 197.25,-321 191.25,-315 191.25,-309 191.25,-309 191.25,-293.5 191.25,-293.5 191.25,-287.5 197.25,-281.5 203.25,-281.5 203.25,-281.5 397,-281.5 397,-281.5 403,-281.5 409,-287.5 409,-293.5 409,-293.5 409,-309 409,-309 409,-315 403,-321 397,-321"/>
<text xml:space="preserve" text-anchor="middle" x="300.12" y="-306.55" font-family="Inter" font-size="11.00">TapeStore.pages : PathMap&lt;Page&gt;</text>
<text xml:space="preserve" text-anchor="middle" x="300.12" y="-290.8" font-family="Inter" font-size="11.00">— positional axis: slice() in key order —</text>
</g>
<!-- idx -->
<g id="node2" class="node">
<title>idx</title>
<polygon fill="#ccfbf1" stroke="#0f766e" points="377.12,-231.25 227.12,-231.25 223.12,-227.25 223.12,-195.25 373.12,-195.25 377.12,-199.25 377.12,-231.25"/>
<polyline fill="none" stroke="#0f766e" points="373.12,-227.25 223.12,-227.25"/>
<polyline fill="none" stroke="#0f766e" points="373.12,-227.25 373.12,-195.25"/>
<polyline fill="none" stroke="#0f766e" points="373.12,-227.25 377.12,-231.25"/>
<text xml:space="preserve" text-anchor="middle" x="300.12" y="-210.47" font-family="Inter" font-size="12.00">AddressIndex (portfolio)</text>
</g>
<!-- store&#45;&gt;idx -->
<g id="edge1" class="edge">
<title>store&#45;&gt;idx</title>
<path fill="none" stroke="#475569" stroke-dasharray="1,5" d="M300.12,-281.16C300.12,-269.91 300.12,-255.46 300.12,-242.87"/>
<polygon fill="#475569" stroke="#475569" points="303.63,-243.04 300.13,-233.04 296.63,-243.04 303.63,-243.04"/>
<text xml:space="preserve" text-anchor="middle" x="359" y="-254" font-family="Inter" font-size="10.00">upsert / reindex / remove</text>
</g>
<!-- ids -->
<g id="node3" class="node">
<title>ids</title>
<path fill="#e2e8f0" stroke="#334155" d="M216.25,-39.5C216.25,-39.5 12,-39.5 12,-39.5 6,-39.5 0,-33.5 0,-27.5 0,-27.5 0,-12 0,-12 0,-6 6,0 12,0 12,0 216.25,0 216.25,0 222.25,0 228.25,-6 228.25,-12 228.25,-12 228.25,-27.5 228.25,-27.5 228.25,-33.5 222.25,-39.5 216.25,-39.5"/>
<text xml:space="preserve" text-anchor="middle" x="114.12" y="-25.05" font-family="Inter" font-size="11.00">AddressIdTable</text>
<text xml:space="preserve" text-anchor="middle" x="114.12" y="-9.3" font-family="Inter" font-size="11.00">PageAddress ↔ u64 &#160;(dense, tombstoned)</text>
</g>
<!-- idx&#45;&gt;ids -->
<g id="edge6" class="edge">
<title>idx&#45;&gt;ids</title>
<path fill="none" stroke="#475569" d="M222.95,-203.41C152.36,-193.55 55.47,-174.93 32.12,-145 17.02,-125.64 21.76,-112.01 32.12,-89.75 40.25,-72.29 55.21,-57.67 70.16,-46.44"/>
<polygon fill="#475569" stroke="#475569" points="72.02,-49.41 78.16,-40.77 67.98,-43.7 72.02,-49.41"/>
</g>
<!-- path -->
<g id="node4" class="node">
<title>path</title>
<path fill="#ccfbf1" stroke="#0f766e" d="M175,-145C175,-145 53.25,-145 53.25,-145 47.25,-145 41.25,-139 41.25,-133 41.25,-133 41.25,-101.75 41.25,-101.75 41.25,-95.75 47.25,-89.75 53.25,-89.75 53.25,-89.75 175,-89.75 175,-89.75 181,-89.75 187,-95.75 187,-101.75 187,-101.75 187,-133 187,-133 187,-139 181,-145 175,-145"/>
<text xml:space="preserve" text-anchor="middle" x="114.12" y="-130.55" font-family="Inter" font-size="11.00">path axis</text>
<text xml:space="preserve" text-anchor="middle" x="114.12" y="-114.8" font-family="Inter" font-size="11.00">DynamicDawgChar&lt;u64&gt;</text>
<text xml:space="preserve" text-anchor="middle" x="114.12" y="-99.05" font-family="Inter" font-size="11.00">exact + prefix</text>
</g>
<!-- idx&#45;&gt;path -->
<g id="edge2" class="edge">
<title>idx&#45;&gt;path</title>
<path fill="none" stroke="#475569" d="M242.81,-194.78C228.88,-189.78 214.23,-183.86 201.12,-177.25 186.84,-170.04 172.14,-160.86 158.97,-151.91"/>
<polygon fill="#475569" stroke="#475569" points="161.14,-149.15 150.93,-146.32 157.14,-154.9 161.14,-149.15"/>
</g>
<!-- sub -->
<g id="node5" class="node">
<title>sub</title>
<path fill="#ccfbf1" stroke="#0f766e" d="M319.62,-145C319.62,-145 216.62,-145 216.62,-145 210.62,-145 204.62,-139 204.62,-133 204.62,-133 204.62,-101.75 204.62,-101.75 204.62,-95.75 210.62,-89.75 216.62,-89.75 216.62,-89.75 319.62,-89.75 319.62,-89.75 325.62,-89.75 331.62,-95.75 331.62,-101.75 331.62,-101.75 331.62,-133 331.62,-133 331.62,-139 325.62,-145 319.62,-145"/>
<text xml:space="preserve" text-anchor="middle" x="268.12" y="-130.55" font-family="Inter" font-size="11.00">substring axis</text>
<text xml:space="preserve" text-anchor="middle" x="268.12" y="-114.8" font-family="Inter" font-size="11.00">SuffixAutomatonChar</text>
<text xml:space="preserve" text-anchor="middle" x="268.12" y="-99.05" font-family="Inter" font-size="11.00">grep, O(m)</text>
</g>
<!-- idx&#45;&gt;sub -->
<g id="edge3" class="edge">
<title>idx&#45;&gt;sub</title>
<path fill="none" stroke="#475569" d="M295.65,-194.79C293.09,-185.31 289.7,-173.43 286.12,-163 285.31,-160.62 284.44,-158.19 283.54,-155.75"/>
<polygon fill="#475569" stroke="#475569" points="286.84,-154.59 279.99,-146.51 280.31,-157.1 286.84,-154.59"/>
</g>
<!-- fuzzy -->
<g id="node6" class="node">
<title>fuzzy</title>
<path fill="#ccfbf1" stroke="#0f766e" d="M474.88,-145C474.88,-145 361.38,-145 361.38,-145 355.38,-145 349.38,-139 349.38,-133 349.38,-133 349.38,-101.75 349.38,-101.75 349.38,-95.75 355.38,-89.75 361.38,-89.75 361.38,-89.75 474.88,-89.75 474.88,-89.75 480.88,-89.75 486.88,-95.75 486.88,-101.75 486.88,-101.75 486.88,-133 486.88,-133 486.88,-139 480.88,-145 474.88,-145"/>
<text xml:space="preserve" text-anchor="middle" x="418.12" y="-130.55" font-family="Inter" font-size="11.00">fuzzy axis</text>
<text xml:space="preserve" text-anchor="middle" x="418.12" y="-114.8" font-family="Inter" font-size="11.00">Levenshtein Transducer</text>
<text xml:space="preserve" text-anchor="middle" x="418.12" y="-99.05" font-family="Inter" font-size="11.00">(over the path DAWG)</text>
</g>
<!-- idx&#45;&gt;fuzzy -->
<g id="edge4" class="edge">
<title>idx&#45;&gt;fuzzy</title>
<path fill="none" stroke="#475569" d="M322.04,-194.81C337.05,-182.87 357.44,-166.65 375.57,-152.23"/>
<polygon fill="#475569" stroke="#475569" points="377.43,-155.22 383.08,-146.26 373.07,-149.74 377.43,-155.22"/>
</g>
<!-- sem -->
<g id="node7" class="node">
<title>sem</title>
<path fill="#ccfbf1" stroke="#0f766e" d="M647.12,-137.12C647.12,-137.12 517.12,-137.12 517.12,-137.12 511.12,-137.12 505.12,-131.12 505.12,-125.12 505.12,-125.12 505.12,-109.62 505.12,-109.62 505.12,-103.62 511.12,-97.62 517.12,-97.62 517.12,-97.62 647.12,-97.62 647.12,-97.62 653.12,-97.62 659.12,-103.62 659.12,-109.62 659.12,-109.62 659.12,-125.12 659.12,-125.12 659.12,-131.12 653.12,-137.12 647.12,-137.12"/>
<text xml:space="preserve" text-anchor="middle" x="582.12" y="-122.67" font-family="Inter" font-size="11.00">semantic axis</text>
<text xml:space="preserve" text-anchor="middle" x="582.12" y="-106.92" font-family="Inter" font-size="11.00">flat cosine over host &amp;[f32]</text>
</g>
<!-- idx&#45;&gt;sem -->
<g id="edge5" class="edge">
<title>idx&#45;&gt;sem</title>
<path fill="none" stroke="#475569" d="M352.51,-194.81C398.06,-179.65 464.38,-157.57 514.04,-141.04"/>
<polygon fill="#475569" stroke="#475569" points="514.87,-144.45 523.25,-137.97 512.66,-137.81 514.87,-144.45"/>
</g>
<!-- path&#45;&gt;ids -->
<g id="edge8" class="edge">
<title>path&#45;&gt;ids</title>
<path fill="none" stroke="#475569" stroke-dasharray="5,2" d="M114.12,-89.48C114.12,-77.51 114.12,-63.36 114.12,-51.02"/>
<polygon fill="#475569" stroke="#475569" points="117.63,-51.38 114.13,-41.38 110.63,-51.38 117.63,-51.38"/>
<text xml:space="preserve" text-anchor="middle" x="144.88" y="-62.25" font-family="Inter" font-size="10.00">values are ids</text>
</g>
<!-- sub&#45;&gt;ids -->
<g id="edge9" class="edge">
<title>sub&#45;&gt;ids</title>
<path fill="none" stroke="#475569" stroke-dasharray="5,2" d="M228.63,-89.4C213.33,-79.17 195.56,-67.56 179.12,-57.5 172.66,-53.54 165.76,-49.48 158.96,-45.56"/>
<polygon fill="#475569" stroke="#475569" points="160.87,-42.61 150.45,-40.7 157.4,-48.69 160.87,-42.61"/>
<text xml:space="preserve" text-anchor="middle" x="242.67" y="-62.25" font-family="Inter" font-size="10.00">resolves source&#45;id</text>
</g>
<!-- fuzzy&#45;&gt;path -->
<g id="edge7" class="edge">
<title>fuzzy&#45;&gt;path</title>
<path fill="none" stroke="#475569" stroke-dasharray="5,2" d="M363.66,-145.36C320.5,-163.93 258.74,-182.53 205,-168.46 190.63,-164.7 176.13,-158.1 163.07,-150.86"/>
<polygon fill="#475569" stroke="#475569" points="165.1,-147.99 154.69,-146 161.58,-154.05 165.1,-147.99"/>
<text xml:space="preserve" text-anchor="middle" x="245.12" y="-167.75" font-family="Inter" font-size="10.00">reuses the DAWG</text>
</g>
</g>
</svg>
