<?xml version="1.0" encoding="UTF-8" standalone="no"?>
<!DOCTYPE svg PUBLIC "-//W3C//DTD SVG 1.1//EN"
 "http://www.w3.org/Graphics/SVG/1.1/DTD/svg11.dtd">
<!-- Generated by graphviz version 14.1.5 (0)
 -->
<!-- Title: rlm_tree Pages: 1 -->
<svg width="518pt" height="323pt"
 viewBox="0.00 0.00 518.00 323.00" xmlns="http://www.w3.org/2000/svg" xmlns:xlink="http://www.w3.org/1999/xlink">
<g id="graph0" class="graph" transform="scale(1 1) rotate(0) translate(4 319.22)">
<title>rlm_tree</title>
<!-- root -->
<g id="node1" class="node">
<title>root</title>
<path fill="#e0e7ff" stroke="#3730a3" d="M434.88,-315.22C434.88,-315.22 242.62,-315.22 242.62,-315.22 236.62,-315.22 230.62,-309.22 230.62,-303.22 230.62,-303.22 230.62,-287.72 230.62,-287.72 230.62,-281.72 236.62,-275.72 242.62,-275.72 242.62,-275.72 434.88,-275.72 434.88,-275.72 440.88,-275.72 446.88,-281.72 446.88,-287.72 446.88,-287.72 446.88,-303.22 446.88,-303.22 446.88,-309.22 440.88,-315.22 434.88,-315.22"/>
<text xml:space="preserve" text-anchor="middle" x="338.75" y="-300.77" font-family="Inter" font-size="11.00">root frame (depth 1)</text>
<text xml:space="preserve" text-anchor="middle" x="338.75" y="-285.02" font-family="Inter" font-size="11.00">RlmEnvironment::Store { root_task_id }</text>
</g>
<!-- c1 -->
<g id="node2" class="node">
<title>c1</title>
<path fill="#e0e7ff" stroke="#3730a3" d="M231.75,-238.72C231.75,-238.72 137.75,-238.72 137.75,-238.72 131.75,-238.72 125.75,-232.72 125.75,-226.72 125.75,-226.72 125.75,-211.22 125.75,-211.22 125.75,-205.22 131.75,-199.22 137.75,-199.22 137.75,-199.22 231.75,-199.22 231.75,-199.22 237.75,-199.22 243.75,-205.22 243.75,-211.22 243.75,-211.22 243.75,-226.72 243.75,-226.72 243.75,-232.72 237.75,-238.72 231.75,-238.72"/>
<text xml:space="preserve" text-anchor="middle" x="184.75" y="-224.27" font-family="Inter" font-size="11.00">child (depth 2)</text>
<text xml:space="preserve" text-anchor="middle" x="184.75" y="-208.52" font-family="Inter" font-size="11.00">FileRegion / snippet</text>
</g>
<!-- root&#45;&gt;c1 -->
<g id="edge1" class="edge">
<title>root&#45;&gt;c1</title>
<path fill="none" stroke="#475569" d="M299.09,-275.28C279.5,-265.8 255.65,-254.27 234.81,-244.19"/>
<polygon fill="#475569" stroke="#475569" points="236.43,-241.08 225.9,-239.88 233.38,-247.38 236.43,-241.08"/>
</g>
<!-- c2 -->
<g id="node3" class="node">
<title>c2</title>
<path fill="#e0e7ff" stroke="#3730a3" d="M371.12,-236.97C371.12,-236.97 306.38,-236.97 306.38,-236.97 300.38,-236.97 294.38,-230.97 294.38,-224.97 294.38,-224.97 294.38,-212.97 294.38,-212.97 294.38,-206.97 300.38,-200.97 306.38,-200.97 306.38,-200.97 371.12,-200.97 371.12,-200.97 377.12,-200.97 383.12,-206.97 383.12,-212.97 383.12,-212.97 383.12,-224.97 383.12,-224.97 383.12,-230.97 377.12,-236.97 371.12,-236.97"/>
<text xml:space="preserve" text-anchor="middle" x="338.75" y="-216.39" font-family="Inter" font-size="11.00">child (depth 2)</text>
</g>
<!-- root&#45;&gt;c2 -->
<g id="edge2" class="edge">
<title>root&#45;&gt;c2</title>
<path fill="none" stroke="#475569" d="M338.75,-275.28C338.75,-267.22 338.75,-257.67 338.75,-248.79"/>
<polygon fill="#475569" stroke="#475569" points="342.25,-248.82 338.75,-238.82 335.25,-248.82 342.25,-248.82"/>
</g>
<!-- tape -->
<g id="node7" class="node">
<title>tape</title>
<path fill="#ccfbf1" stroke="#0f766e" d="M338.25,-69.06C338.25,-72.87 295,-75.97 241.75,-75.97 188.5,-75.97 145.25,-72.87 145.25,-69.06 145.25,-69.06 145.25,-6.91 145.25,-6.91 145.25,-3.1 188.5,0 241.75,0 295,0 338.25,-3.1 338.25,-6.91 338.25,-6.91 338.25,-69.06 338.25,-69.06"/>
<path fill="none" stroke="#0f766e" d="M338.25,-69.06C338.25,-65.25 295,-62.16 241.75,-62.16 188.5,-62.16 145.25,-65.25 145.25,-69.06"/>
<text xml:space="preserve" text-anchor="middle" x="241.75" y="-51.16" font-family="Inter" font-size="11.00">ONE TapeStore per tree</text>
<text xml:space="preserve" text-anchor="middle" x="241.75" y="-35.41" font-family="Inter" font-size="11.00">TreeId = SHA&#45;256(rlm:root_task_id)</text>
<text xml:space="preserve" text-anchor="middle" x="241.75" y="-19.66" font-family="Inter" font-size="11.00">scratch &#160;accum/&lt;parent&gt;/&lt;ord&gt;</text>
</g>
<!-- root&#45;&gt;tape -->
<g id="edge6" class="edge">
<title>root&#45;&gt;tape</title>
<path fill="none" stroke="#0f766e" stroke-dasharray="5,2" d="M364.09,-275.34C374.78,-265.68 386.05,-252.98 391.75,-238.72 402.7,-211.3 382.99,-121.97 378.75,-112.97 371.88,-98.36 360.76,-86.54 347.74,-77.01"/>
<polygon fill="#0f766e" stroke="#0f766e" points="349.97,-74.29 339.72,-71.61 346.06,-80.09 349.97,-74.29"/>
<text xml:space="preserve" text-anchor="middle" x="451.02" y="-171.72" font-family="Inter" font-size="10.00">drop_tree only at depth 1</text>
</g>
<!-- l1 -->
<g id="node4" class="node">
<title>l1</title>
<path fill="#dcfce7" stroke="#15803d" d="M65.5,-148.97C65.5,-148.97 12,-148.97 12,-148.97 6,-148.97 0,-142.97 0,-136.97 0,-136.97 0,-124.97 0,-124.97 0,-118.97 6,-112.97 12,-112.97 12,-112.97 65.5,-112.97 65.5,-112.97 71.5,-112.97 77.5,-118.97 77.5,-124.97 77.5,-124.97 77.5,-136.97 77.5,-136.97 77.5,-142.97 71.5,-148.97 65.5,-148.97"/>
<text xml:space="preserve" text-anchor="middle" x="38.75" y="-128.39" font-family="Inter" font-size="11.00">leaf sub&#45;call</text>
</g>
<!-- c1&#45;&gt;l1 -->
<g id="edge3" class="edge">
<title>c1&#45;&gt;l1</title>
<path fill="none" stroke="#475569" d="M152.35,-198.88C130.39,-185.95 101.26,-168.79 77.99,-155.08"/>
<polygon fill="#475569" stroke="#475569" points="79.78,-152.08 69.39,-150.02 76.23,-158.11 79.78,-152.08"/>
</g>
<!-- l2 -->
<g id="node5" class="node">
<title>l2</title>
<path fill="#dcfce7" stroke="#15803d" d="M161.5,-148.97C161.5,-148.97 108,-148.97 108,-148.97 102,-148.97 96,-142.97 96,-136.97 96,-136.97 96,-124.97 96,-124.97 96,-118.97 102,-112.97 108,-112.97 108,-112.97 161.5,-112.97 161.5,-112.97 167.5,-112.97 173.5,-118.97 173.5,-124.97 173.5,-124.97 173.5,-136.97 173.5,-136.97 173.5,-142.97 167.5,-148.97 161.5,-148.97"/>
<text xml:space="preserve" text-anchor="middle" x="134.75" y="-128.39" font-family="Inter" font-size="11.00">leaf sub&#45;call</text>
</g>
<!-- c1&#45;&gt;l2 -->
<g id="edge4" class="edge">
<title>c1&#45;&gt;l2</title>
<path fill="none" stroke="#475569" d="M173.65,-198.88C166.84,-187.17 158.01,-171.98 150.49,-159.04"/>
<polygon fill="#475569" stroke="#475569" points="153.61,-157.44 145.56,-150.56 147.56,-160.96 153.61,-157.44"/>
</g>
<!-- c1&#45;&gt;tape -->
<g id="edge7" class="edge">
<title>c1&#45;&gt;tape</title>
<path fill="none" stroke="#475569" stroke-dasharray="1,5" d="M190.85,-198.81C199.26,-172.42 214.69,-123.96 226.36,-87.3"/>
<polygon fill="#475569" stroke="#475569" points="229.7,-88.37 229.4,-77.78 223.03,-86.24 229.7,-88.37"/>
<text xml:space="preserve" text-anchor="middle" x="241.61" y="-128.59" font-family="Inter" font-size="10.00">put accum</text>
</g>
<!-- l3 -->
<g id="node6" class="node">
<title>l3</title>
<path fill="#dcfce7" stroke="#15803d" d="M340.5,-148.97C340.5,-148.97 287,-148.97 287,-148.97 281,-148.97 275,-142.97 275,-136.97 275,-136.97 275,-124.97 275,-124.97 275,-118.97 281,-112.97 287,-112.97 287,-112.97 340.5,-112.97 340.5,-112.97 346.5,-112.97 352.5,-118.97 352.5,-124.97 352.5,-124.97 352.5,-136.97 352.5,-136.97 352.5,-142.97 346.5,-148.97 340.5,-148.97"/>
<text xml:space="preserve" text-anchor="middle" x="313.75" y="-128.39" font-family="Inter" font-size="11.00">leaf sub&#45;call</text>
</g>
<!-- c2&#45;&gt;l3 -->
<g id="edge5" class="edge">
<title>c2&#45;&gt;l3</title>
<path fill="none" stroke="#475569" d="M333.69,-200.57C330.34,-189.03 325.86,-173.62 321.99,-160.33"/>
<polygon fill="#475569" stroke="#475569" points="325.38,-159.43 319.22,-150.8 318.65,-161.38 325.38,-159.43"/>
</g>
<!-- c2&#45;&gt;tape -->
<g id="edge8" class="edge">
<title>c2&#45;&gt;tape</title>
<path fill="none" stroke="#475569" stroke-dasharray="1,5" d="M349.61,-200.53C361.63,-178.76 377.4,-140.99 361.75,-112.97 354.83,-100.57 344.89,-90 333.65,-81.05"/>
<polygon fill="#475569" stroke="#475569" points="335.73,-78.24 325.6,-75.13 331.58,-83.88 335.73,-78.24"/>
</g>
<!-- l1&#45;&gt;tape -->
<g id="edge9" class="edge">
<title>l1&#45;&gt;tape</title>
<path fill="none" stroke="#475569" stroke-dasharray="1,5" d="M77.41,-112.64C98.64,-103.13 125.9,-90.91 152.11,-79.16"/>
<polygon fill="#475569" stroke="#475569" points="153.39,-82.42 161.09,-75.14 150.53,-76.03 153.39,-82.42"/>
</g>
<!-- l2&#45;&gt;tape -->
<g id="edge10" class="edge">
<title>l2&#45;&gt;tape</title>
<path fill="none" stroke="#475569" stroke-dasharray="1,5" d="M155.13,-112.64C164.98,-104.26 177.31,-93.78 189.54,-83.38"/>
<polygon fill="#475569" stroke="#475569" points="191.46,-86.34 196.81,-77.2 186.93,-81.01 191.46,-86.34"/>
</g>
<!-- l3&#45;&gt;tape -->
<g id="edge11" class="edge">
<title>l3&#45;&gt;tape</title>
<path fill="none" stroke="#475569" stroke-dasharray="1,5" d="M300.21,-112.86C293.97,-104.97 286.23,-95.2 278.46,-85.37"/>
<polygon fill="#475569" stroke="#475569" points="281.23,-83.23 272.28,-77.56 275.74,-87.58 281.23,-83.23"/>
</g>
</g>
</svg>
