<?xml version="1.0" encoding="UTF-8" standalone="no"?>
<!DOCTYPE svg PUBLIC "-//W3C//DTD SVG 1.1//EN"
 "http://www.w3.org/Graphics/SVG/1.1/DTD/svg11.dtd">
<!-- Generated by graphviz version 14.1.5 (0)
 -->
<!-- Title: taint Pages: 1 -->
<svg width="459pt" height="264pt"
 viewBox="0.00 0.00 459.00 264.00" xmlns="http://www.w3.org/2000/svg" xmlns:xlink="http://www.w3.org/1999/xlink">
<g id="graph0" class="graph" transform="scale(1 1) rotate(0) translate(4 259.75)">
<title>taint</title>
<!-- agent -->
<g id="node1" class="node">
<title>agent</title>
<path fill="#fee2e2" stroke="#b91c1c" d="M119.5,-145.75C119.5,-145.75 12,-145.75 12,-145.75 6,-145.75 0,-139.75 0,-133.75 0,-133.75 0,-118.25 0,-118.25 0,-112.25 6,-106.25 12,-106.25 12,-106.25 119.5,-106.25 119.5,-106.25 125.5,-106.25 131.5,-112.25 131.5,-118.25 131.5,-118.25 131.5,-133.75 131.5,-133.75 131.5,-139.75 125.5,-145.75 119.5,-145.75"/>
<text xml:space="preserve" text-anchor="middle" x="65.75" y="-131.3" font-family="Inter" font-size="11.00">agent&#45;controlled bytes</text>
<text xml:space="preserve" text-anchor="middle" x="65.75" y="-115.55" font-family="Inter" font-size="11.00">(tape_put / REPL put)</text>
</g>
<!-- scratch -->
<g id="node2" class="node">
<title>scratch</title>
<path fill="#dcfce7" stroke="#15803d" d="M413,-255.75C413,-255.75 316,-255.75 316,-255.75 310,-255.75 304,-249.75 304,-243.75 304,-243.75 304,-228.25 304,-228.25 304,-222.25 310,-216.25 316,-216.25 316,-216.25 413,-216.25 413,-216.25 419,-216.25 425,-222.25 425,-228.25 425,-228.25 425,-243.75 425,-243.75 425,-249.75 419,-255.75 413,-255.75"/>
<text xml:space="preserve" text-anchor="middle" x="364.5" y="-241.3" font-family="Inter" font-size="11.00">scratch page (DIRTY)</text>
<text xml:space="preserve" text-anchor="middle" x="364.5" y="-225.55" font-family="Inter" font-size="11.00">tree&#45;local</text>
</g>
<!-- agent&#45;&gt;scratch -->
<g id="edge1" class="edge">
<title>agent&#45;&gt;scratch</title>
<path fill="none" stroke="#15803d" d="M92.27,-146.22C108,-157.83 129.02,-171.87 149.5,-181 195.18,-201.35 249.82,-215.23 292.46,-223.96"/>
<polygon fill="#15803d" stroke="#15803d" points="291.61,-227.36 302.1,-225.88 292.98,-220.5 291.61,-227.36"/>
<text xml:space="preserve" text-anchor="middle" x="204.62" y="-221.05" font-family="Inter" font-size="10.00">✓ allowed</text>
</g>
<!-- corpus -->
<g id="node3" class="node">
<title>corpus</title>
<path fill="#e2e8f0" stroke="#334155" d="M423.88,-198C423.88,-198 305.12,-198 305.12,-198 299.12,-198 293.12,-192 293.12,-186 293.12,-186 293.12,-174 293.12,-174 293.12,-168 299.12,-162 305.12,-162 305.12,-162 423.88,-162 423.88,-162 429.88,-162 435.88,-168 435.88,-174 435.88,-174 435.88,-186 435.88,-186 435.88,-192 429.88,-198 423.88,-198"/>
<text xml:space="preserve" text-anchor="middle" x="364.5" y="-177.43" font-family="Inter" font-size="11.00">corpus file_chunks / files</text>
</g>
<!-- agent&#45;&gt;corpus -->
<g id="edge2" class="edge">
<title>agent&#45;&gt;corpus</title>
<path fill="none" stroke="#b91c1c" stroke-dasharray="5,2" d="M131.74,-140.44C137.74,-141.68 143.73,-142.89 149.5,-144 193.03,-152.39 241.75,-160.67 281.7,-167.17"/>
<polygon fill="#b91c1c" stroke="#b91c1c" points="281.06,-170.62 291.49,-168.76 282.18,-163.71 281.06,-170.62"/>
<text xml:space="preserve" text-anchor="middle" x="204.62" y="-167.46" font-family="Inter" font-size="10.00">✗ read&#45;only</text>
</g>
<!-- files -->
<g id="node4" class="node">
<title>files</title>
<path fill="#e2e8f0" stroke="#334155" d="M402.5,-144C402.5,-144 326.5,-144 326.5,-144 320.5,-144 314.5,-138 314.5,-132 314.5,-132 314.5,-120 314.5,-120 314.5,-114 320.5,-108 326.5,-108 326.5,-108 402.5,-108 402.5,-108 408.5,-108 414.5,-114 414.5,-120 414.5,-120 414.5,-132 414.5,-132 414.5,-138 408.5,-144 402.5,-144"/>
<text xml:space="preserve" text-anchor="middle" x="364.5" y="-123.42" font-family="Inter" font-size="11.00">user source files</text>
</g>
<!-- agent&#45;&gt;files -->
<g id="edge3" class="edge">
<title>agent&#45;&gt;files</title>
<path fill="none" stroke="#b91c1c" stroke-dasharray="5,2" d="M131.87,-126C182.84,-126 253.18,-126 302.94,-126"/>
<polygon fill="#b91c1c" stroke="#b91c1c" points="302.66,-129.5 312.66,-126 302.66,-122.5 302.66,-129.5"/>
<text xml:space="preserve" text-anchor="middle" x="204.62" y="-130.75" font-family="Inter" font-size="10.00">✗ never (no fs verb)</text>
</g>
<!-- sibling -->
<g id="node5" class="node">
<title>sibling</title>
<path fill="#e2e8f0" stroke="#334155" d="M410.75,-90C410.75,-90 318.25,-90 318.25,-90 312.25,-90 306.25,-84 306.25,-78 306.25,-78 306.25,-66 306.25,-66 306.25,-60 312.25,-54 318.25,-54 318.25,-54 410.75,-54 410.75,-54 416.75,-54 422.75,-60 422.75,-66 422.75,-66 422.75,-78 422.75,-78 422.75,-84 416.75,-90 410.75,-90"/>
<text xml:space="preserve" text-anchor="middle" x="364.5" y="-69.42" font-family="Inter" font-size="11.00">another tree&#39;s store</text>
</g>
<!-- agent&#45;&gt;sibling -->
<g id="edge4" class="edge">
<title>agent&#45;&gt;sibling</title>
<path fill="none" stroke="#b91c1c" stroke-dasharray="5,2" d="M131.73,-111.34C137.73,-110.08 143.72,-108.87 149.5,-107.75 197.94,-98.37 252.84,-89.23 294.9,-82.54"/>
<polygon fill="#b91c1c" stroke="#b91c1c" points="295.31,-86.02 304.64,-81 294.21,-79.1 295.31,-86.02"/>
<text xml:space="preserve" text-anchor="middle" x="204.62" y="-112.5" font-family="Inter" font-size="10.00">✗ frame&#45;bound tree</text>
</g>
<!-- mem -->
<g id="node6" class="node">
<title>mem</title>
<path fill="#ede9fe" stroke="#7c3aed" d="M439.25,-36C439.25,-36 289.75,-36 289.75,-36 283.75,-36 277.75,-30 277.75,-24 277.75,-24 277.75,-12 277.75,-12 277.75,-6 283.75,0 289.75,0 289.75,0 439.25,0 439.25,0 445.25,0 451.25,-6 451.25,-12 451.25,-12 451.25,-24 451.25,-24 451.25,-30 445.25,-36 439.25,-36"/>
<text xml:space="preserve" text-anchor="middle" x="364.5" y="-15.43" font-family="Inter" font-size="11.00">durable memory_observations</text>
</g>
<!-- agent&#45;&gt;mem -->
<g id="edge5" class="edge">
<title>agent&#45;&gt;mem</title>
<path fill="none" stroke="#7c3aed" d="M91.86,-105.87C107.61,-94.13 128.79,-79.88 149.5,-70.75 186.31,-54.52 228.97,-42.73 266.48,-34.46"/>
<polygon fill="#7c3aed" stroke="#7c3aed" points="266.9,-37.95 275.94,-32.43 265.43,-31.11 266.9,-37.95"/>
<text xml:space="preserve" text-anchor="middle" x="204.62" y="-75.5" font-family="Inter" font-size="10.00">only via the double gate</text>
</g>
</g>
</svg>
