<?xml version="1.0" encoding="UTF-8" standalone="no"?>
<!DOCTYPE svg PUBLIC "-//W3C//DTD SVG 1.1//EN"
 "http://www.w3.org/Graphics/SVG/1.1/DTD/svg11.dtd">
<!-- Generated by graphviz version 14.1.5 (0)
 -->
<!-- Title: tiebreak Pages: 1 -->
<svg width="604pt" height="69pt"
 viewBox="0.00 0.00 604.00 69.00" xmlns="http://www.w3.org/2000/svg" xmlns:xlink="http://www.w3.org/1999/xlink">
<g id="graph0" class="graph" transform="scale(1 1) rotate(0) translate(4 65.25)">
<title>tiebreak</title>
<text xml:space="preserve" text-anchor="middle" x="297.88" y="-45.85" font-family="Inter" font-size="12.00">Equal policy score → smaller to_key wins (a TOTAL order ⇒ a unique victim, an order&#45;independent rank)</text>
<!-- a -->
<g id="node1" class="node">
<title>a</title>
<path fill="#e0e7ff" stroke="#3730a3" d="M107.88,-36C107.88,-36 35.62,-36 35.62,-36 29.62,-36 23.62,-30 23.62,-24 23.62,-24 23.62,-12 23.62,-12 23.62,-6 29.62,0 35.62,0 35.62,0 107.88,0 107.88,0 113.88,0 119.88,-6 119.88,-12 119.88,-12 119.88,-24 119.88,-24 119.88,-30 113.88,-36 107.88,-36"/>
<text xml:space="preserve" text-anchor="middle" x="71.75" y="-15.43" font-family="Inter" font-size="11.00">corpus/chunk/1</text>
</g>
<!-- b -->
<g id="node2" class="node">
<title>b</title>
<path fill="#e0e7ff" stroke="#3730a3" d="M261.12,-36C261.12,-36 188.88,-36 188.88,-36 182.88,-36 176.88,-30 176.88,-24 176.88,-24 176.88,-12 176.88,-12 176.88,-6 182.88,0 188.88,0 188.88,0 261.12,0 261.12,0 267.12,0 273.12,-6 273.12,-12 273.12,-12 273.12,-24 273.12,-24 273.12,-30 267.12,-36 261.12,-36"/>
<text xml:space="preserve" text-anchor="middle" x="225" y="-15.43" font-family="Inter" font-size="11.00">corpus/chunk/2</text>
</g>
<!-- a&#45;&gt;b -->
<g id="edge1" class="edge">
<title>a&#45;&gt;b</title>
<path fill="none" stroke="#475569" d="M120.19,-18C134.48,-18 150.34,-18 165.27,-18"/>
<polygon fill="#475569" stroke="#475569" points="164.95,-21.5 174.95,-18 164.95,-14.5 164.95,-21.5"/>
<text xml:space="preserve" text-anchor="middle" x="148.38" y="-22.75" font-family="Inter" font-size="10.00">&lt; lex</text>
</g>
<!-- c -->
<g id="node3" class="node">
<title>c</title>
<path fill="#e0e7ff" stroke="#3730a3" d="M398.62,-36C398.62,-36 342.12,-36 342.12,-36 336.12,-36 330.12,-30 330.12,-24 330.12,-24 330.12,-12 330.12,-12 330.12,-6 336.12,0 342.12,0 342.12,0 398.62,0 398.62,0 404.62,0 410.62,-6 410.62,-12 410.62,-12 410.62,-24 410.62,-24 410.62,-30 404.62,-36 398.62,-36"/>
<text xml:space="preserve" text-anchor="middle" x="370.38" y="-15.43" font-family="Inter" font-size="11.00">corpus/file/3</text>
</g>
<!-- b&#45;&gt;c -->
<g id="edge2" class="edge">
<title>b&#45;&gt;c</title>
<path fill="none" stroke="#475569" d="M273.34,-18C287.76,-18 303.67,-18 318.32,-18"/>
<polygon fill="#475569" stroke="#475569" points="318.23,-21.5 328.23,-18 318.23,-14.5 318.23,-21.5"/>
<text xml:space="preserve" text-anchor="middle" x="301.62" y="-22.75" font-family="Inter" font-size="10.00">&lt; lex</text>
</g>
<!-- d -->
<g id="node4" class="node">
<title>d</title>
<path fill="#fde68a" stroke="#b45309" d="M560.12,-36C560.12,-36 479.62,-36 479.62,-36 473.62,-36 467.62,-30 467.62,-24 467.62,-24 467.62,-12 467.62,-12 467.62,-6 473.62,0 479.62,0 479.62,0 560.12,0 560.12,0 566.12,0 572.12,-6 572.12,-12 572.12,-12 572.12,-24 572.12,-24 572.12,-30 566.12,-36 560.12,-36"/>
<text xml:space="preserve" text-anchor="middle" x="519.88" y="-15.43" font-family="Inter" font-size="11.00">scratch/&lt;tree&gt;/00</text>
</g>
<!-- c&#45;&gt;d -->
<g id="edge3" class="edge">
<title>c&#45;&gt;d</title>
<path fill="none" stroke="#475569" d="M410.9,-18C424.71,-18 440.57,-18 455.8,-18"/>
<polygon fill="#475569" stroke="#475569" points="455.78,-21.5 465.78,-18 455.78,-14.5 455.78,-21.5"/>
<text xml:space="preserve" text-anchor="middle" x="439.12" y="-22.75" font-family="Inter" font-size="10.00">&lt; lex</text>
</g>
</g>
</svg>
