<?xml version="1.0" encoding="UTF-8" standalone="no"?>
<!DOCTYPE svg PUBLIC "-//W3C//DTD SVG 1.1//EN"
 "http://www.w3.org/Graphics/SVG/1.1/DTD/svg11.dtd">
<!-- Generated by graphviz version 14.1.5 (0)
 -->
<!-- Title: verb_axes Pages: 1 -->
<svg width="411pt" height="474pt"
 viewBox="0.00 0.00 411.00 474.00" xmlns="http://www.w3.org/2000/svg" xmlns:xlink="http://www.w3.org/1999/xlink">
<g id="graph0" class="graph" transform="scale(1 1) rotate(0) translate(4 470)">
<title>verb_axes</title>
<!-- get -->
<g id="node1" class="node">
<title>get</title>
<path fill="#fef3c7" stroke="#b45309" d="M63.25,-96C63.25,-96 27,-96 27,-96 21,-96 15,-90 15,-84 15,-84 15,-72 15,-72 15,-66 21,-60 27,-60 27,-60 63.25,-60 63.25,-60 69.25,-60 75.25,-66 75.25,-72 75.25,-72 75.25,-84 75.25,-84 75.25,-90 69.25,-96 63.25,-96"/>
<text xml:space="preserve" text-anchor="middle" x="45.12" y="-75.42" font-family="Inter" font-size="11.00">tape_get</text>
</g>
<!-- hyd -->
<g id="node10" class="node">
<title>hyd</title>
<path fill="#ccfbf1" stroke="#0f766e" d="M390.5,-97.75C390.5,-97.75 292,-97.75 292,-97.75 286,-97.75 280,-91.75 280,-85.75 280,-85.75 280,-70.25 280,-70.25 280,-64.25 286,-58.25 292,-58.25 292,-58.25 390.5,-58.25 390.5,-58.25 396.5,-58.25 402.5,-64.25 402.5,-70.25 402.5,-70.25 402.5,-85.75 402.5,-85.75 402.5,-91.75 396.5,-97.75 390.5,-97.75"/>
<text xml:space="preserve" text-anchor="middle" x="341.25" y="-83.3" font-family="Inter" font-size="11.00">hydrate</text>
<text xml:space="preserve" text-anchor="middle" x="341.25" y="-67.55" font-family="Inter" font-size="11.00">(corpus, READ&#45;ONLY)</text>
</g>
<!-- get&#45;&gt;hyd -->
<g id="edge1" class="edge">
<title>get&#45;&gt;hyd</title>
<path fill="none" stroke="#475569" d="M75.67,-78C121.12,-78 209.42,-78 271.48,-78"/>
<polygon fill="#475569" stroke="#475569" points="271.16,-80.45 278.16,-78 271.16,-75.55 271.16,-80.45"/>
<text xml:space="preserve" text-anchor="middle" x="185.12" y="-81.95" font-family="Times,serif" font-size="14.00">hot/OOC else hydrate</text>
</g>
<!-- put -->
<g id="node2" class="node">
<title>put</title>
<path fill="#fef3c7" stroke="#b45309" d="M63.62,-217C63.62,-217 26.62,-217 26.62,-217 20.62,-217 14.62,-211 14.62,-205 14.62,-205 14.62,-193 14.62,-193 14.62,-187 20.62,-181 26.62,-181 26.62,-181 63.62,-181 63.62,-181 69.62,-181 75.62,-187 75.62,-193 75.62,-193 75.62,-205 75.62,-205 75.62,-211 69.62,-217 63.62,-217"/>
<text xml:space="preserve" text-anchor="middle" x="45.12" y="-196.43" font-family="Inter" font-size="11.00">tape_put</text>
</g>
<!-- write -->
<g id="node11" class="node">
<title>write</title>
<path fill="#ccfbf1" stroke="#0f766e" d="M377,-218.75C377,-218.75 305.5,-218.75 305.5,-218.75 299.5,-218.75 293.5,-212.75 293.5,-206.75 293.5,-206.75 293.5,-191.25 293.5,-191.25 293.5,-185.25 299.5,-179.25 305.5,-179.25 305.5,-179.25 377,-179.25 377,-179.25 383,-179.25 389,-185.25 389,-191.25 389,-191.25 389,-206.75 389,-206.75 389,-212.75 383,-218.75 377,-218.75"/>
<text xml:space="preserve" text-anchor="middle" x="341.25" y="-204.3" font-family="Inter" font-size="11.00">write</text>
<text xml:space="preserve" text-anchor="middle" x="341.25" y="-188.55" font-family="Inter" font-size="11.00">(scratch, DIRTY)</text>
</g>
<!-- put&#45;&gt;write -->
<g id="edge2" class="edge">
<title>put&#45;&gt;write</title>
<path fill="none" stroke="#475569" d="M75.95,-199C124.84,-199 222.78,-199 284.73,-199"/>
<polygon fill="#475569" stroke="#475569" points="284.71,-201.45 291.71,-199 284.71,-196.55 284.71,-201.45"/>
</g>
<!-- peek -->
<g id="node3" class="node">
<title>peek</title>
<path fill="#fef3c7" stroke="#b45309" d="M67.38,-315C67.38,-315 22.88,-315 22.88,-315 16.88,-315 10.88,-309 10.88,-303 10.88,-303 10.88,-291 10.88,-291 10.88,-285 16.88,-279 22.88,-279 22.88,-279 67.38,-279 67.38,-279 73.38,-279 79.38,-285 79.38,-291 79.38,-291 79.38,-303 79.38,-303 79.38,-309 73.38,-315 67.38,-315"/>
<text xml:space="preserve" text-anchor="middle" x="45.12" y="-294.43" font-family="Inter" font-size="11.00">tape_peek</text>
</g>
<!-- pathx -->
<g id="node13" class="node">
<title>pathx</title>
<path fill="#ccfbf1" stroke="#0f766e" d="M373.62,-293.75C373.62,-293.75 308.88,-293.75 308.88,-293.75 302.88,-293.75 296.88,-287.75 296.88,-281.75 296.88,-281.75 296.88,-266.25 296.88,-266.25 296.88,-260.25 302.88,-254.25 308.88,-254.25 308.88,-254.25 373.62,-254.25 373.62,-254.25 379.62,-254.25 385.62,-260.25 385.62,-266.25 385.62,-266.25 385.62,-281.75 385.62,-281.75 385.62,-287.75 379.62,-293.75 373.62,-293.75"/>
<text xml:space="preserve" text-anchor="middle" x="341.25" y="-279.3" font-family="Inter" font-size="11.00">path index</text>
<text xml:space="preserve" text-anchor="middle" x="341.25" y="-263.55" font-family="Inter" font-size="11.00">(exact / prefix)</text>
</g>
<!-- peek&#45;&gt;pathx -->
<g id="edge3" class="edge">
<title>peek&#45;&gt;pathx</title>
<path fill="none" stroke="#475569" d="M79.86,-294.36C130.88,-290.37 228.06,-282.77 288.19,-278.07"/>
<polygon fill="#475569" stroke="#475569" points="288.13,-280.53 294.92,-277.55 287.75,-275.65 288.13,-280.53"/>
<text xml:space="preserve" text-anchor="middle" x="185.12" y="-295.98" font-family="Times,serif" font-size="14.00">resident head/size</text>
</g>
<!-- slice -->
<g id="node4" class="node">
<title>slice</title>
<path fill="#fef3c7" stroke="#b45309" d="M66.25,-366C66.25,-366 24,-366 24,-366 18,-366 12,-360 12,-354 12,-354 12,-342 12,-342 12,-336 18,-330 24,-330 24,-330 66.25,-330 66.25,-330 72.25,-330 78.25,-336 78.25,-342 78.25,-342 78.25,-354 78.25,-354 78.25,-360 72.25,-366 66.25,-366"/>
<text xml:space="preserve" text-anchor="middle" x="45.12" y="-345.43" font-family="Inter" font-size="11.00">tape_slice</text>
</g>
<!-- pos -->
<g id="node12" class="node">
<title>pos</title>
<path fill="#ccfbf1" stroke="#0f766e" d="M376.25,-367.75C376.25,-367.75 306.25,-367.75 306.25,-367.75 300.25,-367.75 294.25,-361.75 294.25,-355.75 294.25,-355.75 294.25,-340.25 294.25,-340.25 294.25,-334.25 300.25,-328.25 306.25,-328.25 306.25,-328.25 376.25,-328.25 376.25,-328.25 382.25,-328.25 388.25,-334.25 388.25,-340.25 388.25,-340.25 388.25,-355.75 388.25,-355.75 388.25,-361.75 382.25,-367.75 376.25,-367.75"/>
<text xml:space="preserve" text-anchor="middle" x="341.25" y="-353.3" font-family="Inter" font-size="11.00">positional slice</text>
<text xml:space="preserve" text-anchor="middle" x="341.25" y="-337.55" font-family="Inter" font-size="11.00">(trie, key order)</text>
</g>
<!-- slice&#45;&gt;pos -->
<g id="edge4" class="edge">
<title>slice&#45;&gt;pos</title>
<path fill="none" stroke="#475569" d="M78.73,-348C128.72,-348 224.91,-348 285.67,-348"/>
<polygon fill="#475569" stroke="#475569" points="285.48,-350.45 292.48,-348 285.48,-345.55 285.48,-350.45"/>
</g>
<!-- grep -->
<g id="node5" class="node">
<title>grep</title>
<path fill="#fef3c7" stroke="#b45309" d="M67,-156C67,-156 23.25,-156 23.25,-156 17.25,-156 11.25,-150 11.25,-144 11.25,-144 11.25,-132 11.25,-132 11.25,-126 17.25,-120 23.25,-120 23.25,-120 67,-120 67,-120 73,-120 79,-126 79,-132 79,-132 79,-144 79,-144 79,-150 73,-156 67,-156"/>
<text xml:space="preserve" text-anchor="middle" x="45.12" y="-135.43" font-family="Inter" font-size="11.00">tape_grep</text>
</g>
<!-- grep&#45;&gt;hyd -->
<g id="edge6" class="edge">
<title>grep&#45;&gt;hyd</title>
<path fill="none" stroke="#475569" d="M79.44,-127.33C88.71,-124.61 98.81,-121.85 108.25,-119.75 175.73,-104.7 194.1,-109.04 262,-96 265.14,-95.4 268.35,-94.76 271.59,-94.09"/>
<polygon fill="#475569" stroke="#475569" points="271.85,-96.54 278.2,-92.7 270.85,-91.74 271.85,-96.54"/>
<text xml:space="preserve" text-anchor="middle" x="185.12" y="-123.7" font-family="Times,serif" font-size="14.00">corpus</text>
</g>
<!-- subx -->
<g id="node14" class="node">
<title>subx</title>
<path fill="#ccfbf1" stroke="#0f766e" d="M377.38,-166C377.38,-166 305.12,-166 305.12,-166 299.12,-166 293.12,-160 293.12,-154 293.12,-154 293.12,-142 293.12,-142 293.12,-136 299.12,-130 305.12,-130 305.12,-130 377.38,-130 377.38,-130 383.38,-130 389.38,-136 389.38,-142 389.38,-142 389.38,-154 389.38,-154 389.38,-160 383.38,-166 377.38,-166"/>
<text xml:space="preserve" text-anchor="middle" x="341.25" y="-145.43" font-family="Inter" font-size="11.00">substring index</text>
</g>
<!-- grep&#45;&gt;subx -->
<g id="edge5" class="edge">
<title>grep&#45;&gt;subx</title>
<path fill="none" stroke="#475569" d="M79.29,-139.13C129.08,-140.82 223.75,-144.04 284.34,-146.1"/>
<polygon fill="#475569" stroke="#475569" points="284.06,-148.54 291.14,-146.33 284.23,-143.64 284.06,-148.54"/>
<text xml:space="preserve" text-anchor="middle" x="185.12" y="-149.27" font-family="Times,serif" font-size="14.00">tree</text>
</g>
<!-- fuzzy -->
<g id="node6" class="node">
<title>fuzzy</title>
<path fill="#fef3c7" stroke="#b45309" d="M68.12,-417C68.12,-417 22.13,-417 22.13,-417 16.12,-417 10.12,-411 10.12,-405 10.12,-405 10.12,-393 10.12,-393 10.12,-387 16.12,-381 22.12,-381 22.12,-381 68.12,-381 68.12,-381 74.12,-381 80.12,-387 80.12,-393 80.12,-393 80.12,-405 80.12,-405 80.12,-411 74.12,-417 68.12,-417"/>
<text xml:space="preserve" text-anchor="middle" x="45.12" y="-396.43" font-family="Inter" font-size="11.00">tape_fuzzy</text>
</g>
<!-- fuzx -->
<g id="node15" class="node">
<title>fuzx</title>
<path fill="#ccfbf1" stroke="#0f766e" d="M382.62,-417C382.62,-417 299.88,-417 299.88,-417 293.88,-417 287.88,-411 287.88,-405 287.88,-405 287.88,-393 287.88,-393 287.88,-387 293.88,-381 299.88,-381 299.88,-381 382.62,-381 382.62,-381 388.62,-381 394.62,-387 394.62,-393 394.62,-393 394.62,-405 394.62,-405 394.62,-411 388.62,-417 382.62,-417"/>
<text xml:space="preserve" text-anchor="middle" x="341.25" y="-396.43" font-family="Inter" font-size="11.00">fuzzy Levenshtein</text>
</g>
<!-- fuzzy&#45;&gt;fuzx -->
<g id="edge7" class="edge">
<title>fuzzy&#45;&gt;fuzx</title>
<path fill="none" stroke="#475569" d="M80.44,-399C129.14,-399 219.07,-399 279.28,-399"/>
<polygon fill="#475569" stroke="#475569" points="279.06,-401.45 286.06,-399 279.06,-396.55 279.06,-401.45"/>
</g>
<!-- semantic -->
<g id="node7" class="node">
<title>semantic</title>
<path fill="#fef3c7" stroke="#b45309" d="M78.25,-42C78.25,-42 12,-42 12,-42 6,-42 0,-36 0,-30 0,-30 0,-18 0,-18 0,-12 6,-6 12,-6 12,-6 78.25,-6 78.25,-6 84.25,-6 90.25,-12 90.25,-18 90.25,-18 90.25,-30 90.25,-30 90.25,-36 84.25,-42 78.25,-42"/>
<text xml:space="preserve" text-anchor="middle" x="45.12" y="-21.43" font-family="Inter" font-size="11.00">tape_semantic</text>
</g>
<!-- semantic&#45;&gt;hyd -->
<g id="edge9" class="edge">
<title>semantic&#45;&gt;hyd</title>
<path fill="none" stroke="#475569" d="M90.59,-29.65C134.4,-35.53 203.12,-45.56 262,-57.75 265.16,-58.4 268.38,-59.1 271.62,-59.83"/>
<polygon fill="#475569" stroke="#475569" points="270.88,-62.18 278.25,-61.37 271.99,-57.4 270.88,-62.18"/>
<text xml:space="preserve" text-anchor="middle" x="185.12" y="-61.7" font-family="Times,serif" font-size="14.00">host embed</text>
</g>
<!-- semx -->
<g id="node16" class="node">
<title>semx</title>
<path fill="#ccfbf1" stroke="#0f766e" d="M378.5,-36C378.5,-36 304,-36 304,-36 298,-36 292,-30 292,-24 292,-24 292,-12 292,-12 292,-6 298,0 304,0 304,0 378.5,0 378.5,0 384.5,0 390.5,-6 390.5,-12 390.5,-12 390.5,-24 390.5,-24 390.5,-30 384.5,-36 378.5,-36"/>
<text xml:space="preserve" text-anchor="middle" x="341.25" y="-15.43" font-family="Inter" font-size="11.00">semantic cosine</text>
</g>
<!-- semantic&#45;&gt;semx -->
<g id="edge8" class="edge">
<title>semantic&#45;&gt;semx</title>
<path fill="none" stroke="#475569" d="M90.48,-23.1C141.92,-22.05 226.85,-20.31 283.17,-19.16"/>
<polygon fill="#475569" stroke="#475569" points="283.15,-21.62 290.1,-19.02 283.05,-16.72 283.15,-21.62"/>
</g>
<!-- list -->
<g id="node8" class="node">
<title>list</title>
<path fill="#fef3c7" stroke="#b45309" d="M62.5,-266C62.5,-266 27.75,-266 27.75,-266 21.75,-266 15.75,-260 15.75,-254 15.75,-254 15.75,-242 15.75,-242 15.75,-236 21.75,-230 27.75,-230 27.75,-230 62.5,-230 62.5,-230 68.5,-230 74.5,-236 74.5,-242 74.5,-242 74.5,-254 74.5,-254 74.5,-260 68.5,-266 62.5,-266"/>
<text xml:space="preserve" text-anchor="middle" x="45.12" y="-245.43" font-family="Inter" font-size="11.00">tape_list</text>
</g>
<!-- list&#45;&gt;pathx -->
<g id="edge10" class="edge">
<title>list&#45;&gt;pathx</title>
<path fill="none" stroke="#475569" d="M74.86,-250.54C124.32,-254.91 226.18,-263.92 288.33,-269.41"/>
<polygon fill="#475569" stroke="#475569" points="287.76,-271.82 294.95,-270 288.19,-266.94 287.76,-271.82"/>
</g>
<!-- stat -->
<g id="node9" class="node">
<title>stat</title>
<path fill="#fef3c7" stroke="#b45309" d="M64.38,-466C64.38,-466 25.88,-466 25.88,-466 19.88,-466 13.88,-460 13.88,-454 13.88,-454 13.88,-442 13.88,-442 13.88,-436 19.88,-430 25.88,-430 25.88,-430 64.38,-430 64.38,-430 70.38,-430 76.38,-436 76.38,-442 76.38,-442 76.38,-454 76.38,-454 76.38,-460 70.38,-466 64.38,-466"/>
<text xml:space="preserve" text-anchor="middle" x="45.12" y="-445.43" font-family="Inter" font-size="11.00">tape_stat</text>
</g>
<!-- statx -->
<g id="node17" class="node">
<title>statx</title>
<path fill="#ccfbf1" stroke="#0f766e" d="M375.12,-466C375.12,-466 307.38,-466 307.38,-466 301.38,-466 295.38,-460 295.38,-454 295.38,-454 295.38,-442 295.38,-442 295.38,-436 301.38,-430 307.38,-430 307.38,-430 375.12,-430 375.12,-430 381.12,-430 387.12,-436 387.12,-442 387.12,-442 387.12,-454 387.12,-454 387.12,-460 381.12,-466 375.12,-466"/>
<text xml:space="preserve" text-anchor="middle" x="341.25" y="-445.43" font-family="Inter" font-size="11.00">residency stats</text>
</g>
<!-- stat&#45;&gt;statx -->
<g id="edge11" class="edge">
<title>stat&#45;&gt;statx</title>
<path fill="none" stroke="#475569" d="M76.77,-448C126.44,-448 225.18,-448 286.67,-448"/>
<polygon fill="#475569" stroke="#475569" points="286.57,-450.45 293.57,-448 286.57,-445.55 286.57,-450.45"/>
</g>
</g>
</svg>
