<?xml version="1.0" encoding="UTF-8" standalone="no"?>
<!DOCTYPE svg PUBLIC "-//W3C//DTD SVG 1.1//EN"
 "http://www.w3.org/Graphics/SVG/1.1/DTD/svg11.dtd">
<!-- Generated by graphviz version 14.1.5 (0)
 -->
<!-- Title: vm_analogy Pages: 1 -->
<svg width="505pt" height="461pt"
 viewBox="0.00 0.00 505.00 461.00" xmlns="http://www.w3.org/2000/svg" xmlns:xlink="http://www.w3.org/1999/xlink">
<g id="graph0" class="graph" transform="scale(1 1) rotate(0) translate(4 457)">
<title>vm_analogy</title>
<g id="clust1" class="cluster">
<title>cluster_os</title>
<path fill="#f1f5f9" stroke="#334155" d="M12,-31C12,-31 211,-31 211,-31 217,-31 223,-37 223,-43 223,-43 223,-422 223,-422 223,-428 217,-434 211,-434 211,-434 12,-434 12,-434 6,-434 0,-428 0,-422 0,-422 0,-43 0,-43 0,-37 6,-31 12,-31"/>
<text xml:space="preserve" text-anchor="middle" x="111.5" y="-417.65" font-family="Inter" font-size="13.00">Operating&#45;system virtual memory</text>
</g>
<g id="clust2" class="cluster">
<title>cluster_tape</title>
<path fill="#ecfdf5" stroke="#0f766e" d="M328.5,-8C328.5,-8 477.16,-8 477.16,-8 483.16,-8 489.16,-14 489.16,-20 489.16,-20 489.16,-433 489.16,-433 489.16,-439 483.16,-445 477.16,-445 477.16,-445 328.5,-445 328.5,-445 322.5,-445 316.5,-439 316.5,-433 316.5,-433 316.5,-20 316.5,-20 316.5,-14 322.5,-8 328.5,-8"/>
<text xml:space="preserve" text-anchor="middle" x="402.83" y="-428.65" font-family="Inter" font-size="13.00">Context tape</text>
</g>
<!-- os_ram -->
<g id="node1" class="node">
<title>os_ram</title>
<path fill="#e2e8f0" stroke="#334155" d="M171.7,-399C171.7,-399 50.3,-399 50.3,-399 44.3,-399 38.3,-393 38.3,-387 38.3,-387 38.3,-375 38.3,-375 38.3,-369 44.3,-363 50.3,-363 50.3,-363 171.7,-363 171.7,-363 177.7,-363 183.7,-369 183.7,-375 183.7,-375 183.7,-387 183.7,-387 183.7,-393 177.7,-399 171.7,-399"/>
<text xml:space="preserve" text-anchor="middle" x="111" y="-378.23" font-family="Inter" font-size="12.00">physical RAM (frames)</text>
</g>
<!-- t_win -->
<g id="node8" class="node">
<title>t_win</title>
<path fill="#ccfbf1" stroke="#0f766e" d="M447.41,-410.73C447.41,-410.73 358.25,-410.73 358.25,-410.73 352.25,-410.73 346.25,-404.73 346.25,-398.73 346.25,-398.73 346.25,-375.27 346.25,-375.27 346.25,-369.27 352.25,-363.27 358.25,-363.27 358.25,-363.27 447.41,-363.27 447.41,-363.27 453.41,-363.27 459.41,-369.27 459.41,-375.27 459.41,-375.27 459.41,-398.73 459.41,-398.73 459.41,-404.73 453.41,-410.73 447.41,-410.73"/>
<text xml:space="preserve" text-anchor="middle" x="402.83" y="-392.85" font-family="Inter" font-size="12.00">model window</text>
<text xml:space="preserve" text-anchor="middle" x="402.83" y="-375.6" font-family="Inter" font-size="12.00">(budget_tokens)</text>
</g>
<!-- os_ram&#45;&gt;t_win -->
<g id="edge1" class="edge">
<title>os_ram&#45;&gt;t_win</title>
<path fill="none" stroke="#475569" stroke-dasharray="5,2" d="M184.02,-382.49C231.21,-383.47 292.34,-384.73 337.83,-385.68"/>
<polygon fill="#475569" stroke="#475569" points="337.57,-388.12 344.62,-385.82 337.67,-383.22 337.57,-388.12"/>
<text xml:space="preserve" text-anchor="middle" x="269.75" y="-389.64" font-family="Inter" font-size="10.00">plays the role of</text>
</g>
<!-- os_disk -->
<g id="node2" class="node">
<title>os_disk</title>
<path fill="#e2e8f0" stroke="#334155" d="M164.58,-345C164.58,-345 57.42,-345 57.42,-345 51.42,-345 45.42,-339 45.42,-333 45.42,-333 45.42,-321 45.42,-321 45.42,-315 51.42,-309 57.42,-309 57.42,-309 164.58,-309 164.58,-309 170.58,-309 176.58,-315 176.58,-321 176.58,-321 176.58,-333 176.58,-333 176.58,-339 170.58,-345 164.58,-345"/>
<text xml:space="preserve" text-anchor="middle" x="111" y="-324.23" font-family="Inter" font-size="12.00">backing store / disk</text>
</g>
<!-- t_back -->
<g id="node9" class="node">
<title>t_back</title>
<path fill="#ccfbf1" stroke="#0f766e" d="M461.66,-345C461.66,-345 344,-345 344,-345 338,-345 332,-339 332,-333 332,-333 332,-321 332,-321 332,-315 338,-309 344,-309 344,-309 461.66,-309 461.66,-309 467.66,-309 473.66,-315 473.66,-321 473.66,-321 473.66,-333 473.66,-333 473.66,-339 467.66,-345 461.66,-345"/>
<text xml:space="preserve" text-anchor="middle" x="402.83" y="-324.23" font-family="Inter" font-size="12.00">corpus + OOC overlay</text>
</g>
<!-- os_disk&#45;&gt;t_back -->
<g id="edge2" class="edge">
<title>os_disk&#45;&gt;t_back</title>
<path fill="none" stroke="#475569" stroke-dasharray="5,2" d="M177.04,-327C220.33,-327 277.44,-327 323.27,-327"/>
<polygon fill="#475569" stroke="#475569" points="323.17,-329.45 330.17,-327 323.17,-324.55 323.17,-329.45"/>
<text xml:space="preserve" text-anchor="middle" x="269.75" y="-331.75" font-family="Inter" font-size="10.00">plays the role of</text>
</g>
<!-- os_fault -->
<g id="node3" class="node">
<title>os_fault</title>
<path fill="#e2e8f0" stroke="#334155" d="M137.95,-291C137.95,-291 84.05,-291 84.05,-291 78.05,-291 72.05,-285 72.05,-279 72.05,-279 72.05,-267 72.05,-267 72.05,-261 78.05,-255 84.05,-255 84.05,-255 137.95,-255 137.95,-255 143.95,-255 149.95,-261 149.95,-267 149.95,-267 149.95,-279 149.95,-279 149.95,-285 143.95,-291 137.95,-291"/>
<text xml:space="preserve" text-anchor="middle" x="111" y="-270.23" font-family="Inter" font-size="12.00">page fault</text>
</g>
<!-- t_pagein -->
<g id="node10" class="node">
<title>t_pagein</title>
<path fill="#ccfbf1" stroke="#0f766e" d="M450.03,-291C450.03,-291 355.62,-291 355.62,-291 349.62,-291 343.62,-285 343.62,-279 343.62,-279 343.62,-267 343.62,-267 343.62,-261 349.62,-255 355.62,-255 355.62,-255 450.03,-255 450.03,-255 456.03,-255 462.03,-261 462.03,-267 462.03,-267 462.03,-279 462.03,-279 462.03,-285 456.03,-291 450.03,-291"/>
<text xml:space="preserve" text-anchor="middle" x="402.83" y="-270.23" font-family="Inter" font-size="12.00">page_in / hydrate</text>
</g>
<!-- os_fault&#45;&gt;t_pagein -->
<g id="edge3" class="edge">
<title>os_fault&#45;&gt;t_pagein</title>
<path fill="none" stroke="#475569" stroke-dasharray="5,2" d="M150.19,-273C197.14,-273 277.65,-273 334.95,-273"/>
<polygon fill="#475569" stroke="#475569" points="334.72,-275.45 341.72,-273 334.72,-270.55 334.72,-275.45"/>
<text xml:space="preserve" text-anchor="middle" x="269.75" y="-277.75" font-family="Inter" font-size="10.00">plays the role of</text>
</g>
<!-- os_repl -->
<g id="node4" class="node">
<title>os_repl</title>
<path fill="#e2e8f0" stroke="#334155" d="M160.45,-237C160.45,-237 61.55,-237 61.55,-237 55.55,-237 49.55,-231 49.55,-225 49.55,-225 49.55,-213 49.55,-213 49.55,-207 55.55,-201 61.55,-201 61.55,-201 160.45,-201 160.45,-201 166.45,-201 172.45,-207 172.45,-213 172.45,-213 172.45,-225 172.45,-225 172.45,-231 166.45,-237 160.45,-237"/>
<text xml:space="preserve" text-anchor="middle" x="111" y="-216.22" font-family="Inter" font-size="12.00">page replacement</text>
</g>
<!-- t_evict -->
<g id="node11" class="node">
<title>t_evict</title>
<path fill="#ccfbf1" stroke="#0f766e" d="M441.03,-237C441.03,-237 364.62,-237 364.62,-237 358.62,-237 352.62,-231 352.62,-225 352.62,-225 352.62,-213 352.62,-213 352.62,-207 358.62,-201 364.62,-201 364.62,-201 441.03,-201 441.03,-201 447.03,-201 453.03,-207 453.03,-213 453.03,-213 453.03,-225 453.03,-225 453.03,-231 447.03,-237 441.03,-237"/>
<text xml:space="preserve" text-anchor="middle" x="402.83" y="-216.22" font-family="Inter" font-size="12.00">eviction policy</text>
</g>
<!-- os_repl&#45;&gt;t_evict -->
<g id="edge4" class="edge">
<title>os_repl&#45;&gt;t_evict</title>
<path fill="none" stroke="#475569" stroke-dasharray="5,2" d="M172.76,-219C223.13,-219 294.25,-219 343.84,-219"/>
<polygon fill="#475569" stroke="#475569" points="343.71,-221.45 350.71,-219 343.71,-216.55 343.71,-221.45"/>
<text xml:space="preserve" text-anchor="middle" x="269.75" y="-223.75" font-family="Inter" font-size="10.00">plays the role of</text>
</g>
<!-- os_flush -->
<g id="node5" class="node">
<title>os_flush</title>
<path fill="#e2e8f0" stroke="#334155" d="M169.83,-183C169.83,-183 52.17,-183 52.17,-183 46.17,-183 40.17,-177 40.17,-171 40.17,-171 40.17,-159 40.17,-159 40.17,-153 46.17,-147 52.17,-147 52.17,-147 169.83,-147 169.83,-147 175.83,-147 181.83,-153 181.83,-159 181.83,-159 181.83,-171 181.83,-171 181.83,-177 175.83,-183 169.83,-183"/>
<text xml:space="preserve" text-anchor="middle" x="111" y="-162.22" font-family="Inter" font-size="12.00">dirty&#45;page write&#45;back</text>
</g>
<!-- t_wb -->
<g id="node12" class="node">
<title>t_wb</title>
<path fill="#ccfbf1" stroke="#0f766e" d="M469.16,-182.73C469.16,-182.73 336.5,-182.73 336.5,-182.73 330.5,-182.73 324.5,-176.73 324.5,-170.73 324.5,-170.73 324.5,-147.27 324.5,-147.27 324.5,-141.27 330.5,-135.27 336.5,-135.27 336.5,-135.27 469.16,-135.27 469.16,-135.27 475.16,-135.27 481.16,-141.27 481.16,-147.27 481.16,-147.27 481.16,-170.73 481.16,-170.73 481.16,-176.73 475.16,-182.73 469.16,-182.73"/>
<text xml:space="preserve" text-anchor="middle" x="402.83" y="-164.85" font-family="Inter" font-size="12.00">dirty write&#45;back</text>
<text xml:space="preserve" text-anchor="middle" x="402.83" y="-147.6" font-family="Inter" font-size="12.00">(bi&#45;temporal supersede)</text>
</g>
<!-- os_flush&#45;&gt;t_wb -->
<g id="edge5" class="edge">
<title>os_flush&#45;&gt;t_wb</title>
<path fill="none" stroke="#475569" stroke-dasharray="5,2" d="M182.16,-163.55C222.37,-162.72 273.15,-161.66 315.75,-160.78"/>
<polygon fill="#475569" stroke="#475569" points="315.7,-163.23 322.65,-160.64 315.6,-158.33 315.7,-163.23"/>
<text xml:space="preserve" text-anchor="middle" x="269.75" y="-167.11" font-family="Inter" font-size="10.00">plays the role of</text>
</g>
<!-- os_swap -->
<g id="node6" class="node">
<title>os_swap</title>
<path fill="#e2e8f0" stroke="#334155" d="M183.7,-129C183.7,-129 38.3,-129 38.3,-129 32.3,-129 26.3,-123 26.3,-117 26.3,-117 26.3,-105 26.3,-105 26.3,-99 32.3,-93 38.3,-93 38.3,-93 183.7,-93 183.7,-93 189.7,-93 195.7,-99 195.7,-105 195.7,-105 195.7,-117 195.7,-117 195.7,-123 189.7,-129 183.7,-129"/>
<text xml:space="preserve" text-anchor="middle" x="111" y="-108.22" font-family="Inter" font-size="12.00">compressed swap (zswap)</text>
</g>
<!-- t_demote -->
<g id="node13" class="node">
<title>t_demote</title>
<path fill="#ccfbf1" stroke="#0f766e" d="M448.53,-117.73C448.53,-117.73 357.12,-117.73 357.12,-117.73 351.12,-117.73 345.12,-111.73 345.12,-105.73 345.12,-105.73 345.12,-82.27 345.12,-82.27 345.12,-76.27 351.12,-70.27 357.12,-70.27 357.12,-70.27 448.53,-70.27 448.53,-70.27 454.53,-70.27 460.53,-76.27 460.53,-82.27 460.53,-82.27 460.53,-105.73 460.53,-105.73 460.53,-111.73 454.53,-117.73 448.53,-117.73"/>
<text xml:space="preserve" text-anchor="middle" x="402.83" y="-99.85" font-family="Inter" font-size="12.00">demotion ladder</text>
<text xml:space="preserve" text-anchor="middle" x="402.83" y="-82.6" font-family="Inter" font-size="12.00">(summary node)</text>
</g>
<!-- os_swap&#45;&gt;t_demote -->
<g id="edge6" class="edge">
<title>os_swap&#45;&gt;t_demote</title>
<path fill="none" stroke="#475569" stroke-dasharray="5,2" d="M195.83,-106.08C240.56,-103.46 294.8,-100.28 336.39,-97.84"/>
<polygon fill="#475569" stroke="#475569" points="336.45,-100.29 343.29,-97.43 336.16,-95.4 336.45,-100.29"/>
<text xml:space="preserve" text-anchor="middle" x="269.75" y="-108.27" font-family="Inter" font-size="10.00">plays the role of</text>
</g>
<!-- os_frame -->
<g id="node7" class="node">
<title>os_frame</title>
<path fill="#e2e8f0" stroke="#334155" d="M138.33,-75C138.33,-75 83.67,-75 83.67,-75 77.67,-75 71.67,-69 71.67,-63 71.67,-63 71.67,-51 71.67,-51 71.67,-45 77.67,-39 83.67,-39 83.67,-39 138.33,-39 138.33,-39 144.33,-39 150.33,-45 150.33,-51 150.33,-51 150.33,-63 150.33,-63 150.33,-69 144.33,-75 138.33,-75"/>
<text xml:space="preserve" text-anchor="middle" x="111" y="-54.23" font-family="Inter" font-size="12.00">frame size</text>
</g>
<!-- t_tok -->
<g id="node14" class="node">
<title>t_tok</title>
<path fill="#ccfbf1" stroke="#0f766e" d="M431.66,-52C431.66,-52 374,-52 374,-52 368,-52 362,-46 362,-40 362,-40 362,-28 362,-28 362,-22 368,-16 374,-16 374,-16 431.66,-16 431.66,-16 437.66,-16 443.66,-22 443.66,-28 443.66,-28 443.66,-40 443.66,-40 443.66,-46 437.66,-52 431.66,-52"/>
<text xml:space="preserve" text-anchor="middle" x="402.83" y="-31.23" font-family="Inter" font-size="12.00">est_tokens</text>
</g>
<!-- os_frame&#45;&gt;t_tok -->
<g id="edge7" class="edge">
<title>os_frame&#45;&gt;t_tok</title>
<path fill="none" stroke="#475569" stroke-dasharray="5,2" d="M150.79,-53.92C203.17,-49.77 296.49,-42.36 353.41,-37.84"/>
<polygon fill="#475569" stroke="#475569" points="353.58,-40.29 360.37,-37.29 353.2,-35.4 353.58,-40.29"/>
<text xml:space="preserve" text-anchor="middle" x="269.75" y="-51.63" font-family="Inter" font-size="10.00">plays the role of</text>
</g>
</g>
</svg>
