<?xml version="1.0" encoding="UTF-8" standalone="no"?>
<!DOCTYPE svg PUBLIC "-//W3C//DTD SVG 1.1//EN"
 "http://www.w3.org/Graphics/SVG/1.1/DTD/svg11.dtd">
<!-- Generated by graphviz version 14.1.5 (0)
 -->
<!-- Title: vocab_provenance Pages: 1 -->
<svg width="823pt" height="141pt"
 viewBox="0.00 0.00 823.00 141.00" xmlns="http://www.w3.org/2000/svg" xmlns:xlink="http://www.w3.org/1999/xlink">
<g id="graph0" class="graph" transform="scale(1 1) rotate(0) translate(4 136.9)">
<title>vocab_provenance</title>
<!-- enum -->
<g id="node1" class="node">
<title>enum</title>
<path fill="#ccfbf1" stroke="#0f766e" d="M285.54,-108.53C285.54,-108.53 12,-108.53 12,-108.53 6,-108.53 0,-102.53 0,-96.53 0,-96.53 0,-54.38 0,-54.38 0,-48.38 6,-42.38 12,-42.38 12,-42.38 285.54,-42.38 285.54,-42.38 291.54,-42.38 297.54,-48.38 297.54,-54.38 297.54,-54.38 297.54,-96.53 297.54,-96.53 297.54,-102.53 291.54,-108.53 285.54,-108.53"/>
<text xml:space="preserve" text-anchor="middle" x="148.77" y="-89.92" font-family="Inter" font-size="12.00">Rust enum</text>
<text xml:space="preserve" text-anchor="middle" x="148.77" y="-72.67" font-family="Inter" font-size="12.00">EvictionPolicy::ALL</text>
<text xml:space="preserve" text-anchor="middle" x="148.77" y="-55.43" font-family="Inter" font-size="12.00">{lru,lfu,ttl,fifo,cost_aware,importance_weighted}</text>
</g>
<!-- sql -->
<g id="node2" class="node">
<title>sql</title>
<path fill="#e0e7ff" stroke="#3730a3" d="M479.58,-66.9C479.58,-66.9 396.54,-66.9 396.54,-66.9 390.54,-66.9 384.54,-60.9 384.54,-54.9 384.54,-54.9 384.54,-30 384.54,-30 384.54,-24 390.54,-18 396.54,-18 396.54,-18 479.58,-18 479.58,-18 485.58,-18 491.58,-24 491.58,-30 491.58,-30 491.58,-54.9 491.58,-54.9 491.58,-60.9 485.58,-66.9 479.58,-66.9"/>
<text xml:space="preserve" text-anchor="middle" x="438.06" y="-48.3" font-family="Inter" font-size="12.00">sql_in_list()</text>
<text xml:space="preserve" text-anchor="middle" x="438.06" y="-31.05" font-family="Inter" font-size="12.00">join_quoted(...)</text>
</g>
<!-- enum&#45;&gt;sql -->
<g id="edge1" class="edge">
<title>enum&#45;&gt;sql</title>
<path fill="none" stroke="#475569" d="M297.62,-58.47C324.08,-55.43 350.35,-52.41 372.83,-49.83"/>
<polygon fill="#475569" stroke="#475569" points="373.19,-53.31 382.72,-48.69 372.39,-46.36 373.19,-53.31"/>
<text xml:space="preserve" text-anchor="middle" x="341.04" y="-61.29" font-family="Inter" font-size="11.00">generates</text>
</g>
<!-- test -->
<g id="node4" class="node">
<title>test</title>
<path fill="#fef3c7" stroke="#b45309" d="M801.49,-132.9C801.49,-132.9 662.2,-132.9 662.2,-132.9 656.2,-132.9 650.2,-126.9 650.2,-120.9 650.2,-120.9 650.2,-96 650.2,-96 650.2,-90 656.2,-84 662.2,-84 662.2,-84 801.49,-84 801.49,-84 807.49,-84 813.49,-90 813.49,-96 813.49,-96 813.49,-120.9 813.49,-120.9 813.49,-126.9 807.49,-132.9 801.49,-132.9"/>
<text xml:space="preserve" text-anchor="middle" x="731.85" y="-114.3" font-family="Inter" font-size="12.00">golden test</text>
<text xml:space="preserve" text-anchor="middle" x="731.85" y="-97.05" font-family="Inter" font-size="12.00">vocabularies_are_pinned</text>
</g>
<!-- enum&#45;&gt;test -->
<g id="edge3" class="edge">
<title>enum&#45;&gt;test</title>
<path fill="none" stroke="#b45309" stroke-dasharray="5,2" d="M297.9,-83.86C405.12,-89.95 546.71,-97.99 638.28,-103.19"/>
<polygon fill="#b45309" stroke="#b45309" points="638.05,-106.69 648.24,-103.76 638.45,-99.7 638.05,-106.69"/>
<text xml:space="preserve" text-anchor="middle" x="438.06" y="-99.99" font-family="Inter" font-size="11.00">pins as_str() set</text>
</g>
<!-- ddl -->
<g id="node3" class="node">
<title>ddl</title>
<path fill="#e2e8f0" stroke="#334155" d="M802.62,-48.9C802.62,-48.9 661.08,-48.9 661.08,-48.9 655.08,-48.9 649.08,-42.9 649.08,-36.9 649.08,-36.9 649.08,-12 649.08,-12 649.08,-6 655.08,0 661.08,0 661.08,0 802.62,0 802.62,0 808.62,0 814.62,-6 814.62,-12 814.62,-12 814.62,-36.9 814.62,-36.9 814.62,-42.9 808.62,-48.9 802.62,-48.9"/>
<text xml:space="preserve" text-anchor="middle" x="731.85" y="-30.3" font-family="Inter" font-size="12.00">DDL</text>
<text xml:space="preserve" text-anchor="middle" x="731.85" y="-13.05" font-family="Inter" font-size="12.00">CHECK (policy IN (&#39;lru&#39;,…))</text>
</g>
<!-- sql&#45;&gt;ddl -->
<g id="edge2" class="edge">
<title>sql&#45;&gt;ddl</title>
<path fill="none" stroke="#475569" d="M491.9,-39.19C532.34,-36.7 589.16,-33.19 637.24,-30.22"/>
<polygon fill="#475569" stroke="#475569" points="637.35,-33.72 647.12,-29.62 636.92,-26.74 637.35,-33.72"/>
<text xml:space="preserve" text-anchor="middle" x="570.33" y="-42.92" font-family="Inter" font-size="11.00">embeds (v51 migration)</text>
</g>
<!-- test&#45;&gt;ddl -->
<g id="edge4" class="edge">
<title>test&#45;&gt;ddl</title>
<path fill="none" stroke="#b45309" stroke-dasharray="5,2" d="M731.85,-72.17C731.85,-64.41 731.85,-56.4 731.85,-49.2"/>
<polygon fill="#b45309" stroke="#b45309" points="728.35,-72.07 731.85,-82.07 735.35,-72.07 728.35,-72.07"/>
<text xml:space="preserve" text-anchor="middle" x="720.97" y="-63.88" font-family="Inter" font-size="11.00">cannot drift</text>
</g>
</g>
</svg>
